<svg id="b3b46f17-65dd-4136-b60b-1205b1025d0c" data-name="Objects" xmlns="http://www.w3.org/2000/svg" viewBox="0 0 52.8 53">
  <defs>
    <style>
      .b2bf2dcb-5fa9-47c9-ab43-a3014a8ae324 {
        fill: #252525;
      }
    </style>
  </defs>
  <g>
    <path class="b2bf2dcb-5fa9-47c9-ab43-a3014a8ae324" d="M564.7,498.3h0c-.1,0-.1.1-.1.2v.2l-.2.5c-.1.1-.2.3-.4.3h-.4l-.6-.2h-.2a22.4,22.4,0,0,1-1-2.6,1.4,1.4,0,0,0-.2-.6V496l-.8-2.4-1.2-3.3-1.2-3.4-.3-.8c-.1-.3-.1-.6-.2-.9v-.7c0-.1,0-.1-.1-.3a2,2,0,0,0-.2-.9v-.7c0-.1.1-.2.2-.3v-.2h.7a2.2,2.2,0,0,1,1.6,0h.6l.5.2.9.3h.1l2,.9,2.4,1.1,2.4,1.1,2.4.9,1.3.4.6.2h.4a6,6,0,0,0,4-1.7l2-1.8.9-.9.9-.9a37.6,37.6,0,0,1,4.1-3.8l1.4-.8h1.1a2.6,2.6,0,0,1,1.2.5c.4.2.6.7.8,1a2.4,2.4,0,0,1,.2.8c.1.6.1,1.1.2,1.5a24.6,24.6,0,0,1-.2,2.8,23.5,23.5,0,0,1-.1,2.6v2.7a20.9,20.9,0,0,0,0,2.5,5.3,5.3,0,0,0,.4,2.3,3,3,0,0,0,1.2,1.7,9.9,9.9,0,0,0,2,1.3l1.2.6,1.2.7,2.3,1.2,2.5,1.1,2.3,1.1,1.3.7a1.8,1.8,0,0,1,1,.7,1.7,1.7,0,0,1,.4,1.1,1.7,1.7,0,0,1-.4,1.2,3.4,3.4,0,0,1-.9.8l-1.3.6a18.3,18.3,0,0,1-2.6,1.1c-1.8.5-3.5.9-5.2,1.5l-2.5.8a8.3,8.3,0,0,0-2.1.9,3.4,3.4,0,0,0-1.3,1.6,15.5,15.5,0,0,0-.6,2.3l-.3,2.6-.3,2.7-.6,5.3-.2,1.3a4.4,4.4,0,0,1-.2,1.5,2.3,2.3,0,0,1-.4.9,1.7,1.7,0,0,1-.9.8l-1.1.3-1-.2a5.2,5.2,0,0,1-2.7-1.8l-.9-1.1a7.6,7.6,0,0,0-.8-1.1l-.8-1.2-.6-1.2-1.3-2.3c-.9-1.6-1.6-3.4-2.4-4.7l-.6-.8-.7-.4h-2.3l-5.3.6-5.4.5-2.6.3h-2.3l-1.2-.3a3,3,0,0,1-.8-.8,1.4,1.4,0,0,1-.1-1.1v-.3a.1.1,0,0,0,.1-.1h.1l.2-.3.4-.7,1-1.4.8-1,2.7-3.5,1.1-1.5,1.3-1.5,2.3-2.8a3.2,3.2,0,0,0,.8-1.6v-.3c0-.1,0-.1.1-.2s.2,0,.4.2.2.5.3.8a5.9,5.9,0,0,1-.4,1.7,16.7,16.7,0,0,1-1.4,2.7,13.6,13.6,0,0,0-1.2,1.7l-.5.9-.6.7-1.5,2-1.6,2.1-.8,1-.6.8-.5.7h1.7l10.4-1.1,5.4-.5h.9l.9.4a6.8,6.8,0,0,1,1.2,1.2,14.9,14.9,0,0,1,1.4,2.4,25.6,25.6,0,0,0,1.1,2.4l1.2,2.3a23.6,23.6,0,0,0,2.8,4.2l.7.8.8.6.8.3h.3l.2-.7v-.6a2,2,0,0,1,.1-.7l.3-2.6.6-5.2a35.9,35.9,0,0,1,.8-5.3,1.9,1.9,0,0,1,.2-.7l.3-.7a2.5,2.5,0,0,1,.4-.7l.5-.7a7.3,7.3,0,0,1,2.6-1.7l1.2-.4,1.3-.5,2.5-.7,5-1.6,1.1-.4,1.1-.6h-.4l-.5-.3-1.2-.5-2.4-1.2-1.2-.5-1.2-.7-2.3-1.2-2.3-1.2a10.1,10.1,0,0,1-2.4-1.8,6.2,6.2,0,0,1-1.4-2.8,7.7,7.7,0,0,1-.2-1.5c0-.4-.1-.9-.1-1.3V488a21.7,21.7,0,0,1,.1-2.6v-1.3c0-.5.1-1,.1-1.4a20.8,20.8,0,0,0,0-2.5c0-.3-.1-.7-.1-.9h-.3l-.4.2a2.4,2.4,0,0,0-.9.6,29.5,29.5,0,0,0-3.6,3.5l-.5.5-.3.2-.2.3-1,.9-2,1.8a11.8,11.8,0,0,1-2.5,1.5,5.4,5.4,0,0,1-3.1.5l-.8-.2-.6-.2-1.3-.4-2.5-.9-2.5-1.1-2.4-1.1-1.9-.8H561l-.8-.3h-.6l.2.8a2.4,2.4,0,0,1,.2.8l.3.8,1.2,3.3,1.2,3.4.7,2.2.2.3c.1.2.1.5.2.7A11.2,11.2,0,0,0,564.7,498.3Z" transform="translate(-553 -476.9)"/>
    <path class="b2bf2dcb-5fa9-47c9-ab43-a3014a8ae324" d="M559.6,484.8h0a1.3,1.3,0,0,1,.3-1c.2-.3.5-.5,1.3-.3s.2,0,.2.1a23.9,23.9,0,0,1,1.3,2.1l.5,1.1v.2l.6,1.1,1.3,2.6c1.8,3.5,3.6,7,5.1,10.7s2.5,7.4,4.3,10.7l.4.6h.1c-3.9,2.1-1.1.5-2,1h0l-.2-.3-.6-1.5a14,14,0,0,1-.9-2.9c-.2-.9-.5-1.9-.7-2.8s-.5-1.9-.7-2.8h0a76.1,76.1,0,0,0-3.3-9.5c-.7-1.7-1.2-3.4-1.8-4.9a14.7,14.7,0,0,0-1-2.2l-.3-.5V486h-.1l1.9-1.1h.1l.5,1.2c3,6.2,5.7,12.4,8.6,18.6h0l.8,1.8.8,1.7,1.7,3.5.9,1.8.9,1.8c.5,1.2,1,2.4,1.4,3.7a39.2,39.2,0,0,0,3.1,6.9h0l-2.1.8h0v-.8l-.2-1-.5-1.8c-.5-1.2-.9-2.4-1.4-3.5s-2-4.8-2.9-7.3l-1.4-3.6-1.5-3.6c-1-2.4-2.1-4.8-2.9-7.3s-.9-2.5-1.3-3.7l-.6-1.8-.7-1.8h0l-.6-1.7-.3-.8h-.1l1.9-1h.1v.2l.2.4a14,14,0,0,1,1,1.6,8.9,8.9,0,0,0,.8,1.7c1,2.3,1.7,4.6,2.5,6.8a32.4,32.4,0,0,0,1.3,3.3l1.4,3.3,2.9,6.6,3,6.5c.9,2.2,2.1,4.3,3,6.6l.6,1.8v.7h0l-1.9,1h-.2l-.3-.5-.3-.4a3.6,3.6,0,0,0-.4-.9l-.3-.8-.7-1.7-1.2-3.5-1.1-3.4h0c-.8-2.3-1.5-4.7-2.2-7s-1.5-4.7-2.4-7-1.7-4.5-2.6-6.7a8,8,0,0,0-.8-1.6l-.8-1.7a13,13,0,0,1-.8-1.7l-.4-1v-.4h-.1l2-1h.1v.2a42.7,42.7,0,0,1,3.5,6.7c.5,1.1.9,2.2,1.5,3.3l1.5,3.3c1.1,2.2,2.2,4.3,3.2,6.6l1.6,3.4c.5,1.1.9,2.3,1.4,3.3h0a19206757785605.1,19206757785605.1,0,0,0,1.6,3l.4.8v.2h0l-2,.9h0l-.2-.4-.5-1.6c-.4-1.1-.9-2.2-1.3-3.2s-.9-2.2-1.4-3.2c-2-4.3-4-8.5-5.7-13l-2.3-6.7-.5-1.6-.3-.9v-.2h0c3.7-2.1,1-.5,1.9-1h0l.3.4a13.5,13.5,0,0,1,1.7,3.4c.4,1.1.8,2.3,1.2,3.2l1.4,3.3,2.9,6.4h0l2.4,5.4a19.5,19.5,0,0,0,2.8,4.9l-1.9.8H585v-1.1c-.2-.4-.3-.9-.5-1.3l-1.3-2.7-2.1-5.5-2.2-5.6c-.3-.9-.7-1.8-1-2.8s-.7-1.9-1-2.8-.3-1-.4-1.4-.3-.9-.5-1.3l-.6-1.3-.2-.3h0l2.1-.9h0v.2l.2.7a49.9,49.9,0,0,0,2.3,5.3h0c1.7,3.4,3.6,6.7,5.4,10.2a38.4,38.4,0,0,0,2.7,4.9l.3.6.2.3h.1l-1.9,1h-.1l-.5-1.4-1-2.6-2-5.4c-.7-1.8-1.4-3.6-2-5.5l-.9-2.7-.4-1.4-.5-1.2-.6-1.3-.3-.6-.3-.7-.3-.8v-.2h0l1.9-1h0l.3.3.4.7.4.6h0c.9,1.6,1.6,3.3,2.3,4.8a24.4,24.4,0,0,0,1,2.4l1.1,2.3,1.1,2.3a16.3,16.3,0,0,0,1.1,2.3l1.1,2.3c.5.8.8,1.6,1.2,2.2l.2.2v.4h.1l-1.7,1.1h0l-.4-1.2-.5-1.1-.5-1.1-2.2-4.8-2.1-4.7-2.1-4.6h0a51.1,51.1,0,0,1-2.1-4.7l-.4-1.2h0c-.4.2,3.5-2,1.9-1h.2l.2.2.4.5.8,1.1.7,1a61.5,61.5,0,0,1,4.2,9.1,30.2,30.2,0,0,0,1.8,4.5,8.8,8.8,0,0,0,1,2.2,21.2,21.2,0,0,0,1.1,2.1l.6.9.4.4h.2l-1.9.9h0v-.3l-.2-1.1c-.1-.4-.1-.8-.2-1.2a40.4,40.4,0,0,0-1.6-4.5h0c-1-2.6-2.4-5.2-3.7-7.8l-1-1.9-1.1-2a19.4,19.4,0,0,1-1.7-4.2l-.2-.6v-.3h-.1c3.9-1.7,1.1-.5,2-.8h.1l.7,1,.7.9.6,1,.6.9.5,1,1,2c1.2,2.7,2.2,5.5,3.3,8.2h0l.9,2,.9,2a13.6,13.6,0,0,0,2.1,3.5v.2h.1l-.4-.3h-.1l-.3.9h-1v-.4a3.7,3.7,0,0,0-.2-.9c-.2-.6-.5-1.2-.8-1.9l-.9-1.9a3.7,3.7,0,0,1-.5-1.1l-.5-1-1.8-3.9-2-3.9-1-2-.5-1.1a10.4,10.4,0,0,1-.4-1l-.9-2.1-.2-.5v-.3h0c.8-.5-2,.9,1.9-1h.1l.5,1h0c2.9,4.8,4.7,10,6.9,14.9l.8,1.9a14.2,14.2,0,0,1,.8,1.8,10,10,0,0,0,2.1,3.1l.3.3h.3l-1.7,1.1h0l-.2-1c-.2-.6-.3-1.3-.5-1.9l-.5-2-.6-1.9h0l-.3-.7-.3-.7-.6-1.4h0l2-.8h.1v.2l.2.4.3.7.6,1.5a16.9,16.9,0,0,0,1.3,2.7l.4.6.3.4h0v-.6l-.3-1.5-.2-.8v-.6h0l2-.7h.1l.6,1.6a1.4,1.4,0,0,1,.2.6l.6,1h0l.3.6h0l.2.3.2.3h.1l-1.4.2h.1v-.3a2.2,2.2,0,0,0,.1-.9v-.4h0l1.1-.5h.1l.4.5.3.4v.2h-.7c0-.1.1-.1.1-.2h.2l.2-.2.3-.2.5-.2h0a2,2,0,0,1,.8.9c0,.2,0,.3-.1.3h-.4l-.7-.3.7-.3h0c-.1.1-.1.3-.2.4s-.1.2-.1.3l-.3.3h-.2l-.9.4h-.2l-.6-.6h-.2l1.3-.6h0v.3a1.3,1.3,0,0,1,.1.6,2.7,2.7,0,0,1,0,.9,4.3,4.3,0,0,1-.1.5v.2h-.1l-1.4.2H598l-.7-.7h0l-.6-.8a1.1,1.1,0,0,0-.2-.4,5.4,5.4,0,0,1-.5-1.1l-.3-.5-.3-1-.3-.7h0l2.1-.6h0v.5l.4,1.4.3,1.5v1.2a5.6,5.6,0,0,1,0,1.3c-.1.4-.1.9-.2,1.3v.2h-.4l-.6-.2H596c0-.1-.1-.1-.2-.2l-.6-.3-.5-.4-.5-.5-.3-.3-.4-.7-.8-1.3c-.5-.9-.9-1.8-1.3-2.7l-.5-1.4-.2-.7h-.1c.9-.4-2.1.8,2-.9h0l.2.4.5,1.3.3.7.2.7h0l.7,2,.5,2c.2.7.3,1.4.5,2.1l.2,1h0l-1.7,1.1h-.2l-.2-.2-.5-.4a15.1,15.1,0,0,1-2.5-3.7c-.3-.7-.5-1.3-.8-1.9l-.8-1.9c-2.2-5-4.1-10.1-6.8-14.7h0l-.5-1h0c3.9-1.9,1.1-.5,1.9-1h.1v.2l.2.5.8,2.1.4.9.5,1,.9,2,2.1,3.9,1.8,4.1.5,1,.4.9a18.6,18.6,0,0,1,1,2,8.5,8.5,0,0,1,.9,2.2l.3,1.3v.7h0c-.2.7-.1.2-.1.4h-.1l-.3.3-.5.2H592c0,.1-.8-.5-.4-.3h-.1l-.2-.2a17,17,0,0,1-2.4-4l-.9-2-.9-2.1h0c-1.1-2.7-2.1-5.4-3.3-8-.3-.7-.7-1.3-1-2l-.5-.9-.5-.9-.6-.9-.6-.8-.6-.9h-.1l1.9-.9h0v.7a14,14,0,0,0,1.6,3.8l1,1.9,1,2a74,74,0,0,1,3.9,8h0a33.8,33.8,0,0,1,1.6,4.8l.3,1.2.2,1.3v.3h0l-1.9.9h-.2l-.5-.6-.8-1-1.2-2.3A24,24,0,0,0,586,502l-1.8-4.6a52.8,52.8,0,0,0-4-8.7l-.6-1-.7-.9-.4-.4-.2-.2V486h0c-1.7.9,2.2-1.3,1.8-1.1h0l.4,1.1a41.7,41.7,0,0,0,1.9,4.4h0c.8,1.5,1.5,3.1,2.2,4.7l2.1,4.7c.7,1.6,1.4,3.2,2.2,4.7a6.1,6.1,0,0,0,.5,1.2l.5,1.2.5,1.4h0l-1.7,1.2h-.3l-.3-.4-.2-.3-.2-.3c-.6-.9-.9-1.6-1.3-2.3l-1.2-2.4a16.3,16.3,0,0,1-1.1-2.3l-1.1-2.4-1.1-2.3-1.1-2.4a32.2,32.2,0,0,0-2.1-4.6l-.3-.5-.4-.6-.2-.2h0l1.9-1h.1l.2.6c.3.8.8,1.7,1.2,2.6l.6,1.5.4,1.3.9,2.7,1.9,5.4,2.1,5.4,1,2.7.5,1.4h0l-1.9,1h-.1l-.2-.4-.4-.6c-1-1.7-1.9-3.4-2.8-5.1-1.7-3.4-3.7-6.7-5.4-10.2h0c-.8-1.8-1.7-3.6-2.4-5.6l-.2-.7v-.2h0c-.5.2,3.8-1.6,2-.9h0l.2.4.6,1.4a8.8,8.8,0,0,1,.5,1.5,5.8,5.8,0,0,1,.5,1.4l1,2.8,1,2.7,2.1,5.5,2.2,5.6c.3.8.8,1.7,1.2,2.6l.6,1.5.2.8v.6h0c.5-.1-3.6,1.7-1.9.9a22.8,22.8,0,0,1-3.1-5.4l-2.4-5.4h0l-2.9-6.4-1.4-3.3c-.5-1.1-.9-2.2-1.3-3.3a11.2,11.2,0,0,0-1.4-2.9l-.2-.3h0c.8-.5-1.9,1,1.8-1.1h.1v.2l.3.8.6,1.7,2.3,6.6c1.6,4.4,3.6,8.6,5.6,12.9.5,1,.9,2.1,1.4,3.2s.9,2.2,1.3,3.3l.6,1.7.2.4h0c.5-.1-3.8,1.8-2,1h0v-.2l-.5-.8c-.3-.5-.5-1.1-.8-1.6l-.8-1.6h0l-1.5-3.4-1.5-3.4c-.9-2.2-2.1-4.4-3.1-6.5s-1.1-2.3-1.7-3.4-1-2.3-1.4-3.4a41.7,41.7,0,0,0-3.3-6.3v-.2h-.1c3.9-1.9,1.1-.5,2-.9h0v.4l.3.8a8,8,0,0,0,.8,1.6l.8,1.7a8.9,8.9,0,0,1,.8,1.7,58,58,0,0,1,2.7,6.9c.9,2.3,1.6,4.7,2.4,7s1.4,4.7,2.2,7h0l1.1,3.4,1.2,3.3.6,1.7.3.8.4.8.2.3a.3.3,0,0,0,.1.2h.1l-1.9,1h0v-.6l-.6-1.6c-.8-2.1-1.9-4.2-2.9-6.5l-3-6.5-2.9-6.6-1.4-3.3c-.5-1.1-.9-2.3-1.3-3.4s-1.6-4.6-2.6-6.7a10.1,10.1,0,0,0-.7-1.5,7.1,7.1,0,0,0-.8-1.5l-.3-.4V488h0l2-1h0l.3.8.7,1.7h0a13.4,13.4,0,0,0,.7,1.8l.6,1.9c.4,1.2.8,2.5,1.3,3.7s1.8,4.8,2.8,7.2l1.5,3.6,1.4,3.6c.9,2.4,2,4.8,3,7.2s.9,2.5,1.3,3.7l.6,2,.3.9v.8h0l-2,.8h0a39.4,39.4,0,0,1-3.2-7.3l-1.5-3.5a8.9,8.9,0,0,0-.8-1.7l-.8-1.8-1.8-3.5-.8-1.8-.8-1.7h0c-2.9-6.2-5.6-12.4-8.6-18.6l-.5-1.1h-.1l1.9-1.1h.1l.2.3.4.6c.4.9.8,1.7,1.1,2.5s1.1,3.3,1.7,4.8a71.1,71.1,0,0,1,3.4,9.8h0c.3.9.5,1.9.8,2.9l.6,2.8c.3.9.5,1.8.9,2.7a6.1,6.1,0,0,0,.5,1.2v.3h.1c-.9.5,1.9-1-1.9,1.1h-.2l-.3-.7a100.4,100.4,0,0,1-4.5-10.9,110.6,110.6,0,0,0-4.9-10.5l-1.4-2.6-.6-1.2v-.2l-.5-1A10.8,10.8,0,0,0,559.6,484.8Z" transform="translate(-553 -476.9)"/>
    <path class="b2bf2dcb-5fa9-47c9-ab43-a3014a8ae324" d="M583.3,482.4v.2l-.2.3-.3.4c-.3.3-.7.5-1.5,0v-.5h0c-.5.2,3.8-1.6,2-.9h0l.3.4.4.8,1,1.6c.3.5.7,1,1,1.6a13,13,0,0,1,1,1.5l.6.7.3.4v.2h.1l-2,.8h0v-.8l-.3-.8h0a53.7,53.7,0,0,0-2.4-5.7l-.2-.4v-.2h-.1l2.1-.7h0l.2.7.6,1.4,1.5,2.7h0l1.4,2.7h.1l-2.1.5h0v-.3a1.3,1.3,0,0,0-.1-.6v-.7l-.2-.7c-.3-.8-.7-1.7-1-2.7l-.6-1.5-.2-.8v-.2h0l1.9-1h.2a.8.8,0,0,1,.2.4h0a7.5,7.5,0,0,1,1,2,3.6,3.6,0,0,0,.4.9v.2h.1l-2.1.7h0V484c-.1-.2-.1-.5-.2-.8v-.7c0-.2-.1-.5-.1-.8a3.7,3.7,0,0,1-.1-1.1l1.6-.6.4.8.3.8.3.7h0l-1.1.3h0v-.5a9.1,9.1,0,0,1,.2-2.1c.2-.4.3-.5.4-.3a2.2,2.2,0,0,1,.3.8c0,.2.1.4.1.7a1.9,1.9,0,0,1,.2.8.3.3,0,0,0,.1.2v.4h0l-1.4.4h-.1c0-.1,0-.1-.1-.2a9.9,9.9,0,0,0-1.1-1.7l1.7-.7c.1.4.1.7.2,1l.5,1.6c.1.3.1.6.2.8v.7h0l-2.1.6h0V485l-.2-.4a3.6,3.6,0,0,1-.4-.9,5.2,5.2,0,0,0-.7-1.5l-.2-.2h0l1.9-1h0v.2l.2.6.5,1.4a24.9,24.9,0,0,1,1.1,2.9l.2.8.2.8a2.5,2.5,0,0,1,.1.8v.5h0l-2.1.5h0v-.2l-1.5-2.6h0c-.5-1-1-1.9-1.4-2.9a10.1,10.1,0,0,1-.7-1.5l-.3-.8h0l2.1-.7h.1v.4c.7,1.8,1.9,3.7,2.6,5.8h0l.2,1.1.2,1v.2h0l-1.9.8h-.1v-.2l-.3-.4-.6-.8a7.6,7.6,0,0,1-1.1-1.6l-1.1-1.7-.9-1.5-.5-.8-.3-.4h0l2-.8h.1Z" transform="translate(-553 -476.9)"/>
    <path class="b2bf2dcb-5fa9-47c9-ab43-a3014a8ae324" d="M559.2,485.2c-.1-.1-.1-.1,0-.2s.6-1.5,1.9-.7h.1l1.3,3.2.2.5.9,2.3c.7,1.6,1.4,3.1,2.2,4.6,1.5,3,3.2,6.1,4.5,9.4l1.7,4.8.4,1.2.2.6.2.6a6.1,6.1,0,0,1,.5,1.2,2.4,2.4,0,0,1,.2.8v.2h0l-2,.8-.2-.3a16.2,16.2,0,0,1-2.3-5c-.2-.8-.5-1.6-.7-2.4l-.9-2.3h0l-.4-1-.5-.9-.9-2c-.7-1.2-1.3-2.6-1.9-3.8s-1.4-2.6-2-4a3.6,3.6,0,0,1-.4-1.1v-.3h-.1l2.1-.8h0l.2.5.9,2c2.1,5.6,3.1,11.3,5.7,16.2h0a9.3,9.3,0,0,1,.9,2,1.4,1.4,0,0,1,.2.6,1.3,1.3,0,0,1,.1.6v.5h0l-2,.7h0l-.4-.5a19.3,19.3,0,0,1-1.9-3.8c-.6-1.3-1-2.5-1.5-3.7s-.6-1.1-.9-1.8-.6-1.3-.8-1.9l-.2-.5v-.2h-.1l2.1-.5v.9c0,.7.2,1.3.2,1.9a10.5,10.5,0,0,1,.5,1.9,13.4,13.4,0,0,0,.7,1.8c.4,1.3.9,2.5,1.4,3.8l.3,1,.2.5v.3h.1l-2.1.7h0l-.8-1.8h0c-.6-1.4-1.3-2.8-2-4.3l-.9-2.3-.2-.5v-.2h0c1-.1-2.1.4,2.1-.3h0v1.3a25.7,25.7,0,0,0,1.1,4.4l.7,2.2v1.1h0l-2.1.7h-.1l-.4-1.1h0c-.6-1.4-1.2-2.7-1.7-4.2l-.8-2.1-.5-1v-.2h0c4.2-1.1,1.1-.3,2.1-.6h0v.2l.2.6c.3,1.4.7,2.8,1.1,4.3a22.5,22.5,0,0,0,.5,2.2l.2,1.2v.3l-1.9.8h-.1v-.2l-.4-.5h0a19.1,19.1,0,0,1-1.6-3.2,12.2,12.2,0,0,1-.7-1.7l-.3-.8v-.6h0l2.1-.4h0a67.2,67.2,0,0,0,1.4,6.7h0v.4h0c.4-.2-3.7,1.6-2,.8h0v-.2l-.5-.8a11.9,11.9,0,0,1-.9-1.5l-.7-1.4-.4-.7-.2-.4v-.2h0l2-.6h.1a10.7,10.7,0,0,0,.6,3c.1.6.3,1.1.4,1.7v.4h0l-2.1.7h-.1l-.3-.7h0l-1.6-2.9h-.1c-1.8.2,2.4-.2,2-.1h0v.9c0,.5.1,1,.1,1.5l.3,1.6h0a20.1,20.1,0,0,1-2.1.5h0v-.6l-.3-.8v-.3h-.1l-.3-.7-.2-.4v-.2h-.1l2.1-.2h-.1v.7a1.5,1.5,0,0,0-.1.7v1h0l-1.7.4h0v-.2l-.6-1.3v-.2h0c.5,0-1.2,0,1.2-.1h0l-.2.2a.4.4,0,0,1-.1.3h0a.3.3,0,0,1-.1.2h-.1v.4h0l-.4-.3h-.4c0,.1.2.3.2.4s-.2,0-.2.1h-.5c-.1,0-.1-.1-.1-.2h0l.4.2h-.5l-.2-.2c0-.1-.1-.2,0-.2s0-.2.1-.3h.1q.3-.2.3,0c.1.1,0,.2,0,.3H556a.4.4,0,0,0,.1-.3h0l.3.3h-.2c0-.1.1-.1.1-.2h0c0-.1,0-.1-.1-.1h0a4.2,4.2,0,0,1,.2-1v-.2H558l.2.3.6.9h.1l-1.7.4h0v-.2c0-.2-.1-.4-.1-.6s-.1-.5-.1-.7v-1.5h0l2.1-.3h0l.7,1.5h0l.2.3.2.8.2.4v.2h0l-2.1.6h-.1l-.2-1.6a9,9,0,0,1-.2-1.8,2.8,2.8,0,0,1,.1-.9v-.6h0c-.4.1,3.9-.3,2-.1h.2a28.8,28.8,0,0,0,1.6,2.9h0l.3.8v.2h0l-2.1.6h0v-.3a9.4,9.4,0,0,0-.4-1.6,18.2,18.2,0,0,1-.6-3.5H559l2.1-.6h0v.2l.2.4.4.7.8,1.5a6.4,6.4,0,0,0,.8,1.4l.4.6v.2h0l-2,.8h0v-.4h0a64.6,64.6,0,0,1-1.4-6.9h0l2.2-.4h0v.6l.3.8.6,1.5a15.9,15.9,0,0,0,1.5,2.9h0l.3.4h.1l-2,.8v-.2l-.2-1.1a16,16,0,0,0-.5-2.1c-.3-1.4-.8-2.9-1.1-4.4V505h0c1-.3-2.1.5,2.1-.6h.1l.4,1.1.8,2c.6,1.4,1.2,2.8,1.7,4.2h0l.5,1.1h0l-2.1.7h0v-.8l-.7-2.3a33.7,33.7,0,0,1-1.2-4.8v-1.6h0c4.3-.7,1.2-.2,2.2-.3h0v.2l.2.5a18.9,18.9,0,0,0,.9,2.1c.6,1.4,1.3,2.8,1.9,4.3h0l.8,1.9h.1l-2.1.7h-.1v-.7l-.3-1-1.4-3.7a15.9,15.9,0,0,1-.7-2,19.4,19.4,0,0,1-.5-2,19.2,19.2,0,0,1-.3-2.2v-1.1l2.1-.4h.1v.2l.2.5c.3.7.6,1.2.8,1.8a16.3,16.3,0,0,0,.9,1.9l1.5,3.8a17.1,17.1,0,0,0,1.7,3.3l.3.4h0c-3.9,1.5-1,.4-1.9.8h-.1v-.4a.6.6,0,0,1-.1-.4l-.8-1.7h0a48.5,48.5,0,0,1-3.3-8.2c-.8-2.8-1.6-5.5-2.6-8.2a15.4,15.4,0,0,0-.8-1.9l-.2-.5h0c4.1-1.5,1.1-.4,2-.8h.1v.3l.3.9c.5,1.2,1.2,2.5,1.9,3.8s1.3,2.6,1.9,3.9a17.4,17.4,0,0,1,1,1.9l.5,1,.4,1h0c1.5,3.3,1.9,6.9,3.7,9.3v.2l-1.9.8h0c-.1-.1-.1-.3-.2-.4a4.9,4.9,0,0,0-.4-1.1l-.3-.7-.2-.6-.4-1.2c-.6-1.7-1.1-3.3-1.7-4.9s-2.8-6-4.4-9.1c-.8-1.5-1.5-3.1-2.2-4.7l-1-2.4-.2-.5Z" transform="translate(-553 -476.9)"/>
  </g>
</svg>
