<svg id="ba210aff-7e21-4890-bc5b-ab7b25c30058" data-name="Objects" xmlns="http://www.w3.org/2000/svg" viewBox="0 0 126.98 66.92"><defs><style>.b767cc91-e729-4fe5-b5ae-624755627bd8{fill:#252525;}</style></defs><path class="b767cc91-e729-4fe5-b5ae-624755627bd8" d="M598.83,110.14a.19.19,0,0,1,.16-.07,1.18,1.18,0,0,1,.28,0h.3a1.6,1.6,0,0,0,.3.08.37.37,0,0,0,.32.15,1.58,1.58,0,0,1,.38,0,.44.44,0,0,1,.39.2,2.53,2.53,0,0,1,.21,1.41,1.35,1.35,0,0,1-.09.29c-.63.7-1.24,1.28-1.87,1.86s-1.26,1.14-2,1.7l-5.51,4.89c-.93.83-1.86,1.67-2.8,2.48l-2.87,2.41c-1.91,1.59-3.81,3.21-5.74,4.79l-5.84,4.67-2.17,1.74-.64.42-1.62,1c-1.31.83-3,1.87-4.38,2.66-4.69,2.8-3.36.94-.92-1.38-.16.08,1.35-1.26,2.9-2.61.77-.68,1.56-1.36,2.14-1.88s1-.86,1-.86l5.65-4.52c2.18-1.7,4.28-3.49,6.4-5.27s4.26-3.52,6.29-5.38l3.09-2.75,1.55-1.37.77-.69.39-.35.19-.17.12-.1.09-.07.09-.07A33.74,33.74,0,0,0,598.83,110.14Z" transform="translate(-562.52 -109.38)"/><path class="b767cc91-e729-4fe5-b5ae-624755627bd8" d="M563,144.47a.17.17,0,0,1-.07-.14,6.25,6.25,0,0,1-.1-1.22,1.16,1.16,0,0,1,.27-.76,1.76,1.76,0,0,1,1.28-.42,1.09,1.09,0,0,1,.33.07,15.47,15.47,0,0,1,2,1.89,10.7,10.7,0,0,0,.83.82l.93.81,6.73,5.81c2.26,1.93,4.58,3.81,6.87,5.72s4.59,3.83,6.88,5.76l3.44,2.89,1.18,1c.38.32.75.63,1.11,1,0,0,3.22,3.3,5.3,5.78,3.61,4.11,1.53,3.12-1.21,1.15.22.28-6.33-4.93-6.33-4.93l-5.76-4.84q-3.36-2.84-6.76-5.65c-2.25-1.88-4.53-3.72-6.77-5.65l-6.72-5.8-1-.82c-.3-.24-.67-.66-.94-.93A12.29,12.29,0,0,0,563,144.47Z" transform="translate(-562.52 -109.38)"/><path class="b767cc91-e729-4fe5-b5ae-624755627bd8" d="M600.09,109.81a.67.67,0,0,1,.1-.37c0-.14.06,0,.08.07a1.39,1.39,0,0,0,.1.26.6.6,0,0,1,.16.23l.12.19c.16.24.23.24.4.17a1,1,0,0,1,.37-.14l.24,0,.29-.06c.42-.11.73-.35,1-.32,0,0,.11,0,.12,0,0,.26,0,.73.07,1l.15,1.26c.11.85.16,1.7.2,2.56l0,.86c0,.94,0,1.89,0,2.82,0,0-.07,1.16-.22,2.69-.08.76-.17,1.62-.26,2.51s-.19,1.71-.28,2.54c-.07.68-.12,1.23-.16,1.68a8.73,8.73,0,0,1-.17,1.06c-.12.52-.26.67-.42.54a2.72,2.72,0,0,1-.48-1.12,14.35,14.35,0,0,1-.43-2.22,6.56,6.56,0,0,1-.14-1.12c-.06-.74-.13-1.77-.19-2.81L600.6,118l0-2.33,0-.81c0-.8-.09-1.6-.2-2.4l-.14-1.21C600.14,110.74,600.1,110.38,600.09,109.81Z" transform="translate(-562.52 -109.38)"/><path class="b767cc91-e729-4fe5-b5ae-624755627bd8" d="M600.43,159.15s0-.05.08-.08a2.75,2.75,0,0,1,2.79.3s.1.08.11.11-.08.8-.18,1.91c0,.55-.05,1.19-.07,1.88s0,1.42,0,2.15.1,1.48.14,2.17.13,1.35.18,1.91c.11,1.13.19,1.89.19,1.89s0,.5-.11,1.18a15.38,15.38,0,0,1-.39,2.25c-.5,2.4-1.22,1.46-1.66.06a15.29,15.29,0,0,1-.42-1.63l-.42-1.74s-.07-.74-.18-1.85c0-.57-.11-1.23-.18-1.93s-.11-1.49-.14-2.26-.05-1.55,0-2.29.05-1.42.07-2C600.35,160,600.42,159.19,600.43,159.15Z" transform="translate(-562.52 -109.38)"/><path class="b767cc91-e729-4fe5-b5ae-624755627bd8" d="M603.05,129.17a.24.24,0,0,1-.19-.07c-.67-.43-1.62-1.52-.05-2.81a.89.89,0,0,1,.24-.12h5l69.41-.12s4.56.3,7.76.75c5.43.63,3.27,1.3-.1,1.66.35.06-8.05.58-8.05.58l-69,.13Z" transform="translate(-562.52 -109.38)"/><path class="b767cc91-e729-4fe5-b5ae-624755627bd8" d="M603.87,161.22a.25.25,0,0,1-.19-.08c-.66-.42-1.62-1.51,0-2.8a.89.89,0,0,1,.24-.13h5l68-.12s4.56.3,7.76.75c5.43.63,3.26,1.3-.1,1.66.35.06-8,.58-8,.58l-67.59.13Z" transform="translate(-562.52 -109.38)"/><path class="b767cc91-e729-4fe5-b5ae-624755627bd8" d="M686.52,128.35a.29.29,0,0,1,.1-.19c.52-.61,1.72-1.38,2.79.35a1,1,0,0,1,.09.25c-.22,1.62-.42,3.25-.58,4.88-.43,4.32-.71,8.67-.73,13,0,.91,0,1.82,0,2.73,0,0,0,.28,0,.75s0,1.13-.07,1.89,0,1.62-.05,2.49,0,1.75,0,2.53c0,1.35.07,2.23,0,2.76s-.17.69-.34.59a7.57,7.57,0,0,1-1.34-3.21,27.11,27.11,0,0,1-.73-3.91c-.16-1-.24-2.1-.33-2.89s-.11-1.33-.11-1.33c0-.8,0-1.61,0-2.41,0-4.45.3-8.87.74-13.28C686.1,131.67,686.3,130,686.52,128.35Z" transform="translate(-562.52 -109.38)"/><path class="b767cc91-e729-4fe5-b5ae-624755627bd8" d="M682.07,129.07s0,0,0-.08a7.63,7.63,0,0,1,1.56-2.33s.08-.08.1-.08l.6.42.59.43.64.52.64.53.53.49.51.48a3.09,3.09,0,0,1,.15.46,4,4,0,0,1,.14,1c.1,1-.64,1.22-1.23,1.11a10.75,10.75,0,0,1-1.2-.43l-.44-.42-.46-.42-.55-.45-.56-.46c-.19-.13-.36-.26-.52-.36Z" transform="translate(-562.52 -109.38)"/><path class="b767cc91-e729-4fe5-b5ae-624755627bd8" d="M678.31,129.68s0,0,0-.09a4.68,4.68,0,0,1,1.63-2.28.67.67,0,0,1,.12-.06l.94.72.93.72,1,.85c.68.58,1.33,1.16,1.81,1.6l.81.72s.16.25.36.59a8.77,8.77,0,0,1,.57,1.23c.59,1.37-.24,1.53-1.1,1.25a4.18,4.18,0,0,1-.94-.41l-.95-.49-.79-.71c-.48-.43-1.11-1-1.75-1.53L680,131l-.84-.65C678.66,130,678.32,129.7,678.31,129.68Z" transform="translate(-562.52 -109.38)"/><path class="b767cc91-e729-4fe5-b5ae-624755627bd8" d="M673.24,129.28s0,0,0-.11a2.67,2.67,0,0,1,2.08-1.89s.13,0,.16,0,.55.61,1.35,1.43l1.4,1.36c.54.48,1.11,1,1.69,1.49l1.73,1.44,1.55,1.22,1.54,1.17a27.87,27.87,0,0,1,2.3,2.68c1.55,2,.37,1.91-1,1.3a11.53,11.53,0,0,1-1.57-.79l-1.64-.91-1.54-1.18-1.57-1.23-1.78-1.47-1.75-1.55-1.48-1.43C673.82,129.93,673.27,129.31,673.24,129.28Z" transform="translate(-562.52 -109.38)"/><path class="b767cc91-e729-4fe5-b5ae-624755627bd8" d="M668.27,130a.25.25,0,0,1-.1-.19c-.21-.78-.14-2.19,1.9-2.07a.73.73,0,0,1,.25.07c.6.54,1.18,1.11,1.8,1.64L674,131c1.27,1,2.54,2.07,3.86,3.06.72.56,1.46,1.11,2.2,1.66l2,1.76c1.16,1,2.61,2.34,3.76,3.49,3.92,3.84,1.77,3-1.09,1.26.12.13-1.56-1-3.3-2.08l-3.49-2.27c-.65-.47-1.28-1-1.92-1.44-1.33-1-2.64-2.07-3.95-3.13l-1.93-1.64C669.5,131.11,668.89,130.51,668.27,130Z" transform="translate(-562.52 -109.38)"/><path class="b767cc91-e729-4fe5-b5ae-624755627bd8" d="M662.38,130.14a.26.26,0,0,1-.09-.19c-.22-.76-.17-2.17,1.88-2.07a.69.69,0,0,1,.26.06l3.68,3.27c1.4,1.31,2.94,2.5,4.43,3.73s3,2.46,4.51,3.67l2.17,1.73,2,1.83c1.12,1.08,2.5,2.47,3.59,3.67,3.79,3.95,1.67,3.06-1.14,1.2.12.14-1.52-1-3.19-2.22l-3.4-2.4-1.86-1.48c-1.52-1.2-3-2.45-4.54-3.68s-3-2.44-4.5-3.78Z" transform="translate(-562.52 -109.38)"/><path class="b767cc91-e729-4fe5-b5ae-624755627bd8" d="M655.59,129.91c-.05,0-.06,0-.09-.16a2.07,2.07,0,0,1-.09-.58,6.23,6.23,0,0,1,.09-.67,1.26,1.26,0,0,1,.06-.38.68.68,0,0,1,.23-.37.73.73,0,0,1,.25-.13,1.72,1.72,0,0,1,.3-.11,3.29,3.29,0,0,1,.74-.08,1,1,0,0,1,.3.06c.73.55,1.37,1.1,2,1.65l1.86,1.62,6.6,5.49c2.21,1.83,4.44,3.63,6.64,5.48l2.14,1.79,1.92,1.89c1.1,1.1,2.42,2.56,3.47,3.78,3.65,4.09,1.56,3.12-1.18,1.17.11.14-1.49-1.08-3.1-2.34l-3.34-2.47L672.58,144c-2.18-1.84-4.42-3.64-6.63-5.46l-6.63-5.52-1.89-1.64C656.81,130.88,656.19,130.35,655.59,129.91Z" transform="translate(-562.52 -109.38)"/><path class="b767cc91-e729-4fe5-b5ae-624755627bd8" d="M649.6,130.13c-.05,0-.07,0-.08-.16a2.81,2.81,0,0,1,0-1.3c.14-.47.53-1,1.69-.94a1,1,0,0,1,.3.08,18.08,18.08,0,0,1,1.91,1.91c.27.29.54.58.82.86l.86.85c.76.78,1.6,1.49,2.42,2.23s1.68,1.42,2.56,2.11c1.74,1.38,3.55,2.72,5.34,4.12.91.69,1.79,1.4,2.67,2.12l2.64,2.13c.88.72,1.76,1.42,2.63,2.14l2.59,2.2c.71.61,1.43,1.2,2.12,1.82l1.88,1.93c1.07,1.12,2.4,2.56,3.44,3.8,3.62,4.09,1.56,3.14-1.19,1.16.11.15-1.47-1.1-3.11-2.35l-3.28-2.55-1.8-1.53-2.56-2.18c-.86-.72-1.75-1.41-2.62-2.12l-2.62-2.11c-.87-.72-1.74-1.42-2.62-2.09-1.77-1.38-3.58-2.72-5.37-4.15-.9-.69-1.78-1.45-2.66-2.18s-1.74-1.52-2.55-2.35l-.91-.9c-.31-.31-.61-.62-.9-.94A16.22,16.22,0,0,0,649.6,130.13Z" transform="translate(-562.52 -109.38)"/><path class="b767cc91-e729-4fe5-b5ae-624755627bd8" d="M642.57,129.8a.26.26,0,0,1-.09-.19c-.2-.76-.13-2.19,1.91-2.05a.68.68,0,0,1,.25.07l3.61,3.38c6.79,6.2,13.89,12.13,20.75,18.38.69.63,1.38,1.24,2,1.89l1.82,2c.51.58,1.09,1.24,1.66,1.92s1.11,1.4,1.6,2c3.38,4.32,1.35,3.21-1.25,1.09a5.13,5.13,0,0,1-.86-.7c-.55-.48-1.31-1.15-2.11-1.8l-3.18-2.65c-.57-.54-1.16-1.07-1.74-1.6-6.8-6.19-13.91-12.11-20.77-18.38Z" transform="translate(-562.52 -109.38)"/><path class="b767cc91-e729-4fe5-b5ae-624755627bd8" d="M635.86,129.23c-.06,0-.07-.07-.09-.19-.17-.77-.06-2.19,2-2a.79.79,0,0,1,.25.08l3.49,3.48c6.43,6.18,13.28,11.95,20.12,17.79l2.11,1.8,1.9,1.91c1.09,1.1,2.43,2.53,3.47,3.77,3.66,4.07,1.58,3.12-1.17,1.17.1.14-1.48-1.09-3.13-2.33l-3.31-2.51-1.81-1.54c-6.83-5.82-13.73-11.63-20.26-17.9Z" transform="translate(-562.52 -109.38)"/><path class="b767cc91-e729-4fe5-b5ae-624755627bd8" d="M631.42,129.25a.25.25,0,0,1-.07-.18c-.1-.75,0-2.27,2-2a.81.81,0,0,1,.26.09c.56.64,1.19,1.27,1.71,1.93l1.59,2c.71.86,1.4,1.74,2.12,2.59l1.09,1.2c.38.4.71.81,1.14,1.2l4.89,4.69,4.89,4.69,2.45,2.34,2.51,2.29,2,1.87s3.16,3.31,5.21,5.8c3.57,4.14,1.53,3.17-1.2,1.16.22.28-6.32-5-6.32-5L654,152.28l-2.51-2.3L649,147.63l-4.92-4.72-4.92-4.72c-.42-.37-.81-.83-1.21-1.26l-1.19-1.31c-.75-.89-1.46-1.79-2.18-2.67L633,131C632.51,130.4,632,129.85,631.42,129.25Z" transform="translate(-562.52 -109.38)"/><path class="b767cc91-e729-4fe5-b5ae-624755627bd8" d="M625.56,130a.27.27,0,0,1-.07-.2c-.08-.79.22-2.17,2.22-1.72a.72.72,0,0,1,.24.11c1,1.27,2,2.57,3,3.82,5.14,6.08,11.06,11.52,17,17l2,1.91,1.79,2c.52.58,1.09,1.25,1.66,1.92s1.11,1.4,1.59,2c3.37,4.33,1.34,3.22-1.25,1.1.08.15-1.38-1.21-3-2.51l-3.16-2.68-1.73-1.63c-5.88-5.51-11.9-11-17.2-17.29C627.63,132.61,626.61,131.27,625.56,130Z" transform="translate(-562.52 -109.38)"/><path class="b767cc91-e729-4fe5-b5ae-624755627bd8" d="M619,130.34a.32.32,0,0,1-.06-.22,1.55,1.55,0,0,1,2.3-1.6.57.57,0,0,1,.22.11,29.11,29.11,0,0,0,3.06,3.59c1.25,1.28,2.6,2.52,3.93,3.82l3.93,3.88,7.85,7.75,2,2s3,3.42,5,6c3.42,4.27,1.41,3.22-1.23,1.11.2.3-6.13-5.25-6.13-5.25l-1.69-1.67-7.86-7.75-3.92-3.87c-1.3-1.27-2.66-2.52-4-3.87A30.45,30.45,0,0,1,619,130.34Z" transform="translate(-562.52 -109.38)"/><path class="b767cc91-e729-4fe5-b5ae-624755627bd8" d="M612,129.1a.23.23,0,0,1-.08-.19c-.1-.74,0-2.26,2-2a.86.86,0,0,1,.26.1c1.2,1.26,2.24,2.57,3.31,3.87.62.76,1.23,1.54,1.86,2.29s1.25,1.45,1.91,2.17l4.13,4.21c1.35,1.42,2.83,2.75,4.25,4.12l4.32,4.09,2,1.9,1.81,2c1,1.17,2.28,2.68,3.27,4,3.43,4.27,1.39,3.2-1.24,1.11.1.14-1.43-1.16-3-2.5-.77-.67-1.59-1.32-2.19-1.82l-1-.84L631.94,150l-4.33-4.1c-1.44-1.39-2.92-2.71-4.3-4.17l-4.21-4.29c-.69-.74-1.35-1.53-2-2.29s-1.27-1.56-1.9-2.33C614.14,131.52,613.12,130.23,612,129.1Z" transform="translate(-562.52 -109.38)"/><path class="b767cc91-e729-4fe5-b5ae-624755627bd8" d="M605.72,129.29a.27.27,0,0,1-.08-.2c-.12-.77.05-2.22,2.05-1.91a.76.76,0,0,1,.25.09l3.31,3.73c2.43,2.7,4.79,5.44,7.16,8.17s4.76,5.43,7.15,8.14l1.83,2.07.46.6,1.19,1.51c.94,1.21,2.12,2.76,3,4.08,3.23,4.41,1.29,3.29-1.28,1.06.1.16-1.38-1.23-2.88-2.65l-2.08-2c-.57-.55-.94-.93-.94-.93l-1.58-1.78c-2.39-2.72-4.8-5.43-7.16-8.17s-4.74-5.46-7.15-8.14Z" transform="translate(-562.52 -109.38)"/><path class="b767cc91-e729-4fe5-b5ae-624755627bd8" d="M592.77,120.42s0-.07,0-.18a1.2,1.2,0,0,1,.09-.57c.08-.19.16-.43.27-.66a1.1,1.1,0,0,1,.54-.59,1.12,1.12,0,0,1,.55-.08,3.1,3.1,0,0,1,.38.07l.37.09a.93.93,0,0,1,.25.14c1.05,1.47,1.88,2.87,2.75,4.32l.63,1.08.16.27,0,.06h0l.07.1.36.48,1.46,1.94c.49.65,1,1.31,1.47,1.94l1.57,1.87c1,1.26,2.08,2.51,3.18,3.72s2.17,2.46,3.28,3.66l12.15,13.1,1.64,2.15c.46.62,1,1.33,1.5,2.05s1,1.49,1.43,2.18c3,4.6,1.06,3.31-1.34,1,.07.16-1.27-1.31-2.76-2.73l-2.94-2.91-12.11-13c-2.17-2.43-4.38-4.83-6.44-7.37l-1.58-1.89c-.51-.64-1-1.31-1.49-2l-1.49-2-.37-.5-.12-.17-.11-.19-.15-.26-.61-1C594.52,123.1,593.65,121.65,592.77,120.42Z" transform="translate(-562.52 -109.38)"/><path class="b767cc91-e729-4fe5-b5ae-624755627bd8" d="M594.25,115.37s0,0,0-.09a3.71,3.71,0,0,1,2.22-1.71.71.71,0,0,1,.14,0l.85,1.2.83,1.18.87,1.36c.59.93,1.17,1.82,1.61,2.48l.73,1.11.08.23c0,.13.12.32.21.54a10.85,10.85,0,0,1,.47,1.55c.48,1.71-.4,1.64-1.33,1a6.5,6.5,0,0,1-1-.81c-.26-.22-.51-.45-.7-.62l-.29-.3-.74-1.13-.76-1.16-.85-1.31c-.28-.45-.57-.9-.84-1.32l-.77-1.09Z" transform="translate(-562.52 -109.38)"/><path class="b767cc91-e729-4fe5-b5ae-624755627bd8" d="M588.78,123.5a.31.31,0,0,1-.07-.2c-.1-.8,0-2.33,2-2a.68.68,0,0,1,.23.09l3.19,3.92,8.29,10.17c2.75,3.36,5.47,6.76,8.3,10l1.79,2.11.45.61c.28.39.66.94,1.14,1.54.93,1.22,2.09,2.77,3,4.1,3.18,4.44,1.26,3.31-1.29,1,.1.16-1.37-1.24-2.87-2.68-.75-.72-1.51-1.44-2-2l-.91-.95-1.55-1.82c-2.86-3.31-5.58-6.71-8.35-10.08l-8.2-10.07Z" transform="translate(-562.52 -109.38)"/><path class="b767cc91-e729-4fe5-b5ae-624755627bd8" d="M584.86,125.63a.3.3,0,0,1-.05-.23,1.64,1.64,0,0,1,.46-1.32,2,2,0,0,1,1.91-.18.85.85,0,0,1,.21.11c.88,1.34,1.8,2.7,2.78,3.95l3.87,4.8,1.94,2.4,2,2.34,4,4.68,4.1,4.66,1.84,2.09s.7.9,1.59,2.17,2,2.88,2.87,4.25c3,4.56,1.1,3.31-1.34,1,.09.16-1.32-1.28-2.74-2.76l-2-2-.93-.93-1.57-1.79-4.09-4.65-4.08-4.71-2-2.36-2-2.42-3.92-4.86C586.74,128.44,585.8,127.06,584.86,125.63Z" transform="translate(-562.52 -109.38)"/><path class="b767cc91-e729-4fe5-b5ae-624755627bd8" d="M580.39,128.2a.31.31,0,0,1-.07-.2c-.11-.78.08-2.23,2.07-1.9a1.18,1.18,0,0,1,.25.1L585.9,130c1.27,1.49,2.58,3,3.81,4.48l3.72,4.54,7.38,9.09,1.75,2.15s.65.93,1.55,2.19,2,2.87,2.83,4.24c3,4.57,1.11,3.35-1.33,1,.08.16-1.32-1.3-2.74-2.79l-2-2.08-.89-1L598.5,150l-7.39-9.09-3.7-4.52c-1.23-1.51-2.53-2.95-3.79-4.43Z" transform="translate(-562.52 -109.38)"/><path class="b767cc91-e729-4fe5-b5ae-624755627bd8" d="M577.49,132.31s0,0-.06-.15a3.09,3.09,0,0,1,0-.56,3.51,3.51,0,0,1,.06-.69,1.15,1.15,0,0,1,.4-.7,1.21,1.21,0,0,1,.51-.23,2.39,2.39,0,0,1,.78,0,1.17,1.17,0,0,1,.3.1,13.64,13.64,0,0,1,1.87,2.1c.52.7,1,1.4,1.46,2.08.23.33.45.65.67.95a4.23,4.23,0,0,0,.32.42l.39.45,1.56,1.81,3.13,3.61,3.13,3.62c1,1.2,2.08,2.41,3.17,3.58l1.87,2.05s2.84,3.57,4.66,6.24c3.19,4.44,1.24,3.29-1.29,1,.19.31-5.85-5.57-5.85-5.57l-1.61-1.76c-1.1-1.17-2.14-2.4-3.2-3.61l-3.16-3.65-3.16-3.65-1.58-1.82-.39-.46-.41-.53-.72-1c-.47-.69-.93-1.36-1.39-2A10.79,10.79,0,0,0,577.49,132.31Z" transform="translate(-562.52 -109.38)"/><path class="b767cc91-e729-4fe5-b5ae-624755627bd8" d="M572.31,135.53s-.06,0-.08-.12a4.84,4.84,0,0,1-.21-1.23,1.1,1.1,0,0,1,.24-.77,1.38,1.38,0,0,1,.45-.33,2.86,2.86,0,0,1,.35-.12,2.49,2.49,0,0,1,.42-.06.89.89,0,0,1,.34,0,10.38,10.38,0,0,1,2.22,1.85,24.11,24.11,0,0,1,1.72,2c.62.77,1.21,1.55,1.79,2.29.29.38.58.74.86,1.08s.58.63.92,1l4,4.18c2.65,2.78,5.42,5.44,8.12,8.21l2,2,1.74,2.06c1,1.22,2.14,2.81,3.06,4.14,3.2,4.45,1.21,3.26-1.3,1,.09.16-1.36-1.23-2.83-2.64-.73-.71-1.53-1.38-2.11-1.91l-1-.87-1.66-1.69c-2.68-2.74-5.48-5.43-8.14-8.22l-4-4.2c-.32-.34-.71-.73-1-1.13s-.64-.79-1-1.17c-.6-.78-1.17-1.54-1.76-2.27s-1-1.23-1.54-1.77A8,8,0,0,0,572.31,135.53Z" transform="translate(-562.52 -109.38)"/><path class="b767cc91-e729-4fe5-b5ae-624755627bd8" d="M567.78,140a.21.21,0,0,1-.07-.17,2.86,2.86,0,0,1,0-1.29c.14-.47.48-1,1.71-.9a.93.93,0,0,1,.28.08c.35.32.71.65,1,1s.6.65.88,1c.57.65,1.09,1.3,1.62,1.93.36.43.7.82,1,1.22l.53.57c.18.19.39.38.58.57l2.36,2.32,2.37,2.32c.78.77,1.56,1.55,2.39,2.29,3.28,3,6.54,6,9.86,8.93l2.06,1.86.54.55c.33.34.79.84,1.3,1.43,1,1.16,2.32,2.65,3.32,3.92,3.5,4.2,1.45,3.16-1.23,1.11.11.15-1.44-1.13-3-2.44s-3.21-2.62-3.21-2.62L590.37,162c-3.29-2.95-6.59-6-9.89-9-.83-.74-1.62-1.53-2.42-2.31l-2.39-2.35-2.4-2.35c-.2-.2-.4-.38-.6-.59l-.61-.66c-.38-.43-.76-.87-1.12-1.3A36,36,0,0,0,567.78,140Z" transform="translate(-562.52 -109.38)"/></svg>