<svg id="a98eb69a-63d1-4c56-94fd-7f634188f619" data-name="Objects" xmlns="http://www.w3.org/2000/svg" viewBox="0 0 126.77 116.95"><defs><style>.bd7c3a48-3aac-4310-a531-d0bd40c1e8a4{fill:#252525;}</style></defs><path class="bd7c3a48-3aac-4310-a531-d0bd40c1e8a4" d="M188.93,752.63a.35.35,0,0,1,.16-.23c.74-.75,2.41-1.59,3.6.81a.93.93,0,0,1,.09.33c-.25,1-.49,2.08-.68,3.13l-.31,1.57c-.09.53-.17,1.06-.26,1.59a78.34,78.34,0,0,0,4.35,41.78,73.72,73.72,0,0,0,26,32.86A71.57,71.57,0,0,0,240.75,844a70,70,0,0,0,20.84,3.48,71.78,71.78,0,0,0,21-2.86l.64-.18.47-.14.22-.08.45-.14.89-.29c.6-.19,1.19-.38,1.78-.61l.95-.27,1.05-.29,1.32-.41,1.52-.46,1.6-.54c1.09-.34,2.18-.74,3.18-1.07l2.1-.74a12.62,12.62,0,0,1,1.36-.39c.69-.13.94-.05.88.21a3.57,3.57,0,0,1-1.09,1.2,18.87,18.87,0,0,1-2.4,1.73,7.35,7.35,0,0,1-1.26.8c-.85.5-2.06,1.13-3.29,1.78s-2.5,1.24-3.47,1.64l-1.62.7c-.61.23-1.23.41-1.85.61l-.92.3-.23.08-.08,0-.33.1-.66.19c-.89.24-1.76.52-2.65.72a74.34,74.34,0,0,1-43.36-1.95,76.18,76.18,0,0,1-19.38-10.27,77.71,77.71,0,0,1-26.42-34.44,82.44,82.44,0,0,1-4.31-43.19c.09-.55.17-1.1.27-1.65l.32-1.65C188.42,754.81,188.67,753.72,188.93,752.63Z" transform="translate(-174.18 -734.44)"/><path class="bd7c3a48-3aac-4310-a531-d0bd40c1e8a4" d="M176.48,760.16a.43.43,0,0,1-.31,0,2.34,2.34,0,0,1-1.68-.8,2.5,2.5,0,0,1,0-2.51.78.78,0,0,1,.18-.25,16.61,16.61,0,0,0,4.59-3.56,28,28,0,0,0,3-3.93c.46-.7.89-1.43,1.32-2.17l.7-1.26,1.21-2.38c.81-1.62,1.6-3.29,2.4-4.94l1.18-2.45.58-1.21.13-.28s0,0,0,0v.14l0,.18.07.74.63,6.18.08.8,0,.4.06.34.26,1.34.25,1.34.13.67.06.32,0,.15a32.42,32.42,0,0,0,2.37,6.18c.24.52.54,1,.82,1.53a17.3,17.3,0,0,0,.88,1.5l.44.86c.31.51.69,1.28,1.22,2.11,1,1.69,2.41,3.76,3.63,5.45.53.71,1,1.29,1.33,1.79a12.1,12.1,0,0,1,.79,1.17c.34.61.34.87.07.89-.52,0-2.13-1-3.86-2.44a8.2,8.2,0,0,1-1.14-1l-1.23-1.23c-.45-.47-.91-1-1.38-1.5a44.53,44.53,0,0,1-3.51-4.5c-.29-.46-.55-.94-.81-1.42s-.54-1-.77-1.46a36.56,36.56,0,0,1-2.66-6.91l-.06-.22-.58,1c-.46.8-.93,1.59-1.43,2.36a33.07,33.07,0,0,1-3.43,4.48A20.55,20.55,0,0,1,176.48,760.16Z" transform="translate(-174.18 -734.44)"/></svg>