<svg id="a1670097-8a5b-4009-a8ea-403637d28551" data-name="Objects" xmlns="http://www.w3.org/2000/svg" viewBox="0 0 111 163.8">
  <defs>
    <style>
      .e7d028f5-bf68-4d6f-82b8-b3f5d0b556c1 {
        fill: #252525;
      }
    </style>
  </defs>
  <g>
    <path class="e7d028f5-bf68-4d6f-82b8-b3f5d0b556c1" d="M144.3,476.3v.2c-.6.8-2,1.9-3.4-.2a1,1,0,0,1-.1-.3l.5-6.1v-1.2l.2-1.3.3-2.5.7-5.1.6-3.3s1.2-5.5,2.5-9.2c2.1-6.4,2.3-3.6,2,.5.1-.2-.2,2.2-.5,4.7s-.5,5-.5,5l-.5,2.9-.7,4.9-.3,2.5v1.3l-.2,1.2Z" transform="translate(-108 -434.9)"/>
    <path class="e7d028f5-bf68-4d6f-82b8-b3f5d0b556c1" d="M149.2,444.9l-.2-.2c-.8-.6-1.8-2,.3-3.4h.3l6,.7,29.3,3.4,3.3.4s5.5,1,9.3,2c6.5,1.5,3.8,2-.3,2l-9.9-.4-2.9-.4-29.2-3.3Z" transform="translate(-108 -434.9)"/>
    <path class="e7d028f5-bf68-4d6f-82b8-b3f5d0b556c1" d="M200.2,450.4l.2-.2a2.4,2.4,0,0,1,1.5-.7c.6,0,1.2.4,1.8,1.6v.3l-.7,2.8-.5,2.9-.3,1.4v1.4l-.4,2.9c-.1,1.9-.3,3.8-.4,5.7l-.2,3.4s-.6,5.5-1.4,9.4c-1.4,6.6-1.9,3.8-2-.3a38.2,38.2,0,0,1-.1-4.7c0-2.5-.1-5.1-.1-5.1l.2-2.9c.1-1.9.3-3.9.4-5.9l.3-2.9.2-1.5.3-1.5.5-3Z" transform="translate(-108 -434.9)"/>
    <path class="e7d028f5-bf68-4d6f-82b8-b3f5d0b556c1" d="M144,482.6h-.2c-.7-.7-1.6-2.1.6-3.4h.3l5.9,1a296.4,296.4,0,0,0,32.6,2.7h3.3l3.3.3,3,.3,3.1.2c6.7.6,4.1,1.5,0,2.1h-1.4l-1.5.2h-1.9l-5.1.4h-2.9a301.7,301.7,0,0,1-33-2.7Z" transform="translate(-108 -434.9)"/>
    <path class="e7d028f5-bf68-4d6f-82b8-b3f5d0b556c1" d="M161.8,449.3c.2,0,.2,0,.3.2a1.8,1.8,0,0,1,.5,1.7c-.2.6-1,1-1.8,1.4h-.3a3.2,3.2,0,0,0-1.7-.1,4.4,4.4,0,0,0-2.9,3.5h0v.2a.4.4,0,0,1,.1.3,1.4,1.4,0,0,0,.2.6,3.5,3.5,0,0,0,.7,1.2,2.6,2.6,0,0,0,1.8.9h.6a5.9,5.9,0,0,0,1.7-.2l1.1-.5a3.1,3.1,0,0,0,.9-.7l.7-.9a2.2,2.2,0,0,0,.2-1.1,2.8,2.8,0,0,0-.5-1.6l-.4-.6-.3-.4c-.3-.5-.4-.8-.1-.8s.8.1,1.5.5l.5.4.5.6a3,3,0,0,1,.8,1.7c0-.2.3.6.1,1.8a5.2,5.2,0,0,1-.8,1.9,8.5,8.5,0,0,1-1.6,1.7,7.2,7.2,0,0,1-3.9,1.6h-2.1a6.9,6.9,0,0,1-3.5-2,8.5,8.5,0,0,1-1.3-2.2,6.5,6.5,0,0,1-.4-1.3V456a7.6,7.6,0,0,1,2.1-4.8,7,7,0,0,1,3.3-2A5.3,5.3,0,0,1,161.8,449.3Z" transform="translate(-108 -434.9)"/>
    <path class="e7d028f5-bf68-4d6f-82b8-b3f5d0b556c1" d="M188.9,452.1h.3a2,2,0,0,1,.7,1.6c0,.6-.6,1.2-1.5,1.8h-.3a6.1,6.1,0,0,0-4.3.6,2.8,2.8,0,0,0-.9,1,5.8,5.8,0,0,0-.3,1.4,9,9,0,0,0,.3,1.6,2.6,2.6,0,0,0,.7,1,3.2,3.2,0,0,0,2,.7h.7l1.8-.3a4.1,4.1,0,0,0,2-1.2l.3-.4a.8.8,0,0,0,.2-.5.7.7,0,0,0,.1-.5v-.5a4,4,0,0,0-.8-1.6l-.7-1c-.4-.5-.4-.8-.2-.8h.6l.9.4a6,6,0,0,1,2.1,2.3c0-.1.1.1.2.4a3.5,3.5,0,0,1,.1.6,2.2,2.2,0,0,1,.1.9,4,4,0,0,1-.7,2,5.2,5.2,0,0,1-1.5,1.8,8.8,8.8,0,0,1-3.9,1.7h-2a6.4,6.4,0,0,1-3.6-1.5,5.1,5.1,0,0,1-1.8-2.6,6.9,6.9,0,0,1-.5-2.8,6.6,6.6,0,0,1,2.6-5.4,7.9,7.9,0,0,1,3.7-1.3A8.8,8.8,0,0,1,188.9,452.1Z" transform="translate(-108 -434.9)"/>
    <path class="e7d028f5-bf68-4d6f-82b8-b3f5d0b556c1" d="M162.5,443.2h-.1l-.4.3-.6.5a2,2,0,0,1-2.1.6h-.2a7.9,7.9,0,0,1-.3-1.3v-1a12,12,0,0,1,0-1.9c.1-.6.1-1.2.2-1.7l.4-3,1.5-.4h4l1.1.5v3.6a9,9,0,0,1-.3,1.2,10.2,10.2,0,0,1-.9,2.2c-1,2.3-1.7,1.2-2-.2l-.2-1.7c0-.5-.1-.9-.1-1.3a1.8,1.8,0,0,1-.1-.5v-2.1l1.4.9c-.1.2-.2.3-.2.5v.3h-.8v.4c0,.6-.1,1.1-.1,1.6a8.6,8.6,0,0,0-.1,1.5A10.4,10.4,0,0,0,162.5,443.2Z" transform="translate(-108 -434.9)"/>
    <path class="e7d028f5-bf68-4d6f-82b8-b3f5d0b556c1" d="M186.4,446.3h-.1a3.3,3.3,0,0,1-3.4.3h-.1s-.1-.9-.1-2.3a16.9,16.9,0,0,1-.1-2.3v-2.5a21330906912894.4,21330906912894.4,0,0,1,.2-2.4c-.1-.2.1-.1.2-.1h.9a9.7,9.7,0,0,1,2.4.1h1.8l2.1.3h.1v1.6a6.6,6.6,0,0,1,.1,1.3v.6l-.2,1.3-.6,2.6c-.7,2.7-1.5,1.6-2,0a7,7,0,0,1-.5-1.9c-.2-1-.3-2.1-.3-2.1v-.3h-.4v1.3a14.6,14.6,0,0,0,0,2.1C186.4,445.4,186.4,446.3,186.4,446.3Z" transform="translate(-108 -434.9)"/>
    <path class="e7d028f5-bf68-4d6f-82b8-b3f5d0b556c1" d="M157,472h-.2c-.7-.6-1.8-2,.3-3.4h.3l6.1.6,11,1.2,3.3.4s5.5.9,9.3,1.9c6.5,1.5,3.8,2-.3,2l-9.8-.4-2.9-.3-11-1.1Z" transform="translate(-108 -434.9)"/>
    <path class="e7d028f5-bf68-4d6f-82b8-b3f5d0b556c1" d="M157.6,470.3h-.1a11.9,11.9,0,0,1-3.4-.3h-.2c-.5-1.2,6.8,1.3,3.7.3h0a.5.5,0,0,1-.1.3,3.1,3.1,0,0,1-.1.9,8.9,8.9,0,0,1-.1,1.3,4.2,4.2,0,0,1-1,.7,1.7,1.7,0,0,1-2-.3c-.1.1-.6-.8-.6-.8v-1.3c0-.3.1-.7.1-.9v-.3h0c1.7.1-3.6-.4,3.7.3h0Z" transform="translate(-108 -434.9)"/>
    <path class="e7d028f5-bf68-4d6f-82b8-b3f5d0b556c1" d="M188.4,473.5c0-.1,0-.1.1-.1a13.7,13.7,0,0,1,3.4.4h.1a17.4,17.4,0,0,1-.1,1.8v1.8a4.1,4.1,0,0,1-1,1,1.3,1.3,0,0,1-2,0c-.1.1-.7-1.1-.7-1.1v-.6a6.6,6.6,0,0,1,.1-1.3C188.3,474.5,188.4,473.5,188.4,473.5Z" transform="translate(-108 -434.9)"/>
    <path class="e7d028f5-bf68-4d6f-82b8-b3f5d0b556c1" d="M156.1,475.6h-.2c-.8-.6-1.8-2.1.3-3.4,0-.1.2-.1.3-.2l6,.7,11.6,1.2,3.3.4s5.5.9,9.4,1.9c6.5,1.5,3.7,2-.4,2l-9.8-.3-2.9-.4-11.6-1.2Z" transform="translate(-108 -434.9)"/>
    <path class="e7d028f5-bf68-4d6f-82b8-b3f5d0b556c1" d="M122,482.6c0-.1,0-.1.1-.2s2-1.8,3.4.3a1,1,0,0,1,.1.3l-.6,6-.6,5.3-.3,3.4s-1,5.5-2,9.3c-1.4,6.5-2,3.8-2-.4-.1.5.4-9.8.4-9.8l.3-2.9.6-5.3Z" transform="translate(-108 -434.9)"/>
    <path class="e7d028f5-bf68-4d6f-82b8-b3f5d0b556c1" d="M123.3,481.3l-.2-.4-.2-.3v-.2h0l.2.2.5.6.6.7a4.2,4.2,0,0,1,.3,1.2l-.2.3h-1l-.8-.3a1.6,1.6,0,0,1-.7-.7c0-.1-.1-.3-.1-.4s0-.1-.1-.2v-1l.3-.4a.3.3,0,0,1,.1-.2h.2l.4-.3h3.1l2.3.3,4.7.6a15.9,15.9,0,0,1,2.4,1.3c.8.5,1,.9.9,1.3a2.7,2.7,0,0,1-1.2.7,24,24,0,0,1-2.8.3l-4.5-.6-2.2-.2h-1.6a3.7,3.7,0,0,0-.2-1.2V482c0-.1-.1-.1-.1-.2h-.1A.5.5,0,0,0,123.3,481.3Z" transform="translate(-108 -434.9)"/>
    <path class="e7d028f5-bf68-4d6f-82b8-b3f5d0b556c1" d="M132.3,483.7v-.2c.6-.8,2-1.8,3.4.3a1,1,0,0,1,.1.3l-.7,6-.6,4.9-.4,3.4s-.9,5.4-1.9,9.3c-1.5,6.5-2,3.8-2-.4-.1.5.3-9.8.3-9.8l.4-2.9.6-4.9Z" transform="translate(-108 -434.9)"/>
    <path class="e7d028f5-bf68-4d6f-82b8-b3f5d0b556c1" d="M120.7,511.9h-.1a5.6,5.6,0,0,1,.4-3.4h.1l4.6.6,3,.5,1.4.2a17.5,17.5,0,0,1,2.3,1.3c1.5,1.1.7,1.7-.4,2a20.6,20.6,0,0,1-2.6.3L128,513l-1.4-.3-1.5-.2Z" transform="translate(-108 -434.9)"/>
    <path class="e7d028f5-bf68-4d6f-82b8-b3f5d0b556c1" d="M206.1,491.6h0a6.1,6.1,0,0,1,.3-3.4.3.3,0,0,0,.1-.2l8.2.9a14.6,14.6,0,0,1,2.1,1.1c1.5,1,.8,1.7-.2,2.1l-2.4.4Z" transform="translate(-108 -434.9)"/>
    <path class="e7d028f5-bf68-4d6f-82b8-b3f5d0b556c1" d="M204.1,490.5c0-.1,0-.1.1-.2s2.1-1.8,3.4.3l.2.3-.6,6-.5,6.2-.3,3.4-.5,3.3c-.2.9-.3,2-.6,3s-.5,2.1-.7,3.1c-1.6,6.5-2,3.7-2-.4v-1.3c0-.9.1-2.1.1-3.4s.1-5,.1-5l.2-2.9.5-6.3Z" transform="translate(-108 -434.9)"/>
    <path class="e7d028f5-bf68-4d6f-82b8-b3f5d0b556c1" d="M203.3,521.8h0a6.1,6.1,0,0,1,.3-3.4.3.3,0,0,0,.1-.2l8.2.9a10.7,10.7,0,0,1,2.1,1.2c1.5.9.8,1.6-.2,2a17.2,17.2,0,0,1-2.4.4Z" transform="translate(-108 -434.9)"/>
    <path class="e7d028f5-bf68-4d6f-82b8-b3f5d0b556c1" d="M215.3,492.1a.4.4,0,0,1,.1-.3c.6-.7,2.1-1.7,3.4.4.1,0,.1.2.1.3l-.6,6-.5,4.9-.4,3.4s-.9,5.5-1.9,9.3c-1.5,6.5-2,3.8-2-.4-.1.5.3-9.8.3-9.8l.3-2.9.6-4.9Z" transform="translate(-108 -434.9)"/>
    <path class="e7d028f5-bf68-4d6f-82b8-b3f5d0b556c1" d="M120.1,514.9h0a7.3,7.3,0,0,1,.3-3.4h.1l7.4.8a12,12,0,0,1,1.9,1.1c1.3.9.6,1.7-.3,2a12.9,12.9,0,0,1-2.1.5Z" transform="translate(-108 -434.9)"/>
    <path class="e7d028f5-bf68-4d6f-82b8-b3f5d0b556c1" d="M202.7,523.8h0a6.2,6.2,0,0,1,.3-3.4h.1l8.3.9a13.5,13.5,0,0,1,2.2,1.1c1.5,1,.8,1.7-.3,2a16.9,16.9,0,0,1-2.4.5Z" transform="translate(-108 -434.9)"/>
    <path class="e7d028f5-bf68-4d6f-82b8-b3f5d0b556c1" d="M118.5,514.2c0-.1,0-.1.1-.2s2-1.8,3.4.3a1,1,0,0,1,.1.3l-.6,6-.3,2.6-.4,3.4s-.9,5.5-1.9,9.3c-1.5,6.5-2,3.8-2-.3-.1.4.3-9.9.3-9.9l.4-2.9.2-2.6Z" transform="translate(-108 -434.9)"/>
    <path class="e7d028f5-bf68-4d6f-82b8-b3f5d0b556c1" d="M116.7,542.3h0a5.3,5.3,0,0,1,.3-3.4v-.2l8.8,1a12.8,12.8,0,0,1,2.3,1.1c1.6,1,.9,1.7-.2,2.1l-2.6.4Z" transform="translate(-108 -434.9)"/>
    <path class="e7d028f5-bf68-4d6f-82b8-b3f5d0b556c1" d="M127.8,515.2a.4.4,0,0,1,.1-.3c.6-.7,2.1-1.7,3.4.3v.3l-.6,6.1-.2,1.9-.4,3.3s-.9,5.5-1.9,9.3c-1.5,6.5-2,3.8-2-.3-.1.4.4-9.8.4-9.8l.3-2.9.2-1.9Z" transform="translate(-108 -434.9)"/>
    <path class="e7d028f5-bf68-4d6f-82b8-b3f5d0b556c1" d="M201.3,522.6l.2-.3.3-.3a.5.5,0,0,1,.4-.2,1.1,1.1,0,0,1,.8-.3,2.7,2.7,0,0,1,1.8,1.5c.1,0,.1.2.1.3s-.2,1.8-.3,2.8l-.3,3-.7,6.1-.4,3.4s-1,5.5-2,9.3c-1.5,6.5-2,3.7-2-.4-.1.4.4-9.8.4-9.8l.4-2.9.7-6.1.2-3C201,524.7,201.1,523.7,201.3,522.6Z" transform="translate(-108 -434.9)"/>
    <path class="e7d028f5-bf68-4d6f-82b8-b3f5d0b556c1" d="M199.9,552.2a.1.1,0,0,1-.1-.1,5.9,5.9,0,0,1,.2-3.4v-.2h1.5l3.1.4,2.9.3,1.4.2.8.4,1.4.9c1.6,1,.8,1.7-.3,2l-1.2.2h-1.3l-1.3-.2-2.9-.3-2.9-.3Z" transform="translate(-108 -434.9)"/>
    <path class="e7d028f5-bf68-4d6f-82b8-b3f5d0b556c1" d="M211.3,524.5c0-.1,0-.1.1-.2s2.1-1.8,3.4.3a1,1,0,0,1,.1.3l-.6,6-.3,2.4-.3,3.4s-1,5.5-1.9,9.3c-1.5,6.5-2,3.8-2-.4-.2.5.3-9.8.3-9.8l.3-2.9.3-2.4Z" transform="translate(-108 -434.9)"/>
    <path class="e7d028f5-bf68-4d6f-82b8-b3f5d0b556c1" d="M135.1,485.9v-.2c.6-.8,2.1-1.8,3.4.3.1,0,.1.2.2.3l-.7,6L135,521.6l-.3,3.4s-1,5.5-2,9.3c-1.4,6.5-2,3.8-2-.4-.1.5.4-9.8.4-9.8l.3-2.9,3.1-29.3Z" transform="translate(-108 -434.9)"/>
    <path class="e7d028f5-bf68-4d6f-82b8-b3f5d0b556c1" d="M137,487h-.2c-.8-.6-1.8-2,.3-3.4h.3l6,.6,6,.5,6.1.7,6,.8,3,.5,3,.4,5.9.7,3,.3,3,.2,6,.5,3.7.2s5.5.8,9.4,1.6c6.6,1.2,3.8,1.8-.3,2,.5.1-9.8,0-9.8,0l-3.9-.2-3-.2-3-.3c-4-.3-7.9-.7-11.9-1.2l-6-1-5.8-.7-5.8-.6-6-.6Z" transform="translate(-108 -434.9)"/>
    <path class="e7d028f5-bf68-4d6f-82b8-b3f5d0b556c1" d="M201.1,493.1l.2-.2c.6-.8,2-1.8,3.4.3a1,1,0,0,1,.1.3l-.7,6-3.3,31.4-.3,3.3s-1,5.5-2,9.3c-1.4,6.5-1.9,3.8-2-.3-.1.4.4-9.8.4-9.8l.3-2.9,3.3-31.4Z" transform="translate(-108 -434.9)"/>
    <path class="e7d028f5-bf68-4d6f-82b8-b3f5d0b556c1" d="M132.7,539.5c-.1,0-.1,0-.2-.2a2,2,0,0,1-.7-1.5c0-.6.4-1.2,1.5-1.8h.3a35.7,35.7,0,0,0,5.7,1c2,.3,4,.4,6,.6l3,.4,3,.4,5.9.9,6,.8,21.5,2.6.9.2,2.3.5,6.1,1.5c6.4,1.8,3.7,2.2-.5,2l-4.7-.3-3.4-.2-1.6-.2-21.5-2.6-5.9-.8-5.8-.8-2.9-.4-2.9-.4-5.9-.5C136.9,540.3,134.8,540,132.7,539.5Z" transform="translate(-108 -434.9)"/>
    <path class="e7d028f5-bf68-4d6f-82b8-b3f5d0b556c1" d="M119.2,563.6l-.2.3a2.4,2.4,0,0,1-1.5.7c-.6,0-1.2-.4-1.8-1.4a.4.4,0,0,1-.1-.3l.3-1.5h-.1l-.4-.3a18.5,18.5,0,0,1-1.4-1.4,12.2,12.2,0,0,1-1.8-3.6,7.6,7.6,0,0,1-.3-2.1,6.7,6.7,0,0,1,.1-2,9.9,9.9,0,0,1,1.5-3.9,8.9,8.9,0,0,1,3.1-2.7,9.6,9.6,0,0,1,3.9-1.1,10.4,10.4,0,0,1,3.9.2,8.3,8.3,0,0,1,3.8,1.8,7.9,7.9,0,0,1,2.3,3.5,9.7,9.7,0,0,1-.6,8,8,8,0,0,1-2.7,3.1l-.8.6h-.1v.7h0l.5-.4a9.9,9.9,0,0,0,3.7-4.2,7.8,7.8,0,0,0,.7-2.5,13.7,13.7,0,0,0-.2-2.8,10.8,10.8,0,0,0-2.1-4.9,11.2,11.2,0,0,0-2-1.8,13.4,13.4,0,0,0-2.4-1.2,8.6,8.6,0,0,0-2.7-.5,8.2,8.2,0,0,0-2.7.2,6.7,6.7,0,0,0-2.3,1,6.5,6.5,0,0,0-2,1.7,11.9,11.9,0,0,0-1.6,2.3c-.4.9-.8,1.8-1.1,2.7v.4h0v.5a2.2,2.2,0,0,0-.1.8,3.6,3.6,0,0,0-.2,1.4,4.5,4.5,0,0,1-.1.8,2.5,2.5,0,0,0,.1.8,4.1,4.1,0,0,0,.1,1.1,7.7,7.7,0,0,0,1,2.3,9.5,9.5,0,0,0,1.9,2.1l2.6,2c.5.4.6.6.4.7s-2.2,0-4.2-1a14.2,14.2,0,0,1-1.3-.8,11,11,0,0,1-2.7-2.9,10,10,0,0,1-1.3-3.9,6.6,6.6,0,0,1-.1-1.3v-.4h0a3.1,3.1,0,0,1,.1-1l.2-1a2.9,2.9,0,0,1,.2-.9v-.2h.1a.3.3,0,0,1,.1-.2,14.2,14.2,0,0,1,.5-1.6,14.6,14.6,0,0,1,1.6-3,11.8,11.8,0,0,1,2.2-2.8,10.3,10.3,0,0,1,2.9-2.1,14.2,14.2,0,0,1,3.5-1.1,14.5,14.5,0,0,1,3.6,0,11.3,11.3,0,0,1,3.5.9,13.4,13.4,0,0,1,3.1,1.7,15.4,15.4,0,0,1,2.5,2.6,15.7,15.7,0,0,1,1.8,3.1l.3.8a2.9,2.9,0,0,0,.2.9,8.5,8.5,0,0,1,.4,1.7,13.6,13.6,0,0,1,.1,3.5,15.8,15.8,0,0,1-.9,3.6,14.6,14.6,0,0,1-5,5.7l-.4.3-.5.3-1.4.8-1.4.8-.8.3-.3.2H124s-.1.1-.1,0h0l-.7-3.1-.2-.8c-.1-.3-.1-.6-.2-.8v-1l-.3-1.7v-.6h.1l.7-.3.8-.3.7-.4.6-.3a7.4,7.4,0,0,0,1.6-1.9,6.5,6.5,0,0,0,.4-5.1,5,5,0,0,0-1.3-1.9,5.1,5.1,0,0,0-2.2-1.1,12,12,0,0,0-2.7-.1,7.7,7.7,0,0,0-2.6.7,5,5,0,0,0-2.7,4,5.3,5.3,0,0,0-.1,1.2,5.9,5.9,0,0,0,.2,1.3,10.1,10.1,0,0,0,1.2,2.3,3,3,0,0,0,.8.8h.2l.6.3,1.5.6Z" transform="translate(-108 -434.9)"/>
    <path class="e7d028f5-bf68-4d6f-82b8-b3f5d0b556c1" d="M146.6,521.7v.3a2.8,2.8,0,0,1-1.3,1,2.1,2.1,0,0,1-2.1-1v-1.9c0-.5.1-1,.1-1.6l.2-1.5.2-1.6c.1-1.3.3-2.5.5-3.8s.1-.7.1-.9v-2.9a22.6,22.6,0,0,1,.7-4.3,7.1,7.1,0,0,1,1.4-2.3,3.2,3.2,0,0,1,1.3-1,4.4,4.4,0,0,1,1.5-.5,7.5,7.5,0,0,1,2.2.1h4l2,.2,3.9.6,1.9.3,1.9.2,15.5,2,8.7,1.1h.9v.9a13.7,13.7,0,0,1,.2,1.9,17,17,0,0,1,.1,2.2,13.4,13.4,0,0,1-.1,2,14.9,14.9,0,0,1-.2,2.1c-.3,2.7-.9,5.2-1.4,7.8s-.5,2.5-.7,3.7-.1.6-.2,1v.6a3.4,3.4,0,0,1-.1,1l-.2,1.9v.8h-.2l-.9-.2-1.9-.5h-1.4l-1.8-.3a23.1,23.1,0,0,0-3.7-.3h-9.3l.2-.2.5-.6,2-2.2a37,37,0,0,1,2.9-2.4l1.2-1,.7-.7a15.5,15.5,0,0,0,2.6-2.5,5.7,5.7,0,0,0,1-1.3,2,2,0,0,0,.4-.9h-.7a2.4,2.4,0,0,0-1.3.4,5.5,5.5,0,0,0-1.5.8,19.4,19.4,0,0,0-2.9,2.1,34.5,34.5,0,0,0-2.8,2.6l-.7.6-.4.4-.4.3-1.4,1.3-.6.5-.6.6-.8.5-.9.5a5.1,5.1,0,0,1-2,.4h-.9c-.1.1-.3,0-.4,0h-1.6l-2.3-.4-.9-.2-.9-.2-1.3-.3-6.1-1.4c-6.5-1.5-3.7-2,.4-2l4.7.2,3.6.2,1.6.2,1.9.3h2.6l.3-.2a5.9,5.9,0,0,0,1.7-1.3l1.5-1.3.3-.3.3-.3.7-.7,3-2.7a29.3,29.3,0,0,1,3.4-2.4,11.8,11.8,0,0,1,1.9-1.1,8.4,8.4,0,0,1,2.4-.7h1.6a4.1,4.1,0,0,1,1.5.7,4.1,4.1,0,0,1,1.2,1.4,1.9,1.9,0,0,1,.3.9.6.6,0,0,1,.1.4v.5a5.1,5.1,0,0,1-.9,2.7,14,14,0,0,1-1.3,1.8,40.4,40.4,0,0,1-3,2.9l-1.1.9h.7l4,.4,2,.3h.6v-.3c.1-.3.1-.6.2-1s.5-2.6.7-3.9,1.1-5,1.4-7.5c.1-.6.1-1.2.2-1.8s.1-1.3.1-1.8-.1-1.3-.1-1.8h0l-6.8-.9-15.4-1.9-2-.3-1.9-.3-3.8-.5-1.9-.2h-5.5c-.2,0-.3,0-.3.1h-.2a3.6,3.6,0,0,0-.6,1.1,15.9,15.9,0,0,0-.6,3.4V511a3.1,3.1,0,0,1-.1,1c-.2,1.3-.4,2.6-.5,3.9l-.2,1.5v1.4c-.1.5-.1,1-.2,1.5Z" transform="translate(-108 -434.9)"/>
    <path class="e7d028f5-bf68-4d6f-82b8-b3f5d0b556c1" d="M141.6,543.1a.1.1,0,0,1,.1-.1,3.3,3.3,0,0,1,3.4.3h.2c-.1.2-1.3,15.7-1.3,15.7a35.1,35.1,0,0,1-1.3,4.2c-1,2.9-1.7,1.7-2-.2-.1.1-.3-4.5-.3-4.5S141.6,543.3,141.6,543.1Z" transform="translate(-108 -434.9)"/>
    <path class="e7d028f5-bf68-4d6f-82b8-b3f5d0b556c1" d="M143.2,544.5c-.1,0-.1,0-.1-.1a4.2,4.2,0,0,1,.3-3.4c.1-.1.1-.2.2-.2l12.4,1.4a16.1,16.1,0,0,1,3.3,1.3c2.3,1,1.2,1.7-.3,2,.2.1-3.6.3-3.6.3Z" transform="translate(-108 -434.9)"/>
    <path class="e7d028f5-bf68-4d6f-82b8-b3f5d0b556c1" d="M158.5,544.7c0-.1,0-.1.1-.1a3.2,3.2,0,0,1,3.4.7h.1c0,.1-.2,1.1-.5,2.5s-.2,1.6-.4,2.5a28.3,28.3,0,0,1-.2,2.9c-.1,1-.2,2-.2,2.9s-.1,1.9-.2,2.6-.1,2.5-.1,2.5-.1.7-.3,1.5-.5,2-.8,2.9c-1,3.1-1.7,1.8-2-.2a7.6,7.6,0,0,1-.3-2.2l-.2-2.4s0-1,.1-2.5.1-1.6.1-2.5.2-2,.2-3l.3-3c.2-.9.3-1.8.4-2.6Z" transform="translate(-108 -434.9)"/>
    <path class="e7d028f5-bf68-4d6f-82b8-b3f5d0b556c1" d="M140.9,567.3h0a3.8,3.8,0,0,1,.3-3.4h.1l12.3,1.3a21.7,21.7,0,0,1,3.3,1.3c2.3,1,1.2,1.7-.3,2,.2.1-3.5.3-3.5.3Z" transform="translate(-108 -434.9)"/>
    <path class="e7d028f5-bf68-4d6f-82b8-b3f5d0b556c1" d="M168.2,567c-.1,0-.1,0-.1.1a3.3,3.3,0,0,1-3.5-.4h-.1c0-.2,1.8-16.7,1.8-16.7s.7-2.7,1.4-4.5,1.8-1.7,2,.3c.1-.2.2,4.8.2,4.8S168.2,566.7,168.2,567Z" transform="translate(-108 -434.9)"/>
    <path class="e7d028f5-bf68-4d6f-82b8-b3f5d0b556c1" d="M168.8,546c-.1,0-.1,0-.1-.1a4.2,4.2,0,0,1,.3-3.4h.2l11.7,1.2a18.8,18.8,0,0,1,3.1,1.3c2.2,1,1.2,1.7-.2,2s-3.4.3-3.4.3Z" transform="translate(-108 -434.9)"/>
    <path class="e7d028f5-bf68-4d6f-82b8-b3f5d0b556c1" d="M182.5,546.5c0-.1,0-.1.1-.1a3.2,3.2,0,0,1,3.4-.2l.2.2v2.7c-.1.8-.1,1.7-.2,2.6l-.3,3-.3,2.9c-.1.9-.2,1.8-.3,2.5s-.2,2.4-.2,2.4-.1.6-.3,1.5a26.1,26.1,0,0,1-.6,2.7c-.3,1.5-.6,2.1-1,2a4,4,0,0,1-1-1.9c0,.1-.1-.2-.2-.6a8.8,8.8,0,0,1-.2-1.7,11.1,11.1,0,0,1-.2-1.7,2.5,2.5,0,0,1,0-1.4,12.8,12.8,0,0,1,.1-1.8l.3-2.5.3-2.9.3-2.8c0-.9.1-1.8.1-2.5Z" transform="translate(-108 -434.9)"/>
    <path class="e7d028f5-bf68-4d6f-82b8-b3f5d0b556c1" d="M166.1,569.4h0a3.8,3.8,0,0,1,.3-3.4h.1l12.2,1.3a22.5,22.5,0,0,1,3.2,1.3c2.2,1,1.2,1.7-.3,2,.2.1-3.5.3-3.5.3Z" transform="translate(-108 -434.9)"/>
    <path class="e7d028f5-bf68-4d6f-82b8-b3f5d0b556c1" d="M141,569.9h0a4.2,4.2,0,0,1,.3-3.4.3.3,0,0,1,.1-.2l5.9.7,4,.5,1.8.3a15.1,15.1,0,0,1,3,1.4c2.1,1,1.1,1.7-.3,2s-3.4.2-3.4.2l-1.7-.3-1.8-.2-2.1-.3Z" transform="translate(-108 -434.9)"/>
    <path class="e7d028f5-bf68-4d6f-82b8-b3f5d0b556c1" d="M139.4,568.2h.1a1.6,1.6,0,0,1,.7,0,1.1,1.1,0,0,1,.7.3l.9.5a1.9,1.9,0,0,0,.9.5h.1v.2a6.4,6.4,0,0,0-.2.9c-.2.8-.3,1.9-.5,3s-.5,4.4-.5,4.4a24,24,0,0,1-1.2,2.4c-1,1.6-1.7.8-2-.3a20.2,20.2,0,0,1-.4-2.6s.2-2.2.5-4.4.3-2.3.5-3.2a5.2,5.2,0,0,0,.2-1.1Z" transform="translate(-108 -434.9)"/>
    <path class="e7d028f5-bf68-4d6f-82b8-b3f5d0b556c1" d="M139.2,582h0a3.5,3.5,0,0,1,.3-3.4c0-.1.1-.1.1-.2l13.3,1.5a18.1,18.1,0,0,1,3.5,1.3c2.4,1,1.3,1.7-.3,2,.2.1-3.8.3-3.8.3Z" transform="translate(-108 -434.9)"/>
    <path class="e7d028f5-bf68-4d6f-82b8-b3f5d0b556c1" d="M157.9,581.7h-.1a4.7,4.7,0,0,1-3.4-.3.1.1,0,0,0-.1-.1c0-.2,1-9.8,1-9.8s.6-1.5,1.2-2.6,1.7-.9,2.1.3l.3,2.8S157.9,581.6,157.9,581.7Z" transform="translate(-108 -434.9)"/>
    <path class="e7d028f5-bf68-4d6f-82b8-b3f5d0b556c1" d="M166.2,581.7h-.1a4.7,4.7,0,0,1-3.3-.7h-.1s.1-.6.2-1.4a5.9,5.9,0,0,0,.2-1.4,8.8,8.8,0,0,0,.2-1.7c.1-1.1.2-2.3.3-3.2s.2-1.5.2-1.5l.3-.8a15.1,15.1,0,0,1,1-1.7c1.1-1.6,1.7-.6,2,.5a9.4,9.4,0,0,0,.1,1.2,3.8,3.8,0,0,1,.1,1,1,1,0,0,0,.1.4s-.1.5-.2,1.4-.1,2-.2,3.1a11,11,0,0,0-.2,1.8c-.1.5-.2,1.1-.3,1.5A10.8,10.8,0,0,1,166.2,581.7Z" transform="translate(-108 -434.9)"/>
    <path class="e7d028f5-bf68-4d6f-82b8-b3f5d0b556c1" d="M166,573.7h-.1a5.5,5.5,0,0,1-.4-1.2,4.1,4.1,0,0,1,0-2.2.1.1,0,0,1,.1-.1h3.7l2.1.2,3.6.6,1.6.2,1,.4,1.7.9c2,1,1.2,1.7-.2,2,.1.1-.7.2-1.5.2h-1.7l-1.6-.3-1.6-.2-1.8-.3H166Z" transform="translate(-108 -434.9)"/>
    <path class="e7d028f5-bf68-4d6f-82b8-b3f5d0b556c1" d="M179.4,573.3h.1a5.9,5.9,0,0,1,3.4.5h.1a8.7,8.7,0,0,1-.1,1.1v2.6c0,.9.1,1.9.1,2.6a11.6,11.6,0,0,1,.1,1.3l-.2.8c-.2.4-.4,1-.6,1.5s-1.6.9-2.1,0l-.4-1.1-.4-1.1v-1.2a5.3,5.3,0,0,1-.1-1.3c0-.4-.1-1-.1-1.5V576a5.3,5.3,0,0,1,.1-1.3A7.9,7.9,0,0,1,179.4,573.3Z" transform="translate(-108 -434.9)"/>
    <path class="e7d028f5-bf68-4d6f-82b8-b3f5d0b556c1" d="M164.5,584.8h-.1a4,4,0,0,1,.4-3.4h.1l12.1,1.3a21.7,21.7,0,0,1,3.3,1.3c2.2,1,1.2,1.7-.3,2,.2.1-3.5.3-3.5.3Z" transform="translate(-108 -434.9)"/>
    <path class="e7d028f5-bf68-4d6f-82b8-b3f5d0b556c1" d="M202,572.6c0,.1,0,.1-.1.2s-2,1.8-3.4-.3v-2.2h-.4l-.4-.3-.8-.5a6.3,6.3,0,0,1-2.4-3.6,8.5,8.5,0,0,1,.1-4.2,11.7,11.7,0,0,1,4.5-6,10.2,10.2,0,0,1,3.5-1.6,8.5,8.5,0,0,1,3.9-.1l1,.3,1,.4.9.5.8.6a10.3,10.3,0,0,1,2.4,3.1,10.1,10.1,0,0,1,.9,3.8,7.6,7.6,0,0,1-1,4.1,4.2,4.2,0,0,1-1.8,1.7l-1.6.7c-.4.2-.3.2-.5.4a3.5,3.5,0,0,0-.1.6c-.1.2,0,.4,0,.6v.5h.3a10.6,10.6,0,0,0,2.1-1.6,8.3,8.3,0,0,0,1.4-2.2,11,11,0,0,0-.7-10.4,8.6,8.6,0,0,0-1.8-2,6.4,6.4,0,0,0-2.2-1.4,10.5,10.5,0,0,0-5.3-.6,11.2,11.2,0,0,0-2.6.8,10.2,10.2,0,0,0-2.2,1.4,10.5,10.5,0,0,0-2.6,4.6v.6h0v1.2a1.1,1.1,0,0,0,0,.8v1.5a2.8,2.8,0,0,0,.1.9,5,5,0,0,0,.2,1.2,16.1,16.1,0,0,0,.9,2.6,20.1,20.1,0,0,0,1.4,2.5,26.8,26.8,0,0,0,2.2,2.3c.5.5.6.7.3.8a2.5,2.5,0,0,1-1.5-.3,11.7,11.7,0,0,1-2.5-1.5l-1.1-1a11.1,11.1,0,0,1-2.1-3.1,11.7,11.7,0,0,1-1.3-3.7,7.4,7.4,0,0,1-.2-1.2,2.8,2.8,0,0,1-.1-.5v-2a3.1,3.1,0,0,1,.1-1v-.3l.2-.7a8.4,8.4,0,0,1,.5-1.7,12.8,12.8,0,0,1,4.5-5.8,12.8,12.8,0,0,1,6.8-2.2,14.5,14.5,0,0,1,3.6.2,14.8,14.8,0,0,1,3.5,1.3,20.9,20.9,0,0,1,2.9,2.3,16.1,16.1,0,0,1,2.1,3,15,15,0,0,1,1.7,6.9,14.1,14.1,0,0,1-.5,3.5,12.1,12.1,0,0,1-.5,1.8c-.3.5-.5,1.1-.8,1.6a12.7,12.7,0,0,1-2.4,2.8,1.3,1.3,0,0,1-.7.6l-.7.6-.8.5h-.4l-.7.3-1.4.6-1.4.5h-.6l-.3-.8c-.1-.4-.3-.9-.4-1.4s-.5-2.2-.6-2.6a8.6,8.6,0,0,1,.2-2.2,5.6,5.6,0,0,1,.4-1.2l.8-1a5.9,5.9,0,0,1,1.1-.8l.9-.4a1.9,1.9,0,0,0,.9-.4c.2-.1.2-.2.4-.6a5,5,0,0,0-.4-4.4,5.4,5.4,0,0,0-1.5-1.8l-.4-.3-.5-.2h-1.1a6,6,0,0,0-4.6,1.2,8.6,8.6,0,0,0-2.9,4.1,5,5,0,0,0-.1,2.1,2.6,2.6,0,0,0,1.1,1.6l.4.3h.6c.2.2.5.2.7.3l.7.2.7.3h.2v.4Z" transform="translate(-108 -434.9)"/>
    <path class="e7d028f5-bf68-4d6f-82b8-b3f5d0b556c1" d="M134.6,591h.3a1.9,1.9,0,0,1,1,1.3c.1.7-.2,1.3-1.1,2.1h-3.5l-1-.2-1.1-.5a7.5,7.5,0,0,1-1.7-1.4,7.1,7.1,0,0,1-1.4-4.3,8.2,8.2,0,0,1,.9-4.3,4.7,4.7,0,0,1,.6-.9,1,1,0,0,1,.4-.5.8.8,0,0,1,.4-.4l.5-.5.5-.3,1-.5a12.2,12.2,0,0,1,4.1-.7c2.5-.1,4.8.4,7,.5l3.5.2h3.5l3.5.5,1.9.3,1.9.7a6.1,6.1,0,0,1,3.3,3.5,15.5,15.5,0,0,1,.4,2.1v2.1a7.5,7.5,0,0,1-.7,2.3,5.5,5.5,0,0,1-1.7,2,7.2,7.2,0,0,1-2,.9,7.9,7.9,0,0,1-2,.4h-5l-1.1-.2-1.3-.2-6.1-1.5-2-.4-1.2-.3q-.9-.3-.6-.6c.1-.2.6-.3,1.4-.5h4.1l3.5.2,1.8.2h6.7a3.1,3.1,0,0,0,2-.9,1.6,1.6,0,0,0,.4-.7v-.5a1.3,1.3,0,0,0,.1-.6c-.1-.5-.1-1-.2-1.4l-.3-1.2-.6-.7a4.6,4.6,0,0,0-1-.5l-1.4-.3-.7-.2H151l-1.7-.2-1.6-.2-6.7-.4a54.4,54.4,0,0,0-6.7-.4,5.3,5.3,0,0,0-2.6.5,1.9,1.9,0,0,0-.9.5,3.5,3.5,0,0,0-.6.9,4.7,4.7,0,0,0,.2,4.5,1.3,1.3,0,0,0,.6.5h.3l.5.2Z" transform="translate(-108 -434.9)"/>
    <path class="e7d028f5-bf68-4d6f-82b8-b3f5d0b556c1" d="M167.2,594.2h.2a2.2,2.2,0,0,1,.7,1.6c0,.6-.3,1.2-1.4,1.8h-.3a17.7,17.7,0,0,1-3.1-.8,10.4,10.4,0,0,1-3.3-1.7,5.4,5.4,0,0,1-1.5-1.8,5.6,5.6,0,0,1-.5-2.5,14.2,14.2,0,0,1,.5-2.2l.4-.9.6-.9a4.9,4.9,0,0,1,1.6-1.6l1.9-.9a23.3,23.3,0,0,1,3.6-.8,38.6,38.6,0,0,1,6.8,0c2.3.1,4.5.4,6.6.7l3.2.4a14,14,0,0,1,3.7.7,7.6,7.6,0,0,1,1.9,1.2,5.8,5.8,0,0,1,1.4,1.7,7,7,0,0,1,.8,2,5,5,0,0,1,.2,2.1,4.6,4.6,0,0,1-.6,2.3,5.9,5.9,0,0,1-1.3,1.8,7.6,7.6,0,0,1-1.9,1.2l-1.9.6h-1.1l-1,.2h-3l-2.4-.4-6.1-1.4-3.2-.6c-.6-.1-.8-.3-.7-.5a3.8,3.8,0,0,1,1.4-.6,12,12,0,0,1,2.8-.3h1.4l3.4.2h7.7l.6-.2,1.1-.4.7-.7a2.9,2.9,0,0,0,.5-1.7,2.3,2.3,0,0,0-.3-1.1c0-.2-.1-.3-.2-.5s-.1-.3-.3-.4a2.4,2.4,0,0,0-1.6-1.1l-2.8-.4-3.3-.4c-2.1-.3-4.2-.6-6.2-.7a40.9,40.9,0,0,0-6.1.1,10.7,10.7,0,0,0-2.7.6,3.8,3.8,0,0,0-1.7,1.1h0v.2l-.2.2a1.4,1.4,0,0,1-.2.6,4.4,4.4,0,0,0-.2,1,1.5,1.5,0,0,0,.1.7l.5.6a8.2,8.2,0,0,0,2.1,1Z" transform="translate(-108 -434.9)"/>
  </g>
</svg>
