<svg id="abe70ae1-c0b6-4d62-a9a2-529cb6e66cbf" data-name="Objects" xmlns="http://www.w3.org/2000/svg" viewBox="0 0 52.5 79.9">
  <defs>
    <style>
      .a944a606-a3dc-4356-825a-d2af50370287 {
        fill: #252525;
      }
    </style>
  </defs>
  <g>
    <path class="a944a606-a3dc-4356-825a-d2af50370287" d="M923.7,361.4v.2a1,1,0,0,1-1.8.2.1.1,0,0,1-.1-.1c-.1-.1-.2-1.3-.5-3-.8-5.6-1.6-11.7-2.5-18.2-.6-3.8-1.1-7.8-1.7-11.7s-1.4-8.1-2.1-12.3a87.9,87.9,0,0,1-1.5-12.8v-1.6a10.9,10.9,0,0,1,.1-1.8,11.3,11.3,0,0,1,.3-1.8l.3-.8.4-.9a9.2,9.2,0,0,1,2.4-2.8,13.7,13.7,0,0,1,3.2-1.6,19.7,19.7,0,0,1,6.8-1l3.3-.2h3.3l13.4-1.3c2.1-.2,4.8-.5,7.1.9a7,7,0,0,1,2.5,2.9,10.6,10.6,0,0,1,1.2,3.4,19.1,19.1,0,0,1,.6,3.3c.2,1.1.3,2.2.5,3.3l.9,6.6q1.8,13.1,3.6,25.5l.9,6.2c.3,2,.7,4,1,6a40.7,40.7,0,0,1,.6,6,18.1,18.1,0,0,1-.6,6.1,7.8,7.8,0,0,1-1.6,2.8,1.7,1.7,0,0,1-.6.6,1.8,1.8,0,0,1-.7.5,5.7,5.7,0,0,1-1.3.8,19.1,19.1,0,0,1-5.5,1.6c-3.7.6-7.2.6-10.4.9h-1.2l-1.2.2-1.2.2-1.1.3a39.4,39.4,0,0,1-4.7,1,23,23,0,0,1-4.5.5h-2.6l-1-.2-.8-.3-.6-.2-1.2-.8a5.8,5.8,0,0,1-2-3.1,6.8,6.8,0,0,1-.1-1.9c.1-.4.2-.4.3-.4a2.4,2.4,0,0,1,.3.7l.6,1.3c0-.1.1.2.3.5a6,6,0,0,0,1.1,1.2,4.6,4.6,0,0,0,1.4.7l.5.2h3.2a30.9,30.9,0,0,0,8.2-1.1l2.2-.5,1.2-.3,1.2-.2,4.9-.4c3.2-.2,6.7-.3,9.9-1.3l1.1-.4,1.2-.6,1-.6a3,3,0,0,0,.8-.8,8,8,0,0,0,1.5-4.7,25.8,25.8,0,0,0-.2-5.5,56.2,56.2,0,0,0-.9-5.7c-.1-1-.3-2-.5-3s-.2-2-.4-3-.5-4.1-.8-6.1q-1.8-12.3-3.6-25.2l-.9-6.4a30.6,30.6,0,0,0-.5-3.2,13.2,13.2,0,0,0-.8-3,5.8,5.8,0,0,0-1.5-2.5,4.6,4.6,0,0,0-2.4-1.2h-3l-3.2.3-6.6.6-3.3.3-1.7.2h-8.2l-3.1.4a11.6,11.6,0,0,0-2.8,1,6.6,6.6,0,0,0-2.3,1.7,4.2,4.2,0,0,0-.8,1.2,5.2,5.2,0,0,0-.6,1.3,9.2,9.2,0,0,0-.3,2.9c0,1,0,2.1.1,3.1a123.5,123.5,0,0,0,1.6,12.4c.8,4.1,1.5,8.1,2.1,12.1s1.1,7.9,1.7,11.7c.8,6.1,1.6,11.9,2.4,17.3C923.5,360.2,923.7,361.4,923.7,361.4Z" transform="translate(-913.4 -289.6)"/>
    <path class="a944a606-a3dc-4356-825a-d2af50370287" d="M928.4,354h0a1.1,1.1,0,0,1-1.8.6c0-.1-.1-.1-.1-.2l-.6-2.2-.8-3.2c-.2-.5-.2-1.1-.4-1.7l-.3-1.7-.7-3.4c-.4-2.2-.7-4.5-1-6.8-1.3-9.1-2-18.2-3.1-27.3-.2-2.3-.5-4.5-.8-6.8l-.2-1.4v-.7h.9l2.2-.4,3.4-.5c2.3-.4,4.5-.7,6.8-.9l3.4-.4,3.5-.3,7-.6,3.5-.2,2.3-.2h.5s.1-.1.1,0v.2l.3.8.3,1.2c.5,2.3.8,4.7,1.1,7l.3,3.5.3,1.7.3,1.7,1.3,6.9,1.1,7c.5,2.3.8,4.6,1.1,6.9l.9,7,.8,7,.4,3.6v1.3h-.3l-1.5.4-1.8.4c-4.7,1-9.4,1.1-14,1.7l-3.4.6-1.7.3-1.1.2h-.6l-1.2.3-1.7.2-1.7.2h-1.7c-3.6.2-2.3-.5-.1-1-.2-.1,1.1-.3,2.4-.7l2.7-.7,1.1-.2,2.2-.5c2.3-.4,4.6-.8,6.9-1l6.8-.7,3.3-.5,3.2-.7c.1,0,.1.1.1,0l-.2-1.6-.4-3.4c-.3-2.3-.5-4.5-.8-6.8l-1-6.8-.4-3.3-.6-3.4c-.4-2.2-.7-4.4-1.1-6.7l-1.3-6.7-.3-1.7a8.8,8.8,0,0,0-.2-1.7l-.4-3.4a35,35,0,0,0-1.1-6.6v-.3H949l-3.4.3-6.7.5-3.5.3-3.3.4c-2.3.3-4.6.5-6.8.9l-3.4.6-1.2.2h0v.2c.3,2.3.7,4.6.9,6.9,1.1,9.1,1.8,18.2,3,27.2.4,2.3.7,4.5,1.1,6.8l.6,3.3.4,1.7.3,1.7.8,3.1Z" transform="translate(-913.4 -289.6)"/>
    <path class="a944a606-a3dc-4356-825a-d2af50370287" d="M943.5,361.1h.1a1.2,1.2,0,0,1,.7.7,2.4,2.4,0,0,1-.5,1.2h-.2l-1.6.3h-1.1l-.7-.3-.3-.2-.2-.2a3.2,3.2,0,0,1-.9-1.7,5.4,5.4,0,0,1,0-1.8,9.8,9.8,0,0,1,.5-1.6,3.9,3.9,0,0,1,1.2-1.4l.5-.2.5-.2.7-.2,1.5-.2h3.2l.7.4.4.5a6.1,6.1,0,0,1,.7,1,5.8,5.8,0,0,1,.3,1.3,4.9,4.9,0,0,0,.1,1.2v.9a4.1,4.1,0,0,0,.1,1.1H947c-3.6.1-2.2-.5-.1-1.1h.6a.1.1,0,0,1,.1-.1v-.2h0v-.2h0l-.3-1.2a2.4,2.4,0,0,0-.3-.7v-.3l-.3-.4-.2-.2h-.1a14.1,14.1,0,0,0-4.6.5,2.1,2.1,0,0,0-.5.7,3.6,3.6,0,0,0-.4,1.1,2.2,2.2,0,0,0,.4,1.7h.7Z" transform="translate(-913.4 -289.6)"/>
  </g>
</svg>
