<svg id="bdfcb36d-23c3-4c39-b946-f2fb35c09e5b" data-name="Objects" xmlns="http://www.w3.org/2000/svg" viewBox="0 0 123.7 77.6">
  <defs>
    <style>
      .b7302ad4-8299-4603-9e4d-7bc225b1ce91 {
        fill: #252525;
      }
    </style>
  </defs>
  <g>
    <path class="b7302ad4-8299-4603-9e4d-7bc225b1ce91" d="M356.1,852.1h0a.6.6,0,0,1,1,0h0v1.6a22.7,22.7,0,0,1-4.2,11.5l-.2.3-.2.3-.5.6a5.8,5.8,0,0,1-1,1.2l-1,1.1-.6.6h-.1l-.6-.8h.2l.3-.2,5.2-3h0a82.5,82.5,0,0,0,10.3-7.2,46.7,46.7,0,0,0,4.5-4.4l.9-1,.5-.6,1.1-1.3c1.1-1.3.9-.7.4.3s-.2.6-.6,1.2a3.5,3.5,0,0,0-.5.8l-.3.3-1.2,1.5a44.7,44.7,0,0,1-4.5,4.2,78.9,78.9,0,0,1-10.1,7h0c-1.7,1.1-3.5,2.1-5.2,3l-.4.2h-.1l-.6-.8h.1l.6-.6,1-1,.9-1.2.5-.5.2-.3.2-.3a21.4,21.4,0,0,0,4-11Z" transform="translate(-319.1 -792)"/>
    <path class="b7302ad4-8299-4603-9e4d-7bc225b1ce91" d="M356.4,851.4h.1c.2.2.6.5.1.9h-3.2l-2.8-.2-2.8-.3-2.8-.4-1.4-.2-1.5-.3a15.2,15.2,0,0,1-2.8-.9l-2.8-1.1a22.9,22.9,0,0,1-2.7-1.4,19.1,19.1,0,0,1-2.7-1.6,5.7,5.7,0,0,0-1.3-.8l-1.2-1.1-.6-.5-.6-.5-1-1.2a27.1,27.1,0,0,1-3.8-5.1,23,23,0,0,1-2.7-6,22.4,22.4,0,0,1,.5-13.3A33,33,0,0,1,333,801.5a29,29,0,0,1,2.9-1.9l1.5-.8,1.6-.8.8-.4.8-.3,1.6-.7,1.6-.6.8-.3.9-.2,1.6-.6,1.7-.4,1.7-.4,1.7-.4a78.8,78.8,0,0,1,13.7-1.6,57.2,57.2,0,0,1,13.7,1.1,47.4,47.4,0,0,1,12.9,4.1,32.8,32.8,0,0,1,10.6,7.8,24.8,24.8,0,0,1,5.6,11.5l.3,1.6c0,.5.1,1,.1,1.5v1.6a7.6,7.6,0,0,1-.1,1.5,28.9,28.9,0,0,1-1,6,24.8,24.8,0,0,1-5.8,10.1l-.5.5-.5.4a8.7,8.7,0,0,1-1.1.9l-1.1.8-1.2.8a42.3,42.3,0,0,1-4.7,2.5,64.4,64.4,0,0,1-9.4,3.1l-4.5,1-2.2.4h-3.6c-1.8,0-1.1-.3,0-.6l1.2-.2,1.3-.3h.4l2.1-.3A75.1,75.1,0,0,0,387,846a44.3,44.3,0,0,0,8.9-3.7,25.6,25.6,0,0,0,4.2-2.8,18.7,18.7,0,0,0,3.6-3.8,24.9,24.9,0,0,0,4.1-10.2,21.6,21.6,0,0,0,.4-5.7A23,23,0,0,0,407,814a24.1,24.1,0,0,0-6.5-10.2,34.4,34.4,0,0,0-10.8-6.7,60.1,60.1,0,0,0-12.6-3.4,74.8,74.8,0,0,0-13.4-.6l-6.7.7-6.6,1.3a50,50,0,0,0-12.6,4.6,36.4,36.4,0,0,0-10.5,8.1,30.4,30.4,0,0,0-6.4,11.3,20.5,20.5,0,0,0,.3,12.5,25.9,25.9,0,0,0,2.8,5.5l.9,1.3.9,1.3c.6.8,1.3,1.5,2,2.3l.5.5.6.5,1.2,1,1.2.9,1.2.8,2.6,1.4,2.6,1.2,2.8,1.1,1.3.4,1.4.3,2.7.5,2.8.4,5.4.4h2.3Z" transform="translate(-319.1 -792)"/>
    <path class="b7302ad4-8299-4603-9e4d-7bc225b1ce91" d="M385.4,853.8h0c-.3-.1-.6-.4-.2-.9h.1l1.6-.3a40.1,40.1,0,0,0,7-1.9,34.4,34.4,0,0,0,6.6-3.4l.7-.5.8-.5,1.5-1.1,1.4-1.1.7-.6.7-.7a31,31,0,0,0,4.7-5.5l1-1.5.9-1.6.4-.9.4-.8.3-.8.2-.5.2-.4.5-1.7a11.6,11.6,0,0,0,.4-1.8,11.3,11.3,0,0,0,.3-1.8,11,11,0,0,0,.2-1.8v-3.7a11.3,11.3,0,0,0-.3-1.8v-1.7l-.4-1.3-.2-.8c-.1-.5-.3-1.1-.4-1.6s0-1.2.5-.2l.6,1.2.3.9.2.4v1.1a2.9,2.9,0,0,1,.2.9l.3,1.8c.1.6.1,1.3.2,1.9v1.8a11.5,11.5,0,0,1-.1,1.9,28.9,28.9,0,0,1-1.6,7.2,34.8,34.8,0,0,1-3.5,6.6,38.2,38.2,0,0,1-10.8,10,40.7,40.7,0,0,1-6.6,3.3,44.1,44.1,0,0,1-7.1,2Z" transform="translate(-319.1 -792)"/>
    <path class="b7302ad4-8299-4603-9e4d-7bc225b1ce91" d="M384.9,853.5h0c0-.3.1-.7.8-.6h0l1,1.2a17,17,0,0,0,5.7,3.9,32.2,32.2,0,0,0,6.8,1.7,42.1,42.1,0,0,0,7.1.2l3.5-.4h1.1l2.5-.3c1.7-.3,1.1.1.1.5l-1.2.4-1.4.4h-1.4l-3.5.4a33.5,33.5,0,0,1-7.1-.3,28.8,28.8,0,0,1-7-1.8,15.9,15.9,0,0,1-5.9-4Z" transform="translate(-319.1 -792)"/>
    <path class="b7302ad4-8299-4603-9e4d-7bc225b1ce91" d="M414.4,812.2c-.1,0-.1,0-.1-.1s-.5-.6.1-.9h.1l1.6.3,1.9.5,1.8.5,3.5,1.3a39.6,39.6,0,0,1,6.8,3.5,21.7,21.7,0,0,1,2.9,2.4,17.2,17.2,0,0,1,2.7,2.7,22,22,0,0,1,2.1,3.2,14.2,14.2,0,0,1,1.4,3.6,21.6,21.6,0,0,1,.7,7.6,16.1,16.1,0,0,1-.7,3.7c-.2.7-.5,1.2-.7,1.8l-.9,1.7-1.1,1.6-1.3,1.5a23.7,23.7,0,0,1-2.9,2.5l-.6.5-.5.2-.7.5-1.6.7c-1.6.7-1.1.1-.2-.5l1-.7.8-.6.3-.2.4-.3h.2l.3-.3.7-.5a20.6,20.6,0,0,0,2.6-2.5,19.4,19.4,0,0,0,2.1-2.9,13.3,13.3,0,0,0,1.3-3.3,21.4,21.4,0,0,0,.6-3.5,21,21,0,0,0-.9-7.1c-1.3-4.6-4.8-8.3-8.8-11a30.6,30.6,0,0,0-6.5-3.3l-3.4-1.3-1.7-.5-1.8-.4Z" transform="translate(-319.1 -792)"/>
    <path class="b7302ad4-8299-4603-9e4d-7bc225b1ce91" d="M427.4,852.3h0c.1-.3.3-.7.9-.4h0l.4.7.3.7a20.6,20.6,0,0,0,3.5,4.3,48.2,48.2,0,0,0,4.4,3.5l2.4,1.7,1.5,1,1.2.8.6.5h-.2l-4.3-.2a28.5,28.5,0,0,1-2.9-.3,85,85,0,0,1-11.2-2.1l-5.5-1.7-1.2-.3-.8-.4-1.5-.7c-1.6-.8-.8-.7.2-.5l1.3.3.9.3h.4l1.6.5,1.4.4,1.3.4,2.7.8a80.4,80.4,0,0,0,10.9,2l1.4.2h2.4l-1-.7-2.3-1.6a48.2,48.2,0,0,1-4.4-3.5,17.4,17.4,0,0,1-3.6-4.5l-.4-.7Z" transform="translate(-319.1 -792)"/>
    <path class="b7302ad4-8299-4603-9e4d-7bc225b1ce91" d="M388,854.9c-.1,0,0,0,0-.1s.3-.4.5-.4.2.3.4.3h.2a.5.5,0,0,0,.4.2l.4.3h.1l2,.9.9.5.5.3c-1.2,1.7-.4.4-.7.8h-.1l-.2-.2-1.6-1.2-1.6-1.3-.8-.6-.2-.2h-.1c1.3-1.6.4-.4.7-.8h.1l.4.3,1.7,1.1,1.7,1.2,1.6,1.2.4.3h.1l-.7.8h0l-.2-.2-.7-.8-1.3-1.5-.7-.7-.2-.2h-.1c1.1-1.7.4-.5.6-.8l.5.2a13.9,13.9,0,0,1,3.4,2.4l.7.7.4.3h.1l-.8.6h-.1l-.2-.2a7.9,7.9,0,0,0-1.2-1.5l-1.2-1.6a4.7,4.7,0,0,1-.6-.9l-.3-.4v-.3H392c-.7.5.9-.9.7-.7l1.6,1.3,1.5,1.5h0c.5.5,1,1.1,1.5,1.5l.8.8h.2l-.8.7h0l-.2-.2-.3-.4c-.9-1.2-1.7-2.5-2.5-3.7h0a7.5,7.5,0,0,0-.7-1.2l-.3-.6h0l.8-.6h.1v.2l.2.2,1.9,1.9a42.1,42.1,0,0,0,3.6,3.7h0l.5.5h0l-.8.6h-.1l-.2-.3-.7-1.1-1.3-2.1-.6-1.2-.5-1.1-.2-.3h-.1l.8-.6h0l.5.5.9.9h0l1.1,1.1,1.1,1.2,2.1,2.3.5.6.2.3h.1c.7-.5-1.1.7-.9.5h-.1v-.2l-.7-1.3-1.6-2.7h0l-.2-.4-.3-.5-.5-1-.4-1-.2-.4V851h.1l1.9,1.1.9.6a.2.2,0,0,0,.2.2l.2.2.2.3a30.4,30.4,0,0,1,3.3,4h0v.2h.1l-.9.5h0v-.4l-.3-.7-.7-1.4-1.5-2.8a26.9,26.9,0,0,1-1.6-2.9l-.3-.7-.2-.4v-.2h-.1c-.2.2,1.5-1.1.8-.5h0a13.1,13.1,0,0,1,1.2,1.1h0c2.6,2.7,4.3,6,6.6,8.7h.2l-.9.5h0v-.3l-.3-.6-.6-1.2-1.2-2.5-.6-1.2-.6-1.2a11.2,11.2,0,0,1-.5-1.3l-.2-.6a1.4,1.4,0,0,1-.2-.6l-.4-1.2h0l-.2-.8v-.7h0l1.3,1.2.6.6.6.6.8,1,1.2,1.5,1,1.6,1,1.6.5.8.6.7a7.6,7.6,0,0,0,1.1,1.4l.2.2h0l-.8.6h0l-.2-.4-.5-.8h0c-1.4-2.5-3-5-4.2-7.7l-.8-2.1v-.2h-.1l.9-.5h0l.2.2.3.5.8.8c.9,1.1,1.8,2.4,2.6,3.5h0l2.4,3.4,1.3,1.7.6.8v.2h.2c.8-.4-1.1.6-.9.4h0l-.2-.4a50,50,0,0,0-3.5-7.4c-.7-1.2-1.3-2.5-1.9-3.7a16.7,16.7,0,0,1-.8-2h-.1l.9-.5h.2v.2l.4.4.6.8c1.7,2.3,3.1,4.6,4.6,6.9h0l2.5,3.6,1.3,1.7.2.2h0l-.8.5h-.1v-.2l-.3-.4-.5-1c-1.4-2.6-2.9-5.1-4.2-7.7h0c-.8-1.4-1.5-2.9-2.2-4.3l-.2-.6h-.1c.4-.3-.9.5.8-.6h.1l.2.2.8,1,.7.9.8,1c1.9,2.6,3.6,5.4,5.4,8h0c.5.7.9,1.4,1.5,2.1l1.4,1.8h0v-.2l-.6-1a3.9,3.9,0,0,0-.6-1.1,4.1,4.1,0,0,0-.7-1.1l-.7-1.1-3.1-4.1h0a42.1,42.1,0,0,1-3.5-4.8l-.8-1.3-.6-1.4-.3-.7v-.4h-.1c.3-.3-.9.5.8-.6h.1l1,1.1a93.6,93.6,0,0,1,7.2,9.4h0c1.1,1.5,2.2,3,3.4,4.4l1.9,2.1.9.9.9.8.2.2h-.1L425,858c-.6-.8-1.1-1.6-1.7-2.3h0c-2.9-4.1-6.1-8.2-8.8-12.6l-1-1.6-.3-.4v-.3l.8-.6h.2l.7.6c.9.9,1.9,1.8,2.7,2.7l1.4,1.5,1.2,1.4,2.5,3A109.7,109.7,0,0,0,432.7,861l.7.6.2.2h.1c-.3.3.8-.7-.7.7h-.1l-.3-.4-1.2-1.5a33.6,33.6,0,0,0-2.4-2.9c-1.7-2-3.4-3.8-5.1-5.7h0l-3.1-3.5-1.5-1.8c-.5-.6-1-1.1-1.5-1.8l-1.4-1.8-1.4-1.9-.6-1-.4-.4v-.2l.7-.6h.1l.2.2,1.7,1.6c4.5,4.3,8.3,9.2,12.4,13.7l1.5,1.8,1.6,1.6c1.1,1.2,2.2,2.2,3.3,3.2l.4.4h.2l-.7.7h-.1l-.2-.2-.8-.8-1.6-1.7-3.2-3.3-6.2-7-5.8-7.2h0l-3.1-4-1.5-2-.4-.5v-.2h-.1l.7-.7.3.2,1.1.7a37.4,37.4,0,0,1,6.6,7.8l3,4,.9.9.8.9.5.4.2.2h.1l-.8.6h-.1l-.4-1.1a37.5,37.5,0,0,0-5.1-8.6h0c-1-1.3-2.1-2.6-3.1-4l-.8-1-.4-.5h-.1c-.2.2,1.4-1.3.7-.7h.1l.2.2a16.2,16.2,0,0,1,1.8,1.9c2.4,2.5,4.4,5.3,6.5,7.9l1.6,2,1.7,1.9.4.4c.8-.5-1,.7-.8.6h-.1l-.2-.3-.5-1.2-.2-.5-.3-.6-.6-1.1a78.1,78.1,0,0,0-6-8.2h0l-3.3-4.2-.4-.6h-.1c-.1.2,1.4-1.3.8-.7h.1l.3.3,1,.9a4.7,4.7,0,0,1,1,1l.9,1c2.4,2.7,4.3,5.8,6.4,8.7l1.6,2.1.3.3h0v-.6a1.4,1.4,0,0,1-.2-.6l-.5-1.2-.6-1.2c-1.6-3.1-3.9-5.8-6.1-8.7h0l-1.8-2.5-.8-1.3-.2-.3v-.2h-.1c-.7.5,1-.8.8-.7h.1l.5.5a11.4,11.4,0,0,0,1.1,1.1l1,1.2,1,1.2.9,1.2,3.5,5,1.7,2.6.9,1.2.2.3v.2h.1l-1,.4h0l-.2-.8a35.2,35.2,0,0,0-5.5-10.5c-1.2-1.7-2.5-3.2-3.8-4.8l-1-1.1-.5-.6-.2-.3h-.2l.8-.7h0l1.9,2.4h0c.7,1,1.5,1.9,2.1,2.9l2.1,2.8,4.1,5.7a29.2,29.2,0,0,0,2.1,2.8l.2.3h0l-.2-.8a5.9,5.9,0,0,1-.4-.8l-.3-.8-.4-.7-.4-.8-.4-.7h0c-2.2-3.7-5.2-6.8-8-10a23.2,23.2,0,0,1-2.1-2.5l-1.8-2.4-1.5-2.3h.3l.6.4,1.2.8,2.3,1.7.3.2h.2l.3.3.6.6,1.1,1.2h0a70.9,70.9,0,0,1,7.6,10.6,50.8,50.8,0,0,0,3.8,5.3l1,1.2v.2h.1l-.9.6h0l-.2-.4-.4-.7-.8-1.4-.4-.7-.4-.7h0c-2.6-4-5.7-7.6-8.7-11.4l-2.1-2.9-2-3-.9-1.6-1.7-3.1h.2l.4.2.7.4,1.6.9.3.2h.2l.4.3.7.5h0a28.4,28.4,0,0,1,5.1,5.3c1.5,1.9,2.9,4,4.2,6l3.8,6.1,1.1,1.5a7.1,7.1,0,0,0,1,1.4l.6.8h0l-.9.6h0l-.2-.2-.2-.4-.9-1.6A193.1,193.1,0,0,0,418,815.5h0l-.2-.3h-.1l.8-.7h.2l.6.6,1.2,1,.6.5.6.6,1.1,1.1,1.1,1.2,1,1.2,1.1,1.2,1,1.2a119.1,119.1,0,0,1,7.2,10.3h0l2.1,3.3.2.4h0l-.9.5h-.1v-.2l-.4-.8-.9-1.7-1.9-3.3a34.5,34.5,0,0,1-2-3.2,119.2,119.2,0,0,0-9.2-12h0l-1-1.2-.2-.2h-.1c1.4-1.5.4-.4.8-.7l.3.2.6.5,1.3,1.1,1.3,1.1a40.2,40.2,0,0,1,4.5,4.7,25.6,25.6,0,0,1,2,2.6c.7.8,1.3,1.7,2,2.6l1.8,2.7.9,1.4.4.7v.2l-.9.4h-.1v-.3a23.6,23.6,0,0,0-2.7-5.8,61.5,61.5,0,0,0-3.7-5.2l-1.1-1.3-.5-.6-.2-.3c.3-.4-.7.7.7-.8h.2l1.4,1,1.2,1.1a29.2,29.2,0,0,1,4.2,5.1,22.2,22.2,0,0,1,2.9,6,3.6,3.6,0,0,1,.1,1.8,11,11,0,0,0-.3,1.6.6.6,0,0,0,0,.6.4.4,0,0,0,.1.3v.2h.1c-.4.1.9,0-.9.2h0l.2-.7a2.2,2.2,0,0,0,.1-.8,10.1,10.1,0,0,0-.1-3,17.6,17.6,0,0,0-1-3c-.9-1.9-2.1-3.7-3.2-5.6l-.9-1.4h-.1c-.2.1,1.4-1.4.8-.7h.1l.4.2.6.6a9.5,9.5,0,0,1,2,2.8l.3.7.2.3h0l.3.8v.2a.4.4,0,0,1,.1.3c0,.1.1.2.1.4s.2,1.2.3,1.8-.2,1.2-.6.1-.3-.9-.6-1.7-.1-.2-.1-.3-.1-.2-.1-.3a.5.5,0,0,1-.1-.3l-.3-.6h0l-.3-.6-.6-1.3a7.6,7.6,0,0,0-1.9-2.1l-.3-.2h-.1l.7-.7h.1l.4.6.7,1.3a29.4,29.4,0,0,1,3,5.2,14.2,14.2,0,0,1,1,2.9,8,8,0,0,1,.3,3.1c0,.3-.1.5-.1.8a3.1,3.1,0,0,1-.2.8v.5h-1a1.6,1.6,0,0,1-.3-.9,3.2,3.2,0,0,1,.1-1.7,6.9,6.9,0,0,0,.2-1.3,2,2,0,0,0-.2-1.3l-.5-1.4-.6-1.3-.3-.6-.4-.7a25.5,25.5,0,0,0-3.4-4.7l-1-1.1-1.1-1-.5-.4-.6-.5-.6-.4-.3-.2h-.1l.7-.8h.1c1.2,1.6,2.5,3.1,3.7,4.8a43.9,43.9,0,0,1,3.2,5.1l.6,1.4.3.7.2.7.3.7v.4h.1l-1,.4h0l-.8-1.2a72.7,72.7,0,0,0-7-9.5l-1-1.2-1-1-1-1.1-1.1-.9-1.1-1-1.2-.9-.6-.4h-.2c-.1.2,1.3-1.4.7-.7h.1l.2.3,1,1.1h0a121.7,121.7,0,0,1,9.2,12.2l2.1,3.2,1.9,3.3.9,1.7.4.8v.2h.1l-.9.5h0l-.2-.4-2-3.2h0a124.4,124.4,0,0,0-7.2-10.2l-1-1.3-1-1.1-1.1-1.2-1-1.1-1.1-1.1-.6-.6-.6-.5-1.1-1-.6-.6h-.3l.7-.7h0l.3.3h0a187.5,187.5,0,0,1,16.6,23.8l.9,1.6.2.3.2.2h0l-.8.5h-.1l-.5-.7-1.1-1.5-1-1.5c-1.4-2-2.6-4.1-3.9-6.1a63.4,63.4,0,0,0-4.1-6,26.3,26.3,0,0,0-4.9-5.1h0l-1.3-.9h0l.9,1.6,1.9,2.9,2.2,2.9c2.9,3.8,6,7.4,8.6,11.5h0l.5.7a4.3,4.3,0,0,1,.4.7l.8,1.4.4.7.2.4h.1l-.9.6h0l-.2-.2-1-1.2a48,48,0,0,1-3.8-5.4c-2.4-3.6-4.6-7.4-7.5-10.5h0l-1.1-1.2-1-.9h0l2,2.4c2.8,3.2,5.9,6.4,8.2,10.1h0l.4.8a3,3,0,0,1,.4.8l.5.8.3.8.3.9.3.8.2.8.2.8.3,1.6.2.8c0,.2.2.8-.1.4l-1-1.2-1.8-2.5a30.1,30.1,0,0,1-2.2-2.8l-4.1-5.7-2-2.8-2.1-2.8h0l-1.9-2.4h0l.8-.7h.1l.3.3.5.6,1,1.1c1.3,1.6,2.6,3.2,3.8,4.9a33.4,33.4,0,0,1,5.7,10.9l.2.7h.1l-1,.4h0l-.2-.2-.2-.3-.8-1.2-1.7-2.6-3.5-5-.9-1.2-1-1.1-1-1.2-1-1-.6-.6h0l.8-.6h.2l.2.4.8,1.2,1.8,2.5h0a63.5,63.5,0,0,1,6.1,8.9,6.7,6.7,0,0,1,.6,1.2l.6,1.3a1.4,1.4,0,0,0,.2.6l.2.8c.1.4.1.8.2,1.2l.2,1.3v.6h-.1l-.2-.2-.9-.9-.9-.9-.6-.7-1.7-2.1c-2.1-2.9-4-6-6.3-8.7l-.9-.9-.9-1a3.9,3.9,0,0,0-1-.8l-.2-.2v-.2h-.1c-.6.7.9-.8.8-.7h.1l.3.6,3.3,4.2h0a63.3,63.3,0,0,1,6.1,8.3l.6,1.1.3.6.3.6.5,1.2v.5h0l-.8.5-.5-.4a15.4,15.4,0,0,0-1.7-1.9l-1.6-2c-2.2-2.7-4.2-5.5-6.4-7.9l-1.8-1.8-.2-.3h-.1c-.7.6.9-.9.8-.7h0v.2l.4.5.8,1c1.1,1.3,2.1,2.6,3.1,4h0a37.5,37.5,0,0,1,5.3,8.8l.4,1.2h.1l-.8.5h-.2l-.2-.2-.5-.4-.9-1-.8-.9a40.1,40.1,0,0,1-3.1-4.1c-2-2.7-3.9-5.5-6.5-7.6l-1-.7-.2-.2c-.7.7.8-.9.7-.7h.2l.3.6,1.6,2,3,4h0l5.8,7.2,6.1,6.9,3.2,3.3,1.7,1.6.8.9.2.2h0c.6-.7-.9.9-.7.8h-.2l-.4-.4c-1.1-1.1-2.3-2.1-3.3-3.2l-1.6-1.7-1.6-1.8c-4.1-4.6-7.9-9.4-12.3-13.7l-1.7-1.6-.2-.2H414c-.1.2,1.5-1.2.8-.6h.1l.3.5.7.9a21.4,21.4,0,0,0,1.3,1.9l1.4,1.8,1.5,1.8,1.5,1.7,3,3.5h0c1.8,1.9,3.5,3.7,5.2,5.7l2.5,2.9,1.1,1.6.3.3h.1l-.8.7h-.1l-.2-.2-.7-.7a101,101,0,0,1-10.2-11.5,34.7,34.7,0,0,0-2.5-2.9l-1.2-1.5-1.3-1.3-2.7-2.7-.7-.7h-.2l.8-.7v.2l.3.5.9,1.6c2.7,4.3,5.9,8.3,8.9,12.5h0l1.6,2.3.8,1.1.2.3.3.4.6,1.1,1.4,2.1.6,1.1.2.3h.2l-.6-.3-2-1.6-1.9-1.5-.2-.2-.2-.2-.3-.2-.5-.5-1-1-1.9-2.1-3.4-4.5h0a109.6,109.6,0,0,0-7.2-9.3l-1-1.1h0c1.7-1.1.4-.3.8-.6h.1v.2l.2.3.2.7.7,1.3a7.5,7.5,0,0,0,.7,1.2,52.2,52.2,0,0,0,3.4,4.8h0l3.1,4.1.8,1.1.7,1.1a6.7,6.7,0,0,1,.6,1.2l.4.5v.7l.8,2.1.7,2.3h.1l-.2-.2-.4-.5-.8-.8-1.7-1.7-.5-.6-.5-.5-.8-1.1-1.5-2.1h0c-1.8-2.7-3.5-5.4-5.4-8l-.7-1-.7-.9-.8-.9-.2-.2h0l.8-.5h.1l.3.5c.7,1.5,1.3,3,2.1,4.4h0c1.3,2.5,2.8,5,4.2,7.6l.5,1,.3.5h.1l-.9.5h0l-.2-.2-1.3-1.8-2.5-3.6h0c-1.5-2.3-3-4.7-4.6-6.8l-.7-.8-.3-.5v-.2h-.2c1.8-1.1.5-.3.9-.5h0l.8,1.8c.6,1.3,1.2,2.5,1.9,3.7a47.1,47.1,0,0,1,3.6,7.5l.2.5h0l-.9.4h-.2v-.2l-.7-.8-1.2-1.7-2.4-3.4h0l-2.6-3.4-.7-.8-.4-.5-.2-.2h0l.9-.5h.1a11.9,11.9,0,0,0,.8,2,81.4,81.4,0,0,0,4.1,7.7h0l.5.8.2.5h0c.8-.5-1,.8-.8.6h-.1l-.2-.2c-.4-.5-.8-.9-1.2-1.5l-.5-.7-.6-.8a8.6,8.6,0,0,0-1-1.6l-1-1.6-1.1-1.5-.4-.4h.1a11.2,11.2,0,0,0,.5,1.3,6.1,6.1,0,0,0,.5,1.2l.6,1.2,1.2,2.4.6,1.2.3.6v.4h.1l-.9.6h-.1v-.2c-2.4-2.8-4.1-6-6.5-8.6h0l-1.1-1h-.1c-.7.5,1-.8.9-.6h0v.6l.4.7a19.1,19.1,0,0,0,1.5,2.8l1.5,2.8a10.1,10.1,0,0,1,.7,1.5l.3.8.2.4h0l-.9.5h-.2a43.1,43.1,0,0,0-3.2-4l-.3-.3v.2h0l1.6,2.7.8,1.4v.2h.1l-.9.6h0l-.3-.3-.5-.6-2.1-2.3-1-1.2a11.4,11.4,0,0,1-1.1-1.1h0l-.9-.8-.5-.5h0l.8-.6h.1v.4l.5,1.2.6,1c.4.8.9,1.5,1.3,2.2l.7,1.1v.4h.1l-.8.7h0l-.5-.4h0c-1.3-1.2-2.5-2.6-3.6-3.8s-1.3-1.2-1.9-1.8l-.2-.3h-.2l.8-.6h.1l.3.6.6,1.1h0a40.1,40.1,0,0,0,2.5,3.7l.3.4v.2h.1c.1-.2-1.5,1.3-.8.6h-.2l-.8-.8c-.6-.5-1.1-1.1-1.6-1.6h0l-1.4-1.4-1.5-1.3.8-.6h.1v.2l.3.5.5.8,1.2,1.5a18.3,18.3,0,0,1,1.3,1.6v.2h.1l-.7.7h-.1l-.4-.3-.7-.7a16.6,16.6,0,0,0-3.1-2.3l-.5-.2.6-.8h.1l.2.2.6.7,1.4,1.5.7.8v.2h.1l-.7.8h-.1l-.4-.3-1.6-1.2-1.7-1.1-1.7-1.1-.4-.3h0c.2-.4-.7.8.5-.9h.1l.2.2.8.6,1.5,1.3,1.6,1.2.2.2h.2l-.6.8-.4-.2-.8-.5-1.9-.8h-.3l-.5-.3-.5-.3A1.4,1.4,0,0,1,388,854.9Z" transform="translate(-319.1 -792)"/>
    <path class="b7302ad4-8299-4603-9e4d-7bc225b1ce91" d="M390.6,855.4h.1c.1.2.4.7-.3,1h-.1l-1-.5-.4-.2h-.2l-1-.8-.4-.3h-.2c.3-.2,0,0,.1,0h-.7c-.2.1,1.1-1.6.6-.9l.4.3,1.6,1.2a35.5,35.5,0,0,0,3.1,2.3l1.7,1,.9.4.8.3.5.2h.3c.4-.8-.6,1-.5.8h-.1l-.7-.6-1.5-1.2-3.2-2.2-1.7-1.2-.4-.2-.2-.2H388c.2-.4-.6.9.5-.9h.1l.8.5a26.7,26.7,0,0,1,3.2,2.4l1.6,1.2.7.6h0v-.2a14.5,14.5,0,0,0-2.1-2.2l-1.1-1-.5-.6-.3-.3h-.1l.8-.7h.1c.7.9,1.2,1.7,1.9,2.5a10,10,0,0,0,2.1,2h0a.1.1,0,0,1-.1-.1l-.2-.3a2.5,2.5,0,0,1-.4-.7l-1-1.1-2-2.4h0l.8-.7h.1v.2l.3.2.4.6.8,1.1c.6.7,1.1,1.4,1.7,2a15.3,15.3,0,0,0,1.8,1.8l.6.4h.2l-.3-.7a13.4,13.4,0,0,0-.6-1.2,10.2,10.2,0,0,0-1.4-2.2l-.4-.5-.4-.5-.9-1h-.1c-.7.5,1-.6.9-.5h0v.2l.2.3.2.6.6,1.1h0l1.8,2.6a7.2,7.2,0,0,0,2.4,1.9h.4a7.1,7.1,0,0,0-.1-1.4,10.5,10.5,0,0,0-1.4-2.8,23.1,23.1,0,0,0-2-2.4l-.5-.6-.3-.3-.2-.2h0c.4-.3-.9.5.8-.6h.1a5.9,5.9,0,0,0,.6,1.4,24.1,24.1,0,0,0,3.6,5.2h0l1.3,1.1h.1v-.7a1.9,1.9,0,0,1-.2-.8,10.1,10.1,0,0,0-.7-1.5,12.6,12.6,0,0,0-1.9-2.8,6.9,6.9,0,0,0-1.1-1.3l-.3-.3v-.2h-.2l.9-.6h0l.3.8a21.6,21.6,0,0,0,3.4,5.9,3.8,3.8,0,0,0,1.1,1.1l.4.2.3.2h.5v-1.2a.8.8,0,0,0-.1-.4,1.9,1.9,0,0,0-.2-.7h0a11.4,11.4,0,0,0-1.8-3l-1.2-1.4-.6-.7-.2-.2h0v.3a23.9,23.9,0,0,0,1.6,3.2,16.9,16.9,0,0,0,2.2,2.9,4.1,4.1,0,0,0,1.3,1h0c0-.1,0-.1.1-.2v-.4a6.5,6.5,0,0,0-.9-3.2,18.7,18.7,0,0,0-2-2.9h0a18.6,18.6,0,0,0-2.7-2.9h0c.3-.3-.9.5.8-.6h.1v.2l.2.5.4.9.9,1.8,2.2,3.3a9.9,9.9,0,0,0,2.8,2.6,1.9,1.9,0,0,0,.8.3h.1a5.1,5.1,0,0,0-.1-1.7,15.8,15.8,0,0,0-1.6-3.5c-.7-1.1-1.5-2.2-2.2-3.4l-1.2-1.6-.5-.9v-.2h0c-.2.1,1.8-.9.9-.5h.1v.2l.2.5a33.4,33.4,0,0,0,3.9,7.5,5.6,5.6,0,0,0,3.1,2.2h.2v-.7a14.2,14.2,0,0,0-.4-2,18,18,0,0,0-1.6-3.8,9.9,9.9,0,0,0-1.1-1.7l-.7-.8-.4-.3h0v.3a4.3,4.3,0,0,1,.1.5,13.3,13.3,0,0,0,.5,1.9,16.2,16.2,0,0,0,1.9,3.7h0a14.2,14.2,0,0,0,2.9,3.5h.2c0-.2.1-.4,0-.5a5.5,5.5,0,0,0-.2-2.2,15.7,15.7,0,0,0-1.8-4.2,8.6,8.6,0,0,0-1.4-1.8h0v.5a4.9,4.9,0,0,0,.4,1.1,7.5,7.5,0,0,0,1,2,17,17,0,0,0,2.6,3.8l.8.9.4.4.2.2h0a3.1,3.1,0,0,0,.1-1,22.5,22.5,0,0,0-.5-2.2,18,18,0,0,0-.8-2.1h0a23.2,23.2,0,0,0-2.2-3.6,9,9,0,0,0-2.8-2.7c-.1-.1-.1,0-.1,0v.6a6.7,6.7,0,0,0,.5,1.9,12.4,12.4,0,0,0,1.9,3.6,20.8,20.8,0,0,0,2.7,3.2,11.1,11.1,0,0,0,3.2,2.5,6.4,6.4,0,0,0,1.8.6h.5v-.4a7.6,7.6,0,0,0-.9-1.8l-.6-.8-.7-.7a9.4,9.4,0,0,0-3.5-2,3.2,3.2,0,0,0-.9-.3h-.5v.2a4.1,4.1,0,0,0,.5.9,15.3,15.3,0,0,0,2.7,3,26.2,26.2,0,0,0,3.4,2.4,14,14,0,0,0,3.8,1.6h1l-.2-.3a2.3,2.3,0,0,0-.7-.7,11.3,11.3,0,0,0-3.5-2.1,11.7,11.7,0,0,0-2-.6l-1-.3H416l.3.4.4.3.3.4.4.3a21.2,21.2,0,0,0,3.6,2.1l3.9,1.4a19.6,19.6,0,0,0,4.1.7h.4l-.4-.3-.9-.6a21.5,21.5,0,0,0-3.8-1.5l-.6-.2h.1l.4.2,1,.5,1.8,1,2,.8,1,.3.5.2h.5l1.1.3h0l-.6-.4-.9-.7-3.5-2.2-1.9-1.2-1.7-1.3-.8-.7-.4-.4h0c-.6.7.7-1,.6-.8h.3a11.8,11.8,0,0,1,1.9,1.1c2.4,1.5,4.6,3.3,7.1,4.6l1.8,1,.8.3h-.1l-.9-.6-1.8-1-1-.4h0c-.2.2,1-1.6.5-.8h.3l.5.3,1.7,1.2,1.8,1.2,1.8,1.1.9.5h0c.5-.8-.5,1.1-.4.9h-.4l-.5-.2-3.9-1.9c-2.5-1.5-4.8-3.1-7.1-4.8s-4.5-3.6-6.6-5.4l-3.2-2.8-.8-.7-.4-.4h-.3c-.2.1,1.3-1.4.7-.7h0l1.5,1.6a83.9,83.9,0,0,0,5.6,6.3l.8.7h.1c.7-.6-.9.9-.7.7l-.2-.2-.3-.4-1.4-1.6c-.9-1.1-1.9-2.1-2.9-3.1a58.3,58.3,0,0,1-5.5-6.6,4.7,4.7,0,0,1-.6-.9l-.6-.9a9.3,9.3,0,0,1-.5-1l-.2-.5v-.2h-.1c1.5-1.3.5-.3.8-.6h.1a11.8,11.8,0,0,1,3.3,3l.6,1a1.7,1.7,0,0,0,.2.5h.1a.4.4,0,0,0,.1.3v.4c.1.4.1.6.2.9v1h-.4l-.4-.3a2.5,2.5,0,0,1-.8-.5l-.4-.3h-.3l-.4-.4-.7-.8a8.2,8.2,0,0,1-1.2-2,5.1,5.1,0,0,1-.6-2.2v-.6a.8.8,0,0,1,.1-.4c0-.2.1-.3.3-.4a.9.9,0,0,1,.6-.3l.5-.2h0l.8-.4v2.9h0c1,0-1.2,0-1-.1h0v-1.6c.1-.7.1-1.4.2-2.2l.3-1h.4l.5.2h.6l.5.3,1,.6.9.7a37.2,37.2,0,0,1,5.4,6.6,29.1,29.1,0,0,0,2.6,3.3l.2.2h0c.8-.5-.9.9-.8.7h0l-.3-.5-.6-.8-1.3-1.8a31.9,31.9,0,0,1-4.3-7.4h0a4.4,4.4,0,0,1-.2-1l-.2-.5v-1.7h.2l.9.2.5.2h.2l.5.2a11.8,11.8,0,0,1,3.2,2.6,26.8,26.8,0,0,1,4.4,6.7l.4.9.4.9a3.1,3.1,0,0,0,.2.8v.5h-.2l-.8-.3-.7-.3-.4-.3h-.3a12.8,12.8,0,0,1-2.9-2.8,24.3,24.3,0,0,1-2.4-3.2,17.6,17.6,0,0,1-1.7-3.7h0l-.3-1.5v-.8h0a6.4,6.4,0,0,1,.2-.7v-.4h.2l1.2.5.7.4a4.7,4.7,0,0,1,1.2.9,22,22,0,0,1,2,2.3l1.5,2.6h0a22.9,22.9,0,0,1,1,2.3c.1.4.3.8.4,1.2v.2h.1v.4l.3,1.2.3,1v.3h-.2l-.5-.3-1.8-1.4a14.5,14.5,0,0,1-1.8-1.7,37.9,37.9,0,0,1-3-4,37.5,37.5,0,0,1-2.4-4.4c-.1-.2-.1-.4-.2-.6v-.3a.8.8,0,0,1-.2-.5l-.4-1.1h2.1l.6.3,1.1.6a15.4,15.4,0,0,1,3.6,3.6,61.4,61.4,0,0,1,5.2,8.4h0l.4.9.3.5v.2h.1c.8-.5-1,.7-.8.6h0l-1.3-1.6-2.6-3.3a55.8,55.8,0,0,1-4.7-6.9h0a18.3,18.3,0,0,1-1.4-3.2l-.3-.8h0c0-.1-.1-.1-.1-.2v-.4l-.2-.7v-.6s-.1-.1,0-.1l.8.3.8.2h.5a11.5,11.5,0,0,1,2.9,2,29.8,29.8,0,0,1,2.3,2.7,38.2,38.2,0,0,1,3.5,5.9l1.5,3,.8,1.6v.3h.1l-1,.4h-.1v-.2l-.3-.7h0a52.1,52.1,0,0,1-2.4-4.7,30.7,30.7,0,0,1-2-5,11.8,11.8,0,0,1-.4-2v-2.7h.1l.7.6.4.2.3.3a4.6,4.6,0,0,1,.7.7l.7.8a3.5,3.5,0,0,1,.5.8c1.4,2.3,2.1,4.8,3.1,7.1h0a10.8,10.8,0,0,0,.8,1.9h.1c-2,.5-.6.2-1,.3h0v-.3a1.1,1.1,0,0,0-.1-.5c0-.3-.1-.6-.1-1h0a33.7,33.7,0,0,1-.6-3.6,6.7,6.7,0,0,1,0-2l.2-.5h0v-.2l.2-.4.5-.6.2-.2h.1l.3.3.5.7v.3c0,.1.1.1.1.2l.2.5c0,.2.1.3.1.5a6.7,6.7,0,0,1,.1,2,20.9,20.9,0,0,1-.7,3.6v.4h.2l.3-.3a9.2,9.2,0,0,0,1.7-2.9,10.5,10.5,0,0,0,.8-3.4,7.2,7.2,0,0,0-.7-3.3h0l-.3-.4h0c-.2.1,1.8-.7.9-.3h0v.3a3.7,3.7,0,0,1,.1,1.1,14.8,14.8,0,0,1-.1,2.1c0,1.4-.2,2.7-.1,4.1v.7h.2c.2-.1.2-.2.3-.3l.3-.4c.1-.1.1-.3.2-.4a10,10,0,0,0,.6-3.9v-1.9c-.1-.4-.1-.7-.2-1l-.3-1a24.8,24.8,0,0,0-1.7-3.7l-1-1.8-.3-.4h0v.8c.3,1.3.6,2.7,1,3.9a7.6,7.6,0,0,0,.9,1.8,1.3,1.3,0,0,0,.6.7l.3.3h0s0,.1.1-.1v-1a12.3,12.3,0,0,0-.2-1.9,17.3,17.3,0,0,0-1.8-3.6,34.7,34.7,0,0,0-5.5-6,51.2,51.2,0,0,0-6.6-4.9l-3.6-2-1.9-.9-.9-.3h-.9c-.5.8.5-1.1.4-.9,2,1.6,5,2,7.4,3.5l1.9,1,1.8,1,1.8,1.1,1.7,1.2,3.5,2.3.4.3.2.2h.1c.1-.2-1,1.6-.6.8h0l-1-.6-1.7-1.1a75.2,75.2,0,0,0-6.9-4.6,13.1,13.1,0,0,0-3.7-1.5H421v.4a6.1,6.1,0,0,0,.1,1.9,26,26,0,0,0,1,4l.6,2,.3,1v.3l-1,.2h0V825a41.6,41.6,0,0,0-2-7.9h0l-.3-.8-.2-.4v-.4h0l-.2.5c-.1.2-.1.5-.2.8l-.3,1.6c-.3,2.3-.2,4.6-.5,7s-.6,4.6-.6,6.9v.8h0c-2.1-.1-.6,0-1-.1v-.6l.2-1.7.4-3.5c.3-2.3.7-4.6,1-6.9v-.6h0c2.1.3.6.1,1,.2h0v.8l-.4,1.7c-.2,1.2-.5,2.3-.7,3.4s-1.1,4.6-1.7,6.8-.6,2.3-1,3.4l-.2.4-.3.9h0c0,.1-.1.2-.2.5v.2a14,14,0,0,1-.9,1.7h-.5a4.5,4.5,0,0,1,.2-.8c0-.2,0-.2.1-.2l.2.3a2.1,2.1,0,0,1,0,.8h0l-.6-.2h.1a13.7,13.7,0,0,1,.5-1.8.3.3,0,0,1,.1-.2,1.1,1.1,0,0,0,.1-.5V837l.2-.6h0l.3-.9c.3-.8.5-1.6.8-2.3.9-3.2,1.6-6.4,2.3-9.6l.5-2.4.2-1.2h0l1.1.2h-.1v.9l-.7,4.8c-.3,1.7-.5,3.3-.7,4.9l-.3,2.5h0c.2.1-2-.1-1,0h0V831l.2-2.4.3-2.5.2-2.4a20.9,20.9,0,0,0,.1-2.5,22.3,22.3,0,0,1,.7-5c0-.2.1-.4.1-.6l.2-.3v-.4l.6-1.1.3-.5h.1v.2l.6,1.1.2.4c0,.1.1.2.1.3l.5,1.2h0a37.8,37.8,0,0,1,2,8.2v.5h0l-1,.2v-.2l-.3-1-.6-2a27.3,27.3,0,0,1-1-4.1,15,15,0,0,1-.2-2.2v-1.4s0-.2.1-.1h1.5a16.1,16.1,0,0,1,4,1.7c2.5,1.4,4.7,3.1,7,4.6l1.7,1.2.9.5h0c.5-.8-.6,1.1-.5.9h-.3l-.4-.3-3.4-2.4-1.8-1.1-1.7-1.1-1.8-1-1.8-1-1-.5-.4-.2-.5-.2-1.9-.8a15.6,15.6,0,0,1-3.9-1.9l.5-.9h1l1,.4a11.1,11.1,0,0,1,1.9.9c1.3.6,2.5,1.3,3.7,2a56.7,56.7,0,0,1,6.8,5,38.2,38.2,0,0,1,5.7,6.3,14.8,14.8,0,0,1,1.8,3.8,5.7,5.7,0,0,1,.4,2.2v.6a1.1,1.1,0,0,0-.1.5,3.1,3.1,0,0,1-.2.8l-.2.5h-.4l-.4-.2h-.5l-.4-.3-.8-.9a8.8,8.8,0,0,1-.9-2,35.9,35.9,0,0,1-1.1-4.1l-.2-1.3-.3-2-.3-2.1v-.1l.3.5.6.8,1.1,1.8.8,1.3,1,1.8a23.2,23.2,0,0,1,1.8,3.9l.3,1a3.6,3.6,0,0,1,.2,1.1v2.1a12.6,12.6,0,0,1-.8,4.3.8.8,0,0,1-.2.5,1,1,0,0,1-.4.5l-.4.5c-.1,0-.1.1-.2.2l-.3.2h-.5l-.5.2h-.3c0-.2-.1-.3-.1-.5v-1.4a29.5,29.5,0,0,1,.1-4.2,13.3,13.3,0,0,0,0-2,3.3,3.3,0,0,0,0-1v-.3h0c-.8.4,1.1-.4.9-.3h.1l.3.5h0a6.4,6.4,0,0,1,.8,3.8,10,10,0,0,1-.8,3.8,10.7,10.7,0,0,1-2,3.2l-.3.4-.6.5-1.4.9h-.3v-1.4l.2-.8v-.6a24.1,24.1,0,0,0,.7-3.5,9.1,9.1,0,0,0-.1-1.7c0-.1-.1-.3-.1-.4v-.4a.1.1,0,0,1-.1-.1.3.3,0,0,1-.1-.2h0a.4.4,0,0,0-.1.3,4.7,4.7,0,0,0-.1,1.7c.1,1.2.4,2.3.6,3.6h0c.1.3.1.7.2,1v.9h0l-.9.2h-.2l-.8-2h0a47.6,47.6,0,0,0-2.9-6.9l-.6-.8-.5-.7-.7-.6h0v.4a.6.6,0,0,0,.1.4,11.3,11.3,0,0,0,.3,1.8,34.3,34.3,0,0,0,1.9,4.8c.7,1.6,1.6,3.2,2.4,4.7h0l.4.8v.2h.1l-1,.5h0l-.2-.4-.7-1.5-1.5-3.1a41.5,41.5,0,0,0-3.5-5.7,12.6,12.6,0,0,0-4.8-4.4h-.2l.3.8a19.4,19.4,0,0,0,1.3,3h0a62.4,62.4,0,0,0,4.6,6.8l2.6,3.2,1.3,1.7h0c.2-.2-1.6,1.1-.9.5h-.1v-.2l-.3-.5-.5-.9h0a53.8,53.8,0,0,0-5-8.3,17.2,17.2,0,0,0-3.3-3.3l-1-.6-.5-.2h-.3l.4.8a24.6,24.6,0,0,0,2.3,4.2,28.2,28.2,0,0,0,2.9,3.9c.5.6,1.1,1.1,1.7,1.7h0l-.2-.4a3.6,3.6,0,0,0-.4-1.1,14.7,14.7,0,0,0-1-2.2h0a13.6,13.6,0,0,0-3.2-4.6l-1.1-.9-.6-.3h-.2v.6l.3,1.3h0a21.1,21.1,0,0,0,1.6,3.4,23.5,23.5,0,0,0,2.3,3.2,16.6,16.6,0,0,0,2.7,2.6h.2a3.6,3.6,0,0,1-.4-.9,24.8,24.8,0,0,0-4.3-6.4,11.3,11.3,0,0,0-2.9-2.4l-.6-.2h.1v.4a2.9,2.9,0,0,0,.2.9h0a30.8,30.8,0,0,0,4.2,7.2l1.2,1.8.6.9.3.4h.1l-.8.7h0l-.2-.2a22.4,22.4,0,0,1-2.7-3.4,36.8,36.8,0,0,0-5.3-6.4l-.8-.7-.9-.5-.4-.2h-.4a13.4,13.4,0,0,0-.1,2v1.1a1.3,1.3,0,0,1-.1.6h0c.3.1-1.9-.1-1,0h0v-2.9c-.1,0,1.7-.8,1-.4h.2l.2.4a.6.6,0,0,1,0,.8.3.3,0,0,1-.1.2h-1.2l-.3.2h0v.5a12.1,12.1,0,0,0,.5,1.8,9.9,9.9,0,0,0,1.1,1.7l.6.8.4.3h.1l-.3-.4a4.1,4.1,0,0,0-.5-.9,11,11,0,0,0-2.9-2.8h-.1c.3-.3-.8.6.7-.7h0v.2l.2.5a4.1,4.1,0,0,1,.5.9l.6.9a4.1,4.1,0,0,0,.5.9,54.8,54.8,0,0,0,5.5,6.4l2.9,3.1,1.4,1.6.3.4.2.3-.8.7h-.1l-.8-.7c-.5-.6-1.1-1-1.5-1.6l-1.4-1.6c-1-1-1.9-2.2-2.8-3.2l-1.4-1.6h-.1l.7-.8h.1l.2.2.4.3.9.7,3.2,2.8c2.1,1.8,4.3,3.7,6.5,5.4a60.2,60.2,0,0,0,7,4.6,33.7,33.7,0,0,0,3.8,1.9l.5.2h.3c.2-.1-.8,1.8-.4,1h-.1l-.9-.5-1.8-1.2-1.8-1.1-1.7-1.3-.5-.3h-.3c-.5.8.6-1.1.5-.9h.1l.9.5,1.9,1,1,.6.2.2.4.4.4.3.2.3.6.7.5.7h.2c0,.1.1.2,0,.1h-.4l-.8-.2h-.9l-.9-.3h-.7l-.5-.3-1.9-.9c-2.6-1.5-4.8-3.2-7.2-4.7l-1.8-1.1h-.3l.6-.8h.1l.3.3.8.7,1.6,1.3,1.8,1.1,3.6,2.3.9.6.4.4h.2l.4.4,1.5,1.4.4.4h-.2l-1.1-.2h-1.9l-1.1-.3h-.5l-.6-.2-1-.4-2-.8-1.9-.9-1-.5-.2-.2h-.3l-.8-.5-1.6-1-1.5-1.1-.8-.5,1,.2,1.8.3,1.9.4.9.2.5.2a14.2,14.2,0,0,1,4,1.7,3.3,3.3,0,0,1,1,.6l.4.4h.2v.2l.3.4a2.4,2.4,0,0,1,.6.8c.1.1.1.1.1.2h-2.4a21.7,21.7,0,0,1-4.3-.8,27.4,27.4,0,0,1-4-1.5,20.8,20.8,0,0,1-3.8-2.2l-.4-.3-.4-.4-.5-.4-.3-.4a4.2,4.2,0,0,1-.6-.8l-.6-.9v-.2h3l1.1.3,2.1.7a12.2,12.2,0,0,1,3.8,2.2,6,6,0,0,1,.8.8l.2.2v.2a.3.3,0,0,1,.1.2l.4.9c.1,0,.1.1.2.2h-2.9a17.8,17.8,0,0,1-4-1.7,23.1,23.1,0,0,1-3.6-2.5,15.3,15.3,0,0,1-2.9-3.3,4.7,4.7,0,0,1-.5-1,.4.4,0,0,1-.1-.3c0-.1-.1-.4-.1-.5v-.8h1.9l1.1.3a11.4,11.4,0,0,1,3.8,2.3l.8.7.7.9a6.8,6.8,0,0,1,1,2.1v.3a.4.4,0,0,1,.1.3v1h-1.6a5.7,5.7,0,0,1-2.2-.7,17.7,17.7,0,0,1-3.5-2.6c-1-1.1-1.9-2.2-2.8-3.4a17.2,17.2,0,0,1-2-3.8,5.9,5.9,0,0,1-.5-2.2c0-.2-.1-.4,0-.6v-.4a.9.9,0,0,1,.1-.5v-.5c0-.1,0-.1.1-.1h.3l.5.2h.2c.1,0,.2,0,.2.1a6.4,6.4,0,0,1,1.9,1.3l1.4,1.7a23.6,23.6,0,0,1,2.2,3.8h0a14.5,14.5,0,0,1,.9,2.2,7,7,0,0,1,.5,2.5,6.2,6.2,0,0,1-.1,1.3l-.2.5-.3.5-.2.2h-.2l-.4-.3-.4-.4-.3-.2-.4-.4-.8-.9a22.1,22.1,0,0,1-2.8-4l-1-2.1a5.6,5.6,0,0,1-.4-1.2l-.2-.6v-1.1c-.1-.4,0-.7-.1-1.1v-.4h.1l.5.3.8.7.4.3c.1.1.1.2.2.2v.2a14.9,14.9,0,0,1,1.5,2,17.2,17.2,0,0,1,1.9,4.4,10.1,10.1,0,0,1,.3,2.5c0,.2-.1.5-.1.7v.2a.3.3,0,0,0-.1.2l-.2.6v.4h0l-.5-.3-.5-.3-.3-.2a15.8,15.8,0,0,1-3.2-3.7h0a17.9,17.9,0,0,1-2-3.9,7.9,7.9,0,0,1-.5-2.2,1.3,1.3,0,0,1-.1-.6v-.8l.3-.9v-.3h.2l.4.3a2.4,2.4,0,0,1,.8.6.8.8,0,0,1,.4.4,6,6,0,0,1,.8.8l1.2,1.9a20,20,0,0,1,1.7,4,9.3,9.3,0,0,1,.4,2.3v.8c0,.1,0,.1-.1.2v.9h-1.2a4.1,4.1,0,0,1-2.1-1,4.9,4.9,0,0,1-1.6-1.6,35.3,35.3,0,0,1-4-7.7l-.2-.5v-.2h0l.9-.4h.1a5.6,5.6,0,0,1,.5.8,9.9,9.9,0,0,1,1.1,1.7,40.5,40.5,0,0,1,2.3,3.4,16.3,16.3,0,0,1,1.7,3.8,4.1,4.1,0,0,1,.1,2.2,1.7,1.7,0,0,0-.2.5v.4h-1l-1-.4a9.6,9.6,0,0,1-3.1-2.9,25.4,25.4,0,0,1-2.3-3.4l-.9-1.9a3.6,3.6,0,0,1-.4-.9l-.2-.5v-.4h0l.8-.5h.1a26.8,26.8,0,0,1,2.8,3h0a21.1,21.1,0,0,1,2.1,3.1,14.2,14.2,0,0,1,.8,1.8,4.4,4.4,0,0,1,.2,2v.5a.4.4,0,0,0-.1.3l-.2.4-.2.4h-.3l-.8-.3-1.6-1.3a12.9,12.9,0,0,1-2.2-3,15.4,15.4,0,0,1-1.7-3.4v-.2h-.1c0-.1,0-.1-.1-.2l-.2-.8-.2-.5v-.3l-.2-.7c-.7-1.9.8-.1,1.5.5l.6.6.3.3.2.2.7.7,1.2,1.4a13.8,13.8,0,0,1,2,3.3h0a2.9,2.9,0,0,1,.2.9.7.7,0,0,1,.1.5v1.4l-.2.7c0,.2-.1.3-.1.5h-1.7l-.4-.3a.5.5,0,0,1-.4-.2,5.8,5.8,0,0,1-1.4-1.3,24,24,0,0,1-3.5-6.2l-.4-.8h0l.9-.6h.3l.3.4,1.2,1.3a18.9,18.9,0,0,1,1.9,3,13,13,0,0,1,.8,1.7,2.9,2.9,0,0,0,.2.9v1.1a2.1,2.1,0,0,1,0,.8v.5h-.2l-.8-.3-.3-.2-.3-.2A5.8,5.8,0,0,1,401,858h0a20.8,20.8,0,0,1-3.8-5.5,10.1,10.1,0,0,1-.7-1.5h0c1.7-1.1.4-.3.8-.6h.1v.2l.3.2.6.7a29.6,29.6,0,0,1,2.1,2.6,10.5,10.5,0,0,1,1.5,3,5.5,5.5,0,0,1,.1,1.8l-.2.8c0,.2,0,.3-.1.4h-.3l-.8-.2-.4-.2a8.2,8.2,0,0,1-2.7-2.1,17.9,17.9,0,0,1-2-2.8h0l-.6-1.2-.3-.6v-.5h0c-.2.1,1.6-1.1.8-.6h.1a9.4,9.4,0,0,1,1,1l.4.5.5.6,1.5,2.3.6,1.3.2.6v.5l.2.6v1.1H400l-1.2-.4-.6-.2h-.3l-.6-.5a9,9,0,0,1-2-1.9l-1.7-2.1-.8-1.1-.5-.5-.2-.2V853h-.1l.8-.6h0l2,2.3,1,1.2a2.5,2.5,0,0,1,.4.7l.3.3c0,.1,0,.2.1.2v.2l.2.4c0,.1.1.2.1.3l.2.7.2.6v.4h.1l-1.3-.6-.6-.3-.6-.4a16.7,16.7,0,0,1-2.3-2.3l-1.9-2.4v-.2h0l.8-.7h.1l.2.3.5.5,1.2,1.1a15.5,15.5,0,0,1,2.1,2.3h.1l.3.3.3.7h.1v.4a1.4,1.4,0,0,0,.2.6v.5c.1.2.2.5,0,.3l-1.1-.5h0a6.5,6.5,0,0,1-1.5-.9l-.8-.6L392,857a22.6,22.6,0,0,0-3.1-2.3l-.8-.5H388c1.1-1.7.4-.4.6-.8h.3l.4.3,1.6,1.1,3.3,2.3,1.6,1.2.7.7h.1l-.5.9h-.3l-.5-.2-1-.4-.9-.4a9.5,9.5,0,0,1-1.7-1,38.8,38.8,0,0,1-3.3-2.3l-1.5-1.2-.4-.3c-.5.6.5-.9.5-.8h.9l.4.3,1,.7h.1l.4.2Z" transform="translate(-319.1 -792)"/>
    <path class="b7302ad4-8299-4603-9e4d-7bc225b1ce91" d="M403.3,846.9h.1c.3-.1.8,0,.7.6a.1.1,0,0,0,.1.1h-.1c-.1,0-.2,0-.2-.1h-.2V847c0-.1-.1-.2,0-.2h.2l.5-.3.3-.2h.1l.4-.3.5-.3.4-.3h.3a.1.1,0,0,0,.1.1h.1c.1,0,0,0,0,.1s-.1-.3-.2-.5h.2l2.1-1.2A36.8,36.8,0,0,0,416,838l.8-.9.8-.9.3-.5h.1c-.2-.2,1.3,1.4.6.7h-.1l-.3.2-.9.6-.9.7-1,.7a12.9,12.9,0,0,1-1.7,1.6h0l-3.6,3.9-1.8,1.9-.4.5h-.2l-.8-.7h0v-.2l.8-1.2,2.8-4.4,1.4-2.2,1.3-2.3h0l1-2,.6-1c.1-.4.3-.7.4-1.1s1.2-2.8,1.7-4.2,1.1-2.9,1.7-4.3l.2-.6h.1l.9.3h0v.3l-.3,1.1a15.5,15.5,0,0,1-.7,2.3c-.5,1.5-1.1,2.9-1.6,4.3l-.4,1.1-.3,1c-.1.2-.1.4-.2.6v1.3h0l-.9-.3h.1a22.4,22.4,0,0,0,3.1-8.4h0a12.8,12.8,0,0,0-1.3-8.2l-.6-.9-.7-.7-.2-.2h-.1c-.5.8.8-1,.7-.8h.1l.5.4.9.8.7.9.3.4h.2l-.9.5h0v-.7c0-.2-.1-.3-.2-.5a1.7,1.7,0,0,0-.2-.5l-.2-.4h0l-.5-.8v-.2h-.1l.9-.6h0l.3.3.9,1.5,2,3,3.8,6.1,1.9,3.1a30.7,30.7,0,0,1,1.7,3.1l1.7,3.2.4.8.2.4v.2h.1c.2-.1-1.7,1-.9.6h0l-1.1-1.4h0c-1-1.4-2-2.8-2.9-4.3h0l-1.3-2.3a5,5,0,0,1-.5-1.3l-.3-.6v-.3c0-.1-.1-.2-.1-.4h0l-.5-1.9v-.6c0-.1-.1-.3,0-.2l.9.6.9.5.4.3.3.2a6,6,0,0,0,.8.8,15.8,15.8,0,0,1,2.4,3.9c1.2,2.7,2.1,5.5,3.2,8.1a9.3,9.3,0,0,0,.5,1l.2.5h.1l-.9.3h0v-.2l-.3-2.1v-.7a3.4,3.4,0,0,1,0-1v-1.6l.2.2,1.1,1.4a2.3,2.3,0,0,1,.5.7l.3.5a7.6,7.6,0,0,1,.4,1.1,5,5,0,0,1,.2,1.2,6.4,6.4,0,0,1-.4,2.4,12.3,12.3,0,0,1-2.4,3.8h0l-1.7,2.1-.6.9h.2l.5-.2,1.1-.7,1-.9.4-.4h-.2a5.9,5.9,0,0,0-2,1.5,7.1,7.1,0,0,0-1.3,2.2h.2a14.3,14.3,0,0,0,6.4-8.1,19.8,19.8,0,0,0,.7-10.5h0c-.1-.3-.1-.6-.2-.9v-.3h0a.4.4,0,0,1-.1-.3V829c-.1-.4-.4-1.5-.7-2.3s-.4-1.1-.3-1.1a2.4,2.4,0,0,1,.8.9l.5.8.6,1.4.2.4v.4c0,.1.1.1.1.2h0v.4c.1.3.1.5.2.8h0a21.6,21.6,0,0,1-.7,11,18.3,18.3,0,0,1-2.6,5,13.9,13.9,0,0,1-4.3,3.7H429l-.6.3-1.1.5H427v-.3l.2-.6a5.3,5.3,0,0,1,.3-1.2,12.8,12.8,0,0,1,1.5-2.5,7.6,7.6,0,0,1,2.3-1.7h.5l.6-.2,1.1-.2h1l-.8,1-.4.5-.4.5-.4.3-.2.3-1.1.9a3.6,3.6,0,0,1-1.2.8l-.7.3h-2.1l.5-1,.3-.5.2-.3.4-.6,1.7-2.1h0a15.6,15.6,0,0,0,2.3-3.6,6.3,6.3,0,0,0,.3-1.9,3.6,3.6,0,0,0-.2-1l-.3-.9-.4-.6v.4l.3,2.2v.3h0l-1,.3h-.1l-.2-.5a9.3,9.3,0,0,1-.5-1c-1.2-2.8-2-5.6-3.3-8.2a16.5,16.5,0,0,0-2.2-3.6,4.6,4.6,0,0,0-.7-.7h-.2v.2l.4,1.1.6,1.2a25.3,25.3,0,0,0,1.2,2.3h0l2.9,4.2h0l1,1.4h.1l-.9.5h-.1v-.2l-.2-.3-.4-.8-1.7-3.2a30.7,30.7,0,0,0-1.7-3.1l-1.9-3.1-3.8-6-1.9-3-1-1.5-.3-.4h0l.9-.6h.1v.2a5.6,5.6,0,0,1,.5.8h0l.3.5a.8.8,0,0,0,.2.5,1.4,1.4,0,0,0,.2.6v.9h0l-.9.4h-.1l-.4-.5-.7-.8-.7-.7-.4-.3h-.2c-.1.2,1.2-1.6.7-.8h0l.2.2.8.9.7,1a12.8,12.8,0,0,1,1.4,4.3,16.9,16.9,0,0,1,0,4.5h0a18.3,18.3,0,0,1-1.2,4.6,16.5,16.5,0,0,1-2.1,4.2v.2h-.1l-.9-.3h0v-1.4c.1-.2.1-.4.2-.6l.3-1.2.4-1.1c.5-1.4,1.1-2.8,1.7-4.3l.6-2.1.2-1.1v-.3h0c.5.1-1-.3,1,.2h-.1l-.2.6c-.5,1.4-1.1,2.8-1.6,4.3s-1.1,2.8-1.7,4.3-.3.7-.5,1l-.5,1.1-1.1,2h0l-1.3,2.3-1.4,2.3-2.9,4.4-.7,1.1-.2.3h0l-.8-.6h.1v-.2l.5-.4,1.8-1.9c1.2-1.3,2.3-2.7,3.6-3.9h0l1.8-1.6.9-.8,1-.7,1-.7.3-.2h.1c-.6-.7.9.9.7.8h0l-.4.4-.8,1-.8.9a39.7,39.7,0,0,1-7.6,5.9l-2.1,1.2h-.2c-.1-.5.2.9-.2-1,.3,0,.5.4.5.5s-.1.3-.1.4h-.4a1,1,0,0,1-.5.4l-.5.3-.3.2h-.2l-.2.2-.6.3-.3.2h-.7c-.1,0-.2-.2-.2-.2v-.3h0A.3.3,0,0,1,403.3,846.9Z" transform="translate(-319.1 -792)"/>
    <path class="b7302ad4-8299-4603-9e4d-7bc225b1ce91" d="M431,835.4a.1.1,0,0,1,.1-.1c.2-.1.6-.4.9.3h0l-.5,1.7c-1.2,3.5-3.2,6.5-4.8,9.6a25.6,25.6,0,0,0-1.1,2.4l-.6,1.2-.4,1.2v.2h0l.5-.2a6,6,0,0,0,2.1-1.4,26.3,26.3,0,0,0,3.5-3.9,11.2,11.2,0,0,1,1.8-2l1-1,.2-.2h.1l.5.9H434l-.5.3a5.8,5.8,0,0,0-1.8,1.7,1,1,0,0,0-.4.5l-.4.5-.3.6h.5a1.9,1.9,0,0,0,1-.3,5.8,5.8,0,0,0,1.8-1.7h0a21.1,21.1,0,0,0,3.1-6.4,13.6,13.6,0,0,0,.4-1.7,2.5,2.5,0,0,0,.1-.8v-1c-.1-1.2-.2-2.4-.4-3.5a20,20,0,0,0-.9-3.5,5.9,5.9,0,0,0-.4-.8,2.5,2.5,0,0,0-.4-.7l-.2-.4H435l-.4-.6-.5-.8-.5-.7a1.8,1.8,0,0,1-.5-.7c-1.3-1.3-.6-1.1.4-.4l.3.3.7.6.7.8.3.4.5.6v.2l.2.4a3,3,0,0,1,.4.8,12.2,12.2,0,0,1,.7,1.7,20,20,0,0,1,.9,3.5c.1,1.2.2,2.4.2,3.6v.9c0,.3-.1.6-.1.9s-.3,1.2-.5,1.8a21.4,21.4,0,0,1-3.2,6.4h0a5.8,5.8,0,0,1-2.1,2,3.3,3.3,0,0,1-1.5.4H430a.2.2,0,0,1-.2-.2l-.6-.3.3-.6.2-.4a2.1,2.1,0,0,1,.4-.6l.3-.6.5-.6a7.3,7.3,0,0,1,2-1.9l.7-.3h.3l.5.9h0l-.3.2-.9.9a16.3,16.3,0,0,0-1.7,2,33.3,33.3,0,0,1-3.6,4,7.5,7.5,0,0,1-2.4,1.5l-.7.3-1.3.2h-.3c-.1,0-.3.1-.2-.1l.2-.6.4-1.1.5-1.3.5-1.2c.4-.9.8-1.6,1.2-2.4,1.6-3.2,3.6-6.2,4.7-9.5Z" transform="translate(-319.1 -792)"/>
    <path class="b7302ad4-8299-4603-9e4d-7bc225b1ce91" d="M425.2,851.5h-.6a.8.8,0,0,1,0-.7h0l.3-.2c.1-.1.2-.1.3-.3l.3-.3h.2l.2-.2.3-.5.7-1.1a39.5,39.5,0,0,0,3.1-6.9v-.2H430l-.5.4-.8,1-1.5,2a27,27,0,0,0-2.4,4.4,10.9,10.9,0,0,0-.7,2.4v.3h0l.6-.9.6-1.1a3.7,3.7,0,0,0,.5-1.1l.5-1.2a55.2,55.2,0,0,0,1.9-10c.1-.8.1-1.7.2-2.5v-.2h0c0-.1-.3.4-.5.7l-.5,1.1-.6,2.4a27.4,27.4,0,0,0-.4,5v2.6h0c-2-.3-.5-.1-1-.2h0v-.5l.2-.6.3-1.2a43,43,0,0,0,1.3-10.1,27.4,27.4,0,0,0-.4-5,10,10,0,0,0-2.1-4.4h0l-.6-.6-.4-.2h-.3a2,2,0,0,0-.4.8,12,12,0,0,0-1.3,3.3,56.7,56.7,0,0,0-.9,7.2l-.3,3.7a3.1,3.1,0,0,0-.1,1v.2h0c-.4-.1,1,.2-1-.1v-.5l.4-1.8a59.7,59.7,0,0,0,1.1-7.2c0-.6.1-1.3.1-1.9v-1.4h0l-.3.6c-.9,2.3-1.5,4.7-2.5,7l-.5.8h0l-1-.3h0v-.7a11.5,11.5,0,0,0,.1-1.9c.1-1.2.2-2.4.4-3.7a58.5,58.5,0,0,0,.4-7.3h0v-1c0-.4-.1-.8-.1-1.1v-1.1h1v.9a31.5,31.5,0,0,1-.3,4.4v.3h-1l-.2-.6-.2-1.1a14.2,14.2,0,0,1-.5-2.2c-.1-.7-.3-1.4-.4-2.1v-1.1h1v1a16.2,16.2,0,0,1,.1,2.2v2h-1v-.2l-.7-4.3-1.1-5.3v-1h0l.2.2.4.3a18.5,18.5,0,0,1,1.4,1.4l.6.7.3.4.6,1.1h0a13.2,13.2,0,0,1,1.1,5.9,28.8,28.8,0,0,1-.7,5.9l-.6,2.9-.4,1.4c-.1.5-.3,1-.4,1.4a23.6,23.6,0,0,1-1.2,2.8l-.6,1.4-.7,1.3h0a27,27,0,0,1-5.2,6.5h0l-1.9,1.7h-.2c.2.1-1.2-1.6-.6-.8h0l.2-.2.5-.4.8-.9a35.7,35.7,0,0,0,3-3.8h0l.4-.8.3-.4.2-.3h-.1l-.2.3-.7.6h0a37.6,37.6,0,0,0-2.5,3.1l-1.4,1.6h-.1c.7.6-.9-.9-.7-.8h.1l.2-.2.4-.3.8-.7,1.5-1.4.7-.6.8-.8.3-.3h.1c-.2-.2,1.1,1.6.6.8h-.4l-.8.5-1.7,1.1c-2.2,1.6-4.3,3.4-6.4,5.1l-1.7,1.3a10.4,10.4,0,0,1-1.7,1.2,26.4,26.4,0,0,1-3.8,1.8l-2,.7-1.9.6h0l.8.2c2.6.4,5.4.3,8.1.5s2.8.2,4.1.3l4.3.3,3.5.2h3v.7h0v.2h-.8l-3.6.4-2.6.3h.3l1.7.2h3.3v1h-3.8c-2.4,0-4.7.2-7.1.1h-.4v-1h13.5l1.1-.2c.9-.3,1.2-.3,1.1-.2a1.7,1.7,0,0,1-1,.7,4.9,4.9,0,0,1-1.5.6H401.6v-1h.4l7.1-.2h3.8v1h-3.3l-1.8-.2-1.4-.2-1.6-.4-3.1-.7h2.7l4.4-.5h-1l-4-.3-4.1-.3a78.6,78.6,0,0,1-8.3-.5h-1.3l-1.9-.5-.5-.2h-.3a.1.1,0,0,1,.1-.1h.1l.9-.4,1.9-.7,2-.7,1.9-.7a24.8,24.8,0,0,0,3.7-1.7l1.6-1.1,1.6-1.3c2.2-1.7,4.2-3.5,6.5-5.1l1.7-1.2,1-.5h.3l.6.8h0l-.4.4-.7.7-.8.7-1.6,1.4-.7.7-.4.3-.2.2h-.1c.1.2-1.4-1.4-.7-.7h.1l1.2-1.6a41.5,41.5,0,0,1,2.7-3.2h0l.6-.7h.2l.2-.2.7-.5,1.2-.7.7-.3h.4v.2a20.8,20.8,0,0,1-1.3,2.6l-.2.5-.3.4-.5.7h0a29.8,29.8,0,0,1-3,4,7.6,7.6,0,0,1-.9.9l-.5.5-.2.2h0l-.7-.8h.2l1.8-1.6h0a30.7,30.7,0,0,0,5-6.4h0l.7-1.2.6-1.3,1.1-2.7a5.7,5.7,0,0,0,.4-1.4l.4-1.4.6-2.8a27.8,27.8,0,0,0,.7-5.7,12.9,12.9,0,0,0-1.1-5.5h0a4.1,4.1,0,0,0-.5-.9c-.1-.2-.1-.3-.3-.4v-.2h0l.2,1c.2.8.3,1.5.5,2.2l.7,4.4h0c.2,0-2,.1-1,.1h0v-1.9c0-.7-.1-1.4-.1-2.2v-.8h1l.2,1.1.3,2.2c.2.7.3,1.4.5,2.1l.2,1,.2.6h-1v-.3c.1-1.4.3-2.9.3-4.3v-1h1.1v1.1c0,.3.1.7.1,1.1v1.1h0a47.1,47.1,0,0,1-.4,7.5l-.3,3.6a10.9,10.9,0,0,0-.1,1.8v.7h0l-1-.3h.1l.4-.9c1-2.2,1.6-4.6,2.6-6.9l.2-.4v-.2c0-.2.1-.3.2-.5l.8-1.6.4-.8h0v.7l.3,1.8v.8h0v1.4a11.5,11.5,0,0,1-.1,1.9,45.5,45.5,0,0,1-1.1,7.4l-.4,1.8v.5l-1-.2h0v-.3a2.8,2.8,0,0,0,.1-.9c.2-1.2.2-2.4.3-3.6a64.2,64.2,0,0,1,1-7.5,11.7,11.7,0,0,1,1.4-3.5,4.1,4.1,0,0,1,.5-.9l.4-.6.2-.2h.2l.4.2.3.2h.2l.4.3.8.7h0a11.6,11.6,0,0,1,2.3,4.9,30.5,30.5,0,0,1,.5,5.2,40.7,40.7,0,0,1-1.4,10.4l-.3,1.2-.2.6v.4h-.1l-1-.2h0v-2.6a30.4,30.4,0,0,1,.4-5.2,25,25,0,0,1,.7-2.6,6.1,6.1,0,0,1,.5-1.2,13.7,13.7,0,0,1,1-1.4l.4-.4.4-.4.5-.4h.2v1.4a1.3,1.3,0,0,1-.1.6v.5a21.1,21.1,0,0,1-.2,2.6,39.2,39.2,0,0,1-2,10.2c-.1.5-.3.9-.4,1.3l-.6,1.2-.6,1.2-.4.5-.2.3h-.1l-.2.2-.8.8-.3.2h-.1l-.2-.6a.8.8,0,0,1-.2-.5c0-.2-.1-.4-.1-.6v-.8a10.3,10.3,0,0,1,.7-2.5,35,35,0,0,1,2.5-4.7l1.6-2.1.9-1,.5-.5h.1l.2-.2.5-.4.5-.2.4-.2.5-.3v1.5a2.5,2.5,0,0,1-.2.7v.4l-.9,2.5a29.2,29.2,0,0,1-2.3,4.7l-.7,1.1-.4.5-.2.2h-.2l-.4.4-.3.3Z" transform="translate(-319.1 -792)"/>
    <path class="b7302ad4-8299-4603-9e4d-7bc225b1ce91" d="M412.8,856.4c-.1,0-.1,0-.1-.1s-.1-.7.6-.8h0l1.1.7h.3l.4.2.8.4,1.7.7,3.6,1.4.5.2h.3c-.8,1.9-.2.5-.4,1h-.1l-.9-.3-1.7-.6h0l-2.9-.9-1.4-.5-.7-.3h-.5l.4-1h.2l2.8,1.1,2.8,1.2h0l3.2,1.4.4.2h0c-.9,1.9-.2.5-.4.9h-.4l-.8-.4-1.6-.7a46.2,46.2,0,0,0-6.6-2.1h0l-2.1-.4h-.6c-.1.2.6-1.9.3-1h.4l1,.5a28.6,28.6,0,0,0,4.1,1.5,3.8,3.8,0,0,0,1,.3l1.1.3,1,.2h.8l-.2,1h-.3l-4.3-1.2h0l-3.3-.9-1.7-.2h-.3c0,.1-.1.2-.2.3l-.4.4a4.3,4.3,0,0,1-1.8.6,6.1,6.1,0,0,1-1.9.1l-3.5-.2h0l-1.5-.2h-.5l.2-1h.2l.7.2a12.6,12.6,0,0,0,2.8.5,23.3,23.3,0,0,0,5.9-.2l.7-.2h1.6l2.2-.5c.9-.3,1.2-.3,1.1-.2l-.9.7a8.8,8.8,0,0,1-2.2.9h0l-.5.2h-1.2l-1.4.2a22.5,22.5,0,0,1-5.8.1,14,14,0,0,1-2.8-.6l-.7-.2h-.1c-.1.8.3-1.3.2-1.1h2.1a20.7,20.7,0,0,0,3.5.3h1.6a2.9,2.9,0,0,0,1.4-.5.2.2,0,0,0,.2-.2h.2v-.4c0-.1,0-.2.1-.2h1l1.8.3,3.4.9h0l4.3,1.2h.3a7.7,7.7,0,1,0-.2,1h-.8l-1.1-.2-1.2-.3a3.8,3.8,0,0,1-1-.3,26.1,26.1,0,0,1-4.2-1.6l-1.1-.5h-.4c-.3.9.4-1.2.3-1h.7l2.2.4h0a40.4,40.4,0,0,1,6.7,2.2l1.7.7.8.3h.3c-.2.4.5-.9-.4.9h-.1l-.4-.2-3.2-1.4h0l-2.7-1.1-2.8-1.2h-.2l.4-1h.1l.4.2.7.2,1.3.5,2.9.9h0l1.8.6.9.4h.1c-.2.4.4-.9-.4,1h-.8l-3.5-1.4-1.8-.7-.9-.4-.4-.2-.3-.2Z" transform="translate(-319.1 -792)"/>
    <path class="b7302ad4-8299-4603-9e4d-7bc225b1ce91" d="M405.9,851.5c0-.1,0-.1.1-.1h.7a4.3,4.3,0,0,1,.1.5h0c.3.2-.4-.3-.3-.3h.9l.9-.5a7.5,7.5,0,0,0,1.7-1.4,33.9,33.9,0,0,0,3.1-3.4l1.5-1.8.8-.9.4-.5.2-.2h.1l.7.8h-.1l-1.8,1.6-1.8,1.5h0l-2.1,1.7-2.3,1.5-1.1.8-1.1.7-2.4,1.4h0l-.6-.9h.2l.3-.3.5-.4,1.1-.8,2.2-1.6a18.5,18.5,0,0,0,3.8-3.6h0l.7-.9c.1-.2.1-.4.2-.5h0l-.4.2h-.6a17.3,17.3,0,0,0-4.1,2.5l-3.8,3.2-2,1.6-.5.4h-.2c-.3-.3.7.8-.7-.7h.1l.2-.2.8-1,3.5-3.6a15.8,15.8,0,0,0,2.9-3.9h.1l.7.7h-.1l-.3.2-.5.3-1,.7-.9.8-1,.8-1.8,1.7-.9.9-.5.4-.2.2h-.2l-.5-.9h0l.8-.2.8-.3.7-.4h.3l.3-.2.5-.3h.1l1-.6,1.1-.7c1.6-1.1,1.2-.4.4.4a4.9,4.9,0,0,1-1,.9l-.9.8h0l-.3.2-.4.3-.3.2h-.2l-.4.2-.7.3-1.5.5h0c0,.2-.9-1.6-.5-.8h.1v-.2l.2-.2.5-.4.9-.9,1.8-1.7,1-.8,1-.8,1-.8.5-.3.3-.2h.2l.7.7h-.1a15.8,15.8,0,0,1-3.1,4.1c-1.1,1.3-2.3,2.4-3.4,3.6l-.8.9-.2.3H401c-1.4-1.5-.4-.4-.7-.7h.2l.5-.3,1.9-1.6,3.8-3.3a17.9,17.9,0,0,1,4.5-2.5l.6-.2h.8l1.2-.2h.4v.2l-.2.5-.2.6v.5a2.1,2.1,0,0,1-.4.6l-.7,1.1h0a23.8,23.8,0,0,1-4,3.8l-2.2,1.6-1.1.8-.5.4-.3.2h-.2c.5.8-.7-1-.5-.8h0l2.3-1.3,1.2-.7,1.1-.7,2.1-1.6,2.2-1.6h0l1.7-1.5,1.8-1.5h.1c-.6-.7.9.9.7.7h-.1a.2.2,0,0,1-.2.2l-.3.5-.8.8-1.5,1.9c-1,1.2-2,2.4-3.1,3.5a13.9,13.9,0,0,1-1.9,1.5l-1.2.6h-1.5c0,.1-.6-.5-.3-.2h-.1c0-.1-.1-.1-.1-.2A1.9,1.9,0,0,1,405.9,851.5Z" transform="translate(-319.1 -792)"/>
    <path class="b7302ad4-8299-4603-9e4d-7bc225b1ce91" d="M410.4,847.5h0c.2,0,.3-.1.5,0s.3.2.3.6h0a4.6,4.6,0,0,1-.7.7l-.4.3h-.5l-.7.3-1.5.5h0v.3a5.9,5.9,0,0,0,1.4,2.3,1.5,1.5,0,0,0,1,.6.5.5,0,0,0,.5,0c.1,0,.2,0,.2-.1a.1.1,0,0,0,.1-.1,1.8,1.8,0,0,0,.3-1.1,6.8,6.8,0,0,0-.2-1.4,14.3,14.3,0,0,0-.7-2.8l-.5-1.4v-.6h0l.9-.4h.1l.4.7c.5.9.8,1.9,1.2,2.8a7.8,7.8,0,0,0,.5,1.4h.1a.3.3,0,0,1,.1-.2l.3-.4a6.1,6.1,0,0,1,1.2-1.6l.9-.6a2.5,2.5,0,0,1,1.2-.1,3.8,3.8,0,0,1,1.8.9,34.4,34.4,0,0,1,2.7,2.7l1.2,1.3.6.6.3.4h.3l-.9.6h0a68.8,68.8,0,0,0-3.6-6.4l-.4-.8v-.2h0l.8-.6h.2l.3.3.6.7.6.8a17.1,17.1,0,0,1,1.1,1.4l1,1.6h0c1.1,1.6,2.1,3.3,3.1,5l.4.6.2.3v.2h0c-.3.3.8-.6-.8.7h0l-1.1-1.1-2-2.1h0l-1.5-1.7-.7-1-.6-1-.7-.9-.6-1.2-.3-.5-.2-.5-.4-1-.9-2h0l.2.2.5.4.8.7.8.7.8.7.6.6.5.4.7.9a33.7,33.7,0,0,1,2.9,3.7h0l1.7,2.4.2.3h.1c.6-.6-.9.9-.8.7h-.2l-.5-.6-1.1-1-1.9-2.4a5.7,5.7,0,0,1-.8-1.3l-.2-.3v-.2h0a2,2,0,0,1-.4-.8,3.9,3.9,0,0,1-.3-1,3.1,3.1,0,0,1,.2-1.9,3.1,3.1,0,0,1,.7-.8c.2,0,.3,0,.3.1s-.4.4-.4.9a1.2,1.2,0,0,0-.1.5,5.8,5.8,0,0,0,.2,1,2.5,2.5,0,0,0,.4.9l.3.7a18.5,18.5,0,0,0,3.2,4.3l.9.9.2.2h.3l-.8.7h0l-.4-.6-1.5-2.2h0c-.9-1.3-1.9-2.5-2.8-3.6l-.8-.9c-.1-.1-.3-.2-.4-.4h-.2l.5.8.6,1,.7.9.6.9,1.5,1.8h0l2,2.1,1,1.1h.1l-.8.7h-.2l-.2-.3-.4-.7-3.1-5h0a13,13,0,0,0-1-1.5l-1-1.4-.6-.7-.6-.7-.3-.3h-.1c1.6-1.1.4-.3.8-.5h0v.2l.4.7a45.2,45.2,0,0,1,3.6,6.5h.1c-.4.2.8-.6-.9.5h0l-.2-.2-.3-.3-.7-.7-1.2-1.4a19.7,19.7,0,0,0-2.5-2.5,4.6,4.6,0,0,0-1.4-.7,1.6,1.6,0,0,0-1.2.5,4.7,4.7,0,0,0-1.1,1.3l-.2.4a.3.3,0,0,1-.1.2v.2l-.8,1.6h0v.2h0l-.2-.4-.3-.6-.3-.7-.2-.5a12.1,12.1,0,0,1-.5-1.4,16.9,16.9,0,0,0-1.1-2.7l-.4-.6h0c-.2.1,1.7-.8.9-.5h.1v.4l.5,1.4a24.5,24.5,0,0,1,.8,2.9,8.6,8.6,0,0,1,.1,1.6,2.3,2.3,0,0,1-.5,1.7l-.3.4h-1.5a3.8,3.8,0,0,1-1.5-.9,7.3,7.3,0,0,1-1.7-2.8v-1.5h.2l.7-.2,1.4-.5.6-.2h.3a.1.1,0,0,0,.1-.1l.3-.2Z" transform="translate(-319.1 -792)"/>
    <path class="b7302ad4-8299-4603-9e4d-7bc225b1ce91" d="M417.1,845.7h0c.2-.1.6-.5,1,.1h0a4.1,4.1,0,0,1-.5,1.8h-.1l-.2.3c-.1.1-.2.3-.3.3l-.2.2h0l-.8-.4h0v-.7a1.7,1.7,0,0,1,.1-.7v-.7a16.5,16.5,0,0,1,2.1-4.9c.8-1.5,1.7-3,2.4-4.6a7.6,7.6,0,0,0,.4-1.1,5.3,5.3,0,0,0,.3-1.2v-.8h0c.1,0,.1,0,0,.1s-.2.1-.2.2l-.4.5-.3.5a.9.9,0,0,0-.3.5,16,16,0,0,0-1,2.3c-.3.9-.5,1.7-.7,2.5l-.3,1.3v.8h0l-1-.3h0l.2-.3c1.3-3.2,2.7-6.4,3.8-9.7h0a57.2,57.2,0,0,0,1.7-5.9l.2-.7V825h0l.9.4h0l-.2.3a5,5,0,0,0-.4,1.3,6.8,6.8,0,0,0,.4,2.8,5.8,5.8,0,0,0,1.3,2.6l.4.5.3.2h.1a7,7,0,0,0-.3-2.9,5.8,5.8,0,0,0-.5-1.4v-.2h0l1-.2h0v1.1h0c0,1.9.2,3.7.2,5.6v6.6h-.1v-.4l-1-2.6-1.3-3.6c-.3-.9-.5-1.8-.8-2.7l-.9-2.7v-.3h0l.9-.5h.2l.4.6.5.6.4.6h0a33.9,33.9,0,0,1,3.1,6.7c.4,1.2.8,2.4,1.1,3.6s.3,1.2.4,1.8.1.6.1.9a4.3,4.3,0,0,0,.1.5v.6a6.2,6.2,0,0,1-.7,1.9l-.9,1.6-.3.4h.3l2.9-2,1.5-1.1,1.2-1.2h0a9.1,9.1,0,0,0,1.4-5.1,16.9,16.9,0,0,0-.6-5.5,19.3,19.3,0,0,0-2-5.2,13.8,13.8,0,0,0-1.4-2.4c-.2-.1-.3-.3-.5-.5l-.2-.2v-.2l.8-.5h.1l.5,1.3c1.6,3.4,3.8,6.6,5,10.3l.5,1.4h0c.8-.4-1.2.4-1,.3h-.1l-.2-.3-.3-.7c-.4-.9-.8-1.8-1.1-2.7a20,20,0,0,0-1-2.6,13.4,13.4,0,0,0-.6-1.2l-.2-.3h-.1l1-.3v.2c0,.2.1.4.1.7a16,16,0,0,0,1.4,5.3c0,.2.2.4.3.6s.1.2.1.3h.1a.1.1,0,0,1,.1.1h0v-.2l.2-.5c.1-.2.1-.4.2-.6v-.7a1.3,1.3,0,0,0,.1-.6,12,12,0,0,0-1.8-5.1l-.3-.6-.5-.8-1.5-2.4-.2-.3h.1l.5.2.6.2h.1l1.2.6h.3l.5.4h.2l.2.2.3.4.8.9c.6.7.7,1,.6,1a4.1,4.1,0,0,1-1.1-.6c.1,0-.2-.2-.5-.5l-.5-.4-.3-.2-.2-.2h0c-.5-.7,1.1,1.7,1.7,3.3a8.4,8.4,0,0,1,.8,2.7,6.3,6.3,0,0,1-.4,3v.5h-.1l-.6,1a.1.1,0,0,1-.1.1h-.1l-.3-.2-.5-.4-.2-.2c0-.1,0-.1-.1-.2l-.2-.3a15.3,15.3,0,0,1-1.1-2.7l-.6-2.7c-.1-.4-.1-.9-.2-1.4v-.5l.9-.3h.1l.3.6c.9,1.7,1.4,3.5,2.1,5.2a6.1,6.1,0,0,1,.5,1.2l.3.6.2.3h.1l-.9.4h0a26.7,26.7,0,0,0-.9-2.6c-1.3-3.3-3.4-6.3-4.8-9.8l-.3-.6h0c.4-.3-.9.5.8-.6h.2l.3.3.9,1.1a20.1,20.1,0,0,1,1.4,2.5,24.7,24.7,0,0,1,1.8,5.2,21.4,21.4,0,0,1,.6,5.6,11.1,11.1,0,0,1-1.7,5.5h0a8.6,8.6,0,0,1-1.3,1.4l-1.5,1.1a33.7,33.7,0,0,1-3.1,2.1l-.6.3-.7.3-.8.3-.4.2h-.1v-.2l.3-.8.3-.7.2-.4c0-.1,0-.2.1-.2h0l.3-.5a8.1,8.1,0,0,0,1.4-3V844a2.8,2.8,0,0,1-.1-.9c-.1-.6-.3-1.2-.4-1.8s-.7-2.3-1.1-3.4a39.3,39.3,0,0,0-3-6.6h0l-.4-.5-.4-.6-.4-.5h-.2l.9-.5h0v.3l.9,2.7c.3.9.5,1.8.8,2.7l.7,1.7h0v-1.3c0-1.8-.1-3.7-.1-5.6h0v-1.1h0l1-.2h.1v.2a8.8,8.8,0,0,1,.5,1.5,11.2,11.2,0,0,1,.4,3.2v1.5h-.4l-.6-.3-.4-.2V834a.5.5,0,0,1-.4-.2l-.6-.7a7.1,7.1,0,0,1-1.4-2.9,8.5,8.5,0,0,1-.4-3.2,4.8,4.8,0,0,1,.5-1.7l.2-.4h.1l.9.4h0v.2l-.2.7a52.5,52.5,0,0,1-1.7,6h0c-1.2,3.3-2.5,6.6-3.9,9.8v.3h0l-1-.3h0V841l.3-1.3a25,25,0,0,1,.7-2.6,26,26,0,0,1,1-2.5l.4-.6a2.1,2.1,0,0,1,.4-.6l.4-.5.3-.3.4-.3,1.1-.6.2-.2c.1,0,.1,0,.1.1h0v2.6a7.4,7.4,0,0,1-.4,1.4,6.1,6.1,0,0,1-.5,1.2,51.6,51.6,0,0,1-2.4,4.7,19.6,19.6,0,0,0-2,4.7v.6c0,.2-.1.4-.1.6v.6h0c.2.1-1.5-.8-.8-.5h.3l.2-.2h0A5.7,5.7,0,0,0,417.1,845.7Z" transform="translate(-319.1 -792)"/>
    <path class="b7302ad4-8299-4603-9e4d-7bc225b1ce91" d="M414.8,813.2h0a.4.4,0,0,1,.1-.3.2.2,0,0,1,.2-.2h.7c0,.2.2.4.4.6l.6.6,2,1.8.6.4.2.3h.2l-.6.9h-.1a5.7,5.7,0,0,1-1.3-.8h0a29.2,29.2,0,0,1-2.3-2.9h-.1c.3,0-.7.2.7-.1h.2c-.1.1,0,.2,0,.4h0l-.8-.4h.9a6.2,6.2,0,0,1,1.9-.2h0l1.3.2a14.2,14.2,0,0,1,3.5,1.1,24.9,24.9,0,0,1,3.3,1.6,20.5,20.5,0,0,1,3.1,2,31.1,31.1,0,0,1,2.8,2.3,16.8,16.8,0,0,1,2.4,2.9,14.4,14.4,0,0,1,1.6,3.3l.3.9.2.9.2.6v.7a18.4,18.4,0,0,1,.3,2.7c0,1.9-.3,1.2-.6.1a8.4,8.4,0,0,1-.3-1.3l-.3-1a1,1,0,0,0-.1-.4v-.9c-.1-.2-.1-.5-.2-.8a2.4,2.4,0,0,1-.2-.8l-.3-.8a10.8,10.8,0,0,0-1.6-3,11.3,11.3,0,0,0-2.3-2.6,27.5,27.5,0,0,0-2.6-2.2l-3-1.8a21.3,21.3,0,0,0-6.3-2.5h0l-1.1-.2a4.7,4.7,0,0,0-1.7.2H416c-1.5-.7-.4-.2-.7-.4h-.1v-.5c0-.2,0-.3.1-.4h.1c1.6-.1.5,0,.8,0h.1a32,32,0,0,0,2.2,2.7h0l1,.7h.1c-1.1,1.7-.3.5-.6.8h-.1l-.2-.2-.5-.5a16.8,16.8,0,0,1-2.1-1.8l-.7-.6Z" transform="translate(-319.1 -792)"/>
    <path class="b7302ad4-8299-4603-9e4d-7bc225b1ce91" d="M433.7,823.7c-.1,0-.1,0-.1-.1s-.1-.3-.1-.4.1-.4.5-.5h.1a6.1,6.1,0,0,1,1.5,1.2,12.7,12.7,0,0,1,1.3,2.2l.9,2.4c.1.3.1.6.2,1l.2.9c0,.5.1,1.2.1,1.8s-.2,1.2-.3,1.1-.2-.5-.3-1.1-.1-.6-.3-1.3l-.4-1.3a2.4,2.4,0,0,1-.2-.8c-.3-.8-.5-1.5-.8-2.2l-1.2-2A2.3,2.3,0,0,0,433.7,823.7Z" transform="translate(-319.1 -792)"/>
    <path class="b7302ad4-8299-4603-9e4d-7bc225b1ce91" d="M418.5,817.6h.1a.5.5,0,0,1,.5,0c.2.1.2.3.3.6h0a3,3,0,0,0-.2,1.4,20.7,20.7,0,0,0,.8,4.2l.2.8h0v-.2a7.4,7.4,0,0,0,0-2.1v-1.6h0l1-.2h0v.3c0,.7.1,1.5.1,2.2v2.3h0a19.7,19.7,0,0,1-.3,2.4l-.6,2.5c-.3.8-.5,1.6-.8,2.3l-.2.8-.3.5a.8.8,0,0,1-.2.5l-.9,1.8-.2.5h-.1v-5c.1-.4.1-.8.2-1.2s.8-3.3,1.2-4.9l.7-2.3.4-1.2h0c2,.3.5.1,1,.2h0v.5a1.3,1.3,0,0,0-.1.6,38.6,38.6,0,0,1-1,4.9,21.7,21.7,0,0,1-.7,2.4l-.3.9-.2.7-.5.8a4.9,4.9,0,0,1-1,1.5c-.3.4-.6.6-.8.6s-.3,0-.3,0a6.4,6.4,0,0,0,.6-1c0,.1.3-.4.5-1a8.2,8.2,0,0,0,.5-1.4h0l.3-.7v-.3a3.6,3.6,0,0,1,.4-1.1l.6-2.3a25.7,25.7,0,0,0,.8-4.7v-.4h0l1,.2h0l-.2.6-.3,1.2-.7,2.3a38.4,38.4,0,0,0-1.1,4.6c-.1.4-.1.8-.2,1.2v.4l.2-.6.2-.5.2-.6.3-1.1a37.3,37.3,0,0,0,.9-4.6h0V823a14.9,14.9,0,0,0-.2-2.1v-.3h1.1v4.4a4.3,4.3,0,0,0-.1.5l-.3.9-.3.9v.2h0l-.2-.4-.4-.8a3,3,0,0,1-.4-1l-.2-.5V824a16.3,16.3,0,0,1-.8-4.4,1.7,1.7,0,0,1,0-1A2.2,2.2,0,0,1,418.5,817.6Z" transform="translate(-319.1 -792)"/>
    <path class="b7302ad4-8299-4603-9e4d-7bc225b1ce91" d="M417.3,816.7h.1c.1-.3.4-.7.9-.2a.1.1,0,0,1,.1.1c0,.3.1.6.1.9v.9a43.3,43.3,0,0,1-.8,5l-.6,2.3-.4,2.5h0c-.3,1-.6,2-.8,3l-.3.8-.2.6-.3.7-.4.8-.9,1.6c-1,1.6-.9.8-.5-.3a9.3,9.3,0,0,1,.4-1.3,1.6,1.6,0,0,0,.3-.9l.2-.4.2-.7.3-.6c.1-.2.1-.5.2-.7s.6-1.9.8-2.8h0l.4-2.4c.2-.9.4-1.7.5-2.5a20.1,20.1,0,0,0,.8-4.8v-.8A2.5,2.5,0,0,0,417.3,816.7Z" transform="translate(-319.1 -792)"/>
    <path class="b7302ad4-8299-4603-9e4d-7bc225b1ce91" d="M422.2,820.3h0c-.1-.3,0-.8.7-.6h.1l1.1,1.4a89.5,89.5,0,0,1,6.2,8.6,26.5,26.5,0,0,1,2.3,4.8,9.3,9.3,0,0,1,.4,1.3l.3,1.4.2,1.1v.9a5.2,5.2,0,0,1-.2,1.8c-.3,1.9-.5,1.1-.6,0a13.1,13.1,0,0,0-.3-2.7V837c-.1-.4-.1-.9-.2-1.3l-.4-1.2a23.8,23.8,0,0,0-2.3-4.5,68.9,68.9,0,0,0-6.1-8.4Z" transform="translate(-319.1 -792)"/>
    <path class="b7302ad4-8299-4603-9e4d-7bc225b1ce91" d="M418.5,832.6h0c.3-.1.8-.1.8.6h-.1a14.7,14.7,0,0,0-1,1.3l-1,1.6c-.3.5-.7,1-1,1.6l-.6.7-.2.4-.2.2h0l-.9-.5h.1c.2-.6.5-1.2.7-1.7h0l1.6-3.1.3-.7.2-.4h.1l.7.6h0v.2c-.3.1-.4.4-.6.6l-.2.3c-.1.1-.1.3-.2.4l-.3.5h0c-.1.3-.3.7-.4,1.1s-.7,1-.5-.2,0-.5.2-1.2h0a.8.8,0,0,1,.2-.5,1.4,1.4,0,0,1,.2-.6.8.8,0,0,1,.2-.4h0l.4-.4.2-.2.2-.2h.1l.8.6h0v.2l-.2.3-.4.8-1.4,2.9h0c-.3.6-.5,1.2-.8,1.7h0l-.9-.5h0v-.2l.3-.4.5-.7a14,14,0,0,0,1-1.6l1.1-1.6A13.4,13.4,0,0,1,418.5,832.6Z" transform="translate(-319.1 -792)"/>
    <path class="b7302ad4-8299-4603-9e4d-7bc225b1ce91" d="M398,852.4h.1c.1,0,.2.2.3.3s.1.4-.2.6h0a5.9,5.9,0,0,1-1.9-.1h-1.5l-.4-1h0l.6-.2h0l6-2.5,1.5-.7.4-.2h.2l.5,1h-.2l-.7.3-3,1.4h0l-2.2,1.1-.3.2h-.3c-.2-.4.6.8-.6-.9h.1l.5-.4,1-.8a16.4,16.4,0,0,1,2.2-1.4l.7-.4h.2l.8-.4,1.7-.7c1.7-.7,1.2-.1.2.5l-1.1.8-1.2.7h-.1l-.7.4-2.1,1.3a7.3,7.3,0,0,0-.9.8l-.5.4h0l-.6-.8h.5l2.3-1.1h0l2.9-1.4.7-.4h.2l.4.9h-.2l-.4.2-1.5.6c-1.9.9-4,1.7-6,2.5h0l-.6.3h0c-.8-1.9-.3-.5-.4-1H398Z" transform="translate(-319.1 -792)"/>
    <path class="b7302ad4-8299-4603-9e4d-7bc225b1ce91" d="M417.9,818.5h0c0-.3.2-.7.9-.4h0l.7,1.6c.4.9.7,1.8,1,2.7l.2.6v.4h.1l-1,.2h0v-.7c0-.2-.1-.4-.1-.6h0c-.3-1.7-.9-3.3-1.3-4.9l-.2-.7h0l.9-.3h.1l.2.3a6.4,6.4,0,0,0,.2.7,1.4,1.4,0,0,0,.2.6l.3,1.2v.2h0c.9-.3-1.1.5-.9.4h-.1v-.3l-.3-.6h0l-.9-2a10.4,10.4,0,0,0-.4-1l-.3-.5c0-.1-.1-.1-.1-.2l-.4-.6a4.8,4.8,0,0,1-.4-.8,1.8,1.8,0,0,1-.5-.7l-.2-.2h0l.4-.6h.1c.2.2.3.3.3.5s.2.4.2.6a1,1,0,0,0,.1.3c0,.2,0,.3-.1.3l-.3-.3c-.1-.2-.2-.5-.4-.6s0-.1-.2-.2h0l.4-.6h0c.1.1.2.1.2.2l.4.4a2.7,2.7,0,0,1,.7.8c.1.1.1.2.2.2h.1l.3.6h0c0,.1.1.1.1.2l.3.5c.2.3.3.7.5,1l.9,2.1h0l.2.5.2.3h0l-1,.4h0v-.2l-.3-1.2c-.1-.2-.1-.4-.2-.6s-.1-.4-.2-.6v-.4h0l1-.3h0l.2.6c.4,1.6,1,3.2,1.3,4.9h0a2.2,2.2,0,0,1,.1.8v.7h.1l-1,.3h-.1l-.2-.4-.2-.6-.9-2.7Z" transform="translate(-319.1 -792)"/>
  </g>
</svg>
