<svg id="a05154ae-c400-433f-b171-eae2376cf814" data-name="Objects" xmlns="http://www.w3.org/2000/svg" viewBox="0 0 52.2 45.7">
  <defs>
    <style>
      .a4bd758e-ac33-4082-8cd6-fb922ecfbd8e {
        fill: #252525;
      }
    </style>
  </defs>
  <g>
    <path class="a4bd758e-ac33-4082-8cd6-fb922ecfbd8e" d="M442,422.1c.1.1.1.1.1.2s.6,2.1-1.4,2.4h-.3l-4.1-2.8-2.5-1.9c-.8-.7-1.7-1.3-2.4-2l-4.7-4-4.5-4.3c-1.4-1.5-2.8-3.1-4.1-4.8a24.2,24.2,0,0,1-2.9-5.8,18.1,18.1,0,0,1-.9-3.1l-.2-1.7v-1.7a9.7,9.7,0,0,1,.6-3.4,11.4,11.4,0,0,1,1.6-3.1,14.7,14.7,0,0,1,5.1-4.5l.7-.3.8-.3,1.7-.5.9-.2h2.5a14.7,14.7,0,0,1,6.5,2.1,17.9,17.9,0,0,1,4.7,4.8,10.9,10.9,0,0,0,.8,1.5l.2.5h0v-.3a.8.8,0,0,0,.2-.4,2.5,2.5,0,0,0,.4-.7,16.2,16.2,0,0,1,4.4-5,14.4,14.4,0,0,1,6.1-2.9,11.4,11.4,0,0,1,6.8.7,10.8,10.8,0,0,1,3.4,2.1l1.4,1.4.6.7.6.8a12.4,12.4,0,0,1,2,7,17.5,17.5,0,0,1-1.6,6.9,41.9,41.9,0,0,1-3.2,5.9c-1.3,1.9-2.6,3.6-4,5.3s-2.9,3.4-4.4,5l-1.2,1.3-1.3,1.4-2,1.8c-1.2,1-2.6,2.3-3.9,3.3s-2.7,2.1-2.8,1.7a8.6,8.6,0,0,1,1.7-2.9c-.1.1,1.1-1.5,2.4-3l2.7-3.2,1.2-1.3.3-.3.8-.9,1-1.1c1.4-1.5,2.7-3,4-4.6a43.2,43.2,0,0,0,6.3-10.2,16.8,16.8,0,0,0,1.1-5.4,9,9,0,0,0-1.6-5l-.4-.7-.5-.6-1.2-1.1a9.6,9.6,0,0,0-2.5-1.6,9.2,9.2,0,0,0-5.2-.5A12.6,12.6,0,0,0,447,385a13.2,13.2,0,0,0-3.6,4.2l-.3.6-.2.3-.2.4a5.3,5.3,0,0,0-.5,1.5l-.3.8c-.1.3-.1.5-.2.9v.4h-2.9l-.3-.9-.2-.8-.6-1.6c-.2-.6-.3-.6-.4-.9l-.6-1.2a12.9,12.9,0,0,0-3.8-3.9,10.9,10.9,0,0,0-5-1.6,11.8,11.8,0,0,0-2.7.2,5.3,5.3,0,0,0-1.2.3l-.7.3-.6.3a11.2,11.2,0,0,0-4,3.5,9,9,0,0,0-1.2,2.4,10.1,10.1,0,0,0-.5,2.5,1.3,1.3,0,0,0,.1.6v.7l.2,1.4a26.8,26.8,0,0,0,.7,2.7,24.9,24.9,0,0,0,2.7,5.1,40.2,40.2,0,0,0,3.7,4.5l4.4,4.1,4.6,3.9,2.3,2,2.4,1.8C439.3,420.4,440.6,421.3,442,422.1Z" transform="translate(-414 -379.6)"/>
    <path class="a4bd758e-ac33-4082-8cd6-fb922ecfbd8e" d="M430.9,416.9h-.1a3.3,3.3,0,0,1,1.3-2.5h.1l1.6.8,1.6.8,1.8.8,1.8.8,1.6.6,1.6.6,2.5,1.8c1.7,1.4.7,1.7-.6,1.5a6.3,6.3,0,0,1-1.5-.2l-1.6-.4-1.6-.6-1.6-.7-1.9-.7-1.8-.8-1.6-.8Z" transform="translate(-414 -379.6)"/>
    <path class="a4bd758e-ac33-4082-8cd6-fb922ecfbd8e" d="M426.5,411.3h-.2a1.7,1.7,0,0,1-.2-1.4c.1-.5.6-.9,1.5-1.1h.2a28.7,28.7,0,0,0,4.4,1.7l2,.7,2,.7,2.6,1,2.4,1.2,4.4,2.4c4.7,2.5,2.6,2.4-.7,1.5l-3.7-1.2-2.6-.9-.9-.3h-.4l-2.1-.8-1.9-.7-2-.7A21.8,21.8,0,0,1,426.5,411.3Z" transform="translate(-414 -379.6)"/>
    <path class="a4bd758e-ac33-4082-8cd6-fb922ecfbd8e" d="M419.1,403.2l-.2-.2a1.6,1.6,0,0,1,.9-2.6h.3l4.6,1.7c2.6.9,5.2,2,7.7,3l3.9,1.6,3.8,1.6,2.5,1.1.6.4,1.7.9,4.3,2.7c4.6,2.8,2.4,2.5-.8,1.4l-3.6-1.4a17.2,17.2,0,0,0-2.6-1L441,412l-2.1-1-3.8-1.6-3.8-1.6-7.6-2.9Z" transform="translate(-414 -379.6)"/>
    <path class="a4bd758e-ac33-4082-8cd6-fb922ecfbd8e" d="M416,395.3c0-.1-.1-.1-.1-.2a2.2,2.2,0,0,1,0-1.4,1.7,1.7,0,0,1,1.7-.8h.2l1.9,1.4,2.1,1.2a109.6,109.6,0,0,0,10.3,5.1l10.6,5.3,2.4,1.2,2.2,1.4,4.3,2.5c2.4,1.3,3.1,1.9,2.7,2a7.1,7.1,0,0,1-3.4-.5,27.2,27.2,0,0,1-3.7-1.3l-3.8-1.6-2.1-1.1c-3.5-1.8-6.9-3.6-10.4-5.2s-7.1-3.2-10.6-5.2a16.4,16.4,0,0,1-2.2-1.4Z" transform="translate(-414 -379.6)"/>
    <path class="a4bd758e-ac33-4082-8cd6-fb922ecfbd8e" d="M416.8,389.6c-.1,0-.1,0-.1-.2l-.3-.7a1.4,1.4,0,0,1,.2-.7,1.8,1.8,0,0,1,.7-.5l1-.3h.2l2,1.2,2.1,1.1,6.1,2.8,6.1,3,11.9,6.4,2.5,1.2,2.2,1.5,4.2,2.7c4.5,3,2.3,2.6-.8,1.4l-3.6-1.4-2.6-1.2-1.1-.5-2.1-1.1c-4-2.1-8-4.3-12-6.3l-5.9-3.1-6.2-2.8-2.2-1.1A14.2,14.2,0,0,1,416.8,389.6Z" transform="translate(-414 -379.6)"/>
    <path class="a4bd758e-ac33-4082-8cd6-fb922ecfbd8e" d="M422.8,385.9c-.1,0-.1-.1-.1-.2a1.7,1.7,0,0,1,.1-1.4,2.2,2.2,0,0,1,1.8-.6h.2a16.7,16.7,0,0,0,3.8,2.5c1.5.9,3.2,1.6,4.8,2.4a14.2,14.2,0,0,1,2.5,1.2l1.3.7,1.2.7c3.1,1.9,6.1,4,9.1,6l2.3,1.5,2.1,1.6c1.2.9,2.8,1.9,4,2.9,4.5,2.8,2.4,2.6-.8,1.4l-3.6-1.6-2.5-1.4-1.1-.6-2-1.3c-3.1-2.1-6-4.1-9.1-6l-1.1-.7-1.1-.6-2.4-1.2-5-2.3A20.2,20.2,0,0,1,422.8,385.9Z" transform="translate(-414 -379.6)"/>
    <path class="a4bd758e-ac33-4082-8cd6-fb922ecfbd8e" d="M442,391.5v-.2a1.4,1.4,0,0,1,0-1.4,2.1,2.1,0,0,1,1.7-.8h.2c1.2.9,2.6,1.6,4,2.5l.8.5.8.5,1.5,1,2.3,1.5,2.1,1.7,3.9,3.2c4.2,3.3,2.1,2.8-1,1.3l-3.4-1.9-3.6-2.1-1.9-1.3-1.5-1-.7-.4-.8-.5A33.9,33.9,0,0,1,442,391.5Z" transform="translate(-414 -379.6)"/>
    <path class="a4bd758e-ac33-4082-8cd6-fb922ecfbd8e" d="M444.7,387.2c-.1-.1-.1-.1-.1-.2a1.7,1.7,0,0,1,0-1.4,2.1,2.1,0,0,1,1.7-.8h.3c1.2,1,2.5,1.9,3.8,2.8l2,1.3,2,1.2,2.4,1.4,2.2,1.5c1.2.9,2.8,2,4,3.1,4.2,3.5,2,2.8-.9,1.3l-3.5-1.7-3.6-1.9-2.1-1.2-2.1-1.2-2-1.3C447.4,389.2,446,388.3,444.7,387.2Z" transform="translate(-414 -379.6)"/>
    <path class="a4bd758e-ac33-4082-8cd6-fb922ecfbd8e" d="M449.4,384.4h0a2,2,0,0,1,.6-.9,2.7,2.7,0,0,1,1.5-.9h.1l.3.3.9.8a32.8,32.8,0,0,0,3.1,2.1l3.4,1.9,1.6.8.9.8,1.5,1.5c.8.9.9,1.3.6,1.5s-.8.1-1.5-.1l-1.5-.6-1.6-.5-1.5-.9-3.5-1.9a33.4,33.4,0,0,1-3.4-2.3l-1.1-1C449.6,384.6,449.4,384.5,449.4,384.4Z" transform="translate(-414 -379.6)"/>
  </g>
</svg>
