<svg id="baf0b69f-c8c6-49e0-9d81-1ad4ef729c26" data-name="Objects" xmlns="http://www.w3.org/2000/svg" viewBox="0 0 168.4 148.5">
  <defs>
    <style>
      .a6504e1e-e3ec-4bf7-9d20-115127b270f2 {
        fill: #252525;
      }
    </style>
  </defs>
  <g>
    <path class="a6504e1e-e3ec-4bf7-9d20-115127b270f2" d="M598.4,354.5a.5.5,0,0,1,.2.4,1.7,1.7,0,0,1,.1.7v1.1c-.1.1-.1.3-.2.4a.7.7,0,0,1-.4.5l-.6.2h-.8l-.8.2h-1.3l-1.3-1.3-1.5-1.4-3.3-2.7-.7-.7-.7-.6-1.3-1.3-2.5-2.4-5.1-4.6c-1.8-1.4-3.6-2.8-5.5-4a48.8,48.8,0,0,0-5.8-3.4l-2-.9-1-.4-1.1-.3-1.1-.5-1.2-.4-.8-.3-.9-.2a20.6,20.6,0,0,0-3.9-.8,28.2,28.2,0,0,0-4.1-.2h-3l-1.9-.2c-.9-.2-1.1-.5-.8-.8l.6-.3.6-.2.6-.2,3.6-1.1,2-.4a12.9,12.9,0,0,1,2.3-.3h5.6l2.4.4,1.7.5h.6l4,1.7a56.4,56.4,0,0,1,6.4,3.7c2.1,1.4,4,2.9,5.9,4.4s3.7,3.2,5.4,4.8l2.6,2.5,1.3,1.2.5.6.6.5,3.3,2.7c.5.5,1.1.9,1.6,1.5A12.9,12.9,0,0,1,598.4,354.5Z" transform="translate(-443.2 -281)"/>
    <path class="a6504e1e-e3ec-4bf7-9d20-115127b270f2" d="M503.9,379.8a.8.8,0,0,1,.1-.4,3.7,3.7,0,0,1,1.4-1.7c.8-.5,1.8-.6,3.3.6l.3.4c.6,3.1.8,5.8,1.3,8.4l.2.8.2.7a1.9,1.9,0,0,0,.2.7l.2.8.3.7.3.7a10.1,10.1,0,0,1,.7,1.5,51.5,51.5,0,0,0,3.3,5.6l1,1.3a14.7,14.7,0,0,1,1,1.3l2.2,2.5c1.5,1.6,3.1,3.2,4.8,4.7l3.5,3,.9.8,2.4,2.2c1.9,1.7,4.5,3.7,6.6,5.3l2.4,1.6,1.4,1.1c.7.6.9.9.5,1s-1,.1-2.1-.1l-1.7-.5-2-.7-1.8-.8-2-1-2.3-1.4-4.2-2.7-1.9-1.3-3.1-2.7a61.4,61.4,0,0,1-5.1-5.1l-2.4-2.6-1.1-1.5a7.6,7.6,0,0,1-1.1-1.4,37.2,37.2,0,0,1-3.8-6.4,11.1,11.1,0,0,1-.7-1.6l-.4-.9-.3-.8a10.7,10.7,0,0,1-.7-1.9l-.2-.9-.2-.9C504.7,385.2,504.4,382.3,503.9,379.8Z" transform="translate(-443.2 -281)"/>
    <path class="a6504e1e-e3ec-4bf7-9d20-115127b270f2" d="M544.6,421c0,.1.1.2,0,.4a4.2,4.2,0,0,1-.6,1.4,1.5,1.5,0,0,1-1.1.7h-.7l-.7-.3-1.6-.7-.3-.2a7,7,0,0,0-.6-1.7l-.8-2.1c-.1-.2-.1-.4-.2-.6v-.4a.4.4,0,0,0-.1-.3l-.2-1.1c-.1-.7-.3-1.5-.4-2.2l-.3-2.8-.2-2.7c-.1-1.8-.1-3.5-.2-5.4v-2.7a26.2,26.2,0,0,1,.1-2.8v-1.3a20.3,20.3,0,0,1,.1-2.2l.7-5.1v-.3h.1l.6.3,1.1.5,2.3,1,1.2.6,1.1.6.8.5.6.3,1,.6,1.1.5.5.2.5.2h.1l.2-.2a1.2,1.2,0,0,1,.5-.5l2.1-1.8,4.1-3.2,1.8-1.5,1.6-1.5.9-.8,2.1-2.3,1.4-1.4a20.9,20.9,0,0,1,1.4-1.7l1.3-1.7,1.3-1.7,1-1.2a10.5,10.5,0,0,1,.8-1.1l1.1-1.4c.7-.6,1-.7,1.1-.4a4.8,4.8,0,0,1-.3,2.1,17.7,17.7,0,0,1-1.3,3.6,8,8,0,0,1-.8,1.8,21.9,21.9,0,0,1-1.1,2l-1.3,2.3-1.5,2.2-.7,1-.4.5-.3.4-1.2,1.4-.4.5-3.2,2.8-4.2,3.3-1.9,1.6-.5.4-.7.7-1,.9-.5.5h-.6l-1.3-.3-.6-.2-.6-.2-.8-.3-.7-.3-1.3-.6-1.2-.6-1-.6v1.7a21.8,21.8,0,0,0-.1,2.5v2.6c.1,1.6.2,3.5.3,5.2v2.6l.3,2.5a12.9,12.9,0,0,0,.4,1.9v1a.3.3,0,0,1,.1.2h0v.4c.2.6.5,1.2.8,1.9A12.3,12.3,0,0,1,544.6,421Z" transform="translate(-443.2 -281)"/>
    <path class="a6504e1e-e3ec-4bf7-9d20-115127b270f2" d="M546.4,328.4c.1.1.1.1.1.3s-.2,3.8-3.6,3.1h-.5c-1.7-2.2-3.6-4.3-5.4-6.4A118.1,118.1,0,0,0,510.4,303a102.2,102.2,0,0,0-15.6-7.6l-2.1-.7-2-.7-2.1-.7-2.1-.6a32.5,32.5,0,0,0-4.2-1.1l-2-.5-1.1-.2-1-.2-2.2-.3-2.1-.3-4.3-.3h-6.7l-2.3-.2-4.6-.6-1.2-.3-1.2-.2-1.4-.5-.6-.3-.6-.2-1-.6h0l1.1,1.3,1,1.3v.7l.3.5a1.4,1.4,0,0,0,.2.6l.2.6.4,1.2a65.5,65.5,0,0,1,1.7,9.1c.2,1.5.5,2.9.7,4.3a26.2,26.2,0,0,0,1.1,4c.9,2.8,1.8,5.6,2.8,8.4s2.3,6.1,3.5,9.2l2,4.4.5,1.1.6,1.1,1.2,2.1a103.5,103.5,0,0,0,11.2,15.9l3.3,3.7,3.4,3.5,3.4,3.2,2.7,2.1.9.8L495,368l6.7,5.5a19.8,19.8,0,0,1,3.5,3.2c.6.7.6,1.1.3,1.1s-2.9-.8-5.5-2c.3.2-2.8-1.4-5.9-3.2l-2.2-1.3-2-1.3-2-1.3-1.4-1.1-1.3-1.1-1.4-1.4-1.8-1.6-1.7-1.8-1.8-1.7-1.6-1.8-1.6-1.8-1.6-1.9a111.6,111.6,0,0,1-11-16.1l-1.2-2.2a21.4,21.4,0,0,1-1-2.2l-2.1-4.5-1.8-4.5-.4-1.1-.4-1.1-.8-2.3c-1.1-2.8-2-5.7-2.9-8.5a39,39,0,0,1-1.2-4.6c-.3-1.5-.5-3-.7-4.5s-.9-5.8-1.6-8.4l-.3-1-.2-.4c0-.1-.1-.2-.1-.4l-.3-.5v-.3h0l.8-.3h-.1l-.5.3h-.2a.1.1,0,0,1-.1-.1l-.2-.3a4.6,4.6,0,0,1-.7-.7l-.5-.5-.7-.8a11.5,11.5,0,0,1-1.4-1.7,5.6,5.6,0,0,1-.7-1.6,3.8,3.8,0,0,1-.1-1.5,5.2,5.2,0,0,1,.6-1.6l.6-.6.7-.5,1.5-.7a6.4,6.4,0,0,1,3.8.3l1,.3.5.3.4.2,1,.5.5.2.4.2.7.2.9.2,1.1.2a30.3,30.3,0,0,0,4.2.6l2.1.2h6.6l4.6.3,2.3.3,2.3.4h1.1l1.2.3,2.2.5a33.1,33.1,0,0,1,4.5,1.2l2.1.6,2.2.7,2.2.8,2.1.8a99,99,0,0,1,16.4,7.9,122.1,122.1,0,0,1,27.8,23.3C542.7,324,544.6,326.2,546.4,328.4Z" transform="translate(-443.2 -281)"/>
    <path class="a6504e1e-e3ec-4bf7-9d20-115127b270f2" d="M597.6,354.6h.3l.4.5h.1l1.4,1.2h0v.3h0a1.3,1.3,0,0,1-.1.6c0,.1,0,.2-.1.2a.4.4,0,0,1-.1.3,1.2,1.2,0,0,1-.5.5c0,.1-.2.1-.2.2h-.9c-.1,0-.2,0-.2-.1h-.1a1.4,1.4,0,0,1-.2-.6,1.5,1.5,0,0,1-.1-.7,1.1,1.1,0,0,1,.2-.7v-.2c.1,0,.1-.1.1-.2h0v.2h-.1a.3.3,0,0,1,.1.2v.4h0c0,.1.1.1.1.2h-.5a.1.1,0,0,0-.1.1h-.1l.4,1.5h-.1l-.5.3c0,.1-.3.2-.4.2a33.9,33.9,0,0,0-7.8-.8H588l-4.4.4h-1.3l-3.2.2c-2.6.3-5.9.7-8.6.8a27.1,27.1,0,0,1-4.8.1c-.9-.2-1.2-.4-1-.7a5.3,5.3,0,0,1,1.8-1l3.6-1.2,6.4-1.8,4.8-1.2,1.7-.3h.6l4.3-.4h.7A34.4,34.4,0,0,1,597.6,354.6Z" transform="translate(-443.2 -281)"/>
    <path class="a6504e1e-e3ec-4bf7-9d20-115127b270f2" d="M563.8,362.3s-.1,0,0-.1a11,11,0,0,1,3.8-3h.2l.3.4.6.9a5.7,5.7,0,0,1,.8,1.3l.9,1.4,1.5,2.7a8.7,8.7,0,0,0,.6,1.3,8.5,8.5,0,0,1-.1,2.7c-.3,2-1.6,1.9-2.6,1.2s-.5-.4-1-.8l-.9-1a5.8,5.8,0,0,1-.6-1.1,6.7,6.7,0,0,1-.6-1.2,5.4,5.4,0,0,1-.7-1.3,8.3,8.3,0,0,1-.8-1.2l-.7-1.1Z" transform="translate(-443.2 -281)"/>
    <path class="a6504e1e-e3ec-4bf7-9d20-115127b270f2" d="M482.9,312.8h-.3a6,6,0,0,1-2.2-.2,2.2,2.2,0,0,1-1-.9,2.6,2.6,0,0,1-.2-2.2,1.1,1.1,0,0,1,.2-.5,9.3,9.3,0,0,1,5.2-2.4,11.2,11.2,0,0,1,5.5.9,12.8,12.8,0,0,1,4.9,3.7,11.1,11.1,0,0,1,2.4,5.9,4.9,4.9,0,0,1,0,1.7v1.5a8.3,8.3,0,0,1-.4,1.5l-.2.7-.3.7-.4.8-.4.6-1,1.4-.6.6a1.8,1.8,0,0,0-.7.5,7.5,7.5,0,0,1-1.5.9,10.4,10.4,0,0,1-3,.9,10.1,10.1,0,0,1-3,.1l-1.6-.4a13,13,0,0,1-7-5.6,8.4,8.4,0,0,1-.8-2.7,5.7,5.7,0,0,1,.1-2.6,6.5,6.5,0,0,1,1.6-2.9,4,4,0,0,1,1.4-1.3c.8-.5,1.2-.5,1.2-.1a2.5,2.5,0,0,1-.2.7l-.3.5a1.4,1.4,0,0,1-.2.6,7.8,7.8,0,0,0-.7,3c.1-.1,0,.5.3,1.3s.1.3.1.4.1.2.2.3a4.3,4.3,0,0,0,.4.7,6.2,6.2,0,0,0,1.4,1.4,9.5,9.5,0,0,0,3.5,1.5h1.7a4.9,4.9,0,0,0,2.7-.5,4.3,4.3,0,0,0,2.1-2.3c.1-.2.2-.3.2-.4l.2-.5v-1.8a1.9,1.9,0,0,0-.1-.8,5.2,5.2,0,0,0-1.3-3.2,8.9,8.9,0,0,0-2.9-2.2,6.1,6.1,0,0,0-2.9-.5A3.8,3.8,0,0,0,482.9,312.8Z" transform="translate(-443.2 -281)"/>
    <path class="a6504e1e-e3ec-4bf7-9d20-115127b270f2" d="M580.7,381.3h-.3a8.8,8.8,0,0,1-1.7-1.4,1.7,1.7,0,0,1-.5-1.3,3.4,3.4,0,0,1,1-2s.3-.3.5-.3a11.3,11.3,0,0,1,5.2.2,16.7,16.7,0,0,1,4.6,1.6,33.6,33.6,0,0,1,7.8,5.6c.6.5,1.1,1.1,1.7,1.7l.7.8.7.8.4.4.3.4.6.8.4.5.2.4.6.8.5.8.4.8.8,1.4.6,1.4,2,5,.5,1.4.7,1.7.3.7h-.1v-.2l-.4-.2-.6-.5-2.6-2.1-1.3-1-.3-.2-.2-.2H603l-.4-.3-1.7-1.3-1.7-1.2-.8-.6-.4-.3-.5-.3-1.5-.6-.8-.3h.1l.4.6c1.6,2.1,3,4.1,4.4,6.2a92.2,92.2,0,0,1,6.6,11.9,49.9,49.9,0,0,1,2.5,6.4l.9,2.8a10.3,10.3,0,0,0,.4,1.4l.4,1.6.4,1.5.2.8v.2h-.6l-3.1-.4-1.6-.3-1.4-.2-1.5-.3h-.9l-3.3-.7-6.5-1.6c-2.2-.6-4.3-1.4-6.5-2.2a56.8,56.8,0,0,1-6.3-2.7l-1.5-.8-.4-.2h-.2l.6,2,1,3.6.7,3,.8,3h-.3l-.3-.2-.7-.3-1.4-.8-2.6-1.6-1.4-.8-1.3-.8-2.7-1.7-.6-.4-.3-.3-.7-.5a40.2,40.2,0,0,1-5.2-4.9,22.2,22.2,0,0,1-3.8-6.5c-.2-.6-.3-1.2-.5-1.9l-.3-1.9a16,16,0,0,1,.1-3.8,3.1,3.1,0,0,1,.1-1l.2-1a15.2,15.2,0,0,1,.6-2,13.4,13.4,0,0,1,.7-1.8l.6-1.4a10,10,0,0,1,.8-1.4,10.9,10.9,0,0,1,.8-1.5l.9-1.3a34.3,34.3,0,0,1,3.3-3.6,47.5,47.5,0,0,1,6.9-5.7,22.1,22.1,0,0,1,4.1-2.5c.8-.3,1.2-.3,1.1.1s-1.6,2.5-3.4,4.6c.2-.1-2.2,2.3-4.3,5l-1.5,1.9-1.2,1.8a11.7,11.7,0,0,0-.8,1.3l-.3.5a4.1,4.1,0,0,0-.7,1.1l-.6,1-.3.6-.2.3-.2.4a16.5,16.5,0,0,0-1.6,5.2c-.5,3.6.9,7.2,3.4,10.2a28.5,28.5,0,0,0,4.4,4.1l1,.8.2.5v.3h0v-.6l-.3-.8-.3-.8-.4-.8-.8-1.7-3-6.8-1.6-3.2-.7-1.7-.4-.8h.1l.4.3,6.5,5.2,1.6,1.3,1.6,1.1,1.5,1.1.7.6.8.5,1.4.9.9.4,1.4.7c1.9,1,3.9,1.8,5.8,2.6a61.7,61.7,0,0,0,6.1,1.9c2.1.6,4.1,1.2,6.2,1.6l3.2.7h1.1v-.5c-.7-2-1.5-4-2.3-5.9a102.3,102.3,0,0,0-6.2-11.2l-4.2-5.9-.7-.8a15.8,15.8,0,0,0-1.2-1.5l-2.4-2.9-2.5-2.9-.6-.7-.3-.4h7.3l2,.2h1l1,.2,1.2.3h-.2l-.9-.3h-.1l-1.5-1.5a30.5,30.5,0,0,0-6.6-4.7,15.4,15.4,0,0,0-3.4-1.2A8.4,8.4,0,0,0,580.7,381.3Z" transform="translate(-443.2 -281)"/>
  </g>
</svg>
