<svg id="fb607496-666c-4968-b69a-9b9f6f3220a3" data-name="Objects" xmlns="http://www.w3.org/2000/svg" viewBox="0 0 91.7 72.8">
  <defs>
    <style>
      .e7001b75-e315-46a9-9622-2d6f387f3d9e {
        fill: #252525;
      }
    </style>
  </defs>
  <g>
    <path class="e7001b75-e315-46a9-9622-2d6f387f3d9e" d="M663,700.1h0c-.2-.4-.2-1.1.8-1.1h.1l1.9,1.5a108.7,108.7,0,0,1,17.8,18.7,101.3,101.3,0,0,1,7.2,10.8l1.5,2.8,1.5,2.9v.3h.1l.2.4.3.6s.8,2.1,1.2,3.6,0,1.7-.8.3c0,.1-.4-.8-.9-1.7s-.9-1.8-.9-1.8l-.3-.6v-.3h-.1v-.3l-.4-.7-2.9-5.5a105,105,0,0,0-7-10.4,98.4,98.4,0,0,0-17.3-18Z" transform="translate(-662.9 -669.7)"/>
    <path class="e7001b75-e315-46a9-9622-2d6f387f3d9e" d="M696.6,742.3h-.1c-.3.3-1,.5-1.3-.4h0l.9-2.3c5.7-14.7,14.5-28,24.8-39.7a186.9,186.9,0,0,1,16.6-16.7l4.4-3.9,4.5-3.7,1-.8.6-.4,3.2-2c2.3-1.4,1.6-.5.4.7l-2.9,2.5-2.4,2-2.2,1.8-2.2,1.9-2.2,1.8-2.1,2a176.9,176.9,0,0,0-16.1,16.3c-10,11.5-18.5,24.5-24.1,38.7Z" transform="translate(-662.9 -669.7)"/>
    <path class="e7001b75-e315-46a9-9622-2d6f387f3d9e" d="M664,700.2h-.1a.7.7,0,0,1-.1-1.3h.1a20.9,20.9,0,0,1,2.5,0,42.9,42.9,0,0,1,15.7,3.7,59.9,59.9,0,0,1,7.2,3.5,38.7,38.7,0,0,1,3.4,2.1l1.3.9.3.2.8.6,1.8,1.7c1.8,1.9.8,1.5-.6.6l-.4-.3-1.1-.7-1.7-1.1-.6-.3-.3-.2-.2-.2-.4-.3-1.7-1-1.7-.9a55.2,55.2,0,0,0-6.9-3.4,43.8,43.8,0,0,0-15-3.5Z" transform="translate(-662.9 -669.7)"/>
    <path class="e7001b75-e315-46a9-9622-2d6f387f3d9e" d="M697.9,711.3h-.1c-.4.2-1.1.2-1.1-.7v-.2l1.5-1.9a99.1,99.1,0,0,1,12.2-12.9l3.3-2.9,3.5-2.8,3.5-2.7,3.7-2.5a168.6,168.6,0,0,1,15.5-8.6l9.6-4.6s2-.9,3.5-1.4,1.7-.1.3.8l-3.3,2-10.2,4.9a157.7,157.7,0,0,0-15.1,8.4l-1.8,1.2-1.8,1.3-3.4,2.6c-2.2,1.8-4.4,3.6-6.6,5.6a93.3,93.3,0,0,0-11.8,12.5Z" transform="translate(-662.9 -669.7)"/>
    <path class="e7001b75-e315-46a9-9622-2d6f387f3d9e" d="M666.6,698.8h.1a2.8,2.8,0,0,1,1.3.3h0v1.4a5.2,5.2,0,0,1,.2,1.1l.2.5a5.8,5.8,0,0,1-.1,1c-.1.7-.5.5-.8.2l-.3-.4-.2-.5-.2-.5a3.7,3.7,0,0,1-.2-1.2,1.7,1.7,0,0,1-.1-.7v-.6A2.6,2.6,0,0,0,666.6,698.8Z" transform="translate(-662.9 -669.7)"/>
    <path class="e7001b75-e315-46a9-9622-2d6f387f3d9e" d="M669.5,699.7h.1a1.7,1.7,0,0,1,1.3.2h0a2.8,2.8,0,0,1-.1.6v.6a2.2,2.2,0,0,1,.1.8,5.9,5.9,0,0,0,.2,1.4,3.2,3.2,0,0,1,.1.7,4.8,4.8,0,0,1-.2,1.3c-.2.9-.5.5-.7,0s-.2-.2-.3-.5l-.2-.6a3.2,3.2,0,0,0-.1-.7q-.2-.6-.3-1.5v-1.6A2.8,2.8,0,0,1,669.5,699.7Z" transform="translate(-662.9 -669.7)"/>
    <path class="e7001b75-e315-46a9-9622-2d6f387f3d9e" d="M672.2,700.9h0a1.4,1.4,0,0,1,1.4-.2h0c.1.1.7,5.4.7,5.4a12.4,12.4,0,0,1-.1,1.5c-.2,1-.6.7-.8,0s-.5-1.4-.5-1.4S672.2,701,672.2,700.9Z" transform="translate(-662.9 -669.7)"/>
    <path class="e7001b75-e315-46a9-9622-2d6f387f3d9e" d="M675.9,702.2h0c.2-.3.7-.7,1.4,0v1.3a4.9,4.9,0,0,0,.1,1.2V710c0,2.7-.5,1.6-.8.1a18.3,18.3,0,0,1-.3-1.9l-.3-1.4v-4.6Z" transform="translate(-662.9 -669.7)"/>
    <path class="e7001b75-e315-46a9-9622-2d6f387f3d9e" d="M679.5,703.2c0-.1,0-.1.1-.1s.8-.6,1.3.2v.2c0,.3-.1.7-.1,1.1s-.1.7-.1,1.1a10.9,10.9,0,0,0,.1,1.8v1.3a11.6,11.6,0,0,0,.1,1.3,21.8,21.8,0,0,1-.1,2.5c0,2.6-.5,1.6-.8,0,0,.1-.1-.9-.3-1.9a18.8,18.8,0,0,1-.3-2,3.7,3.7,0,0,1-.1-1.1v-1.9a5.6,5.6,0,0,1,0-1.3A5,5,0,0,1,679.5,703.2Z" transform="translate(-662.9 -669.7)"/>
    <path class="e7001b75-e315-46a9-9622-2d6f387f3d9e" d="M683.1,704.1h0c.2-.3.8-.7,1.4.1v.2c0,.7-.2,1.5-.2,2.3a82.4,82.4,0,0,0,.3,8.6v1.3s0,2.2-.1,3.8-.5,1.6-.8,0c0,.2-.6-3.9-.6-3.9v-1.1a84.2,84.2,0,0,1-.2-8.7A19.5,19.5,0,0,1,683.1,704.1Z" transform="translate(-662.9 -669.7)"/>
    <path class="e7001b75-e315-46a9-9622-2d6f387f3d9e" d="M687.2,705.7h0c.2-.3.8-.7,1.4.1h0v7.6c0,1.8,0,3.5.1,5.3V720a10.3,10.3,0,0,1-.1,1.3,21.1,21.1,0,0,1-.2,2.5c-.2,2.6-.6,1.5-.8-.1l-.2-1.8c0-1-.1-2-.1-2v-1.2c0-1.8-.1-3.5-.1-5.3v-2.6c0-.9.1-1.8.1-2.6Z" transform="translate(-662.9 -669.7)"/>
    <path class="e7001b75-e315-46a9-9622-2d6f387f3d9e" d="M691.1,708.3h0c.3-.3.8-.7,1.4.1v.2l-.2,2.3c-.2,3.1-.2,6.2-.1,9.4v8.5a8.9,8.9,0,0,0-.1,1.3,22.1,22.1,0,0,1-.5,2.5c-.4,2.6-.7,1.5-.7-.1a6.3,6.3,0,0,1-.1-1.9V720c-.1-3.1,0-6.2.2-9.3Z" transform="translate(-662.9 -669.7)"/>
    <path class="e7001b75-e315-46a9-9622-2d6f387f3d9e" d="M695.2,711.1h0c.3-.3.9-.6,1.4.3h0l-.2,1.1c-.1.4-.1.8-.2,1.2a40.1,40.1,0,0,0,0,6c.1,2.1.2,4.2.2,6.3v3.1c-.1,1-.1,2-.1,3s-.1,2.1,0,3.1v1.5s-.1,2.2-.3,3.8-.6,1.5-.8-.1c-.1.2-.4-3.9-.4-3.9v-4.7c0-1,.1-2,.1-3.1v-3c0-2-.1-4-.2-6s-.1-4.1.1-6.2a4.9,4.9,0,0,0,.1-1.2Z" transform="translate(-662.9 -669.7)"/>
    <path class="e7001b75-e315-46a9-9622-2d6f387f3d9e" d="M699.1,708.2h0c.3-.3.8-.7,1.4.2h0l-.2,2.3-.3,4.4v8.8a16.2,16.2,0,0,0,.1,2.2v2.8a4.5,4.5,0,0,0-.1,1.2,4.3,4.3,0,0,1-.2,1.2c-.3,2.7-.6,1.6-.8,0,0,.1,0-.9-.1-1.9l-.2-2v-3.7c-.1-1.4-.1-2.9-.1-4.3s.1-3,.1-4.4.1-2.9.3-4.4Z" transform="translate(-662.9 -669.7)"/>
    <path class="e7001b75-e315-46a9-9622-2d6f387f3d9e" d="M703.1,703.2a.1.1,0,0,1,.1-.1c.2-.3.8-.7,1.3.1h.1l-.2,2.4a115,115,0,0,0-.7,13.1v2.6c0,.3-.1.7-.1,1.2v1.2c0,2.6-.4,1.7-.8,0,0,.1,0-.1-.1-.5s-.1-.4-.1-.6a1.7,1.7,0,0,1-.1-.7c-.1-1-.3-2.1-.3-2.1v-1.1c0-4.5.4-8.9.7-13.2Z" transform="translate(-662.9 -669.7)"/>
    <path class="e7001b75-e315-46a9-9622-2d6f387f3d9e" d="M706.5,700.2h.1c.2-.3.7-.7,1.3.1h.1v2.4a38.4,38.4,0,0,0,0,4.8v6.2a10.3,10.3,0,0,1-.1,1.3l-.3,2.5c-.4,2.6-.7,1.5-.8-.1a17,17,0,0,1-.1-1.9c0-.5-.1-1-.1-1.3v-14Z" transform="translate(-662.9 -669.7)"/>
    <path class="e7001b75-e315-46a9-9622-2d6f387f3d9e" d="M710.2,696.8h.1c.2-.3.8-.7,1.3.1v.2a16.9,16.9,0,0,0-.1,2.3,24.1,24.1,0,0,0,0,3.8v5.2a7.3,7.3,0,0,0-.1,1.3,17.9,17.9,0,0,0-.2,2.4c0,.6.1,1,.1,1.3s-.1.3-.2.3l-.3-.5c-.1-.2-.2-.3-.2-.5s-.1-.4-.2-.6a2.8,2.8,0,0,0-.1-.5,7.8,7.8,0,0,0-.2-1.4V699.2A19.4,19.4,0,0,1,710.2,696.8Z" transform="translate(-662.9 -669.7)"/>
    <path class="e7001b75-e315-46a9-9622-2d6f387f3d9e" d="M713.7,694h0a.8.8,0,0,1,1.4-.1c0,.1.1.1.1.2v2.4c-.1,2-.2,4-.2,5.9a6.2,6.2,0,0,0-.1,1.3,10.3,10.3,0,0,1-.1,1.3,25,25,0,0,1-.2,2.5c0,2.6-.4,1.6-.8,0l-.2-1.9a7.1,7.1,0,0,1-.1-1.4v-1.8c.1-2,.2-4,.2-5.9Z" transform="translate(-662.9 -669.7)"/>
    <path class="e7001b75-e315-46a9-9622-2d6f387f3d9e" d="M717.2,690.4h0c.3-.3.8-.7,1.4.1h0v2.4c-.1,1.7-.1,3.4-.1,5.2v1.3a8.9,8.9,0,0,0-.1,1.3,21.7,21.7,0,0,1-.4,2.5c-.4,2.6-.7,1.5-.8-.1,0,.1,0-.9-.1-1.9v-3.1c0-1.8,0-3.5.1-5.3Z" transform="translate(-662.9 -669.7)"/>
    <path class="e7001b75-e315-46a9-9622-2d6f387f3d9e" d="M721,688h.1c.2-.4.7-.8,1.3,0a.1.1,0,0,1,.1.1v4.8a5.7,5.7,0,0,0,0,1.3,11.6,11.6,0,0,1-.1,1.3v1.2a5.3,5.3,0,0,0-.1,1.2c-.1,2.7-.5,1.7-.8.1a13.8,13.8,0,0,1-.3-1.9l-.2-2V688Z" transform="translate(-662.9 -669.7)"/>
    <path class="e7001b75-e315-46a9-9622-2d6f387f3d9e" d="M724.6,685.3h.1c.2-.3.8-.7,1.3.2h.1a19.4,19.4,0,0,0-.2,2.4v2.6a10.3,10.3,0,0,1-.1,1.3l-.3,2.5c-.4,2.6-.7,1.5-.8-.1l-.2-1.9v-4.5A22.9,22.9,0,0,0,724.6,685.3Z" transform="translate(-662.9 -669.7)"/>
    <path class="e7001b75-e315-46a9-9622-2d6f387f3d9e" d="M728.2,683.3h0c.3-.3.8-.7,1.4.2h0l-.2,2.4v1.9a.4.4,0,0,0-.1.3,3.8,3.8,0,0,1-.1,1c-.1.7-.2,1.6-.3,2.4-.5,2.6-.7,1.6-.8-.1a6.3,6.3,0,0,1-.1-1.9,6.1,6.1,0,0,0-.1-1.4c0-.2,0-.3.1-.4v-2Z" transform="translate(-662.9 -669.7)"/>
    <path class="e7001b75-e315-46a9-9622-2d6f387f3d9e" d="M731.8,681.4a.1.1,0,0,1,.1-.1,1.5,1.5,0,0,1,1.3.1.1.1,0,0,1,.1.1l-.6,5.6a7.9,7.9,0,0,1-.5,1.5c-.4,1.1-.7.6-.8-.1s-.1-1.6-.1-1.6Z" transform="translate(-662.9 -669.7)"/>
    <path class="e7001b75-e315-46a9-9622-2d6f387f3d9e" d="M735.5,679.2h0a1.6,1.6,0,0,1,1.4.3h0a2.1,2.1,0,0,1-.1.6c0,.2-.1.4-.1.6a1.7,1.7,0,0,0-.1.7,8.3,8.3,0,0,0-.2,1.3,1.5,1.5,0,0,1-.1.6,4.2,4.2,0,0,1-.5,1c-.3.8-.6.4-.7-.1s-.2-1.1-.2-1.1a2.8,2.8,0,0,1,.1-.6c0-.4.1-.8.1-1.3a2,2,0,0,0,.1-.7,6.4,6.4,0,0,1,.2-.7A1.5,1.5,0,0,1,735.5,679.2Z" transform="translate(-662.9 -669.7)"/>
    <path class="e7001b75-e315-46a9-9622-2d6f387f3d9e" d="M738.5,677.8h0a2,2,0,0,1,1.3.1h.1c0,.1-.1.8-.2,1.6a3.8,3.8,0,0,0-.1,1,1.6,1.6,0,0,0-.1.4v.3l-.3.5c-.3.6-.6.4-.8,0a1,1,0,0,1-.1-.4c0-.2-.1-.3-.1-.4h0v-.5c.1-.3.1-.7.2-1Z" transform="translate(-662.9 -669.7)"/>
    <path class="e7001b75-e315-46a9-9622-2d6f387f3d9e" d="M742.1,675.9h0a2.9,2.9,0,0,1,1.4.3h0l-.2,1.1c0,.3-.1.6-.1.8a.4.4,0,0,1-.1.3,1.1,1.1,0,0,1-.4.6c-.4.4-.7.2-.8-.1l-.2-.7v-.4a1.7,1.7,0,0,1,.1-.7Z" transform="translate(-662.9 -669.7)"/>
    <path class="e7001b75-e315-46a9-9622-2d6f387f3d9e" d="M745.4,674.5h1.4v1.1l-.4.2c-.4.2-.7.1-.8-.1s-.3-.3-.3-.3Z" transform="translate(-662.9 -669.7)"/>
  </g>
</svg>
