<svg id="f29f5eb3-1405-4aa1-b290-7d784cf84457" data-name="Objects" xmlns="http://www.w3.org/2000/svg" viewBox="0 0 45.5 45.7">
  <defs>
    <style>
      .f863efb7-c348-4115-89d9-260ad5bab39b {
        fill: #252525;
      }
    </style>
  </defs>
  <g>
    <path class="f863efb7-c348-4115-89d9-260ad5bab39b" d="M513.8,1001.9h0v.3a.4.4,0,0,1-.5.1h0a7.4,7.4,0,0,1-.6-1.1c-.6-1.5-1.1-3.2-1.7-4.8a15.9,15.9,0,0,1-.7-2l-.7-1.9a17.2,17.2,0,0,1-.7-2.1l-.3-1-.2-.5v-.2h0c0-.1,0-.2-.1-.2s-.1-.4-.1-.7v-.2a.3.3,0,0,1,.1-.2l.2-.2h.2l1.3.2,2.1.8,4,1.9,1.1.4,1,.4,1.1.4,1.1.4.5.2h1.6a4.4,4.4,0,0,0,2.1-.7,24.2,24.2,0,0,0,3.5-3l1.7-1.7c.6-.6,1.1-1.2,1.7-1.7a8,8,0,0,1,2.1-1.5l.6-.2a1.1,1.1,0,0,1,.8,0,1,1,0,0,1,.6.5,1.3,1.3,0,0,1,.3.7,11,11,0,0,1,.2,2.5v2.5c-.1.8-.1,1.6-.2,2.5v2.4c0,1.6.1,3.3,1.2,4.5s2.6,1.7,4.1,2.6l4.4,2.2,2.3,1,1.1.6.6.4a1,1,0,0,1,.4.8,1.6,1.6,0,0,1-.5.8l-.5.4-1.2.5-1.2.5-1.1.4-4.8,1.4-2.3.8a5.5,5.5,0,0,0-2,1.1,5.6,5.6,0,0,0-1.1,2,20,20,0,0,0-.4,2.4l-.6,4.8c-.2,1.6-.3,3.1-.5,4.7s-.1.8-.2,1.2a1.9,1.9,0,0,1-.2.7,1.2,1.2,0,0,1-.5.5l-.4.2h-1a3.4,3.4,0,0,1-1.2-.6,2.4,2.4,0,0,1-.9-.8l-.8-.9a8.6,8.6,0,0,1-.7-1l-.6-.9-2.2-4.1a34.1,34.1,0,0,0-2.1-3.8,1.8,1.8,0,0,0-1.5-.9h-2.1l-8.3.9-2,.2-1.9.2a3.3,3.3,0,0,1-1,0h-1.1a.8.8,0,0,1-.5-.5.6.6,0,0,1,0-.7.8.8,0,0,1,.2-.5l.3-.4,1.1-1.5a17.1,17.1,0,0,1,1.1-1.4l2.1-2.8,2-2.6.9-1.3v-.2c0-.1.1-.2.1-.3l.2-.2.3-.5a4.7,4.7,0,0,0,.5-1c.1-.6-.2-.7-.1-.7s.2,0,.3.2a.8.8,0,0,1,.2.6c0-.1-.1.5-.2.9a4.4,4.4,0,0,1-.5.9v.3h-.2l-.3.5-.4.6c-1.1,1.6-2.4,3.4-3.8,5.1l-2.1,2.7-1,1.4a.5.5,0,0,0-.1.3h0l.7.2a22.3,22.3,0,0,0,3.6-.2l3.9-.4,4-.5,2.1-.2h2.1a2.8,2.8,0,0,1,1.2.4,3,3,0,0,1,.8.8,9.3,9.3,0,0,1,1.1,1.9c.3.7.7,1.3,1,2l1,1.9,1.1,2,1.2,1.8.7.8a3,3,0,0,0,.8.8,2.5,2.5,0,0,0,1.8.6c.3-.1.5-.2.6-.5a3.7,3.7,0,0,0,.1-1.1l.3-2.3c.2-1.6.4-3.1.5-4.7s.4-3.1.7-4.7a7,7,0,0,1,.9-2.4,5.1,5.1,0,0,1,2-1.6l2.4-.8,2.3-.7c1.6-.5,3.1-.9,4.6-1.5l1.1-.4,1.1-.6c.1-.1.3-.2.3-.3s.1-.2.1-.3a2.4,2.4,0,0,0-.9-.5l-2.2-1.1-2.2-1-2.2-1.1-2.2-1.2-2.2-1.3a4.5,4.5,0,0,1-1.6-2,11.8,11.8,0,0,1-.6-4.9v-2.5c0-.8.1-1.6.1-2.4s.1-1.7.1-2.4-.1-.8-.1-1.2a1.3,1.3,0,0,0-.5-.7,1.2,1.2,0,0,0-.8.1,3.3,3.3,0,0,0-1,.6c-.6.4-1.2,1-1.8,1.5l-1.6,1.7-.9.9-.8.8a14.9,14.9,0,0,1-3.8,2.8,3.6,3.6,0,0,1-2.5.4h-.6l-.5-.2-1.1-.3-2.2-.8-2.1-.9-4-1.8a6.8,6.8,0,0,0-2-.7h-.3c-.1-.1,0-.1,0-.1s0,.1,0,0h0a4.3,4.3,0,0,1,.1.5c.1.1.1.1.1.2h0v.2c.1.4.1.7.2,1a10.4,10.4,0,0,0,.4,1,11.8,11.8,0,0,0,.7,2c.5,1.3.9,2.6,1.3,3.9l.7,1.8.6,1.9.3.6a3.3,3.3,0,0,0,.3.6Z" transform="translate(-504.5 -983)"/>
    <path class="f863efb7-c348-4115-89d9-260ad5bab39b" d="M510,988.7a.1.1,0,0,1-.1-.1c0-.2.1-.5.5-.4h.1l.5.6a.5.5,0,0,0,.2.4l.4.7,1.2,2.5c.3.7.8,1.5,1.2,2.3,1.6,3.2,3.3,6.4,4.6,9.7a64.9,64.9,0,0,0,4,9.8v.2h0l-.6.4h0v-.3l-.3-.6-.3-.7c-.1-.2-.1-.4-.2-.6l-.4-1.3-.3-1.3c-.4-1.7-.9-3.5-1.4-5.2h0l-.6-2.1-.8-2.1a13.1,13.1,0,0,0-.8-2.1l-.8-2.2c-.6-1.4-1-2.8-1.6-4.2a18.6,18.6,0,0,0-1-2h0c.2-.2-.6.3.6-.4h.1v.3l.2.5.5,1,2,4.1,1.8,4.2,3.8,8.2h0l3,6.2,1.5,3.2,1.2,3.2c.4,1.1.8,2.1,1.3,3.2l.7,1.5.2.4v.2h.1c.6-.2-.8.3-.6.3h0l-.2-.8a50.2,50.2,0,0,0-2.3-6.5c-.9-2.1-1.8-4.2-2.6-6.4l-1.2-3.2-1.4-3.2-1.3-3.2-1.2-3.2-2.3-6.5h0l-.5-1.5h0l.6-.3h.1v.2l.2.3.4.7.8,1.5.6,1.4c.8,2,1.5,4,2.2,6s1.6,3.9,2.5,5.9l2.5,5.8,2.6,5.8a60.3,60.3,0,0,1,2.6,5.8l.3.8v.4h0l-.6.3H532v-.2a5.5,5.5,0,0,1-.8-1.5c-.4-.9-.7-2-1.1-3s-1.4-4-2.1-6h0c-.7-2.1-1.3-4.2-1.9-6.2l-1-3.1-1.1-3.1c-.3-1-.8-2-1.2-3l-.6-1.5-.3-.7-.3-.8-1.5-2.9a9.4,9.4,0,0,1-.6-1.5v-.2h0l.6-.3h0l.2.3.5.7a64.5,64.5,0,0,1,2.9,5.9c.8,2,1.7,3.9,2.7,5.9l1.5,2.9,1.3,2.9,2.7,6h0l1.4,2.7h0c.2-.1-1.2.5-.6.3h0v-.5l-.3-.8a12.1,12.1,0,0,0-.5-1.4c-.8-1.9-1.6-3.8-2.5-5.7-1.7-3.8-3.5-7.5-4.9-11.5l-2-5.9-.5-1.5h0c.2-.2-.6.3.6-.4h.1l.3.4a4.3,4.3,0,0,1,.4.7,25.2,25.2,0,0,1,1.2,2.9c.3,1,.7,1.9,1.1,2.9l1.3,2.8,2.5,5.7h0l2.2,4.8a16.7,16.7,0,0,0,1.2,2.3,6.1,6.1,0,0,0,.7,1l.2.3h0l-.6.3h0v-.2c-.1-.2-.1-.4-.2-.6s-1.3-3.1-1.9-4.8l-1.9-4.9-1.9-4.9a42,42,0,0,1-1.7-5l-.5-1.2a6.1,6.1,0,0,0-.5-1.2l-.3-.5h0l.6-.3h.1v.5l.5,1.2a39.6,39.6,0,0,0,2.1,4.7h0c1.6,3,3.3,5.9,4.8,8.9a31.4,31.4,0,0,0,2.5,4.4h.1l-.7.3h0v-.3l-.2-.6-.5-1.2-.9-2.4-1.8-4.8c-.5-1.6-1.2-3.1-1.7-4.8l-.7-2.4-.5-1.2-.5-1.1-.6-1.2-.2-.6v-.3h-.1l.6-.3h0a13.5,13.5,0,0,1,1.4,2.2h0c.7,1.4,1.3,2.8,1.9,4.2s1.2,2.8,1.9,4.2,1.3,2.7,2,4.1.7,1.3,1,2a6.3,6.3,0,0,0,1.2,1.8h0l-.5.3h0v-.3l-.2-.5-.4-1-1-2.1-1.9-4.2-1.9-4.1-.9-2.1-1-2.1h0c-.6-1.3-1.2-2.6-1.7-4v-.2h0l.6-.3h.1v.2l.4.4.7.9.6.9.6.9a61.9,61.9,0,0,1,3.4,8c.6,1.4,1.1,2.7,1.7,4l.9,2,.6.9.3.5h0a1.6,1.6,0,0,0-.1-.4,4.3,4.3,0,0,1-.1-.5l-.3-1a33.9,33.9,0,0,0-1.5-4.1h0c-1-2.3-2.2-4.6-3.4-6.9l-1.8-3.4a14.2,14.2,0,0,1-.8-1.8l-.3-1v-.7h0l.6-.3h.1a30.5,30.5,0,0,1,4,6.7l2.9,7.2h0c.5,1.2,1.1,2.4,1.6,3.5a9.5,9.5,0,0,0,1,1.7v.3h.1v-.4a3.6,3.6,0,0,0-.4-.9,13,13,0,0,0-.8-1.7,14.2,14.2,0,0,1-.8-1.8l-.8-1.8c-1.1-2.3-2.3-4.6-3.5-7s-1.1-2.3-1.6-3.5l-.3-1-.2-.4v-.4h0l.6-.3h.1l.9,1.7h0c2.4,4.3,4,8.8,6,13.2.5,1.1.9,2.2,1.5,3.3l.4.7.5.7.4.5h0v-.8l-.5-1.7-.2-.9-.3-.8a8.5,8.5,0,0,0-.6-1.7h0l-.6-1.4v-.4h0c-.2,0,1.2-.5.6-.3h.1v.2l.3.7a23.6,23.6,0,0,0,1.2,2.8,10.4,10.4,0,0,0,1.5,2.5l.3.2.3.2c.1.1.2.1.2.2h.2v-.7a13.5,13.5,0,0,0-.5-2.9l-.2-.8h0l.6-.2h.1v.2l.2.3a5.8,5.8,0,0,0,.5,1.4,5.4,5.4,0,0,0,.7,1.3c.1.3.3.4.4.6h0v-1.8h.1l.3.2h0l.3.2.3.3.2.3h.1l.2-.2.2-.3h.2l.4.2c.3.3.4.5.4.6s0,.1,0,.1h-.2l-.4-.3h-.4v.2l-.3.3v.2h-.1l-.2-.2q-.2-.3-.3-.3h0v.7a1.4,1.4,0,0,0-.2.6l-.2.2h-.2a5.9,5.9,0,0,1-.8-.8l-.4-.6-.3-.6a26,26,0,0,1-1-2.5v-.2h0l.6-.2h.1v1l.3,1.3a6.8,6.8,0,0,1,.2,1.4v1.7a.1.1,0,0,1-.1.1l-.6-.2h-.5l-.6-.5-.9-1.1a11.2,11.2,0,0,1-1.3-2.4c-.4-.8-.7-1.7-1.1-2.5l-.2-.7h0c-.6.2.8-.4.6-.3h.1l.2.3.5,1.3h0l.6,1.7.3.9.2.9c.1.6.3,1.2.4,1.8l.3.9.2.9v.8h0l-.2-.2-.3-.2-.7-.6c-.1-.1-.2-.1-.3-.3l-.2-.2-.3-.3-.6-.8-.4-.8c-.6-1.1-1.1-2.2-1.6-3.3-1.9-4.4-3.6-8.9-5.9-13.2h0l-.9-1.6h-.1l.7-.3h0v.2l.2.5.4.9a22.1,22.1,0,0,0,1.6,3.5c1.1,2.4,2.3,4.7,3.4,7.1l.8,1.7.9,1.8.8,1.8.3.9v.3h0c.1.1.1.1.1.2v.5c.1.1,0,.2,0,.4h0l-.2.2h-.2l-.2-.2h-.3l-.2-.3-.4-.5-1-1.7c-.6-1.2-1.1-2.4-1.6-3.6h0c-1.1-2.4-2-4.8-3-7.2a29,29,0,0,0-3.8-6.6h-.1l.6-.3h0v.6l.3.9a13.4,13.4,0,0,0,.7,1.8,36.5,36.5,0,0,1,1.8,3.4c1.2,2.3,2.5,4.6,3.5,7h0a28.6,28.6,0,0,1,1.5,4.1l.3,1c0,.2.1.4.1.6v.7l.2,1.1.2.9v.2l-.2-.2-.3-.3-.6-.8-.4-.4v-.2h-.1l-.3-.4-.6-1a18.6,18.6,0,0,0-1-2c-.6-1.3-1.1-2.7-1.6-4a55.8,55.8,0,0,0-3.5-7.9l-.5-.9-.6-.9-.6-.9-.4-.4-.2-.2h0c-.2,0,1.1-.7.6-.4h0a32,32,0,0,0,1.6,3.9h0l1,2.1,1,2.1,1.9,4.2,1.8,4.1,1,2.1c.1.4.3.7.4,1.1l.2.5v.5h0c.1-.1-1.1.7-.6.3h-.1a8.6,8.6,0,0,1-1.3-2l-1-2-2.1-4.1-1.9-4.2c-.6-1.4-1.1-2.8-1.8-4.2h0a23.9,23.9,0,0,0-1.3-2.1h0l.6-.3h.1v.3l.2.6.5,1.1.6,1.2c.1.4.3.8.4,1.2l.8,2.4c.5,1.6,1.1,3.2,1.7,4.8l1.8,4.8.9,2.3.4,1.2.2.6v.5h0l-.6.3H534a38.3,38.3,0,0,1-2.5-4.4c-1.6-3.1-3.3-6-4.8-9h0c-.8-1.6-1.5-3.2-2.2-4.8l-.4-1.3v-.5h0l.6-.2h0l.3.6.6,1.3.4,1.2,1.7,5,1.9,4.8,1.9,4.9c.6,1.7,1.5,3.2,2,4.9s.1.5.2.7v.2h0l-.6.3h0l-.2-.2a8.3,8.3,0,0,1-.8-1.2,17.1,17.1,0,0,1-1.3-2.3l-2.1-4.8h0l-2.5-5.7-1.3-2.8-1.2-3c-.3-.9-.7-1.9-1.1-2.8a2.1,2.1,0,0,1-.4-.6l-.2-.3v-.2h-.1c1.2-.6.4-.1.6-.3h.1l.5,1.5,2,5.9a103,103,0,0,0,4.9,11.4c.9,1.9,1.7,3.8,2.5,5.7s.3,1,.5,1.5l.3.7v.6h0l-.7.3h0l-1.5-2.8h0l-2.6-6-1.4-2.9-1.4-2.9c-1-2-2-3.9-2.8-5.9a51.8,51.8,0,0,0-2.8-5.8l-.5-.7-.2-.3h0l.6-.3h.1v.2l.6,1.4,1.5,2.9.4.8.3.7.6,1.5,1.2,3.1,1,3.1,1,3.1c.7,2,1.3,4.1,2,6.2h0c.6,2,1.3,4,2,6l1.1,3a8.3,8.3,0,0,1,.7,1.3h.2l-.6.3h0v-.4c-.1-.2-.1-.5-.2-.7a60.3,60.3,0,0,0-2.6-5.8l-2.6-5.8c-.9-2-1.7-3.9-2.6-5.8s-1.7-3.9-2.5-5.9-1.4-4.1-2.2-6l-.6-1.4-.7-1.4-.4-.7-.2-.3V992h-.1c1.2-.6.4-.1.6-.3h0l.6,1.5h0l2.3,6.6,1.2,3.2,1.3,3.2,1.3,3.1,1.3,3.3c.8,2.1,1.7,4.2,2.6,6.4a49.7,49.7,0,0,1,2.2,6.5l.2.9h.1l-.7.3H530v-.2l-.2-.4-.8-1.5-1.3-3.3-1.2-3.2c-.4-1-.9-2-1.4-3.1s-2.1-4.1-3.1-6.2h0l-3.7-8.2-1.9-4.2-1.9-4.1-.5-1-.2-.5-.2-.3h-.1c1.3-.7.4-.1.7-.3h0a12.8,12.8,0,0,1,1.1,2c.6,1.4,1,2.9,1.5,4.3l.9,2.1c.2.7.6,1.4.8,2.1l.8,2.2.6,2.1h0c.5,1.8.9,3.5,1.3,5.2l.4,1.3a6.5,6.5,0,0,0,.4,1.3,1.4,1.4,0,0,0,.2.6l.2.6.3.6v.3h0c-.2.2.7-.3-.6.4H522c-1.8-3.2-2.8-6.6-4.1-9.9a95.1,95.1,0,0,0-4.6-9.7l-1.2-2.3c-.4-.9-.7-1.7-1.1-2.4l-.4-.8-.2-.3Z" transform="translate(-504.5 -983)"/>
    <path class="f863efb7-c348-4115-89d9-260ad5bab39b" d="M530.2,987.8h0c0,.1-.1.5-.6.3h0c-.2-.2-.2-.4-.3-.6h0c-.6.3.8-.3.6-.2h.1v.2c1,1.6,1.9,3.1,2.9,4.5v.2h0v.2h.1V992c-.1-.4-.3-.8-.4-1.2l-1.2-2.4a11.2,11.2,0,0,0-.5-1.3l-.3-.6v-.2h0l.6-.2h.1v.3l.5,1.3.6,1.1,1.3,2.4h0l.6,1.2.2.3h.1c-.3,0,.6-.2-.7.1h0v-.6a13.6,13.6,0,0,0-.7-2.5c-.3-.8-.7-1.6-1-2.5a1.4,1.4,0,0,0-.2-.6v-.5h0l.6-.3h0a4.2,4.2,0,0,1,.8,1.2h0a6.1,6.1,0,0,0,.5,1.2.8.8,0,0,0,.2.5v.2h0l-.6.2h0v-1.5l-.3-1.2v-.7H533l.6-.2.2.3a2.4,2.4,0,0,1,.6,1.1v.2h.1v.2h.2l-.7.2h0v-1.9c.2-1.3.3-.7.4,0l.2.9a1.5,1.5,0,0,0,.1.7v.2h0l-.7.2h0l-.2-.3v-.2l-.7-1.3h-.1l.6-.3h0v.5a2.4,2.4,0,0,0,.2.8l.3,1.5v.7h.1l-.7.2h0v-.2c-.1-.1-.1-.3-.2-.4l-.6-1.4h0a3.9,3.9,0,0,0-.6-1.1h0l.6-.3h0v.5c.1.2.1.4.2.6l1,2.5a11.1,11.1,0,0,1,.7,2.6v.7h0l-.6.2h-.1l-.2-.3-.6-1.2h0l-1.3-2.3-.6-1.3-.5-1.2-.2-.3h0l.7-.2h0v.2l.2.6.6,1.2a25.6,25.6,0,0,1,1.1,2.4c.2.4.3.9.5,1.3l.2.9c.1.4.1.8.2,1.2V995h-.1l-.7-.9-.7-.8-.3-.5c-.1-.1-.3-.3-.3-.4s-1.9-3-2.9-4.5v-.2h-.1l.7-.3h0C530.1,987.5,530.1,987.7,530.2,987.8Z" transform="translate(-504.5 -983)"/>
    <path class="f863efb7-c348-4115-89d9-260ad5bab39b" d="M509.7,989.1h0c.1-.2.2-.5.6-.2h.1l.4,1.1.4,1.1.9,2.3,1,2.2c.3.8.7,1.5,1,2.2s1.5,2.9,2.2,4.4a15.1,15.1,0,0,1,1.1,2.2l1,2.2c.3.8.6,1.6.8,2.3s.6,1.6.8,2.3l.4,1.2.2.6.2.5.3.6.2.6a1.3,1.3,0,0,1,.1.6h.1l-.7.2h0v-.2l-.2-.2a15.7,15.7,0,0,1-2-4.6,15.5,15.5,0,0,0-.7-2.3,5.4,5.4,0,0,0-.5-1.1l-.5-1.1h0l-.8-1.8-.8-1.7c-.6-1.1-1.1-2.3-1.7-3.4l-.9-1.7-.4-.9-.3-.9v-.3h-.1c.3-.1-.6.3.7-.2h0l.2.4.4.9.6,1.8c.9,2.5,1.6,4.9,2.4,7.4a6.4,6.4,0,0,0,.6,1.8l.6,1.7.8,1.8.9,1.7h0a4.8,4.8,0,0,1,.5,1.8v.2h0c-1.3.5-.4.2-.6.3h-.1l-.3-.4-.5-.8a24.1,24.1,0,0,1-1.5-3.3,23.3,23.3,0,0,0-1.4-3.3l-.7-1.6-.4-.8v-.7h-.1c1.4-.3.4-.1.7-.2h0a20.4,20.4,0,0,0,1.6,6.8,34,34,0,0,1,1.2,3.4l.2.4v.2h.1l-.7.2h0l-.4-.8a12.2,12.2,0,0,0-.7-1.7h0c-.6-1.2-1.2-2.5-1.7-3.8l-.4-1-.2-.4v-.3h.7a14.9,14.9,0,0,0,.2,2.1,28.5,28.5,0,0,0,1.1,3.9l.3,1v.8h.1l-.7.2h0l-.8-2h0l-.8-1.8-.7-1.8-.7-1.9v-.2h0c-.2.1,1.3-.3.7-.1h0v.4l.2,1c.4,1.3.7,2.6,1,3.9a12.9,12.9,0,0,1,.4,1.9v.3h0c.5-.2-.8.3-.6.3h-.2l-.3-.4-.5-.9h0a23.9,23.9,0,0,1-1.3-2.8c-.2-.5-.3-1-.5-1.4v-.4h.6v.9c.1.3.1.5.2.8v.7a8.3,8.3,0,0,0,.4,1.5l.3,1.5.2.8h0l-.6.2h0l-.2-.4h0l-.8-1.2-.4-.7v-.4h0v.4a8.3,8.3,0,0,1,.4,1.5l.2.7v.2h.1l-.7.2h0l-.2-.3-.7-1.3h0l-.5-1h0a6.2,6.2,0,0,0,.1.9,6.8,6.8,0,0,0,.2,1.4v.4h0l-.7.2h0l-.3-.7a5,5,0,0,0-.5-1.3l-.3-.7h.6v2.6h0v1h-.1l-.2-.2-.7-1.3h-.1v.4h0l-.2-.2h-.5s0,.1-.2.1a.1.1,0,0,0-.1-.1h-.3v-.2h0c.1-.1.1-.2.2-.2s.1-.1.1,0v.2c-.1.1,0,.1-.1.1s.1,0,.1-.1h0l.2.2h.2v-.6a.4.4,0,0,1,.1-.3,1,1,0,0,1,.1-.4l.2-.5h0c.1,0,.1,0,.1.1h.2v.2l.2.3.2.5-.3-.6h0V1013h0c.3,0-.6.1.7,0h0l.3.7.6,1.3.2.7h.1l-.7.2h0v-.6a5.9,5.9,0,0,1-.2-1.4,1.7,1.7,0,0,1-.1-.7v-.5c0-.2.1-.4.1-.6s.1-.5.1-.7v-.3c0-.1,0-.3.1-.1l.6,1,.9,1.6h0l.6,1.3.2.3h0l-.6.2h-.1v-.2l-.2-.7-.3-1.4-.3-1V1011l-.2-1.3v-.7h.2v.3l1.3,2.2.5,1,.3.6a5.7,5.7,0,0,0,.8,1.3h0l.2.3h0c-1.3.5-.4.2-.6.3h-.1v-.2l-.2-.8-.3-1.4c-.1-.5-.3-1-.4-1.5v-.8a1.9,1.9,0,0,1-.1-.8l-.2-.7v-.2h.8v.3a8.8,8.8,0,0,0,.5,1.5,15.9,15.9,0,0,0,1.2,2.7h0l.5.8.3.4h.1c.1-.1-1.2.5-.6.2h0v-.3l-.3-1.9c-.4-1.3-.7-2.5-1-3.8l-.3-1v-.5h0l.7-.2h0v.3l.7,1.8.7,1.8.8,1.9h0l.8,1.9h0l-.7.2h-.1v-.7l-.3-1c-.4-1.4-.8-2.7-1.1-4.1a15,15,0,0,1-.2-2.2h.7v.2l.2.5.3,1,1.8,3.7h0a8.7,8.7,0,0,0,.7,1.7l.3.9h.1l-.7.2h0v-.6l-1.2-3.4a18.5,18.5,0,0,1-1.7-7h0c.3-.1-.7.1.7-.2h0v.2l.2.4.3.8.8,1.6,1.4,3.3a13.4,13.4,0,0,0,1.4,3.2l.5.8.2.3h.1l-.6.2h0v-.2a4.4,4.4,0,0,0-.6-1.6h0a13,13,0,0,0-.8-1.7,14.2,14.2,0,0,1-.8-1.8,13.4,13.4,0,0,1-.7-1.8l-.6-1.8c-.8-2.5-1.5-4.9-2.3-7.3a13.4,13.4,0,0,0-.7-1.8l-.4-.9-.2-.4h0l.7-.3h.1v.3l.3.8.4.9.9,1.7c.6,1.1,1.2,2.3,1.7,3.4l.9,1.7.8,1.8h0l.5,1.1c.1.4.3.8.4,1.2a15.5,15.5,0,0,1,.8,2.3,17.2,17.2,0,0,0,1.9,4.4v.2h.2c.1-.1-1.2.5-.6.2h-.1a.9.9,0,0,0-.1-.5l-.2-.6-.2-.5-.3-.6-.2-.6-.3-1.1c-.3-.8-.6-1.6-.8-2.3s-.5-1.6-.8-2.3c-1.2-3-2.9-5.8-4.3-8.8a15.1,15.1,0,0,1-1.1-2.2l-.9-2.2-.9-2.3-.5-1.2Z" transform="translate(-504.5 -983)"/>
  </g>
</svg>
