<svg id="aea1a648-b4d2-4822-b68d-9ea01b276275" data-name="Objects" xmlns="http://www.w3.org/2000/svg" viewBox="0 0 52.6 33.4">
  <defs>
    <style>
      .fb8daab0-cd92-4f41-862f-5d909fb3c8cf {
        fill: #252525;
      }
    </style>
  </defs>
  <g>
    <path class="fb8daab0-cd92-4f41-862f-5d909fb3c8cf" d="M275,627a.2.2,0,0,1,0,.3,2.3,2.3,0,0,1-.8,1.7c-.5.4-1.3.5-2.5-.1l-.3-.2a23.5,23.5,0,0,0-3.2-5.2,31.8,31.8,0,0,0-9.1-8,47.8,47.8,0,0,0-11.3-5.1l-3.4-.9-3.3-1-6.4-1.5-3.6-.7c-.7-.2-.9-.4-.7-.6s2.2-.8,4.5-.8a31.6,31.6,0,0,1,5.3.1l3.8.5,1.8.3a18.1,18.1,0,0,1,3.1.9,56.1,56.1,0,0,1,12.3,5.4,41.5,41.5,0,0,1,10.2,9A32.1,32.1,0,0,1,275,627Z" transform="translate(-222.5 -595.9)"/>
    <path class="fb8daab0-cd92-4f41-862f-5d909fb3c8cf" d="M242.9,614.4c0,.1.1.2,0,.4a2.3,2.3,0,0,1-.7,1.7,2.6,2.6,0,0,1-2.5.1c0-.1-.2-.1-.3-.2a11.2,11.2,0,0,0-1.6-2.2,19.2,19.2,0,0,0-2.2-1.8,26.9,26.9,0,0,0-2.9-1.6l-.8-.3-.7-.3-.8-.3-3.5-1.3-3.5-1.2-.8-.3h.6l1.7-.7,1.7-.7.8-.3.8-.4,2.9-1.3.8-.3h.5l.8-.5,1.6-.8,3.1-1.5,6.1-2.8c3.3-1.5,4.5-1.7,4.3-1.2s-1.5,1.8-3.3,3.1a37.7,37.7,0,0,1-4.1,3l-3.2,2.2-1.1.7-.4.2-1.4.8-.7.3h-.3l-.5.2h.1l.9.4a22.1,22.1,0,0,1,3.4,1.8,20.9,20.9,0,0,1,2.9,2.3A17,17,0,0,1,242.9,614.4Z" transform="translate(-222.5 -595.9)"/>
  </g>
</svg>
