<svg id="f8274265-a58d-4131-a37b-f1702fc1368e" data-name="Objects" xmlns="http://www.w3.org/2000/svg" viewBox="0 0 65 69">
  <defs>
    <style>
      .bde54d69-f41b-4dfb-bd79-f1b58d9c6df4 {
        fill: #252525;
      }
    </style>
  </defs>
  <g>
    <path class="bde54d69-f41b-4dfb-bd79-f1b58d9c6df4" d="M153.3,685.4h.1c.3.2.6.7-.1,1.2h-.1l-1.8-.2h-.3a13.4,13.4,0,0,0-2,0,18.3,18.3,0,0,0-4,.5,20.3,20.3,0,0,0-3.9,1.4,12.7,12.7,0,0,0-3.4,2.3,2.3,2.3,0,0,0-.7.7,6,6,0,0,0-.8.8,9.5,9.5,0,0,0-1.2,1.6,7.8,7.8,0,0,0-.9,4,6.4,6.4,0,0,0,.3,2,4.2,4.2,0,0,0,1,1.7,6.9,6.9,0,0,0,3.6,2.1,15.6,15.6,0,0,0,4.3.3,23.6,23.6,0,0,0,4.5-.8,32,32,0,0,0,4.3-1.7,13.9,13.9,0,0,0,3.8-2.5,9.7,9.7,0,0,0,2.5-3.8,17.3,17.3,0,0,0,1-4.5,39.3,39.3,0,0,0,.2-4.9q0-4.8-.3-9.9c-.1-1.6-.1-3.3-.2-5v-2.5c0-.9.1-1.7.1-2.6v-1.2c-.1-.2.1-.1.2-.1h.6l1.3-.3,2.5-.5c1.7-.3,3.4-.5,5-.9l5-1.1,1.3-.2,1.2-.4,2.5-.6,2.5-.6,1.3-.3,1.2-.4,4.9-1.5,2-.5s.2-.2.2,0v9.7c-.1,3.5-.1,6.9-.1,10.4v2.2h-.4l-.6-.2-.5-.2h-.3c-.1,0-.1,0-.1-.1a10.1,10.1,0,0,0-2.5-.3,16.9,16.9,0,0,0-4.9.9,21.5,21.5,0,0,0-4.6,2.2,12.7,12.7,0,0,0-3.6,3.3,10.6,10.6,0,0,0-1.9,4.5,6.9,6.9,0,0,0,.6,4.7,5.1,5.1,0,0,0,3.7,2.6,16.7,16.7,0,0,0,5,.2l2.4-.5a5.3,5.3,0,0,0,1.2-.3l1.2-.4a14.1,14.1,0,0,0,4.2-2.6,18,18,0,0,0,5.3-8.2,27.3,27.3,0,0,0,1-4.8l.3-2.5c0-.9.1-1.7.1-2.5.4-6.7-.2-13.3-.4-19.8,0-1.6,0-3.3-.1-4.9v-4.8a19.2,19.2,0,0,0,0-2.4v-2.4a17.9,17.9,0,0,0-.2-2.3v-.8h-2.7l-1.1.2h-1.2l-1.1.2-1.1.3-2.2.6-4.5,1.1-4.4.9-4.3,1.1c-1.4.3-2.8.7-4.3.9l-4.2.9-2.1.4-1.1.2-1,.2c-1.4.3-2.7.5-4,.9a6,6,0,0,0-1.6.8.1.1,0,0,0-.1.1c-.1,0-.1,0-.1.1s-.1.2-.2.4-.1.6-.2.9-.2,2.6-.3,3.9v7.8c0,1.2.1,2.5.1,3.7s.2,2.5.2,3.7.1,2.5,0,3.6v11.7s-.1,1.9-.3,3.2-.5,1.3-.6-.1a31.1,31.1,0,0,1-.3-3.3V672c0-2.2,0-4.4-.1-6.8s-.2-4.7-.2-7.2-.1-4.9.1-7.5a13.4,13.4,0,0,1,.1-2,19.1,19.1,0,0,1,.4-2.1l.3-.5.2-.3.3-.2a3.3,3.3,0,0,1,1-.6,6.6,6.6,0,0,1,2-.6c1.3-.4,2.6-.6,3.9-.9l1-.2,1-.2,2.1-.4c5.4-.9,10.9-2.6,16.7-3.6l2.2-.5,2.1-.6,2.2-.6,1.1-.3,1.1-.2h1l1.2-.3H197v1.6a19.4,19.4,0,0,1,.2,2.4q.1,4.7,0,9.3c.1,1.6.1,3.2.1,4.8s.2,3.2.2,4.8c.3,6.4.7,13-.1,19.6l-.3,2.5a22.1,22.1,0,0,1-.5,2.5,20,20,0,0,1-1.9,4.8,17.5,17.5,0,0,1-7.2,7.3,18.2,18.2,0,0,1-5,1.6,22.8,22.8,0,0,1-5.2.4,13.1,13.1,0,0,1-2.7-.6,5.8,5.8,0,0,1-2.4-1.4,6.3,6.3,0,0,1-1.6-2.3,8.6,8.6,0,0,1-.5-2.7,12.1,12.1,0,0,1,1.2-5.3,12.3,12.3,0,0,1,3.4-4.1,19.7,19.7,0,0,1,9.6-4.3l1.3-.2h1.4l1.4.2h1.3v-3.4c0-3.5,0-6.9.1-10.3,0-1.7-.1-3.4-.1-5.1v-.3h0l-.7.2-2.4.8-2.5.7-1.2.4-1.3.3-4.9,1.2a44.8,44.8,0,0,1-5,1.1l-4.9,1-5,1-1.2.2c-.3.1-.2,0-.2,0h0v2.5c-.1,1.6,0,3.3,0,4.9s.2,3.3.2,5,.2,3.2.2,4.9v4.9a27.2,27.2,0,0,1-.5,4.9,5,5,0,0,1-.2,1.2l-.2.6a1.4,1.4,0,0,1-.2.6,6.7,6.7,0,0,1-1,2.3,9.8,9.8,0,0,1-3.4,3.6,17.2,17.2,0,0,1-4.2,2.3,39.6,39.6,0,0,1-4.5,1.5,26.1,26.1,0,0,1-4.8.5l-2.3-.2-2.3-.7-1.1-.6-1-.7a5,5,0,0,1-1.5-2,8.1,8.1,0,0,1-.7-4.6,8.3,8.3,0,0,1,1.8-4.3,16.4,16.4,0,0,1,7-5.3,14.8,14.8,0,0,1,4.1-1.2,19.9,19.9,0,0,1,4.2-.4h1.4Z" transform="translate(-132.9 -636.1)"/>
    <path class="bde54d69-f41b-4dfb-bd79-f1b58d9c6df4" d="M160.7,657.6c0,.1,0,.1-.1.1a.8.8,0,0,1-.4.4.9.9,0,0,1-.7-.4h-.1v-2a6.2,6.2,0,0,1,.1-1.3l.3-.7.3-.3.2-.2h.2a3.1,3.1,0,0,1,1.3-.3l1.2-.2h2.1l2.2-.7,4.4-1.3,1.1-.3,1.2-.2,2.2-.4,2.3-.4,2.2-.5,2.2-.5,2.1-.6a17.3,17.3,0,0,1,4.6-1.2h1.5v.3l.2,1.4a10.1,10.1,0,0,1,.2,2.5,3.8,3.8,0,0,1-.6,1.3,4.2,4.2,0,0,1-1.2.8l-1.2.4-1.1.2-4.5,1-4.4,1a31.7,31.7,0,0,0-4.4,1.2c-2.9.8-5.9,1.8-8.9,2.4l-1,.2h-4.3l-.2-.3h0c.1-.2.2-.3.2-.4l.3-.2c.1-.1.2-.1.2,0s-.1.4-.2.8l-.3-.4h.5l1.5-.2,1.7-.3h.5l1.9-.3c2.9-.7,5.7-1.6,8.6-2.5l2.2-.6,2.2-.5,4.4-1,4.4-.9.6-.2h.5a2,2,0,0,0,.8-.4,1.2,1.2,0,0,0,.5-.5c0-.3.1-.6.1-.9a18,18,0,0,0-.2-2.2v-.2h-.8a33.8,33.8,0,0,0-4.2,1.3,67.4,67.4,0,0,1-8.9,2l-4.3.8-4.3,1.3-2.2.7h-3.4l-.9.2c-.3.1-.4.8-.4,1.5S160.7,656.9,160.7,657.6Z" transform="translate(-132.9 -636.1)"/>
    <path class="bde54d69-f41b-4dfb-bd79-f1b58d9c6df4" d="M154,650.2h0a1.1,1.1,0,0,1-.6-1h0c0-.1.3-.3.7-.6l.7-.5a4.6,4.6,0,0,0,.7-.7,9.4,9.4,0,0,0,1.4-1.2l.7-.6a7.9,7.9,0,0,1,1.3-.9c1-.5.8,0,.5.5l-1,1.3-.7.6-1.4,1.3-.8.7-.7.5Z" transform="translate(-132.9 -636.1)"/>
    <path class="bde54d69-f41b-4dfb-bd79-f1b58d9c6df4" d="M154.3,653.6h-.1c-.3.1-.9.1-.8-.7h0l1.4-1.5a25.5,25.5,0,0,1,2.4-2.3l2.4-2.3.8-.8.3-.2.6-.5,1.6-1.3c1.7-1.4,1.3-.6.4.5s-.4.6-1,1.2a3.6,3.6,0,0,1-.8.9l-.3.4-.7.7-2.5,2.2c-.8.8-1.6,1.5-2.3,2.3Z" transform="translate(-132.9 -636.1)"/>
    <path class="bde54d69-f41b-4dfb-bd79-f1b58d9c6df4" d="M154.7,656.9h0c-.3.1-.9.2-1-.6h0l.7-.9.7-.7a61.7,61.7,0,0,1,5.7-4.7l1.4-1.1,1.2-1.2,1.2-1.3.8-1,.8-.7.8-.7.8-.7c1.9-1.3,1.4-.4.5.6a5.1,5.1,0,0,0-1,1.2l-.8.9-.3.4-.8.9-1.2,1.4-.7.6c-.2.2-.4.5-.7.6l-1.4,1.2a47,47,0,0,0-5.4,4.4l-.7.7Z" transform="translate(-132.9 -636.1)"/>
    <path class="bde54d69-f41b-4dfb-bd79-f1b58d9c6df4" d="M154.5,660.6h0a1.5,1.5,0,0,1-.8-.8h0l.6-.5,1.2-1,1.2-1,.6-.5.4-.2.7-.4c.8-.4.8,0,.5.5l-.4.6-.5.5-.5.4-1.2,1-1.2,1Z" transform="translate(-132.9 -636.1)"/>
    <path class="bde54d69-f41b-4dfb-bd79-f1b58d9c6df4" d="M164,652.9h-.1c-.3.1-.9,0-.8-.8h0l1.5-1.5,5.8-5.8.8-.8,2.4-2.1c1.8-1.4,1.3-.5.5.5l-2.2,2.5-.6.7-5.9,5.9Z" transform="translate(-132.9 -636.1)"/>
    <path class="bde54d69-f41b-4dfb-bd79-f1b58d9c6df4" d="M154.5,666a.1.1,0,0,1-.1.1.7.7,0,0,1-.6-.3c-.1-.2,0-.4.1-.8h0a14.9,14.9,0,0,0,1.4-1.2l1.2-1.4.7-.9.3-.3.7-.4,1.7-1.2c2-1.1,1.4-.3.4.6l-2.3,2.2-.6.7-1.2,1.5A7.9,7.9,0,0,1,154.5,666Z" transform="translate(-132.9 -636.1)"/>
    <path class="bde54d69-f41b-4dfb-bd79-f1b58d9c6df4" d="M169,652.3h0c-.4,0-.9-.2-.7-1h0l.8-.6.8-.6a71,71,0,0,0,5.8-6.3l.7-.8.3-.3.6-.5,1.6-1.3c1.9-1.2,1.4-.4.5.6s-.6.5-1.1,1.1l-.7.9-.4.4-.6.7a59.7,59.7,0,0,1-5.9,6.4l-.8.7Z" transform="translate(-132.9 -636.1)"/>
    <path class="bde54d69-f41b-4dfb-bd79-f1b58d9c6df4" d="M154.7,670.3h-.1c-.3.1-.8-.1-.7-.9a.1.1,0,0,1,.1-.1,8.3,8.3,0,0,0,1.4-1.3c.9-1,1.7-2.1,2.6-3.2l.7-.8a3,3,0,0,1,.8-.8l1.5-1.4.8-.8.3-.2.6-.5.8-.6.5-.3.5-.3c1.9-1.1,1.3-.3.3.6s-.1.1-.3.3l-.8.8-1.2,1.2-.7.6-1.5,1.5a2.3,2.3,0,0,0-.7.7l-.7.8c-.9,1-1.7,2.2-2.6,3.2A11.4,11.4,0,0,1,154.7,670.3Z" transform="translate(-132.9 -636.1)"/>
    <path class="bde54d69-f41b-4dfb-bd79-f1b58d9c6df4" d="M175.8,649.9h0l-.5.2c-.2,0-.5-.1-.6-.6h0a11.8,11.8,0,0,1,1.1-1.9,23.9,23.9,0,0,1,2.2-2.3l2.2-2.1.7-.8.7-.8,1.7-1.4c.2-.1.4-.3.6-.3l.4-.2h.3l-.9,1-1,1.1-1,1.4-.6.8-2.3,2.1a20.9,20.9,0,0,0-2,2.2A6.5,6.5,0,0,0,175.8,649.9Z" transform="translate(-132.9 -636.1)"/>
    <path class="bde54d69-f41b-4dfb-bd79-f1b58d9c6df4" d="M165.6,663.7h0a.6.6,0,0,1-.6.1c-.2,0-.4-.1-.5-.6a.1.1,0,0,1,.1-.1,5.5,5.5,0,0,1,1.3-1.7l.8-.7a6,6,0,0,0,.8-.8l.2-.2.6-.5,1.5-1.4c1.7-1.5,1.3-.6.5.5l-1,1.3-.7.9-.3.4-.8.7-.7.7A5.3,5.3,0,0,0,165.6,663.7Z" transform="translate(-132.9 -636.1)"/>
    <path class="bde54d69-f41b-4dfb-bd79-f1b58d9c6df4" d="M171.8,662.3h0c-.1.1-.3,0-.5.2s-.2.1-.3,0-.3-.2-.3-.5h-.1l.6-1a4.1,4.1,0,0,1,.5-.9l.6-.7a3.5,3.5,0,0,1,.7-.9,20.8,20.8,0,0,1,2.4-2.2c.9-.7,1.3-.8,1.2-.6s-.3.6-.8,1.1-.4.6-.9,1.2l-1,1.3a4.2,4.2,0,0,0-.6.8l-.6.7a3.5,3.5,0,0,1-.5.8A5.9,5.9,0,0,0,171.8,662.3Z" transform="translate(-132.9 -636.1)"/>
    <path class="bde54d69-f41b-4dfb-bd79-f1b58d9c6df4" d="M180.6,649.3h-.1l-.5.2c-.2,0-.4-.2-.5-.6h-.1a14,14,0,0,1,1.2-1.8c1.5-1.9,3.2-3.3,4.6-5l.7-.8a18.2,18.2,0,0,1,2.2-2.3c1.6-1.6,1.3-.7.5.4s-.4.7-.9,1.3l-1,1.4-.6.8c-1.4,1.8-3.2,3.2-4.5,4.9A5.4,5.4,0,0,0,180.6,649.3Z" transform="translate(-132.9 -636.1)"/>
    <path class="bde54d69-f41b-4dfb-bd79-f1b58d9c6df4" d="M176.3,661.6h-.1c-.1,0-.2.2-.4.2s-.5,0-.7-.4h0a6.6,6.6,0,0,1,.8-2.1,6.1,6.1,0,0,0,.7-1l.8-.9.7-.8,1.6-1.4c1.7-1.4,1.3-.6.5.5l-1,1.3-1,1.3-.6.7-.6,1A3.7,3.7,0,0,0,176.3,661.6Z" transform="translate(-132.9 -636.1)"/>
    <path class="bde54d69-f41b-4dfb-bd79-f1b58d9c6df4" d="M185.2,648.3h-.6c-.2,0-.4-.1-.5-.6h0l.2-.5.3-.5.7-.8c1.3-1.7,3-2.9,4.1-4.6a4.7,4.7,0,0,0,.6-.9l.7-.8L192,638c1.4-1.7,1.1-.8.5.4s-.3.7-.7,1.4l-.8,1.5-.6.9c-1.3,1.7-3,3-4.2,4.6l-.6.7-.2.4C185.3,648,185.3,648.2,185.2,648.3Z" transform="translate(-132.9 -636.1)"/>
    <path class="bde54d69-f41b-4dfb-bd79-f1b58d9c6df4" d="M181.7,659.8h0l-.5.2a.6.6,0,0,1-.6-.5s-.1-.1,0-.1a6.1,6.1,0,0,1,.9-2l.4-.6.8-1,.7-.8,1.7-1.3c.9-.7,1.2-.8,1.2-.7a4,4,0,0,1-.8,1.2,12.2,12.2,0,0,0-1,1.2l-1,1.3-.6.8-.4.6A11.9,11.9,0,0,0,181.7,659.8Z" transform="translate(-132.9 -636.1)"/>
    <path class="bde54d69-f41b-4dfb-bd79-f1b58d9c6df4" d="M190.3,646.7h0c-.3.1-.9.3-1.1-.6h0l.6-.9.6-.9c.7-1,1.5-1.9,2.3-2.9l.7-.8,2.3-2.2c1.4-1.7,1.2-.8.5.4l-.9,1.3-1.1,1.4-.6.7c-.8,1-1.6,1.9-2.2,2.8l-.6.9Z" transform="translate(-132.9 -636.1)"/>
    <path class="bde54d69-f41b-4dfb-bd79-f1b58d9c6df4" d="M186.8,658.5h-.1a.6.6,0,0,1-1.1-.3h0a16.7,16.7,0,0,1,.8-2,41.4,41.4,0,0,1,5.7-8l.7-.9,2.3-2.2c1.6-1.6,1.3-.7.5.4s-.4.7-.9,1.3l-1,1.4-.7.8a39.1,39.1,0,0,0-5.5,7.8A13.4,13.4,0,0,0,186.8,658.5Z" transform="translate(-132.9 -636.1)"/>
    <path class="bde54d69-f41b-4dfb-bd79-f1b58d9c6df4" d="M190.8,657.5h0c-.3.2-.9.4-1.1-.4h0l.5-1,.6-.9,1.7-2.5.6-.9a5.7,5.7,0,0,1,.6-.9l1.4-1.6.9-.7q.3-.2.3,0c0,.2-.4.6-.7,1.2a8,8,0,0,0-.8,1.3l-.5,1-.3.5-.5.8-1.7,2.5a3.5,3.5,0,0,0-.5.8Z" transform="translate(-132.9 -636.1)"/>
    <path class="bde54d69-f41b-4dfb-bd79-f1b58d9c6df4" d="M191.9,661.2h-.1c-.3.1-.9.2-.9-.6h0l1.1-1.8.5-.7.7-.9.7-.8,1.4-1.5c1.5-1.7,1.3-.8.6.4l-1.8,2.8-.6.8-.5.6C192.6,660.1,192.3,660.7,191.9,661.2Z" transform="translate(-132.9 -636.1)"/>
    <path class="bde54d69-f41b-4dfb-bd79-f1b58d9c6df4" d="M192,666.4h-.1c-.2.2-.8.4-1-.4s-.1-.1,0-.1a6.9,6.9,0,0,1,1-1.9l.8-1,.7-.9.8-.8a4.6,4.6,0,0,1,.7-.7l.7-.8c.7-.8,1-1,1-.9s-.1.7-.5,1.3a6.1,6.1,0,0,1-.9,1.4l-1,1.4-.6.7-.7,1A7,7,0,0,0,192,666.4Z" transform="translate(-132.9 -636.1)"/>
    <path class="bde54d69-f41b-4dfb-bd79-f1b58d9c6df4" d="M192,671.7h-.1a.6.6,0,0,1-1-.5h0l.2-.5.3-.4a2.6,2.6,0,0,1,.5-.9l1.5-1.9.7-.9.7-.8a5.6,5.6,0,0,0,.5-.8l.6-.9.8-.8h.3a5.9,5.9,0,0,1-.5,1.2l-.6,1.5a4.3,4.3,0,0,1-.7,1,1.4,1.4,0,0,1-.3.5l-.6.8-1.4,1.8-.5.8-.2.4Z" transform="translate(-132.9 -636.1)"/>
    <path class="bde54d69-f41b-4dfb-bd79-f1b58d9c6df4" d="M191.8,676h-.1a.4.4,0,0,1-.5.1c-.2,0-.4-.1-.5-.6h0a11.3,11.3,0,0,1,1.2-1.8c.7-.8,1.5-1.6,2.1-2.4a2.7,2.7,0,0,0,.7-.8l.2-.2.4-.6,1.3-1.7c1.4-1.8,1.1-.8.6.4l-.8,1.4-.5,1.1c-.1.1-.2.2-.2.3v.2l-.7.7-2.1,2.4A5.4,5.4,0,0,0,191.8,676Z" transform="translate(-132.9 -636.1)"/>
    <path class="bde54d69-f41b-4dfb-bd79-f1b58d9c6df4" d="M173.1,694.2H173c-.3,0-.9-.1-.7-.9h0L174,692l5.6-3.8,1.3-.9a7.1,7.1,0,0,0,1.4-1l1.3-1,1.2-1.1,2.5-2.2,2.6-2.2,2.5-2.2.4-.2a.2.2,0,0,1,.2-.2l.5-.4,2.7-1.6c1.9-1.2,1.4-.4.4.5l-2.5,2.2-.5.3-.7.6-2.5,2.1-2.5,2.2-2.4,2.2-1.3,1.1-1.3,1-2.7,1.9c-1.9,1.2-3.8,2.4-5.5,3.7Z" transform="translate(-132.9 -636.1)"/>
    <path class="bde54d69-f41b-4dfb-bd79-f1b58d9c6df4" d="M171.9,691h0c-.3.1-.9.1-.9-.7h0l.7-.8.8-.7a44.1,44.1,0,0,1,6.7-4.9l3.5-2.3,1.7-1.1,1-.7.2-.2.7-.4L188,678c1.8-1.3,1.4-.5.4.6l-1.1,1.1-.9.7-.5.4-.4.3-.7.5-1.7,1.1-3.4,2.2a47.8,47.8,0,0,0-6.4,4.7l-.7.7Z" transform="translate(-132.9 -636.1)"/>
    <path class="bde54d69-f41b-4dfb-bd79-f1b58d9c6df4" d="M173.3,686h-.6a.7.7,0,0,1-.4-.7.1.1,0,0,1,.1-.1l.3-.4.4-.4.4-.4.4-.3a23.4,23.4,0,0,1,2.7-2l1.4-.8a11,11,0,0,1,1.4-.9l1-.6,2.9-1.2c1.9-1.1,1.4-.4.3.5l-1.3,1-1,.6-.4.2-.9.5-1.3.9-1.4.9a24,24,0,0,0-2.6,1.8l-.4.3-.4.4-.3.3Z" transform="translate(-132.9 -636.1)"/>
    <path class="bde54d69-f41b-4dfb-bd79-f1b58d9c6df4" d="M176.3,696.8h-.1c-.3.1-.9,0-.8-.8h0l1.7-1.3c3-2.2,6.1-4,8.8-6.4l4.1-3.6,2.9-2.8,2.5-2c1.8-1.3,1.3-.5.4.6s-2.1,2.4-2.1,2.4l-3.1,2.9-4,3.5a18.4,18.4,0,0,1-2.2,1.7l-2.2,1.6-4.4,3C177.2,695.9,176.8,696.4,176.3,696.8Z" transform="translate(-132.9 -636.1)"/>
    <path class="bde54d69-f41b-4dfb-bd79-f1b58d9c6df4" d="M182.2,696.7h-.7c-.2-.1-.3-.2-.4-.7a.1.1,0,0,1,.1-.1,7.1,7.1,0,0,1,1.5-1.5l2.3-1.7,2.1-1.9,2.1-1.8,1.1-.9,1-1,.8-.8.9-.7,1.7-1.2c2-1.2,1.4-.4.4.6s-.1.1-.3.3l-.8.8-.8.8-.3.4-.7.7-1.1,1-1.1.9-2.1,1.9-2.1,1.8a26.8,26.8,0,0,1-2.3,1.7A8,8,0,0,0,182.2,696.7Z" transform="translate(-132.9 -636.1)"/>
    <path class="bde54d69-f41b-4dfb-bd79-f1b58d9c6df4" d="M155,676.5a.1.1,0,0,1-.1.1c-.3,0-.8-.1-.7-.9h0a18.5,18.5,0,0,0,1.4-1.4l.2-.3.8-.9.7-.8,1.5-1.4c1.7-1.5,1.3-.7.5.4a10.4,10.4,0,0,1-.9,1.3l-1,1.4-.6.8-.3.3C156,675.5,155.5,676.1,155,676.5Z" transform="translate(-132.9 -636.1)"/>
    <path class="bde54d69-f41b-4dfb-bd79-f1b58d9c6df4" d="M154.7,681.8h0c-.3.1-.9.2-1-.6h0l1.2-1.7.5-.7.7-.9.8-.9.7-.7.8-.7c1.7-1.5,1.3-.6.5.5a6.3,6.3,0,0,0-.9,1.2l-.7,1-.3.4-.6.8-.5.7Z" transform="translate(-132.9 -636.1)"/>
    <path class="bde54d69-f41b-4dfb-bd79-f1b58d9c6df4" d="M136.5,703.2h-.1a.5.5,0,0,1-.5-.3c-.2-.1-.2-.4,0-.7h0a9.1,9.1,0,0,0,1.6-1.1c1.7-1.5,3.2-3.4,4.8-5.1l5.1-5.1,5.2-4.9,2.4-2.5,1-1a27.5,27.5,0,0,1,2.5-1.9c1.9-1.3,1.3-.5.4.5s-.5.5-1.1,1.1l-1.1,1.3-1.1,1.1-2.4,2.5-1.3,1.3-1.3,1.2-2.5,2.4-5,4.9a46.1,46.1,0,0,1-4.8,5.1A11.8,11.8,0,0,1,136.5,703.2Z" transform="translate(-132.9 -636.1)"/>
    <path class="bde54d69-f41b-4dfb-bd79-f1b58d9c6df4" d="M141,704.2h-.1c-.1,0-.3.1-.5,0s-.4-.2-.5-.6h0a11.5,11.5,0,0,1,1.4-1.7l8.3-8.1,4.3-4.1,2.1-1.9.5-.5a.8.8,0,0,1,.4-.4l.8-.8,1.5-1.3c1.6-1.6,1.3-.7.5.4s-.4.7-1,1.3a11.8,11.8,0,0,1-1.1,1.3l-1,1.1-2.1,1.9-4.1,4-8.2,8A5.3,5.3,0,0,0,141,704.2Z" transform="translate(-132.9 -636.1)"/>
    <path class="bde54d69-f41b-4dfb-bd79-f1b58d9c6df4" d="M146.7,703.8h-.6c-.2,0-.5-.1-.5-.6h0a4.9,4.9,0,0,1,1.6-1.6l1.2-.9.3-.2a.2.2,0,0,0,.2-.2l.6-.5,2.1-2,2-2.1,1.9-2.1.8-.9.8-.7,1.7-1.3c1.7-1.4,1.3-.6.4.5l-1,1.2-.8.9-.3.4-.7.7-1.9,2.1-2.1,2.2-2.1,2-.6.6-.3.2-.3.2-1.2.8A3.7,3.7,0,0,0,146.7,703.8Z" transform="translate(-132.9 -636.1)"/>
    <path class="bde54d69-f41b-4dfb-bd79-f1b58d9c6df4" d="M134.8,699.7h-.1c-.3.1-.9.2-.9-.6h0l1.3-1.6a64.2,64.2,0,0,1,9-8.3l.9-.7a23.3,23.3,0,0,1,2.7-1.7c1.9-1.2,1.3-.4.3.5s-.5.5-1.1,1.1l-1.3,1.1-1,.8-1.3,1-2.5,2.2a42.5,42.5,0,0,0-4.7,4.8Z" transform="translate(-132.9 -636.1)"/>
    <path class="bde54d69-f41b-4dfb-bd79-f1b58d9c6df4" d="M135.5,693.5H135c-.2,0-.5-.1-.6-.6h0a5.2,5.2,0,0,1,1.6-1.7l2-1.4.9-.6.8-.7a14,14,0,0,1,1.8-1.2l1.1-.3c.2-.1.3,0,.2.1l-.3.3-.7.5c.1,0-.5.5-1.1,1.1l-.8.8a1.2,1.2,0,0,1-.4.4l-.8.6-2,1.4Z" transform="translate(-132.9 -636.1)"/>
  </g>
</svg>
