<svg id="a40a480f-f915-43b3-aba9-327368b146d6" data-name="Objects" xmlns="http://www.w3.org/2000/svg" viewBox="0 0 33.1 33.2"><defs><style>.b4dddc8e-4c8a-46db-be8c-0e4745a82f75{fill:#252525;}</style></defs><path class="b4dddc8e-4c8a-46db-be8c-0e4745a82f75" d="M115.1,620.8h0a.3.3,0,0,1-.1.2c0,.1-.1.2-.1.3a.6.6,0,0,1-.9.2h-.1a7.1,7.1,0,0,1-.7-1.6.6.6,0,0,0-.1-.4l-.6-1.6a17.2,17.2,0,0,0-.7-2.1,18,18,0,0,0-.8-2.1l-.3-1.1v-.3h0V612a1.4,1.4,0,0,1-.2-.6.6.6,0,0,1,.1-.4.8.8,0,0,1,.2-.4h.4a1.8,1.8,0,0,1,1,.1h.7l.5.2h.1l1.2.6,3.1,1.3,1.5.5.8.3h.6a3.8,3.8,0,0,0,2.5-1.1l1.3-1.1.6-.6.5-.6a19.4,19.4,0,0,1,2.6-2.3,1.9,1.9,0,0,1,.9-.5h.6l.8.2.5.7a4.3,4.3,0,0,1,.1.5,2.8,2.8,0,0,1,.1.9,10.9,10.9,0,0,1-.1,1.8v4.9a5.8,5.8,0,0,0,.3,1.4,2.6,2.6,0,0,0,.7,1.1c.8.6,1.8,1,2.8,1.6l1.5.7,1.5.7,1.5.7.4.2.4.3.3.2.3.2c0,.1.1.1.1.2v.2c0,.1.1.2.1.3s-.5.9-.9,1.2l-.4.3h-.4l-1.6.7-1.7.5-1.5.4-1.6.5-1.4.6a2.3,2.3,0,0,0-.7,1,3.7,3.7,0,0,0-.4,1.5,7.8,7.8,0,0,0-.2,1.6l-.2,1.7-.4,3.3v.8a3.1,3.1,0,0,1-.1.9v.3l-.2.3a1,1,0,0,1-.6.5,2,2,0,0,1-1.3.1,5,5,0,0,1-1.7-1.1l-1-1.4-.5-.8-.4-.7-.8-1.5c-.6-1-1-2.1-1.5-2.9l-.4-.5c-.2-.2-.3-.2-.4-.2s-.2,0-.3,0h-1.2l-3.3.3-3.4.4h-3l-.8-.2a1.2,1.2,0,0,1-.5-.5,1.5,1.5,0,0,1-.1-.7,1.1,1.1,0,0,1,.3-.5l.3-.4.5-.9.6-.6,1.6-2.2.7-.9a7.2,7.2,0,0,0,.8-1l1.5-1.7a4.2,4.2,0,0,0,.5-1c0-.2-.1-.3,0-.3h.2a.8.8,0,0,1,.2.4,5,5,0,0,1-.2,1.2l-.9,1.6-1.1,1.6-.3.5-1,1.2-1,1.3-.5.7-.3.5-.3.4h1l6.5-.7c1.1-.1,2.2-.3,3.4-.3a2.3,2.3,0,0,1,1.1.3,6,6,0,0,1,.8.8,10.9,10.9,0,0,1,.8,1.5,10.1,10.1,0,0,1,.7,1.5l.8,1.4a11.7,11.7,0,0,0,1.7,2.6l.5.6.5.4h.7a2,2,0,0,0,.1-.5,2.5,2.5,0,0,1,.1-.8v-1.6l.4-3.3c.2-1,.2-2.1.5-3.3a4,4,0,0,1,.9-1.7,3.8,3.8,0,0,1,1.6-1.1l1.6-.5,1.6-.5,1.6-.5,1.5-.5.7-.3.6-.3c.2-.1.1-.1.1-.1h-.2l-.4-.2-.8-.3-1.4-.7-1.5-.7-1.5-.8a12,12,0,0,1-2.9-1.9,3.4,3.4,0,0,1-.9-1.8,2.8,2.8,0,0,1-.1-.9,2.5,2.5,0,0,1-.1-.8v-1.7c0-.6.1-1.1.1-1.7v-1.6a8.5,8.5,0,0,0,0-1.6,1.3,1.3,0,0,0-.1-.6h-.4l-.6.4a23.4,23.4,0,0,0-2.3,2.2l-.6.6-.6.5-1.2,1.2a8.3,8.3,0,0,1-1.6.9,3,3,0,0,1-1.9.3h-.9l-.8-.3-1.6-.5-3-1.4-1.2-.5h-.1l-.5-.2h-.4v.5a6.9,6.9,0,0,0,.4,1c.2.7.4,1.3.7,2.1a17.2,17.2,0,0,1,.7,2.1l.5,1.3v.2a.8.8,0,0,1,.1.4A6.4,6.4,0,0,0,115.1,620.8Z" transform="translate(-107.8 -607.5)"/><path class="b4dddc8e-4c8a-46db-be8c-0e4745a82f75" d="M111.9,612.4h0a.8.8,0,0,1,.2-.6c.1-.2.3-.3.8-.2h.1a4.6,4.6,0,0,1,.8,1.3l.4.7h0l.3.7.9,1.6c1.1,2.2,2.2,4.4,3.1,6.7a49.7,49.7,0,0,0,2.8,6.7l.2.4h0l-1.2.7h0v-.2l-.4-.9-.6-1.8c-.1-.6-.3-1.2-.4-1.8s-.3-1.2-.4-1.8h0a58.9,58.9,0,0,0-2.1-5.9,23.3,23.3,0,0,1-1.1-3.1l-.6-1.4c-.1-.1-.2-.2-.2-.3h-.2l1.2-.7h.1l.3.7c1.9,3.9,3.6,7.8,5.4,11.7h0c.6,1.5,1.4,2.9,2.1,4.3l.5,1.1.5,1.2a16,16,0,0,1,1,2.3,20.8,20.8,0,0,0,1.9,4.3h0l-1.3.5h-.1v-.3l-.2-.6-.3-1.1-.9-2.2-1.8-4.6-1.8-4.5c-.6-1.5-1.3-3-1.8-4.6l-1.7-4.6h0l-.3-1-.2-.5h-.1c-1.1.5,1.5-.8,1.2-.7h.1v.2l.2.2.6,1a5.4,5.4,0,0,0,.5,1.1c.6,1.4,1.1,2.9,1.6,4.3a16.7,16.7,0,0,0,.8,2l.9,2.1,1.8,4.1,1.8,4.1c.6,1.3,1.3,2.7,1.9,4.1l.4,1.2v.3h0c-2.3,1.3-.6.4-1.2.6h-.1l-.2-.3v-.3a5.4,5.4,0,0,1-.5-1.1l-.4-1-.8-2.2-.7-2.1h0c-1-3-1.8-5.9-2.8-8.8-.5-1.4-1.1-2.8-1.7-4.2a3.1,3.1,0,0,0-.5-1l-.5-1a11.7,11.7,0,0,0-.5-1.1l-.2-.6v-.3h0l1.2-.6h.1a28.2,28.2,0,0,1,2.2,4.2l.9,2.1,1,2.1c.7,1.4,1.4,2.7,2,4.1s1.3,2.9,1.9,4.2h0a3.1,3.1,0,0,0,.5,1l.5,1,.2.4v.2h0l-1.3.6h0v-.3l-.4-1-.7-2-.9-2-1.9-4-.8-2.1-.8-2-1.5-4.2-.3-1-.2-.6h-.1l1.2-.7h0l.2.2a11.3,11.3,0,0,1,1.1,2.2,11.8,11.8,0,0,0,.7,2l.9,2,1.8,4h0l1.5,3.4a12,12,0,0,0,1.8,3.1c.2-.2-2.3,1-1.3.5h0v-.2c-.1-.1-.1-.2-.1-.4l-.3-.8-.8-1.7-1.4-3.5-1.3-3.4-.7-1.8-.6-1.8a7,7,0,0,0-.6-1.7l-.3-.8v-.2h0l1.2-.5h.1l.2.4.6,1.7a13,13,0,0,1,.8,1.7h0l.8,1.6.9,1.5,1.6,3.2a22.9,22.9,0,0,0,1.8,3.1l.2.4v.2h0l-1.2.7h0l-.3-.8-.6-1.7c-.9-2.2-1.8-4.5-2.5-6.8l-.6-1.7-.3-.9-.3-.7-.8-1.7v-.4h-.1c2.4-1.3.7-.3,1.2-.6h0l.2.2.5.8h0a20.2,20.2,0,0,1,1.4,3,10.1,10.1,0,0,0,.7,1.5l.6,1.5.7,1.4.7,1.5.7,1.4c.3.5.5,1,.8,1.4a.2.2,0,0,0,.2.2h.1l-1.1.7h0l-.2-.7a10.1,10.1,0,0,0-.7-1.5c-.5-1-.9-2-1.3-2.9l-1.3-3c-.5-1-.9-2-1.4-2.9h0c-.4-.9-.9-1.9-1.3-2.9l-.2-.8h0l1.1-.6h.2v.2l.2.3.6.6.4.7a32.3,32.3,0,0,1,2.6,5.7c.4,1,.7,1.9,1.1,2.8s.5.9.7,1.4l.3.7.4.6c0,.1.1.2.2.3l.2.2.2.3h.1l-1.2.6h0v-.2l-.3-1.4a23.1,23.1,0,0,0-1-2.8h0a43.7,43.7,0,0,0-2.3-4.9c-.4-.9-.8-1.6-1.3-2.5a10.2,10.2,0,0,1-1.1-2.6v-.6h0l1.2-.6h0l.5.6.4.6.4.6.3.6.4.6.6,1.3c.8,1.7,1.4,3.4,2.1,5.1h0l.5,1.2.6,1.3.6,1.2a8.6,8.6,0,0,0,.7,1h.2l-.3-.2h-.1c0-.1-.3,1.1-.1.6h-.7v-.3a4.3,4.3,0,0,1-.1-.5,6.1,6.1,0,0,0-.5-1.2l-.6-1.2-.3-.7-.3-.6c-.4-.8-.7-1.7-1.1-2.5l-1.3-2.4-1.2-2.6-.5-1.3v-.5h0l1.2-.6h0l.4.6h0c1.8,3,2.9,6.3,4.3,9.4.7,1.5,1.2,3.2,2.3,4.2s.1.1.2.2h.1l-1,.7h0l-.2-.6a5,5,0,0,0-.2-1.2l-.4-1.3-.3-1.1h0l-.4-.9-.4-.9h0l1.3-.5h.1v.7a3.6,3.6,0,0,1,.4.9,9.1,9.1,0,0,0,.9,1.7.5.5,0,0,0,.2.4l.2.2h0V624a4.4,4.4,0,0,0-.2-1v-.7h0c-1.2.3,1.6-.5,1.3-.5h.1l.3,1.1.2.3.3.7h0l.2.4h0l.3.3h.1l-.9.2h.1v-.8h0c-.1.1,1.4-.7.7-.4h.1l.2.3c.1.1.2.1.2.2v.2H137a.1.1,0,0,1,.1-.1l.2-.2h.1l.3-.2a1.6,1.6,0,0,1,.6.6c0,.2,0,.2-.1.2l-.7-.2h0l.5-.2h0c-.1.1-.1.1-.1.2l-.2.2a.3.3,0,0,1-.1.2h-.2l-.5.2h-.1c-.1-.1-.1-.2-.2-.2l-.2-.2h-.1c1.6-.7.4-.2.8-.4h0a.6.6,0,0,0,.1.4v.6a.4.4,0,0,0-.1.3H136l-.5-.4h0l-.4-.5c0-.2-.1-.2-.1-.2l-.3-.7c-.1-.2-.1-.3-.2-.4l-.2-.6v-.4h-.1l1.4-.4h0v.2l.3.9c0,.3.1.6.1.9s.1.5.1.7a62.5,62.5,0,0,1-.2,1.7h-1.2l-.4-.2-.3-.3-.3-.3-.2-.2-.3-.4-.5-.9a8.7,8.7,0,0,1-.7-1.7l-.4-.8v-.4h-.1c.6-.2-1.3.5,1.3-.6h0v.2c.2.6.5,1.1.7,1.7h0l.4,1.3.3,1.2.3,1.3v.6h0c.3-.1-2,1.4-1,.8h-.2V627l-.3-.2a6.5,6.5,0,0,1-1.5-2.3l-1.1-2.4a95.8,95.8,0,0,0-4.2-9.2h0l-.3-.6h-.1l1.3-.6h.1v.3l.5,1.3c.3.8.8,1.6,1.1,2.4l1.3,2.5,1.2,2.5.3.7c.1.2.1.4.3.6l.6,1.2a7.8,7.8,0,0,1,.5,1.4,2.4,2.4,0,0,1,.2.8v.5h0c-.1.4,0,.1-.1.3h0c-.1.1-.1.2-.2.2h-.7l-.3-.2h-.1a9.4,9.4,0,0,1-.9-1.2l-.6-1.3-.6-1.3-.6-1.3h0c-.7-1.7-1.3-3.4-2.1-5a3.4,3.4,0,0,0-.6-1.2l-.3-.6-.3-.6-.3-.5a2.1,2.1,0,0,1-.4-.6l-.4-.5h-.1c.5-.2-1.2.6,1.2-.5h.1v.3a12.2,12.2,0,0,0,1,2.4c.5.8.9,1.6,1.3,2.4s1.7,3.3,2.4,5h0a17.6,17.6,0,0,1,1,3,9,9,0,0,1,.3,1.6v.2h0l-1.2.6h-.1l-.3-.3-.3-.3a.5.5,0,0,0-.2-.4l-.4-.7-.4-.7-.6-1.4c-.5-1-.8-1.9-1.2-2.9a27.3,27.3,0,0,0-2.5-5.5l-.4-.6-.4-.5-.2-.3-.2-.2h-.1c-1,.6,1.5-.8,1.2-.6h0l.2.7c.4.9.8,1.8,1.3,2.7h0c.4,1,.9,2,1.3,2.9l1.3,3c.5,1,.9,2,1.4,2.9a10.1,10.1,0,0,0,.7,1.5l.2.9h.1c-2.2,1.5-.7.4-1.1.8h-.2c-.1,0-.1-.1-.2-.2l-.3-.4c-.3-.5-.5-1-.8-1.4l-.7-1.5-.7-1.5-.7-1.4-.7-1.5a10.1,10.1,0,0,0-.7-1.5,25.5,25.5,0,0,0-1.3-2.9h0a4.3,4.3,0,0,1-.4-.7h-.2c.6-.3-1.2.7,1.2-.6h.1v.4a11.9,11.9,0,0,0,.8,1.6l.3.9.3.9.6,1.7c.7,2.2,1.6,4.5,2.5,6.7l.6,1.7.3.9h0c1.1-.5-1.4.8-1.2.6h0v-.2l-.3-.4c-.7-1.1-1.2-2.2-1.8-3.2l-1.7-3.2-.8-1.6c-.3-.5-.5-1.1-.8-1.6h0a13,13,0,0,1-.8-1.7l-.7-1.8-.2-.5h-.1l1.3-.5h0v.2l.4.9.7,1.8.5,1.8c.2.5.5,1.1.7,1.7l1.3,3.4,1.4,3.5.7,1.7.4.9c0,.2.1.3.1.5v.3h0l-1.2.6a14.5,14.5,0,0,1-1.9-3.4l-1.5-3.4h0l-1.8-4-.9-2.1a9,9,0,0,1-.8-2.1,10.1,10.1,0,0,0-.9-1.8v-.2H120c.6-.3-1.2.6,1.2-.7h0v.7l.4,1c.5,1.4,1,2.8,1.4,4.2l.9,2a11.9,11.9,0,0,0,.8,2l1.8,4,.9,2.1.8,2.1.4,1v.3h.1l-1.3.6h0v-.2l-.3-.5-.5-1-.5-1h0l-1.8-4.2c-.6-1.4-1.4-2.7-2-4.1a20,20,0,0,1-1-2.1l-1-2.1a24.9,24.9,0,0,0-2-4h-.1l1.2-.6h0v.2l.2.5a10.4,10.4,0,0,0,.4,1l.6,1a3.7,3.7,0,0,0,.5,1.1c.6,1.5,1.2,2.9,1.7,4.4s1.9,5.8,2.8,8.7h0l.7,2.2.8,2,.4,1.1a4.2,4.2,0,0,0,.4,1v.2h.2l-1.2.6h-.1v-.3l-.4-1c-.5-1.3-1.2-2.6-1.8-4l-1.9-4.2-1.8-4.1-.9-2a19.5,19.5,0,0,1-.8-2.2c-.5-1.4-1-2.8-1.6-4.1a3.1,3.1,0,0,0-.5-1,4.1,4.1,0,0,0-.5-.9v-.3h-.1l1.2-.6h.1v.5l.4,1.1h0l1.7,4.6a42.2,42.2,0,0,0,1.8,4.5l1.8,4.5c.5,1.5,1.2,3,1.8,4.5l.9,2.4.4,1.2v.9h.1l-1.3.5h0a20,20,0,0,1-2-4.5l-.9-2.3-1.1-2.1-2.1-4.5h0c-1.8-3.8-3.5-7.8-5.3-11.6l-.4-.7h0l1.2-.7h0v.2l.3.4.7,1.5a21.1,21.1,0,0,0,1,3,45.7,45.7,0,0,1,2.2,6.2h0a12.1,12.1,0,0,0,.5,1.8,10.5,10.5,0,0,0,.4,1.7,10.9,10.9,0,0,0,.5,1.7l.3.8v.2h0c-.5.3,1.3-.6-1.2.7h0l-.2-.4a56.6,56.6,0,0,1-2.9-6.9,42.9,42.9,0,0,0-3.1-6.5,13,13,0,0,0-.8-1.7l-.4-.7h0l-.3-.7A4.1,4.1,0,0,0,111.9,612.4Z" transform="translate(-107.8 -607.5)"/><path class="b4dddc8e-4c8a-46db-be8c-0e4745a82f75" d="M126.7,610.9s.1,0,0,.1a.9.9,0,0,1-.3.5c-.1.1-.4.3-.9-.1a.1.1,0,0,1-.1-.1h-.1c-.2.1,2.4-1,1.3-.6h0l.2.2.3.5.6,1,1.3,2,.3.4.2.2v.2h0l-1.2.5h0v-1h0c-.4-1.2-1.1-2.3-1.6-3.6v-.3h-.1l1.3-.5h0l.2.5a3,3,0,0,0,.4.8l.9,1.8h0l.9,1.6h0l-1.3.4h0v-1.5c-.2-.5-.5-1.1-.7-1.7l-.3-.9-.2-.5h0c-.3.1,2.2-1.2,1.2-.6h.1v.2h0a1.6,1.6,0,0,1,.4.7,1.4,1.4,0,0,1,.2.6l.3.5v.2h0l-1.3.4h0a4.4,4.4,0,0,0-.2-1,1,1,0,0,0-.1-.4v-.6c0-.2-.1-.4-.1-.6h0l1-.4a4.7,4.7,0,0,1,.5,1c0,.1.1.3.1.4h.1c.1-.1-1.4.3-.7.2h0v-.4a4.2,4.2,0,0,1,.1-1.3c.1-.2.2-.3.2-.2s.1.3.2.5a3,3,0,0,1,.2,1h.1v.2h0l-.9.3h0v-.2a6.1,6.1,0,0,0-.7-1l1-.4.2.6h0a6.5,6.5,0,0,1,.3,1,4.3,4.3,0,0,1,.1.5v.3h.1l-1.3.4h0l-.2-.5-.3-.5a.8.8,0,0,0-.2-.5V611a.3.3,0,0,0-.1-.2h0v-.2h0c-1.1.5,1.4-.8,1.1-.6h.1v.4l.3.8.7,1.8v1a1.3,1.3,0,0,1,.1.6v.2h0l-1.3.3h0l-.9-1.7h0a16.2,16.2,0,0,1-1-1.8,3.6,3.6,0,0,0-.4-.9l-.2-.5h0l1.3-.5h.1v.3c.4,1.1,1.2,2.3,1.6,3.7h0v1.3h.1l-1.3.5h-.1l-.2-.2-.3-.5c-.5-.7-1-1.4-1.4-2.1l-.6-.9-.3-.5v-.3h-.1l1.3-.5h0Z" transform="translate(-107.8 -607.5)"/><path class="b4dddc8e-4c8a-46db-be8c-0e4745a82f75" d="M111.6,612.6h0a.8.8,0,0,1,1.2-.5.1.1,0,0,0,.1.1l.8,2.1v.3l.6,1.4c.4,1,.9,1.9,1.4,2.9s2,3.8,2.8,5.8.7,2.1,1.1,3.1l.2.8v.3l.2.4.3.8a.6.6,0,0,1,.1.4v.2h0l-1.2.5-.2-.2a10.6,10.6,0,0,1-1.4-3.1,26.5,26.5,0,0,0-1.1-3h0a25.6,25.6,0,0,0-1.1-2.4l-1.2-2.4-.6-1.2-.6-1.3-.3-.7v-.2h-.1l1.3-.5h0l.2.3a5,5,0,0,0,.5,1.3c1.3,3.5,1.9,7.1,3.6,10.2h0a6.7,6.7,0,0,1,.6,1.2,3.1,3.1,0,0,0,.2.8v.2h0c-.6.2,1.2-.5-1.2.4H118l-.2-.3a13.4,13.4,0,0,1-1.2-2.4c-.4-.8-.6-1.6-1-2.3a5.4,5.4,0,0,0-.5-1.1l-.5-1.2v-.5h0l1.3-.3v.6a5,5,0,0,0,.2,1.2c.2.7.4,1.5.7,2.3l.9,2.4a1.4,1.4,0,0,0,.2.6v.5h0c-.5.2,1.4-.4-1.3.5h0l-.4-1.1h0l-1.3-2.7-.6-1.4v-.4H114l1.4-.2h0v.8a14.3,14.3,0,0,0,.7,2.8l.4,1.4v.6h0l-1.3.4h0l-.3-.7h0c-.4-.8-.7-1.6-1.1-2.5l-.5-1.4-.2-.6h-.1c-.3.1,2.5-.7,1.3-.3h.1v.4c.2.9.5,1.7.7,2.7a5.8,5.8,0,0,1,.3,1.4l.2.7v.2l-1.2.5h-.1l-.2-.3h0a3.3,3.3,0,0,1-.6-1,4.7,4.7,0,0,1-.5-1c-.1-.4-.3-.7-.4-1.1l-.2-.5v-.4h0l1.3-.2h0c.1,1.3.6,2.7.8,4.2h0v.2h0l-1.2.5h-.1l-.3-.5a3.1,3.1,0,0,1-.5-1l-.5-.9-.3-.4v-.2h0l1.2-.3h0a16.2,16.2,0,0,0,.4,1.9l.2.5v.8h.1l-1.3.4h-.1l-.2-.4-1-1.8h1.2v.6c0,.3.1.6.1.9l.2,1h0l-1.3.3h0v-.4l-.2-.5h-.1l-.2-.5v-.4h0c-1.2.2,1.5-.2,1.2-.1h0v1.1c-.1,0-.1.1-.1.2v.2h0l-1,.2h-.1l-.3-.8v-.2h.7v.4h-.1v.2h-.3a.1.1,0,0,0-.1.1h0c-.1,0,.1.2.1.2h-.7c0-.1-.1-.1-.1-.2h.4v.2h0a.1.1,0,0,0-.1-.1h0l.2.2h-.1s-.1-.1-.1,0h.1a2.1,2.1,0,0,1,.1-.6v-.2h1c0,.1.1.2.1.3l.4.5h0c.3,0-2,.5-1,.2h0V629h1.3l.4.9h.1l.2.5v.3h.1l-1.4.4h0l-.2-1c0-.3-.1-.7-.1-1.1s.1-.4.1-.6v-.3h1.3a7.7,7.7,0,0,1,1,1.8h0l.3.4v.2h0l-1.3.4h0v-1.3a7.1,7.1,0,0,1-.4-2.1h0l1.2-.3h.1v.2l.3.5.5.9a4.1,4.1,0,0,0,.5.9l.2.4h.1l-1.2.5h-.1v-.3h0a40.3,40.3,0,0,1-.9-4.3h0l1.4-.3h0v.3l.2.5a10.4,10.4,0,0,1,.4,1l.4.9a2.2,2.2,0,0,0,.5.8h0l.2.3h.1c.2-.1-2.4,1-1.3.6v-.9l-.3-1.3c-.2-.9-.5-1.8-.7-2.7V625h0l1.3-.3h.1l.2.7.5,1.2a20.3,20.3,0,0,0,1.1,2.6h0l.3.7h0l-1.3.4h-.1v-.4l-.4-1.4a14.6,14.6,0,0,1-.7-3,2.2,2.2,0,0,1-.1-.8v-.2h0l1.4-.2h0v.3l.6,1.3,1.2,2.7h0l.5,1.3h0c-2.6.9-.7.2-1.3.4h0v-.5a1.4,1.4,0,0,1-.2-.6l-.9-2.3a19.8,19.8,0,0,1-.8-2.6,6.9,6.9,0,0,0-.2-1.3v-.7l1.3-.3h.1l.2.3a4.3,4.3,0,0,0,.5,1.2l.5,1.1a23.4,23.4,0,0,1,.9,2.4,20.1,20.1,0,0,0,1.1,2.1l.2.2h0l-1.2.4h0c0-.1-.1-.3-.1-.4a5.4,5.4,0,0,0-.5-1.1h0c-1.8-3.3-2.4-7-3.7-10.3a6.1,6.1,0,0,0-.5-1.2v-.3h0l1.3-.5h0v.2l.3.6a6.1,6.1,0,0,0,.5,1.2l.6,1.1,1.3,2.5c.4.8.7,1.7,1.1,2.5h0c1,2,1.2,4.3,2.3,5.8h.1l-1.2.5h0c0-.1-.1-.2-.1-.3l-.3-.7-.2-.4v-.4l-.2-.7c-.4-1.1-.7-2.1-1.1-3.1s-1.8-3.8-2.8-5.7-.9-1.9-1.3-2.9l-.7-1.5v-.3Z" transform="translate(-107.8 -607.5)"/></svg>