<svg id="ff1093fe-3bc7-4765-9d8d-fa38a2602e83" data-name="Objects" xmlns="http://www.w3.org/2000/svg" viewBox="0 0 148.03 106.87"><defs><style>.f92ba4cf-ae7d-4b64-af90-4c1b0106ee3f{fill:#252525;}</style></defs><path class="f92ba4cf-ae7d-4b64-af90-4c1b0106ee3f" d="M286.47,190.83a.18.18,0,0,1,.08.09c.27.39.47,1.18-.68,1.48a.35.35,0,0,1-.15,0c-.05,0-1-.48-2.4-1l-.13,0-.12-.05-1-.32c-.65-.22-1.33-.4-2-.57s-1.37-.33-2.07-.49a59.33,59.33,0,0,0-8.84-1.09,82.5,82.5,0,0,0-9.42.08c-1.6.12-3.23.27-4.83.5a48.59,48.59,0,0,0-4.84.94,45.46,45.46,0,0,0-9.45,3.4,29.4,29.4,0,0,0-4.33,2.63,19.38,19.38,0,0,0-3.66,3.46,14.4,14.4,0,0,0-1.39,2.07,13.06,13.06,0,0,0-1,2.28c-.14.39-.21.8-.32,1.21s-.11.82-.17,1.23a7.24,7.24,0,0,0-.05,1.23,6.21,6.21,0,0,0,.09,1.22,10.09,10.09,0,0,0,1.85,4.52,16,16,0,0,0,3.62,3.54,35.2,35.2,0,0,0,9.38,4.52,70.75,70.75,0,0,0,10.19,2.49,88.06,88.06,0,0,0,10.28,1.14,51.09,51.09,0,0,0,10-.38,53.71,53.71,0,0,0,9.45-2.16A39.68,39.68,0,0,0,293,219a20.87,20.87,0,0,0,6.35-5.66,11.6,11.6,0,0,0,2.26-7.28,10.17,10.17,0,0,0-2.86-6.3,19.32,19.32,0,0,0-2.49-2.31c-.45-.32-.87-.67-1.33-.95l-.21-.13-.65-.43-.59-.34s-.53-.37-1.27-.83-1.71-1-2.52-1.44c-.36-.16-.64-.32-.88-.44a4.8,4.8,0,0,1-.54-.29c-.26-.17-.32-.27-.22-.34a4.53,4.53,0,0,1,2,.18,15.93,15.93,0,0,1,2.21.74c.58.22,1.14.49,1.57.68l.71.35s.22.12.61.37l.31.2.18.12.1.06.52.34.66.49a17.78,17.78,0,0,1,4.87,5.19,11.48,11.48,0,0,1,.86,1.76,8.41,8.41,0,0,1,.31,1,5.59,5.59,0,0,1,.23,1c0,.34.09.69.13,1s0,.68,0,1,0,.69-.07,1a7.59,7.59,0,0,1-.15,1,14.74,14.74,0,0,1-4.08,7.57,27.59,27.59,0,0,1-7.34,5.29,52.12,52.12,0,0,1-18.51,5.2,59.77,59.77,0,0,1-10.19,0,94,94,0,0,1-10.31-1.38,66.6,66.6,0,0,1-10.23-2.8,37.9,37.9,0,0,1-4.93-2.18,26.06,26.06,0,0,1-4.56-3,15.49,15.49,0,0,1-3.58-4.29A11.59,11.59,0,0,1,228,207.8a13.49,13.49,0,0,1,1.13-5.47,16.41,16.41,0,0,1,3-4.59,28,28,0,0,1,8.74-6,49.65,49.65,0,0,1,9.75-3.26,58.25,58.25,0,0,1,9.85-1.3,79.2,79.2,0,0,1,9.5,0,60.06,60.06,0,0,1,9,1.21,40.32,40.32,0,0,1,4.19,1.15c.17.06.34.1.51.17l.08,0,.07,0,.14.06C285.44,190.32,286.41,190.81,286.47,190.83Z" transform="translate(-196.15 -152.72)"/><path class="f92ba4cf-ae7d-4b64-af90-4c1b0106ee3f" d="M265.56,180.25a.17.17,0,0,1,0,.12c-.24.38-.87.92-1.63,0a.91.91,0,0,1-.07-.14l0-2.87c0-1,0-2.06,0-3.09l-.16-3.09c-.11-2.05-.25-4.13-.38-6.2,0-.54-.07-1.08-.08-1.62,0,0,.08-2.68.29-4.55.26-3.17.69-1.91,1,0,0-.2.48,4.65.48,4.65,0,.46.06.92.08,1.38.13,2.07.27,4.12.38,6.21l.17,3.12c0,1,0,2.08,0,3.12Z" transform="translate(-196.15 -152.72)"/><path class="f92ba4cf-ae7d-4b64-af90-4c1b0106ee3f" d="M262.89,160.6s0,0,0,0a.87.87,0,0,0-.21,0h0l.11,0h-.14a1.16,1.16,0,0,0-.32.18,1.3,1.3,0,0,1-.43.19.57.57,0,0,1-.29,0,1.16,1.16,0,0,1-.33-.23.36.36,0,0,1-.08-.12,3.35,3.35,0,0,1,.14-.95,7.57,7.57,0,0,1,.22-.76c.16-.49.34-1,.52-1.41l.75-1.85c.36-.88.7-2,1.05-2.95l1.62,3.58.13.37c0,.12.08.25.14.4l.08.32a12.29,12.29,0,0,1,.29,1.42c.29,1.55-.3,1.18-.88.39a7,7,0,0,1-.62-.94c-.4-.69-.42-.55-.43-.58l-.17-.37-.34.85c-.17.44-.34.88-.48,1.32-.07.22-.14.43-.19.63A2.06,2.06,0,0,0,262.89,160.6Z" transform="translate(-196.15 -152.72)"/><path class="f92ba4cf-ae7d-4b64-af90-4c1b0106ee3f" d="M265.22,231.24a.16.16,0,0,1,0-.12c.25-.38.88-.94,1.64,0a.6.6,0,0,1,.07.14v19.32s-.18,2.66-.44,4.52c-.38,3.16-.76,1.9-1-.06,0,.2-.33-4.69-.33-4.69V231.24Z" transform="translate(-196.15 -152.72)"/><path class="f92ba4cf-ae7d-4b64-af90-4c1b0106ee3f" d="M263.44,254.72s0,0,0-.1a1.28,1.28,0,0,1,.16-.78c.15-.25.44-.45,1.06-.31a.48.48,0,0,1,.15.07l.26.31.22.31.44.63c.14.21.26.44.39.65l.19.33s0,0,0,0h0l0,0h0l0,0c0-.08.1-.17.15-.26.45-.75,1-1.73,1.56-2.53.92-1.33,1.32-1.64,1.38-1.4a5.66,5.66,0,0,1-.54,1.89c.06-.08-.36,1-.81,2.12-.11.28-.23.56-.33.83-.25.48-.47.92-.66,1.3-.43.83-.71,1.39-.71,1.39l-.17.3,0,.08s0,0,0-.06l-.08-.16-.3-.61-.6-1.24-.08-.17a5.87,5.87,0,0,0-.35-.66l-.17-.3c-.12-.19-.23-.4-.36-.58l-.39-.56-.19-.28Z" transform="translate(-196.15 -152.72)"/><path class="f92ba4cf-ae7d-4b64-af90-4c1b0106ee3f" d="M223,207.07s.05,0,.11,0c.39.25.94.89,0,1.64a.5.5,0,0,1-.13.07H204.59s-2.65-.18-4.52-.44c-3.16-.38-1.89-.76.07-1-.21,0,4.68-.33,4.68-.33H223Z" transform="translate(-196.15 -152.72)"/><path class="f92ba4cf-ae7d-4b64-af90-4c1b0106ee3f" d="M200.18,205.28s0,0,0,0a1.85,1.85,0,0,1,1,1.33s0,.07,0,.08-.33.24-.82.57c-.25.16-.52.36-.86.54l-.5.29h0l.06.07.15.16.64.71a11.57,11.57,0,0,1,.72,1.54c.46,1.12-.12,1-.74.61,0,.09-1.36-1.09-1.36-1.09l-.6-.65-1.09-1.22-.36-.39-.17-.2-.09-.1,0,0,0,0,.06,0,1-.45c.33-.16.69-.3,1-.47l.43-.24c.27-.15.53-.35.76-.49s.41-.28.54-.37Z" transform="translate(-196.15 -152.72)"/><path class="f92ba4cf-ae7d-4b64-af90-4c1b0106ee3f" d="M310.82,208.82a.14.14,0,0,1-.11,0c-.39-.25-.94-.89,0-1.64l.14-.07h23.79s2.66.18,4.52.44c3.16.38,1.9.76-.06,1,.2,0-4.69.33-4.69.33H310.82Z" transform="translate(-196.15 -152.72)"/><path class="f92ba4cf-ae7d-4b64-af90-4c1b0106ee3f" d="M338,206.4s0,0,0-.06a1.64,1.64,0,0,1,1-1.3l.09,0,.88.61.86.6c.33.2.7.39,1.06.59L344,208l.13.07.06,0s.07,0,0,0l-.22.19-.43.35-.78.66-1.07.88s-.24.15-.57.32A9.19,9.19,0,0,1,340,211c-1.24.55-1.1-.07-.61-.75a6.76,6.76,0,0,1,.61-.74l.68-.76.48-.4h0l-.14-.08c-.37-.21-.76-.41-1.1-.63l-.93-.63Z" transform="translate(-196.15 -152.72)"/><path class="f92ba4cf-ae7d-4b64-af90-4c1b0106ee3f" d="M242.63,185.32a.14.14,0,0,1,0,.11c.1.45.05,1.31-1.12,1.18a.37.37,0,0,1-.15-.05l-2-2.09c-1.18-1.18-2.27-2.43-3.37-3.67l-1.64-1.86-1.61-1.88-1.05-1.22s-1.6-2.13-2.62-3.71c-1.78-2.64-.67-1.94.77-.59,0-.09.78.74,1.62,1.6l1.7,1.74.9,1.05,1.6,1.87,1.64,1.84c1.09,1.23,2.16,2.47,3.32,3.62Z" transform="translate(-196.15 -152.72)"/><path class="f92ba4cf-ae7d-4b64-af90-4c1b0106ee3f" d="M228.58,173.5s0,0,0,.06a1.51,1.51,0,0,1-1.64,0,.46.46,0,0,1-.07-.07c0-.35,0-.72,0-1.06l0-.51v-.42l0-.08-.07-.3c-.21-.82-.41-1.65-.63-2.46l-.73-2.37,2.87,2.71.7.54.34.27a1.91,1.91,0,0,0,.29.2,6.15,6.15,0,0,0,.66.37l.16.11c.1.07.23.18.4.28l.55.35c.2.11.41.24.59.36,1.32.68.72.95-.27.93a5.51,5.51,0,0,1-1.12-.17,6,6,0,0,1-.82-.22l-.37-.13-.78-.44.06.91C228.58,172.77,228.57,173.13,228.58,173.5Z" transform="translate(-196.15 -152.72)"/><path class="f92ba4cf-ae7d-4b64-af90-4c1b0106ee3f" d="M288.75,186.94s0,0-.11,0c-.45.07-1.28,0-1.09-1.21a.36.36,0,0,1,.06-.15l2.17-1.91c3.21-2.83,6.38-5.69,9.68-8.44l1.24-1.05s2.14-1.59,3.73-2.6c2.65-1.76,1.92-.64.57.79.17-.1-3.35,3.28-3.35,3.28l-1.06.9c-3.26,2.73-6.45,5.61-9.67,8.43Z" transform="translate(-196.15 -152.72)"/><path class="f92ba4cf-ae7d-4b64-af90-4c1b0106ee3f" d="M300.69,172.12s0,0-.05-.07a1,1,0,0,1,0-.69,2.23,2.23,0,0,1,.64-.8l.07,0a4.69,4.69,0,0,0,1.78.31,3.42,3.42,0,0,0,.46,0,.91.91,0,0,0,.23,0l.11,0H304l.16,0,.55-.21c.07,0,.24-.18.38-.32l.44-.43.22-.21.11-.11c0-.05,0,0,.15-.16l1-1.12,2.3-2.53-2.15,4.47-.51,1.08a9.39,9.39,0,0,0-.36.94l-.17.46a1.83,1.83,0,0,0-.11.38l-.1.42-.25.7c-.15.4-.34.93-.54,1.36-.59,1.48-.88.8-.95-.17a7.59,7.59,0,0,1,0-1.13c0-.3,0-.61,0-.84s0-.39,0-.39l.1-.43h0l-.08,0-.16,0-.32.05c-.21,0-.42,0-.63,0A6.15,6.15,0,0,1,300.69,172.12Z" transform="translate(-196.15 -152.72)"/><path class="f92ba4cf-ae7d-4b64-af90-4c1b0106ee3f" d="M294,230.69a.14.14,0,0,1-.05-.11,1.21,1.21,0,0,1,0-.39.76.76,0,0,1,0-.21.42.42,0,0,1,0-.1l0,0h0l.36-.36h0v0a.8.8,0,0,1-.15.17l-.1.07,0,0h0l.28-.28h0l.06,0a1.44,1.44,0,0,1,.69-.07.42.42,0,0,1,.15,0l1,1,1,1c3.34,3.1,6.49,6.46,9.65,9.7l1.12,1.16s.1.13.29.33l.73.83c.59.67,1.33,1.53,1.91,2.27,2,2.45.86,1.87-.71.66.06.09-.84-.67-1.77-1.44l-1.28-1.08c-.35-.3-.57-.51-.57-.51l-1-1c-3.2-3.28-6.28-6.57-9.61-9.66l-1.06-1Z" transform="translate(-196.15 -152.72)"/><path class="f92ba4cf-ae7d-4b64-af90-4c1b0106ee3f" d="M307.52,247.32s0,0,0,0a1.67,1.67,0,0,1-.22-1.62s0-.06.06-.07a6.85,6.85,0,0,1,2.92.29c.23.09.47.16.69.26l.33.16h0v-.21l0-.14.06-.21a3.73,3.73,0,0,1,.2-.52,4.35,4.35,0,0,1,.34-.63,3.09,3.09,0,0,1,.44-.57c.5-.56.78-.59.88-.45s0,.51,0,.9c0,0,0,.09,0,.26s-.08.39-.11.61a6.8,6.8,0,0,0,0,.91,22.91,22.91,0,0,0,.38,3.75l-1.13-.89-1.19-.9a2.71,2.71,0,0,0-.58-.35l-.25-.12c-.17-.08-.35-.13-.53-.2A5.4,5.4,0,0,0,307.52,247.32Z" transform="translate(-196.15 -152.72)"/><path class="f92ba4cf-ae7d-4b64-af90-4c1b0106ee3f" d="M223.93,244.06a.17.17,0,0,1-.12,0c-.45,0-1.26-.15-1-1.3a.61.61,0,0,1,.07-.14c.76-.58,1.53-1.14,2.28-1.73,3.59-2.82,7-5.91,10.57-8.85l1.25-1,1.32-.87,1.25-.8c.44-.27.9-.52,1.32-.74,2.79-1.57,2-.49.52.81l-3.49,3.1-1.06.88c-3.53,2.9-7,6-10.6,8.87C225.5,242.89,224.71,243.47,223.93,244.06Z" transform="translate(-196.15 -152.72)"/><path class="f92ba4cf-ae7d-4b64-af90-4c1b0106ee3f" d="M222.93,240.18s0,0,.06,0l.26,0a.64.64,0,0,0,.36.11.86.86,0,0,1,.47,0,.53.53,0,0,1,.21.23,1.31,1.31,0,0,1,.17.29s0,.08,0,.1-.29.54-.69,1.18l-.68,1.08-.36.56h0l.14,0,.13,0s0,0,.06,0l.15,0,.3.07.91.24a2.3,2.3,0,0,1,.34.1s.3.15.69.38l.63.38a7.21,7.21,0,0,1,.6.45c1.25,1,.51,1.05-.41.88,0,.05-.5-.14-1-.23l-1.09-.24-1.1-.28a15.36,15.36,0,0,0-1.87-.3l-1.25-.17h-.08s-.08,0,0,0l.1-.15.19-.3.38-.61,1.82-2.86C222.72,240.58,222.93,240.18,222.93,240.18Z" transform="translate(-196.15 -152.72)"/><path class="f92ba4cf-ae7d-4b64-af90-4c1b0106ee3f" d="M245.56,199.64a.31.31,0,0,1,.09.19,1.14,1.14,0,0,1,0,.55.67.67,0,0,1-.29.38.86.86,0,0,1-.49.07,2.55,2.55,0,0,0-.62,0h-.09a1.19,1.19,0,0,0-.75-.32,3.48,3.48,0,0,0-1.18.1,3.2,3.2,0,0,0-1.82,1,1.22,1.22,0,0,0-.23.76,1.83,1.83,0,0,0,.29.88,2.92,2.92,0,0,0,.7.75,7.16,7.16,0,0,0,1.09.57c.83.4,1.71.8,2.57,1.28a9.55,9.55,0,0,1,2.47,1.85,4.1,4.1,0,0,1,.9,1.54,3.19,3.19,0,0,1,0,1.91,4.07,4.07,0,0,1-.87,1.53,4.64,4.64,0,0,1-1.37,1.07l-.18.09-.12,0-.25.1a3,3,0,0,1-.5.17l-.5.13-.5.08-.14,0h-1l-.71-.08a8,8,0,0,1-3.14-1.15,3.3,3.3,0,0,1-1.28-1.26c-.15-.31-.11-.42,0-.41a2.69,2.69,0,0,1,.63.3c.16.08.31.17.51.25l.3.12.33.12a10.93,10.93,0,0,0,2.14.43,7.91,7.91,0,0,0,1.58,0,3.29,3.29,0,0,0,.5-.09l.19,0a5.83,5.83,0,0,0,.72-.18,3.5,3.5,0,0,0,.76-.36,2.51,2.51,0,0,0,.74-.67,2.22,2.22,0,0,0,.41-.89,1.37,1.37,0,0,0-.09-.82,2.66,2.66,0,0,0-.59-.83,9.15,9.15,0,0,0-2-1.42c-.77-.42-1.58-.79-2.42-1.19a7.22,7.22,0,0,1-1.37-.77,4.46,4.46,0,0,1-1.14-1.3,3.72,3.72,0,0,1-.5-1.76,3,3,0,0,1,.6-1.83,3.72,3.72,0,0,1,1.35-1.14l.37-.19.38-.15a4.8,4.8,0,0,1,.76-.24,5.31,5.31,0,0,1,1.84-.13A2.93,2.93,0,0,1,245.56,199.64Z" transform="translate(-196.15 -152.72)"/><path class="f92ba4cf-ae7d-4b64-af90-4c1b0106ee3f" d="M249.86,199.76s0-.06,0-.12c.26-.41.93-1,1.72,0a.91.91,0,0,1,.07.14v7.92s-.2,2.79-.48,4.75c-.4,3.33-.81,2-1-.07,0,.22-.33-4.93-.33-4.93v-7.67Z" transform="translate(-196.15 -152.72)"/><path class="f92ba4cf-ae7d-4b64-af90-4c1b0106ee3f" d="M257.38,199.26a.13.13,0,0,1,0-.12c.23-.42.87-1,1.71-.14a.47.47,0,0,1,.08.14l.16,3.05.26,4.87,0,1.71s-.15,2.82-.4,4.78c-.34,3.33-.76,2-1-.06,0,.21-.42-4.91-.42-4.91l0-1.45-.26-4.84Z" transform="translate(-196.15 -152.72)"/><path class="f92ba4cf-ae7d-4b64-af90-4c1b0106ee3f" d="M250,206.87s0,0,0-.05a2.37,2.37,0,0,1,.07-1.72l0-.07,2.55,0c.63,0,1.26,0,1.74,0l.78,0a8,8,0,0,1,1.42.42c1,.36.63.78,0,1,.07,0-1.45.4-1.45.4l-.78,0-.81,0h-.94Z" transform="translate(-196.15 -152.72)"/><path class="f92ba4cf-ae7d-4b64-af90-4c1b0106ee3f" d="M262.89,214.64a.15.15,0,0,1-.07.12c-.37.42-1.2.85-1.85-.31a.6.6,0,0,1-.05-.16c.18-1.06.32-2.15.46-3.24l.54-4.54a46,46,0,0,1,.76-4.63l.08-.31c.05-.19.11-.38.17-.55a3.92,3.92,0,0,1,.46-.94,1.37,1.37,0,0,1,.13-.2l.16-.14a1,1,0,0,1,.32-.24,1.34,1.34,0,0,1,.82-.13,1.28,1.28,0,0,1,.39.13,2,2,0,0,1,.32.2,3.34,3.34,0,0,1,.32.33,2.4,2.4,0,0,1,.26.48l.7,1.41c.31.72.63,1.43.92,2.15s.57,1.45.81,2.18.42,1.18.61,1.77c0,0,.19.75.42,1.76s.5,2.29.67,3.35c.73,3.56-.14,2.35-1.07.27,0,.12-.49-1.14-1-2.42s-1-2.57-1-2.57l-.51-1.49c-.24-.72-.53-1.4-.79-2.11s-.58-1.37-.87-2.05l-.25-.5-.06-.12v0h0l-.06.24c-.32,1.39-.52,2.9-.71,4.39l-.54,4.54C263.23,212.4,263.09,213.51,262.89,214.64Z" transform="translate(-196.15 -152.72)"/><path class="f92ba4cf-ae7d-4b64-af90-4c1b0106ee3f" d="M262.8,210.19s0,0,0-.05a3.16,3.16,0,0,1-.12-1.87s0-.08,0-.08l4.44-.41a6.32,6.32,0,0,1,1.27.39c.88.35.56.82.06,1.11a10.34,10.34,0,0,1-1.22.49Z" transform="translate(-196.15 -152.72)"/><path class="f92ba4cf-ae7d-4b64-af90-4c1b0106ee3f" d="M270.77,200.81s0-.06,0-.12c.2-.44.8-1.09,1.7-.23a.43.43,0,0,1,.09.13l.38,3,.34,2.61c.08.56.15,1.12.21,1.69,0,0,0,.69.05,1.66,0,.48,0,1,0,1.56s0,1.1-.09,1.59c-.17,3.37-.67,2-1,0a5.36,5.36,0,0,1-.11-.67c-.06-.45-.14-1.06-.26-1.67l-.44-2.5c0-.48-.12-1-.18-1.44l-.34-2.59Z" transform="translate(-196.15 -152.72)"/><path class="f92ba4cf-ae7d-4b64-af90-4c1b0106ee3f" d="M272.64,200.29l-.05,0a.64.64,0,0,0-.27,0,3.84,3.84,0,0,1-.42.06.67.67,0,0,1-.48-.11.83.83,0,0,1-.27-.84.75.75,0,0,1,.1-.27,2.2,2.2,0,0,1,1.1-.65,3.7,3.7,0,0,1,1-.12,7.2,7.2,0,0,1,1.72.26,10.7,10.7,0,0,1,1.75.62,7.29,7.29,0,0,1,1.67,1l.21.21c.07.08.17.19.21.25l.27.42a3.91,3.91,0,0,1,.46.94,3.31,3.31,0,0,1,0,2.3,4.74,4.74,0,0,1-1.31,1.67,10.49,10.49,0,0,1-1.57,1l-.8.41-.63.29s0,0,0,0l.53.46s.49.51,1.14,1.22c.33.34.68.76,1,1.19s.69.85,1,1.28c1.91,2.81.68,2-.79.63.07.08-.85-.71-1.78-1.53l-1.34-1.08-.63-.5-1.85-1.62-.63-.56.76-.35,1.54-.69.53-.23.37-.18c.25-.11.49-.24.72-.36a8.4,8.4,0,0,0,1.27-.82,2.9,2.9,0,0,0,.78-1,1.46,1.46,0,0,0,0-1,2.79,2.79,0,0,0-.29-.57l-.19-.29c0-.06,0,0-.06-.08l-.09-.08a5.62,5.62,0,0,0-1.22-.73,8.62,8.62,0,0,0-1.45-.51,5.47,5.47,0,0,0-1.28-.2A1,1,0,0,0,272.64,200.29Z" transform="translate(-196.15 -152.72)"/><path class="f92ba4cf-ae7d-4b64-af90-4c1b0106ee3f" d="M288.91,197.86s0,0,.11,0a1.23,1.23,0,0,1,.56.62c.11.28.07.66-.42,1.09a.38.38,0,0,1-.14.09c-1,.06-2,.08-3,.21a5.48,5.48,0,0,0-1.63.43c-.44.21-.66.49-.68.73a6.7,6.7,0,0,0,.17,1.69c.06.3.13.61.2.93l.12.51.08.52c.21,1.36.33,2.65.55,3.89a14.2,14.2,0,0,0,.46,1.79,6.41,6.41,0,0,0,.73,1.56,2.89,2.89,0,0,0,.91.9l.29.18.36.16a4.93,4.93,0,0,0,.52.13,8.69,8.69,0,0,0,2.86-.08c.8-.15,1.34-.26,1.66-.29s.43,0,.39.14a4.5,4.5,0,0,1-1.81,1.14,8,8,0,0,1-2.48.65,5.26,5.26,0,0,1-2.05-.19,5.72,5.72,0,0,1-.68-.28l-.24-.15a4.47,4.47,0,0,1-1.25-1.28,8.86,8.86,0,0,1-.95-2,17.45,17.45,0,0,1-.52-2c-.24-1.35-.37-2.69-.56-3.93l-.07-.46-.1-.45c-.08-.33-.16-.66-.22-1a8.19,8.19,0,0,1-.2-2.24,2.55,2.55,0,0,1,.63-1.39,3.6,3.6,0,0,1,1.08-.8,7.48,7.48,0,0,1,2.18-.59C286.87,197.94,287.92,197.92,288.91,197.86Z" transform="translate(-196.15 -152.72)"/><path class="f92ba4cf-ae7d-4b64-af90-4c1b0106ee3f" d="M282.14,208.76s0,0-.06,0a1.1,1.1,0,0,1-.21-.66,2.69,2.69,0,0,1,.25-1.05s0-.07.05-.08a.74.74,0,0,0,.26,0l.31,0,.42-.07a19.72,19.72,0,0,0,2.29-.56c.84-.24,1.68-.51,2.31-.72l1.06-.35a12.66,12.66,0,0,1,2-.16c.73,0,1,.15.95.33s-.32.43-.68.65a6.8,6.8,0,0,1-.87.48l-.95.47-1,.35c-.63.21-1.48.48-2.34.73a23.64,23.64,0,0,1-2.47.6A7.13,7.13,0,0,1,282.14,208.76Z" transform="translate(-196.15 -152.72)"/></svg>