<svg id="eb6d6153-b726-4f72-8666-22c64dff23bd" data-name="Objects" xmlns="http://www.w3.org/2000/svg" viewBox="0 0 56.39 22.52"><defs><style>.b8f3cb05-1072-445d-88ac-f2a3c88f4cf0{fill:#252525;}</style></defs><path class="b8f3cb05-1072-445d-88ac-f2a3c88f4cf0" d="M589,763.44a.3.3,0,0,1-.24.09,2.75,2.75,0,0,1-1.77-.3c-.56-.35-1-1-.75-2.4a1,1,0,0,1,.13-.35,32.23,32.23,0,0,1,5.7-4A38.74,38.74,0,0,1,605,752.21a52.39,52.39,0,0,1,13.41-.23c1.26.13,2.5.31,3.74.52,0,0,1.52.35,3.52,1a41,41,0,0,1,6.36,2.63,15.9,15.9,0,0,1,3.17,1.94c.53.46.6.72.35.81-.5.2-2.27-.24-4.39-.74.2.11-2.3-.6-4.9-1.08-1.3-.24-2.61-.45-3.6-.56s-1.66-.19-1.66-.19c-1-.16-2-.29-3-.4a48.52,48.52,0,0,0-12.4.21A34.71,34.71,0,0,0,594,759.92,27.64,27.64,0,0,0,589,763.44Z" transform="translate(-586.18 -742.2)"/><path class="b8f3cb05-1072-445d-88ac-f2a3c88f4cf0" d="M623.27,764.67c-.06,0-.09.05-.23.05a3,3,0,0,1-1.71-.41c-.55-.36-1-1-.62-2.46a.94.94,0,0,1,.18-.34,15.37,15.37,0,0,1,3.27-1.87,19.08,19.08,0,0,1,3.55-1,24.57,24.57,0,0,1,3.88-.36c.31,0,.63,0,.95,0h.17l-.39-.44-.08-.1,0-.05-.15-.18-.59-.73-1.18-1.45-.56-.86c-.34-.54-.85-1.29-1.38-2.18-1.07-1.75-2.34-4-3.32-5.88-1.73-3.14-2-4.25-1.51-4.18s1.9,1.35,3.37,3c-.1-.22,1.59,1.85,3.31,3.92.85,1,1.73,2.08,2.39,2.84l.81.93.31.34,1,1.19.48.59.06.07.12.12.24.26.48.5,2.2,2.34c.19.2.34.37.57.6l.64.65,1.29,1.29,1.28,1.3.32.32.16.17.08.08h-.09l-.92-.06-3.69-.24-3.69-.21-.9,0h-1.6a20.48,20.48,0,0,0-3.27.31,13.93,13.93,0,0,0-2.74.79A11,11,0,0,0,623.27,764.67Z" transform="translate(-586.18 -742.2)"/></svg>