<svg id="ffd6c767-dd68-4ef8-ba58-e63232e460e2" data-name="Objects" xmlns="http://www.w3.org/2000/svg" viewBox="0 0 73.7 46">
  <defs>
    <style>
      .a9a646ba-b39e-4806-b1c7-2b9797d59cfa {
        fill: #252525;
      }
    </style>
  </defs>
  <g>
    <g>
      <path class="a9a646ba-b39e-4806-b1c7-2b9797d59cfa" d="M839.3,817.3h.1a.4.4,0,0,1,.5,0c.1,0,.2.2.3.5h0a5.4,5.4,0,0,0-.4,1.5c-.1.3-.1.7-.2,1.1l-.3,1.1-.6,2.1-.2.9-.3.8c-.1.2-.1.5-.2.8l-.3.8c-.5,1.7-.6,1-.5-.2a9.4,9.4,0,0,1,.1-1.2,12,12,0,0,0,.3-1.4l.2-.7.6-2.2.2-1.1a3.6,3.6,0,0,0,.2-1A5.5,5.5,0,0,1,839.3,817.3Z" transform="translate(-802 -781.8)"/>
      <path class="a9a646ba-b39e-4806-b1c7-2b9797d59cfa" d="M837.7,827.7h-.1c-.2,0-.7,0-.6-.7h0l1.2-1.1,6-5.5.6-.6,2.1-1.5c1.4-1,1.1-.4.3.4s-1.8,1.9-1.8,1.9l-.6.6c-2,1.7-3.9,3.6-5.9,5.4Z" transform="translate(-802 -781.8)"/>
      <path class="a9a646ba-b39e-4806-b1c7-2b9797d59cfa" d="M824.8,817.7h0c-.2-.1-.5-.5,0-.9h11.6l2.6.3c1.7.2,1,.4-.1.5a21.1,21.1,0,0,1-2.6.2H824.8Z" transform="translate(-802 -781.8)"/>
      <path class="a9a646ba-b39e-4806-b1c7-2b9797d59cfa" d="M848.4,817.9h-.1c-.2-.1-.5-.4,0-.9H854l2.5.2c1.8.3,1.1.5,0,.6l-2.6.2h-5.5Z" transform="translate(-802 -781.8)"/>
      <path class="a9a646ba-b39e-4806-b1c7-2b9797d59cfa" d="M827.7,794.2h.1a.7.7,0,0,1,.1.5l-.5.3h-.1l-1.4-.4a12.3,12.3,0,0,0-4.7.1,10.8,10.8,0,0,0-4.3,2.1,6,6,0,0,0-.8.8l-.4.5-.4.4a21.2,21.2,0,0,0-1.1,2.1,15.3,15.3,0,0,0-1.1,4.7,9.6,9.6,0,0,0,3.5,8.4,12.2,12.2,0,0,0,4.2,2.3h1l.9.2,1.5.4c1.8.3,1.1.5,0,.5H821l-1.1-.4a13.4,13.4,0,0,1-4.3-2.6,10.3,10.3,0,0,1-2.9-4.2,14,14,0,0,1-.6-5,16.9,16.9,0,0,1,1.3-4.9,15.9,15.9,0,0,1,1.3-2.2,7.3,7.3,0,0,1,1.7-1.8,11.5,11.5,0,0,1,4.6-2.2,12.5,12.5,0,0,1,5.1-.2Z" transform="translate(-802 -781.8)"/>
      <path class="a9a646ba-b39e-4806-b1c7-2b9797d59cfa" d="M827.6,794.2h0a.6.6,0,0,1-.1.4.4.4,0,0,1-.6.1h-.1a4.2,4.2,0,0,1-.4-1.8,11.1,11.1,0,0,1,.4-3.6c.2-.5.4-1.1.7-1.7l.4-.7.6-.7a14.8,14.8,0,0,1,2.5-2.5,12.4,12.4,0,0,1,3.3-1.5,11.2,11.2,0,0,1,7,.3,10,10,0,0,1,2.9,2l.4.5.4.4v.2a1.5,1.5,0,0,1,.4.6l.4.7.3.8c.5,1.7,0,1.1-.5.2s-.3-.5-.7-1l-.6-.7-.3-.3c0-.1-.2-.2-.3-.3v-.2l-.2-.2-.3-.2a7.8,7.8,0,0,0-2.6-1.7,9.7,9.7,0,0,0-6.3-.1,10.4,10.4,0,0,0-5.1,3.7,10.1,10.1,0,0,0-.9,1.3,5.2,5.2,0,0,0-.6,1.5,16.5,16.5,0,0,0-.4,3.1A5.8,5.8,0,0,0,827.6,794.2Z" transform="translate(-802 -781.8)"/>
      <path class="a9a646ba-b39e-4806-b1c7-2b9797d59cfa" d="M846.5,789.3h0c-.3-.1-.7-.3-.3-.9h.1l1.7-.3a8.8,8.8,0,0,1,2.3,0,8.6,8.6,0,0,1,2.3.5,9.6,9.6,0,0,1,3.9,2.6,3.6,3.6,0,0,1,.7,1,1,1,0,0,1,.4.5l.2.5a9.7,9.7,0,0,1,.8,2.2l.3,2.4v.2h0v.2a.7.7,0,0,1-.1.5v.3c0,.2-.1.4-.1.6a8.7,8.7,0,0,1-.7,1.7c-.2.1-.3.3-.4.4l-.3.2c-.2.1-.2.1-.2,0s.2-.4.4-.9a5.8,5.8,0,0,0,.3-1.2,8.3,8.3,0,0,0,.1-1.2v-1.2l-.3-2.1a14.6,14.6,0,0,0-.7-1.9,2.8,2.8,0,0,0-.6-.9l-.6-.8a7.4,7.4,0,0,0-3.5-2.3,6.5,6.5,0,0,0-2-.4,7.4,7.4,0,0,0-2.1,0Z" transform="translate(-802 -781.8)"/>
      <path class="a9a646ba-b39e-4806-b1c7-2b9797d59cfa" d="M856.6,817.8h0c-.3-.1-.7-.4-.3-.9h.1l1.5-.4a8.9,8.9,0,0,0,3.2-2.1,6.7,6.7,0,0,0,1.4-3.6,8.3,8.3,0,0,0-.7-3.8,9.1,9.1,0,0,0-.9-1.7l-.3-.4-.3-.4-.2-.2-.4-.4-.5-.6-.3-.3-.3-.2-.7-.5c-.2-.2-.2-.2-.1-.2s.2-.1.4,0l.7.2.3.2.8.5.8.7.3.3.3.4.4.5a17.4,17.4,0,0,1,1,1.9,10.5,10.5,0,0,1,.7,4.3,6.6,6.6,0,0,1-1.7,3.9,7.4,7.4,0,0,1-3.6,2.4Z" transform="translate(-802 -781.8)"/>
    </g>
    <path class="a9a646ba-b39e-4806-b1c7-2b9797d59cfa" d="M861.9,809.5h.1c.1-.1.3-.4.6,0h0a5,5,0,0,1-.2,1.2,12.3,12.3,0,0,1-1.2,2.6l-.4.5a7.9,7.9,0,0,1-1.2,1.4c-.8.9-.7.4-.3-.2l.5-.8.5-.8.3-.5a8.6,8.6,0,0,0,1.1-2.4A4.3,4.3,0,0,0,861.9,809.5Z" transform="translate(-802 -781.8)"/>
    <path class="a9a646ba-b39e-4806-b1c7-2b9797d59cfa" d="M861.4,807.2c0-.1,0-.1.1-.1s.4-.2.6.3h0l-.6,1.1-1.8,3.7-1,1.9-.4.9a2.1,2.1,0,0,0-.3.7l-.9,1.5c-.7,1.1-.6.6-.4-.2s.7-1.7.7-1.7V815l.2-.4.5-.9.9-1.9,1.8-3.6Z" transform="translate(-802 -781.8)"/>
    <path class="a9a646ba-b39e-4806-b1c7-2b9797d59cfa" d="M860.8,804.7h0c.2-.1.5-.2.6.2h0l-.5,1-2,4.7a16.3,16.3,0,0,0-1.1,2.3l-.6,1.1-.3.6-1,1.5c-.8,1.1-.7.6-.4-.2s.8-1.7.8-1.7l.4-.6.5-1.2c.4-.7.7-1.4,1.1-2.2l2-4.5Z" transform="translate(-802 -781.8)"/>
    <path class="a9a646ba-b39e-4806-b1c7-2b9797d59cfa" d="M859.4,803.6a.1.1,0,0,1,.1-.1c.1-.1.4-.2.5.3s.1.1,0,.1l-.4,1-2.7,5.7-2.3,4.9-1,1.5c-.7,1.1-.6.5-.3-.2s.7-1.7.7-1.7l2.4-4.9,2.5-5.6Z" transform="translate(-802 -781.8)"/>
    <path class="a9a646ba-b39e-4806-b1c7-2b9797d59cfa" d="M857.7,802.1h.1c.1-.1.5-.2.6.3h0l-.6,1.1c-.4.9-.9,1.7-1.3,2.7l-1.3,2.7-1.2,2.8a8.3,8.3,0,0,1-.7,1.3l-.3.7a11.7,11.7,0,0,1-1,1.5c-.7,1.1-.6.6-.3-.2s.7-1.7.7-1.7l.4-.7.6-1.4,1.3-2.7,1.2-2.7,1.3-2.7Z" transform="translate(-802 -781.8)"/>
    <path class="a9a646ba-b39e-4806-b1c7-2b9797d59cfa" d="M858,797.3h0c.1-.1.5-.3.6.2h0l-.3,1.2-2.1,4.3c-.7,1.5-1.3,3-1.9,4.5s-1.3,2.9-2,4.4-.7,1.4-1.1,2.2l-.4.6a11.7,11.7,0,0,1-1,1.5c-.7,1.1-.6.5-.3-.2s.8-1.7.8-1.7l.4-.8,1.1-2.1c.7-1.5,1.3-2.9,1.9-4.4s1.2-2.9,1.9-4.3,1.4-2.8,2-4.3Z" transform="translate(-802 -781.8)"/>
    <path class="a9a646ba-b39e-4806-b1c7-2b9797d59cfa" d="M857.4,794.1h0c.1-.2.3-.4.6-.1a.1.1,0,0,0,.1.1c0,.2-.1.4-.1.6s-.1.4-.1.6a18.9,18.9,0,0,1-1.3,3.3,27.5,27.5,0,0,1-1.7,2.9c-.5,1-1.1,2-1.5,3l-1.5,3.1c-.9,2.1-1.8,4.2-2.9,6.2s-.9,2.1-1.5,3.1l-.4.7-1.1,1.5c-.7,1-.6.5-.3-.3s.8-1.6.8-1.6l.6-1a10.1,10.1,0,0,0,.7-1.5l.8-1.5.7-1.5.7-1.5,1.4-3.1,1.4-3a21.9,21.9,0,0,1,1.6-3l1.6-2.9a12.5,12.5,0,0,0,1.2-3,1.3,1.3,0,0,0,.1-.6A.7.7,0,0,0,857.4,794.1Z" transform="translate(-802 -781.8)"/>
    <path class="a9a646ba-b39e-4806-b1c7-2b9797d59cfa" d="M856.1,792.1h0a.3.3,0,0,1,.6.1h.1a7.6,7.6,0,0,0-.4,1.1c-.6,1.4-1.3,2.7-1.9,4l-2,4-1.9,3.9c-.7,1.3-1.4,2.7-2,4s-2.3,5.4-3.6,8l-.5,1-.6,1-.5.9-.6,1-.5.7-.5.5a6,6,0,0,0-.8.8c-1,.9-.7.4-.3-.3s1.1-1.5,1-1.5l.8-1.1.3-.4.2-.5.6-.9c.4-.6.6-1.3,1-1.9,1.3-2.6,2.3-5.2,3.5-7.9l3.9-7.8,1.9-3.8c.6-1.3,1.3-2.6,1.8-3.9A4.9,4.9,0,0,0,856.1,792.1Z" transform="translate(-802 -781.8)"/>
    <path class="a9a646ba-b39e-4806-b1c7-2b9797d59cfa" d="M854.8,790.8h.1c.1,0,.4-.1.5.4h0l-.5,1-2.2,4.3-2.1,4.3-4.1,8.6c-1.3,2.9-2.6,5.9-4,8.7l-2.4,5.2a11.7,11.7,0,0,1-1,1.5c-.6,1.1-.5.6-.3-.2s.7-1.7.7-1.7l2.6-5.5,3.9-8.5,4-8.6,2.1-4.2,2.2-4.2Z" transform="translate(-802 -781.8)"/>
    <path class="a9a646ba-b39e-4806-b1c7-2b9797d59cfa" d="M853.3,789.4h0a.3.3,0,0,1,.6.1h0l-.3,1.1a47.5,47.5,0,0,1-3.6,6.7,35.9,35.9,0,0,0-1.7,3.4l-1.7,3.3c-1.1,2.3-2.2,4.5-3.2,6.8l-.8,1.7a13.4,13.4,0,0,0-.7,1.8l-.4.8a12.3,12.3,0,0,1-.8,1.5c-.6,1.2-.6.6-.4-.1s.6-1.8.6-1.8l.5-1.1a34.9,34.9,0,0,1,1.5-3.4c1-2.3,2.1-4.5,3.2-6.7l1.6-3.3a34.7,34.7,0,0,1,1.8-3.3,50.7,50.7,0,0,0,3.4-6.5A4.9,4.9,0,0,0,853.3,789.4Z" transform="translate(-802 -781.8)"/>
    <path class="a9a646ba-b39e-4806-b1c7-2b9797d59cfa" d="M851.4,788.7h0c.1-.1.5-.3.6.2h0l-.4,1.1a74.3,74.3,0,0,1-3.5,6.9,54.5,54.5,0,0,0-3.5,6.8l-3,7a14.2,14.2,0,0,1-.8,1.8l-.9,1.7-.4.7a1.5,1.5,0,0,1-.3.5l-.8,1c-.8,1-.6.5-.3-.2l.9-1.7.5-1,.8-1.7.8-1.7c1-2.3,1.9-4.7,3-7s2.2-4.5,3.4-6.7a59.7,59.7,0,0,0,3.5-6.6Z" transform="translate(-802 -781.8)"/>
    <path class="a9a646ba-b39e-4806-b1c7-2b9797d59cfa" d="M848.7,788.4h0a.4.4,0,0,1,.7.1h0c-.1.2-.1.4-.2.6l-.3.5-1.7,3.6c-.5,1.2-1.1,2.3-1.6,3.5l-1.6,3.6-1.6,3.6-5.3,11.5s-.5,1-.9,1.6-.6.6-.3-.2a17.7,17.7,0,0,1,.6-1.7l5.4-11.7,1.6-3.5,1.5-3.6c.5-1.2,1.1-2.3,1.6-3.5l1.7-3.5a.8.8,0,0,0,.2-.5C848.6,788.8,848.6,788.6,848.7,788.4Z" transform="translate(-802 -781.8)"/>
    <path class="a9a646ba-b39e-4806-b1c7-2b9797d59cfa" d="M846.8,788.2h0c.2-.1.5,0,.5.4h0l-.3.4-.3.5-.9,1.7-.9,1.7c-.6,1.2-1,2.4-1.6,3.6l-1.5,3.6-1.5,3.6c-1.1,2.4-2.3,4.7-3.4,7l-2.2,4.3-1,1.5c-.7,1-.6.5-.3-.2a13.4,13.4,0,0,1,.7-1.8l2.3-4.4,3.4-6.9,1.5-3.6c.5-1.1.9-2.3,1.5-3.5l1.5-3.5.9-1.8c.3-.5.5-1.1.9-1.7l.3-.5Z" transform="translate(-802 -781.8)"/>
    <path class="a9a646ba-b39e-4806-b1c7-2b9797d59cfa" d="M845.2,787.3h0c.2-.1.5-.2.6.3h0l-.5,1.1-1.9,3.6c-.7,1.2-1.3,2.4-1.9,3.6l-3.6,7.4-3.6,7.4-2.2,4.5-1,1.5c-.7,1-.6.5-.3-.2a13.4,13.4,0,0,1,.7-1.8l2.4-4.7,3.5-7.2,3.5-7.3c.6-1.2,1.2-2.4,1.9-3.6l1.9-3.6Z" transform="translate(-802 -781.8)"/>
    <path class="a9a646ba-b39e-4806-b1c7-2b9797d59cfa" d="M843.9,785.5h.3c.1-.1.3-.1.3.3h0a5.4,5.4,0,0,1-.5,1.1c-.3.7-.7,1.3-1,2l-1,2.1-2,4-3.9,8.2-3.9,8.2-2.1,4-.4.8-1,1.5c-.8,1-.7.5-.4-.2l.8-1.7.2-.3V815a.8.8,0,0,0,.2-.5c.7-1.3,1.4-2.6,2-4l3.9-8,3.9-8,1.9-4,1-2,1-2Z" transform="translate(-802 -781.8)"/>
    <path class="a9a646ba-b39e-4806-b1c7-2b9797d59cfa" d="M842.4,783.7h.1a.3.3,0,0,1,.6.1h0a3.7,3.7,0,0,1-.5,1.1l-.7,1-.5,1.1a20,20,0,0,0-1,2.1c-.7,1.4-1.3,2.9-1.9,4.3a42.8,42.8,0,0,1-2,4.4l-2.2,4.2-4.2,8.5-2.5,5.1-1,1.5c-.7,1.1-.6.6-.3-.2s.7-1.7.7-1.7l2.7-5.4,2-4.2,2.2-4.2,2.1-4.1,1-2.1.5-1.1.4-1.1c.6-1.4,1.2-2.9,1.9-4.3a20,20,0,0,1,1-2.1c.2-.3.3-.7.5-1a8.6,8.6,0,0,1,.7-1A6.9,6.9,0,0,0,842.4,783.7Z" transform="translate(-802 -781.8)"/>
    <path class="a9a646ba-b39e-4806-b1c7-2b9797d59cfa" d="M839.9,783.1h.1c.1-.1.4-.2.6.2h0l-.5,1-2,4.3L836,793l-4.3,8.4-2.1,4.3c-.7,1.4-1.3,2.8-2,4.3s-1.3,2.8-2,4.3h-.2v.2l-.2.3-1,1.5c-.8,1-.6.5-.3-.2a12.2,12.2,0,0,1,.7-1.7l.2-.3v-.2h.1l.2-.5c.7-1.4,1.4-2.8,2-4.2s1.3-2.9,1.9-4.3l2.1-4.2,4.3-8.3,2-4.1,2-4.3Z" transform="translate(-802 -781.8)"/>
    <path class="a9a646ba-b39e-4806-b1c7-2b9797d59cfa" d="M837.9,782.3h.1c.1-.1.4-.2.6.2h0a11.7,11.7,0,0,0-.5,1.1c-1.3,3-3.2,5.6-4.5,8.6l-2,4.3-2.1,4.4-4,8.9-1,2.1-1.1,2.2-.5.8-1.1,1.5c-.7,1-.6.5-.3-.2l.8-1.7.2-.3h.1v-.3l.3-.5,2.1-4.3,3.9-8.6,2-4.4,2.1-4.3c1.2-2.9,3.2-5.6,4.4-8.4A4.9,4.9,0,0,0,837.9,782.3Z" transform="translate(-802 -781.8)"/>
    <path class="a9a646ba-b39e-4806-b1c7-2b9797d59cfa" d="M835.7,782.5h0c.2-.2.5-.3.7.1h0l-.2.6v.3l-.2.3c-1.1,3-3.2,5.4-4.4,8.2l-3.9,8.4-6.2,13.5-.9,1.5c-.7,1.1-.6.6-.4-.2l.7-1.7,6.3-13.6,3.9-8.3c1.2-2.9,3.3-5.3,4.3-8v-1.1Z" transform="translate(-802 -781.8)"/>
    <path class="a9a646ba-b39e-4806-b1c7-2b9797d59cfa" d="M833.2,783.2h0c.1-.1.4-.4.6,0h.1l-.3,1.2a26,26,0,0,1-2.3,4l-1,2-1,2.1-1.9,4.1-1.7,4.2-3.5,8.4-2.1,4.1-.5.8-.3.5-.8.9c-.8,1-.7.5-.3-.2l.5-.8.4-.8.2-.3v-.4l.3-.5c.7-1.3,1.3-2.6,1.9-4s2.3-5.5,3.5-8.2l1.7-4.2,1.9-4.1.9-2a12.8,12.8,0,0,1,1.1-2,24,24,0,0,0,2.1-3.8Z" transform="translate(-802 -781.8)"/>
    <path class="a9a646ba-b39e-4806-b1c7-2b9797d59cfa" d="M831.2,785.1c0,.1,0,.1-.1.1h-.4v-.4h.5v.3l-.2.5a23.5,23.5,0,0,1-2.1,4.2l-.3.6s-.6.9-.9,1.5-.6.7-.4-.1a.8.8,0,0,1,.1-.3,1.4,1.4,0,0,1,.2-.6l.4-.9.3-.5a39.8,39.8,0,0,0,2.1-4.1V785c0-.1,0-.1.1-.2h.3c.1,0,.3.1.3.2s.1.1.1.2h-.1Z" transform="translate(-802 -781.8)"/>
    <path class="a9a646ba-b39e-4806-b1c7-2b9797d59cfa" d="M825.1,794.6c0-.1,0-.1.1-.1l.2-.2c.1,0,.2-.1.4.2h0a2.7,2.7,0,0,1-.3,1.2,42.8,42.8,0,0,1-2,4.4,13.6,13.6,0,0,0-1,2.1l-1,2.2c-.6,1.4-1.3,2.9-1.9,4.4l-.9,2.2-.3.7s-.4.9-.8,1.6-.6.6-.4-.2l.6-1.8.4-.9.9-2.1c.6-1.5,1.2-2.9,1.9-4.3l.9-2.2.5-1.1.5-1a40,40,0,0,0,2-4.2A5.8,5.8,0,0,0,825.1,794.6Z" transform="translate(-802 -781.8)"/>
    <path class="a9a646ba-b39e-4806-b1c7-2b9797d59cfa" d="M822.9,793.8h0a.5.5,0,0,1,.7.2h0l-.4,1.1a10.4,10.4,0,0,1-.4,1,4.7,4.7,0,0,0-.5,1l-1,2-.5.9-.5,1-.9,2-3,6.7-.9,1.6c-.6,1.1-.6.5-.3-.2a18.9,18.9,0,0,1,.6-1.8l3-6.7.9-2,.5-1,.5-.9,1-1.9.4-1a3.1,3.1,0,0,0,.5-1Z" transform="translate(-802 -781.8)"/>
    <path class="a9a646ba-b39e-4806-b1c7-2b9797d59cfa" d="M820.1,794.7a.1.1,0,0,1,.1-.1c.1-.1.4-.2.6.2h0a5.4,5.4,0,0,1-.5,1.1c-.5.9-1.1,1.7-1.5,2.6l-1.3,2.8-1.2,2.8-.9,2.1-1,1.5c-.7,1.1-.6.6-.3-.2s.7-1.7.7-1.7l.9-2.1,1.2-2.8,1.3-2.7a30,30,0,0,1,1.5-2.6A4.2,4.2,0,0,0,820.1,794.7Z" transform="translate(-802 -781.8)"/>
    <path class="a9a646ba-b39e-4806-b1c7-2b9797d59cfa" d="M816.9,796h0a.4.4,0,0,1,.7.1h0a1.4,1.4,0,0,1-.2.6,1.7,1.7,0,0,0-.2.5l-2.6,5.8-.3.6-.9,1.5c-.7,1.1-.6.6-.4-.2s.7-1.7.7-1.7l.2-.5,2.6-5.8.3-.5C816.9,796.3,816.9,796.2,816.9,796Z" transform="translate(-802 -781.8)"/>
    <path class="a9a646ba-b39e-4806-b1c7-2b9797d59cfa" d="M866.8,804.8h0a.7.7,0,0,1,.2-.6c.1-.2.4-.3.8-.2h.1a7,7,0,0,1,1.1,2.3,12.6,12.6,0,0,1,.4,4.3c0,.5-.1.9-.1,1.4a.4.4,0,0,0-.1.3c-.1.3-.1.6-.2.9a9.4,9.4,0,0,1-1,2.3,4.2,4.2,0,0,1-.7,1.1c-.2.2-.3.2-.3.1a3.7,3.7,0,0,1,.3-1.5l.4-1.7c.1-.5.1-.9.2-1.3v-.6a3.4,3.4,0,0,0,.1-1,10.2,10.2,0,0,0-.4-3.9A8.4,8.4,0,0,0,866.8,804.8Z" transform="translate(-802 -781.8)"/>
    <path class="a9a646ba-b39e-4806-b1c7-2b9797d59cfa" d="M872,801.5h-.1c0-.4,0-1.1.9-.9h.2a14.3,14.3,0,0,1,1.4,2,12.1,12.1,0,0,1,1.4,5.8,22.1,22.1,0,0,1-1.1,5.8l-.4,1.3-.2.3-.4.8a14.3,14.3,0,0,1-1.2,2.1c-1.5,2.1-1.3,1-.7-.4s.3-.8.6-1.7a8.4,8.4,0,0,0,.4-1.2,1.2,1.2,0,0,0,.2-.6l.4-1a25.6,25.6,0,0,0,1-5.4,9.9,9.9,0,0,0-1.2-5.1A6.6,6.6,0,0,0,872,801.5Z" transform="translate(-802 -781.8)"/>
    <path class="a9a646ba-b39e-4806-b1c7-2b9797d59cfa" d="M811.2,791.3h.1c.4-.1,1,.1.8,1H812a7.1,7.1,0,0,0-1.5,1.5l-.5.7c-.2.3-.3.7-.5,1h-.1v.2a5.9,5.9,0,0,1-.4.8,4.2,4.2,0,0,1-.4,1l-.3,1.1c-.4,1.3-.5,1.6-.7,1.5a5.8,5.8,0,0,1-.1-1.6c0,.1.1-.9.3-1.9s.3-.9.4-1.3l.2-.6a6,6,0,0,1,.6-1.1l.5-.8A9.8,9.8,0,0,1,811.2,791.3Z" transform="translate(-802 -781.8)"/>
    <path class="a9a646ba-b39e-4806-b1c7-2b9797d59cfa" d="M811.2,783.8h-.1c-.4-.2-.8-.7-.1-1.3a.1.1,0,0,0,.1-.1h.1c.1.1.1.1.1.2v.2a.1.1,0,0,0,.1.1h-.3a.1.1,0,0,0-.1.1h0c0,.1-.1.1,0,.1h.5l-1.2.8a12.7,12.7,0,0,0-3.9,4.1,24.5,24.5,0,0,0-2.4,5.2l-.3,1.3a.8.8,0,0,1-.1.3l-.3.8-.6,2.3c-.6,2.4-.8,1.4-.8-.2,0,.1.1-.9.2-1.8s.3-2,.3-2l.3-1.1a25.3,25.3,0,0,1,2.5-5.6,16.7,16.7,0,0,1,4.3-4.5l1.4-.8h.6l.3.2h.1a.1.1,0,0,1,.1.1h.1a.6.6,0,0,1,0,.6l-.3.2-.5.2Z" transform="translate(-802 -781.8)"/>
  </g>
</svg>
