<svg id="e2e658d8-48a3-481f-b11b-bbf44e52bf27" data-name="Objects" xmlns="http://www.w3.org/2000/svg" viewBox="0 0 53.8 57.8">
  <defs>
    <style>
      .b8b05798-735e-4702-aecb-ac06bb34fd5b {
        fill: #252525;
      }
    </style>
  </defs>
  <g>
    <path class="b8b05798-735e-4702-aecb-ac06bb34fd5b" d="M849.5,270.3h0c-.2.2-.5.5-1,0h0V250.1a24.9,24.9,0,0,1,.3-2.6c.2-1.9.4-1.1.5,0l.2,2.7v20.1Z" transform="translate(-848.5 -212.8)"/>
    <path class="b8b05798-735e-4702-aecb-ac06bb34fd5b" d="M848.9,247.4h-.1c-.2-.1-.5-.5,0-.9H854l2.6.2c1.9.2,1.1.4,0,.6l-2.7.2h-5Z" transform="translate(-848.5 -212.8)"/>
    <path class="b8b05798-735e-4702-aecb-ac06bb34fd5b" d="M856.6,247.5h0c.2-.3.5-.6,1,0h0v9.4s-.1,1.5-.3,2.6-.4,1.1-.5,0-.2-2.7-.2-2.7v-9.3Z" transform="translate(-848.5 -212.8)"/>
    <path class="b8b05798-735e-4702-aecb-ac06bb34fd5b" d="M857.6,261.6h-.1a.6.6,0,0,1,0-1h34.1l2.6.2c1.8.2,1.1.5,0,.6l-2.7.2H857.6Z" transform="translate(-848.5 -212.8)"/>
    <path class="b8b05798-735e-4702-aecb-ac06bb34fd5b" d="M895.3,260.9h0c-.2.2-.5.5-1,0h0V249.3s.1-1.6.3-2.7.4-1,.5.1l.2,2.7v11.5Z" transform="translate(-848.5 -212.8)"/>
    <path class="b8b05798-735e-4702-aecb-ac06bb34fd5b" d="M894.8,247h0c-.3-.1-.6-.5,0-.9h3.3l2.6.3c1.8.2,1.1.4-.1.5a21.3,21.3,0,0,1-2.7.2h-3.1Z" transform="translate(-848.5 -212.8)"/>
    <path class="b8b05798-735e-4702-aecb-ac06bb34fd5b" d="M901.3,246.9h0c.1-.2.5-.5.9,0h.1v17.5s-.1,1.5-.3,2.6-.4,1.1-.5-.1a21.3,21.3,0,0,1-.2-2.7V246.9Z" transform="translate(-848.5 -212.8)"/>
    <path class="b8b05798-735e-4702-aecb-ac06bb34fd5b" d="M849.5,270.7h-.1c-.2-.1-.5-.5,0-.9h47.7l2.6.2c1.8.2,1.1.5,0,.6l-2.7.2H849.5Z" transform="translate(-848.5 -212.8)"/>
    <path class="b8b05798-735e-4702-aecb-ac06bb34fd5b" d="M867.6,238.2h0c-.1.2-.5.6-.9,0a.1.1,0,0,1-.1-.1V216.9a24.9,24.9,0,0,1,.3-2.6c.2-1.8.4-1.1.5,0a22.8,22.8,0,0,1,.2,2.7v21.2Z" transform="translate(-848.5 -212.8)"/>
    <path class="b8b05798-735e-4702-aecb-ac06bb34fd5b" d="M867.1,213.9H867c-.2-.1-.5-.5,0-.9h12.9l2.6.3c1.9.2,1.1.4,0,.6l-2.7.2H867.1Z" transform="translate(-848.5 -212.8)"/>
    <path class="b8b05798-735e-4702-aecb-ac06bb34fd5b" d="M883.8,238.1h0c-.2.3-.5.6-1,.1h0V219.3s.1-1.5.3-2.6.4-1.1.5,0l.2,2.7v18.7Z" transform="translate(-848.5 -212.8)"/>
    <path class="b8b05798-735e-4702-aecb-ac06bb34fd5b" d="M866.9,238h.1c.2.2.5.5,0,1h-2.9l-2.6-.3c-1.8-.2-1.1-.4.1-.5l2.7-.2h2.6Z" transform="translate(-848.5 -212.8)"/>
    <path class="b8b05798-735e-4702-aecb-ac06bb34fd5b" d="M883.6,238.6h0a.7.7,0,0,1,0-.9h4.5l1.3.2c.8.2.5.5,0,.6l-1.3.2Z" transform="translate(-848.5 -212.8)"/>
    <path class="b8b05798-735e-4702-aecb-ac06bb34fd5b" d="M860.2,239s-.1,0,0-.1.2-.7.8-.4h0a11.3,11.3,0,0,0,1,1.3l11.1,12.7s.9,1.2,1.5,2.2.4,1.1-.5.3l-1.8-2-.3-.3-.5-.6-1.5-1.6-2.9-3.4-3-3.3-1.4-1.7-1.5-1.7A7.1,7.1,0,0,1,860.2,239Z" transform="translate(-848.5 -212.8)"/>
    <path class="b8b05798-735e-4702-aecb-ac06bb34fd5b" d="M889.3,237.8h.1a.5.5,0,0,1,.7.5h0l-1,1.3c-2.1,2.5-4,5-6.1,7.4l-5.3,6.2a18.5,18.5,0,0,1-1.9,1.8c-1.3,1.3-1,.6-.4-.3s1.6-2.2,1.6-2.2l5.4-6.3,5.9-7.2Z" transform="translate(-848.5 -212.8)"/>
  </g>
</svg>
