<svg id="a6d93f96-1557-4a06-83b7-3c8396b1d2a6" data-name="Objects" xmlns="http://www.w3.org/2000/svg" viewBox="0 0 102.1 77.7">
  <defs>
    <style>
      .bdb8980c-961f-457f-80f1-8f16f868e5db {
        fill: #252525;
      }
    </style>
  </defs>
  <g>
    <g>
      <path class="bdb8980c-961f-457f-80f1-8f16f868e5db" d="M539.1,230h.6v.4h0l-1.1,1-.9.9-.4.4-.4.5a7.6,7.6,0,0,0-.8,1.1l-.7,1.1-.6,1.1a6.1,6.1,0,0,1-.5,1.2,5,5,0,0,0-.2,1.2v1.1a1.1,1.1,0,0,1-.1.5,7.8,7.8,0,0,1-.2,1.4c-.2,1.6-.4,1-.4,0a17.7,17.7,0,0,1-.1-2.4v-.9a6.5,6.5,0,0,1,.4-1.3l.5-1.2a13.4,13.4,0,0,1,.6-1.2l1.5-2.2.4-.5.5-.5.9-1Z" transform="translate(-482.4 -187.3)"/>
      <path class="bdb8980c-961f-457f-80f1-8f16f868e5db" d="M533.3,242.6h0c.2.2.4.5-.1.8h-1.4a10.2,10.2,0,0,0-3.4.6,11.1,11.1,0,0,0-3,1.7,11.2,11.2,0,0,0-3.7,5.8,12.5,12.5,0,0,0,.1,6.9,7.3,7.3,0,0,0,1.9,2.8l.4.3.3.3.6.6.5.5.4.6c.9,1.3.4.9-.3.3l-.9-.7-.9-.7-.3-.3h-.2l-.2-.2-.3-.3a7,7,0,0,1-1.9-3.2,11.4,11.4,0,0,1-.5-3.7,14.9,14.9,0,0,1,.5-3.6,11.8,11.8,0,0,1,4.1-6,9.2,9.2,0,0,1,3.2-1.8,8.8,8.8,0,0,1,3.6-.6h1.5Z" transform="translate(-482.4 -187.3)"/>
      <path class="bdb8980c-961f-457f-80f1-8f16f868e5db" d="M525.9,263.7h0c.2.1.5.4,0,.8H499.4l-2.3-.2c-1.5-.2-.9-.4.1-.5l2.3-.2h26.4Z" transform="translate(-482.4 -187.3)"/>
      <path class="bdb8980c-961f-457f-80f1-8f16f868e5db" d="M539.7,229.9h-.1c-.1.2-.4.4-.8,0h0a5.7,5.7,0,0,0-.1-1.3,10,10,0,0,0-1.3-3.4,16.9,16.9,0,0,0-2.1-3.1,22.3,22.3,0,0,0-2.6-2.7l-1.5-1.2-1.6-1a19.5,19.5,0,0,0-7.1-2.1,24.2,24.2,0,0,0-7.6,0,21.6,21.6,0,0,0-6.9,2.7,17.5,17.5,0,0,0-5.2,5.3l-.5.8a3.6,3.6,0,0,0-.4.9c-.3.5-.5,1.1-.8,1.7s-.3,1.2-.5,1.8-.2,1.2-.4,1.8v.3h0v.6s-.3,1.3-.4,2.2-.4.9-.5-.1v-2.9h0v-.3l.2-.9a17,17,0,0,1,2.9-7.1,18.5,18.5,0,0,1,5.6-5.2,20.8,20.8,0,0,1,7.2-2.6,24.9,24.9,0,0,1,7.7.1,16.3,16.3,0,0,1,3.7.8,27.5,27.5,0,0,1,3.6,1.5l.8.5.8.6,1.5,1.1a23.7,23.7,0,0,1,2.7,2.8,22,22,0,0,1,2.1,3.2,14.9,14.9,0,0,1,1.4,3.7C539.6,228.9,539.7,229.4,539.7,229.9Z" transform="translate(-482.4 -187.3)"/>
      <path class="bdb8980c-961f-457f-80f1-8f16f868e5db" d="M499.2,233.9h.1a.5.5,0,0,1,.1.8.1.1,0,0,1-.1.1l-1.4.2a19.5,19.5,0,0,0-5.8,1.3,15.7,15.7,0,0,0-4.9,3.1,13.1,13.1,0,0,0-3.9,10.6,15.2,15.2,0,0,0,1.7,5.6,14.7,14.7,0,0,0,3.6,4.6,14.4,14.4,0,0,0,5.1,2.9l1,.2.8.2,1.4.4c1.5.3.9.4-.1.5l-2.4-.3h-.9l-.8-.3a15.9,15.9,0,0,1-10.3-13.9,14.2,14.2,0,0,1,4.4-11,17.2,17.2,0,0,1,5.1-3.3,29.6,29.6,0,0,1,5.9-1.3Z" transform="translate(-482.4 -187.3)"/>
      <g>
        <path class="bdb8980c-961f-457f-80f1-8f16f868e5db" d="M563.2,263.3h0c.2.1.5.4,0,.7H539.1l-2-.2c-1.4-.2-.9-.4,0-.5h26.1Z" transform="translate(-482.4 -187.3)"/>
        <path class="bdb8980c-961f-457f-80f1-8f16f868e5db" d="M563,264h0c-.2-.1-.4-.4,0-.7h1.3a9.8,9.8,0,0,0,6-3.8,8.8,8.8,0,0,0,1.6-3.2,10.9,10.9,0,0,0,.1-3.6,7.9,7.9,0,0,0-1.3-3.3l-.3-.4-.3-.3-.6-.7-.7-.5-.8-.5a8.5,8.5,0,0,0-3.4-1.1h-.9l-2-.3c-1.5-.2-.9-.4,0-.5h3.4a9.2,9.2,0,0,1,3.6,1.3,9,9,0,0,1,2.8,2.7,7.8,7.8,0,0,1,1.3,3.6,10.3,10.3,0,0,1-.2,3.9,9.1,9.1,0,0,1-1.7,3.4,11.1,11.1,0,0,1-6.5,4Z" transform="translate(-482.4 -187.3)"/>
        <path class="bdb8980c-961f-457f-80f1-8f16f868e5db" d="M561.5,244.8h0c-.1.2-.4.4-.7-.1h-.1a8.4,8.4,0,0,0,.1-1.2v-1.4c0-.3-.1-.6-.1-.8a14,14,0,0,0-1.3-3.4,11.6,11.6,0,0,0-2.5-2.9l-.8-.6-.4-.2-.4-.3-.9-.4-1-.3a2.9,2.9,0,0,0-1-.3l-1-.2h-4.2l-1,.2-1,.2a11.1,11.1,0,0,0-6.5,5.3,11.2,11.2,0,0,0-1.4,4,16.2,16.2,0,0,0-.1,2.2,3.4,3.4,0,0,0,.1,1V247h-4.7a8.5,8.5,0,0,0-3.7,1.5,7.7,7.7,0,0,0-2.2,3.1,9.5,9.5,0,0,0-.8,3.7,7.6,7.6,0,0,0,.5,3.4,7.5,7.5,0,0,0,2,2.6,13.8,13.8,0,0,0,2.7,1.4l.7.2.7.2h2.1l1.3.2c1.4.2.8.4-.1.4h-2.4l-.9-.2-2.8-.9a11.5,11.5,0,0,1-2.6-1.9,6.9,6.9,0,0,1-1.8-3.1,12,12,0,0,1-.1-3.8,10.5,10.5,0,0,1,1.2-3.8,8.3,8.3,0,0,1,2.8-3.1,10.1,10.1,0,0,1,4.2-1.1h3v-.2a12.1,12.1,0,0,1,1.7-8.7,12.3,12.3,0,0,1,7.2-5.2h6.5l1,.2,1.1.4,1.9.8.9.6.4.3.4.3a13.1,13.1,0,0,1,2.5,3.2l.4.8a3.6,3.6,0,0,1,.4.9c0,.2.1.3.2.5v.4a2.9,2.9,0,0,0,.2.9,13.7,13.7,0,0,1,.2,1.9v.3A10.9,10.9,0,0,1,561.5,244.8Z" transform="translate(-482.4 -187.3)"/>
        <path class="bdb8980c-961f-457f-80f1-8f16f868e5db" d="M572.7,253h-.1c-.1.1-.3.1-.3-.2h0v-.3l.4.2-.2.4-.8,1.8-.8,1.9-.8,1.9-.4,1-.2.4-.5.9c-.4.7-.4.3-.2-.1s.4-1.1.4-1.1l.2-.4a3.6,3.6,0,0,1,.4-.9l.7-1.9.8-1.9.9-1.8v-.4l.4.2Z" transform="translate(-482.4 -187.3)"/>
        <path class="bdb8980c-961f-457f-80f1-8f16f868e5db" d="M571.5,250.8h.1c0-.1.2-.2.3.1h0l-.2.6c-.4.9-.9,1.7-1.2,2.6l-1.1,2.7c-.4.9-.7,1.8-1.1,2.6l-.6,1.3-.2.5-.6.9c-.5.6-.4.3-.2-.2a6.9,6.9,0,0,1,.4-1v-.2l.2-.3.6-1.3,1.1-2.6,1-2.6c.3-.9.8-1.7,1.2-2.6Z" transform="translate(-482.4 -187.3)"/>
        <path class="bdb8980c-961f-457f-80f1-8f16f868e5db" d="M570.9,249.1h0a.2.2,0,0,1,.4.1h0l-.3.6-.7,1.7c-.2.6-.5,1.2-.7,1.7l-1.7,3.3-1.6,3.3-.9,2.1a7.9,7.9,0,0,1-.6,1c-.4.6-.3.3-.2-.1l.4-1.1,1-2.2,1.6-3.3,1.6-3.2,1.4-3.3Z" transform="translate(-482.4 -187.3)"/>
        <path class="bdb8980c-961f-457f-80f1-8f16f868e5db" d="M569.8,248h0c.1-.1.2-.3.4,0h.1a2.4,2.4,0,0,1-.2.8c-.5,1.3-1.5,2.4-2.1,3.6l-1.8,3.8-1.7,3.9-1.1,2.3a7.9,7.9,0,0,1-.6,1c-.4.6-.3.3-.2-.1l.4-1.1,1.2-2.5,1.7-3.8c.5-1.2,1.2-2.5,1.7-3.7s1.6-2.4,2.1-3.6A1.3,1.3,0,0,0,569.8,248Z" transform="translate(-482.4 -187.3)"/>
        <path class="bdb8980c-961f-457f-80f1-8f16f868e5db" d="M568.6,247.1h.1c.1-.1.3-.1.3.1h0l-.3.6-4,8-1,2-.9,2a20,20,0,0,1-1,2.1l-.2.4-.5,1c-.4.6-.4.3-.2-.1s.4-1.1.4-1.1l.3-.6.9-2,.9-2,1-2,3.9-7.9Z" transform="translate(-482.4 -187.3)"/>
        <path class="bdb8980c-961f-457f-80f1-8f16f868e5db" d="M567.4,246.2h0c.1-.1.3-.2.4.1h0l-.3.7c-.7,1.5-1.7,2.7-2.4,4.1s-1.5,2.8-2.1,4.3l-1,2.1-1,2.2-.9,2.2-.2.5a4.2,4.2,0,0,1-.5,1c-.3.6-.3.3-.2-.1l.4-1.1.2-.7.9-2.2,1-2.1,1-2.1c.6-1.5,1.4-2.8,2.1-4.2s1.7-2.7,2.3-4.1Z" transform="translate(-482.4 -187.3)"/>
        <path class="bdb8980c-961f-457f-80f1-8f16f868e5db" d="M565.8,245.8h0c.1-.1.3-.2.4.1h0l-.3.7c-.7,1.5-1.8,2.7-2.5,4.2l-1,2.2a15.1,15.1,0,0,0-1.1,2.2l-1.9,4.4-1.1,2.3-.2.4a4.3,4.3,0,0,1-.6.9c-.5.6-.4.3-.2-.1l.2-.5c.1-.1.1-.3.2-.4h.1l.3-.7a14.7,14.7,0,0,0,1-2.2l1.9-4.4,2.1-4.3c.7-1.4,1.8-2.7,2.4-4.1S565.7,246,565.8,245.8Z" transform="translate(-482.4 -187.3)"/>
        <path class="bdb8980c-961f-457f-80f1-8f16f868e5db" d="M564,245.2h0c.1-.1.3-.1.4.2h0l-.3.6-4.7,9.2c-.7,1.6-1.5,3.1-2.2,4.6l-.6,1.2-.5,1.2-.3.4-.7.9c-.5.6-.4.3-.2-.1l.3-.5c.1-.1.1-.3.2-.4h.1l.3-.7a16.3,16.3,0,0,0,1.1-2.3l2.2-4.5,4.6-9.1Z" transform="translate(-482.4 -187.3)"/>
        <path class="bdb8980c-961f-457f-80f1-8f16f868e5db" d="M562,245.2h.1c.1,0,.3-.1.3.2h0l-.3.7-4.4,9.1-2.3,4.6a24,24,0,0,1-1.1,2.3l-.3.4a4.3,4.3,0,0,1-.6.9c-.4.7-.4.4-.2-.1a9.3,9.3,0,0,0,.5-1l.4-.7c.4-.7.7-1.5,1.1-2.2l2.2-4.5,4.3-9Z" transform="translate(-482.4 -187.3)"/>
        <path class="bdb8980c-961f-457f-80f1-8f16f868e5db" d="M561,244.1h0c.1,0,.3,0,.3.2h0l-.3.6c-1.7,3.1-3.4,6.2-4.9,9.5l-2.2,4.9-1.2,2.4-.3.5-.6.8c-.5.6-.4.3-.2-.1s.5-1,.5-1v-.2h.1l.2-.3a24,24,0,0,0,1.1-2.3l2.2-4.8c1.5-3.2,3.1-6.4,4.8-9.4Z" transform="translate(-482.4 -187.3)"/>
        <path class="bdb8980c-961f-457f-80f1-8f16f868e5db" d="M560.4,241.2h0c.1-.1.2-.2.4,0h0c-.1.3-.1.5-.2.8a15.1,15.1,0,0,1-1.3,2.9l-.8,1.4-.8,1.4-3,5.7c-.4,1-1,1.9-1.4,2.9l-1.2,3c-.4,1-.9,2-1.3,2.9l-.3.5-.2.4-.4.5c-.5.6-.4.3-.2-.1l.2-.5a1.5,1.5,0,0,0,.3-.5v-.2h.1c.1-.1.1-.3.2-.4l1.2-2.9,1.2-2.9,1.5-2.8,2.9-5.7.7-1.4.8-1.3a18.5,18.5,0,0,0,1.3-2.9C560.3,241.6,560.3,241.4,560.4,241.2Z" transform="translate(-482.4 -187.3)"/>
        <path class="bdb8980c-961f-457f-80f1-8f16f868e5db" d="M560,239.3h0c.1-.1.3-.1.4.2h0l-.3.6c-2.3,4.1-4.5,8.2-6.7,12.3a30.7,30.7,0,0,1-1.7,3.1l-1.4,3.2-1.7,3.7a4.3,4.3,0,0,1-.6.9c-.4.7-.3.4-.2-.1a10.4,10.4,0,0,0,.4-1l1.8-4,1.5-3.1,1.6-3.1,6.6-12.1Z" transform="translate(-482.4 -187.3)"/>
        <path class="bdb8980c-961f-457f-80f1-8f16f868e5db" d="M559,237.3h0c.1,0,.3-.2.4.1h0c0,.2-.1.3-.1.4l-.2.3c-.3.6-.8,1.1-1.1,1.6l-.9,1.7-1.8,3.5-3.7,6.8-1.8,3.4c-.6,1.2-1.1,2.4-1.7,3.5s-1.1,2.4-1.6,3.5l-.2.4v.2a4.3,4.3,0,0,1-.6.9c-.3.3-.4.3-.4.2l.2-.4.3-.4.2-.5v-.2l.3-.7c.5-1.2,1.1-2.3,1.6-3.5l3.4-6.8c1.2-2.3,2.6-4.5,3.7-6.7l1.8-3.4.9-1.7c.3-.6.8-1.1,1.1-1.6v-.3A.4.4,0,0,0,559,237.3Z" transform="translate(-482.4 -187.3)"/>
        <path class="bdb8980c-961f-457f-80f1-8f16f868e5db" d="M557.6,236.2h0c.1,0,.3-.1.4.2h0l-.3.7c-1.1,2.4-2.6,4.7-3.9,7a23.7,23.7,0,0,0-1.9,3.5c-.6,1.2-1.3,2.3-1.8,3.5l-1.7,3.7-1.7,3.6-.9,1.8a16.2,16.2,0,0,1-1,1.8l-.3.5-.2.3a2.1,2.1,0,0,1-.4.6c-.1.1-.2.3-.3.2s0-.1,0-.1h0a.3.3,0,0,0,.1-.2,1.5,1.5,0,0,1,.3-.5c0-.2.1-.3.1-.4v-.2l.5-.9c.7-1.1,1.2-2.3,1.8-3.4s1.1-2.4,1.6-3.6l1.7-3.6,1.8-3.5.9-1.8,1-1.7c.6-1.1,1.3-2.2,2-3.3l1-1.7.8-1.8Z" transform="translate(-482.4 -187.3)"/>
        <path class="bdb8980c-961f-457f-80f1-8f16f868e5db" d="M556.9,234.9h0c.1-.1.3-.1.4.2h0c-.1,0-.2.3-.4.6l-1.6,2.1-1.9,2.9-.5.7-.5.9-.9,1.6c-.5,1.1-1.1,2.2-1.7,3.4l-3.3,6.8-2.8,5.8-1.2,2.5-.5,1c-.4.6-.4.3-.2-.2a6.9,6.9,0,0,1,.4-1l1.3-2.9c1.6-3.4,3.9-7.9,6.1-12.4a58.7,58.7,0,0,1,3.5-6.6l2-2.8c.5-.8,1-1.4,1.4-2.1Z" transform="translate(-482.4 -187.3)"/>
        <path class="bdb8980c-961f-457f-80f1-8f16f868e5db" d="M555.6,233.8h.1c.1-.1.3-.1.3.1h0l-.3.5-.6,1-.9,1.4-1.9,3c-1.3,2.1-2.5,4.5-3.8,6.9l-1.8,3.5c-.5,1.2-1.1,2.3-1.6,3.5s-1.1,2.2-1.6,3.2a10.1,10.1,0,0,1-.7,1.5c-.2.5-.5.9-.7,1.4l-.6,1.3-.6.9h-.1v.2l-.7.8c-.4.7-.4.3-.2-.1l.5-1h.1c.1-.1.1-.3.2-.4l1.3-2.3c.9-1.8,1.8-3.9,2.8-6.1s1.1-2.2,1.7-3.4,1.1-2.3,1.8-3.5,2.4-4.6,3.7-6.8l2-3a6.4,6.4,0,0,0,.8-1.4,2.2,2.2,0,0,0,.5-.8Z" transform="translate(-482.4 -187.3)"/>
        <path class="bdb8980c-961f-457f-80f1-8f16f868e5db" d="M554.4,233.1h0c.2,0,.3.1.2.3h-.1l-.3.2-.2.3-.5.6-.9,1.4a33.7,33.7,0,0,0-1.9,3.2c-1.3,2.3-2.5,4.7-3.8,7.1l-3.7,7.1-1.7,3.3c-.5,1.1-.9,2.1-1.4,3s-.3.9-.5,1.3l-.3.7c0,.1-.1.2-.1.3h0a.3.3,0,0,0-.1.2v.2l-.2.3a1.2,1.2,0,0,1-.5.5c-.5.6-.4.3-.2-.1a1.4,1.4,0,0,0,.3-.5l.2-.3v-.2h.2a.3.3,0,0,0,.1-.2,24.1,24.1,0,0,1,1.1-2.5c.4-1,.9-1.9,1.3-3s1.1-2.1,1.7-3.2l3.6-7.1,3.8-6.9.9-1.7a13,13,0,0,0,1-1.5,7.1,7.1,0,0,1,1-1.4,4.3,4.3,0,0,1,.4-.7h.2Z" transform="translate(-482.4 -187.3)"/>
        <path class="bdb8980c-961f-457f-80f1-8f16f868e5db" d="M552.7,232.4h.1c.1,0,.3,0,.3.3h0l-.4.5-.6,1-.9,1.5c-.7,1-1.3,2.1-2,3.3s-2.6,4.9-3.9,7.4l-2,3.7c-.7,1.2-1.4,2.4-2,3.6s-2.1,4.6-3,6.5l-.6,1.4-.6,1v.2h0l-.7.9c-.5.6-.4.3-.2-.2l.3-.4a.5.5,0,0,1,.2-.4v-.2a.1.1,0,0,0,.1-.1l.2-.4,1.3-2.5c.8-1.9,1.7-4.2,2.9-6.5s2.7-4.7,4-7.2,2.6-5,3.9-7.3l1.9-3.3.9-1.5.6-.8Z" transform="translate(-482.4 -187.3)"/>
        <path class="bdb8980c-961f-457f-80f1-8f16f868e5db" d="M550.8,232.2h0c.1,0,.3,0,.3.3h0l-.3.5-.2.2c-.1.3-.3.5-.4.8a9.9,9.9,0,0,0-.9,1.5l-2,3.3-2.1,3.4-2,3.7c-1.4,2.5-2.7,4.9-3.9,7.3s-2,4.6-3,6.5-.5.9-.7,1.3l-.5,1H535v.2l-.3.3-.4.5c-.6.6-.5.3-.2-.1l.2-.5.3-.3v-.2h.1l.3-.4.6-1.2c.2-.4.5-.8.7-1.3s1.8-4,2.9-6.4l3.8-7.2,2-3.6,2.1-3.4c.7-1.1,1.4-2.2,2-3.3l.9-1.5a4.3,4.3,0,0,0,.4-.7h.1Z" transform="translate(-482.4 -187.3)"/>
        <path class="bdb8980c-961f-457f-80f1-8f16f868e5db" d="M549,232.1h0c.1-.1.3-.2.4.1h0l-.3.6v.3a2.5,2.5,0,0,1-.4.7,8.3,8.3,0,0,1-.9,1.6c-.6,1.1-1.3,2.1-2,3.2a39.6,39.6,0,0,0-2.2,3.4c-.7,1.2-1.4,2.4-2,3.7l-8.4,16.2a4.3,4.3,0,0,1-.6.9c-.4.7-.4.4-.2-.1a10.4,10.4,0,0,0,.4-1s4.3-8.2,8.5-16.5a189619752432659.9,189619752432659.9,0,0,0,2-3.6l2.2-3.4c.8-1.1,1.5-2.1,2.1-3.1l.8-1.6.3-.7v-.2Z" transform="translate(-482.4 -187.3)"/>
        <path class="bdb8980c-961f-457f-80f1-8f16f868e5db" d="M547.1,232.3h0c.1-.1.3-.2.4.1h0l-.3.7h0v.2l-.4.7-1,1.5-2,3.1-1.9,3.5c-.7,1.2-1.3,2.5-1.9,3.7l-3.8,7.2-1.7,3.3-.8,1.5a10,10,0,0,0-.8,1.4l-.8,1.2-.3.6c-.1.1-.2.2-.2.3h0v.4l-.2.3-.3.6c-.3.7-.3.4-.2-.1a2.5,2.5,0,0,1,.4-1.1h0a.8.8,0,0,0,.2-.4l1.5-2.4c.3-.4.5-.9.8-1.4l.8-1.5c.5-1,1.1-2.1,1.6-3.2l3.7-7.1c.7-1.2,1.3-2.4,1.9-3.6l2-3.4,1.9-3.2,1-1.4.4-.7h.1A3.2,3.2,0,0,1,547.1,232.3Z" transform="translate(-482.4 -187.3)"/>
        <path class="bdb8980c-961f-457f-80f1-8f16f868e5db" d="M544.9,232.8h0c.1-.1.2-.2.4,0h0a1.2,1.2,0,0,1-.2.6h0c0,.1-.1.1-.1.2l-.4.7-.9,1.4a13,13,0,0,0-1,1.5l-1,1.5-.9,1.7a2.2,2.2,0,0,0-.5.8,3.6,3.6,0,0,0-.4.9l-1.8,3.5-1.8,3.6-1.8,3.3c-.5,1.1-1.1,2.2-1.6,3.2l-1.6,2.8c-.8,1.5-1.4,2.4-1.4,2.4l-.7.9c-.4.6-.4.3-.2-.1l.6-1v-.2l.3-.3.6-1.1.7-1.2c1-1.7,2-3.7,3.2-5.9s2.3-4.5,3.4-6.8l1.8-3.5.4-.9a3.5,3.5,0,0,0,.5-.8c.3-.6.7-1.1,1-1.6s1.3-2.1,1.9-3.1l.9-1.3.4-.7h0c.1-.2.1-.3.2-.4Z" transform="translate(-482.4 -187.3)"/>
        <path class="bdb8980c-961f-457f-80f1-8f16f868e5db" d="M542.4,233.7h.4l-.3.7c-.8,1.5-1.8,3-2.7,4.5l-1.4,2.3-.9,1.6-.7.8c-.4.7-.3.4-.2-.1l.5-1,1-1.6,1.4-2.2c.9-1.5,1.8-3,2.6-4.5A1.1,1.1,0,0,0,542.4,233.7Z" transform="translate(-482.4 -187.3)"/>
        <path class="bdb8980c-961f-457f-80f1-8f16f868e5db" d="M535.7,246.6h.1c.1,0,.3-.1.3.1h0l-.3.6a4.1,4.1,0,0,1-.5.9l-.6.8-.6.8-.5.8-2,3.4-1.9,3.5-.9,1.8-.3.5s0,.1-.2.3l-.4.5c-.5.6-.4.3-.2-.1l.2-.5.2-.3v-.2l.3-.6.9-1.7,1.9-3.5c.6-1.1,1.3-2.2,2-3.3a37.8,37.8,0,0,1,2.2-3.3Z" transform="translate(-482.4 -187.3)"/>
        <path class="bdb8980c-961f-457f-80f1-8f16f868e5db" d="M533.6,247h0c.1,0,.3-.2.4,0h.1l-.3.7-.9,1.4-.9,1.4-1.8,2.8a21,21,0,0,0-1.5,3l-.8,1.5-.2.4-.2.3-.5.6c-.6.5-.4.2-.2-.2l.3-.5.2-.5h.1c.1-.1.1-.1.2-.4l.8-1.5c.2-.4.4-.9.7-1.4a3,3,0,0,1,.4-.8l.4-.7,1.7-2.8.9-1.4a6,6,0,0,0,.9-1.3A1.4,1.4,0,0,0,533.6,247Z" transform="translate(-482.4 -187.3)"/>
        <path class="bdb8980c-961f-457f-80f1-8f16f868e5db" d="M531.4,247.2h0c.1-.1.2-.3.4,0h0a1.9,1.9,0,0,1-.2.8l-.3.5h-.1l-2.4,3.9-1.3,1.9-.6.9-.2.3-.2.4-.4.6c-.4.6-.3.3-.2-.2l.5-1,.2-.4.6-1,1.3-1.8,2.4-3.8h0l.3-.6C531.3,247.5,531.4,247.4,531.4,247.2Z" transform="translate(-482.4 -187.3)"/>
        <path class="bdb8980c-961f-457f-80f1-8f16f868e5db" d="M529.4,247.8h0c.1-.1.2-.3.4,0h0a.8.8,0,0,1-.2.8c-.4.8-1,1.3-1.4,2l-1.3,1.9-.7.8c-.5.6-.4.3-.2-.1l.6-1,1.3-1.9c.4-.7,1-1.2,1.4-1.9A1.3,1.3,0,0,0,529.4,247.8Z" transform="translate(-482.4 -187.3)"/>
      </g>
      <path class="bdb8980c-961f-457f-80f1-8f16f868e5db" d="M533,241.2h0c-.1.1-.3.1-.3-.3h0l.4-.3.2-.2.2-.2h.1c0-.1.6.6.3.4h-.1l-.2.3-.4.5a6.1,6.1,0,0,1-.7,1l-.4.5H532c.4.2-.4-.3-.3-.3h0v-.5l.6-1.1v-.3h.1l.3.2h0v.2l-.5.4-.7.7-1,.8h0v-.4l.3-.5.4-1.1h.2l.2-.3.3-.5.6-1.1.6-1.1h0l.4.2h-.1l-.2.3-.3.5-.8,1a8.6,8.6,0,0,1-.7,1l-.9,1h0l-.3.3h-.1c.3.3-.5-.3-.4-.2h.1v-.2l.4-.9a8.6,8.6,0,0,1,1-1.6,34.5,34.5,0,0,1,2-3.2h0l.4-.6.2-.3h0l.4.3h-.2l-.8,1.2-1.4,2.3a11.4,11.4,0,0,1-1.5,2.3l-.5.6-.2.2h-.2l-.2.2-.5.4-.5.3h-.1v-.3a1.4,1.4,0,0,0,.2-.6h0l.5-1.2.5-1,.6-1,.6-.9.6-.9.6-.9,1.3-1.7c.9-1.2,1.8-2.3,2.6-3.5a18.8,18.8,0,0,0,1.2-1.8h.1c-.1-.1.7.5.4.2h-.2v.2l-.4.4a2.7,2.7,0,0,1-.7.8c-1.7,2.3-3.3,4.8-5,7.1l-1.3,1.8-.7.8-.7.8-.4.5v.2h-.1c.3.3-.5-.3-.4-.2h0V242l.6-.9,1.2-1.8h0c2.1-3,4.4-5.9,6.4-9l1.5-2.3h.1l.4.3H538l-.3.3-.4.5-.8,1c-1.1,1.5-2,3.1-3.1,4.6h0a114.4,114.4,0,0,1-7.5,9.4l-2,2.2-.2.2-.2.2h.1l.3-.7.7-1.3.6-1.2.3-.7.8-1.2c1-1.8,2.2-3.4,3.3-5h0l4.6-6.3a9.1,9.1,0,0,0,1.1-1.6l.6-.8h.1l.2-.2h-.1l-.6.7a40.1,40.1,0,0,0-4.2,6.5,36.2,36.2,0,0,1-2.2,3.2l-2.3,3.2-2.3,3.1-2.2,3.2-2.1,3.2-1,1.7-1.1,1.6c-1.5,2.1-3,4.2-4.3,6.4l-.9,1.7-.9,1.7-.4-.2h.3l.3-.4.6-.8,1.1-1.6c1.4-2.1,2.7-4.4,4.2-6.5l1.2-1.5.3-.4h.2l.3-.3,1.1-1.3.6-.7.3-.3H522v.2l-.8,1.8-1,2.1-1.8,3.4-2,3.4-1.1,1.6-.5.8h-.1l-.3-.3v-.2l.4-.3a23.7,23.7,0,0,0,2.5-2.9l2-3.3a14,14,0,0,0,1-1.6l.6-.8.3-.4h0l.4.2h0v.2a64.7,64.7,0,0,1-3.6,6.9l-.9,1.7v.2h-.1l-.4-.2h.1l.3-.4.6-.7,2.3-3.1.6-.8h.1l.4.3h-.1v.2c-.1.1-.1.3-.2.4l-.9,1.8-.9,1.7-.2.5h.1l.3-.3.6-.6.5-.6.3-.3v-.2h.1l.4.2h-.1l-.3.8-.4.8h0l.2-.3,1-1.3h.1l.4.2h-.1v.6c-.2.4-.2.2-.2.3h.2l.5-.4h.1c.1-.1.1,0,0,0h0a3.6,3.6,0,0,0-.2,1v.5h0c-.2-.1.3.3-.4-.2h.1c.1-.1.2-.1.2-.2l.4-.2h.3l.3-.3.4-.3c.1-.1,0,.1,0,.1v.3a.6.6,0,0,1-.1.4v.4h.4l.3-.5h.1v1.2h.2l.4.2c.8.3.4.3-.1.2h-1c-.1,0,0-.1,0-.1v-.2h0v-.2h0l-.5.2-.4.2h-.2v-.3a.8.8,0,0,0,.1-.4h0l-.3.2c-.2,0-.2.1-.3.2h-.1l-.4-.3h.1v-.2h.2l-.6.4-.6.5-.3.3h0c-.1,0-.1.1-.1,0h.1l.6-1.3.2-.4h.1v-.3l.2-.4h0l.4.2h0v.2l-.5.6-.5.5-.3.4-.3.3-.2.2-1,.8-.3.2h0l.3-.5.3-.6.3-.6.3-.5c.1-.1.2-.2.2-.3s.3-.5.3-.7l.2-.4h0c.2.1-.3-.3.4.2h-.1l-1,1.1-.5.6-.3.3-.5.4h-.1l-.7.6h0v-.7l.2-.4c0-.1,0-.2.1-.2v-.2l.2-.4.9-1.8.9-1.7c.1-.1.1-.3.2-.4V257h0c.2.1-.3-.3.4.2h-.1l-.6.7a36.2,36.2,0,0,0-2.2,3.2l-.7.7-.3.4h0c-.8-.5-.2-.2-.4-.3h.1v-.2l.9-1.7a64.7,64.7,0,0,0,3.6-6.9v-.2h0l.4.2h-.1l-.2.4-.6.8-1,1.7a35.3,35.3,0,0,1-2.1,3.2,12.1,12.1,0,0,1-2.5,3l-.4.4h-.1c-.2-.1.3.4-.4-.2h.1l.5-.8,1.1-1.7c.6-1.1,1.3-2.2,2-3.3l1.8-3.4.6-1.4h0v.2h-.3l-.2.3-1.2,1.6c-1.5,2.1-2.8,4.3-4.3,6.5l-1.1,1.6-.6.7-.3.4v.2H512c-.8-.5-.2-.1-.4-.3l.9-1.7.9-1.7c1.3-2.2,2.9-4.4,4.3-6.5l1.1-1.6,1-1.6,2.1-3.3,2.3-3.2,2.3-3.1,2.3-3.1,2.1-3.3a45,45,0,0,1,4.2-6.5,4.6,4.6,0,0,1,.7-.7l1.1-1.1.4-.2h.2v.2a3.4,3.4,0,0,1-.4,1l-.3.3c-.1.1-.2.3-.3.3v.2h-.1l-.6.8-1.1,1.6-4.6,6.2h0a53.9,53.9,0,0,0-3.3,5l-.8,1.3-.3.6v.2h0a95.3,95.3,0,0,0,7.5-9.3c1.1-1.5,2-3.1,3.1-4.6l.8-1.1.5-.5.2-.3h.1l.4.3H538l-1.5,2.4-6.4,9h0l-1.2,1.8-.6.9h-.1c.1.1-.7-.5-.3-.3h0l.2-.2.4-.4.7-.8.6-.8,1.3-1.7c1.7-2.4,3.3-4.8,5.1-7.1l.7-.9.3-.4.2-.2h.1l.4.3h-.1l-1.2,1.8c-.8,1.2-1.7,2.3-2.6,3.5a10.9,10.9,0,0,0-1.3,1.7l-.7.9-.5.9-.6.9-.5.9a3.1,3.1,0,0,0-.5,1l-.4.8h.2l.3-.2.4-.5a18.8,18.8,0,0,0,1.6-2.3l1.3-2.4a10.5,10.5,0,0,1,.8-1.1v-.2h.1l.4.3h0l-.2.3-.4.5h0c-.7,1.1-1.4,2.1-2,3.2a14,14,0,0,0-1,1.6l-.4.9v.2h-.1c.1,0-.7-.5-.3-.3h.1l.3-.3h0l.8-.9.8-1a8.6,8.6,0,0,1,.7-1l.4-.6v-.2h.1c.8.5.3.2.4.3h0l-.6,1.1-.6,1.1-.6,1v.3h0c0-.1-.1,0,.1-.2l.4-.4v-.2h.1l.4.3H533v.3l-.6,1.2v.4h0c.1.1-.7-.5-.4-.2h.1l.4-.5.7-1,.3-.5.2-.3h.2l.3.3h-.1l-.3.2c0,.1-.1.1-.1.2Z" transform="translate(-482.4 -187.3)"/>
      <path class="bdb8980c-961f-457f-80f1-8f16f868e5db" d="M537.4,223.8h0c.2,0,.4,0,.3.3h0l-.4.2h-.5l-.7.6-.7.6-.6.7a32.5,32.5,0,0,0-2.3,2.9c-1.5,2-2.8,4.1-4.1,6.2s-2.8,4.1-4.2,6.2l-8.3,12.4a32.8,32.8,0,0,0-2,3.1c-.7,1-1.3,2.1-2,3.2a15.4,15.4,0,0,1-2.2,3l-.3.4c-.7-.6-.2-.3-.3-.4h.1v-.2l.6-.7,1.2-1.4a116.4,116.4,0,0,0,8.3-12.4h0c1.4-2.4,2.8-4.8,4.3-7.2s3-4.7,4.4-7.2,2.7-4.8,4-7.3a11.4,11.4,0,0,1,1-1.9,4.1,4.1,0,0,1,.5-.9,4.7,4.7,0,0,1,.6-.9l.6-.9h.2l.4.2v.8a16.7,16.7,0,0,1-.8,2c-6.2,9.4-12.4,18.7-18.8,27.9h0c-1.6,2.4-3,4.8-4.7,7.1a41.9,41.9,0,0,1-2.6,3.3v.2l-.4-.3h.1v-.3l.3-.4.6-.9,1.2-1.8c.7-1.2,1.5-2.3,2.3-3.5l1.2-1.8,1-1.8c1.5-2.4,2.7-5,4-7.5,2.6-5,5.1-10.2,8.3-14.8,1.6-2.4,3.4-4.6,5-6.9a4.7,4.7,0,0,0,.6-.9l.6-.8,1.2-1.8h0l.3.3h-.2v.2l-.4.3a2.7,2.7,0,0,0-.7.8,6.6,6.6,0,0,0-1.2,1.7h0c-.8,1.2-1.4,2.5-2.1,3.8l-2.1,3.9-4.2,7.6c-2.8,5.1-5.9,10.1-9,15a44.7,44.7,0,0,1-5.1,7.2,11.4,11.4,0,0,1-1.6,1.5l-1.4,1.2-.4.4H506V264l.5-1,.6-1.3.5-.9,1.1-1.9c1.5-2.6,3.2-5,4.7-7.4s2.9-5.1,4.3-7.6h0l8.7-15.6,4.7-7.6,1.2-1.8v-.3h.1l.4.2h0l-.3.5-.6.9-2.2,3.9c-5.8,10.4-11.1,21-18.1,30.7l-1.3,1.8-1.5,1.6-2.9,3.4-.7.9-.3.4-.2.2v.2h0l-.4-.3h.1l1.1-1.9c.8-1.3,1.6-2.6,2.3-3.9,3-5.1,5.7-10.3,8.5-15.6s5.6-10.5,8.6-15.6l2.4-3.7.7-1,.3-.4.4-.4.7-.9.4-.4.5-.3h.3l.2-.2.2-.2h0l.2-.2.2-.3v1.4c0,.1-.1.1-.1.2v.2a.8.8,0,0,1-.2.5,12.8,12.8,0,0,1-1.1,2l-2.5,3.7h0c-3.3,5.1-6.6,10.1-9.9,15.3-1.6,2.5-3.2,5.1-5,7.6s-3.4,4.9-5.2,7.4-3.6,4.9-5.3,7.4l-.3.5-.2.2h0l-.4-.3h.1l.6-1,1.2-1.9,2.4-3.9c3.3-5.1,6.4-10.3,9.5-15.5h0l9-15.4,4.5-7.7v-.2h0v.2h-.2l-1.3,1.7-.6,1-.6.9c-1.5,2.6-2.6,5.4-3.9,8-.2.3-.3.7-.5,1l-.6,1-1.1,1.9-1.1,1.9-1.2,1.9-2.3,3.8-2.5,3.7-5,7.4-5.1,7.9-1.4,1.9-.7,1-.2.2H500l-.3-.3h0l.3-.5,2.5-4,9.9-16.1,4.9-8,2.5-4,1.2-2,1.3-2a46.1,46.1,0,0,0,2.8-3.8,16.2,16.2,0,0,0,2.2-4.1,5.5,5.5,0,0,0,.2-2.2v-.2h-.2l-.8.8a16.3,16.3,0,0,0-2.4,4h0c-.7,1.4-1.3,2.8-2.1,4.3s-1.5,2.8-2.3,4.1l-4.7,8.4-4.9,8.2c-1.6,2.7-3.2,5.5-5,8.1a60.7,60.7,0,0,0-4.8,8.2v.3h0l-.4-.2h.1l.4-.5.7-.9,1.4-2,2.4-4.1c1.6-2.7,3-5.6,4.6-8.4l2.3-4.1,2.6-4.1,2.5-4,1.2-2,1.2-2.1,2.4-4.1c.8-1.4,1.6-2.8,2.3-4.2a14.3,14.3,0,0,0,1.5-4.4c.1-.4.1-.8.2-1.2V216h-.1l-.4.4-.4.4-.4.5a19.9,19.9,0,0,0-2.5,3.9c-.7,1.4-1.4,2.9-2,4.3s-.7,1.5-1.1,2.2a21.2,21.2,0,0,1-1.1,2.1l-2.3,4.2-2.3,4.2-1.1,2.1-1.2,2-4.8,8.3c-1.7,2.7-3.4,5.4-5,8.1h0l-2.5,4.1-.6,1v.4h-.1l-.4-.3.4-.5,1.2-2,5-8,5-8.1,4.8-8.1c.8-1.4,1.6-2.7,2.3-4.1l2.3-4.2,1.2-2a11.3,11.3,0,0,1,1.2-2.1c.8-1.3,1.7-2.6,2.4-4a14.3,14.3,0,0,0,.8-2.2,5.5,5.5,0,0,0,.2-2.2v-.2h-.2l-.3.4-.4.5-1.2,2-2.3,4.1-2.1,4.2c-1.5,2.8-3.1,5.6-4.7,8.3l-2.3,4.2-2.3,4c-1.6,2.8-3.2,5.5-4.7,8.3s-2.9,5.6-4.5,8.3l-.7,1a6.1,6.1,0,0,1-.7,1l-.7.9-.3-.2h0v-.2l.2-.2.3-.5,1.2-2c.4-.7.9-1.4,1.2-2l2.4-4.2,2.3-4.1,9.4-16.4h0l4.6-8.3c.8-1.4,1.6-2.8,2.3-4.2a41.7,41.7,0,0,0,1.9-4.4,3.6,3.6,0,0,0,.2-1.1v-.2l-.4.2a7.9,7.9,0,0,0-1.4,1.8c-.9,1.4-1.6,2.8-2.4,4.2l-2.1,4.3c-.7,1.4-1.5,2.8-2.3,4.2l-4.5,8.4-.6,1-.6,1-1.2,2.1-2.4,4.1-2.4,4.1c-.8,1.4-1.7,2.8-2.6,4.1l-2.8,3.8-1.3,2-.6,1.1-.3.5h0v.2h0l.4-.4.3-.5.8-.9c.9-1.3,1.7-2.6,2.5-4s2.9-5.7,4.5-8.4c3-5.7,6.3-11.1,9.7-16.5l1.2-2a23.9,23.9,0,0,0,1.3-2.1l2.8-3.8a23.8,23.8,0,0,0,2.3-4.1,9.8,9.8,0,0,0,.6-2.3v-.5h-.2a1.8,1.8,0,0,0-.9.4,3,3,0,0,0-.8.8l-.7,1-1.3,2-1.1,2.1-1.1,2.1-4.5,8.4h0c-1.5,2.8-3.1,5.5-4.7,8.3l-4.5,8.4a83,83,0,0,1-4.9,8.1l-1.4,2-.8.9-.4.5-.2.2h0c-.2-.1.4.2-.4-.1h0V262a1.4,1.4,0,0,1,.2-.6.8.8,0,0,1,.2-.5l.3-.6h.2v-.3l1.1-2.1,2.2-4.2,1.1-2.1a22.5,22.5,0,0,1,1.2-2.1l4.8-8.2,9.7-16.4c1.6-2.7,3.3-5.4,4.6-8.2l.5-1.1.3-.5v-.2h.1c-.4,0,.5-.2.4.2h-.1v.2l-1.3,2.1-2.5,4-2.6,4-1.3,2h-.4c-.3-.3-.1-.3-.1-.3h0v-.2l.3-.5.3-.5v-.3h.3c.2.3.2,0,.2.1h-.1v.2l-.2.2-.3.5-.6,1-1.2,2.1-2.5,4-9.6,16.5c-1.6,2.7-3.3,5.4-5.1,8l-1.5,1.9-.7.9-.2.3h-.1c0,.1-.7-.5-.4-.2h0l.4-.5,2.5-4h0l2.6-3.9,2.5-4.1,4.9-8.1c1.6-2.7,3.2-5.4,4.9-8l2.5-4.1c.8-1.3,1.8-2.6,2.7-3.9a31.2,31.2,0,0,0,4.7-8.1l.3-1.1V215h-.2a3.8,3.8,0,0,0-1.7,1.4l-1.4,1.8a24.3,24.3,0,0,0-1.4,2c-3.5,5.2-6.1,11-9.1,16.5l-2.4,4.1c-.9,1.3-1.7,2.7-2.5,4s-3.2,5.5-5,8.1l-1.3,2-.7.9-.7,1-.7.9-.4.5-.4.4-1.3,1.6-.8.8-.4.5-.2.2h-.1c0,.1.1,0,.1-.1l2-3.7A22.5,22.5,0,0,1,491,256l2.4-4,4.8-8.2,2.4-4.1c.8-1.3,1.7-2.6,2.5-4l1.3-2,1.4-1.9,2.7-3.9a82.6,82.6,0,0,0,5.6-7.6,17.7,17.7,0,0,0,2.1-4.1c.1-.4.3-.8.4-1.1h0l-.4.3-.4.4-.4.4-.4.4a33,33,0,0,0-2.6,3.9l-2.4,4.1-5,8-4.8,8.2-2.4,4.1-2.6,3.9a37.7,37.7,0,0,1-2.6,3.9l-2.8,3.9a3.4,3.4,0,0,1-.8.9l-.2.3-.5.3c-.4.5-.2-.2-.2-.5v-1.4l.7-1,.7-.9.2-.2.2-.3.3-.5,1.3-1.9.7-1,.6-1,1.2-2.1,2.4-4,2.4-4.1c.8-1.3,1.6-2.7,2.3-4.1l2.3-4.1.3-.6h.1c.1.1-.2-.4.2.3H504l-.2-.4h.1l.7-.9,1.5-1.9a81.9,81.9,0,0,0,5.4-7.7l.6-1,.5-1h0v.2l-.5.3a13,13,0,0,0-1.5,1.8l-1.4,1.9-1.3,1.9a24.3,24.3,0,0,0-1.4,2l-2.5,4-2.3,4.1-2.3,4.2c-.7,1.4-1.5,2.7-2.3,4.1l-2.4,4.1-5.2,7.9h0l-1.3,2-.7.9-.4.4-.3.3-.4.4h-.2v-.8c-.1-.2,0-.3,0-.4s.1-.2.1-.3a3.7,3.7,0,0,1,.5-1.1l.9-2.2c1.5-2.8,3.3-5.4,4.9-8l5.2-7.8,1.3-2,.7-.9v-.3h.1l.4.3h-.1l-.5.4-1.7,1.6-1.5,1.8c-3.9,4.8-6.4,10.7-10.5,15.5l-.8.9h-.1c-.2-.1.4.3-.4-.2h.1v-.2l.2-.6a20,20,0,0,1,1-2.1c.8-1.4,1.6-2.7,2.5-4s3.6-5.1,5.4-7.7h0a23.9,23.9,0,0,0,1.3-2.1l.7-1.1.3-.6h.1c-.3-.3.4.3.3.2h0l-.2.2a40.3,40.3,0,0,0-3.4,3.7c-2.1,2.7-4,5.5-6,8.2a15.6,15.6,0,0,1-1.6,2l-.8,1-.4.5h0l-.4-.3h0V251a31.4,31.4,0,0,1,2.5-4.4c2-2.8,4.1-5.5,6-8.3l.7-1.1h0l-.4.3-.9.9c-1.1,1.3-2,2.7-3.1,4.1s-2,2.7-3.1,4l-.4.5-.3.2a.3.3,0,0,0-.1.2l-.3.2-.9.8h-.1v-.3l.2-.5.4-1c0-.2.1-.3.1-.4l.2-.3.7-1.1c.9-1.4,2.1-2.7,3.1-4a8.6,8.6,0,0,1,.7-1l.4-.6V239h.1c.1.1-.3-.4.3.2H490a15.3,15.3,0,0,0-1.8,1.8c-1.1,1.2-1.9,2.7-3.1,4l-.2.2h-.1l-.4-.2h.1l.2-.6.3-.6.4-.6,1.5-2h0l.6-.7c.1-.3.3-.5.4-.8a2.5,2.5,0,0,0,.4-.7h.1l.3.2h-.4l-.4.2-.4.4c-.6.5-.4.2-.1-.2l.4-.6h.4l.2-.2h0c.7.5.2.1.4.2h0l-.4.7a33.2,33.2,0,0,1-2.6,3.6,11.4,11.4,0,0,0-1,1.9c.1,0-.7-.4-.3-.3h.1l.2-.2.4-.4.6-.9a41.9,41.9,0,0,1,2.8-3.4l.8-.8.4-.3c0-.1.7.5.4.3h-.1v.2l-.2.2-1.2,1.8c-.9,1.2-1.9,2.3-2.7,3.5a4.7,4.7,0,0,0-.6.9l-.6.9v.2h0l.3-.3a.8.8,0,0,1,.4-.4l.6-.9c.5-.5.9-1.1,1.4-1.7l1.3-1.8,1.3-1.7,1.4-1.8a5.8,5.8,0,0,1,1.6-1.5h.3l.5-.2.4-.2c.1-.1,0,0,0,.1v.2a13.1,13.1,0,0,1-.7,1.3l-1.2,1.9-2.6,3.5a57.4,57.4,0,0,0-4.8,7.3l-.5,1v.2h0c-.7-.5-.2-.2-.3-.3h.1l.3-.4,1.4-1.7,2.6-3.5c1.7-2.4,3.4-4.8,5.3-7.1l1.4-1.6.8-.8.4-.4h.1l.4.3h0l-.2.3a37.2,37.2,0,0,1-2.2,3.8h0c-1.8,2.6-3.7,5-5.5,7.6s-1.7,2.6-2.4,4a20,20,0,0,0-1,2.1l-.2.5v.3h0c-.8-.5-.3-.2-.4-.3h.1l.8-.9c4-4.8,6.5-10.6,10.5-15.5l1.5-1.8,1.7-1.6.5-.4h.1l.3.3h0v.4l-.7,1-1.3,1.9c-1.7,2.7-3.5,5.2-5.2,7.8a84.6,84.6,0,0,0-4.8,8,14.7,14.7,0,0,0-1,2.2c-.2.3-.3.7-.5,1a.4.4,0,0,1-.1.3v.2h.2l.3-.4.8-.9,1.2-2h0l5.2-7.9,2.4-4.1c.8-1.3,1.6-2.7,2.3-4.1s1.5-2.8,2.3-4.1l2.3-4.1,2.5-4.1,1.4-1.9,1.3-2,1.4-1.9a13.7,13.7,0,0,1,1.6-1.8l.5-.4.3-.2.5-.3.5-.2.2-.2v.3l-.5,1-.6,1.1-.6,1a68.8,68.8,0,0,1-5.5,7.8l-1.4,1.8-.7,1h-.1l-.2-.4h.2c.4.7.1.2.2.4h-.1l-.3.5-2.3,4.1c-.7,1.4-1.5,2.8-2.3,4.1l-2.4,4.1-2.4,4.1-1.2,2-.6,1-.7,1-1.3,2-.3.5-.2.2-.2.3-.7.9a8.6,8.6,0,0,0-.7,1,.3.3,0,0,1-.1.2h0v.4h-.1l.2-.2a3.6,3.6,0,0,0,.8-.9l2.7-3.8,2.7-3.9,2.5-4c.9-1.3,1.6-2.7,2.4-4l4.8-8.2,5-8.1,2.4-4a35.1,35.1,0,0,1,2.7-4l.4-.4.4-.5.4-.4.6-.4.5-.4c.1-.1.4-.4.3,0l-.3,1.1-.3,1.1a24.9,24.9,0,0,1-2.2,4.3c-1.7,2.7-3.7,5.1-5.6,7.6l-2.8,3.8-1.3,2-1.3,2c-.8,1.3-1.7,2.6-2.5,4l-2.4,4-4.8,8.2c-.8,1.4-1.7,2.7-2.5,4s-.8,1.4-1.1,2.1l-.3.4h.1l.2-.3.4-.4.3-.5.7-.9.8-.9.6-1,1.4-2c1.7-2.6,3.3-5.3,4.9-8s1.7-2.7,2.5-4l2.4-4.1c3-5.5,5.6-11.3,9.1-16.6a13.3,13.3,0,0,1,1.4-1.9l1.4-1.9a4.6,4.6,0,0,1,2-1.6h.9l-.2.9-.3,1.2a30.9,30.9,0,0,1-4.8,8.2c-.9,1.3-1.8,2.5-2.6,3.9l-2.5,4c-1.7,2.7-3.3,5.4-4.9,8.1l-4.9,8.1-2.5,4-2.6,4-2.6,4-.3.5h0c.3.3-.5-.3-.4-.2h.2v-.3l.8-.9,1.4-1.9c1.8-2.6,3.5-5.3,5.1-8l9.6-16.4,2.5-4.1,1.2-2,.6-1,.3-.5.2-.3h.4c.2-.1.2.5.1.3h0v.4l-.3.5-.3.5v.2h0c.1,0-.2-.2-.2-.1s-.3-.2-.2-.2h.1v-.2a21.4,21.4,0,0,1,1.3-1.9l2.5-4.1,2.5-4,1.3-2,.2-.3h0c-.2.3.8.2.4.2h-.1l-.3.6-.5,1.1a83.6,83.6,0,0,1-4.6,8.3l-9.7,16.3-4.8,8.2a22.5,22.5,0,0,0-1.2,2.1l-1.1,2.1-2.2,4.2-1.1,2.1v.3c-.1.1-.1.1-.1.2h-.1l-.3.5a.8.8,0,0,0-.2.5c-.1.2-.2.3-.2.5v.2h0l-.4-.2h0l.2-.2.4-.5.7-.9,1.4-1.9a84.5,84.5,0,0,0,4.9-8.2l4.5-8.3c1.6-2.8,3.2-5.5,4.7-8.3h0l4.5-8.4,1.1-2.2,1.1-2,1.3-2.1.7-.9.9-1a3.3,3.3,0,0,1,1.2-.5h.6c0,.1.1,0,.1.1v1a15.5,15.5,0,0,1-.6,2.3,28.6,28.6,0,0,1-2.4,4.2l-2.8,3.9a13.7,13.7,0,0,0-1.3,2l-1.2,2c-3.4,5.4-6.7,10.9-9.7,16.5-1.6,2.7-2.9,5.6-4.5,8.4a35.4,35.4,0,0,1-2.6,4.1l-.7.9-.4.5-.4.5-1.6,1.7c-.2.3-.1,0,0-.1l.2-.5.4-1.1.2-.5v-.2a.3.3,0,0,0,.1-.2l.3-.5.6-1.1,1.3-2,2.8-3.9a34.2,34.2,0,0,0,2.6-4l2.4-4.1,2.4-4.1,1.2-2.1.6-1,.6-1.1,4.5-8.4,2.3-4.1,2.1-4.3c.8-1.4,1.5-2.9,2.4-4.2a5.5,5.5,0,0,1,1.5-1.9.9.9,0,0,1,.7-.3l.4.2a.6.6,0,0,1,.1.4,2.7,2.7,0,0,1-.2,1.3,41.7,41.7,0,0,1-1.9,4.4c-.7,1.4-1.5,2.8-2.3,4.2l-4.6,8.3h0l-9.4,16.4-2.3,4.2-2.4,4.1-1.2,2-1.2,2-.4.5v.3h-.1l-.4-.3.7-.9.6-1,.7-.9c1.6-2.7,3-5.6,4.5-8.4l4.7-8.2,2.3-4.1,2.3-4.1c1.6-2.8,3.2-5.5,4.6-8.3l2.2-4.2,2.4-4.1a11.3,11.3,0,0,1,1.2-2.1l.3-.4a1,1,0,0,1,.4-.5l.3-.3.2-.2h.2l.3.9a4.8,4.8,0,0,1-.1,2.4,15.7,15.7,0,0,1-.9,2.3c-.7,1.4-1.6,2.7-2.4,4.1a13.2,13.2,0,0,0-1.2,2l-1.2,2.1-2.3,4.1c-.7,1.4-1.5,2.8-2.3,4.1l-4.8,8.2-5,8-5,8.1-1.3,2-.3.5c.4.2-.5-.3-.4-.3h.2v-.2l.6-1.1,2.5-4h0c1.6-2.7,3.3-5.4,5-8.1l4.8-8.3,1.2-2,1.1-2.1,2.3-4.2,2.3-4.2a21.2,21.2,0,0,0,1.1-2.1,20,20,0,0,0,1-2.1c.7-1.5,1.3-3,2.1-4.4a17.2,17.2,0,0,1,2.6-4l.4-.5.4-.4.4-.4.5-.4.2-.2h.1v1.7c0,.4-.1.8-.1,1.2a17.9,17.9,0,0,1-1.6,4.6c-.7,1.5-1.5,2.8-2.3,4.2l-2.4,4.1-1.2,2.1-1.2,2-2.6,4.1-2.5,4-2.3,4.2c-1.6,2.7-3,5.6-4.6,8.4l-2.5,4.1-1.3,1.9-.8,1-.3.4v.2h-.1l-.3-.2h0v-.3a55.1,55.1,0,0,1,4.8-8.2c1.8-2.7,3.4-5.4,5-8.2l4.9-8.2,4.7-8.3c.8-1.4,1.6-2.7,2.3-4.1s1.3-2.9,2-4.3h0a15.9,15.9,0,0,1,2.6-4.1,3,3,0,0,1,.8-.8l.3-.3.5-.3.2.9a5.2,5.2,0,0,1-.3,2.5,16.8,16.8,0,0,1-2.2,4.2l-2.8,3.8a21.4,21.4,0,0,0-1.3,1.9l-1.2,2-2.5,4-4.9,8.1-9.9,16-2.5,4-.3.5h0c-.2-.1.3.3-.4-.2h0v-.4l.7-.9,1.4-1.9c1.8-2.6,3.4-5.3,5.2-7.9l4.9-7.4,2.5-3.7,2.4-3.8c.3-.6.8-1.2,1.1-1.9l1.1-1.9,1.1-1.9.6-1c.2-.3.3-.7.5-1,1.3-2.6,2.4-5.4,3.9-8l.6-1,.6-.9,1.3-1.8h.1l.2-.2.3-.4.8-.7,1.4-1.5h.1v.2l-.3.5-.5.9-1,1.8-4.5,7.7-9,15.4h0c-3.1,5.1-6.2,10.4-9.5,15.5l-2.4,3.8-1.2,1.9-.6,1h-.1l-.4-.3h.1v-.2l.3-.5c1.8-2.5,3.6-4.9,5.3-7.4s3.6-4.9,5.3-7.4l5-7.6q4.8-7.6,9.9-15.3h0l2.4-3.7a11.8,11.8,0,0,0,1.1-1.9.8.8,0,0,0,.2-.5h0l-.5.3-.3.3-.8.9-.3.4-.4.4-.6.9-2.4,3.8c-3,5-5.8,10.3-8.6,15.5s-5.5,10.5-8.5,15.7c-.7,1.3-1.5,2.5-2.3,3.8l-1.2,1.9h0l-.4-.3h.1l.2-.2.4-.5.7-.9,2.9-3.3,1.4-1.7,1.4-1.8c6.9-9.6,12.2-20.3,18-30.6l2.2-3.9.6-.9.3-.5h0c.8.5.2.1.4.2v.4l-1.2,1.9-4.7,7.6-8.7,15.5h0c-1.4,2.5-2.8,5.1-4.3,7.6s-3.2,4.9-4.7,7.4l-1.1,1.9-.5.9c-.1.3-.4.8-.3.7h0l.2-.2,1.5-1.5a43.9,43.9,0,0,0,5.1-7.1c3.1-5,6.2-9.9,9-15l4.2-7.7,2.1-3.8c.7-1.3,1.3-2.6,2.1-3.9h0l1.2-1.7.7-.8.5-.4.2-.2h.1l.4.3h-.1l-1.1,1.8-.6.9-.6.9c-1.7,2.3-3.4,4.5-5,6.8a143.4,143.4,0,0,0-8.3,14.8c-1.3,2.5-2.5,5.1-4,7.5l-1.1,1.9-1.1,1.7-2.4,3.6-1.1,1.8-.6.8-.3.5v.2h-.1l-.4-.3h.1a29.7,29.7,0,0,0,2.7-3.3c1.6-2.2,3.1-4.7,4.6-7h0c6.4-9.3,12.7-18.6,18.8-27.9a7.3,7.3,0,0,0,.7-1.9l.2-.5v-.3l.4.2h-.1l-.6.8a4.7,4.7,0,0,0-.6.9,4.1,4.1,0,0,0-.5.9,11.4,11.4,0,0,0-1,1.9c-1.3,2.5-2.5,5-4,7.4s-3,4.7-4.4,7.1-2.9,4.9-4.3,7.3h0c-2.6,4.2-5.3,8.4-8.3,12.4l-1.2,1.4-.6.7-.2.2h0c-.2-.1.2.4-.4-.2l.3-.4a16.1,16.1,0,0,0,2.1-3l2-3.1c.6-1.1,1.3-2.1,2-3.2l8.4-12.3c1.3-2.1,2.8-4.1,4.1-6.2s2.6-4.3,4.1-6.3a21.7,21.7,0,0,1,2.4-2.9l.6-.7.7-.6.7-.6.2-.2h.4Z" transform="translate(-482.4 -187.3)"/>
      <path class="bdb8980c-961f-457f-80f1-8f16f868e5db" d="M512.9,215.7h0v-.2c0-.1,0-.2.2-.2h.1c.1.1.2.4.1.5v.5h-.2l-.4.5-.9.8-.4.4-.3.5-.7,1c-1.8,2.6-3.4,5.4-5.2,8.1l-1.4,2-.7.9-.7,1-.6.6-.4.5h-.1v-2a10.9,10.9,0,0,1,.7-2.4c1.1-3,3.1-5.6,5-8.2l1.6-1.8a8,8,0,0,0,1.3-1.9h0l.4.2H510l-.2.2-.4.4-.8.9-1.5,1.9c-1.9,2.6-3.4,5.4-5.1,8.1h0l-.3.4v.2h-.1v.2l-1,1.4-.9,1.4h-.1v-.6l.3-.9.6-1.8.4-.9.4-.9.5-.8.5-.9.6-.8,1-1.6a38.1,38.1,0,0,1,2.4-3.2,10,10,0,0,1,1.5-1.3l.4-.3h.3l.5-.2h.1v.7c-.1.1-.1.3-.2.5a11.7,11.7,0,0,1-2,3.4l-1.2,1.5a3.5,3.5,0,0,0-.5.8l-.5.8-1,1.7-.5.9-.5.8-1.1,1.7-.2.4-.2.2h0c.1,0-.8-.4-.4-.3h0l.4-.9.4-.9.5-.9.5-.8a4.1,4.1,0,0,1,.5-.9,57,57,0,0,1,4.8-6.2l1.5-1.8h.1l.8-.7h-.1v-.2h.1c-.2-.2.2.2.2.1h-.1l-.7.8v.2l-2.4,2.8a43.5,43.5,0,0,0-4.5,6.1,13,13,0,0,0-.8,1.7l-.8,1.7h0l-.4-.2h.1v-.2l.3-.4.5-.8,1-1.5,1.9-3.3a35.5,35.5,0,0,1,2.3-3.1l1-1.5.4-.9c0-.1.1-.2.1-.4v-.3h-.1a.5.5,0,0,0-.4.2l-.4.3a15.9,15.9,0,0,0-1.3,1.3l-2.2,3c-.7,1.1-1.4,2.1-2,3.2l-.5.8-.4.9-.3.7h.1v-.2l.5-.8h0c1.7-2.7,3.3-5.5,5.2-8.1.4-.7,1-1.3,1.4-1.9l.9-.9.4-.4.2-.3h.1l.4.2h0a7.4,7.4,0,0,1-1.3,2.1l-1.6,1.8a29.6,29.6,0,0,0-5,8.1,8.6,8.6,0,0,0-.6,2.3v.5h0l.2-.3.8-.9.7-1,1.3-2c1.8-2.6,3.4-5.4,5.2-8.1l.7-1,.4-.5h.2l.2-.2.9-.9.3-.4h.3v-.2Z" transform="translate(-482.4 -187.3)"/>
      <path class="bdb8980c-961f-457f-80f1-8f16f868e5db" d="M530.7,218.2h-.2a.4.4,0,0,1,.1-.3h.7c0,.1.1,0,0,.1a1.3,1.3,0,0,1-.1.5,4.3,4.3,0,0,0-.1.5l-.3.6-.3.6-1.5,2.5a5.7,5.7,0,0,0-.8,1.3,8.3,8.3,0,0,0-.7,1.3c-.5.9-1,1.9-1.6,2.8l-1.5,2.9c-.6.9-1.1,1.9-1.7,2.9l-3.5,5.8-3.4,5.9-1.7,2.9-1.5,2.8q-1.5,2.9-3,5.4a20,20,0,0,1-1.6,2.4,7.6,7.6,0,0,1-.8,1.1,3.9,3.9,0,0,1-.8,1l-.8,1-.8.9a6,6,0,0,0-.8.8h0l-.4-.2h0v-.2a.3.3,0,0,1,.1-.2h0c0-.1.1-.1.1-.2a.3.3,0,0,0,.1-.2l.3-.3c.1-.2.4-.4.5-.5s.5-.3.2.1a1.5,1.5,0,0,1-.3.5l-.3.5v.2h-.1v.4H504l-.3-.2h.1V263c.2-.1.3-.3.4-.4l.8-.8c.5-.5,1-1.2,1.5-1.8a66.7,66.7,0,0,0,5.9-9.8l1.5-2.8,1.7-2.8,3.4-5.8c1.1-2,2.3-3.9,3.4-5.8l1.7-2.9,1.5-2.8,1.5-2.7c.2-.5.5-.9.7-1.4l.8-1.2c.5-.9,1.1-1.6,1.5-2.4s.1-.5.2-.7l.2-.3v-.3Z" transform="translate(-482.4 -187.3)"/>
      <path class="bdb8980c-961f-457f-80f1-8f16f868e5db" d="M534.5,221.6h.1c.1-.1.3-.1.3.2h0l-.2.5v.5l-.5.8a8.6,8.6,0,0,1-1,1.6l-2.1,3.1c-.7,1.1-1.4,2.1-2,3.2a33.7,33.7,0,0,0-1.9,3.2c-1.3,2.2-2.7,4.3-4.1,6.3a34,34,0,0,1-2.3,3l-.5.8-.2.2c.1,0-.6-.6-.3-.3h.1l.3-.3a15.8,15.8,0,0,0,1.2-1.5,51.6,51.6,0,0,0,4.3-6.1h0l2.2-3.9,1.1-2,1.2-1.9c.9-1.2,1.7-2.5,2.5-3.7l.5-.9h-.2l-.4.3a6,6,0,0,0-.8.8c-2.1,2.1-3.4,4.8-5.1,7.4l-2.3,3.8c-.8,1.2-1.6,2.5-2.3,3.8l-4.6,7.8a74.3,74.3,0,0,1-4.9,7.5l-3.1,4.6-.8.9c-.6.6-.5.2-.2-.2s.6-1.1.6-1.1l.2-.2,1.2-1.7,2.5-3.6,2.5-3.7c.8-1.2,1.5-2.5,2.2-3.7l4.4-7.6,4.6-7.5,2.3-3.7a22.6,22.6,0,0,1,2.8-3.5,8.3,8.3,0,0,1,2.4-1.5h.1v.2l-.3.4-.4.8-.6.9-2.4,3.7-1.2,1.8-1,1.9c-.8,1.3-1.5,2.6-2.3,3.8h0a51.9,51.9,0,0,1-4.2,6.2l-1.2,1.5-.3.3h-.2l-.3-.3v-.2l.6-.7c.7-1,1.5-2,2.2-3.1s2.8-4.1,4.1-6.2,1.2-2.2,1.9-3.3a32.8,32.8,0,0,1,2-3.1c.7-1,1.5-2.1,2.1-3.1a14,14,0,0,0,1-1.6l.5-.8v-.5Z" transform="translate(-482.4 -187.3)"/>
      <path class="bdb8980c-961f-457f-80f1-8f16f868e5db" d="M521.1,215.1h0c.1.1.2.2,0,.4h-.7a.1.1,0,0,0-.1.1h-.2l-.7.5a6.9,6.9,0,0,0-1.3,1.1l-2.4,2.5-2.3,2.6-4.6,5.2-2.3,2.6-1.2,1.3v.2h-.1l-.3-.3h.1l.3-.4.6-.6,4.5-5.2h0l1-1.2,1-1.3,1.9-2.4,2-2.5.2-.3h0l.4.3h-.1v.2l-.5.6-.8,1.3c-1.1,1.8-2,3.7-3,5.5l-.8,1.4-.8,1.3-1.9,2.5h0l-3.3,4.5h-.3l.2-.4.3-.6.8-1.2,1.4-2.4.9-1.4,1.7-2.7,1.8-2.6,1.8-2.6,2-2.5.5-.7.2-.3.2-.2h0l.4.3h-.1l-1,1.3-1.9,2.8c-1.4,1.9-2.9,3.8-4.2,5.8l-2.1,3-.9,1.5-1,1.5-.5.8-.7,1c-.5.6-.4.3-.2-.2l.6-1.1.9-1.6c2.4-3.8,5.1-7.4,7.7-11l1.9-2.7,1-1.4h.1c.7.5.2.1.3.3h0v.2l-.3.3-.5.7-1.9,2.5a24,24,0,0,0-1.8,2.6,24,24,0,0,0-1.8,2.6l-1.7,2.7-.9,1.3v.2h-.1v.2h0l.5-.6h0l1.8-2.5.8-1.4.8-1.3c1-1.8,1.9-3.7,3-5.5l.9-1.4.4-.6v-.2h.1l.4.3h0l-.3.3-1.9,2.5-1.9,2.4-1,1.3-1,1.2h0l-4.6,5.2-.6.7-.3.3h-.1l-.3-.3h0l.2-.2,1.1-1.3,2.4-2.6,4.6-5.2,2.3-2.6,2.4-2.6a6.9,6.9,0,0,1,1.3-1.1l.8-.5h1.2Z" transform="translate(-482.4 -187.3)"/>
      <path class="bdb8980c-961f-457f-80f1-8f16f868e5db" d="M518.5,215.4h-.2c-.1-.1-.1-.1-.1-.3h0l.2-.2h0l.3.3h-.2a9.2,9.2,0,0,0-1.9,2.5l-.4.7-.2.4h-.2l-.4-.2h.1l.9-1.3h0l.9-1.3a2.5,2.5,0,0,0,.4-.7l.2-.3h.1l.3.3H518l-1.2.9-.7.5-.3.2-.5.2h0l-.6.2h0v-.6h0v-.3a.8.8,0,0,0-.2-.5h-.4l-1.1.3-1.2.6h-1.1v-.5h0v.2h-.5l-.3.3h-.1l-.2.2-.5.6c-.1.3-.2.5-.2.4a.7.7,0,0,1,0-.5l.3-.6.3-.4h.3l.2-.2.3-.2.3-.2h.5v.4h.2l.5-.2,1.2-.5a1.6,1.6,0,0,1,1.2-.3c1.4,0,.8,2.2,1,1.5h.2a.5.5,0,0,0,.4-.2l.6-.4,1.3-1h.2l.4.3h-.1l-.2.3a1.6,1.6,0,0,1-.4.7l-.9,1.3h0l-.9,1.4h-.1l-.4-.3h.1v-.2l.2-.3.4-.7a10,10,0,0,1,2-2.6v-.2h.2c-.1-.1.6.5.3.3h0C518.7,215.2,518.6,215.4,518.5,215.4Z" transform="translate(-482.4 -187.3)"/>
      <path class="bdb8980c-961f-457f-80f1-8f16f868e5db" d="M536.9,225.3h.1c.1.1.1.3-.2.4H536l-.3.2-.5.4-.9,1.1a21.3,21.3,0,0,0-1.6,2.5l-3.3,4.8-3.4,4.7-1.6,2.4-.5.6h0l-.4-.3h.2l.2-.3.9-1.2a51.9,51.9,0,0,1,3.6-4.6h0c1.4-1.8,2.8-3.5,4.1-5.3l.9-1.4.5-.7.5-.7.4-.7.2-.4v-.2h.1c.1.2-.4-.2.3.3h-.1l-1.1,1.2c-1.4,1.7-2.5,3.7-3.8,5.5l-3.7,5.7h0c-1.1,1.9-2.4,3.7-3.6,5.5l-1.9,2.7-1,1.3a12.7,12.7,0,0,1-1.1,1.3l-2.2,2.4h-.2l-.2.2-.9.8c-.7.5-.5.2-.2-.2l.8-.9.2-.2.7-.8,1.1-1.1,1.1-1.1.9-1.2a14.7,14.7,0,0,1,1-1.3l1.7-2.6,3.5-5.1h0l3.6-5.7c1.3-1.9,2.4-3.8,3.9-5.6l1.1-1.2h.1l.4.3h-.1v.2l-.2.4-.5.7-.4.7-.5.7-.9,1.4-4.2,5.4h0l-3.6,4.5-.8,1.2-.2.3v.2h-.1c-.2-.1.4.3-.4-.2h.1l.4-.6,1.7-2.3,3.3-4.8c1.1-1.6,2.3-3.2,3.3-4.8s1-1.6,1.6-2.4l.9-1.2.6-.5.3-.2h1.2Z" transform="translate(-482.4 -187.3)"/>
      <path class="bdb8980c-961f-457f-80f1-8f16f868e5db" d="M533.6,219.5h.1c.1,0,.3,0,.3.3h0l-.4.6c-1.4,1.9-2.5,3.9-3.7,5.9l-.9,1.5-.9,1.4-1,1.5-.2.2v.2l-.8.8c-.6.6-.5.3-.2-.1s.7-1,.7-1v-.2l.3-.4.9-1.3.9-1.5.9-1.4a43.2,43.2,0,0,1,3.6-5.8Z" transform="translate(-482.4 -187.3)"/>
      <path class="bdb8980c-961f-457f-80f1-8f16f868e5db" d="M502.9,263.3h0c-.2-.1-.3-.3-.1-.5h.1v-.2h.3c2.7-3.3,4.5-7.2,6.7-10.9l1.6-2.7.9-1.4.5-.6h.1c.2.1-.4-.3.4.2h-.1v.2l-.2.4a31.5,31.5,0,0,1-3.1,5.7h0l-4.3,6.3a16.3,16.3,0,0,0-1.1,1.7l-.5.8-.2.3a4.4,4.4,0,0,1-.8.9l-.4.2a.1.1,0,0,1-.1-.1q.2,0,.3-.3l.4-.5.3-.5.2-.3.7-1.2,1-1.5,4.2-6.1h0a37.6,37.6,0,0,0,3-5.6v-.5h0c.8.5.3.1.4.2h0l-.5.7-.9,1.3-1.7,2.7c-2.1,3.7-3.9,7.6-6.7,11h0l-.2.2h0c0,.1-.1.1-.1.2h0c0,.1,0,.2-.1.2h-.3Z" transform="translate(-482.4 -187.3)"/>
      <path class="bdb8980c-961f-457f-80f1-8f16f868e5db" d="M492,261.4h0c.1,0,.1.1.1.2s0,.2-.1.2h-.8l.3-.5,3.6-5.3c1.5-2.2,3-4.6,4.5-7,3.1-5,6.3-10.3,9.4-15.7l2.4-3.9a21.4,21.4,0,0,0,1.3-1.9l1.5-1.8a33.7,33.7,0,0,1,2.9-3.5c.5-.5.9-1.1,1.4-1.7l1.3-1.7a20.9,20.9,0,0,0,1.4-1.7l.6-.8a3.2,3.2,0,0,0,.3-.9c0-.1,0-.1-.1-.1h-.4c-.3,0-.5.3-.8.5l-.6.7-.2.2h-.1l-.4.4a36.2,36.2,0,0,0-4.1,6.1c-.6,1-1.1,2-1.7,2.9l-1.2,2c0,.1,0,.2-.1.2v.2l-.7.9c-.5.7-.4.3-.2-.1l.6-1.1a.3.3,0,0,1,.1-.2,2.1,2.1,0,0,1,.4-.6c.9-1.6,1.9-3.5,3.1-5.4l.9-1.5,1-1.5,1.1-1.5,1.3-1.5.6-.8,1-.6h.6c.2.1.5.3.5.6a2.1,2.1,0,0,1-.4,1.1,41.9,41.9,0,0,1-2.6,3.3c-.9,1.1-1.8,2.3-2.8,3.4l-1.4,1.6-1.4,1.8a81.4,81.4,0,0,0-5,7.5c-3,5.3-6.2,10.6-9.2,15.5l-4.5,6.9-3.3,5Z" transform="translate(-482.4 -187.3)"/>
      <path class="bdb8980c-961f-457f-80f1-8f16f868e5db" d="M500.6,233.5h0c-.1.1-.3.3-.5,0h0v-.8a16.1,16.1,0,0,1,2.7-6.3,50.8,50.8,0,0,0,3.5-5.9l.3-.8c.1-.1.1-.2.2-.4h-.1l-.6.5a10.9,10.9,0,0,0-2.1,2.6,28,28,0,0,0-1.5,3l-.2.6-.5,1c-.3.8-.3.4-.2-.1s.1-.2.1-.5l.2-.7.4-.8a17.7,17.7,0,0,1,1.5-3.1,10.9,10.9,0,0,1,2.2-2.6l1-.6.3-.2h.2l-.2.8-.2.5c0,.2-.1.3-.1.4s-.2.6-.4.8a42.5,42.5,0,0,1-3.5,5.8,17.3,17.3,0,0,0-2.6,6.1Z" transform="translate(-482.4 -187.3)"/>
      <path class="bdb8980c-961f-457f-80f1-8f16f868e5db" d="M501.6,237.1h0a.4.4,0,0,1-.4-.3h.1a1.7,1.7,0,0,1,.4-.6l2.2-3.2c.5-.6.9-1.4,1.4-2.1l1.4-2.2c1.8-3,3.7-6.4,5.5-9.7h0l-.2.2-.3.2-.4.6-.9,1.1a7.6,7.6,0,0,1-.8,1.1c-.6.7-1.1,1.5-1.6,2.2s-1,1.5-1.5,2.3a25.3,25.3,0,0,0-1.3,2.2l-1.2,2.2c-.8,1.5-1.5,2.8-2.1,4.1l-2,3.4a4.3,4.3,0,0,1-.6.9c-.5.7-.4.4-.2-.1s.5-1.1.5-1.1l2.2-4,2.1-3.9,1.2-2.2.6-1.1.7-1.1.7-1.2a10.5,10.5,0,0,0,.8-1.1c.5-.7,1.1-1.4,1.6-2.2l1.7-2.2.6-.5h.4l.5-.3h.4c0,.2-.1.3-.2.5l-.5.9c-1.8,3.3-3.6,6.6-5.5,9.6l-1.4,2.2a23.9,23.9,0,0,1-1.3,2.1l-2.2,3Z" transform="translate(-482.4 -187.3)"/>
      <path class="bdb8980c-961f-457f-80f1-8f16f868e5db" d="M507.8,224.5h0c.1,0,.3,0,.3.3h0l-.4.5-.8.9-1.2,1.5-.6.8a3.5,3.5,0,0,1-.5.8l-1.2,1.7c-1.5,2.4-2.9,5.1-4.3,7.7a82.2,82.2,0,0,1-4.2,7.8l-2.3,3.3c-.8,1-1.6,2-2.2,2.9l-2.1,2.4-.8.8c-.6.6-.5.3-.2-.1s.7-1,.7-1v-.2l.3-.3,1.9-2.3,2.2-2.9c.7-1,1.5-2.1,2.2-3.3s1.4-2.4,2.2-3.6,1.3-2.7,2-4a70.7,70.7,0,0,1,4.3-7.6,38.8,38.8,0,0,1,2.3-3.3l1.1-1.5.7-.8Z" transform="translate(-482.4 -187.3)"/>
      <path class="bdb8980c-961f-457f-80f1-8f16f868e5db" d="M507,227.1h0c.1,0,.3-.1.4.2h0l-.4.6a65.7,65.7,0,0,1-4,6.2l-2.2,3-1,1.5-.2.2h0v.2l-.8.9c-.5.6-.4.3-.2-.1l.6-1.1v-.2l.3-.4,1-1.5,2.2-2.9a57,57,0,0,0,3.9-6.1Z" transform="translate(-482.4 -187.3)"/>
      <path class="bdb8980c-961f-457f-80f1-8f16f868e5db" d="M498.7,235.8h0c.1-.1.3,0,.3.3h0l-.4.3v.2h-.2a16.3,16.3,0,0,0-2.4,3.8,39.7,39.7,0,0,1-2.3,3.9l-.6.9-.7.9-.7,1-.7.8c-.9,1.2-1.9,2.4-2.9,3.5l-1.5,1.7-.3.4a4.3,4.3,0,0,1-.1.5,3.2,3.2,0,0,0-.1.7h0v-.3l.3-.5a12.8,12.8,0,0,1,1.1-2l1.2-1.9h0c-.3-.3.5.3.4.2H489v.3l-.3.4-.6,1a12.2,12.2,0,0,1-1.2,1.9,7.6,7.6,0,0,1-.9.9l-.2.2h-.6c-.1,0-.1-.1-.1-.2v-.2c-.1-.1-.1-.1-.1-.2a3.6,3.6,0,0,1-.1-2.3,14.3,14.3,0,0,1,.8-2.2h0a35,35,0,0,1,4-5.5l2.2-2.5c.7-.8,1.5-1.6,2.2-2.5a26.2,26.2,0,0,0,2.2-2.5,6.4,6.4,0,0,0,.8-1.4h0l-.8.2a7.9,7.9,0,0,0-2.6,1.9,16.5,16.5,0,0,0-2.2,2.4l-2.1,2.7a15.9,15.9,0,0,0-1.8,2.7,29,29,0,0,1-1.9,2.9,4.6,4.6,0,0,1-1.2,1.2c0,.1-.1.1-.1.2l-.4.2h-.2v-.9a.9.9,0,0,1,.1-.5,8.5,8.5,0,0,1,1.5-3c.7-1,1.4-1.8,2.1-2.7a26.2,26.2,0,0,0,2.2-2.5l2.2-2.6,1-1.1h-.3l-.3.3-1.3,1a52.1,52.1,0,0,0-4.1,5.2l-1.9,2.8-.5.6H484l-.4-.2h.1V246a3,3,0,0,0,.4-.8l.4-.7a43.3,43.3,0,0,1,4.2-5.2L490,238l.5-.7h.1l.3.3h-.3l-.3.2a10.4,10.4,0,0,0-2.5,2.2,1.5,1.5,0,0,0-.5.6l-.5.6-.5.7h-.1v.3H486l-.3.4c-.1.2-.2.3-.2.5s-.4.4-.3-.1a4.9,4.9,0,0,1,.4-1v-.2l.2-.2h0l.3-.3.4-.7a17.5,17.5,0,0,1,2.3-2.4l1.4-1,.3-.2h.1c-.1-.1.5.6.2.4h-.2l-.5.7-2.1,2.5a21,21,0,0,0-3.8,5.2v.6h0l-.4-.2h0l.5-.7.9-1.3,1.9-2.7a25.7,25.7,0,0,1,4.4-4.9,1.8,1.8,0,0,1,.7-.5l.5-.4.6-.4.7-.3.3-.2h.2l-.5.5-.2.3-.3.3-2.4,2.9-4.2,5a17.9,17.9,0,0,0-2,2.6c-.2.4-.5.9-.7,1.4s-.1.5-.2.7v.6h.2l.6-.5a14.7,14.7,0,0,0,1-1.3l1.7-2.8.9-1.3a14.7,14.7,0,0,1,1-1.3,25.6,25.6,0,0,1,2-2.6,17,17,0,0,1,2.2-2.4,8.8,8.8,0,0,1,2.9-1.8h1v.8a.5.5,0,0,1-.2.4,4.2,4.2,0,0,1-.9,1.4,26.2,26.2,0,0,1-2.2,2.5l-1.1,1.2-.5.6-.6.6-2.1,2.5a27.3,27.3,0,0,0-3.7,5.2h0a6,6,0,0,0-.8,2.1,3.8,3.8,0,0,0,0,2.1h.3l.2-.2a4.6,4.6,0,0,0,.7-.7,19.9,19.9,0,0,0,1.2-1.9l.6-1,.3-.5.2-.2h0l.4.2H489l-1.2,1.9-1,2c-.1.2-.2.3-.2.5l-.2.3c0,.2-.1.3-.1.5l-.4,1h0v-.8a.7.7,0,0,1-.1-.5v-.4c-.1-.2,0-.4,0-.6a1.4,1.4,0,0,0,.2-.6,1,1,0,0,0,.4-.5l1.5-1.7,2.9-3.5.7-.8.6-.9.7-.9.6-1a29.5,29.5,0,0,0,2.3-3.8,19.5,19.5,0,0,1,2.4-3.9h.3v-.2Z" transform="translate(-482.4 -187.3)"/>
      <path class="bdb8980c-961f-457f-80f1-8f16f868e5db" d="M509.8,255.7h0a.4.4,0,0,1-.4-.3h0l.4-.6c.1-.1.1-.2.2-.2a4.1,4.1,0,0,0,.5-.9l1.1-1.8a12.4,12.4,0,0,1,1-2l.6-1,.6-1c.9-1.4,1.9-2.7,2.8-4l.7-1.1.7-1,.6-1.1.6-1.1c1.6-3,3.1-6,4.7-8.7l2.2-4,2.2-3.4,1.7-2.6v-.2h.1l.7-1c.5-.6.5-.3.2.2a9.7,9.7,0,0,1-.5,1.1h-.4l-1.9,2.9c-1.4,2-2.7,4.6-4.3,7.2l-1.1,2.1-1.2,2.1c-.7,1.5-1.5,2.9-2.3,4.4l-1.2,2.2-.7,1.1-.7,1c-.9,1.3-1.9,2.6-2.7,3.9l-.6,1-.6,1-1,1.9c-.3.7-.7,1.3-1,1.9l-.6.8v.2Z" transform="translate(-482.4 -187.3)"/>
      <path class="bdb8980c-961f-457f-80f1-8f16f868e5db" d="M530.2,221.6h.1c.1-.1.3-.1.3.2h0a1.7,1.7,0,0,1-.4.6l-4,6.4-2.5,3.9-2.4,4c-1.7,2.7-3.3,5.5-4.8,8l-2.2,3.7-1.9,3.3a10.9,10.9,0,0,0-.8,1.5l-.6,1a.3.3,0,0,1-.1.2v.2l-.6,1c-.5.7-.4.3-.2-.1a6.1,6.1,0,0,1,.5-1.2h0l.3-.5,1.5-2.8c1.2-2,2.6-4.3,4-6.8l4.7-7.9c.9-1.3,1.6-2.7,2.5-4l2.4-3.8c1.4-2.3,2.8-4.4,4-6.2Z" transform="translate(-482.4 -187.3)"/>
      <path class="bdb8980c-961f-457f-80f1-8f16f868e5db" d="M524.4,262.7h.4a.1.1,0,0,1-.1.1h-.1c0-.1,0-.1.1,0s0,.1,0,.1h0c0,.1,0,.1-.1.2l-.2.2-.3.2h-.2v-1.3c0-.1,0-.1-.1-.2h-.2l-.4.6a4.1,4.1,0,0,1-1.1,1.2l-.4.2h-.2a1.7,1.7,0,0,1-.1-.7v-1.2h-.1l-.2.3-.3.3-.4.6-.5.5v-1.6a9.4,9.4,0,0,1,.6-1.5l.5-1.4c.1-.2.1-.5.2-.7v-.6h.4l-1.4,2.8-.8,1.3-.5.6-.2.3v.2l-.3.2h0l-.4.5-.2.2h-.2l.2-1.2a1.5,1.5,0,0,1,.1-.7c.1-.2.1-.4.2-.6a16,16,0,0,1,1-2.3l1.2-2.3.3-.5h.1c-.4-.3.4.3.4.2H521l-.2.3a6.1,6.1,0,0,0-.7,1c-.9,1.4-1.7,2.9-2.8,4.3l-.4.4c-.1.1-.2.2-.2.3l-.3.2-.5.4h-.2v-1.2h.1a7.5,7.5,0,0,1,.9-2.5h0c.9-1.8,2.3-3.5,3.1-5.4V255h0l.4.2h-.1l-.3.3-.5.6a8.3,8.3,0,0,0-.8,1.2l-1.7,2.7a10,10,0,0,1-.8,1.4l-1,1.3-.8.9-.2.2-.2.2h-.1l.2-.7a1.9,1.9,0,0,1,.1-.8v-.4a1.9,1.9,0,0,1,.2-.7,27.8,27.8,0,0,1,3.5-5.4h0a28.3,28.3,0,0,0,2-2.8v-.2h0l-.2.2-.3.3a42.8,42.8,0,0,0-3.7,5.7,18.7,18.7,0,0,1-2,2.9l-1,1-.3.2h0v-.2l.2-.8a.6.6,0,0,0,.1-.4v-.2l.2-.5.3-.8a44.6,44.6,0,0,1,4.1-5.6l.9-1.4.3-.3h0l.4.3h-.2l-.5.7-2,2.9-2,2.8-1.1,1.3-.6.7-.3.3-.2.2-.7.6c-.4.1-.6.1-.5,0l.4-.3h.1l.4-.5.2-.3.7-.8a39.9,39.9,0,0,0,4-5.2,27.5,27.5,0,0,1,1.9-2.8h0c.8.5.2.1.4.3H519v.2l-.2.3-.5.7-1,1.3a30.5,30.5,0,0,0-3.7,5.4c0,.2-.1.3-.1.4v.3h.1l.5-.6c.7-.9,1.2-1.8,1.8-2.7a28.6,28.6,0,0,1,3.7-5.6l.3-.3.2-.3.3-.2,1.2-1h-.1v.2l-.2.4-.3.6c-.1.2-.1.3-.2.4l-.2.3c-.1.1-.1.3-.2.4l-1.9,2.7h0a21.1,21.1,0,0,0-3.4,5.2l-.3.8v.4h0l.3-.3.9-1.3a5.7,5.7,0,0,0,.8-1.3l1.7-2.7a10.1,10.1,0,0,1,.9-1.3l.5-.6.2-.3h.1l.4.3h0v.2c-.9,2-2.2,3.6-3.1,5.5h0a10.2,10.2,0,0,0-.9,2.2v.3h0l.2-.2.2-.2.4-.4c1-1.3,1.8-2.8,2.7-4.2a4.1,4.1,0,0,1,.7-1.1l.2-.2v-.2h0l.4.3H521l-.3.6-1.2,2.2a21.4,21.4,0,0,0-1,2.2c-.1.2-.1.4-.2.6s-.1.4-.1.6h.2l.3-.3a4.3,4.3,0,0,0,.4-.7l.8-1.3,1.4-2.7h.5v.6a1.9,1.9,0,0,1-.2.8,8.8,8.8,0,0,1-.5,1.5l-.6,1.4h0l.2-.3.2-.3.3-.6.4-.6.3-.5.3-.5v.9c0,.2-.1.5-.1.7s-.1.5-.2.7v.3h0a2.2,2.2,0,0,0-.1.8h.1l.2-.2.3-.3a1.5,1.5,0,0,0,.4-.6l.5-.6h.1l.3-.3h.2l.2.4v.4c0,.2.1.3.1.4v.4h.1Z" transform="translate(-482.4 -187.3)"/>
      <path class="bdb8980c-961f-457f-80f1-8f16f868e5db" d="M510.8,264h0c-.1,0-.3,0-.3-.3h0l.5-.5a16.6,16.6,0,0,0,1.3-1.4l1.1-1.6a37.2,37.2,0,0,0,1.9-3.4l.9-1.7.4-.9.3-.4h0c-.3-.3.5.3.4.2h-.1v.2l-1.3,1.4-1.2,1.6h0c-1,1.3-1.9,2.7-2.8,4.1a6.1,6.1,0,0,0-.7,1l-.4.5v.2c-.1.1-.1.2-.2.2a3.2,3.2,0,0,1-1,.8h0v-.2h.4l-.2.2h-.4v-.2h.1c-.1,0,.2-.2.4-.4l.3-.3v-.2a.2.2,0,0,1,.2-.2c-.1,0,.1-.2.2-.4l.3-.5a3.6,3.6,0,0,0,.7-1l2.7-3.9h0l1.2-1.6,1.3-1.4.2-.2h.1c-.1-.1.7.5.3.3h0l-.2.4-.5.9-.9,1.7a37.2,37.2,0,0,1-1.9,3.4l-1.2,1.6c-.4.5-.8,1.1-1.2,1.5Z" transform="translate(-482.4 -187.3)"/>
      <path class="bdb8980c-961f-457f-80f1-8f16f868e5db" d="M495.6,263.3h-.1c-.1,0-.3-.1-.2-.4h.2c.1-.1.3-.1.4-.3l.3-.2.4-.5c.2-.2.3-.4.5-.5a19.6,19.6,0,0,0,1.3-2.5c.4-.9.7-1.8,1.1-2.8s.7-1.9,1.2-2.9A105.9,105.9,0,0,1,508,242l1.9-2.8a11.4,11.4,0,0,0,1.5-2.9,28,28,0,0,1,1.5-3l1.8-2.7.9-1.2a6.1,6.1,0,0,1,.7-1.4l1.2-2.7c.8-1.8,1.5-3.4,2.3-4.9l1.1-2.2.6-1,.3-.5v-.2h.1l.8-1c.5-.6.4-.3.1.2s-.6,1.1-.6,1.1h-.1c0,.2-.1.3-.3.5a4.1,4.1,0,0,1-.5.9c-.2.3-.3.7-.5,1l-1.1,2.1-2.2,4.9c-.4.9-.8,1.7-1.2,2.7l-.4.6a4.3,4.3,0,0,1-.4.7l-.9,1.3a23.3,23.3,0,0,0-1.7,2.6,25.9,25.9,0,0,0-1.4,2.9,11.8,11.8,0,0,1-1.6,2.9l-1.9,2.7a113.4,113.4,0,0,0-7.1,11c-.9,1.9-1.5,3.8-2.3,5.6a12.3,12.3,0,0,1-1.4,2.5l-.9,1-.2.2-.4.3Z" transform="translate(-482.4 -187.3)"/>
      <path class="bdb8980c-961f-457f-80f1-8f16f868e5db" d="M529.6,218.1h0c-.1-.1-.3-.1-.2-.4h0l.4-.2h.1l.5.2h-.1l-3,5.9-.6,1c-.5.7-.4.3-.3-.2l.5-1.1,3-5.8h.4c0,.2-.1.3-.3.4Z" transform="translate(-482.4 -187.3)"/>
      <path class="bdb8980c-961f-457f-80f1-8f16f868e5db" d="M526.2,215.9h0c.1-.1.2-.3.4,0h0a2.2,2.2,0,0,1-.1.8,17.9,17.9,0,0,1-1.3,3.2l-.8,1.6-.4.7v.5l-.6,1c-.4.7-.4.4-.2-.1s0-.3.1-.6l.3-.6.2-.4.4-.8.7-1.5a20.5,20.5,0,0,0,1.3-3.1C526.1,216.4,526.2,216.1,526.2,215.9Z" transform="translate(-482.4 -187.3)"/>
      <path class="bdb8980c-961f-457f-80f1-8f16f868e5db" d="M527,217h.1c.1-.1.3-.1.3.2h0l-.3.7a21,21,0,0,0-1.3,2.6l-.5,1.4-.5,1.1-.5,1c-.4.8-.4.4-.2-.1a6.1,6.1,0,0,1,.3-1.1l.5-1.2.6-1.3a12.3,12.3,0,0,1,1.2-2.6Z" transform="translate(-482.4 -187.3)"/>
      <path class="bdb8980c-961f-457f-80f1-8f16f868e5db" d="M527.6,216.9h0c.1,0,.3,0,.3.3h0l-.5.6a9.7,9.7,0,0,0-1.9,2.9c-.2.5-.5,1-.7,1.6l-.5,1.2-.5,1.1c-.5.7-.4.4-.3-.1l.4-1.2.5-1.3a7.7,7.7,0,0,0,.7-1.6,18.1,18.1,0,0,1,1.9-2.9Z" transform="translate(-482.4 -187.3)"/>
      <path class="bdb8980c-961f-457f-80f1-8f16f868e5db" d="M525.5,215.8h0a.4.4,0,0,1,.4.3h0l-.5.6a51.7,51.7,0,0,0-3.6,5.9l-3.4,6.1-1.7,3.1-1.7,3-2,3.5-.7,1c-.5.7-.5.3-.2-.1s.5-1.1.5-1.1l2.2-3.8,1.7-3,1.6-3,3.4-6a55.8,55.8,0,0,1,3.5-5.8Z" transform="translate(-482.4 -187.3)"/>
      <path class="bdb8980c-961f-457f-80f1-8f16f868e5db" d="M526.4,219.6h0c.1-.1.3-.1.4.2h0l-.5.6-7.9,12.6-6.1,10.1-.7,1c-.5.6-.4.3-.2-.2l.6-1.1,6.1-10.3c2.6-4.1,5.3-8.2,7.9-12.4Z" transform="translate(-482.4 -187.3)"/>
      <path class="bdb8980c-961f-457f-80f1-8f16f868e5db" d="M538.2,226.5h0c.1-.1.3-.2.4.1h0l-.3.8a14.3,14.3,0,0,1-1.5,2.7,10,10,0,0,0-.8,1.4l-.7,1-.8.9c-.5.7-.4.4-.2-.1a1.5,1.5,0,0,1,.3-.5l.3-.6.7-1,.8-1.3a18.2,18.2,0,0,0,1.5-2.7Z" transform="translate(-482.4 -187.3)"/>
      <path class="bdb8980c-961f-457f-80f1-8f16f868e5db" d="M537.5,225.6h0c.1-.1.3-.2.4.1h0l-.2.8a45.4,45.4,0,0,1-3.6,6l-2.2,2.8-1.4,1.7a4.4,4.4,0,0,1-.8.9c-.6.6-.4.3-.2-.2a8.6,8.6,0,0,0,.7-1l1.5-1.9,2.1-2.7a25.9,25.9,0,0,0,3.4-5.8Z" transform="translate(-482.4 -187.3)"/>
      <path class="bdb8980c-961f-457f-80f1-8f16f868e5db" d="M537,225.8h.3a1,1,0,0,0-.4.5L531,235l-4.6,6.7a4.4,4.4,0,0,1-.8.9c-.5.6-.4.3-.2-.1l.7-1.1,4.6-6.8,5.8-8.1Z" transform="translate(-482.4 -187.3)"/>
      <path class="bdb8980c-961f-457f-80f1-8f16f868e5db" d="M536.2,223.4h0c.2-.1.4,0,.3.3h0l-.5.5a17.3,17.3,0,0,0-2.2,3.1l-1,1.6-.7,1.3-.7.9c-.5.7-.4.3-.2-.1a2.8,2.8,0,0,1,.3-.6l.3-.5.7-1.3.9-1.6a34.6,34.6,0,0,1,2.2-3.1Z" transform="translate(-482.4 -187.3)"/>
      <path class="bdb8980c-961f-457f-80f1-8f16f868e5db" d="M535.8,222.9h.3v.2h0l-.4.7-2.1,3.4-1.8,3-.7.9c-.5.7-.4.3-.2-.1l.6-1.1,1.8-3,2-3.3Z" transform="translate(-482.4 -187.3)"/>
    </g>
    <g>
      <path class="bdb8980c-961f-457f-80f1-8f16f868e5db" d="M541.5,202.8h0a1.6,1.6,0,0,1,0-1.4h5.1l1.4.3c1,.3.6.7,0,.8s-1.4.3-1.4.3Z" transform="translate(-482.4 -187.3)"/>
      <path class="bdb8980c-961f-457f-80f1-8f16f868e5db" d="M542.6,202h-1a1.4,1.4,0,0,1-.2-.7v-.2l1.6-2,3.1-3.6,3.2-3.6.9-1,.9-.9,1.8-1.8c1.9-1.8,1.5-.8.6.6l-1.1,1.6-.9,1.1-.4.5-.7.9-3.2,3.6c-1.1,1.1-2.1,2.4-3.1,3.6S543,201.4,542.6,202Z" transform="translate(-482.4 -187.3)"/>
      <path class="bdb8980c-961f-457f-80f1-8f16f868e5db" d="M554.4,188.4h0a1.7,1.7,0,0,1,.1-.7c.1-.3.3-.5.8-.4h.1l.3.3.2.2.4.4.9.9,7.1,7.8.9,1,2.3,3.1c1.5,2.2.5,1.6-.7.5s-2.8-2.7-2.8-2.7l-.7-.9c-2.4-2.6-4.9-5.1-7.2-7.8l-.8-.8-.5-.5-.2-.2Z" transform="translate(-482.4 -187.3)"/>
      <path class="bdb8980c-961f-457f-80f1-8f16f868e5db" d="M561,203.1h-.1a1.6,1.6,0,0,1,0-1.4h5.9l.9.3c1,.3.7.6,0,.8l-.7.2h-.8l-2.6-.2H561Z" transform="translate(-482.4 -187.3)"/>
      <path class="bdb8980c-961f-457f-80f1-8f16f868e5db" d="M547.2,202.7h0c.3-.3.8-.7,1.4.1v.2l-.2,2.4-.3,5c-.1,1.6-.1,3.3-.2,5v1.3s-.2,2.3-.5,3.8-.7,1.6-.8-.1c0,.2-.1-3.9-.1-3.9v-1.2c.1-1.7.1-3.3.2-5s.2-3.4.4-5Z" transform="translate(-482.4 -187.3)"/>
      <path class="bdb8980c-961f-457f-80f1-8f16f868e5db" d="M547.7,221.7h-.1l-.2-.2v-.2h0a.5.5,0,0,1-.2-.4,1.2,1.2,0,0,1,.5-.5h2.6l4.3.2h1.4l3.8.6c1.3.2,1.7.3,1.6.4a4.1,4.1,0,0,1-1.7.4H547.7Z" transform="translate(-482.4 -187.3)"/>
      <path class="bdb8980c-961f-457f-80f1-8f16f868e5db" d="M561.6,221.1h0a.8.8,0,0,1-1.4,0h-.1V207.2s.1-2.3.3-3.8.7-1.6.8,0c.1-.1.3,4,.3,4v13.7Z" transform="translate(-482.4 -187.3)"/>
    </g>
    <g>
      <path class="bdb8980c-961f-457f-80f1-8f16f868e5db" d="M584.3,225.3h0a1.5,1.5,0,0,1,.1,1.4h-5.2a5.1,5.1,0,0,1-1.4-.4c-1-.3-.6-.6,0-.8l1.5-.2Z" transform="translate(-482.4 -187.3)"/>
      <path class="bdb8980c-961f-457f-80f1-8f16f868e5db" d="M583.2,226.1h1c.2.2.2.4.3.7a.3.3,0,0,1-.1.2l-1.5,1.9-3.2,3.7-3.1,3.6-.9,1-1,.9-1.7,1.7c-2,1.9-1.6.9-.6-.5a8.5,8.5,0,0,1,1.1-1.6l.8-1.1.4-.5.8-.9,3.1-3.6,3.1-3.6A20.3,20.3,0,0,0,583.2,226.1Z" transform="translate(-482.4 -187.3)"/>
      <path class="bdb8980c-961f-457f-80f1-8f16f868e5db" d="M571.4,239.6h0a.9.9,0,0,1,0,.7.8.8,0,0,1-.8.4h-.2l-.2-.2-.2-.2-.5-.5-.8-.9-7.2-7.7-.9-1.1a27.5,27.5,0,0,1-2.2-3.1c-1.5-2.2-.6-1.6.6-.5l2.8,2.8.8.9c2.3,2.6,4.8,5.1,7.2,7.7l.8.9.4.4.2.3Z" transform="translate(-482.4 -187.3)"/>
      <path class="bdb8980c-961f-457f-80f1-8f16f868e5db" d="M564.9,225h0a1.6,1.6,0,0,1,0,1.4h-5.4l-.5-.2-.9-.2c-1-.3-.6-.7,0-.8l.8-.2h6Z" transform="translate(-482.4 -187.3)"/>
      <path class="bdb8980c-961f-457f-80f1-8f16f868e5db" d="M578.7,225.4h-.1c-.2.4-.8.8-1.3-.1a.1.1,0,0,1-.1-.1l.2-2.4c.2-1.7.2-3.3.3-5l.3-5v-1.4s.2-2.2.5-3.8.7-1.5.8.1c.1-.1.2,4,.2,4v1.1c0,1.7-.1,3.4-.2,5.1l-.3,5Z" transform="translate(-482.4 -187.3)"/>
      <path class="bdb8980c-961f-457f-80f1-8f16f868e5db" d="M578.1,206.4h.1l.2.2h.2v.3l-.4.6h-2.6l-4.4-.2h-1.4l-3.7-.5c-1.4-.2-1.8-.3-1.6-.5l1.6-.3h5.2l4.3.2Z" transform="translate(-482.4 -187.3)"/>
      <path class="bdb8980c-961f-457f-80f1-8f16f868e5db" d="M564.2,207h.1c.2-.4.7-.8,1.3,0h.1v13.9s-.2,2.2-.4,3.8-.6,1.6-.8-.1c0,.2-.3-3.9-.3-3.9V207Z" transform="translate(-482.4 -187.3)"/>
    </g>
    <path class="bdb8980c-961f-457f-80f1-8f16f868e5db" d="M558.1,227.2V227c.1-.1.1-.4.2-.5a1.3,1.3,0,0,1,.6-.4h.7a1.3,1.3,0,0,0,.8-.2h.1l.2.3.9.9a28.6,28.6,0,0,0,3,2.8l4.6,4a20.9,20.9,0,0,1,2.1,2.7c.7,1,.7,1.4.5,1.5a2.2,2.2,0,0,1-1.5-.5l-1.5-.8-1.5-1-4.5-3.9-3.2-2.9-1-1.1Z" transform="translate(-482.4 -187.3)"/>
    <path class="bdb8980c-961f-457f-80f1-8f16f868e5db" d="M560.6,226.4c-.1-.1-.1-.1,0-.2a1.3,1.3,0,0,1,.9-.6h1.7v.2l.6.8a25.8,25.8,0,0,0,2.4,2.5l3.8,3.7a23.5,23.5,0,0,1,1.6,2.6c1,1.8.1,1.7-1.1,1a30.4,30.4,0,0,1-2.5-1.8l-3.7-3.7a22,22,0,0,1-2.6-2.7,7.4,7.4,0,0,1-.9-1.2v-.3c0-.1,0-.2-.1-.2Z" transform="translate(-482.4 -187.3)"/>
    <path class="bdb8980c-961f-457f-80f1-8f16f868e5db" d="M563.3,227.4s-.1,0,0-.1a2.9,2.9,0,0,1,1.8-1.7h.1l.9.9a3.8,3.8,0,0,1,.9.9,9.4,9.4,0,0,1,1,1l2,1.9.9.8.3.7a9.1,9.1,0,0,1,.7,1.4c.6,1.6-.3,1.5-1.2,1l-.9-.6-.6-.5-.3-.2-.9-.8-1.9-1.8-1.9-2Z" transform="translate(-482.4 -187.3)"/>
    <path class="bdb8980c-961f-457f-80f1-8f16f868e5db" d="M564.8,226.7h0a5.4,5.4,0,0,1,.3-1,2.6,2.6,0,0,1,.9-1.3h.1a4.5,4.5,0,0,1,1.4.9l2.1,2.2a22.2,22.2,0,0,1,1.7,2.4l.8,1s.5,1.2.8,2.2-.3,1.5-1.2.9-.5-.3-.9-.8l-.9-.8-.8-1.1-1.6-2.1a17,17,0,0,0-1.8-1.9l-.6-.4Z" transform="translate(-482.4 -187.3)"/>
    <path class="bdb8980c-961f-457f-80f1-8f16f868e5db" d="M567.2,224.6h0l-.5,1a.8.8,0,0,1-.5.5,1.4,1.4,0,0,1-1.2-.2l-.3-.3a8.5,8.5,0,0,1-.5-2.6v-2.4c.1-1.6.4-3.2.5-4.7a23.9,23.9,0,0,0-.4-4.4,19.5,19.5,0,0,1-.2-2.5,7.1,7.1,0,0,1,.1-1.4,1.7,1.7,0,0,1,.1-.7v-.2h0l2.1-.7h.1l.4.4a3.7,3.7,0,0,1,.7,1.6,6.9,6.9,0,0,1,.2,1.3v.5h.1v.6l.2,1.2h0c.5,2.6.7,5.3,1.1,8l.3,2.4s.1,1,.2,2.4.1,3.1.1,4.5c.2,4.9-.7,3.1-1.4.2,0,.1-.4-1.6-.8-3.4l-.8-3.7-.2-1.9v-1.3l-.2-1.4L566,215l-.4-2.7h0l-.2-1.2v-.8h0v-.3a3.1,3.1,0,0,0-.1-1c0-.3-.1-.5-.2-.5h-.1l2.1-.6h0a.4.4,0,0,0-.1.3c0,.3-.1.6-.1,1s.1,1.4.2,2.2l.4,2.3c0,.4.1.8.1,1.3v1.3c-.2,1.7-.4,3.2-.5,4.7a14.7,14.7,0,0,0,0,2.1A3.8,3.8,0,0,0,567.2,224.6Z" transform="translate(-482.4 -187.3)"/>
    <path class="bdb8980c-961f-457f-80f1-8f16f868e5db" d="M566.6,208.4a.1.1,0,0,1,0-.2c.3-.6,1-1.7,2.4-.5a.2.2,0,0,1,.2.2l.4,2.2a19.2,19.2,0,0,1,.3,2.2c.3,1.8.4,3.6.6,5.4s.4,3.5.7,5.2l.3,2.5v2.4a15.5,15.5,0,0,1,.1,2.2v2.4c-.2,4.9-1,2.9-1.5,0-.1-.3-1.4-7-1.4-7l-.3-2.1-.6-5.4-.6-5.2-.3-2.2Z" transform="translate(-482.4 -187.3)"/>
    <path class="bdb8980c-961f-457f-80f1-8f16f868e5db" d="M568.2,210v-.2a2.1,2.1,0,0,1,.6-1,1.3,1.3,0,0,1,1.7,0l.2.2c.1.3.3.7.4,1.1l.4,1.1v1.2l.3,1.1c.5,3.7.5,7.2.9,10.6l.2,2.5s0,4.1-.1,7c-.2,4.8-1,2.9-1.5,0-.1.3-1.1-7.1-1.1-7.1l-.2-2.1c-.3-3.6-.3-7.1-.9-10.4l-.2-1.1v-1l-.3-1Z" transform="translate(-482.4 -187.3)"/>
    <path class="bdb8980c-961f-457f-80f1-8f16f868e5db" d="M569.7,208.8v-.2a1.4,1.4,0,0,1,.8-1,1.7,1.7,0,0,1,1.7.4h.1l.6,2.2a17,17,0,0,1,.4,2.2,10.1,10.1,0,0,1,.3,1.7l.3,1.7.3,3.3c.1,1.2.1,2.3.1,3.4v3.3a20.1,20.1,0,0,1,.1,2.5s-.1,1-.2,2.4l-.3,2.3-.3,2.3c-.9,4.8-1.4,2.8-1.5-.2v-1c-.1-.6-.1-1.5-.2-2.5s-.1-1.8-.1-2.5a8.7,8.7,0,0,1-.1-1.1v-5.5c0-1,0-2.1-.1-3.2s-.1-2.1-.3-3.2l-.2-1.6-.3-1.6a15.5,15.5,0,0,0-.4-2.1Z" transform="translate(-482.4 -187.3)"/>
    <path class="bdb8980c-961f-457f-80f1-8f16f868e5db" d="M572,208.1v-.2c.3-.6,1.2-1.6,2.5-.3a.3.3,0,0,1,.1.2l.4,4.4c.2,2.1.3,4.2.5,6.3l.2,3.1c.1,1.1.1,2.1.1,3.2v2.5s0,1-.1,2.4-.3,3.1-.5,4.5c-.5,4.9-1.1,2.9-1.4-.1a17.9,17.9,0,0,1-.3-3.4,25,25,0,0,1-.2-2.5,9.4,9.4,0,0,1-.1-1.2v-2.1c-.1-1-.1-2.1-.2-3.1l-.2-3.1c-.1-2.1-.3-4.2-.5-6.2Z" transform="translate(-482.4 -187.3)"/>
    <path class="bdb8980c-961f-457f-80f1-8f16f868e5db" d="M574.8,208.3v-.2c.4-.6,1.4-1.4,2.5,0s.1.1.1.2v2.1c0,.8.1,1.5.1,2.2l.3,5v2.5a19.2,19.2,0,0,0,0,2.4V225s-.1,1-.2,2.4a19.5,19.5,0,0,1-.2,2.3c-.1.4-.1.8-.2,1.2a3.5,3.5,0,0,1-.3,1.1,5.4,5.4,0,0,1-.4,1.5l-.5.9c-.2.4-.4.5-.5.3a12.9,12.9,0,0,1,0-2.9c-.1,0,0-.4,0-1v-1.1a5.7,5.7,0,0,1-.1-1.3,25,25,0,0,1-.2-2.5,9.4,9.4,0,0,1-.1-1.2v-7l-.3-4.9c0-.8-.1-1.5-.1-2.3Z" transform="translate(-482.4 -187.3)"/>
    <path class="bdb8980c-961f-457f-80f1-8f16f868e5db" d="M576.3,208.1h0a3.9,3.9,0,0,1,2.5-.1h.1c0,.1.1,1.7.1,3.3a13.4,13.4,0,0,1-.1,2.1v1a9.8,9.8,0,0,1-.7,1.7c-.6,1.2-1.2.7-1.5-.1a9.5,9.5,0,0,1-.5-1.8,6.2,6.2,0,0,1,.1-.9v-5.2Z" transform="translate(-482.4 -187.3)"/>
    <path class="bdb8980c-961f-457f-80f1-8f16f868e5db" d="M568.2,206.7h.1a1,1,0,0,1,.5.9V209h.1c-.2-1-.1-.3-.1-.5h0c0,.1.1.3.1.4h-.6v-2.7h5.6l.4.2a2.7,2.7,0,0,1,1,.6c1,.7.5,1.2-.2,1.4s-1.5.4-1.5.4h-5.4v-1.5a.1.1,0,0,0,0-.2h0l-.3-.8h.2Z" transform="translate(-482.4 -187.3)"/>
    <path class="bdb8980c-961f-457f-80f1-8f16f868e5db" d="M579.3,207.7h-.1a19.9,19.9,0,0,1-2.5,0h-.1v-.3h2.7Z" transform="translate(-482.4 -187.3)"/>
    <path class="bdb8980c-961f-457f-80f1-8f16f868e5db" d="M569.4,227.7h0l-.8.7a1.7,1.7,0,0,1-1.5.3H567a10.5,10.5,0,0,1-.6-3.3,17.1,17.1,0,0,0-.3-2.5l2.6-.2a12.2,12.2,0,0,0-.1,3.3l-2.7.3a4.1,4.1,0,0,0-.1-1.1h0v-.4a1.3,1.3,0,0,1,.1-.6,1.6,1.6,0,0,1,0-.7l1.8-.3-.3,1c-.2.9-.5,1.3-.7,1.2s-.6-.6-.8-1.2-.1-.4-.2-1l-1.4-8.1,3.4,7.8.3.8.3.7a4.3,4.3,0,0,0,.1.5v.2c0,.4.1.7.1,1l-2.7.3a13.5,13.5,0,0,1,.2-4l1-6,1.6,5.8a19.9,19.9,0,0,1,.4,3.2A8.3,8.3,0,0,0,569.4,227.7Z" transform="translate(-482.4 -187.3)"/>
    <path class="bdb8980c-961f-457f-80f1-8f16f868e5db" d="M569.7,235h.2l.3.3a1.1,1.1,0,0,1,.3.6,1.3,1.3,0,0,1-.3.7l-.2.3a.2.2,0,0,1-.2.2c-.1.1-.1.2-.2.2h-.3l-.8-.2,1.5-2.1,1.3,1.8-2.2,1.4-.4-.6,2.4-1.1v.3l.2.3h.1v.2h.2l-2,.3h0v-.2a4,4,0,0,0,.4-1.3c0-.6.1-1.1.1-1.7v-1.2h2.6v1.1h.1s-.1,0,.1-.2a3.5,3.5,0,0,0,.5-.8l.3-.4v-.2h.1l2.2,1.5h0l-1.3,1.6-1.2,1.6-.7.7-.3.4v.2h-.1c-.7-.9,1.8,1.9-1.7-2h.1c2-1.2,3.5-3.4,4.9-5.6h0c.9-1.4,1.8-2.9,2.8-4.3V227h.1l.2-.3.2-.2h.1c-1.9-1.5,2.5,2.1,2,1.7h-.2l-.9,1-1.2,1.1a19.7,19.7,0,0,0-2.1,2.6l-1.1-1.2.5-.2.5-.5a5.5,5.5,0,0,0,1.1-1.8c0-.2-.1-.3-.1-.4a.2.2,0,0,1,.2-.2l.4.3c.1.1.1.2.2.4v.5a3.5,3.5,0,0,1-.7,2.1c.1,0,0,.2-.2.4l-.4.5-.8.6-1.3-1.3a13.8,13.8,0,0,1,2-3.3,13.1,13.1,0,0,1,1.3-1.6l.8-.9h0c.9.7-2.1-1.7,2.1,1.6h-.2v.3l-.2.2-.3.5c-.9,1.2-1.7,2.6-2.5,3.9h0a27,27,0,0,1-2.5,3.4,14.1,14.1,0,0,1-3.3,3.1h-.1c-3.5-4-1-1.1-1.8-2h.1v-.2l.3-.4.7-.8,1.2-1.6,1.2-1.5h.1l2.2,1.5h-.1v.3l-.3.4-.6.9-.7.8-.5.5-.4.4-.5.4-.4.3-.5.2-.4.2-1,.4-.5.2h-.2v-1.3a3.7,3.7,0,0,1-.1-1.1h0v-.8a1.9,1.9,0,0,0,.1-.8l.2-.9v-.9h2.7V235c-.1.6-.1,1.2-.2,1.9a6.6,6.6,0,0,1-.6,2.2h0l-.2.5H572l-1.9.3h-.2l-.2-.2-.3-.5-.4-.4a1.4,1.4,0,0,1-.2-.6l-.2-.6,2.4-1.1.5.9-2.3,1.4-1.3-1.7,1.6-2.1Z" transform="translate(-482.4 -187.3)"/>
    <path class="bdb8980c-961f-457f-80f1-8f16f868e5db" d="M576.9,227.9v-.2a1.1,1.1,0,0,1,.1-.5l.4-.5.3-.2.3-.2.5-.5h.2a1.1,1.1,0,0,0,.2.6l.4,1.9h-.6l-.3.2-1-2.4,2.5-.3a6.6,6.6,0,0,0,2.1-.8l1.5,2.2-.7.5-.9.4-1.6.6-.9.3H579c-.2-.3,0-.8.4-1.4l.9-1,.8-.7.3-.3.4-.4,1.6,2.2a9.5,9.5,0,0,1-2.9,1.1l-2.7.4-5.4.7,4.4-3.1.5-.3c.1-.2.3-.2.5-.4l.7-.2h.8l4.5-.4-3.6,2.8-1,.4h-1.5Z" transform="translate(-482.4 -187.3)"/>
    <path class="bdb8980c-961f-457f-80f1-8f16f868e5db" d="M559.8,225.1h0c-.2.3-.6,1.3-1.2,2.3h0l-.4-.2-.3-.2h-.2v-.2h-.1v-.2a1.2,1.2,0,0,1,.1-.8.5.5,0,0,1,.2-.4h.2l.5-.2h.6v.3a2.6,2.6,0,0,1-.5,1.4h0c0-.2.1-.3.1-.5s.1-.2.1-.3h.3l.2-.3.3-.4h.3Z" transform="translate(-482.4 -187.3)"/>
    <path class="bdb8980c-961f-457f-80f1-8f16f868e5db" d="M577,209.1h0l.8-2.4h.3a3.2,3.2,0,0,0,.1.7,3.7,3.7,0,0,1,0,1.5l-.3.5H577Z" transform="translate(-482.4 -187.3)"/>
    <path class="bdb8980c-961f-457f-80f1-8f16f868e5db" d="M547.2,217.3h0c-.1-.2-.1-.5.4-.5h0l.8.8.8.8.4.4,1.1,1.4c.8.9.3.7-.3.2l-1.3-1.2-.4-.4-.7-.7Z" transform="translate(-482.4 -187.3)"/>
    <path class="bdb8980c-961f-457f-80f1-8f16f868e5db" d="M547.3,213.2h0c0-.2.1-.4.5-.3h.1a4.1,4.1,0,0,0,.5.9,32.1,32.1,0,0,0,4.2,4.9c.1.1.2.3.4.4l.4.5.6.9c.7,1.1.2.8-.3.3l-.6-.6-.7-.7-.3-.4a29,29,0,0,1-4.3-4.9Z" transform="translate(-482.4 -187.3)"/>
    <path class="bdb8980c-961f-457f-80f1-8f16f868e5db" d="M547.8,209.8h0c-.1-.2,0-.5.4-.4h.1l.7.9,6.6,7.4,1,1.4c.7,1.1.2.8-.3.3L555,218l-6.5-7.4Z" transform="translate(-482.4 -187.3)"/>
    <path class="bdb8980c-961f-457f-80f1-8f16f868e5db" d="M547.8,204.6h0c0-.2,0-.5.4-.5h.1l.8.8c2,2,3.8,4.2,5.6,6.4l2.7,3.3,1.4,1.5.5.6a10.6,10.6,0,0,1,1.1,1.3c.8.9.3.7-.3.3s-.3-.3-.6-.6l-.5-.4-.3-.2-.6-.7-1.4-1.6c-.9-1-1.7-2.1-2.6-3.2a81.1,81.1,0,0,0-5.5-6.2Z" transform="translate(-482.4 -187.3)"/>
    <path class="bdb8980c-961f-457f-80f1-8f16f868e5db" d="M545.9,197.7h0c-.1-.2-.1-.5.4-.5h0l.8.8,3.3,3.5,3.1,3.6,3.2,3.5,2.2,2.2,1.1,1.4c.7.9.3.7-.3.2l-1.3-1.2-.7-.6-1.6-1.7-3.2-3.5-3.1-3.5-3.2-3.4Z" transform="translate(-482.4 -187.3)"/>
    <path class="bdb8980c-961f-457f-80f1-8f16f868e5db" d="M547.1,195.1h0a.4.4,0,0,1,.2-.6h.1l1,.4a17,17,0,0,1,3.8,2.6c1.1,1,2.2,2,3.2,3.1l2.9,3.4,1.9,2.3,1.1,1.4c.7.9.3.7-.3.2l-.6-.6a4,4,0,0,1-.7-.7l-.6-.6-1.4-1.7c-1-1.1-1.9-2.3-2.9-3.3l-3.1-3.1a17.4,17.4,0,0,0-3.6-2.4Z" transform="translate(-482.4 -187.3)"/>
    <path class="bdb8980c-961f-457f-80f1-8f16f868e5db" d="M549.5,192.6h-.1a.4.4,0,0,1,.3-.6h0l1,.6a23.5,23.5,0,0,1,5.3,4.1l2.3,2.3,1.1,1.1.5.5.4.5.7.9c.8.9.4.7-.2.2l-.7-.5-.7-.6-1.7-1.8-2.3-2.2a23.3,23.3,0,0,0-5-3.9Z" transform="translate(-482.4 -187.3)"/>
    <path class="bdb8980c-961f-457f-80f1-8f16f868e5db" d="M552,190h0c-.1-.1-.2-.5.3-.5h.1l.9.7a40.7,40.7,0,0,1,5.8,5.2l2.6,2.9,1.4,1.4.5.5.4.5.7.8c.8,1,.3.7-.3.3s-.3-.3-.6-.6l-.8-.6-.6-.6-1.3-1.4-2.6-2.8a38.5,38.5,0,0,0-5.6-5.1Z" transform="translate(-482.4 -187.3)"/>
  </g>
</svg>
