<svg id="a55761a2-7334-4d84-9176-7b6fedde0e93" data-name="Objects" xmlns="http://www.w3.org/2000/svg" viewBox="0 0 28.6 52.2">
  <defs>
    <style>
      .b14ed22a-4e49-46d4-a81b-08eed4e18a56 {
        fill: #252525;
      }
    </style>
  </defs>
  <g>
    <g>
      <path class="b14ed22a-4e49-46d4-a81b-08eed4e18a56" d="M566.7,900.3h.1a1.1,1.1,0,0,1,.7.6c.1.3.1.6-.3,1.1h-.1a13.1,13.1,0,0,0-2.8.9,14.4,14.4,0,0,0-6.5,4.9,6.1,6.1,0,0,0-1.3,3.5,3.9,3.9,0,0,0,1.5,3.2,6,6,0,0,0,1.6.8l1.9.2a11,11,0,0,0,4-.8,10.8,10.8,0,0,0,3.4-2.1l.4-.4.3-.3.5-.7h.1l.2-.3.6-.9a4.7,4.7,0,0,0,.7-1.2c.2-.3.2-.5.4-.7a2.5,2.5,0,0,0,.2-.7c.3-.8.4-1.3.5-1.6s.2-.4.3-.3a6.7,6.7,0,0,1,.1,2.9,3.1,3.1,0,0,1-.2.8l-.3.9a6.7,6.7,0,0,1-.8,1.7c-.1.2-.3.4-.3.6h-.2l-.6.8-.3.3-.3.3-.4.4a12.7,12.7,0,0,1-4.1,2.3,11.5,11.5,0,0,1-4.5.7,7.6,7.6,0,0,1-4.7-1.6,6,6,0,0,1-1.4-2.1,5.3,5.3,0,0,1-.5-2.5,8.8,8.8,0,0,1,1.7-4.5,16.6,16.6,0,0,1,3.3-3.2,17.5,17.5,0,0,1,4-2.2A16,16,0,0,1,566.7,900.3Z" transform="translate(-554.6 -865.2)"/>
      <path class="b14ed22a-4e49-46d4-a81b-08eed4e18a56" d="M568.2,900.6c.1,0,.1,0,0,.1a.9.9,0,0,1-.4.7c-.2.2-.5.3-1.1,0h-.2c-.4-1.1-.6-2-.9-3l-.9-3.3-1-3.2-1.9-6.4L558.4,874s-.6-2.7-.9-4.7.2-2.1,1-.2c0-.2,1.7,4.6,1.7,4.6l3.5,11.4,1.8,6.3,1,3.2.9,3.2C567.6,898.7,567.9,899.7,568.2,900.6Z" transform="translate(-554.6 -865.2)"/>
      <path class="b14ed22a-4e49-46d4-a81b-08eed4e18a56" d="M557.8,868.5h0a2.4,2.4,0,0,1-1-1.4h0l.5-.3.6-.3.7-.3,1.2-.5.6-.3h1.1c.9.2.7.6.4,1l-.4.4-.5.3-.5.2-.6.2-.6.2-.6.3-.4.3Z" transform="translate(-554.6 -865.2)"/>
      <path class="b14ed22a-4e49-46d4-a81b-08eed4e18a56" d="M561.5,866.6v-.2a.9.9,0,0,1,1.4-.9h.1a20,20,0,0,0,1.9,2.2,33.3,33.3,0,0,0,6.2,4.1l3.3,2.1a25.1,25.1,0,0,1,3.1,2.6,19.8,19.8,0,0,1,4.6,6.4,11.4,11.4,0,0,1,1.1,4V888a3.8,3.8,0,0,1-.1,1,1.8,1.8,0,0,1-.1.5,3.5,3.5,0,0,1-.3,1.2,8.5,8.5,0,0,1-1.7,2.9,4.4,4.4,0,0,1-1.3,1.2c-.3.2-.4.2-.4,0s.5-.9.9-1.8.5-1,.8-2.1a5,5,0,0,0,.3-1.6v-1.9h0v-.6a10.2,10.2,0,0,0-1-3.4,19.5,19.5,0,0,0-4.3-5.7,31.1,31.1,0,0,0-2.8-2.3l-3.1-1.9a34.7,34.7,0,0,1-6.4-4.4A12.6,12.6,0,0,1,561.5,866.6Z" transform="translate(-554.6 -865.2)"/>
      <path class="b14ed22a-4e49-46d4-a81b-08eed4e18a56" d="M580.2,894.8c0,.1,0,.1-.1.2a1.9,1.9,0,0,1-.8.3,1.2,1.2,0,0,1-.8-.9s-.1-.1,0-.1a8,8,0,0,0,.2-2.7,14.7,14.7,0,0,0-1.9-5.3,13.1,13.1,0,0,0-3.9-4.2l-.7-.5-.7-.4-1.3-.8a23.4,23.4,0,0,0-2.7-1.5c-1.5-.7-2-1-1.7-1.2a6.1,6.1,0,0,1,2.1.2l2.3.8a18.6,18.6,0,0,1,2.5,1l1.2.9a14.4,14.4,0,0,1,4.5,4.7,19.4,19.4,0,0,1,1.3,3,10.9,10.9,0,0,1,.8,3.1A6.5,6.5,0,0,1,580.2,894.8Z" transform="translate(-554.6 -865.2)"/>
      <path class="b14ed22a-4e49-46d4-a81b-08eed4e18a56" d="M565.5,878.9h0c.2-.5.7-1.3,1.7-.5a.1.1,0,0,1,.1.1l.8,2.9,4,14.8a9.4,9.4,0,0,1,.4,1.6v.5c.1.3.1.7.2,1.2a17.1,17.1,0,0,1,.1,3.2,3.1,3.1,0,0,1-.2,1.1c0,.3-.1.5-.1.7s-.3.3-.3.2a1.5,1.5,0,0,1-.3-.7,3.4,3.4,0,0,0-.2-1.3,4.5,4.5,0,0,0-.1-.6,12.2,12.2,0,0,0-.3-1.7c-.2-.5-.3-1.2-.5-1.6l-.2-.8a10.3,10.3,0,0,0-.4-1.4l-4-14.7Z" transform="translate(-554.6 -865.2)"/>
    </g>
    <path class="b14ed22a-4e49-46d4-a81b-08eed4e18a56" d="M555.4,910.3h0a1.4,1.4,0,0,1,1.1-.7h.1l.5.7.5.7.6.7a9.4,9.4,0,0,0,1.2,1.4l.6.7.3.4.5,1c.4,1-.1.8-.6.4s-.3-.2-.6-.4l-.7-.6-.5-.6c-.4-.3-.8-.9-1.3-1.4l-.6-.8-.6-.7Z" transform="translate(-554.6 -865.2)"/>
    <path class="b14ed22a-4e49-46d4-a81b-08eed4e18a56" d="M556.6,908.7h-.1c0-.4.2-1,1.1-.7h.1l1.3,1.8.9,1,.8.9.8,1,1.4,1.8c1.6,2,.6,1.5-.5.5a7.5,7.5,0,0,1-1.4-1.1l-1.4-1.4-.8-.8-.8-1Z" transform="translate(-554.6 -865.2)"/>
    <path class="b14ed22a-4e49-46d4-a81b-08eed4e18a56" d="M558.4,906.7v-.2a.7.7,0,0,1,.3-.6c.2-.1.5,0,.8,0a.1.1,0,0,1,.1.1l.7.7.8.8,2,2.3.8,1s1.2,1.7,2,3,.5,1.5-.6.4a33.2,33.2,0,0,1-2.5-2.7l-.8-.8-1.9-2.2-.8-.9A7.3,7.3,0,0,1,558.4,906.7Z" transform="translate(-554.6 -865.2)"/>
    <path class="b14ed22a-4e49-46d4-a81b-08eed4e18a56" d="M560.3,905.3h0c-.1-.3-.1-1,.9-.9h.1l1.6,1.7,2.1,2.2.9,1,.8.9,1.3,2c1.3,2.2.4,1.6-.7.5a7.4,7.4,0,0,0-1.2-1.3l-1.3-1.4a6,6,0,0,1-.8-.8l-2.1-2.2Z" transform="translate(-554.6 -865.2)"/>
    <path class="b14ed22a-4e49-46d4-a81b-08eed4e18a56" d="M562.3,903.6h0a.8.8,0,0,1,.2-.7c.1-.2.4-.2.8-.2a.1.1,0,0,0,.1.1l.8.7.7.9,1.6,1.8.8,1,.7,1,1.3,1.9c1.4,2.1.6,1.6-.6.5l-1.2-1.3-1.4-1.4-.7-.8-1.5-1.7-.7-.9Z" transform="translate(-554.6 -865.2)"/>
    <path class="b14ed22a-4e49-46d4-a81b-08eed4e18a56" d="M564.8,902.7a.1.1,0,0,1-.1-.1,1,1,0,0,1,.2-.7h1l.3.3a.8.8,0,0,0,.4.4l.4.4.4.5.9,1,.9,1,.8,1,1.3,1.9c1.5,2.1.6,1.5-.6.5l-1.3-1.3-1.3-1.3-.8-.8-.9-1.1-.4-.4-.4-.4c-.1-.1-.3-.2-.4-.4Z" transform="translate(-554.6 -865.2)"/>
    <path class="b14ed22a-4e49-46d4-a81b-08eed4e18a56" d="M566.9,900.8h.1a.4.4,0,0,1,.4-.3,2.1,2.1,0,0,0,.8,0h.1s-.1,0,0,.1l.4.4,1.3,1.5c1.1,1,2.1,2.1,2.1,2.1l.8,1.4c.6,1,.1.9-.5.5a12.1,12.1,0,0,1-1.4-1l-2-2.1-1.4-1.5-.5-.6Z" transform="translate(-554.6 -865.2)"/>
    <path class="b14ed22a-4e49-46d4-a81b-08eed4e18a56" d="M565.8,896.8h0c.1-.3.4-.6,1.1-.7h.1a2.8,2.8,0,0,0,.4.7,3.4,3.4,0,0,0,.6.6l.6.7,1.4,1.3.7.5a9.4,9.4,0,0,1,1,1.2c.7.9.2.9-.5.6l-.7-.4-.7-.4-.7-.5-.7-.6a4.6,4.6,0,0,1-.7-.7l-.8-.7-.6-.8Z" transform="translate(-554.6 -865.2)"/>
    <path class="b14ed22a-4e49-46d4-a81b-08eed4e18a56" d="M565.5,894.1h0a1.3,1.3,0,0,1,.8-1h.1l2,1.8a7.7,7.7,0,0,1,1.3,1.2l.6.5a11.8,11.8,0,0,1,.8,1.3c.5.8,0,.8-.5.5a9.1,9.1,0,0,1-1.3-.8l-.6-.6-1.2-1.1Z" transform="translate(-554.6 -865.2)"/>
    <path class="b14ed22a-4e49-46d4-a81b-08eed4e18a56" d="M563.7,889.5h0a.8.8,0,0,1,.2-.4,2,2,0,0,1,.8-.4h.1v.2l.4.4.8.5h.1a.1.1,0,0,1,.1.1l.2.2.4.3,2.2,2a6.5,6.5,0,0,1,.9,1.4c.6.9.1.9-.5.5a11,11,0,0,1-1.4-.9l-2.1-2-.4-.3-.2-.2h-.1l-.8-.6c-.3-.2-.5-.3-.6-.5Z" transform="translate(-554.6 -865.2)"/>
    <path class="b14ed22a-4e49-46d4-a81b-08eed4e18a56" d="M562.9,886h0c0-.2.1-.3.3-.5l.8-.2h0a.1.1,0,0,1,.1.1l.5.4.7.6.4.4.5.4,1.5,1.3.7.6,1,1.3c.8.9.2.9-.4.6l-.8-.4-.8-.5-.2-.2-.5-.4-1.5-1.3c-.1-.2-.3-.3-.4-.4l-.4-.3-.7-.6A2.5,2.5,0,0,1,562.9,886Z" transform="translate(-554.6 -865.2)"/>
    <path class="b14ed22a-4e49-46d4-a81b-08eed4e18a56" d="M561.6,882.2h0c0-.3.4-.6,1-.8h.1l.4.6.6.5.6.5,1.4.9.6.3,1,1c.6.8.1.8-.4.7l-.7-.2-.7-.3-.6-.4-.7-.4-.7-.5-.8-.6-.6-.6Z" transform="translate(-554.6 -865.2)"/>
    <path class="b14ed22a-4e49-46d4-a81b-08eed4e18a56" d="M560.7,878.3h0c0-.3.3-.7.9-.9h.1l.6.6.6.6a2.7,2.7,0,0,1,.8.7l2.2,1.6a7.2,7.2,0,0,1,1.1,1.2c.7.8.2.8-.5.6l-1.4-.7-.7-.5-1.6-1.2-.8-.7-.7-.6Z" transform="translate(-554.6 -865.2)"/>
    <path class="b14ed22a-4e49-46d4-a81b-08eed4e18a56" d="M559.5,874.1h0a.8.8,0,0,1,.2-.5,2,2,0,0,1,.8-.4h.2c.1.1.2.3.4.4l.8.6.9.7,1.6,1.3.7.6a10.6,10.6,0,0,1,1.1,1.3c.7.9.1.9-.5.6l-1.5-.9-.7-.6-1.6-1.2-.8-.7-.8-.6-.6-.4Z" transform="translate(-554.6 -865.2)"/>
    <path class="b14ed22a-4e49-46d4-a81b-08eed4e18a56" d="M557.6,868.5h0c-.1-.3.1-.9,1-.7h.1a2.7,2.7,0,0,0,.7.8l.8.8a43.9,43.9,0,0,0,4,3.3l4,3.5.9.8,2.4,2.7c1.6,2,.7,1.5-.5.6l-3-2.4-.8-.7-3.9-3.4c-1.3-1.1-2.8-2.1-4.1-3.4l-.8-.8A3.9,3.9,0,0,1,557.6,868.5Z" transform="translate(-554.6 -865.2)"/>
    <path class="b14ed22a-4e49-46d4-a81b-08eed4e18a56" d="M559.8,867.6h0c-.1-.4.1-1,1-.9h.1a11.4,11.4,0,0,0,1.5,1.6c1.4,1.1,3,2.2,4.4,3.5l4.2,3.7,4.1,3.8,2.1,1.7.6.5.5.4,1,.8,1.6,1.7c1.8,1.9.8,1.4-.5.6l-1.5-1-1.6-1.1-.5-.4-.7-.6-1.1-.9-1-.9-4.1-3.7-1-.9-1-.9-2.1-1.8c-1.3-1.2-2.8-2.3-4.3-3.5Z" transform="translate(-554.6 -865.2)"/>
    <path class="b14ed22a-4e49-46d4-a81b-08eed4e18a56" d="M577.8,886.8h0a2.2,2.2,0,0,1,1-.9h0c.1,0,2.8,2.8,2.8,2.8a3.7,3.7,0,0,1,.4,1c.4.7-.1.7-.5.5l-1-.6S577.8,886.9,577.8,886.8Z" transform="translate(-554.6 -865.2)"/>
  </g>
</svg>
