<svg id="a492b024-38d6-4a17-85d6-2c934f84938e" data-name="Objects" xmlns="http://www.w3.org/2000/svg" viewBox="0 0 145 99.6">
  <defs>
    <style>
      .b98584b5-0bc7-40aa-b0d8-233f3afb5ec2 {
        fill: #252525;
      }
    </style>
  </defs>
  <g>
    <path class="b98584b5-0bc7-40aa-b0d8-233f3afb5ec2" d="M784,653h0a1.5,1.5,0,0,1-.4.8c-.3.2-.6.3-1.3-.1h-.1l-.3-.9a16.2,16.2,0,0,1-.6-2.2h0v-.2a5,5,0,0,1-.2-1.2c-.3-1.5-.4-3.1-.6-4.7l-.3-2.4c0-.3-.1-.7-.1-1.1v-.3h-.7l-1.2-.3a18.3,18.3,0,0,1-2.5-.6,22.1,22.1,0,0,1-9.3-5.5,17.3,17.3,0,0,1-3.3-4.7,14.9,14.9,0,0,1-1.4-5.6,14.3,14.3,0,0,1,.7-5.8,18.9,18.9,0,0,1,2.5-5.4,23.2,23.2,0,0,1,3.9-4.4,27.6,27.6,0,0,1,4.6-3.7l.7-.4.6-.4,1.3-.7,2.7-1.3a34.7,34.7,0,0,1,5.7-1.9,51.5,51.5,0,0,1,11.8-1.4h6c1.9.4,3.9.7,5.8,1.3a35,35,0,0,1,10.8,4.8,28.4,28.4,0,0,1,4.7,3.7c.7.6,1.3,1.4,2,2.1l.9,1.2.8,1.2a27.9,27.9,0,0,1,4.3,10.6,21.8,21.8,0,0,1,.3,5.7,14.7,14.7,0,0,1-1.6,5.4,12.5,12.5,0,0,1-3.7,4.2,17.9,17.9,0,0,1-4.6,2.7,38,38,0,0,1-9.7,2.3,73.9,73.9,0,0,1-9.2.5h-2.2a6.7,6.7,0,0,0-2,0l-2,.2-1.7.5a12.3,12.3,0,0,0-3.2,1.7l-1.3,1.1-.2.2-.7.6-.5.6-1.3,1.1-2.6,2.2c-2.9,2.3-2.1.9-.8-.8l1.7-2,1.2-1.4.5-.7a2.8,2.8,0,0,0,.6-.6l.3-.3h.3l.5-.5.7-.5a18.5,18.5,0,0,1,3.3-2.1,13.1,13.1,0,0,1,4-1h8.3a54.7,54.7,0,0,0,8.8-.9,24.8,24.8,0,0,0,8.7-2.9,12.8,12.8,0,0,0,3.7-2.9,9.6,9.6,0,0,0,2.2-4.1c1-3,.6-6.5-.3-9.9a24.1,24.1,0,0,0-4.7-9.3c-.2-.4-.6-.7-.8-1.1a9.4,9.4,0,0,1-1-1,18,18,0,0,0-2-1.8,26.9,26.9,0,0,0-4.4-3.1,42.3,42.3,0,0,0-21.6-5.1,50.7,50.7,0,0,0-5.6.5,33.9,33.9,0,0,0-5.5,1.3,32.8,32.8,0,0,0-10,4.7,36.2,36.2,0,0,0-4.2,3.6,21.8,21.8,0,0,0-3.3,4.2,15.5,15.5,0,0,0-2.1,10,14.3,14.3,0,0,0,4.6,8.6,16.5,16.5,0,0,0,4.1,2.8,17.7,17.7,0,0,0,4.5,1.8l2.3.5,1.3.3,1.2.2.2,1v1.5c.1.4.1.8.2,1.2s.1,1.6.2,2.4.4,3.1.6,4.5.1.4.1.6h0v.2A25.1,25.1,0,0,0,784,653Z" transform="translate(-723.6 -554.5)"/>
    <path class="b98584b5-0bc7-40aa-b0d8-233f3afb5ec2" d="M819.5,599.3c-.1,0-.1,0-.1.1a1.3,1.3,0,0,1-.9.1c-.3,0-.7-.2-.8-.9v-.2a15.4,15.4,0,0,1,1.8-2.7l.8-1,1.1-1.6h-.3l-.5-.2-.9-.5-1.9-1.2a23.4,23.4,0,0,1-3.5-2.9,20.2,20.2,0,0,1-5.2-7.8,16.7,16.7,0,0,1-.4-9.9,18.7,18.7,0,0,1,5.6-8.5,31.9,31.9,0,0,1,4.2-3l2.3-1.1,2.4-1a40.7,40.7,0,0,1,20.5-1.7,38,38,0,0,1,9.9,3.1,28.5,28.5,0,0,1,8.5,6,22,22,0,0,1,5.4,8.7,24.4,24.4,0,0,1,.9,10,16.3,16.3,0,0,1-1.3,4.8,10.8,10.8,0,0,1-3,4,13.3,13.3,0,0,1-4.1,2.5,14.7,14.7,0,0,1-4.4,1.3,43.7,43.7,0,0,1-8.6.8h-8a56,56,0,0,0-7.1,0,16.5,16.5,0,0,0-3.2.6l-1.4.4H827l-.8.3-.7.3-1.7.5-1.6.5-1.7.4c-1.8.3-2.4.2-2.3,0l2-1.1,2.3-1,1.7-.9.8-.3.7-.3.4-.2,1.7-.5,1.6-.4,1.6-.3,3.4-.2,7.2.2c2.5,0,5.1.1,7.8-.1l4-.3a28.3,28.3,0,0,0,4-.8,13.3,13.3,0,0,0,6.8-4.3,12.7,12.7,0,0,0,1.8-3.7l.2-.6a1.1,1.1,0,0,1,.1-.5c0-.4.1-.7.1-1.1a15,15,0,0,0,.2-2.2,21,21,0,0,0-1.6-8.9,23.9,23.9,0,0,0-5.5-7.5,30.8,30.8,0,0,0-8.2-4.9,34.4,34.4,0,0,0-9.4-2.5,40.1,40.1,0,0,0-9.8-.2,36.2,36.2,0,0,0-9.3,2.3l-1.1.5-1.1.5-2.1,1.2-1.9,1.4-1.7,1.5a15.6,15.6,0,0,0-4.5,7.7,14.5,14.5,0,0,0,.9,8.5,18.9,18.9,0,0,0,4.9,6.9,25.1,25.1,0,0,0,3.2,2.5l1.8,1,.4.3h.5l1.7.8.4.2h.1l-.2.2-.5.9-.6.8-.3.4-1.2,1.7-.5.6A13.7,13.7,0,0,0,819.5,599.3Z" transform="translate(-723.6 -554.5)"/>
    <path class="b98584b5-0bc7-40aa-b0d8-233f3afb5ec2" d="M765.6,597.2v.2c.1.5-.1,1.4-1.4,1.1s-.2,0-.2-.1l-2-2.6-3.3-4.3a.3.3,0,0,1-.1-.2v-.2l.4-.4.8-.7.8-.9,1.7-1.6c1.1-1.1,2.2-2.2,3.1-3.3a16.8,16.8,0,0,0,2.3-3.8,16,16,0,0,0,1.1-4.3,12.5,12.5,0,0,0-.3-4.3l-.3-1-.4-1a12.4,12.4,0,0,0-1-2,15.3,15.3,0,0,0-2.9-3.3,18.3,18.3,0,0,0-3.6-2.6l-4.2-1.7a27,27,0,0,0-8.9-1.3,21.8,21.8,0,0,0-8.7,2.1,19.8,19.8,0,0,0-7.2,5.3,22,22,0,0,0-4.5,7.7,14.2,14.2,0,0,0-.7,2.2l-.2,1.1a3.6,3.6,0,0,0-.2,1.1,16.1,16.1,0,0,0-.2,4.4,12.7,12.7,0,0,0,3.7,7.7,16.6,16.6,0,0,0,7.6,4.4,22.4,22.4,0,0,0,8.9.6H747l1.1-.2a19.7,19.7,0,0,1,2.4-.3h4.9l1.4.2h.5l1,.2h.5l1.2.4,3.2,1.4c3.2,1.6,1.7,1.5-.5,1l-2.4-.6-1.8-.3-.9-.2h-6.7l-2.2.3a19.7,19.7,0,0,1-2.4.3l-1.1.2H744a23.6,23.6,0,0,1-9.5-1.4,18.4,18.4,0,0,1-7.8-5.7,14.9,14.9,0,0,1-2.3-4.3,13.6,13.6,0,0,1-.8-4.9,19.6,19.6,0,0,1,.5-4.8,33.6,33.6,0,0,1,1.4-4.5,35.5,35.5,0,0,1,2.3-4.3,26.9,26.9,0,0,1,3-3.7,23.8,23.8,0,0,1,8-5.3,25.3,25.3,0,0,1,9.4-1.8,27.4,27.4,0,0,1,9.4,1.7,21.6,21.6,0,0,1,8.2,4.9,14,14,0,0,1,3,3.8,12.5,12.5,0,0,1,1.8,4.5,14,14,0,0,1,.2,5,10.3,10.3,0,0,1-.5,2.4,20.9,20.9,0,0,1-.8,2.3,21.9,21.9,0,0,1-2.6,4.1,34.7,34.7,0,0,1-3.2,3.4l-1.7,1.6-.9.9,2.5,3.1Z" transform="translate(-723.6 -554.5)"/>
    <path class="b98584b5-0bc7-40aa-b0d8-233f3afb5ec2" d="M779,613.4h-.1l-.3-.2V613h-.1c.1,0-.1-.2.1.1h-.4c-.1-.1-.1-.1-.1-.2a.7.7,0,0,1,.1-.5h0c-.3-.7-.1-.2-.2-.4h0l.2-.3v-.2h.2l.9-.2h.4c.3-.1.3,0,.5,0H782c1.2,0,2.3-.1,3.5,0l3.5.2,3.5.4,3.5.4,6.9,1,3.4.4h2l5,.9c3.6.7,2.2,1-.1,1.1a18.3,18.3,0,0,1-2.6,0h-3.7l-1.2-.2-3.4-.4-6.8-1-3.4-.4-3.3-.3-3.4-.2c-1.1-.1-2.2,0-3.4,0h-2.2Z" transform="translate(-723.6 -554.5)"/>
    <path class="b98584b5-0bc7-40aa-b0d8-233f3afb5ec2" d="M777.2,619.1h-.1c-.4-.3-.9-1.1.2-1.8s.1-.1.2-.1l3.2.4,15.4,1.8,7.7,1,3.8.5,2,.3,5,1.3c3.5,1,2,1.2-.3,1.1l-5.2-.5-2.2-.3-3.8-.5-7.5-1-15.1-1.7Z" transform="translate(-723.6 -554.5)"/>
    <path class="b98584b5-0bc7-40aa-b0d8-233f3afb5ec2" d="M777.1,625.7a.1.1,0,0,1-.1-.1,2,2,0,0,1,.2-1.8h.1l8.2.9a14.8,14.8,0,0,1,2.2.7c1.5.6.8.9-.2,1.1h-2.3Z" transform="translate(-723.6 -554.5)"/>
    <path class="b98584b5-0bc7-40aa-b0d8-233f3afb5ec2" d="M821.9,565.8h-.1a1.1,1.1,0,0,1,.2-1.9h.2l3.2.4,13.5,1.7,6.8.9,3.3.5,2,.3,5,1.4c3.4,1,1.9,1.2-.3,1.1l-5.3-.6h-.9l-1.2-.2-3.3-.5-6.6-.9-13.2-1.7Z" transform="translate(-723.6 -554.5)"/>
    <path class="b98584b5-0bc7-40aa-b0d8-233f3afb5ec2" d="M820.7,572.3h-.1c-.4-.3-.9-1.1.2-1.8h.2l3.2.4,24.2,2.7,5,1c3.5.9,2,1.1-.2,1.1l-5.3-.2L824,572.7Z" transform="translate(-723.6 -554.5)"/>
    <path class="b98584b5-0bc7-40aa-b0d8-233f3afb5ec2" d="M819.8,578.6c-.1,0-.1,0-.1-.1s-.3-.2-.3-.4-.1-.1-.2-.2h0c-.1,0,0-.1,0-.1a.3.3,0,0,1,.1-.2l.2-.2c.1-.2.3-.3.5-.5h.2a30.3,30.3,0,0,0,3.2.6l9.2,1.3,1.8.3,5,1.1c3.5.9,2,1.2-.2,1.1l-5.3-.3-1.6-.2-9.2-1.4Z" transform="translate(-723.6 -554.5)"/>
    <path class="b98584b5-0bc7-40aa-b0d8-233f3afb5ec2" d="M730.6,581.1h-.1c-.5.1-1.5-.1-1.2-1.4a.3.3,0,0,0,.1-.2l2.6-2a130.4,130.4,0,0,1,15.3-9l1.6-.8,1.7-.7,3.1-1.1c3.4-1.2,2.3-.2.5,1l-2.3,1.3-2.3,1.4-1.4.7a117.8,117.8,0,0,0-15,8.8Z" transform="translate(-723.6 -554.5)"/>
    <path class="b98584b5-0bc7-40aa-b0d8-233f3afb5ec2" d="M734.2,584.6h-.1c-.5,0-1.5-.2-1.1-1.5a.1.1,0,0,1,.1-.1l1.3-1,1.4-.9c3.1-2,6.3-3.8,9.4-5.6l1.6-1,4.7-2.1c3.3-1.5,2.3-.4.5,1l-4.4,3-1.4.8c-3.1,1.8-6.3,3.6-9.3,5.6l-1.4.9Z" transform="translate(-723.6 -554.5)"/>
    <path class="b98584b5-0bc7-40aa-b0d8-233f3afb5ec2" d="M736,588.7h-.1a1.7,1.7,0,0,1-1.1-1.4h0l1.3-.9,1.3-.8,1.5-.8,2.9-1.3,1.3-.5.8-.2,1.6-.4c1.7-.4,1.3.3.4,1s-.4.4-1,.7l-1.2.7-1.2.6-2.8,1.2-1.4.8-1.2.7Z" transform="translate(-723.6 -554.5)"/>
  </g>
</svg>
