<svg id="f0e4bb3e-20d2-4be5-9487-19e8de3f9454" data-name="Objects" xmlns="http://www.w3.org/2000/svg" viewBox="0 0 462.7 296.3">
  <defs>
    <style>
      .a1aaa9d5-a7f0-4457-83de-2d31a2b64f2e {
        fill: #252525;
      }
    </style>
  </defs>
  <g>
    <path class="a1aaa9d5-a7f0-4457-83de-2d31a2b64f2e" d="M464.4,530.4a1.4,1.4,0,0,1,.9,0l1.1.3,1.1.6a4,4,0,0,1,1.5,1.9,3.6,3.6,0,0,1,0,2.5,14.2,14.2,0,0,1-1.4,3.2.9.9,0,0,1-.4.5,9.1,9.1,0,0,0-2.2,1.1,6.9,6.9,0,0,0-1.7,1.7,11.2,11.2,0,0,0-2.1,5.1,17.9,17.9,0,0,0,.4,6.9,13.7,13.7,0,0,0,3.2,5.7,7.4,7.4,0,0,0,5,2,13.6,13.6,0,0,0,6.3-2,11.6,11.6,0,0,0,2.4-1.8l.3-.3.2-.3.4-.5a3.7,3.7,0,0,0,.7-1.2l.3-.4a1.7,1.7,0,0,1,.2-.5,1.6,1.6,0,0,0,.3-.6,11.8,11.8,0,0,0,.7-4.4,11.3,11.3,0,0,0-.2-3.1,20.2,20.2,0,0,0-.9-3.3,30.1,30.1,0,0,0-1.6-3.1,10.3,10.3,0,0,0-2.1-2.5,7.2,7.2,0,0,0-3.7-2h-1.6l-1.2.2h-1c-.3,0-.5.1-.7,0s-.5-.2-.4-.5a2.9,2.9,0,0,1,.8-1.4l1-.8,1.4-.8a10.6,10.6,0,0,1,4.1-.4,11.8,11.8,0,0,1,4.6,1.5,11.3,11.3,0,0,1,3.3,2.6,20.1,20.1,0,0,1,3,3.8,25.7,25.7,0,0,1,2.4,5,21,21,0,0,1,.9,11l-.3,1.1-.3,1a6.7,6.7,0,0,1-.6,1.7,7.7,7.7,0,0,1-.6,1.4,20,20,0,0,1-7.1,6.8,29.1,29.1,0,0,1-5.1,2.2,18.6,18.6,0,0,1-5.8,1,17.2,17.2,0,0,1-6.3-1.2,15,15,0,0,1-5.3-3.4,21.6,21.6,0,0,1-5.7-9.9,25.6,25.6,0,0,1-.7-11,20.9,20.9,0,0,1,3.8-9.3,20.1,20.1,0,0,1,3.9-3.8A17.7,17.7,0,0,1,464.4,530.4Z" transform="translate(-252 -406.8)"/>
    <path class="a1aaa9d5-a7f0-4457-83de-2d31a2b64f2e" d="M451,565.8h.3c1.3-.1,3.5.4,2.8,3.5l-.2.4-6.2,4.8-7.8,6-7.8,6-3.4,2.7s-5.9,4.1-10.3,6.7c-7.4,4.5-5.3,1.6-1.5-2.2-.5.3,9.4-8.5,9.4-8.5l2.9-2.4,7.8-6,7.8-6.1Z" transform="translate(-252 -406.8)"/>
    <path class="a1aaa9d5-a7f0-4457-83de-2d31a2b64f2e" d="M459.2,520.6v.3c.2,1.3-.3,3.5-3.4,2.8l-.4-.2-4.8-6.2-5-6.5-2.4-3.2-1.3-1.6-1.2-1.7-2.6-3.6s-1-1.5-2.2-3.6-1.3-2.3-2-3.5-1.3-2.5-1.8-3.7c-3.9-7.7-1.1-5.3,2.3-1.3l3.7,4.8,2.9,3.5,1.3,1.6,2.2,3,1.2,1.6,1.2,1.6,2.5,3.3,4.9,6.4Z" transform="translate(-252 -406.8)"/>
    <path class="a1aaa9d5-a7f0-4457-83de-2d31a2b64f2e" d="M489.8,532.7l-.3.2a2.9,2.9,0,0,1-2.2-.5,2.8,2.8,0,0,1-.7-2.9c0-.1.1-.3.1-.4a37.3,37.3,0,0,0,5.2-5.3,78.3,78.3,0,0,0,6.5-9.4l2.1-3.7,2.2-3.6,4.3-6.7c4.7-7.3,4.1-3.7,2.3,1.3.2-.3-1,2.7-2.3,5.7l-1.8,4.2-.9,1.9c-.6,1.1-1.2,2.2-1.9,3.3a61.4,61.4,0,0,1-6.9,10A45.3,45.3,0,0,1,489.8,532.7Z" transform="translate(-252 -406.8)"/>
    <path class="a1aaa9d5-a7f0-4457-83de-2d31a2b64f2e" d="M500.5,556.3h-.3c-.3-.1-.5-.4-.8-.6a.3.3,0,0,0-.1-.2l-.2-.3c0-.1-.1-.1,0-.2v-.4a.8.8,0,0,1-.4-.4l-.2-.3a.6.6,0,0,1,.1-.4,6.1,6.1,0,0,1,1.3-1.6l.4-.2h8.1c4.9.3,9.8.9,14.7,1.3l4.3.4,4.2.7,3.9.6,3.9.6c4.3.5,5.6.9,5.1,1.4s-2.6.9-5.3,1.2H526.4l-3.8-.4c-4.9-.4-9.7-1-14.5-1.3h-7.6Z" transform="translate(-252 -406.8)"/>
    <path class="a1aaa9d5-a7f0-4457-83de-2d31a2b64f2e" d="M474.5,578.4c0-.1,0-.1.1-.2s.1-.3.3-.5l.3-.5a1.8,1.8,0,0,1,1.1-.5,2.1,2.1,0,0,1,1.3.2l1.4,1c0,.1.2.4.2.5s-.1.8-.1,1.2h0v.4l.2,1.9c.1,1.3.3,2.6.5,3.8s.4,2.8.6,4.1l.9,4.3.5,4.2c.3,2.4.7,5.4.9,8,.3,4.3,0,5.6-.5,5.3s-1.3-2.4-2.1-5c0,.3-.9-2.7-1.8-5.8-.4-1.6-.9-3.2-1.2-4.4a20.3,20.3,0,0,0-.6-2c-.2-1.2-.5-2.5-.7-3.7s-.5-2.8-.7-4.3-.4-2.6-.5-3.9l-.3-2V580c0-.1-.1-.3,0-.4v-.5C474.4,578.9,474.5,578.6,474.5,578.4Z" transform="translate(-252 -406.8)"/>
    <path class="a1aaa9d5-a7f0-4457-83de-2d31a2b64f2e" d="M479.5,606.1a1.4,1.4,0,0,1,1,.3l1.2.8.9,1.1a3.9,3.9,0,0,1,.5,2.3,5.6,5.6,0,0,1-.4,1.2l-.9,1.1-1.1,1-.6.6-.5.7-.3.4a1.8,1.8,0,0,0-1.1.3l-1.4,1.4a9.6,9.6,0,0,0-1.2,2.5,13.8,13.8,0,0,0-.8,2.9,16,16,0,0,0,.7,7.9,8.5,8.5,0,0,0,4.4,5l.9.3c.2.2.6.2.9.3a5.8,5.8,0,0,0,1.9.4h2.9l.9-.2h.5l.5-.2.9-.2a15.4,15.4,0,0,0,1.9-.8,14,14,0,0,0,1.7-.9l.7-.6.4-.3.3-.3a11.6,11.6,0,0,0,3.3-5.2,1.6,1.6,0,0,1,.1-.4c.1-.1.1-.3.2-.5v-.3c0-.1.1-.3.1-.4s.2-1.2.3-1.9a24.4,24.4,0,0,0-.1-2.6,15.4,15.4,0,0,0-2.2-5.8,11.9,11.9,0,0,0-4.8-4.4,10.4,10.4,0,0,0-4.3-.9l-3.1.2c-1.6.2-2.3.1-2.1-.5a6.6,6.6,0,0,1,3.1-2.8,11.7,11.7,0,0,1,3.6-1.1,12.5,12.5,0,0,1,4.7.2,10.9,10.9,0,0,1,4.1,1.6,19.5,19.5,0,0,1,3.9,3,21,21,0,0,1,3.4,4.7,21.3,21.3,0,0,1,2,5.5,25.5,25.5,0,0,1,.5,5.3c0,.4-.1.7-.1,1.1s-.1.7-.1,1a6.1,6.1,0,0,0-.3,1.7l-.5,1.4a19.9,19.9,0,0,1-5.4,8l-.6.6-.6.5-1.4,1a15.6,15.6,0,0,1-2.8,1.6l-3.1,1.3-1.6.4-.8.2H489l-1.6.3h-1.7a4.3,4.3,0,0,1-1.6,0h-1.7a19.4,19.4,0,0,1-3.3-.7l-1.5-.5-1.7-.6a18.3,18.3,0,0,1-5.7-4.3,19.3,19.3,0,0,1-3.5-6,20.4,20.4,0,0,1-1.4-6.4,26.6,26.6,0,0,1,.2-6.3,22.6,22.6,0,0,1,3.5-9.3,16.1,16.1,0,0,1,4.2-4A12.2,12.2,0,0,1,479.5,606.1Z" transform="translate(-252 -406.8)"/>
    <path class="a1aaa9d5-a7f0-4457-83de-2d31a2b64f2e" d="M540.2,550.7a1.5,1.5,0,0,1,.9-.4h2.6a4.6,4.6,0,0,1,2,1.3,4.1,4.1,0,0,1,.7,2.5,8.5,8.5,0,0,1,0,1.6c0,.2-.1.5-.1.8v.9c0,.1.1.5,0,.5a3.8,3.8,0,0,0-.9,1.3,3.3,3.3,0,0,0-.2,1.8,5.3,5.3,0,0,0,.6,2.4,10.5,10.5,0,0,0,1.3,2.6,16.8,16.8,0,0,0,1.8,2.1,12.4,12.4,0,0,0,2.2,1.8,11.1,11.1,0,0,0,4.8,1.7h3l.5-.3h.3l.3-.2.7-.3a14,14,0,0,0,4.4-3.4l.5-.5.3-.6.2-.3.2-.3.3-.7a7.6,7.6,0,0,0,.5-2.7h0v-.3a3.9,3.9,0,0,0,0-1.1,10.4,10.4,0,0,0-1.1-4.3,11,11,0,0,0-1.5-2.5,6.3,6.3,0,0,0-1.1-1.2l-.5-.6-.7-.5a10,10,0,0,0-2.8-1.7l-1.5-.5-.8-.2h-3.2l-2.1.4-.9.3-.8.3-1.3.5a4.5,4.5,0,0,1-1.6.4c-.4,0-.5-.2-.5-.5a3,3,0,0,1,.6-1.4,9,9,0,0,1,1.7-2,14.2,14.2,0,0,1,3-2l.5-.3.5-.2,1.1-.3a3.5,3.5,0,0,1,1.1-.3l1.2-.2c-.2-.1.2-.1,1-.2h1.4l2,.3,1.1.2,1.2.3.6.2.6.3,1.2.5a26.2,26.2,0,0,1,4.8,3.4,20.7,20.7,0,0,1,5.6,9.7,16.6,16.6,0,0,1,.5,4v1.5a17.9,17.9,0,0,1-4.1,9.3l-1.6,1.7-1.9,1.6-1.9,1.3-1,.6-1,.5-1,.5-.5.2-.6.3-1.3.4-1.2.3H559l-1.2.2h-2.6a19.1,19.1,0,0,1-9.2-3.2,21.6,21.6,0,0,1-3.7-2.9,20.5,20.5,0,0,1-3-3.6,19.3,19.3,0,0,1-3.6-9.6,13.7,13.7,0,0,1,.9-5.9A11.6,11.6,0,0,1,540.2,550.7Z" transform="translate(-252 -406.8)"/>
    <path class="a1aaa9d5-a7f0-4457-83de-2d31a2b64f2e" d="M505.9,466.3c.2-.2.3-.2.8-.2a5.1,5.1,0,0,1,4.1,2.1,4,4,0,0,1,.5,2.5,18.1,18.1,0,0,1-.8,3.4,1.7,1.7,0,0,1-.3.6,8,8,0,0,0-2.1,1.5,7,7,0,0,0-1.5,1.9,9.2,9.2,0,0,0-1.1,5c0,.5.1.9.1,1.3l.3,1.3a5,5,0,0,0,.5,1.3,6.7,6.7,0,0,0,.6,1.2l.7,1.1.4.5.5.5a15.6,15.6,0,0,0,2,1.6,13.3,13.3,0,0,0,2.4,1l.6.2h4.8l1.2-.2h.6l.6-.3a7.1,7.1,0,0,0,3.6-3.8h.1c0-.1.1-.2.1-.3l.2-.5.3-.6a12.5,12.5,0,0,0,.8-4.5,15.5,15.5,0,0,0-1.2-6.2,11.7,11.7,0,0,0-4-5,14.8,14.8,0,0,0-4.2-1.6h-3.2l-1.6-.3c-.3-.2-.4-.4-.3-.7a7.3,7.3,0,0,1,3.6-2.1l1.7-.3h3.1l1.1.2,1.1.2,1.2.4a13.3,13.3,0,0,1,3.8,2.2,17.7,17.7,0,0,1,6,8.8,14.7,14.7,0,0,1,.8,2.8l.3,1.4a7.6,7.6,0,0,1,.1,1.5c0,.2.1.4.1.7v2l-.3,2.5-.3,1.1c0,.4-.2.7-.2,1l-.3.9-.3.8-.4,1c-.2.3-.2.4-.2.4a17.2,17.2,0,0,1-7.6,7l-1.2.5-.6.2-.6.2-2.4.5-1.2.2h-4.8l-1.2-.2h-1.2l-1.2-.3a23.7,23.7,0,0,1-4.6-2,23.1,23.1,0,0,1-3.9-3.1l-.8-.9-.8-1a15.3,15.3,0,0,1-1.4-2.1c-.4-.7-.7-1.4-1.1-2.2a30.3,30.3,0,0,1-1.4-4.6l-.3-2.5a17.9,17.9,0,0,1,5.6-14.3A15.9,15.9,0,0,1,505.9,466.3Z" transform="translate(-252 -406.8)"/>
    <path class="a1aaa9d5-a7f0-4457-83de-2d31a2b64f2e" d="M409.6,459.9a1.5,1.5,0,0,1,1-.2,3.4,3.4,0,0,1,1.4.2,2.6,2.6,0,0,1,1.2.5,3.1,3.1,0,0,1,1.6,1.8,5,5,0,0,1,.2,1.2,5.9,5.9,0,0,1-.2,1.3,8.8,8.8,0,0,1-.5,1.5,2.9,2.9,0,0,0-.2.9,1.9,1.9,0,0,0-.2.8,2.3,2.3,0,0,1-.1.4,2.8,2.8,0,0,0-1,.9,7.1,7.1,0,0,0-.6,1.9,12.1,12.1,0,0,0,.5,5.6,14.4,14.4,0,0,0,2.8,5.2,6,6,0,0,0,3.6,2.1,5,5,0,0,0,2.3-.3,14,14,0,0,0,2.7-1.1,18.3,18.3,0,0,0,5-3.9,26.1,26.1,0,0,0,2.2-2.7,9.9,9.9,0,0,0,1.3-2.8,5.2,5.2,0,0,0,.5-1.3,2.5,2.5,0,0,1,.1-.8v-.9a9.7,9.7,0,0,0-.3-2.3,10.9,10.9,0,0,0-3.2-4.9,11.8,11.8,0,0,0-10.4-3,22.8,22.8,0,0,0-3,.7c-1.5.5-2.1.6-2.1-.1s.8-2,2.5-3.3a13.7,13.7,0,0,1,7.9-2.4c-.4-.1,1.4-.3,4.2.4a21.4,21.4,0,0,1,4.6,1.9,16,16,0,0,1,4.5,3.8,17.5,17.5,0,0,1,3.2,5.4,19.5,19.5,0,0,1,1,5.5v.6c0,.2-.1.4-.1.6a4.5,4.5,0,0,1-.1,1.2,8,8,0,0,1-.4,1.8,5.3,5.3,0,0,1-.3,1.1v.4a25.6,25.6,0,0,1-5.2,7.6,28.1,28.1,0,0,1-7.4,5.7,21.1,21.1,0,0,1-4.6,1.9,14.4,14.4,0,0,1-5.6.6,13.2,13.2,0,0,1-5.6-1.8,14.3,14.3,0,0,1-4.2-3.4,16.6,16.6,0,0,1-2.9-4.2,22.5,22.5,0,0,1-1.9-4.5,24,24,0,0,1-1-4.8,22.2,22.2,0,0,1,.2-5.1,13.5,13.5,0,0,1,1.9-5.4A11.1,11.1,0,0,1,409.6,459.9Z" transform="translate(-252 -406.8)"/>
    <path class="a1aaa9d5-a7f0-4457-83de-2d31a2b64f2e" d="M381.5,587.2a.9.9,0,0,1,.8-.3,4.9,4.9,0,0,1,2.4.1,3.7,3.7,0,0,1,2,1.2,4.3,4.3,0,0,1,.9,2.4,23,23,0,0,1-.2,3.5,1.4,1.4,0,0,1-.2.6l-.5.4-.5.4-.2.2-.2.3-.3.4a7,7,0,0,0-1.1,2.3,9.5,9.5,0,0,0-.2,5.3,12.5,12.5,0,0,0,3.1,6.3,10.5,10.5,0,0,0,5.6,3.3,12,12,0,0,0,3.3.1,22.4,22.4,0,0,0,3.9-.8,10.9,10.9,0,0,0,5.5-3.6,8.2,8.2,0,0,0,1.4-2.6,9.4,9.4,0,0,0,.7-3,1.8,1.8,0,0,1,.1-.5c0-.3.1-.7.1-1.3a17.4,17.4,0,0,0-.4-4.8,18.6,18.6,0,0,0-2.6-6,11,11,0,0,0-4.8-4.3,11.4,11.4,0,0,0-4.3-.7,18.2,18.2,0,0,0-3.1.5c-1.5.3-2.2.2-2.1-.4a6.8,6.8,0,0,1,2.9-3,11.7,11.7,0,0,1,3.6-1.3,10.6,10.6,0,0,1,4.7,0c-.2-.1.2-.1,1,.1a14.2,14.2,0,0,1,3.2,1.3,24,24,0,0,1,3.9,3,22.5,22.5,0,0,1,3.5,4.5,27.1,27.1,0,0,1,3.5,10.1,24.5,24.5,0,0,1,.1,3.7,3.4,3.4,0,0,1-.1,1.1v.3a19,19,0,0,1-3.8,9,17.3,17.3,0,0,1-4.7,4.3,21.2,21.2,0,0,1-5.5,2.6,23.1,23.1,0,0,1-5.6,1.1,19.1,19.1,0,0,1-6.3-.2,21,21,0,0,1-5.9-2.2,23.2,23.2,0,0,1-4.8-4,21.8,21.8,0,0,1-5.4-10.7,19.3,19.3,0,0,1,.5-10.1,16.4,16.4,0,0,1,2.3-4.8A15.2,15.2,0,0,1,381.5,587.2Z" transform="translate(-252 -406.8)"/>
    <path class="a1aaa9d5-a7f0-4457-83de-2d31a2b64f2e" d="M506.2,630.2h-.4c-1.1-.4-3-1.7-1-4.3l.4-.2,7.6-1.8,4-.9,4.1-1,4-1,4.1-1.1,8-2.1,8-2.4c2.7-.7,5.3-1.6,8-2.4l7.9-2.6,7.9-2.7,4.5-1.6,4.1-1.1,1.9-.5,1.9-.6,4-1c8.3-2.1,5.5.1.8,2.5l-5.6,2.7-6,2.6-2.2.8-1.1.4-.7.3-.9.3-7.9,2.6c-2.6,1-5.2,1.7-7.9,2.6s-5.2,1.7-7.9,2.4l-7.9,2.3-8,2.2-4,1-4,1-4,1-4.1,1Z" transform="translate(-252 -406.8)"/>
    <path class="a1aaa9d5-a7f0-4457-83de-2d31a2b64f2e" d="M596.7,575.5c.2-.2.3-.2.8-.3h2.4a4.7,4.7,0,0,1,2.1,1.1,4.4,4.4,0,0,1,1,2.4,21.6,21.6,0,0,1-.1,3.5c0,.1-.1.4-.1.6a11.7,11.7,0,0,0-3.3,4.5,10,10,0,0,0-1,2.9,17.7,17.7,0,0,0-.5,3.2,18.9,18.9,0,0,0,1.6,9.5,11.8,11.8,0,0,0,2.6,3.5,8.6,8.6,0,0,0,3.4,1.8h5.7l1.2-.2,1.2-.4h.6l.5-.3,1.1-.4,1-.6a4.7,4.7,0,0,0,.9-.6l.4-.3.4-.4.5-.4.3-.4.8-.8.6-.9c.2-.3.3-.7.5-1a11.8,11.8,0,0,0,1.4-6.2v-1.9a20.3,20.3,0,0,0-.9-4.6,14.1,14.1,0,0,0-3.3-5.4,15.1,15.1,0,0,0-5.6-3.8l-.7-.3-.6-.2-1.3-.3-2.2-.5-1.8-.2H605q-2.4-.5-1.8-1.2a4.6,4.6,0,0,1,1.2-.9l1-.4,1.4-.5,1.6-.3,1.8-.2a7.4,7.4,0,0,1,2.1,0h1.1l1.1.2c-.1-.1.2-.1.9.1l1.3.3.9.2.4.2.5.2a18.2,18.2,0,0,1,4.3,2.3l1.1.8a9.4,9.4,0,0,1,1,1,13.1,13.1,0,0,1,2,2.1,23.1,23.1,0,0,1,4.7,9.8,21.1,21.1,0,0,1,.5,3.7v1.4a21.3,21.3,0,0,1-2.4,9.1l-.9,1.7-1.2,1.6-1.3,1.5-.6.7-.8.7-.7.7-.8.6c-.5.3-1,.8-1.6,1.1l-1.7.9-1.8.8-.9.3-.9.3-1.8.5-1.8.4-.9.2h-4.6l-2-.2-2.1-.4a15.7,15.7,0,0,1-7.3-3.9,19.2,19.2,0,0,1-4.8-6.3,23.3,23.3,0,0,1-2.3-7.2,29.6,29.6,0,0,1-.3-7.3,24.4,24.4,0,0,1,.7-4.6,26.4,26.4,0,0,1,1.5-4.5,28.6,28.6,0,0,1,2.4-4.2c.6-.7,1-1.4,1.6-2l.9-.9Z" transform="translate(-252 -406.8)"/>
    <path class="a1aaa9d5-a7f0-4457-83de-2d31a2b64f2e" d="M573.7,575.4c-.1,0-.1,0-.1-.1V575c.1-.1.1-.1.1-.2h0c0-.1.1-.2.1-.3v-.5h0c.1-.5,0,.6,0,.5h.1v-.2a.7.7,0,0,0,.1-.5l-.3-.6c0-.2-.1-.4,0-.6a.5.5,0,0,1,.2-.4c.1-.1.2-.1.2-.2h.1c.2-.3.5-.4.7-.6h.6l.7.2,2,1,5.5,3,7.8,4.5a36.5,36.5,0,0,1,3.6,3.6c2.5,2.7.7,2.8-1.4,2.2l-2.4-.8-2.4-1s-3.8-2.3-7.6-4.4l-5.3-2.9-1.7-.8-.5-.2Z" transform="translate(-252 -406.8)"/>
    <path class="a1aaa9d5-a7f0-4457-83de-2d31a2b64f2e" d="M619.4,576.1c0,.1-.1.1-.3.2a2.8,2.8,0,0,1-2.2.2c-.7-.3-1.2-1.2-1.5-2.6v-.4a9.2,9.2,0,0,0,1.4-3l.3-.8a2.9,2.9,0,0,1,.2-.9l.2-.9.2-1,2.7-10.6,1.4-5.2,1.3-5.3,2.5-10.6,2.7-10.6,1.1-4.3.3-1.1c.3-.7.7-1.7,1.1-2.9s2-5.2,3.1-7.5c3.3-7.9,3.3-4.3,2.4.9.2-.2-.5,2.9-1.2,6-.3,1.6-.7,3.2-.9,4.4a4.9,4.9,0,0,0-.3,1.5,1.8,1.8,0,0,0-.1.5l-.9,3.6-2.7,10.6-2.6,10.6-1.2,5.3-1.4,5.3L622.3,568A23.4,23.4,0,0,1,619.4,576.1Z" transform="translate(-252 -406.8)"/>
    <path class="a1aaa9d5-a7f0-4457-83de-2d31a2b64f2e" d="M623.3,467.3a1.3,1.3,0,0,1,1-.3,5.7,5.7,0,0,1,2.6.4,3.7,3.7,0,0,1,1.8,1.7,5.3,5.3,0,0,1,.3,1.2,7.1,7.1,0,0,1-.1,1.4c-.1.4-.2,1-.3,1.5a1.9,1.9,0,0,0-.2.8,2.8,2.8,0,0,0-.1.9,2.3,2.3,0,0,1-.1.4,3.2,3.2,0,0,0-1.1,1.2,9.3,9.3,0,0,0-.8,2.2,13.6,13.6,0,0,0-.3,2.9,18.2,18.2,0,0,0,.3,3.2,23.5,23.5,0,0,0,2.8,7.8,12.8,12.8,0,0,0,2.2,2.7l.2.2c.1,0,.2,0,.2.1h.3l.3.2,1.8.6a15.9,15.9,0,0,0,3.8.6,17.2,17.2,0,0,0,3.9-.4,13.9,13.9,0,0,0,6.7-3.5,8.3,8.3,0,0,0,1.9-2.3,13.3,13.3,0,0,0,1-2.8v-.4c.1-.1.1-.3.2-.5s.1-.5.1-.7a12.8,12.8,0,0,0,0-4.4,13.8,13.8,0,0,0-2.7-5.6,12,12,0,0,0-5.2-4,13.4,13.4,0,0,0-4.5-.8l-3.1.3c-1.6.2-2.2.1-2.1-.5a6.6,6.6,0,0,1,3.1-2.8,15.2,15.2,0,0,1,3.6-1.2,16.9,16.9,0,0,1,4.5,0c-.3-.1,1.5,0,4.2,1.2a18,18,0,0,1,4.1,2.7,23,23,0,0,1,3.9,4.3,22.7,22.7,0,0,1,2.5,5.5,20.4,20.4,0,0,1,.7,5.3,13.4,13.4,0,0,1-.1,2.1,7.9,7.9,0,0,1-.2,1.7,5.2,5.2,0,0,0-.2,1.1v.3a19.9,19.9,0,0,1-5.2,8.4,26,26,0,0,1-5.2,3.7,25.5,25.5,0,0,1-12.1,2.7,21.5,21.5,0,0,1-6.1-.9,16.3,16.3,0,0,1-3.1-1.1l-.8-.3-.4-.2-.4-.3-.9-.6-.7-.5-1.3-1.3-1.2-1.2-.9-1.3-.5-.7-.4-.6a33.5,33.5,0,0,1-4-11.2,27.5,27.5,0,0,1,0-9.5,16.9,16.9,0,0,1,2-5.1A12.1,12.1,0,0,1,623.3,467.3Z" transform="translate(-252 -406.8)"/>
    <path class="a1aaa9d5-a7f0-4457-83de-2d31a2b64f2e" d="M604.5,616.6a.6.6,0,0,1,.1-.4,2.8,2.8,0,0,1,1.7-1.5q1.2-.3,2.7,1.2c.1.1.2.2.2.3a57.1,57.1,0,0,0,1.5,7.4c.2,1,.4,2.2.5,3.2l.5,3.2,1,6.2c.7,4.2,1.2,8.4,1.8,12.6l.5,4.4s.1,1.8.2,4.3,0,5.5-.1,8c-.1,8.7-1.5,5.3-2.6.1,0,.3-.5-2.8-1.1-6l-1.2-6.4-.4-3.8c-.6-4.1-1.1-8.3-1.7-12.5l-1-6.2-.5-3.1a26.5,26.5,0,0,0-.6-3C605.5,622.1,604.8,619.5,604.5,616.6Z" transform="translate(-252 -406.8)"/>
    <path class="a1aaa9d5-a7f0-4457-83de-2d31a2b64f2e" d="M609.4,664.5a1.2,1.2,0,0,1,.7-.2h1.2l1.1.4a4,4,0,0,1,1.9,1.4,4.1,4.1,0,0,1,.7,2.5,10,10,0,0,1-.2,1.6c-.1.6-.3,1.1-.5,1.9a6.1,6.1,0,0,1-.4.6c-3.4,1.9-5.8,5-6,8.7a11.4,11.4,0,0,0,1,5.9,8.4,8.4,0,0,0,.6,1.4,2.5,2.5,0,0,1,.4.7l.4.6a8.6,8.6,0,0,0,2,2.2,4.7,4.7,0,0,0,2,1.2,4.7,4.7,0,0,0,2.1.2,10.6,10.6,0,0,0,5.2-2.4,22.2,22.2,0,0,0,4.8-5.3,18,18,0,0,0,1.2-1.7,21.7,21.7,0,0,0,2.4-4.4,13.6,13.6,0,0,0,1-5.9,6.2,6.2,0,0,0-.9-2.6,8.1,8.1,0,0,0-2.1-2,16.8,16.8,0,0,0-4.4-1.6l-1.7-.4-1.4-.4c-1.6-.3-2.1-.7-1.7-1.2s1.7-1.1,3.7-1.5a14.8,14.8,0,0,1,7.9.5l1,.3a11.9,11.9,0,0,1,3.1,2.1,11.6,11.6,0,0,1,3,4.7,15.4,15.4,0,0,1,.9,6,30.3,30.3,0,0,1-2.6,10.3,27,27,0,0,1-1.7,3.1l-.7,1.1a32.8,32.8,0,0,1-6,6.4,28.2,28.2,0,0,1-4.5,2.7,22.6,22.6,0,0,1-5.4,1.6,15.6,15.6,0,0,1-6.1-.6,14.8,14.8,0,0,1-5.2-3,19.2,19.2,0,0,1-3.6-4l-.8-1.1-.6-1.1a24,24,0,0,1-1.1-2.3,21.5,21.5,0,0,1-1.6-10.4A19.6,19.6,0,0,1,602,671,21,21,0,0,1,609.4,664.5Z" transform="translate(-252 -406.8)"/>
    <path class="a1aaa9d5-a7f0-4457-83de-2d31a2b64f2e" d="M632.6,600c-.1,0-.2,0-.3-.2a3,3,0,0,1-.8-.8c-.1-.2-.2-.3-.2-.5l-.2-.3v-.4a.8.8,0,0,1,.2-.5l.2-.3c0-.1.1-.2.2-.3s.6-.8,1.2-1.2l.4-.2,7.7,1,19.5,2.2,4.3.4s7.1,1.2,12,2.3,5.5,1.2,5.1,1.7-2.7.8-5.4.9h-6.2l-6.6-.2-3.7-.4L640.4,601Z" transform="translate(-252 -406.8)"/>
    <path class="a1aaa9d5-a7f0-4457-83de-2d31a2b64f2e" d="M688.6,587.5a1.1,1.1,0,0,1,.8-.1,7,7,0,0,1,2.4.9,4,4,0,0,1,1.5,1.9,5.3,5.3,0,0,1,0,2.5l-.6,1.5a2,2,0,0,1-.4.8l-.3.9c-.1.1-.2.4-.4.5a5.8,5.8,0,0,0-3.2,2.8,9.4,9.4,0,0,0-1.1,5.1,10.4,10.4,0,0,0,1.1,4.6,7.6,7.6,0,0,0,1.2,1.9l.4.4.3.4a1,1,0,0,1,.5.4l.5.4a8.9,8.9,0,0,0,4,1.8,5.6,5.6,0,0,0,3.7-.7,12,12,0,0,0,4.4-4.3l.3-.4.8-1.2a23.3,23.3,0,0,0,2-4.4,15.7,15.7,0,0,0,.5-3,10,10,0,0,0-.1-3,5.7,5.7,0,0,0-1.2-2.6,5.8,5.8,0,0,0-2.1-2,17.6,17.6,0,0,0-4.4-1.5l-3.2-.5q-2.4-.5-1.8-1.2a7.3,7.3,0,0,1,3.6-1.7,12.5,12.5,0,0,1,3.6-.5,15.5,15.5,0,0,1,4.5.7l.9.3a11.2,11.2,0,0,1,3.1,1.9,16.6,16.6,0,0,1,1.8,1.9,12.8,12.8,0,0,1,1.5,2.5,17,17,0,0,1,1.4,5.9,24,24,0,0,1-1.8,10.6,27.5,27.5,0,0,1-1.5,3.3l-.8,1.2a20.4,20.4,0,0,1-7.2,6.4,13.3,13.3,0,0,1-4.5,1.5,13.5,13.5,0,0,1-4.9.1,17.4,17.4,0,0,1-8.3-3.6,10781555009894.7,10781555009894.7,0,0,1-1.6-1.4l-.9-.8-.7-.9a16.7,16.7,0,0,1-2.5-3.8,20.4,20.4,0,0,1-2.1-8.4,18.6,18.6,0,0,1,2.3-10,16.6,16.6,0,0,1,3.6-4.4A14.7,14.7,0,0,1,688.6,587.5Z" transform="translate(-252 -406.8)"/>
    <path class="a1aaa9d5-a7f0-4457-83de-2d31a2b64f2e" d="M383.9,584.4c.1.1.1.1,0,.3a1.3,1.3,0,0,1-.1.6h0v.5a1.9,1.9,0,0,1-.5,1.3c-.1.1-.2.1-.2.2l-.4.2a2.2,2.2,0,0,1-1.4,0c-.3-.1-.4-.3-.6-.4s-.1-.1-.1-.2h-.2c0-.1.1-.1.1-.2s.1-.2.1-.3l.2-.3c0-.1.1-.2.3-.1h.3l.6-.2h.6c0-.1.2,0,.3,0s.2,0,.4,0h-.2l-.5.2h-.4c0,.1-.1.1-.2.1h-1.7l-.5-.2-.3-.3-.3-.9a4.2,4.2,0,0,1-.4-1l-.6-2.1c-.3-1.3-.6-2.7-.8-4-.7-5.4-.8-10.7-1-15.9v-2a12.8,12.8,0,0,0-.1-1.9l-.3-3.9-.3-3.9-.3-3.8-.5-4.3s-.1-1.8-.2-4.2-.1-2.6-.2-3.9l-.3-4.1c-.4-4.2-.2-5.6.3-5.3a4.4,4.4,0,0,1,1.1,1.7,11.6,11.6,0,0,1,.6,1.5l.3.8.3,1a46.5,46.5,0,0,1,1.6,6c.4,1.6.6,3.3.9,4.5s.4,2,.4,2l.4,3.8.3,3.9.3,4,.3,3.9c.1.7.1,1.3.2,2v2c.2,5.2.3,10.4,1,15.4.2,1.2.4,2.4.7,3.6s.3,1.2.5,1.7l.3.8Z" transform="translate(-252 -406.8)"/>
    <path class="a1aaa9d5-a7f0-4457-83de-2d31a2b64f2e" d="M342,498.5a1.4,1.4,0,0,1,.5-.9,5.2,5.2,0,0,1,1.1-1l.7-.4.6-.3.7-.2h.7l1.2.4.9.8c.2.3.4.8.7,1.2a7.9,7.9,0,0,0,1.7,2.5l.2.2h.1a6.5,6.5,0,0,0,0,2l.3,1.4a7.5,7.5,0,0,0,.5,1.6l.6,1.7v.4c0,.1.1.2.2.4l.3.7v.3l.2.3.4.7a2.1,2.1,0,0,0,.4.6l.4.6a12.6,12.6,0,0,0,7.8,5.1,15.4,15.4,0,0,0,4.8.2l1.3-.2,1.3-.3,2.4-.7a18.1,18.1,0,0,0,7.5-6.5,16.7,16.7,0,0,0,2.8-9.5,11.3,11.3,0,0,0-.5-3.2,20.5,20.5,0,0,0-1.3-3.1l-.2-.4-.6-1.2a14,14,0,0,0-2.9-3.5,13.3,13.3,0,0,0-5.5-3,15.6,15.6,0,0,0-6.8-.3,15.8,15.8,0,0,0-4.5,1.5l-2.8,1.5c-1.4.8-2.1.9-2.2.3a4.1,4.1,0,0,1,.4-1.5c.2-.3.3-.6.6-1a8.3,8.3,0,0,1,.8-1.2,16.6,16.6,0,0,1,6.4-4.7c-.2,0,.1-.2.8-.4l.6-.2.7-.2,1.9-.4a18.3,18.3,0,0,1,4.8-.2,20.6,20.6,0,0,1,10.8,4,21.9,21.9,0,0,1,3.8,3.5,15.5,15.5,0,0,1,1.3,1.7l.9,1.3.7,1.3a31.6,31.6,0,0,1,1.6,4.3,19.5,19.5,0,0,1,.6,4.7,25.8,25.8,0,0,1-4.3,15,26.6,26.6,0,0,1-11.7,10,19,19,0,0,1-3.8,1.3l-1.9.4-1.9.3a23.4,23.4,0,0,1-7.9-.4,20.6,20.6,0,0,1-7.5-3.1,23.8,23.8,0,0,1-5.9-5.5l-.7-1.1a8.6,8.6,0,0,1-.7-1l-.6-1-.2-.6-.3-.5L344,512a.8.8,0,0,0-.2-.5l-.2-.6-.7-2a25.9,25.9,0,0,1-1.1-4.6A12.8,12.8,0,0,1,342,498.5Z" transform="translate(-252 -406.8)"/>
    <path class="a1aaa9d5-a7f0-4457-83de-2d31a2b64f2e" d="M385.1,487.9h-.2a4.8,4.8,0,0,1-1.9-4c.1,0,.1-.2.1-.2l8.6-4.1,5.8-2.7,2.6-1.3a52.6,52.6,0,0,1,5.2-1.1c3.7-.6,2.8,1,1,2.4.3,0-4.4,3.1-4.4,3.1l-2.6,1.2-5.7,2.7Z" transform="translate(-252 -406.8)"/>
    <path class="a1aaa9d5-a7f0-4457-83de-2d31a2b64f2e" d="M346.1,491.5l.2.3a3.6,3.6,0,0,1,.2,1.1,1.7,1.7,0,0,1-.3,1.2,2,2,0,0,1-1,.7l-.7.3h-1.4l-3-2.4-1.6-1.2-1.5-1.2-18.2-12.5-3.6-2.4s-5.7-4.4-9.5-7.9c-6.5-5.6-3.1-4.5,1.6-2-.4-.4,11,6.3,11,6.3l3.2,2.1,18.3,12.6,1.6,1.2L343,489Z" transform="translate(-252 -406.8)"/>
    <path class="a1aaa9d5-a7f0-4457-83de-2d31a2b64f2e" d="M272.7,443.4c.3-.3.3-.4.8-.5a2.8,2.8,0,0,1,1.3-.4h1.3a3.7,3.7,0,0,1,2.2.9,3,3,0,0,1,.7,1,6.5,6.5,0,0,1,.4,1.3,7.6,7.6,0,0,1,.3,1.6,10.1,10.1,0,0,0,.3,1.7v.6a7.7,7.7,0,0,0-1.6,4.5,18.1,18.1,0,0,0,.8,6,15.7,15.7,0,0,0,3.3,5.8,8,8,0,0,0,2,1.5l.5.2.7.2h1.4a13.6,13.6,0,0,0,6.4-1.3,20,20,0,0,0,6-3.9,16.5,16.5,0,0,0,3.9-5.4l.2-.4a.8.8,0,0,1,.2-.4c0-.2.2-.4.2-.6a6.4,6.4,0,0,0,.2-.7.9.9,0,0,1,.1-.5v-.4a5.5,5.5,0,0,0-.1-2.2,10.1,10.1,0,0,0-2.8-5.1,15.6,15.6,0,0,0-5.7-3.7,15.2,15.2,0,0,0-4.6-1.1h-3.2c-1.5.1-2.2-.1-2-.7a6.7,6.7,0,0,1,3.4-2.4,16.4,16.4,0,0,1,7.9-.8,14.8,14.8,0,0,1,4,1,20.1,20.1,0,0,1,8.6,6.4,15.7,15.7,0,0,1,2.7,5.7,8,8,0,0,1,.3,1.5,1.7,1.7,0,0,1,.1.7,2,2,0,0,1,.1.7v1.4a23073128600536.8,23073128600536.8,0,0,0-.2,2.6l-.3,1.1a10.3,10.3,0,0,1-.5,1.6l-.4,1.1a.8.8,0,0,0-.1.3,27.3,27.3,0,0,1-5.6,7.3,28.5,28.5,0,0,1-8.7,5.7,22.3,22.3,0,0,1-10.7,2h-1.4l-1.5-.3-1.5-.4-1.6-.6a15.4,15.4,0,0,1-4.9-3.7,24.8,24.8,0,0,1-5.4-9.4,26.7,26.7,0,0,1-1.2-9.4,18.4,18.4,0,0,1,1-5.1A16.9,16.9,0,0,1,272.7,443.4Z" transform="translate(-252 -406.8)"/>
    <path class="a1aaa9d5-a7f0-4457-83de-2d31a2b64f2e" d="M338.8,522.3h.6c1.1,1.5-2.6-3.3,2.5,3.3h-.8a1.9,1.9,0,0,1-1.7-1.5,1.9,1.9,0,0,1-.1-.8v-.5c0-.1.1-.2.1-.3h0c-.6-.7,4.7,6.1,2.5,3.3h0v.2l-.2.4a60.7,60.7,0,0,1-6.8,4.4c-2.9,1.7-5.9,3.2-8.9,4.7l-4.3,2.3-4.4,2.4c-5.7,3.2-11.2,6.7-16.7,10.4l-3.5,2.5-3.6,2.2c-2.1,1.3-4.7,2.9-7,4.1-7.5,4.2-5.3,1.3-1.4-2.3l4.7-4,3.4-2.8,1.7-1.4,3-2.1a188.3,188.3,0,0,1,17.1-10.7l4.4-2.4,4.5-2.4c2.9-1.5,5.9-3,8.7-4.6A52.3,52.3,0,0,0,338.8,522.3Z" transform="translate(-252 -406.8)"/>
    <path class="a1aaa9d5-a7f0-4457-83de-2d31a2b64f2e" d="M264.9,550.1a1.3,1.3,0,0,1,.9-.1,7.4,7.4,0,0,1,2.4.5,3.8,3.8,0,0,1,1.7,1.6,4,4,0,0,1,.4,2.5,5,5,0,0,1-.3,1.6,16.7,16.7,0,0,1-.5,1.8,1.3,1.3,0,0,1-.3.5,16.2,16.2,0,0,0-7.3,9.1,9.7,9.7,0,0,0-.3,4.7,4.5,4.5,0,0,0,2.2,2.9l.5.2.6.3,1.3.4a13.2,13.2,0,0,0,2.6.5,7.6,7.6,0,0,0,4.5-1.1,10.5,10.5,0,0,0,3.9-4.4l.2-.4a6.7,6.7,0,0,0,.6-1.2,15.2,15.2,0,0,0,1.2-4.6,10.2,10.2,0,0,0-.7-5.7,6.9,6.9,0,0,0-1.6-2.2,8.9,8.9,0,0,0-2.6-1.2,15.2,15.2,0,0,0-4.7-.2l-3.2.4c-1.6.2-2.2,0-2-.6s1.2-1.6,3-2.7a13.9,13.9,0,0,1,3.2-1.4,15.2,15.2,0,0,1,4.5-.7c-.2,0,.2-.1,1,0a11.7,11.7,0,0,1,3.6,1A20.3,20.3,0,0,1,282,553a20.8,20.8,0,0,1,2.1,2.1c.6.9,1.1,1.8,1.6,2.7a24.9,24.9,0,0,1,1.1,2.9,22.5,22.5,0,0,1-.1,11,14,14,0,0,1-1.2,3.5,3.4,3.4,0,0,1-.4,1l-.2.3a17.8,17.8,0,0,1-6.8,7.1,15.7,15.7,0,0,1-4.8,2,16.7,16.7,0,0,1-5,.4,24.3,24.3,0,0,1-4.7-.8c-.7-.3-1.4-.4-2.2-.8l-1.1-.5-1.2-.6a15.8,15.8,0,0,1-4.2-3.6,13.6,13.6,0,0,1-2.4-5,15.6,15.6,0,0,1-.5-5.2,18.6,18.6,0,0,1,.9-4.7,25.7,25.7,0,0,1,4.5-8.5,21.9,21.9,0,0,1,3.4-3.4A19.8,19.8,0,0,1,264.9,550.1Z" transform="translate(-252 -406.8)"/>
    <path class="a1aaa9d5-a7f0-4457-83de-2d31a2b64f2e" d="M368.2,476.2a.4.4,0,0,1,.1.3,3.5,3.5,0,0,1-1,2c-.6.5-1.5.7-3,0a.5.5,0,0,1-.3-.3c-.7-1.2-1.1-2.4-1.7-3.7l-.7-1.9-.6-1.9a145.4,145.4,0,0,1-4.4-16.6l-1-4.3s-.2-1.8-.5-4.2-.6-5.5-.8-8a19.6,19.6,0,0,1-.3-4.4c0-.8.2-1.1.5-.9s1.5,2.3,2.3,4.9a45.9,45.9,0,0,1,1.8,5.9l1.8,6.3.8,3.7a165,165,0,0,0,4.2,16.1,13.4,13.4,0,0,0,.7,1.8l.6,1.8Z" transform="translate(-252 -406.8)"/>
    <path class="a1aaa9d5-a7f0-4457-83de-2d31a2b64f2e" d="M344.1,409.2a1.6,1.6,0,0,1,1-.5h1.5a3.2,3.2,0,0,1,1.4.3,3.8,3.8,0,0,1,1.9,1.6l.3,1.1V413l-.3,1.5v.8a2.1,2.1,0,0,0,0,.8c0,.1.1.4.1.5h-.1c0,.1-.1.1-.1.2a.3.3,0,0,0-.1.2h0c-.1.1-.1.1-.1.2a4.8,4.8,0,0,0,0,2.1,13.5,13.5,0,0,0,2.1,5.4,10.6,10.6,0,0,0,1.7,2.3,8.3,8.3,0,0,0,1.8,1.6h4l.6-.2.5-.2.5-.3a1,1,0,0,0,.5-.4,5.1,5.1,0,0,0,1.6-1.9l.2-.4.3-.4.3-.6a12.3,12.3,0,0,0,1-4.2,13.3,13.3,0,0,0-.3-2.8,7.1,7.1,0,0,0-1.1-2.5l-.2-.3v-.2h-.1c-.2-.1-.3-.3-.5-.5l-1.1-.8a7.5,7.5,0,0,0-1.3-.6l-.8-.2-.7-.2h-4.8l-3.2.6c-1.6.3-2.2.1-2-.5s.3-.7.8-1.2l.9-.8,1.1-.8a16,16,0,0,1,7.5-2.7h2.4a9.5,9.5,0,0,1,2.1.4,12,12,0,0,1,4.8,2.8,13.5,13.5,0,0,1,3.6,5.2,16.4,16.4,0,0,1,1.2,6,28,28,0,0,1,0,2.9c-.2.9-.3,1.7-.5,2.5l-.3,1.1-.3,1a14.7,14.7,0,0,1-.7,1.7c-.3.4-.4.7-.6,1l-.2.3a17.1,17.1,0,0,1-3.7,3.9l-2.4,1.4-1.3.5-1.3.4-1.3.3-1.4.2h-2.6l-1.3-.2h-1.4l-.9-.3-.7-.2-1.4-.7a15.2,15.2,0,0,1-4.1-3.3,25.5,25.5,0,0,1-2.9-3.8,34.2,34.2,0,0,1-2.1-4.3,24.2,24.2,0,0,1-1.3-4.8,15.8,15.8,0,0,1,.2-5.7l.3-.8.3-.8a5.1,5.1,0,0,1,.7-1.5l1.1-1.5A7.4,7.4,0,0,1,344.1,409.2Z" transform="translate(-252 -406.8)"/>
  </g>
</svg>
