<svg id="b6dc5d18-81a4-4f4f-b13c-36b560097607" data-name="Objects" xmlns="http://www.w3.org/2000/svg" viewBox="0 0 70.38 123.35"><defs><style>.bde37883-77e1-4211-94ec-dff50d9fc1ef{fill:#252525;}</style></defs><path class="bde37883-77e1-4211-94ec-dff50d9fc1ef" d="M155.67,313.63s0,0,.06.1a8.88,8.88,0,0,1,.44,1.37,6.77,6.77,0,0,1,.18,2.28.84.84,0,0,1,0,.17l-.4.05a7.49,7.49,0,0,1-1,.09,23.5,23.5,0,0,1-2.76,0c-1-.07-1.93-.2-2.64-.3l-1.18-.2a5.66,5.66,0,0,1-.66-.42,6.07,6.07,0,0,1-1.17-1c-1.18-1.18-.34-1.86.56-2.11a4,4,0,0,1,1-.18l.73-.09.33,0,1,.18,1.07.14,1.22.1a16.7,16.7,0,0,0,2.22,0,3.86,3.86,0,0,0,.7-.06Z" transform="translate(-86 -313.29)"/><path class="bde37883-77e1-4211-94ec-dff50d9fc1ef" d="M133.92,314s0,0,.09.08a6.41,6.41,0,0,1,1.18,3.51.9.9,0,0,1,0,.18l-1.43.42c-.41.13-.89.28-1.41.42l-1.6.39c-.55.13-1.1.27-1.61.38l-1.39.28-1.35.28s-.37,0-.88-.11a9.76,9.76,0,0,1-1.69-.43c-1.81-.51-1.31-1.5-.37-2.16a4.79,4.79,0,0,1,1.1-.62l1.19-.58,1.3-.27,1.32-.27,1.5-.36,1.5-.36,1.28-.39Z" transform="translate(-86 -313.29)"/><path class="bde37883-77e1-4211-94ec-dff50d9fc1ef" d="M110,324.2s0,0,.12,0a5.58,5.58,0,0,1,2.68,2.56s.06.14.05.17l-1.28,1.22c-.37.34-.79.78-1.27,1.16l-1.48,1.24c-1,.85-2,1.64-2.77,2.23l-1.27,1s-.39.18-.94.37a12,12,0,0,1-1.92.54c-2.08.52-2-.65-1.29-1.76a5.93,5.93,0,0,1,.87-1.18l1-1.18,1.22-1,1.25-1c.46-.37.92-.77,1.39-1.16l1.39-1.16c.45-.37.8-.75,1.14-1.06Z" transform="translate(-86 -313.29)"/><path class="bde37883-77e1-4211-94ec-dff50d9fc1ef" d="M90.7,344.77s0,0,.1,0a7.94,7.94,0,0,1,3.34,1.6.77.77,0,0,1,.13.12l-.4.91c-.11.27-.27.56-.38.91s-.24.72-.36,1.09a16.17,16.17,0,0,0-.58,2.06c-.14.57-.24,1-.24,1A7.85,7.85,0,0,1,91,354c-1,1.12-1.83.53-2.16-.36a3.37,3.37,0,0,1-.24-1l-.11-.74c0-.2,0-.34,0-.34s.1-.42.26-1.05a19.24,19.24,0,0,1,.65-2.32c.14-.42.27-.84.41-1.23s.31-.76.44-1.07C90.5,345.22,90.68,344.79,90.7,344.77Z" transform="translate(-86 -313.29)"/><path class="bde37883-77e1-4211-94ec-dff50d9fc1ef" d="M86,369.14s0,0,.1-.06a6.38,6.38,0,0,1,3.7.06.59.59,0,0,1,.16.07s0,.56,0,1.34c0,.39,0,.84,0,1.32s.07,1,.11,1.55c.15,2.17.3,4.31.3,4.31a7.7,7.7,0,0,1-.24.87,9.79,9.79,0,0,1-.7,1.62c-.81,1.69-1.7.95-2.19,0a4.88,4.88,0,0,1-.43-1.14l-.25-.82-.13-.39s-.16-2.1-.31-4.2c0-.54-.08-1.08-.11-1.59s0-1,0-1.45C86,369.75,86,369.17,86,369.14Z" transform="translate(-86 -313.29)"/><path class="bde37883-77e1-4211-94ec-dff50d9fc1ef" d="M90.67,396.77s0,0,.07-.08a6.64,6.64,0,0,1,3.5-1.22.48.48,0,0,1,.17,0l.45,1.18.44,1.17c.19.41.4.84.6,1.28s.41.87.6,1.27.43.76.61,1.07l.6,1s.06.33.16.77a9,9,0,0,1,.2,1.57c.19,1.75-.83,1.81-1.8,1.24a11.92,11.92,0,0,1-2-1.6s-.27-.45-.66-1.14c-.2-.34-.43-.74-.67-1.17l-.67-1.4c-.22-.48-.46-.95-.66-1.41s-.34-.9-.48-1.27C90.87,397.31,90.68,396.8,90.67,396.77Z" transform="translate(-86 -313.29)"/><path class="bde37883-77e1-4211-94ec-dff50d9fc1ef" d="M102.85,417.08s0,0,0-.1a7.24,7.24,0,0,1,2.93-2.26.41.41,0,0,1,.17-.05l.74.9.74.9.91,1,.92,1,.85.83.83.8s.15.29.33.7a8.45,8.45,0,0,1,.5,1.47c.49,1.62-.54,1.86-1.53,1.57a3.58,3.58,0,0,1-1-.42c-.52-.25-1-.53-1-.53l-.86-.83-.88-.85-1-1-1-1.05-.81-1Z" transform="translate(-86 -313.29)"/><path class="bde37883-77e1-4211-94ec-dff50d9fc1ef" d="M101.92,433.93a.4.4,0,0,1-.25-.17A2.39,2.39,0,0,1,101,432c.07-.66.6-1.3,1.71-1.83a.88.88,0,0,1,.32-.08,31.46,31.46,0,0,0,6.08.89c3,.2,6,.24,9.1.51l.79.07h0l-.5-1.43c-.24-.72-.51-1.42-.73-2.15l-.63-2.2-.25-.91-.21-.92-.42-1.83s0-.1,0-.28-.07-.43-.1-.75c-.06-.64-.15-1.55-.25-2.59a55.46,55.46,0,0,1-.14-6.84c.1-3.64.49-4.73.89-4.38s.85,2.15,1.3,4.31c0-.23.44,2.38,1,5,.26,1.31.63,2.61.85,3.59.12.5.25.9.33,1.18l.13.44c.24,1,.42,2,.72,3l.59,2.07c.21.68.47,1.36.7,2l.37,1.05.09.26a1.68,1.68,0,0,0,.09.22l.11.26.44,1,1.78,4.18.22.52c0,.08.1.19.09.24l-.29-.05-1.15-.21-2.33-.41c-.79-.14-1.57-.29-2.32-.38l-1.48-.14c-2.91-.26-5.93-.29-9-.5A35.33,35.33,0,0,1,101.92,433.93Z" transform="translate(-86 -313.29)"/></svg>