<svg id="a2691fcb-38f6-4cfa-8136-ca60cd4f47e1" data-name="Objects" xmlns="http://www.w3.org/2000/svg" viewBox="0 0 143.3 138.6">
  <defs>
    <style>
      .bf4bcb23-fc20-433e-9e98-d5fed05e4ced {
        fill: #252525;
      }
    </style>
  </defs>
  <g>
    <path class="bf4bcb23-fc20-433e-9e98-d5fed05e4ced" d="M245.6,392.4c.1.1.1.1.1.2v.8l-.3.7a1.1,1.1,0,0,1-.6.7,2.4,2.4,0,0,1-1.5.1c-.1,0-.3-.1-.3-.2s-2.5-3.2-3.7-4.8a40.5,40.5,0,0,0-2.3-3.4l-2.2-3.3h-5.6l-1.1-.2a27.3,27.3,0,0,1-8.3-2.9,31.8,31.8,0,0,1-7-5.2,41.1,41.1,0,0,1-9.3-14.3,40.1,40.1,0,0,1-2.7-16.8,32,32,0,0,1,1.7-8.6,35.2,35.2,0,0,1,1.8-3.9,35.9,35.9,0,0,1,2.1-3.8,38.5,38.5,0,0,1,11.9-12.2,43.3,43.3,0,0,1,7.8-3.8,39.9,39.9,0,0,1,8.3-1.9,49.7,49.7,0,0,1,8.6-.2,46.1,46.1,0,0,1,8.4,1.5,34.4,34.4,0,0,1,14.9,8.6,36.7,36.7,0,0,1,9.2,14.4,37.9,37.9,0,0,1,1.8,17,34.3,34.3,0,0,1-2,8.4,16.7,16.7,0,0,1-.8,2,17.6,17.6,0,0,1-.9,2l-1,1.9-.6.9-.6.9a11.9,11.9,0,0,0-.9,1.5l-.2.4v.8H270a5.6,5.6,0,0,1,.5.8l1.1,1.7c.7,1.1,1.5,2.2,2.2,3.5a11.8,11.8,0,0,1,1.1,1.9,3.7,3.7,0,0,1,.5,1.1,3.5,3.5,0,0,1,.2,2c0,.2-.1.3-.2.5l-.2.4-.3.4-.3.4-.5.4-.5.4-1.9,1.3a33.9,33.9,0,0,1-3.9,1.8l-3.7,1.6c-1.2.6-2.5,1.3-3.8,1.8l-2.2,1-.8.3-1.6.7-3,1-2.7,1-1.5.5-1.4.5-1,.4-.8.4-1.2.4c-.6.1-.8.1-.8-.2a5.3,5.3,0,0,1,.9-1.1l.9-.8,1.2-.9,1.1-.7,2.9-1.7,4.5-2.2,1.5-.7.8-.3,1.6-.7,3.6-1.7,3.8-1.7,3.5-1.6,1.6-1,.3-.2.3-.3.3-.2h0l-.2-.4c-.2-.5-.5-1-.8-1.6l-2.2-3.3-1.1-1.7-.5-.9a13.1,13.1,0,0,1-.7-1.3,3.6,3.6,0,0,1-.2-1,4.4,4.4,0,0,1,.2-1l.4-1.1a5.4,5.4,0,0,1,.5-1.1c.1-.2.1-.4.2-.5l.3-.5.6-.9.6-.8.5-.8.4-.8a33.3,33.3,0,0,0,3.9-14.8,35.1,35.1,0,0,0-2.8-15,33.2,33.2,0,0,0-9.1-12.2,31.3,31.3,0,0,0-13.7-6.6,39.9,39.9,0,0,0-15.4-.4,33.6,33.6,0,0,0-14.1,5.8,34.9,34.9,0,0,0-10.2,11.4,33,33,0,0,0-3.2,6.9,27.3,27.3,0,0,0-1.2,7.5,37.5,37.5,0,0,0,2.8,15.1,37.1,37.1,0,0,0,8.6,12.7,24.5,24.5,0,0,0,13.3,6.7,11.3,11.3,0,0,0,1.8.3h5.8l1.1,1.6,2.3,3.4a40.5,40.5,0,0,0,2.3,3.4C243.4,389.4,244.5,391.1,245.6,392.4Z" transform="translate(-163.7 -278.1)"/>
    <path class="bf4bcb23-fc20-433e-9e98-d5fed05e4ced" d="M255.3,387.5c.1.1.1.1.1.3s-.6,2.5-2.9,1.7l-.3-.2-2.8-5.1a89,89,0,0,0-5.8-9.5,27.4,27.4,0,0,0-3.4-4.1,18.1,18.1,0,0,0-4.1-3.2,13.3,13.3,0,0,0-2.4-1.1l-2.6-1.2a26.2,26.2,0,0,1-5.3-3,7.1,7.1,0,0,1-2.2-3,5.5,5.5,0,0,1-.2-2.2,5.3,5.3,0,0,1,.6-1.9,12.3,12.3,0,0,1,2.2-2.7,15.7,15.7,0,0,1,2.6-1.9,11,11,0,0,1,3.2-1.1,6.3,6.3,0,0,1,3.6.1,7.2,7.2,0,0,1,3.1,2l.6.6.6.8a4.7,4.7,0,0,1,.6,2,5.3,5.3,0,0,1-.2,2.2,4.2,4.2,0,0,1-1.1,1.8,6.4,6.4,0,0,1-1.5,1.3,6.5,6.5,0,0,1-2.1.6,4.7,4.7,0,0,1-2.5-.7,4.1,4.1,0,0,1-1.4-1.9l-.2-.5a.9.9,0,0,1-.1-.5v-.9a8.1,8.1,0,0,1-.1-1.6,9.8,9.8,0,0,1,.5-3.3,7.2,7.2,0,0,1,2.1-3.1,9.2,9.2,0,0,1,3.3-1.6,13,13,0,0,1,3.4-.1,10.9,10.9,0,0,1,3.1.8,10.5,10.5,0,0,1,3,1.5,15.9,15.9,0,0,1,1.3,1.3l.7,1.1a6.8,6.8,0,0,1,.2,1.4,3.8,3.8,0,0,1-1.3,2.4l-.5.4h-.3l-.3.2-1.3.4a3.2,3.2,0,0,1-1.3-.2,2.8,2.8,0,0,1-1.1-.8,4.4,4.4,0,0,1-.8-1.1l-.3-.9a8.4,8.4,0,0,1-.4-3.5,10,10,0,0,1,.8-3.3,5.9,5.9,0,0,1,2.3-2.9,6.6,6.6,0,0,1,1.9-.9,6.5,6.5,0,0,1,5.4,1.3,8.7,8.7,0,0,1,3.2,3.9,6.7,6.7,0,0,1,.7,1.7,6.5,6.5,0,0,1,0,1.4v.2a.4.4,0,0,0-.1.3l-.2.3-.2.3a1.8,1.8,0,0,1-.7.5.1.1,0,0,1-.1.1l-.4.2h-2.1l-.9-.6a1.8,1.8,0,0,1-.5-.7l-.2-.3a.8.8,0,0,1-.1-.4,1.4,1.4,0,0,1-.2-.6v-.6a4.8,4.8,0,0,1,.3-1.8,12,12,0,0,1,1.3-3.1,9.6,9.6,0,0,1,2.4-2.6l1.9-.8a4.5,4.5,0,0,1,2.3.1,6.7,6.7,0,0,1,3.1,2.2l.5.7.5.8.2.5v.4l.3.9a10.2,10.2,0,0,1-.1,3.5,22.6,22.6,0,0,1-2.3,5.7l-2.9,4.9a17.1,17.1,0,0,0-1.2,2.3,2.2,2.2,0,0,0-.3,1,.7.7,0,0,0-.1.5v.5a20.1,20.1,0,0,0,1.2,5l.2.6.2.5v.6l.3.8.7,1.5s.4,1.3,1,3,1.3,3.9,1.8,5.8a11.5,11.5,0,0,1,.7,3.2c0,.7-.2.9-.4.8a21.8,21.8,0,0,1-2.1-3.4c0,.2-1-1.9-2.2-4s-1.1-2.2-1.6-3a14.2,14.2,0,0,0-.7-1.4l-.6-1.6-.3-.8v-.3l-.4-1-.9-2.8a28.7,28.7,0,0,1-.5-3.1v-1.7a3.6,3.6,0,0,0,.2-1l.3-.8a22.9,22.9,0,0,1,1.4-2.7c.4-.8.9-1.6,1.4-2.4a36.7,36.7,0,0,0,2.6-4.7,9.5,9.5,0,0,0,1.1-4.4,4.6,4.6,0,0,0-2-3.1h-.6l-.6.2a4.7,4.7,0,0,0-1.4,1.2,7.5,7.5,0,0,0-1,2,1.9,1.9,0,0,0-.3,1,2.3,2.3,0,0,0-.1.7h-.2l-.4.2h0v-.6h.3c.1.6-.2-1.2.3,1.3h-.2l-.8-.2H252a.8.8,0,0,0-.1-.4,3.6,3.6,0,0,0-.4-.9,6.2,6.2,0,0,0-3.1-2.9,2.5,2.5,0,0,0-2.8,1,6.4,6.4,0,0,0-.8,4.1,3,3,0,0,0,.2,1c0,.1,0,.2.1.2h0a5.5,5.5,0,0,0-1.6-1.2,9,9,0,0,0-4.5-1,4.6,4.6,0,0,0-2.1.4,3.6,3.6,0,0,0-1.4,1.1,6.2,6.2,0,0,0-.7,4.2v.6a.6.6,0,0,1,.1.4c.1.2.2.3.2.4h.2c.1.1.3,0,.5-.1a2.1,2.1,0,0,0,1.1-1,1.3,1.3,0,0,0,0-1.2,2.3,2.3,0,0,0-.5-.7l-.3-.4-.4-.3a3.3,3.3,0,0,0-1.7-.7,6.3,6.3,0,0,0-4,1.1l-.5.4-.5.3-.8.9A4.2,4.2,0,0,0,227,357a1.5,1.5,0,0,0-.1.6.7.7,0,0,0,.2.6,3.9,3.9,0,0,0,1.4,1.5,23.8,23.8,0,0,0,4.5,2.4l2.5,1.1,1.3.6,1.4.7a25.2,25.2,0,0,1,4.7,3.8,31.6,31.6,0,0,1,3.7,4.5,107.7,107.7,0,0,1,5.9,9.6C253.4,384.2,254.3,385.9,255.3,387.5Z" transform="translate(-163.7 -278.1)"/>
    <path class="bf4bcb23-fc20-433e-9e98-d5fed05e4ced" d="M243.5,395.1l.3-.2h1a1.4,1.4,0,0,1,.8.5,1.1,1.1,0,0,1,.3.8c0,.2.1.4.1.6v.9a2.1,2.1,0,0,0-.7,1.4,1.4,1.4,0,0,0,.2.7c0,.2.1.3.1.4l.3.3a1,1,0,0,0,.5.4h1a7.2,7.2,0,0,0,2.6-.7,16.6,16.6,0,0,0,2.7-1.3l1.4-.8,1.5-.7c3.8-1.9,7.5-4,11.1-6.2l2.7-1.7,2.7-1.5,2.4-1.6a18,18,0,0,0,2-1.8l.4-.7a1.3,1.3,0,0,0,.1-.6,2.2,2.2,0,0,0-.5-.8c-.5-.4-.6-.6-.4-.7h.6a1.9,1.9,0,0,1,1.1.4,2.4,2.4,0,0,1,.8,1.5,4.1,4.1,0,0,1-.1,1.1,3.6,3.6,0,0,1-.4.9,4.3,4.3,0,0,1-.8,1.3,18.2,18.2,0,0,1-2.4,2.5c-1.9,1.7-3.9,3.2-3.9,3.2l-2.4,1.6q-5.7,3.3-11.4,6.3l-1.4.7-1.4.7a29.6,29.6,0,0,1-3.1,1.5,17.1,17.1,0,0,1-3.6,1,9.3,9.3,0,0,1-2.3-.2,4.9,4.9,0,0,1-2.1-1.4,2.7,2.7,0,0,1-.7-.8,10.4,10.4,0,0,1-.4-1,4.9,4.9,0,0,1-.4-2.1c0-.3.1-.7.1-1.1a4.2,4.2,0,0,1,.4-1,4.1,4.1,0,0,1,.5-.9A2.7,2.7,0,0,1,243.5,395.1Z" transform="translate(-163.7 -278.1)"/>
    <path class="bf4bcb23-fc20-433e-9e98-d5fed05e4ced" d="M245.6,404.5c0-.2,0-.2.2-.4l.4-.5h.4a1,1,0,0,1,.9-.1,1.4,1.4,0,0,1,.8.5l.4.5c0,.1.1.2.1.3h1l1.3-.3a31.2,31.2,0,0,0,3.9-1.5l1-.5,1-.4,2.1-.9c2.7-1.2,5.4-2.3,8-3.6l2.7-1.6.8-.4,1.9-1a11.4,11.4,0,0,0,4-3.5,3.9,3.9,0,0,0,.3-2.7c-.1-.6-.1-.8.2-.8l.4.3c.3.2.4.5.7.8a6.4,6.4,0,0,1,.2.7c.1.2.1.5.2.7a16127073635158.3,16127073635158.3,0,0,0-.2,1.8c0-.1,0,.1-.1.3l-.5,1.1a12.3,12.3,0,0,1-2.4,2.9,24.2,24.2,0,0,1-2.8,2.2,7.1,7.1,0,0,1-1.3.9l-2.5,1.4c-2.7,1.4-5.5,2.6-8.2,3.7l-2,.9-1,.5-1.1.4-4.3,1.7-1.6.3-.9.2h-1.4l-1.3-.4a2.8,2.8,0,0,1-1-.9A2.7,2.7,0,0,1,245.6,404.5Z" transform="translate(-163.7 -278.1)"/>
    <path class="bf4bcb23-fc20-433e-9e98-d5fed05e4ced" d="M245.5,406.1v-.3a2.3,2.3,0,0,1,1-1.4,2.4,2.4,0,0,1,2.2.4s.2.1.2.2a6.8,6.8,0,0,0,1,2.1,4.6,4.6,0,0,0,.7.7l.8.4a7.9,7.9,0,0,0,4-.2c1.6-.4,3.1-1,4.7-1.5l2.4-.9,2.4-.9,4.5-1.9a24.9,24.9,0,0,0,2.8-1.5l.7-.4a9.7,9.7,0,0,0,1.8-1.1,10,10,0,0,0,2-1.6A5.6,5.6,0,0,0,278,396a4.8,4.8,0,0,0,0-1.7,10998156482302.3,10998156482302.3,0,0,1-.2-1.2c-.1-.5-.1-.8.2-.7l.4.3a2.3,2.3,0,0,1,.7.7,5.1,5.1,0,0,1,.8,3,3.2,3.2,0,0,1-.3,1.5,6.1,6.1,0,0,1-.7,1.7,18.3,18.3,0,0,1-1.3,1.6,14.1,14.1,0,0,1-2.7,2.4l-1.3,1-2.7,1.4-4.8,2-2.4.9-2.4.9a36.6,36.6,0,0,1-5,1.6,12.6,12.6,0,0,1-2.8.5,7.2,7.2,0,0,1-3.2-.4,6.8,6.8,0,0,1-3.2-2.3A11.5,11.5,0,0,1,245.5,406.1Z" transform="translate(-163.7 -278.1)"/>
    <g>
      <path class="bf4bcb23-fc20-433e-9e98-d5fed05e4ced" d="M255.9,412a.2.2,0,0,1,0-.3,1.6,1.6,0,0,1,.3-.9,1.3,1.3,0,0,1,.7-.6,3,3,0,0,1,2.1.5.2.2,0,0,1,.2.2,3.3,3.3,0,0,0,1.1,1.3,6.6,6.6,0,0,0,2.1.8,12.5,12.5,0,0,0,5.7-.5,11.9,11.9,0,0,0,2.6-1.1h.2l.5-.3a6.9,6.9,0,0,0,1.7-1.1,8,8,0,0,0,2.7-4.3,3.1,3.1,0,0,0,.1-1v-2c0-.6.2-.9.4-.7a2.6,2.6,0,0,1,.8,1.2,7.3,7.3,0,0,1,.6,2.8,4.2,4.2,0,0,1-.1,1.5,9.5,9.5,0,0,1-1.5,3.5,11.9,11.9,0,0,1-2.6,2.8l-1.5,1a14.8,14.8,0,0,1-2.9,1.2,13.5,13.5,0,0,1-3.6.7,16.3,16.3,0,0,1-3.8-.1,10.3,10.3,0,0,1-3.3-1.3A6.1,6.1,0,0,1,255.9,412Z" transform="translate(-163.7 -278.1)"/>
      <path class="bf4bcb23-fc20-433e-9e98-d5fed05e4ced" d="M268.5,407.2h.2a2.5,2.5,0,0,1,1.4.8c.4.4.6,1.1,0,2.3l-.3.2a52.6,52.6,0,0,1-5.8,1.7l-2.4.7-.5.3h-.4c-.5-1.5.9,3.3-1-3.4h1.5l5.3-.7a11.4,11.4,0,0,0,2.5-.6l.6-.2h-.1l-.6.2-1.2.3-2,.8-.7.3h1.2a6.3,6.3,0,0,0,1.9-.3,7.7,7.7,0,0,0,3.4-1.6l.7-.8H269l-1.2.2a28.5,28.5,0,0,0-5.5,1.6c-1.5.5-2.4,1-3,1.2s-.8.1-.8-.1,1.2-1.8,3-2.9a19,19,0,0,1,4.2-2.2,20,20,0,0,1,3.4-1.2l1.2-.3h3.2l1.2.3h.3l.4.2.5.2h.4a17.5,17.5,0,0,1-.3,2.4,1.4,1.4,0,0,1-.2.6,1.4,1.4,0,0,1-.2.6l-.3.6-.3.4a4.9,4.9,0,0,1-1.2,1.3,10.4,10.4,0,0,1-4.9,2.5,12.4,12.4,0,0,1-2.7.3H264a3.5,3.5,0,0,1-1.1-.3l-.5-.2-.5-.2-.9-.6c-.5-.4-.8-.9-1.3-1.3l-.6-.8-.3-.3h.2l.2-.2,1.8-1.2,1-.6.9-.5,1.4-.7,2.4-.9,1.4-.4h6l.5.2,1.9.6.5.2h.3l-.7.9-.5.8-.3.4-.3.4-.3.4-.2.2h-.2l-.9.8-.5.3-.6.3a6.7,6.7,0,0,1-1.2.6l-.9.4-.7.2-2.9.7-5.6.7H260c-1.9-6.6-.5-1.8-.9-3.3h.5l.7-.3a15.2,15.2,0,0,1,2.8-.9A50.4,50.4,0,0,0,268.5,407.2Z" transform="translate(-163.7 -278.1)"/>
    </g>
    <path class="bf4bcb23-fc20-433e-9e98-d5fed05e4ced" d="M166,345.1h.1a1.4,1.4,0,0,1,.5,1.4l-.3.8-.3,1.1h-1.2l-.4-.2a2.4,2.4,0,0,1-.6-.8,2.1,2.1,0,0,1,0-1.1.8.8,0,0,1,.2-.5h.3l.2-.2h.6l.2-.2h.3a63.9,63.9,0,0,1,13.1-.2l1.3.4,2.4.8c2.6,1,1.4,1.7-.2,2l-1.9.2h-2a62.1,62.1,0,0,0-12.2.2l.6-.2h-.2V348l-.2-.4c-.1-.1-.1-.2-.2-.2a1.7,1.7,0,0,0-.5-.6,3.1,3.1,0,0,0,.1-.9v-.7h.3Z" transform="translate(-163.7 -278.1)"/>
    <path class="bf4bcb23-fc20-433e-9e98-d5fed05e4ced" d="M299.9,300.3h.2a2.8,2.8,0,0,1,1.5.6,2.2,2.2,0,0,1,.2,2.3v.3l-1.2.7a4.7,4.7,0,0,0-1.2.7l-2.3,1.7-1.6,1.4-.9.7-.7.7-1.2,1.1-.5.6-.6.6-2.3,2.1-2.1,2a21.3,21.3,0,0,1-2.2,2.1c-4.7,4.5-3.6,2-1.4-1.3a34.7,34.7,0,0,1,2.7-3.8,7.6,7.6,0,0,1,1.1-1.4,14.7,14.7,0,0,1,1-1.3l1-1.2a18.9,18.9,0,0,1,2-2l.9-.8.8-.8,1.8-1.5,2.5-1.8a5.7,5.7,0,0,1,1.3-.8Z" transform="translate(-163.7 -278.1)"/>
    <path class="bf4bcb23-fc20-433e-9e98-d5fed05e4ced" d="M181.4,310.5a.1.1,0,0,1-.1-.1c0-.2-.1-.7-.1-1.3a3.5,3.5,0,0,1,.6-1.9.2.2,0,0,1,.2-.2h.6l1.4.4,3.9,1.6,3.5,1.9,1.6.8a22.3,22.3,0,0,1,2.3,2.3c.8.8.9,1.3.7,1.5s-.9.3-1.7.2l-1.5-.4-1.7-.6-1.5-.8-3.3-1.7a27.5,27.5,0,0,0-3.4-1.4l-1.1-.3Z" transform="translate(-163.7 -278.1)"/>
    <path class="bf4bcb23-fc20-433e-9e98-d5fed05e4ced" d="M265.1,280.8h.1a2.2,2.2,0,0,1,.9,1,5.2,5.2,0,0,1,.6,2v.2h-.3l-.9.7a20.9,20.9,0,0,0-2.4,3,32.9,32.9,0,0,0-2,3.4,16.3,16.3,0,0,1-.9,1.6l-.7,1c-.5.5-1,1.1-1.6,1.6s-2,.6-1.7-.9a12.9,12.9,0,0,1,.4-1.7l.6-1.7.8-1.7c.6-1,1.3-2.4,2.2-3.7a20.8,20.8,0,0,1,2.9-3.5A7.7,7.7,0,0,1,265.1,280.8Z" transform="translate(-163.7 -278.1)"/>
    <path class="bf4bcb23-fc20-433e-9e98-d5fed05e4ced" d="M190,388.9s0,.1-.1,0a3.6,3.6,0,0,1-2.5-2.1h-.1l1-1.5a1.8,1.8,0,0,0,.5-.7l.6-.8,1.1-1.7,2.2-3.3,1-1.6.8-.8,1.6-1.4c1.9-1.4,2.1-.2,1.7,1.1l-.6,1.6c-.3.8-.7,1.6-.7,1.6a15.6,15.6,0,0,1-.9,1.5l-2.2,3.3c-.4.6-.7,1.2-1.1,1.7l-.6.9-.5.7A18.6,18.6,0,0,1,190,388.9Z" transform="translate(-163.7 -278.1)"/>
    <path class="bf4bcb23-fc20-433e-9e98-d5fed05e4ced" d="M306.6,344.7h.1a3.3,3.3,0,0,1-.3,3.3h-.1L292.1,347l-3.8-1.2c-2.6-1-1.5-1.7.3-2-.2-.1,4-.3,4-.3Z" transform="translate(-163.7 -278.1)"/>
    <path class="bf4bcb23-fc20-433e-9e98-d5fed05e4ced" d="M213.5,279.5c0-.1,0-.1.1-.3l.5-.7a1.2,1.2,0,0,1,1.8,0l1,.7a.3.3,0,0,0,.1.2,11.1,11.1,0,0,0,.5,2.5,27.6,27.6,0,0,0,.8,2.7h0c.3,1,.7,2,1,3l.9,3c.6,1.8,1.2,4,1.7,5.8s.8,4.2.4,4-1.3-1.6-2.3-3.3l-2-4.2c-1.1-2.2-2.1-4.5-2.1-4.5s-.7-1.8-1-2.7h0l-.9-2.9A15.3,15.3,0,0,1,213.5,279.5Z" transform="translate(-163.7 -278.1)"/>
  </g>
</svg>
