<svg id="be6f89e5-d06e-4c7c-be5d-56e239e83184" data-name="Objects" xmlns="http://www.w3.org/2000/svg" viewBox="0 0 93.9 98.6">
  <defs>
    <style>
      .addf75e7-0caa-4aa9-bb20-af6a630289b4 {
        fill: #252525;
      }
    </style>
  </defs>
  <g>
    <path class="addf75e7-0caa-4aa9-bb20-af6a630289b4" d="M507,932.2h0c0-.3.2-.7.8-.5h.1l.4.6.6.7c3.3,4.2,7.3,7.9,10.9,11.9l2.7,2.9,2.8,3,2.8,2.9.4.5a.8.8,0,0,1,.4.4,16.6,16.6,0,0,1,1.7,2c1.3,1.4.6,1.1-.4.4l-2.1-1.8-1.1-1.1-2.7-2.9-2.7-2.9-2.8-2.9c-3.5-3.9-7.4-7.6-10.8-11.7a1.8,1.8,0,0,0-.5-.7Z" transform="translate(-453.1 -866)"/>
    <path class="addf75e7-0caa-4aa9-bb20-af6a630289b4" d="M531.8,957.5c0,.1,0,.1-.1.1H531V957h0a8,8,0,0,1,1.3-1.3l4.1-3.9.7-.6,2-1.8c.7-.6.9-.8.9-.7s-.2.6-.5,1.1a8.3,8.3,0,0,1-.9,1.1l-.9,1.1-.6.6-4.1,3.9A6.3,6.3,0,0,0,531.8,957.5Z" transform="translate(-453.1 -866)"/>
    <path class="addf75e7-0caa-4aa9-bb20-af6a630289b4" d="M516.6,923.7h-.1a.6.6,0,0,1,.8-.7.1.1,0,0,0,.1.1l1.1,1.3,5.2,5.9,5.3,5.8c.9,1,1.7,2,2.6,2.9l1.4,1.5,1.4,1.4,2.7,2.8.8.9s.1,0,.2.2l.4.5,1,1.5c1,1.6.4,1.1-.5.3l-.9-.9-.7-.7-.3-.3-1-1.1-2.7-2.8a23.7,23.7,0,0,1-2.7-2.8,37.1,37.1,0,0,1-2.7-2.9l-5.2-5.7-5.1-5.9Z" transform="translate(-453.1 -866)"/>
    <path class="addf75e7-0caa-4aa9-bb20-af6a630289b4" d="M506.6,931.5h0c.3.1.8.3.5.9a.1.1,0,0,1-.1.1l-1.4.7-1.4.6-2.4,1-1.2.4-1.3.4-2.6.8-2.6.6a25.9,25.9,0,0,1-5.6.5,36.4,36.4,0,0,1-5.7-.4l-2.9-.6-1.4-.3-1.5-.5a37.7,37.7,0,0,1-10.5-5.9,36.4,36.4,0,0,1-4.5-4.3,23.1,23.1,0,0,1-2-2.4c-.6-.9-1.2-1.8-1.7-2.7a33.2,33.2,0,0,1-3-5.6,27.4,27.4,0,0,1-1.8-6.2,34.9,34.9,0,0,1,.4-12.9,37.2,37.2,0,0,1,4.2-12.4,32,32,0,0,1,8.6-9.7,39.4,39.4,0,0,1,5.5-3.5,31.1,31.1,0,0,1,5.9-2.6l3.1-.8,3.2-.5,3.2-.2h3.1a37.8,37.8,0,0,1,12.1,2.5,36.1,36.1,0,0,1,10.3,6.3,34.2,34.2,0,0,1,7.4,8.7,7.5,7.5,0,0,0,.7,1.2l.6,1.3c.4.8.6,1.7,1,2.6a9.3,9.3,0,0,0,.4,1.3l.3,1.3a20,20,0,0,1,.5,2.6,42.8,42.8,0,0,1,.1,10.1,44.1,44.1,0,0,1-1.7,9.2l-.8,2.1a15.4,15.4,0,0,1-.8,1.9,11.4,11.4,0,0,1-1,1.9c0,.1,0,.1-.1.2s-.1.3-.2.4l-.2.4a4.5,4.5,0,0,0-.6.8l-.5.6-.7.7c-1.3,1.4-1,.6-.4-.4l.7-1.1.7-1.3s0-.1.2-.3.6-1.1.9-1.8a35.8,35.8,0,0,0,2.6-7.6,31.1,31.1,0,0,0,.7-4.4,16.4,16.4,0,0,0,.2-2.2c.1-.8.1-1.6.2-2.4a36.2,36.2,0,0,0-.9-9.7,27.3,27.3,0,0,0-4.4-9.3,36.3,36.3,0,0,0-18-13,41.4,41.4,0,0,0-11.7-1.7,33.7,33.7,0,0,0-12,2.3,38.5,38.5,0,0,0-10.6,6.4,33.1,33.1,0,0,0-7.6,9.8,41.9,41.9,0,0,0-2.2,5.9l-.4,1.5-.3,1.6-.6,3.1a29.8,29.8,0,0,0,5.3,23.4,32.4,32.4,0,0,0,8.2,8.7,38.5,38.5,0,0,0,10.2,5.4,50.4,50.4,0,0,0,5.6,1.1,49.3,49.3,0,0,0,5.5.3,24.1,24.1,0,0,0,5.3-.7l1.2-.3,1.3-.3,2.5-.8.6-.2.6-.2,1.2-.5,2.3-.9.8-.4Z" transform="translate(-453.1 -866)"/>
    <path class="addf75e7-0caa-4aa9-bb20-af6a630289b4" d="M472.8,884.6h.1c.3,0,.7.2.4.9h0l-.4.2-.4.2-.5.4h-.1l-.6.6a19.9,19.9,0,0,0-2.2,2.7,32.4,32.4,0,0,0-1.7,3.2l-.8,1.7c-.2.6-.3,1.2-.5,1.8a22.5,22.5,0,0,0-.8,7.8,21.4,21.4,0,0,0,2.3,7.7,22,22,0,0,0,5.2,6.6,22.4,22.4,0,0,0,7.3,4.3,27.4,27.4,0,0,0,8.6,1.7,25.8,25.8,0,0,0,8.7-1.2,22.5,22.5,0,0,0,7.5-4.3,20.7,20.7,0,0,0,4.8-7.2,23.8,23.8,0,0,0,1.8-8.3,20.3,20.3,0,0,0-.9-8.2,22,22,0,0,0-4-7,23.5,23.5,0,0,0-6-4.9l-1.6-.8-1.7-.8-1.7-.7-1.7-.6a22.3,22.3,0,0,0-6.7-.8,20.1,20.1,0,0,0-6.1,1.4l-2.7,1-1.3.7h-.2l-.4.3-.3.2a12.8,12.8,0,0,0-2.2,1.4,2.3,2.3,0,0,0-.7.6c-.2.1-.2.1-.2,0s.1-.6.5-1.1.4-.5,1-1l1.2-.9.3-.2h.2c.1,0,.1,0,.1-.1h.1l.5-.2.6-.3,2.6-1.1a22.9,22.9,0,0,1,2.8-.9,15.5,15.5,0,0,1,3.1-.6h1.7a8.6,8.6,0,0,1,1.6,0,21.6,21.6,0,0,1,6.9,1.6l3.3,1.4,1.7.9,1.6,1.1a22.8,22.8,0,0,1,5.7,5.5,20.4,20.4,0,0,1,3.4,7.5,24.8,24.8,0,0,1,.4,8.6,25.9,25.9,0,0,1-2.4,8.4,20,20,0,0,1-5.6,7l-.9.7-.9.6-2,1.1-2.1.9-2.1.7-2.2.5-2.3.3a33.8,33.8,0,0,1-4.5,0,29.1,29.1,0,0,1-8.7-2.1,25.7,25.7,0,0,1-7.3-4.8,21.7,21.7,0,0,1-5.1-7,20.7,20.7,0,0,1-2.1-8.1,23.2,23.2,0,0,1,1.1-7.9,14.2,14.2,0,0,1,1.4-3.6,17.4,17.4,0,0,1,1.8-3.3,16.1,16.1,0,0,1,2.4-2.8l.3-.3h.2A3.6,3.6,0,0,1,472.8,884.6Z" transform="translate(-453.1 -866)"/>
    <path class="addf75e7-0caa-4aa9-bb20-af6a630289b4" d="M534.5,960.5h-.1c-.3.1-.8,0-.7-.7h0l1.2-1.3c1.4-1.4,2.9-2.8,4.2-4.2l.7-.7.2-.2.5-.4,1.3-1.2c1.4-1.2,1.1-.5.4.4s-.4.6-.8,1.1l-.9,1.1-.6.6c-1.4,1.5-2.8,2.8-4.2,4.2Z" transform="translate(-453.1 -866)"/>
    <path class="addf75e7-0caa-4aa9-bb20-af6a630289b4" d="M533.5,960.9h0v-.2c0-.1,0-.2.1-.2s0-.1.1-.1h.7l1.1,1.2.9.8.9.7a4.6,4.6,0,0,0,2.3.5,6.1,6.1,0,0,0,4.3-1.7,4.6,4.6,0,0,0,1.3-2,6.3,6.3,0,0,0,.8-2.3,4.1,4.1,0,0,0-.1-1.1,4.3,4.3,0,0,0-.1-.5l-.3-.5-.3-.5-.3-.3a.3.3,0,0,0-.1-.2l-.4-.6a4.7,4.7,0,0,1-1.1-1.3c-1.3-1.4-.6-1.1.4-.4l1,.9.8.7.3.3.3.4.2.2v.2l.2.3a7.4,7.4,0,0,1,.4,1.4,6.1,6.1,0,0,1-.1,1.4,7.9,7.9,0,0,1-.8,2.6,4.1,4.1,0,0,1-.7,1.1,2.1,2.1,0,0,1-.4.6l-.5.5a7.1,7.1,0,0,1-5,1.9,6.8,6.8,0,0,1-2.7-.7l-1.1-.8-.9-.9A8,8,0,0,1,533.5,960.9Z" transform="translate(-453.1 -866)"/>
    <path class="addf75e7-0caa-4aa9-bb20-af6a630289b4" d="M534.8,959.1h0a.6.6,0,0,1,.5.2h0a.3.3,0,0,1-.1.2v.6l.2.9v.5c-.1.3-.2.2-.3,0l-.2-.5-.2-.9v-.6A1,1,0,0,0,534.8,959.1Z" transform="translate(-453.1 -866)"/>
    <path class="addf75e7-0caa-4aa9-bb20-af6a630289b4" d="M535.5,958.3h.1c.1-.1.3-.2.4.1h0v.8a2.8,2.8,0,0,0,.1.9v.5s.1.8.1,1.3-.1.6-.3.1l-.2-.7-.2-.7v-.4a3.4,3.4,0,0,1-.1-1A1.7,1.7,0,0,1,535.5,958.3Z" transform="translate(-453.1 -866)"/>
    <path class="addf75e7-0caa-4aa9-bb20-af6a630289b4" d="M536.3,957.4h.1c0-.1.2-.3.4,0h.1a1.9,1.9,0,0,0-.1.8,20.2,20.2,0,0,0,.4,2.6v.5a13.8,13.8,0,0,1,.1,1.4c.1.9-.1.6-.3,0s-.4-1.3-.4-1.3V961a11.7,11.7,0,0,1-.4-2.7Z" transform="translate(-453.1 -866)"/>
    <path class="addf75e7-0caa-4aa9-bb20-af6a630289b4" d="M537.1,956.5h.1a.2.2,0,0,1,.2-.2c.1,0,.1.1.2.2h.1c-.1.2,0,.4,0,.8l.6,3.8v.4a10.3,10.3,0,0,0,.1,1.4c0,.9-.2.6-.3,0s-.3-1.4-.3-1.4v-.4l-.6-3.8C537.2,957.2,537.1,956.9,537.1,956.5Z" transform="translate(-453.1 -866)"/>
    <path class="addf75e7-0caa-4aa9-bb20-af6a630289b4" d="M538.4,956h0c.1-.1.2-.3.5,0h0v.9l.5,3c0,.5.1,1,.1,1.5l.2,1.3v1.3c-.1,1-.2.6-.3,0s-.3-1.3-.3-1.3v-1.3c-.1-.5-.1-1-.2-1.5l-.4-3Z" transform="translate(-453.1 -866)"/>
    <path class="addf75e7-0caa-4aa9-bb20-af6a630289b4" d="M539.4,955.3h0c.1-.1.2-.3.5,0h0l.2.8.6,3.3.5,3s.1.8.2,1.3-.2.6-.3.1l-.4-1.4-.5-2.9-.6-3.3Z" transform="translate(-453.1 -866)"/>
    <path class="addf75e7-0caa-4aa9-bb20-af6a630289b4" d="M540.7,953.3h0c.1-.1.2-.2.2-.1l.3.2h0a2.5,2.5,0,0,0,.1.8v1.1h0a28.2,28.2,0,0,1,.7,3.1c.1.5.1,1,.2,1.5v.7c0,.2.1.3.1.5a8.5,8.5,0,0,1-.1,1.3c0,1-.1.6-.2,0s-.2-1.4-.2-1.4l-.2-1.1-.3-1.5-.6-3h0v-1.1A3.1,3.1,0,0,1,540.7,953.3Z" transform="translate(-453.1 -866)"/>
    <path class="addf75e7-0caa-4aa9-bb20-af6a630289b4" d="M541.7,952.4h0c.1-.1.2-.3.5-.1h0l.2.8a14.6,14.6,0,0,1,.5,2l.3,1.9.3,2,.2,1.5a13.8,13.8,0,0,1,.1,1.4c0,.9-.2.6-.3,0s-.3-1.4-.3-1.4V959l-.3-1.9-.3-1.9a10.5,10.5,0,0,0-.5-1.9Z" transform="translate(-453.1 -866)"/>
    <path class="addf75e7-0caa-4aa9-bb20-af6a630289b4" d="M543,952.3h0c.1-.1.3-.3.5-.1h0l.2.8c.1.4.1.8.2,1.1l.3,1.1.5,2.2a.9.9,0,0,1,.1.5l.2,1.4c.1.9-.1.5-.3,0s-.4-1.3-.4-1.3v-.4l-.5-2.3-.3-1.1a3.6,3.6,0,0,1-.2-1.1Z" transform="translate(-453.1 -866)"/>
    <path class="addf75e7-0caa-4aa9-bb20-af6a630289b4" d="M544.3,953.8h.2c.1,0,.2.2.3.1h0a2.9,2.9,0,0,1,.2.9l.3,1.2v.4a13.8,13.8,0,0,1,.1,1.4c0,.9-.1.6-.3,0s-.3-1.3-.3-1.3v-.4l-.3-1.2A2.9,2.9,0,0,0,544.3,953.8Z" transform="translate(-453.1 -866)"/>
    <path class="addf75e7-0caa-4aa9-bb20-af6a630289b4" d="M506.7,917.7h0c0-.1.1-.1.2-.1s.2,0,.3.2h0v.8c.3,1.3.8,2.6,1,3.9s.5,2.7.7,4,.5,2.7.7,4l.4,2.6s.1.8.1,1.3-.2.6-.3.1l-.3-1.4-.5-2.7-.6-3.9c-.2-1.3-.5-2.6-.8-4s-.6-2.5-.9-3.8A3.3,3.3,0,0,1,506.7,917.7Z" transform="translate(-453.1 -866)"/>
    <path class="addf75e7-0caa-4aa9-bb20-af6a630289b4" d="M507.9,915.8h0c.1-.2.3-.3.5,0h0v.8a26.8,26.8,0,0,0,1.1,4.9c.3,1.7.5,3.3.8,5l.5,2.5c.1.8.2,1.6.4,2.5l.5,3v1.4c.1.9-.1.6-.3,0s-.3-1.3-.3-1.3l-.5-3.3c-.2-1.6-.5-3.3-.8-4.9a20,20,0,0,1-.4-2.4c-.2-.9-.3-1.7-.4-2.5a24,24,0,0,1-1.1-4.8A2.7,2.7,0,0,1,507.9,915.8Z" transform="translate(-453.1 -866)"/>
    <path class="addf75e7-0caa-4aa9-bb20-af6a630289b4" d="M509,914.4h0c.1-.1.2-.3.5-.1h0l.2.8c.9,4.2,1.7,8.4,2.6,12.6.3,2.1.8,4.2,1.1,6.4l.5,3.8v1.4c0,.9-.1.5-.3,0l-.2-1.4-.6-4.1c-.3-2.1-.7-4.1-1.1-6.2-.8-4.1-1.7-8.3-2.5-12.4Z" transform="translate(-453.1 -866)"/>
    <path class="addf75e7-0caa-4aa9-bb20-af6a630289b4" d="M510.2,912h0a.3.3,0,0,1,.5,0h0a1.9,1.9,0,0,0,.2.7,66.3,66.3,0,0,1,1.5,7.5l1.3,7.5c.4,2.5.9,5,1.4,7.5l.8,4.4a13.8,13.8,0,0,1,.1,1.4c.1.9-.1.6-.3,0s-.3-1.3-.3-1.3l-.9-4.8c-.5-2.4-.9-4.9-1.3-7.3l-1.3-7.4a55.5,55.5,0,0,0-1.5-7.3A2.9,2.9,0,0,1,510.2,912Z" transform="translate(-453.1 -866)"/>
    <path class="addf75e7-0caa-4aa9-bb20-af6a630289b4" d="M512,902.2h0c.1-.1.2-.3.5,0h0a2.8,2.8,0,0,1,.1.8l.3,1.4a20,20,0,0,0,.4,2.4c.4,1.6.7,3.3,1.2,5,.8,3.5,1.5,7.3,2.2,11,.2.9.3,1.9.5,2.8l.6,2.7c.4,1.9.7,3.7,1.1,5.4.8,3.4,1.5,6.7,2.2,9.4s.9,3.9.9,3.9.1.8.1,1.3-.1.6-.3.1l-.4-1.4-1-4.4c-.6-2.8-1.3-5.9-2.1-9.4-.4-1.7-.7-3.4-1.1-5.2l-.6-2.8a25.6,25.6,0,0,0-.5-2.7c-.7-3.7-1.4-7.4-2.2-10.8-.4-1.7-.8-3.4-1.1-5a22.3,22.3,0,0,1-.4-2.3l-.3-1.4A2.4,2.4,0,0,0,512,902.2Z" transform="translate(-453.1 -866)"/>
    <path class="addf75e7-0caa-4aa9-bb20-af6a630289b4" d="M518,925.6h0c.1-.1.3-.3.5-.1h0c.1.2.1.5.2.8.3,2,1.2,3.9,1.6,5.9l1.4,6c.4,2,.9,4,1.4,6l.8,3.6a7,7,0,0,1,.2,1.3c.1,1-.1.6-.3.1s-.4-1.3-.4-1.3l-.9-3.9c-.5-2-1-3.9-1.4-5.9l-1.3-5.9c-.4-1.9-1.3-3.8-1.7-5.8A2.8,2.8,0,0,0,518,925.6Z" transform="translate(-453.1 -866)"/>
    <path class="addf75e7-0caa-4aa9-bb20-af6a630289b4" d="M520.2,927.9h0c.1-.1.3-.1.5.1h0v.8c.3,2,1.3,3.9,1.7,6s.9,4.2,1.3,6.3l.6,3.1c.2,1,.4,2.1.5,3.1l.6,3.1v.2h0v.2a8.7,8.7,0,0,0,.3,1.4c.2.9,0,.6-.3,0s-.1-.3-.3-.6l-.2-.7v-.2h-.1v-.4c-.3-1-.4-2.1-.6-3.1s-.3-2.1-.5-3.1l-.7-3c-.3-2.1-.8-4.1-1.2-6.1s-1.4-3.9-1.7-6.1A2.7,2.7,0,0,1,520.2,927.9Z" transform="translate(-453.1 -866)"/>
    <path class="addf75e7-0caa-4aa9-bb20-af6a630289b4" d="M522.2,930.1h0c.1-.1.2-.3.5,0h0v.9c.2.9.6,1.9.8,2.9s.5,2.1.7,3.1l1.3,6.1c.5,2,.8,4,1.2,6.1l.8,3.6a13.8,13.8,0,0,1,.1,1.4c.1.9-.1.6-.3,0s-.3-1.3-.3-1.3l-.2-.9-.6-3-.6-3-.6-3-1.3-6c-.2-1-.4-2-.7-3s-.6-1.9-.8-2.9v-.9Z" transform="translate(-453.1 -866)"/>
    <path class="addf75e7-0caa-4aa9-bb20-af6a630289b4" d="M524.3,932.5h.5c0,.2.1.5.1.7s.3,1,.5,1.5l.3,1.5.7,2.9.3,1.4.3,1.5.6,3,1.9,9.4s.1.8.2,1.4-.1.6-.3,0-.4-1.3-.4-1.3l-.7-3.8-1.2-5.8-1.2-5.8-.7-2.9-.4-1.4-.4-1.4C524.4,933.1,524.3,932.8,524.3,932.5Z" transform="translate(-453.1 -866)"/>
    <path class="addf75e7-0caa-4aa9-bb20-af6a630289b4" d="M526.7,935.1h0c.1-.1.2-.3.5-.1h0l.2.9.6,2.6a26.1,26.1,0,0,1,.6,2.7c.3,1.8.7,3.6,1,5.4l.8,5.4.6,3.3a10.3,10.3,0,0,0,.1,1.4c0,.9-.2.6-.3,0s-.4-1.4-.4-1.4l-.5-3.5-.9-5.3-.9-5.3-1.2-5.2Z" transform="translate(-453.1 -866)"/>
    <path class="addf75e7-0caa-4aa9-bb20-af6a630289b4" d="M528.7,936.9h0c0-.1.2-.3.5,0h0v.9l.3,1.1.3,1.2a20.5,20.5,0,0,1,.5,2.4l.6,2.4a22.3,22.3,0,0,0,.4,2.3c.1.8.3,1.6.4,2.4l.3,2.5.3,3s.1.8.1,1.3-.2.6-.3,0-.3-1.3-.3-1.3l-.4-3.2-.3-2.4-.4-2.3a20,20,0,0,0-.4-2.4l-.5-2.3c-.2-.8-.3-1.5-.5-2.3L529,939l-.3-1.2Z" transform="translate(-453.1 -866)"/>
    <path class="addf75e7-0caa-4aa9-bb20-af6a630289b4" d="M530.6,939.5h0c.1-.1.3-.2.5.1h0v.8c.3,2.4,1.4,4.6,1.7,7.1l.8,6s.1.8.1,1.3-.2.6-.3.1l-.3-1.4-.9-6c-.2-2.4-1.3-4.6-1.6-7Z" transform="translate(-453.1 -866)"/>
    <path class="addf75e7-0caa-4aa9-bb20-af6a630289b4" d="M532.6,941.3h0a.3.3,0,0,1,.5,0h0v.8a28,28,0,0,0,.6,2.8l.3,1.5.2,1.4.4,2.9.4,2a8.5,8.5,0,0,0,.1,1.3c0,1-.2.6-.3.1l-.3-1.4-.4-2.1-.4-2.8-.2-1.4-.3-1.4a28,28,0,0,1-.6-2.8v-.9Z" transform="translate(-453.1 -866)"/>
    <path class="addf75e7-0caa-4aa9-bb20-af6a630289b4" d="M534.4,943.1h.1a.2.2,0,0,1,.4-.1h.1v.8c.1,1.1.3,2.3.5,3.4l.2,1.6.2.9v1.9c0,.9-.1.5-.3,0l-.3-1.4v-.5l-.2-.8-.3-1.7c-.2-1.1-.4-2.2-.5-3.3Z" transform="translate(-453.1 -866)"/>
    <path class="addf75e7-0caa-4aa9-bb20-af6a630289b4" d="M536,944.6h0a.2.2,0,0,1,.4-.1h.1v.8l.3,1.8.2,1.9v1.8c0,.9-.1.6-.3,0a2.1,2.1,0,0,0-.1-.6l-.2-.8V949l-.2-1.8-.3-1.8Z" transform="translate(-453.1 -866)"/>
    <path class="addf75e7-0caa-4aa9-bb20-af6a630289b4" d="M537.7,945.9h0c.1-.1.2-.3.5,0h0v3.9c0,1-.2.6-.3,0s-.2-1.3-.2-1.3v-2.6Z" transform="translate(-453.1 -866)"/>
    <path class="addf75e7-0caa-4aa9-bb20-af6a630289b4" d="M511.7,906.5h0a.3.3,0,0,1,.5,0h0v.8a43.7,43.7,0,0,0,.9,5l.4,2.6.6,2.5,1.1,5c.3,1.7.6,3.4,1,5.1l.2,1.3.3,1.2.6,2.5,1.1,5.1c.2.8.3,1.7.5,2.5l.2,1.3.2,1.3v.7l.3,1.3c.1.9-.1.6-.3.1l-.5-1.4-.2-1.2c-.2-.9-.3-1.7-.4-2.5s-.3-1.7-.5-2.5l-1.1-5c-.4-1.6-.8-3.3-1.1-4.9-.6-3.4-1.4-6.7-2.1-10-.2-.8-.3-1.6-.5-2.4l-.5-2.6c-.2-1.6-.7-3.2-.8-5,0-.1-.1-.3-.1-.4Z" transform="translate(-453.1 -866)"/>
    <path class="addf75e7-0caa-4aa9-bb20-af6a630289b4" d="M510.8,910.5h0c0-.2.2-.4.4-.2h.1v.8l1,4.2.4,2.1.3,1.1.3,1a73.5,73.5,0,0,1,1.9,8.4l.6,4.2.3,2.2a15.5,15.5,0,0,0,.4,2.1l.9,4.9a13.8,13.8,0,0,1,.1,1.4c0,.9-.1.5-.3,0l-.3-1.4-1-5.3c-.5-2.7-.8-5.5-1.3-8.3a46.4,46.4,0,0,0-1.9-8.2l-.3-1-.2-1.1-.4-2-1-4.2Z" transform="translate(-453.1 -866)"/>
    <path class="addf75e7-0caa-4aa9-bb20-af6a630289b4" d="M505.2,919.4h0c.1-.2.2-.4.5-.2h0l.2.8c.2.9.5,1.8.7,2.8l.5,2.8.4,2.8.3,1.9v1.4c0,.9-.1.5-.3,0l-.2-1.4v-.6l-.2-1.4-.5-2.8-.5-2.7a26.1,26.1,0,0,0-.6-2.7Z" transform="translate(-453.1 -866)"/>
    <path class="addf75e7-0caa-4aa9-bb20-af6a630289b4" d="M504.2,920.2h0c.1-.1.2-.2.3-.1l.2.3h0c-.1.2,0,.5,0,.7a41.7,41.7,0,0,0,.8,4.9l.3,1.2v1.2a6.9,6.9,0,0,1,.2,1.3v1.9c0,.9-.2.6-.3,0l-.2-1.4v-.6l-.2-1.2-.2-1.2a5,5,0,0,0-.2-1.2,40,40,0,0,1-.8-4.8A1.7,1.7,0,0,1,504.2,920.2Z" transform="translate(-453.1 -866)"/>
    <path class="addf75e7-0caa-4aa9-bb20-af6a630289b4" d="M502.7,921.6h0c0-.2.2-.3.5,0h0v.9a35,35,0,0,0,.7,4.5,4.3,4.3,0,0,1,.2,1.1v.6a1.3,1.3,0,0,1,.1.6V931s.1.8.1,1.3-.2.6-.3,0-.3-1.3-.3-1.3v-1.8c-.1-.7-.3-1.4-.4-2.2a23.4,23.4,0,0,1-.7-4.5A2.7,2.7,0,0,1,502.7,921.6Z" transform="translate(-453.1 -866)"/>
    <path class="addf75e7-0caa-4aa9-bb20-af6a630289b4" d="M501.1,922.8h0c.1-.1.2-.3.5-.1h0l.2.8c.3,1.6.5,3.1.7,4.7l.3,2.3a4.9,4.9,0,0,0,.1,1.2v.5a10.3,10.3,0,0,1-.1,1.4c-.1.9-.2.6-.3,0v-2a3.7,3.7,0,0,0-.1-1.1c-.1-.8-.1-1.6-.2-2.3s-.5-3.1-.8-4.6Z" transform="translate(-453.1 -866)"/>
    <path class="addf75e7-0caa-4aa9-bb20-af6a630289b4" d="M499.8,923.1h0c.1-.1.3-.3.5,0h0c0,.2-.1.5-.1.8a39.1,39.1,0,0,0,.5,4.8,19.7,19.7,0,0,1,.3,2.4l.2,1.7v1.4c0,.9-.2.6-.3,0l-.2-1.4-.2-1.8-.3-2.3a39.1,39.1,0,0,1-.5-4.8C499.7,923.7,499.8,923.4,499.8,923.1Z" transform="translate(-453.1 -866)"/>
    <path class="addf75e7-0caa-4aa9-bb20-af6a630289b4" d="M498.6,923.8h0c.1-.1.3-.3.5,0h0v.9l.9,8.6v1.3c0,1-.2.6-.3.1l-.2-1.4-.9-8.6Z" transform="translate(-453.1 -866)"/>
    <path class="addf75e7-0caa-4aa9-bb20-af6a630289b4" d="M497.3,924.2h0c0-.1.2-.3.5,0h0v.8c.1,1.5.3,3,.5,4.6l.2,2.2a4.9,4.9,0,0,1,.1,1.2v.5a8.5,8.5,0,0,1-.1,1.3c0,1-.2.6-.3,0s-.1-1.3-.1-1.3v-.6c0-.4-.1-.8-.1-1.2l-.2-2.2c-.2-1.4-.4-2.9-.5-4.4Z" transform="translate(-453.1 -866)"/>
    <path class="addf75e7-0caa-4aa9-bb20-af6a630289b4" d="M495.7,924.3h0c.1-.1.3-.2.5.1h0c0,.2-.1.5-.1.8a24.5,24.5,0,0,0,.4,4.6,16.4,16.4,0,0,1,.2,2.3,4.5,4.5,0,0,1,.1,1.1v.6a10.9,10.9,0,0,0-.1,1.3c-.1.9-.2.6-.3,0s-.1-1.4-.1-1.4v-.6a4.1,4.1,0,0,1-.1-1.1l-.3-2.3a22.7,22.7,0,0,1-.3-4.5A2.8,2.8,0,0,1,495.7,924.3Z" transform="translate(-453.1 -866)"/>
    <path class="addf75e7-0caa-4aa9-bb20-af6a630289b4" d="M494,924.5h0c.1-.1.2-.2.5,0h0v.8c.1.8,0,1.6.1,2.4l.2,2.5.3,2.4c0,.4.1.8.1,1.2v.6a8.5,8.5,0,0,1-.1,1.3c0,1-.2.6-.3,0v-2a4.9,4.9,0,0,0-.1-1.2l-.2-2.4-.2-2.4a19.3,19.3,0,0,1-.1-2.4Z" transform="translate(-453.1 -866)"/>
    <path class="addf75e7-0caa-4aa9-bb20-af6a630289b4" d="M492.5,925.3h0c.1-.1.3-.3.5,0h0v5.4l.2,4v1.4c0,.9-.2.6-.3,0l-.2-1.4-.2-4v-2.3a17.7,17.7,0,0,1,0-2.3Z" transform="translate(-453.1 -866)"/>
    <path class="addf75e7-0caa-4aa9-bb20-af6a630289b4" d="M491.1,925.6h0a.3.3,0,0,1,.5,0h0v9.3a8.5,8.5,0,0,1-.1,1.3c-.1,1-.2.6-.3,0V925.6Z" transform="translate(-453.1 -866)"/>
    <path class="addf75e7-0caa-4aa9-bb20-af6a630289b4" d="M489.5,925.4h0c.1-.1.3-.2.5.1h0a2.8,2.8,0,0,0-.1.9,19.7,19.7,0,0,0,0,4.2,17,17,0,0,1,.1,2.2v3c0,.9-.2.6-.3,0a3.5,3.5,0,0,1-.1-.7,3.2,3.2,0,0,1-.1-.7v-1.7a14.8,14.8,0,0,0-.1-2.1,30.5,30.5,0,0,1-.1-4.3C489.4,926,489.4,925.7,489.5,925.4Z" transform="translate(-453.1 -866)"/>
    <path class="addf75e7-0caa-4aa9-bb20-af6a630289b4" d="M487.7,925.2h0c.1-.1.3-.2.5.1h0v.9c-.1,1.5-.2,3-.2,4.6V933c.1.4,0,.8.1,1.1V936c-.1,1-.2.6-.3,0s-.2-1.4-.2-1.4V934a3.7,3.7,0,0,1-.1-1.1v-2.3c0-1.5.1-3,.1-4.6Z" transform="translate(-453.1 -866)"/>
    <path class="addf75e7-0caa-4aa9-bb20-af6a630289b4" d="M485.9,925h.1a.2.2,0,0,1,.4-.1h.1v.8a22.9,22.9,0,0,1,.2,2.5V935s-.1.8-.2,1.4-.2.5-.3,0v-8.1a19.4,19.4,0,0,0-.2-2.4Z" transform="translate(-453.1 -866)"/>
    <path class="addf75e7-0caa-4aa9-bb20-af6a630289b4" d="M505.5,871h0c.1-.1.2-.3.5-.1h0a2.7,2.7,0,0,0,.3.8,35.7,35.7,0,0,0,1.2,4c.5,1.8,1,3.5,1.5,5.4s1.1,3.8,1.6,5.8,1.1,3.9,1.6,5.9c1.1,4,1.9,8,2.8,11.7s1.5,7.3,2.2,10.3a8.9,8.9,0,0,1,.3,2.2l.3,1.5v.9a2.8,2.8,0,0,0,.1.9c.2.9,0,.6-.3.1l-.2-.7a.9.9,0,0,1-.1-.5.3.3,0,0,1-.1-.2v-.2a1.3,1.3,0,0,1-.1-.6l-.3-1.9a15.5,15.5,0,0,0-.4-2.1c-1.2-6-2.8-13.9-4.9-21.7-1-3.9-2.1-7.8-3.2-11.5-.5-1.9-1-3.6-1.5-5.3s-.8-2.7-1.1-3.9Z" transform="translate(-453.1 -866)"/>
    <path class="addf75e7-0caa-4aa9-bb20-af6a630289b4" d="M507.1,871.7h0c.1-.2.3-.3.5-.1h0v.2a4.3,4.3,0,0,1,.1.5c0,.1.1.3.1.4l.3,1.1c.2.7.6,1.5.9,2.3s.4,1.7.7,2.5l.6,2.6.6,2.8a27.6,27.6,0,0,0,.8,2.7c.5,1.9,1,3.8,1.6,5.6l.9,2.8a22.9,22.9,0,0,1,.8,2.8,26.8,26.8,0,0,1,.7,2.7,15.7,15.7,0,0,1,.6,2.8c.8,3.5,1.3,6.9,1.9,9.8.1.7.3,1.4.4,2s.1.7.2,1a4.3,4.3,0,0,1,.1.5v.4l.2,1.4c.1.9-.1.6-.3,0s-.4-1.3-.4-1.3v-.2c0-.2-.1-.4-.1-.6s-.5-2.4-.8-3.9-1-6.1-1.8-9.6c-.4-1.8-.8-3.6-1.3-5.4s-1.2-3.6-1.7-5.4-.6-1.9-.8-2.8-.6-1.9-.8-2.8a52.9,52.9,0,0,1-1.3-5.4c-.2-.9-.5-1.7-.7-2.6a16.8,16.8,0,0,0-.7-2.4,20.9,20.9,0,0,1-.8-2.3,5.6,5.6,0,0,1-.4-1.2v-.2a1.3,1.3,0,0,1-.1-.6Z" transform="translate(-453.1 -866)"/>
    <path class="addf75e7-0caa-4aa9-bb20-af6a630289b4" d="M508.5,872.4h0c0-.2.1-.4.4-.3h.1l.3.7h0v.3a3.8,3.8,0,0,1,.3,1l.6,2.2c.5,1.6.9,3.1,1.4,4.8,1.1,3.2,2,6.8,3,10.3s1.9,7,2.7,10.3c.5,1.6.8,3.2,1.2,4.7a22.5,22.5,0,0,1,.5,2.2,16,16,0,0,1,.5,2.1,13.3,13.3,0,0,1,.5,1.9c.1.3.1.6.2.9a1.1,1.1,0,0,0,.1.5V916c-.2.9-.3.5-.3,0a2.6,2.6,0,0,0-.1-.7.9.9,0,0,0-.1-.5v-.4a4.3,4.3,0,0,1-.1-.5c-.2-1.1-.5-2.3-.8-3.6s-1.3-5.6-2.2-8.8-1.8-6.7-2.7-10.2-1.9-6.9-2.9-10.1c-.5-1.6-1-3.2-1.4-4.7a18,18,0,0,1-.6-2.2l-.3-1v-.2h-.1A2.5,2.5,0,0,0,508.5,872.4Z" transform="translate(-453.1 -866)"/>
    <path class="addf75e7-0caa-4aa9-bb20-af6a630289b4" d="M510.8,873.9h0c.1-.1.3-.2.5.1h0v.2c-.1.1,0,.3,0,.5h0v.3l.3.9.6,2c.4,1.3.9,2.8,1.3,4.3s.9,3,1.3,4.6.9,3.1,1.3,4.7l1.2,4.8.6,2.3a14.2,14.2,0,0,0,.7,2.2,44.1,44.1,0,0,1,2,8.2l.3,1.8c.1.2.1.5.2.7a.9.9,0,0,0,.1.5v.4a1.8,1.8,0,0,0,.1.5c0,.2.1.5.1.8s0,.6-.2.1l-.3-.6c-.1-.2-.1-.4-.2-.5a.3.3,0,0,0-.1-.2v-.2c0-.2-.1-.3-.1-.5s-.4-2.1-.6-3.3a50.2,50.2,0,0,0-2.1-8l-.6-2.2-.6-2.3-1.2-4.7-1.2-4.7c-.5-1.5-.9-3-1.4-4.5s-.8-2.9-1.2-4.2-.5-1.3-.7-2a4664550796216,4664550796216,0,0,1-.2-1h0c0-.2-.1-.4-.1-.6A.3.3,0,0,0,510.8,873.9Z" transform="translate(-453.1 -866)"/>
    <path class="addf75e7-0caa-4aa9-bb20-af6a630289b4" d="M512.1,875.4h0c0-.1.2-.3.5-.1h0l.2.8c1.7,6.2,4,12.2,5.7,18.4.9,3,1.6,6.2,2.3,9.3l.6,2.3.3,1.2.3,1.1.2.8a5.6,5.6,0,0,1,.2,1.3c.2.9,0,.6-.2,0s-.5-1.3-.5-1.3l-.4-1.2c-.4-1.5-.7-3-1.1-4.6a36.9,36.9,0,0,0-1.1-4.5l-.5-2.3-.7-2.3c-.8-3-1.8-6-2.8-9l-1.4-4.5-1.4-4.6Z" transform="translate(-453.1 -866)"/>
    <path class="addf75e7-0caa-4aa9-bb20-af6a630289b4" d="M514,876.9h0a.4.4,0,0,1,.5-.2h0l.3.8c1.8,5.3,3.7,10.5,5,16,.7,2.7,1.4,5.4,2,8.1s.8,2.7,1.1,4.1l.2.6a7.1,7.1,0,0,1,.2,1.4c.2.9,0,.6-.2,0s-.5-1.3-.5-1.3l-.3-1.1c-.4-1.3-.8-2.6-1.1-4s-1.2-5.3-1.9-8c-1.4-5.3-3.2-10.4-5-15.6Z" transform="translate(-453.1 -866)"/>
    <path class="addf75e7-0caa-4aa9-bb20-af6a630289b4" d="M515.7,878.4h0c0-.2.1-.4.4-.2h0l.3.8c1.4,4.4,3.2,8.6,4.4,13,.6,2.2,1.2,4.4,1.7,6.6l1,4a7,7,0,0,1,.2,1.3c.2,1,0,.6-.2.1l-.5-1.3-1-4.3-1.8-6.5c-1.2-4.3-2.9-8.4-4.3-12.7Z" transform="translate(-453.1 -866)"/>
    <path class="addf75e7-0caa-4aa9-bb20-af6a630289b4" d="M518.7,882.1h0c0-.1.2-.3.5-.1h0l.2.8c.6,2.3,1.5,4.5,2.2,6.7l.6,1.7.5,1.7c.2.6.3,1.2.5,1.8v.3a.3.3,0,0,1,.1.2,13.8,13.8,0,0,1,.1,1.4c0,1-.2.6-.3,0s-.3-1.3-.3-1.3l-.2-.7a10.5,10.5,0,0,0-.4-1.7c-.2-.5-.3-1.1-.5-1.7l-.6-1.6c-.8-2.2-1.6-4.4-2.2-6.7Z" transform="translate(-453.1 -866)"/>
    <path class="addf75e7-0caa-4aa9-bb20-af6a630289b4" d="M509.5,890.1h0c-.1.1-.2.3-.5.1h0l-.2-.8a81.2,81.2,0,0,0-2.5-9.7l-2-7.9s-.1-.8-.2-1.3.1-.6.3-.1l.4,1.3,2.1,8c.8,3.2,1.9,6.3,2.4,9.6Z" transform="translate(-453.1 -866)"/>
    <path class="addf75e7-0caa-4aa9-bb20-af6a630289b4" d="M502.5,869.2h.3c0,.1.1.2.2.3h0a1.9,1.9,0,0,0-.1.8,37.4,37.4,0,0,0,1.2,4.5c.5,1.5,1,2.9,1.4,4.5l1.8,7.5.2,1.3c.1.9-.1.6-.3,0s-.4-1.3-.4-1.3l-.8-3-1.1-4.5a31.9,31.9,0,0,0-1.3-4.4,23.9,23.9,0,0,1-1.2-4.6A3.8,3.8,0,0,1,502.5,869.2Z" transform="translate(-453.1 -866)"/>
    <path class="addf75e7-0caa-4aa9-bb20-af6a630289b4" d="M500.7,868.6h0c.1-.2.2-.3.5,0h0c-.1.2,0,.5,0,.8s.9,2.5,1.1,3.9l1,4c.3,1.3.7,2.6.9,4s.3,1.3.5,2v.6h0c0,.1.1.2.1.3s.1.6.2.9-.1.6-.3,0-.5-1.3-.5-1.3l-.2-.7c-.1-.7-.3-1.3-.4-2l-.9-3.9-1-4c-.3-1.3-.9-2.5-1.1-3.9A1.4,1.4,0,0,1,500.7,868.6Z" transform="translate(-453.1 -866)"/>
    <path class="addf75e7-0caa-4aa9-bb20-af6a630289b4" d="M498.9,868.2h.1c0-.1.2-.2.4.1h.1v.4c0,.1.1.3.1.4a13.3,13.3,0,0,0,.5,1.9l.7,1.9c.4,1.3.7,2.5,1,3.8s.7,2.6,1,3.9.3,1.3.5,2v.6a10.9,10.9,0,0,1,.1,1.3c.1.9-.1.6-.3,0s-.3-1.3-.3-1.3l-.2-.7a14.6,14.6,0,0,0-.5-2l-.9-3.8-.5-1.9a12.7,12.7,0,0,0-.6-1.8,18.2,18.2,0,0,1-1.1-3.8c0-.2-.1-.3-.1-.5Z" transform="translate(-453.1 -866)"/>
    <path class="addf75e7-0caa-4aa9-bb20-af6a630289b4" d="M497.2,867.8h0c0-.2.1-.4.4-.2h.1l.2.9c.6,2.3.9,4.7,1.6,7l1,3.4.6,2.3.3,1.3c.1,1-.1.7-.3.1s-.5-1.3-.5-1.3l-.7-2.4-.9-3.4c-.7-2.3-1-4.6-1.6-6.9Z" transform="translate(-453.1 -866)"/>
    <path class="addf75e7-0caa-4aa9-bb20-af6a630289b4" d="M495.8,867.3h0c0-.1.2-.3.5,0h0v.9a47.6,47.6,0,0,0,1.1,6.4l.7,3.2.5,2.1s.1.8.1,1.3-.1.6-.3.1l-.3-1.4-.5-2.2-.7-3.1a45,45,0,0,1-1.1-6.4Z" transform="translate(-453.1 -866)"/>
    <path class="addf75e7-0caa-4aa9-bb20-af6a630289b4" d="M494.1,867.1h0c0-.2.2-.3.4-.1h.1v.9l2.6,11.8s.1.8.1,1.3-.1.6-.3.1l-.4-1.4L494.2,868Z" transform="translate(-453.1 -866)"/>
    <path class="addf75e7-0caa-4aa9-bb20-af6a630289b4" d="M492.6,867h0c.1-.1.3-.2.5.1h0a.8.8,0,0,0,0,.7c.5,1.9.9,3.8,1.4,5.7l.3,1.4.3,1.4.3,1.4v.6a7,7,0,0,1,.2,1.3c.1,1-.1.6-.3.1l-.4-1.4v-.6l-.3-1.4-.3-1.4-.3-1.4c-.5-1.9-.9-3.7-1.4-5.6A1.7,1.7,0,0,1,492.6,867Z" transform="translate(-453.1 -866)"/>
    <path class="addf75e7-0caa-4aa9-bb20-af6a630289b4" d="M490.7,867h.5c0,.3.1.6.1.9s.7,3.4,1.1,5.1l.3,1.3.2,1.3.3,1.9v.4c0,.3.1.6.1.9s-.1.6-.3,0l-.2-.6a3.2,3.2,0,0,1-.1-.7l-.3-1.9c-.1-.5-.1-.9-.2-1.3l-.3-1.3c-.4-1.6-.8-3.3-1.1-5S490.7,867.3,490.7,867Z" transform="translate(-453.1 -866)"/>
    <path class="addf75e7-0caa-4aa9-bb20-af6a630289b4" d="M488.9,866.9h0c.1-.2.2-.4.5-.2h0l.2.8,1.2,5.4.4,1.3c.1.4.1.9.2,1.3l.3,1.4v.5a10.3,10.3,0,0,0,.1,1.4c.2.9,0,.6-.2,0s-.2-.3-.3-.6l-.2-.7v-.7a5.9,5.9,0,0,0-.2-1.3,24.4,24.4,0,0,0-.6-2.6l-1.2-5.3Z" transform="translate(-453.1 -866)"/>
    <path class="addf75e7-0caa-4aa9-bb20-af6a630289b4" d="M487.4,866.7h0c.1-.1.2-.3.5-.1h0v.8c.3,1.7.7,3.4,1.1,5.1a22.1,22.1,0,0,1,.5,2.5l.3,1.3v.5s.1.8.2,1.3,0,.7-.2.1-.2-.3-.3-.6l-.2-.7v-.7l-.2-1.2a22.1,22.1,0,0,1-.5-2.5,44.8,44.8,0,0,1-1.1-5Z" transform="translate(-453.1 -866)"/>
    <path class="addf75e7-0caa-4aa9-bb20-af6a630289b4" d="M485.7,867.1c0-.1,0-.1.1-.1s.1-.2.2-.2a.1.1,0,0,0,.1.1.1.1,0,0,1,.1.1h.1a3.1,3.1,0,0,0,.2.8l.2.6a6.4,6.4,0,0,0,.2.7l.3,1.4.7,2.7,1,4.6a7,7,0,0,1,.2,1.3c.1.9-.1.6-.3.1l-.4-1.4-1.1-4.6-.6-2.6-.3-1.4c-.1-.2-.1-.4-.2-.6l-.2-.7Z" transform="translate(-453.1 -866)"/>
    <path class="addf75e7-0caa-4aa9-bb20-af6a630289b4" d="M484.6,866.9h0c.1-.1.2-.3.5,0h0v.9a36.5,36.5,0,0,0,.8,5.5l.5,2.7.4,1.9a13.8,13.8,0,0,1,.1,1.4c.1.9-.1.6-.3,0s-.3-1.3-.3-1.3l-.4-2-.5-2.7a25.2,25.2,0,0,1-.8-5.5Z" transform="translate(-453.1 -866)"/>
    <path class="addf75e7-0caa-4aa9-bb20-af6a630289b4" d="M483.3,867.1h.1c0-.2.2-.3.4,0a.1.1,0,0,1,.1.1,1.9,1.9,0,0,0-.1.8,28.7,28.7,0,0,0,.7,5l.6,2.5.3,1.8a10.3,10.3,0,0,0,.1,1.4c0,.9-.1.6-.3,0l-.4-1.3-.3-1.9c-.1-.8-.3-1.6-.5-2.5a20.8,20.8,0,0,1-.7-5Z" transform="translate(-453.1 -866)"/>
    <path class="addf75e7-0caa-4aa9-bb20-af6a630289b4" d="M482.1,867.2h0c.1-.1.3-.2.5.1h0a.8.8,0,0,0,0,.7,7.9,7.9,0,0,0,.3,1.3l.3,1.3.3,2.6.3,2.7.2,1.3v.5l.2,1.4c.1.9-.1.6-.3,0l-.2-.6-.2-.7v-.3c0-.1,0-.1-.1-.4v-1.3l-.3-2.6a23.4,23.4,0,0,0-.4-2.6v-.6a1.3,1.3,0,0,0-.1-.6,6.1,6.1,0,0,1-.3-1.3A1.7,1.7,0,0,1,482.1,867.2Z" transform="translate(-453.1 -866)"/>
    <path class="addf75e7-0caa-4aa9-bb20-af6a630289b4" d="M480.7,867.5h0c.1-.1.3-.3.5,0h0c.1.3,0,.6.1.8.2,1.7.7,3.3,1,5l.6,4.3v1.3c0,.9-.1.6-.3,0s-.3-1.3-.3-1.3l-.5-4.3c-.3-1.6-.8-3.2-1-4.9A2.8,2.8,0,0,1,480.7,867.5Z" transform="translate(-453.1 -866)"/>
  </g>
</svg>
