<svg id="b5d8e346-9dc9-4b04-907e-fcb126f40eb0" data-name="Objects" xmlns="http://www.w3.org/2000/svg" viewBox="0 0 58.9 89.3">
  <defs>
    <style>
      .f7188aee-e467-4428-a61f-becbca9996af {
        fill: #252525;
      }
    </style>
  </defs>
  <g>
    <g>
      <path class="f7188aee-e467-4428-a61f-becbca9996af" d="M373.1,347.1h.1c.5.4,1.2,1.3-.1,2.3h-.2l-4-.3-27.6-1.9-13.9-.9h-1c-.3.1-.4.3-.5.6s-.1.1-.1.2h0V350h0a1.1,1.1,0,0,0,1.1,1.1l3.4.3,27.7,1.9,13.8.9H374c.1,0,.2,0,.2-.1a1.7,1.7,0,0,0,.6-.6h.1v-.5a3.6,3.6,0,0,0,.2-1c.1-.4.1-.7.2-1.1V350a.8.8,0,0,0-.2-.5l-.3-.4-.3-.3-.3-.2c-.4-.2-.5-.3-.4-.4a1.8,1.8,0,0,1,1.1-.1,3,3,0,0,1,1.7,1.5v.2a.6.6,0,0,0,.1.4v.6c.1.1.1.1.1.2v2.3a.8.8,0,0,1-.1.4,1.9,1.9,0,0,1-.1.8,3.4,3.4,0,0,1-.9,1.4,2.4,2.4,0,0,1-.9.6l-.4.2h-1.6l-3.1-.2-13.6-.9L329,353.8h-3.2l-.6-.2a3.7,3.7,0,0,1-1.7-1.8c-.1-.2-.1-.4-.2-.6a1.7,1.7,0,0,1-.1-.7v-2.9h0a1.7,1.7,0,0,0,.1-.7l.3-.6.3-.5a3.4,3.4,0,0,1,2.2-1.3h2l13.6.9,27.2,1.9Z" transform="translate(-323.2 -267.5)"/>
      <path class="f7188aee-e467-4428-a61f-becbca9996af" d="M378.3,270.7h.2c.5.4,1.2,1.3-.2,2.3h-.2l-3.9-.3-27.7-1.9-13.8-1h-1.1a1,1,0,0,0-.5.6.3.3,0,0,1-.1.2h0v2.6h.1a1,1,0,0,0,1,1.1l3.5.3L363,277l13.9.9h2.3a1.3,1.3,0,0,0,.8-.7V277h.1a.7.7,0,0,1,.1-.5c0-.4.1-.7.1-1.1a3,3,0,0,0,.2-1,.9.9,0,0,0,0-.7,1.4,1.4,0,0,0-.2-.6l-.3-.4-.3-.2-.3-.2c-.3-.2-.5-.3-.3-.5h1.1a3.2,3.2,0,0,1,1.6,1.5v.6a.9.9,0,0,1,.1.5v3c-.1.3-.1.6-.2.8a3.2,3.2,0,0,1-.8,1.3,2.6,2.6,0,0,1-1,.7l-.4.2h-1.5l-3.1-.2-13.6-.9-27.2-1.9h-3.2l-.6-.2a3.9,3.9,0,0,1-1.8-1.8,6.4,6.4,0,0,1-.2-.7v-.9a.3.3,0,0,1,.1-.2v-2.4h0a6.4,6.4,0,0,1,.2-.7c.1-.2.1-.4.2-.6l.4-.5a3.2,3.2,0,0,1,2.1-1.3h2l13.6.9,27.2,1.9Z" transform="translate(-323.2 -267.5)"/>
      <g>
        <path class="f7188aee-e467-4428-a61f-becbca9996af" d="M350,305.7v.2a1.2,1.2,0,0,1-1.7,1.4h-.2a3.6,3.6,0,0,0-.7-.7,10.1,10.1,0,0,0-1.8-1.5h-.3l-1-.6-2.3-1.1-.6-.3-.7-.4a6.9,6.9,0,0,1-1.3-1.1,9.7,9.7,0,0,1-1.5-2.6,15.2,15.2,0,0,1-.9-2.8,55.8,55.8,0,0,1-.8-5.7c-.1-1.9-.1-3.9-.1-5.8V283a7.6,7.6,0,0,0,.1-1.5v-2.4h3l12,.8,12.5.9,6.3.4,2.2.2h1.2v.3l-.2,1.6-.2,1.9v1.6c-.3,2.2-.7,4.3-1.1,6.5a31.9,31.9,0,0,1-2.1,6.4,11.7,11.7,0,0,1-2.1,3,4.8,4.8,0,0,1-1.6,1.2l-.5.2-.5.2-.7.2a15.8,15.8,0,0,0-5.6,2.5,7.1,7.1,0,0,0-3.1,4.5,6.5,6.5,0,0,0,1.4,5.1,15.5,15.5,0,0,0,4.7,3.6l1.4.6.7.3.5.2.5.3a8.6,8.6,0,0,1,2.4,3,17.3,17.3,0,0,1,1.1,3.2l.6,3.3c.2,2.2.3,4.3.4,6.4s0,2.2-.1,3.2v4.3h-.2l-7.3-.5-23.4-1.6-2.7-.2h-3.6c-.1,0,0-.1,0-.1v-.5c.1-.8.1-1.5.2-2.3s.1-.9.2-1.3l.3-2.7a48,48,0,0,1,2.4-10.1,13.5,13.5,0,0,1,2.8-4.5,5.1,5.1,0,0,1,2.5-1.4l2-.6a14,14,0,0,0,3.7-1.7l1.5-1.1v-.2h.1l.6-.7a2.1,2.1,0,0,0,.5-.7l.3-.4a6.7,6.7,0,0,0,.6-1.2,4.7,4.7,0,0,0,.4-1.7,5.4,5.4,0,0,0,0-1.8c-.2-1-.5-1.7-.6-2.1s-.1-.6.1-.5,1.2.9,1.8,2.2.1.3.3,1a9.4,9.4,0,0,1,.2,2.5,8.2,8.2,0,0,1-.7,2.5,5.8,5.8,0,0,1-.6,1.1l-.6.9c-.1.1-.3.2-.4.4a.2.2,0,0,0-.2.2h-.2l-.2.2-.4.4-.8.6a23.8,23.8,0,0,1-3.9,2l-2,.7-1.1.2-.7.3a7.3,7.3,0,0,0-2.3,3,22.9,22.9,0,0,0-1.5,4.2,68.4,68.4,0,0,0-1.7,9.6,5.7,5.7,0,0,0-.1,1.3h1.4l5.5.4,23,1.5,2.4.2v-1.2c.1-2,.1-4,0-6.1a40.9,40.9,0,0,0-.7-6c-.2-.9-.5-1.9-.8-2.8a5.9,5.9,0,0,0-1.4-2.3,1.5,1.5,0,0,0-.9-.6h-.7l-.7-.4a14.6,14.6,0,0,1-3-1.6,24.7,24.7,0,0,1-2.7-2.1,12.1,12.1,0,0,1-2-3,8.6,8.6,0,0,1-.8-3.6,7.7,7.7,0,0,1,.9-3.6,12,12,0,0,1,5.1-4.9l3.1-1.3,1.6-.5h1.3a6.6,6.6,0,0,0,1.8-1.9,11.1,11.1,0,0,0,1.2-2.7,24.6,24.6,0,0,0,1.6-5.9c.4-2.1.7-4.2,1-6.2v-1.4l-2.4-.2-6.3-.4-12.2-.8-11.4-.8a2.8,2.8,0,0,1-.1.9v2.8a51.5,51.5,0,0,0,.2,5.6,43.4,43.4,0,0,0,.8,5.2,15.7,15.7,0,0,0,.9,2.3,5.7,5.7,0,0,0,1.2,1.8l.8.4,1.2.6a13.4,13.4,0,0,1,2.4,1.2l.7.4h.3a13.7,13.7,0,0,1,2.1,1.8Z" transform="translate(-323.2 -267.5)"/>
        <path class="f7188aee-e467-4428-a61f-becbca9996af" d="M338.7,316.8h.1a1.7,1.7,0,0,1,1,.6,1.4,1.4,0,0,1-.2,1.5s0,.2-.1.2l-.8.4a5,5,0,0,0-1.7,1.4h-.3l-.8,1.1a23,23,0,0,0-2.3,5,63.8,63.8,0,0,0-2.2,12l-.3,3.2c0,.4-.1.8-.1,1.2h0l6.2.5,13.7.9,14.1,1,3.5.2h1.7v-3.1c.1-1.2.1-2.4.1-3.6a57.7,57.7,0,0,0-.2-7.2,31.4,31.4,0,0,0-1.5-6.9,8.6,8.6,0,0,0-4-4.9h-.3l-.5-.2-.9-.4-.9-.4-.8-.5a13.1,13.1,0,0,1-3.2-2.6,7.2,7.2,0,0,1-1.1-1.9,5.2,5.2,0,0,1-.3-2.5,5.1,5.1,0,0,1,1-2.1,5.7,5.7,0,0,1,1.5-1.6,10.9,10.9,0,0,1,3.5-1.9,3.8,3.8,0,0,1,1-.3,3.2,3.2,0,0,1,.9-.3l.9-.3.7-.2,1.4-.8,1.2-1a13.4,13.4,0,0,0,1.8-2.8,36.8,36.8,0,0,0,2.3-6.6c.5-2.3.9-4.7,1.2-7l.3-3.6.3-2.8-12.4-.8-26.5-1.8h-.3v.4c-.1,1-.2,2-.2,3s-.1,4-.1,6a37.2,37.2,0,0,0,1.6,10.9,12.2,12.2,0,0,0,2.4,4.2,9.4,9.4,0,0,0,1.8,1.2l.6.2.6.3,1.2.6,1.2.6,1.1.8a11.9,11.9,0,0,1,2,1.9,6.9,6.9,0,0,1,1.2,2.6c.1.4,0,.3,0,.3h.1a6.1,6.1,0,0,1-.2,1.5,3.4,3.4,0,0,1-.3.8v.3a.3.3,0,0,0-.1.2c-.1.1-.2.3-.4.4a5.3,5.3,0,0,1-1.3,1.3,12.7,12.7,0,0,1-4,1.7l-1.4.2h-.9c-.4,0-.5-.1-.5-.3a10.8,10.8,0,0,1,2.4-1.3c-.2,0,1.3-.6,2.5-1.5a5.4,5.4,0,0,0,1.3-1.4l.3-.5a.3.3,0,0,1,.1-.2v-.2c.1-.1.1-.2.1-.4a.4.4,0,0,0,.1-.3v-.2h0v-.2a.6.6,0,0,0-.1-.4l-.3-.7a8.6,8.6,0,0,0-3-2.6l-2-1.1-.5-.2-.6-.2-1.2-.7a10.8,10.8,0,0,1-3.6-4.4,22.1,22.1,0,0,1-1.6-5.4,62.3,62.3,0,0,1-.8-11.5l.3-6a7.6,7.6,0,0,1,.1-1.5v-1h.6l2.5.2,3,.2,26.2,1.8,6.8.5,4.5.3h.4c.1,0,0,.1,0,.2v2.5c0,.6-.1,1.2-.1,1.8a70.3,70.3,0,0,1-2.4,14.2,23.6,23.6,0,0,1-3.1,6.9,13.5,13.5,0,0,1-3,2.8l-1.9.8-.5.2h-.4l-.9.2a27.1,27.1,0,0,0-3,1.3l-1.3.9a4.4,4.4,0,0,0-.9,1.1,1.9,1.9,0,0,0-.4,1.2,5,5,0,0,0,.2,1.2,7.5,7.5,0,0,0,2.1,2.3,11.5,11.5,0,0,0,2.9,1.6l1.7.8a6.6,6.6,0,0,1,1.7,1.2,9.6,9.6,0,0,1,2.5,3.2,23.5,23.5,0,0,1,1.4,3.7,45.5,45.5,0,0,1,1.1,7.4,59,59,0,0,1,.1,7.3c0,1.2-.1,2.4-.1,3.6l-.2,2.1a10.9,10.9,0,0,1-.1,1.8h-1.8l-7.4-.6-13.9-.9-13.4-.9-3.3-.2L331,346h-2.5c-.1,0,0-.1-.1-.2v-.4a21.1,21.1,0,0,1,.2-2.5,8.1,8.1,0,0,1,.1-1.6l.3-3.2a61,61,0,0,1,2.5-12.3,22.6,22.6,0,0,1,2.8-5.6l.5-.6h.3a8.1,8.1,0,0,1,2.3-1.8Z" transform="translate(-323.2 -267.5)"/>
      </g>
      <path class="f7188aee-e467-4428-a61f-becbca9996af" d="M356,308.2a.1.1,0,0,0-.1.1,2,2,0,0,1-1.1.1c-.4,0-.8-.3-.9-1.2V307a11.8,11.8,0,0,1,3-3.3,18.7,18.7,0,0,1,4-2l2-.7c.3-.1.6-.1.8-.3l.3-.2.4-.2a7.4,7.4,0,0,0,2.1-2.8,3.6,3.6,0,0,0,.4-.9c.1-.1.1-.3.2-.4v-.3h0l-15.9-1.1-8.2-.6h-2.2v.3a2.8,2.8,0,0,0,.1.9,12.1,12.1,0,0,0,.5,1.8,6.1,6.1,0,0,0,2.1,2.6l.3.2h.4l1,.5,1,.4,1,.6.8.6a1,1,0,0,1,.5.4l1,.8.4.5,1,1.3.5.9.3.4v.2h.1c0,.1.1.3.1.4a3.6,3.6,0,0,0,.4.9l.3.6a.6.6,0,0,0,.7.3l.6-.3c.3-.3.4-.4.5-.2v.4a.4.4,0,0,0-.1.3l-.3.4a1.5,1.5,0,0,1-.9.6,1.9,1.9,0,0,1-1.4-.4c.1,0,0-.1-.2-.2l-.5-.7a3.3,3.3,0,0,1-.6-1h-.2v-.2c-.1-.1-.2-.3-.4-.4l-1.5-1.6-.5-.5-.2-.2-.8-.7-.4-.3-.4-.3-.8-.4-.4-.2-.5-.2-.8-.4a9.4,9.4,0,0,1-2.2-1.2,9,9,0,0,1-1.5-1.9,9.5,9.5,0,0,1-.9-2.1,14.2,14.2,0,0,1-.5-2.2.7.7,0,0,0-.1-.5v-2.7h0c0-.1,0,0,.1,0h3.2l2,.2,8.1.5,8.2.6,4,.3h5.7c.1,0,.2,0,.2.1l-.2,1c-.1.3-.1.6-.2.9l-.3,1a16.7,16.7,0,0,1-.8,2,11,11,0,0,1-2.9,3.6,7.6,7.6,0,0,1-2.2,1.1l-1.8.6-1.8.7-.8.5-.8.5A9.2,9.2,0,0,0,356,308.2Z" transform="translate(-323.2 -267.5)"/>
      <path class="f7188aee-e467-4428-a61f-becbca9996af" d="M340,327.7h.2a1.1,1.1,0,0,1,1,.5,1.6,1.6,0,0,1-.1,1.5.3.3,0,0,1-.1.2h-.4l-.4.3-.7.4-.7.6-.6.6-.2.3-.2.2-.3.6a2.1,2.1,0,0,0-.4.6l-.3.5a11.2,11.2,0,0,0-.8,2.6l-.3,1.4v.9h1.2l11.9.8,11.9.9,5.4.4c0-.1,0,.4.1-1a25.3,25.3,0,0,0-.1-2.8,6,6,0,0,0-2.3-4.3,23.5,23.5,0,0,0-4.9-2.9l-1.4-.8-1.3-1a4.6,4.6,0,0,1-1.2-1.2l-.5-.6-.5-.7a2.5,2.5,0,0,1-.4-.7l-.4-.7a9.4,9.4,0,0,1-.6-1.5,17.7,17.7,0,0,1-.8-3.1,17.1,17.1,0,0,1-.3-3.1v-2h0l2.4.3h0v.2l-.2.8a16.6,16.6,0,0,1-2.4,5.8l-.2.4-.2.2v.2l-.2.2a1,1,0,0,1-.4.5l-.8,1-.4.4-.5.4-.6.5a17.1,17.1,0,0,1-4,2.2l-1.3.4-.9.2c-.4,0-.5-.1-.5-.2a8.6,8.6,0,0,1,2.2-1.6l1-.8,1-.8a5.2,5.2,0,0,0,1.1-1l.5-.6.5-.5.4-.5.6-.8.3-.4h.1l.2-.2v-.3l.4-.6.3-.6a6.7,6.7,0,0,0,.6-1.2,5,5,0,0,0,.5-1.3l.3-1.3c.1-.2.1-.4.2-.6v-.4h0l2.4.3h0v.2a20.5,20.5,0,0,0,.5,5.5,11.2,11.2,0,0,0,2.2,4.8,8.1,8.1,0,0,0,.9,1l.4.4.6.4,1.1.6.6.4.7.3a22,22,0,0,1,2.6,1.5,6,6,0,0,1,1.3.9l.6.5c.2.2.5.3.6.5a8.1,8.1,0,0,1,1.9,2.9,9.2,9.2,0,0,1,.7,3.2c0,1.1,0,2.1-.1,3.1v2.6a.1.1,0,0,1-.1.1h-2.6l-5.8-.4-11.7-.9-11.7-.9h-3.2v-1.4a2.2,2.2,0,0,1,0-.8v-.4a1.7,1.7,0,0,1,.1-.7,7.8,7.8,0,0,1,.2-1.6,13.8,13.8,0,0,1,2.8-5.7l.8-.9.9-.7.9-.6.5-.3Z" transform="translate(-323.2 -267.5)"/>
      <path class="f7188aee-e467-4428-a61f-becbca9996af" d="M351.6,313.3h.1a9.2,9.2,0,0,1,2.2.4h.1v1.2l-2.4-.3v-.5l.6-.5a1.2,1.2,0,0,1,1.4.1l.4.6v.7l-2.4-.3Z" transform="translate(-323.2 -267.5)"/>
    </g>
    <path class="f7188aee-e467-4428-a61f-becbca9996af" d="M335.2,334.8h0a1.1,1.1,0,0,1,1.2-.2h0l.2.7a1.9,1.9,0,0,0,.2.7l.3.8.6,1.4.4.7s.2.7.3,1.3-.3.7-.6.2a10.5,10.5,0,0,1-.8-1.1l-.4-.6-.7-1.5-.3-.8c-.1-.3-.1-.6-.2-.8Z" transform="translate(-323.2 -267.5)"/>
    <path class="f7188aee-e467-4428-a61f-becbca9996af" d="M336.4,333.6h0c.1-.3.3-.9,1-.5s.1,0,.1.1l.5,1.1.3.6h0l.6,1.3.6,1.4.3.5h0v-.8c-.3-1.9-.8-3.9-1.2-5.9v-.2h0l1.2-.2h0v1.1a7.4,7.4,0,0,0,.4,1.4,21.8,21.8,0,0,0,1.1,2.7h0a3.6,3.6,0,0,0,.4.9l.4.8h0v-.3a.9.9,0,0,0-.1-.5c-.4-2.3-1.4-4.6-2.1-7.1l-.3-.9V329l1.1-.4h.1v.2l.2.5c.3.5.5,1.1.8,1.7l1.5,3.5c.5,1.1,1,2.2,1.6,3.3h.1v-.2a3.6,3.6,0,0,0-.2-1,11.8,11.8,0,0,0-.7-2c-.5-1.4-1.1-2.7-1.6-4.1a18.7,18.7,0,0,1-.7-2.2l-.2-.6h0l1.2-.4h0v.2l.4,1.1c.6,1.3,1.1,2.7,1.7,4l.4,1a9.3,9.3,0,0,0,.5,1l1.1,1.9a4.1,4.1,0,0,0,.5.9l.5.5h0l-.2-.5a15.2,15.2,0,0,0-.6-2,34.7,34.7,0,0,0-1.6-4.1h0a37.5,37.5,0,0,1-1.7-4.7v-.2h0l1.1-.3h0v.3l.3.6.5,1.1.9,2.3c.7,1.5,1.4,2.9,2.2,4.4l1.2,2.1.5.8h0a20,20,0,0,0-.4-2.4c-.4-1.5-1-3-1.6-4.6l-1.9-4.5-.3-.6v-.3h-.1l1.1-.4h.1l.4,1.1.8,2.4h0c.6,1.6,1.2,3.3,1.9,4.9s.7,1.5,1.2,2.3a6,6,0,0,0,.6,1.1l.3.5.2.3h.1c.1.1.1.4-.2-1.9a5.9,5.9,0,0,0-.2-1.3,5.3,5.3,0,0,0-.3-1.2,18.2,18.2,0,0,0-.7-2.5l-.4-1.3-.5-1.2-.9-2.4a6.1,6.1,0,0,1-.5-1.2l-.3-.6v-.2h0l1.1-.4h0v.3l.7,2.5c.5,1.7,1.1,3.4,1.7,5a23.4,23.4,0,0,0,.9,2.4l.6,1.2a3.9,3.9,0,0,0,.6,1.1h0l.6,1.2.4.6.2.2c.1.1,0,.1,0,.1h.1v-.7a5.5,5.5,0,0,0-.4-2.5,13.4,13.4,0,0,0-.9-2.6,27.2,27.2,0,0,0-1.1-2.5c-.4-.9-.7-1.8-1-2.6s-.7-1.8-1.1-2.6l-.5-1.3-.2-.6v-.2h-.1l1.2-.3h0v.3c.4,3.6,1.9,7.1,3.3,10.4.9,1.7,1.6,3.4,2.5,5l.7,1.1.3.4h-.1a18.8,18.8,0,0,0-1.7-5.7,54.5,54.5,0,0,0-2.5-5.5l-1.2-2.8-1.4-2.7-.3-.7v-.2h0l1.1-.4h0v.3l.4,1.5,1,2.8c.8,1.9,1.6,3.7,2.5,5.6s1.6,3.7,2.5,5.5a17.4,17.4,0,0,0,1.4,2.7l.5.7h0v-.7a2,2,0,0,1-.1-.7,2.2,2.2,0,0,1-.1-.8,15.2,15.2,0,0,0-.9-2.8h0a18.7,18.7,0,0,0-1.5-3.2,11.3,11.3,0,0,0-1-1.3h0c-.2.2,1.9-1,1-.5h.1v.3c0,.1.1.2.1.4l.3.8a26.6,26.6,0,0,0,2.9,6.4,17.1,17.1,0,0,0,1.1,1.4l.6.6v.2h0a11.1,11.1,0,0,0-.2-1.7,17.5,17.5,0,0,0-1.2-3.2,32.4,32.4,0,0,0-1.7-3.2l-.2-.4h-.2l1.1-.5h0l.3.8a11.5,11.5,0,0,0,.6,1.7c.2.5.5,1,.7,1.6l.9,1.6a23.8,23.8,0,0,0,1.8,3l.4.4h0v-.4c-.1-.2-.1-.5-.2-.8l-.6-1.6c-.5-1.1-1-2.1-1.6-3.2h-.1l1-.6v.2l.3.4a3.6,3.6,0,0,0,.4.9l.3.5h0l.5.9a.8.8,0,0,0,.1.3,2.7,2.7,0,0,0,.3.8l.4.8.4.9.2.3.2.3c0,.1.1.2.2.3s.1.3,0,.3l-.5-.2-.6-.6-.4-.5a3.6,3.6,0,0,1-.8-1.2l-.5-.7-.2-.4-.2-.5-.2-.3h0l-.6-1.2-.4-.6h0l1-.7h.1v.2l.2.3a22.2,22.2,0,0,1,2.3,5.2c0,.3.1.5.1.7v3.1h0l-.2-.2-.8-.9-.4-.4-.2-.3-.2-.2-.9-1.3a35.3,35.3,0,0,1-2.8-5l-.6-1.3a6.9,6.9,0,0,0-.5-1.3l-.2-.7V331h-.1l1.1-.5h.1l.2.3a7.5,7.5,0,0,0,.7,1.2,30.4,30.4,0,0,1,2.3,5.2l.3,1.4a2.2,2.2,0,0,1,.1.8v1c0,.5-.1.9-.1,1.3v.4H364l-.5-.4-1.1-.8c-.2-.2-.3-.4-.5-.5a21.3,21.3,0,0,1-3.1-4.9,25.8,25.8,0,0,1-1.9-5.3h-.1l1.1-.6h.1l.3.3.4.6.8,1.3,1.2,2.6h0c.3,1,.6,2,.8,3s.1.5.2.8v.8a2.2,2.2,0,0,1,.1.8v1.3l-.4,1.3h-.1v-.2l-.2-.2-.5-.6-.5-.5-.2-.3h-.1l-.5-.7c-.5-.9-1-1.8-1.4-2.7s-1.6-3.8-2.5-5.6-1.7-3.7-2.5-5.6a26.4,26.4,0,0,1-1-3l-.5-1.4v-.4h0c-1,.3,1.4-.6,1.1-.5h.1v.2l.3.7c.5.9.9,1.9,1.3,2.8s.9,1.9,1.3,2.8,1.8,3.6,2.6,5.5a29.6,29.6,0,0,1,1.7,6h0c0,.1,0,.1.1.2v3.2h-.1l-1-.9a19.7,19.7,0,0,1-2.2-2.9c-.9-1.7-1.6-3.4-2.5-5.1s-1.5-3.4-2.1-5.2a25.4,25.4,0,0,1-1.3-5.6v-.3h0l1.1-.3h.1v.2l.2.6.6,1.3a56255591463571.2,56255591463571.2,0,0,0,2,5.2,20.3,20.3,0,0,1,1.1,2.6,16.9,16.9,0,0,1,1,2.7,7,7,0,0,1,.4,2.9,2.5,2.5,0,0,1-.1.8h0v.3l-.3.6-.3.6v.3h-.2a11.5,11.5,0,0,1-.8-1l-.6-.8c-.1-.2-.3-.3-.4-.6l-.7-1.2h0l-.6-1.2-.6-1.2c-.3-.8-.7-1.6-1-2.5s-1.1-3.3-1.6-5a25,25,0,0,1-.7-2.6v-.3h0c2.2-.8.6-.2,1.1-.3h0v.2l.3.6a6.1,6.1,0,0,0,.5,1.2c.3.8.7,1.6,1,2.5l.4,1.2.4,1.3c.3.8.5,1.7.8,2.6l.3,1.3a5.9,5.9,0,0,1,.2,1.3l.2,1.3v4H354l-.2-.3-.9-.9-.7-.9-.2-.2v-.2h0l-.2-.3a2.1,2.1,0,0,1-.4-.6l-.7-1.1-1.2-2.5c-.7-1.6-1.3-3.3-1.9-4.9h0l-.8-2.3-.5-1.2h0l1.1-.4h.1v.5l.3.5c.6,1.5,1.3,3,1.9,4.6a26.4,26.4,0,0,1,1.7,4.7,23.4,23.4,0,0,1,.4,2.6v3.7h-.2l-.3-.5-1.3-1.8-.2-.3c-.1,0-.1-.1-.1-.2l-.2-.2-.3-.6a23.9,23.9,0,0,1-1.3-2.1c-.8-1.5-1.5-3-2.2-4.5a16,16,0,0,0-1-2.3l-.4-1.2-.3-.6v-.3h0l1.1-.4h.1v.2c.5,1.5,1.1,3,1.7,4.5h0c.6,1.4,1.2,2.8,1.7,4.2l.6,2.1v.6a4.3,4.3,0,0,1,.2,1.1l.3,2.1v.8h0l-.8-.8-1.4-1.6-.3-.4-.2-.3-.3-.4-.7-1-1.1-2-.5-1-.4-1c-.6-1.3-1.2-2.7-1.7-4.1l-.4-1V328h-.1c-1,.4,1.4-.4,1.2-.3h0v.5c.2.7.5,1.4.7,2s1.1,2.7,1.6,4.1a14.2,14.2,0,0,1,.7,2.2l.3,1.1h0v1.2a.9.9,0,0,1,.1.5h0v2.4h-.1v-.2l-.3-.3-.9-1.3-.5-.7-.2-.4-.2-.3a22.6,22.6,0,0,1-1.7-3.5l-1.5-3.4-.8-1.7-.2-.4v-.2h0l1.1-.4h0c.1.3.1.6.2.9.7,2.3,1.7,4.7,2.2,7.2,0,.2.1.3.1.5V342h-.1l-.4-.6-.4-.6-.2-.3-.2-.3-.8-1.6-.5-.9-.4-.8h0l-1.2-2.9a8.3,8.3,0,0,0-.4-1.5v-1.2h0l1.2-.2h0v.2c.4,1.9.9,3.9,1.2,6v.8a1,1,0,0,1,.1.3v1c0,.9-.1,1.8-.1,2.7v.2h0l-.2-.3-.3-.6-.7-1.2-.7-1.1c0-.1-.1-.2-.1-.4h-.1l-.2-.4-.6-1.4-.6-1.3h0l-.3-.6Z" transform="translate(-323.2 -267.5)"/>
    <path class="f7188aee-e467-4428-a61f-becbca9996af" d="M340.1,294.2V294a.5.5,0,0,1,.7-.2c.1.1.2.2.2.3l.2.2h.1v.3c0,.2.1.3.2.5s.1.3.2.5v.2h0c.1.3.6,1.1.7,1.3h0V297l-.2-.8-.5-1.7h0c.6-.1-1.1.3,1.2-.2h0v.6l.3.8a2.4,2.4,0,0,0,.2.8l.3.7h0a9.4,9.4,0,0,0,1.2,2.2l.3.4h.1v-.3a4.3,4.3,0,0,0-.2-1.1c-.2-.8-.5-1.6-.7-2.4s-.1-.4-.2-.6a.4.4,0,0,0-.1-.3V295h0l1.1-.3h0l.3,1.2c.2.8.5,1.6.7,2.4a14.7,14.7,0,0,0,1,2.2.4.4,0,0,0,.1.3h.1l-.3-1.4a23.3,23.3,0,0,0-1.1-2.8l-.5-1.4-.3-.7V294h-.1l1.2-.3h0v.2l.9,2.9a53.1,53.1,0,0,0,2,5.6l.4.7h0a1.8,1.8,0,0,0-.1-.5,2,2,0,0,0-.1-.7h0a16.5,16.5,0,0,0-1.1-3.6l-.7-1.8-.5-.9v-.2h-.1l1.2-.4v.5a39,39,0,0,0,2.4,7.3c.5,1.3.8,2.5,1.3,3.7a2,2,0,0,0,.4.8h0v-.5a10.6,10.6,0,0,0-.4-1.9c-.3-1.2-.7-2.4-1.1-3.7h0l-2.1-4.9v-.3h-.1c-.2.1,2.2-.8,1.2-.5h0l.2.6c.1.5.3.9.4,1.3l.8,2.6a49.1,49.1,0,0,0,1.7,5,6.1,6.1,0,0,1,.5,1.2l.3.5h0v-.4c0-.2-.1-.4-.1-.6s-.1-.8-.1-1.2l-.6-2.3a42.2,42.2,0,0,0-1.8-4.5l-1-2.3v-.2h0l1.1-.4h.1l.2.6.3,1.2a36.4,36.4,0,0,0,1.4,4.7h0a20,20,0,0,0,1,2.1l.2.5h0V303a9.7,9.7,0,0,0-.3-2.3,26.4,26.4,0,0,0-1.5-4.5l-.2-.5v-.3h0l1.1-.4h0v.2a4.5,4.5,0,0,0,.3,1.1,20.2,20.2,0,0,0,.7,2.3,9.5,9.5,0,0,0,.9,2.1,3.7,3.7,0,0,0,.5,1.1l.3.5h0v-.2a18.5,18.5,0,0,0-.1-2.3,33.1,33.1,0,0,0-1.2-4.5h0l1.1-.3v1.1l.3,1.1a20.2,20.2,0,0,0,.7,2.3h0a11.9,11.9,0,0,0,.8,1.6l.2.3h0v-.7a2.8,2.8,0,0,1-.1-.9,2.9,2.9,0,0,1-.2-.9c-.2-.6-.3-1.2-.5-1.9l-.3-.9v-.2h0c-.2.1,2.2-.7,1.2-.3h0v.2l.2.4a26.7,26.7,0,0,0,1.4,3.6,5.9,5.9,0,0,1,.4.8h.1v-.2c-.1-.3-.1-.6-.2-.9l-.6-1.8a5.9,5.9,0,0,1-.4-.8l-.2-.4h0l1-.5h.1v.4a13.4,13.4,0,0,0,.7,1.8l.3.8h.1v-.3a7.8,7.8,0,0,0-.5-1.4l-.3-.7h-.2l1.1-.5h.1v.3c.1.5.3,1,.4,1.5l.4.6v.2h-.1V298a7.8,7.8,0,0,0-.5-1.4l-.2-.3h-.1l1.1-.5h0v.2l.3.7a7.5,7.5,0,0,0,.6,1.3l.4.6h.1v-.3c0-.2-.1-.4-.1-.7a8.8,8.8,0,0,1-.5-1.5,2.4,2.4,0,0,1-.2-.8h0c2.2-.8.6-.2,1.1-.3h.1v.2l.2.3.4.7.2.3.3.4h.2v-.2h0v-.4c-.1-2.1.3-1.4.7,0h0a2,2,0,0,1,.1.5v.9a2.9,2.9,0,0,1-.2.9v.4c0,.1,0,0-.1,0h-.1l-.3-.3-.3-.2-.7-.7-.4-.6a.8.8,0,0,1-.2-.4l-.2-.3-.5-.7-.2-.3v-.2h0l1.1-.4h0c0,.2.1.4.1.7a8.8,8.8,0,0,1,.5,1.5,2.9,2.9,0,0,1,.2.9,5.4,5.4,0,0,1,0,1.3l-.3,1.2v.3h-.3l-.5-.6-.5-.5-.5-.6a4.3,4.3,0,0,1-.4-.7l-.8-1.5a1.9,1.9,0,0,1-.2-.8v-.2h0l1.1-.5h0l.2.4a5.2,5.2,0,0,1,.6,1.6.9.9,0,0,1,.1.5v.6c-.1.2,0,.4-.1.7v.6a1.9,1.9,0,0,1-.2.7v.3h0l-.2-.2-.5-.4-.4-.5-.5-.6-.2-.3c0-.1-.1-.1-.1-.2l-.4-.8c-.2-.5-.3-1-.5-1.6v-.4h0l1.1-.5h.1c.1.3.3.5.4.8a9.8,9.8,0,0,1,.5,1.6v.5a1.7,1.7,0,0,1,.1.7v1.3h0l-.2.8v.6h-.1l-1.1-1.2-.2-.3-.2-.4a3.5,3.5,0,0,1-.5-.8,4.2,4.2,0,0,1-.4-1,13.4,13.4,0,0,1-.7-1.8v-.2h-.1c.5-.2-1.1.6,1.1-.5h0l.2.4.5.9a15.2,15.2,0,0,1,.6,2l.3,1v1.5a9.9,9.9,0,0,1-.2,1.7h-.2l-.3-.3-.6-.7-.6-.6-.3-.4h-.1a4.1,4.1,0,0,1-.5-.9c-.6-1.2-1-2.5-1.5-3.7v-.6h0l1.2-.4h0v.3l.3.9a13.3,13.3,0,0,1,.5,1.9,3.6,3.6,0,0,1,.2,1c.1.3.1.7.2,1v1.2l-.3,1.7v.3h-.1l-.3-.3-.7-.5-.6-.7a1.3,1.3,0,0,1-.3-.5,16.2,16.2,0,0,1-1-1.8h0a21.7,21.7,0,0,1-.7-2.4l-.3-1.2V295l1.2-.3h0a18.8,18.8,0,0,1,1.2,4.8,10.1,10.1,0,0,1,.2,2.5v1.5l-.2.5-.2.5v.2a.3.3,0,0,1-.1-.2l-.7-.8-.7-.8-.3-.6-.6-1.1a22.9,22.9,0,0,1-1-2.3,21.7,21.7,0,0,1-.7-2.4l-.3-1.2h-.1l1.2-.4h0v.3l.3.6a36.8,36.8,0,0,1,1.5,4.7,10.1,10.1,0,0,1,.3,2.5,5.6,5.6,0,0,1,0,1.3,1.1,1.1,0,0,1-.1.5v.6l-.3,1v.5h-.2v-.2l-.7-.9-.6-.9-.3-.6c-.4-.8-.7-1.6-1-2.3h0a44.2,44.2,0,0,1-1.5-4.8l-.3-1.2-.2-.6h0l1.1-.4h0v.3l1,2.2a38,38,0,0,1,1.8,4.7,21.7,21.7,0,0,1,.7,2.4c0,.4.1.9.1,1.3s.1.4.1.7v.7a1.1,1.1,0,0,1-.1.6v.6c-.1.4-.3.7-.4,1.1v.3h-.1l-.3-.5-.6-1-.6-1-.3-.6c-.1-.5-.4-.9-.5-1.3a50.8,50.8,0,0,1-1.7-5.1l-.8-2.5a9.3,9.3,0,0,1-.4-1.3l-.2-.6h-.1l1.1-.4h0v.5c.7,1.6,1.5,3.2,2.1,4.9h0a27.8,27.8,0,0,1,1.2,3.8,14.2,14.2,0,0,1,.4,2c0,.2.1.3.1.5v.4a.9.9,0,0,0,.1.5v2.9h-.1l-.2-.4-.6-.6-.5-.6-.2-.3-.2-.4-.5-.8a3,3,0,0,1-.4-1c-.5-1.2-.9-2.5-1.4-3.7a54.9,54.9,0,0,1-2.4-7.5V295l1.1-.3h.1v.2l.5.9.7,1.8a25.2,25.2,0,0,1,1.2,3.9h0a1.9,1.9,0,0,1,.1.8,2.2,2.2,0,0,1,.1,1v.7c0,.2-.1.4-.1.6l-.3,1.1v.3h0v-.2l-.4-.4-.6-1a10.5,10.5,0,0,1-.7-1.1l-.3-.7a40.7,40.7,0,0,1-2.2-5.8l-.9-2.8v-.2h-.1c-1,.4,1.4-.4,1.2-.3h0v.4l.3.6.5,1.4c.4,1,.8,1.9,1.1,2.9a7.5,7.5,0,0,1,.4,1.6v2.4h0l-.2.6h-.1l-.2-.2-.7-.7a7.1,7.1,0,0,1-.7-.9l-.2-.4c-.1-.1-.2-.2-.2-.3a12.2,12.2,0,0,1-1-2.4,23.3,23.3,0,0,1-.7-2.5l-.3-1.2h0c.5-.1-1.2.2,1.1-.3h.1v.2c0,.1,0,.2.1.2s.1.4.1.6a18.3,18.3,0,0,1,.8,2.5,5.1,5.1,0,0,1,.2,1.3v1a3.6,3.6,0,0,1-.2,1l-.2.5v.2H346l-.7-.7-.2-.2-.2-.2c-.2-.2-.3-.4-.4-.4a2.1,2.1,0,0,0-.4-.6l-1.2-2.3h0l-.3-.8-.3-.8a2.9,2.9,0,0,1-.2-.9l-.2-.4v-.2h-.1l1.2-.3h0c.1.6.3,1.1.4,1.6l.2.9.2.5c0,.3.1.6.1.8s.1.6.1.8v1.5h0a.1.1,0,0,1-.1.1h-.1l-.2-.2-.5-.3-.2-.2c-.1-.1-.1-.2-.2-.2a7.1,7.1,0,0,1-1-1.4l-.2-.3-.2-.2-.2-.4-.2-.5-.2-.3h0v-.2l-.3-.6c0-.2-.1-.3-.2-.6A1.6,1.6,0,0,1,340.1,294.2Z" transform="translate(-323.2 -267.5)"/>
    <path class="f7188aee-e467-4428-a61f-becbca9996af" d="M326.7,348.6h0c.3.2.6.6,0,1.1h-.3c-.5.9.5-1.3.4-1.1h.2l.5.4.4.3h.2l.6.3a4.4,4.4,0,0,0,1.6.6h.5l-.4-.3a4.4,4.4,0,0,0-1.6-.6l-.8-.2h-.3a4.1,4.1,0,0,0,1.5.7h1a4.2,4.2,0,0,0-1.6-.4,5.5,5.5,0,0,0-1.8-.1h-1c.2-2.3.1-.6.2-1.2h.8a60.4,60.4,0,0,0,7.4,1.4h0l2.3.3h1.2a5.3,5.3,0,0,0-1.2-.3l-1.1-.3-1.2-.2-4.8-.7h-.3c.1-2.4,0-.7.1-1.2h2.1l2.5.2h2.4l2.4.3,9.6,1.6,1.9.2h1.7c-.2.5.3-1.1-.4,1.1h-.2a10,10,0,0,0-3.6-.8l-3.8-.2-3.9-.2h-7.2c-.3-2.4,0-.7-.1-1.2h.6a35.1,35.1,0,0,1,7.9-.6h0c4.5,0,8.8.6,13.2,1a18.4,18.4,0,0,0,3.3.3l1.6.2h1.4c-.1.5.2-1.1-.3,1.2h-.2a22.4,22.4,0,0,0-6.3-1h0l-4.8-.2-4.8.2a52.3,52.3,0,0,1-9.7.1l-1.2-.2h-.7l-1-.3-1.8-.7h-.4c0-.1-.1-.1,0-.1l.5-.2.4-.2.5-.2a2.4,2.4,0,0,1,.9-.3l.6-.2H334a10.4,10.4,0,0,1,2.5,0l4.8.5,2.4.2h2.4c3.2.2,6.5.3,9.8.8h1.8c.2-1.1-.2,1.4-.2,1.2h-.6l-2.4-.4-4.8-.4c-3.2-.2-6.5-.2-9.8-.2h-6.3c0,.3-.4-2.2-.2-1.1h3.5l5,.2,4.9.3c3.2.3,6.5.5,9.7,1l9.7,1.2h8.1c-.2,2.4-.1.6-.1,1.2h-.4l-1.2-.2a74.2,74.2,0,0,0-8.2-.2c-2.7.2-5.5.2-8.2.3s-5.6.3-8.3.6l-2,.2h-1.6c.1-.5-.3,1.1.2-1.2h.3l1.9.2a6.7,6.7,0,0,0,2,0h0l3.5-.2h14c0-.3-.1,2.3,0,1.2h-.1l-1.7-.2h-1.8q-3.5-.2-6.9,0h-7.1l-3.6-.2-1.7-.2h-1.4v-1.1h.4a48.2,48.2,0,0,1,14.2.1h0l10.3,1.4,1.3.2h.9c0-.3-.5,2.2-.3,1.1h-.4l-2.5-.6-2.5-.5L362,352l-.7-.2h-.5l.2-1.2h.2a43.7,43.7,0,0,1,10.3,2l.6.2h.3c-.1.6.1-1.1-.1,1.2h-4.4l-2.6-.2h-.5c0,1,.1-1.5.1-1.2h.8l1.3.2a23.2,23.2,0,0,0,3.7.1h.5l-.7-.4-1.8-.5a8.9,8.9,0,0,1-1.9-.7h-.2c.1-.5-.3,1.1.2-1.1h1.8l1.9.2h.6l-.3-.2h0c-.3,1,.4-1.3.3-1.1h2l-.7.6h-.1V349h0l.6-.6h1a1.7,1.7,0,0,1,1.1.8,1.1,1.1,0,0,1,.2.6,1.3,1.3,0,0,1,.1.6,6.4,6.4,0,0,1-.2.7c0,.1-.1.2-.2.3l-.2.2a3,3,0,0,1-1.9,1l-2,.4h-1.3c-.2-2.3-.1-.6-.1-1.2h.6l2.1.2h1l-.4-.8h-.1l1.1-.4h.1v.3a.6.6,0,0,1,.1.4l.3,1a3.6,3.6,0,0,1,.4.9h.1l-1.2.2h0v-.2a.6.6,0,0,0-.1-.4,4.1,4.1,0,0,0-.5-1.8h-.1c-.8.7,1-.9.8-.8h.1l.3.2c.1.1.2.2.2.3a.1.1,0,0,1,.1.1l.2.2a4.1,4.1,0,0,0,.5.9l.2.5v.2h-1a3.3,3.3,0,0,1-1,0h-1.2l-2-.7-2-.5-4-.8-2.1-.4h-1l.2-1.2h.1l1,.2h0c3,.4,6.1.7,9.2.9H373c.1-1.1-.3,1.4-.2,1.2h-.9l-.6-.2h-.6l-1.1-.2-4.6-.4h-2.3l-1.2-.2h-.6v-1.2h.6a37.7,37.7,0,0,1,4.7-.2l4.7.3h.7c0-.3-.1,2.3-.1,1.2H370l-2.4-.3h0a32.5,32.5,0,0,0-5.4,0h-.1c0,.3.1-2.2.1-1.2h2.6l2.8.2h0l1.9.2h1.1c0-.2-.2,2.3-.1,1.2h-.9l-2-.2h-5.8l-3.9.2c-3.4.3-6.7.9-10.2.9h0l-2.4-.2h-.1c0,.3-.1-2.2-.1-1.2h1.2l1.2-.2,2.4-.2h7l-2.1-.2h-8.3c.1.2-.1-2.3,0-1.2h2.9c2.1,0,4.1.1,6.2.3h2.2c-.1.5.1-1.2-.2,1.2h-.9l-3-.3-5-.3h-.9l-3.3-.4-3.3-.4h-1.4c-.2,1.1.1-1.4.1-1.2h1.5c0-.3.1,2.2.1,1.1h-8.9c.1-.5-.4,1.1.3-1.2h.1l.4.2h1.5c.1,2.3,0,.6.1,1.1h-1.6c-1.5-.1-3.1.1-4.7.1H327v.4a3.5,3.5,0,0,0,.5.8,3.8,3.8,0,0,0,1.6,1.2h.1a.7.7,0,0,0-.1-.5h0a3.5,3.5,0,0,0-.8-1.6l-.6-.5a.5.5,0,0,0-.5,0c-.3,0-.6.5-.7,1a2.1,2.1,0,0,0,.2,1.4h.3c.1,0,.3-.2.4-.4a3.3,3.3,0,0,0,.5-1.6,1.2,1.2,0,0,0-.2-.7c0-.2-.1-.2-.3-.2h-.3l-.3.7h0v.9a1.1,1.1,0,0,0,.2.6h.5a.7.7,0,0,0,.6-.1,2,2,0,0,0,.9-1.3,1.3,1.3,0,0,0-.1-.6h-.4c-.3-.1-.8.2-1.1.7a2.2,2.2,0,0,0-.6,1.5v.2h.1l.7.3h1.8l.6-.2.3-.3c0-.2,0-.2-.1-.3l-.6-.2a2.6,2.6,0,0,0-1.5,0h-.6c0,.1,0,.1.1.1h.1l.2.2.3.2.4.2,1.6.4a14.5,14.5,0,0,0,3.6.2,34.7,34.7,0,0,0,6.4-.6l.9-.2h-1.4a21.7,21.7,0,0,0-5.7-.1h-1.8c-.1,1,0-1.5,0-1.2h.9l2.9.3h0l4.4.4,4.3.6h.8l-2.1-.2-4.3-.7-4.3-.7h-.3c.1-.5-.1,1.2.1-1.2h4.2l4.3.3h0l5,.5,5,.6h2.3c-.4,2.4-.1.7-.2,1.2h-.3l-2.4-.4-5-.6c-1.7-.1-3.3-.4-5-.6h-.2c-.1.2.1-2.3.1-1.2h4.8l5,.6,2.5.3,2.5.5H359c-.1.5.1-1.2-.1,1.2H348.6c.5-2.2.1-.6.3-1.1h.2l.9.3.8.2h.9a15.6,15.6,0,0,0,3.1.2h1.6l1.5.2,3.1.3,3,.4h.8c0-.2-.3,2.3-.1,1.2h-2.4l-3-.3-3.1-.2h-6c0-.6-.1,1.1.1-1.2h.6l1.5.3,2.9.3,6,.4,3.5.2,1.5.2h.2c-.1.5.2-1.2-.1,1.2h-1.3l-2.9-.3c-2-.3-4-.4-6-.6l-5.9-.4H345c-.1.2.5-2.2.3-1.2h.2l.3.2a21.9,21.9,0,0,0,5.7.9h3l3,.2,6,.5h1c.1-.3-.1,2.2-.1,1.2h-1.9l-3-.2-3-.3-3-.3-1.5-.3h-1.2c.3-2.3.1-.6.2-1.2h.2l3,.2c1,0,2,.2,3,.3l2.9.3,3,.4,3,.3h1.1c.1-.3-.4,2.2-.2,1.1h-.4l-.8-.2h-1.9l-1.1-.2c-2.1-.4-1.2-.6.1-.7h3.3l.9.2h.3c-.1.5.2-1.2-.3,1.2h-2l-5.4-.6c-1.8-.2-3.6-.5-5.4-.6l-2.7-.2h-.7c.1-.5-.2,1.2.1-1.2h.6l1.4.2a96.3,96.3,0,0,0,10.8,1.1h.7c.1-1.1-.1,1.4-.1,1.2h-1.9l-2.8-.2-5.4-.4-5.5-.3-2.8-.6-.6-.2-.4-.2h-.2c.1-.5-.3,1.1.2-1.1h1.4c3.7,0,7.3.3,11,.6l5.4.5,2.7.4h1c.1-1.1-.1,1.4-.1,1.2h-1.7l-3.4-.2-6.1-.4-3-.4-1.5-.2H350c.2-2.4.1-.7.1-1.2h6.2l3.1.3,3,.2h2.3c.2-1.1-.1,1.5-.1,1.2h-.7l-3.1-.4-3-.3-1.6-.2h-1.5a16.7,16.7,0,0,1-3.1-.2h-1l-1-.2-1-.4h-.3c.1-.5-.3,1.1.2-1.1h10.4c-.2,2.4-.1.6-.1,1.2h-.9l-1-.2-2.4-.4-2.5-.3c-1.6-.3-3.3-.4-4.9-.6h-4.7c-.1,1,.1-1.5,0-1.2h.3l4.9.6,5,.6,2.5.4h.3c-.1.6.2-1.1-.2,1.2H353l-5-.6-5-.5h0l-4.3-.3h-4.1c.2-2.4.1-.7.1-1.2h.2l4.3.7,4.3.7,2.2.2h1.4l.5.2.7.3.5.3.7.4h-.4l-.6.3h-.8l-.9.2h-2.2c-1.5-.1-3-.4-4.4-.6l-4.3-.4h0L333,350h-1v-1.2h1.9a24.1,24.1,0,0,1,6,.1h1.8l.8.3.6.3,1.3.5.3.2h.1l-.7.3-1.4.3-.8.2h-.7l-.8.2a49.1,49.1,0,0,1-6.6.6h0a24.2,24.2,0,0,1-3.8-.2,6.1,6.1,0,0,1-1.8-.5,3,3,0,0,1-1.8-1.4.6.6,0,0,1-.1-.4l-.2-.4h0a.1.1,0,0,1,.1-.1h.1l.4-.3a.5.5,0,0,1,.4-.2h.7a5,5,0,0,1,2.1,0,2.7,2.7,0,0,1,1.1.5,1.7,1.7,0,0,1,.5,1.4c0,.1-.1.2-.1.3s-.1.3-.2.3l-.5.5-1.1.4h0a4.5,4.5,0,0,1-2.3-.1,2.2,2.2,0,0,1-1.1-.5l-.3-.3a.8.8,0,0,1-.2-.4c-.1-.1-.1-.2-.1-.4v-.3a3.7,3.7,0,0,1,.2-1.2l.6-1.1.9-.8a2,2,0,0,1,1.5-.3l.3.2.4.2.2.2.3.3a2.4,2.4,0,0,1,.2,1.4,3.4,3.4,0,0,1-1.4,2.1,2.2,2.2,0,0,1-1.4.3h-.3l-.4-.2h-.3l-.3-.3a2.4,2.4,0,0,1-.5-1.3v-1.2h0a6.1,6.1,0,0,1,.5-1.2l.3-.2.3-.3h.8l.8.2.5.6a3.5,3.5,0,0,1,.3,1.3,4.3,4.3,0,0,1-.6,2.2,2,2,0,0,1-1.1.9,1,1,0,0,1-.9,0l-.6-.4a1.7,1.7,0,0,1-.6-1.2,2.4,2.4,0,0,1,0-1.2,3.1,3.1,0,0,1,.5-1.2,2.4,2.4,0,0,1,1.1-.8,2.2,2.2,0,0,1,1.4.2,3.5,3.5,0,0,1,.9.7,5.3,5.3,0,0,1,1.1,2.1h0a1.3,1.3,0,0,1,.1.6c0,.1.1.3,0,.5a1.3,1.3,0,0,1-.1.6v.2c-.1.1,0,.2-.2.2h-1.4a5,5,0,0,1-2.2-1.6,3.4,3.4,0,0,1-.6-1.2c0-.1-.1-.2-.1-.4v-.6a.4.4,0,0,1,.1-.3v-.5h2.7c1.6,0,3.1-.2,4.7-.1h1.7c.1.5,0-1.2.1,1.1H333l-.6-.3h-.1c.7-2.3.2-.6.4-1.1h8.6c0-1,.1,1.5.1,1.2h-1.6c0,.3.3-2.2.2-1.2h1.4l3.2.5,3.3.3h.9l5,.4,3,.2h1c-.3,2.4-.1.6-.2,1.2h-2.1a60.8,60.8,0,0,0-6.1-.3h-2.9c0,1-.1-1.5-.1-1.2h8.5l2.2.3h.8l.9.2,1.8.5h0l2.1.5h-.6l-1.1.2-2,.4-1.2.2H350l-2.4.2-1.1.2h-1c0,1-.1-1.4-.1-1.2h0l2.3.2h0c3.3,0,6.7-.6,10-.9l4-.2h6l2,.2h.9a10.9,10.9,0,0,1-.1,1.2h-1l-2-.2-2.8-.2H362v-1.2h.1a36.2,36.2,0,0,1,5.7,0l2.3.3h1.5c.1-1.1,0,1.5,0,1.2h-.8l-4.6-.3a35.4,35.4,0,0,0-4.6.2h-.5c0,.3.1-2.2,0-1.2h.6l1.1.2h2.3l4.7.4,1.1.2h2.2c0-.3-.4,2.2-.2,1.2h-1.4c-3.1-.2-6.2-.5-9.3-1h-1.1c.5-2.4.2-.7.3-1.2h1l2,.4,4.1.8,2.1.6,1.9.6h.6l.9-.8h.1a4.7,4.7,0,0,1,.6,2.1,1.7,1.7,0,0,1,.1.7c0,.1-.1.2-.1.3h0l-1.1.2h0a4.7,4.7,0,0,1-.5-1l-.3-1a1.3,1.3,0,0,1-.1-.6v-.3h0l1.1-.4h0a3.1,3.1,0,0,1,.5,1,.7.7,0,0,1,.1.5c0,.1.1.3.1.4v.5c0,.1-.1.2-.2.4s-.2.4-.3.6h-.2l-.3.2c-.2,0-.4,0-.5-.2h-.2c0,.1.3-1.4.2-.8h0a.2.2,0,0,0,.2-.2h.3v.3l.3.6h.1c.1-.2.1-.3.2-.4H373v-.4h-1.5c-.1.1-.3,0-.5,0h-1.7c0-.5.1,1.2-.1-1.1h.5l1.1-.2h0l1.8-.3a4.6,4.6,0,0,0,1.4-.7h.1c.1-.1,0-.2.1-.3v-.3c-.1,0-.1-.1-.1-.2l-.4-.3H373c.3-1.2.1-.3.1-.6h.4a.4.4,0,0,1,.1.3v.2h0c-.3.3.7-.5-.6.6h-2c0,.2.7-2.1.4-1.1h0l.6.3.7.5.7.5,1.2,1.1h-4.2l-1.9-.2h-1.6c.5-2.2.2-.6.3-1.1h.1l1.7.5,1.9.6,1,.5c.2.1.4.4.6.6l.5.6.2.4h-.3l-.8.2-.4.2h-.9a25.4,25.4,0,0,1-3.9-.1h0l-1.3-.2h-.8c0,.2.2-2.3.1-1.2h.5l2.6.2h4.2c-.2,2.4-.1.7-.1,1.2h-.3l-.6-.2a43.9,43.9,0,0,0-10.1-1.9H361c.1-.5-.2,1.2.2-1.1h1.1a2.7,2.7,0,0,0,1.2.3l2.6.6a11.4,11.4,0,0,1,2.5.6h.5c.2-1.1-.3,1.4-.3,1.2H368l-1.3-.2-10.3-1.4a46.3,46.3,0,0,0-13.9-.1h-.4v-1.1h1.3l1.7.2,3.5.2h7c2.4-.1,4.7-.1,7.1,0h1.8l1.8.2h0c.1-1.1,0,1.5,0,1.2h-14l-3.5.2h0a8.1,8.1,0,0,1-2.2,0,5.8,5.8,0,0,1-2.2-.3h-.5c.4-2.3.1-.6.2-1.1h1.6l2.1-.2c2.8-.3,5.5-.5,8.3-.6l8.3-.3a78.5,78.5,0,0,1,8.4.2h0l1.2.2h.4c0,.5.1-1.2,0,1.2h-8.3l-9.7-1.2c-3.2-.5-6.5-.7-9.7-1l-4.9-.3-4.9-.2h-3.2c.2,1.1-.2-1.4-.1-1.2H340c3.2,0,6.5,0,9.8.2l4.9.5,2.4.3h.6c.1-.3-.3,2.2-.2,1.2h-.6l-1.2-.2c-3.2-.4-6.4-.5-9.7-.7h-2.4l-2.4-.3-4.8-.4a8.9,8.9,0,0,0-2.3,0h-.6l1.2.2a50.3,50.3,0,0,0,9.5-.1l4.8-.2,4.8.2h0a25.4,25.4,0,0,1,6.7,1.1h.3c-.5,2.3-.2.6-.3,1.1h-1.4l-1.6-.2a18.4,18.4,0,0,1-3.3-.3c-4.4-.4-8.8-1-13.1-1a39.4,39.4,0,0,0-7.7.5h-.6c0-.5.2,1.2-.1-1.1h7.2l3.9.2,4,.2a12.1,12.1,0,0,1,4,.9h.2c-.7,2.2-.2.6-.3,1.1H350l-2-.2-9.6-1.6-2.4-.3h-2.3l-2.4-.2h-2.1c0-.6-.1,1.2.1-1.2h.3l4.8.7,1.2.2,1.2.3,1.2.3.6.2.4.2.5.2,1.9.9,1.9,1.1h-6.9l-2.4-.3a65.8,65.8,0,0,1-7.5-1.4h-.9c.1-.5-.1,1.2.1-1.2h1.1a6.1,6.1,0,0,1,1.9.1,4.7,4.7,0,0,1,2,.6h.4l.4.3.6.6.3.3-.3.2-.7.5-.8.3h-1.7a4.4,4.4,0,0,1-1.9-1l-.3-.2-.3-.4a1.6,1.6,0,0,1-.4-.7l-.2-.4v-.2h.1l.9-.2h1.4l1,.2a6.4,6.4,0,0,1,1.9.8l.5.3h.3l.2.2.3.3.2.4.3.3v.2h.1a.1.1,0,0,0-.1.1l-.8.3h-2l-2-.7-.6-.4h-.3l-.5-.4c-.1-.1-.3-.2-.4-.4l-.3-.2h0l.4-1h.3Z" transform="translate(-323.2 -267.5)"/>
    <path class="f7188aee-e467-4428-a61f-becbca9996af" d="M372.2,353.4c.1,0,.1,0,.1.1s.7.5.1,1.1h-2.1a65.2,65.2,0,0,1-7.7-.3l-7.7-.7-3.8-.3h-1l-1-.2-1.9-.3-3.7-.7h-1.3l-1-.2h-2c-2.2,0-1.4-.4,0-.7h3.9l1,.2,3.7.7a63.6,63.6,0,0,0,7.5.8l7.5.7a62.7,62.7,0,0,0,7.5.3Z" transform="translate(-323.2 -267.5)"/>
    <path class="f7188aee-e467-4428-a61f-becbca9996af" d="M361.8,350.7h.1l.3.5c0,.2-.1.4-.5.6h-.1a7.2,7.2,0,0,1-2-.9l-.3-.3-.3-.2-.5-.5-.3-.3H358c0-.1-.1-.1,0-.1l.7-.3.8-.3h2.3c0-.8.1,1.2.1,1h-.3l-.4-.2-.4-.2h-.4c0-.2.1-.4.1-.6h.2l1.1.3c.2,0,.2.1.2.2h-1.7a1.9,1.9,0,0,1,.2-.8h.8l.5.2h.4c.1.4,0-1,.1.9h-.1a1.6,1.6,0,0,1-.9.3h-.4l-.6.2h0A5.1,5.1,0,0,0,361.8,350.7Z" transform="translate(-323.2 -267.5)"/>
    <path class="f7188aee-e467-4428-a61f-becbca9996af" d="M331,271.2h.1a.9.9,0,0,1,.7,0c.1.1.1.4.3.7h0a2.2,2.2,0,0,0-.1.9v.2h0a1.2,1.2,0,0,0-.1-1c0-.1-.1-.1-.1-.2h-.2v.5a2.2,2.2,0,0,0,.2,1.1,1.1,1.1,0,0,0,.6.7h.9c.1-.1.1-.2.2-.2a.8.8,0,0,0-.1-.4,2.1,2.1,0,0,0-1.8-1.1h-.1c.1-.4-.3,1,.3-.9h.1c.1,0,.1.1.2.2l.6.3.6.3.6.3a13.1,13.1,0,0,0,2.7.6h0l2,.2h1.6l-.5-.2-.9-.3a9.7,9.7,0,0,0-3.7-.7l-.7.2h-.1c0,.1,0,.1-.1.2h0c0,.1,0,.2.2.4l.7.4a6.1,6.1,0,0,0,3.5.6c.3-.1.6-.1.7-.3s.1-.1.1-.2-.2-.4-.4-.6l-.7-.6a4.6,4.6,0,0,0-1.6-.7,1.6,1.6,0,0,0-1.4,0l-.2.2c0,.1-.1.2-.1.3a.8.8,0,0,0,.2.4,2.8,2.8,0,0,0,1.5.8,3.5,3.5,0,0,0,1.7.2l.4-.2c.1,0,0-.2-.1-.5s-.2-.3-.5-.4a2,2,0,0,0-.8-.4,4.8,4.8,0,0,0-1.7-.5c-.6,0-1.3,0-1.6.3s-.3.2-.3.4a.6.6,0,0,0,0,.6c.1.3.7.6,1.2.8l1.8.2a4.4,4.4,0,0,0,1.5-.5c.2-.2.3-.3.3-.5v-.2h0l-.2-.3a7.8,7.8,0,0,0-1.5-1,6.4,6.4,0,0,0-1.8-.6,3,3,0,0,0-1.6-.1c-.2.1-.3.2-.3.4a.4.4,0,0,0,0,.5,2.8,2.8,0,0,0,1.3,1l1.8.5a5.4,5.4,0,0,0,1.8,0h.3v-.2h0v-.2a2,2,0,0,0-1.1-.9,2.2,2.2,0,0,0-1.6,0h-.3c0,.1-.1.1-.1.2a.6.6,0,0,0,.2.4c.2.2.4.5.6.6l.4.3v.2h.2l1.8.5a5.8,5.8,0,0,0,1.9.3,2.3,2.3,0,0,0,1.5-.2l.2-.2h0a1.7,1.7,0,0,0-.1-.7,3,3,0,0,0-1.3-.9l-.4-.2h0c0,.1.1.1.1.2l.7.5a7,7,0,0,0,1.7.9l1.9.6h2.3c.2-.2.3-.4.2-.5s-.4-.7-.9-.9a3.4,3.4,0,0,0-1.7-.5,1.4,1.4,0,0,0-.9,0h-.5l.6.6,1.6,1a5.8,5.8,0,0,0,1.8.4,1.4,1.4,0,0,0,.9,0h.6l-.5-.7a4.5,4.5,0,0,0-1.4-1,3.2,3.2,0,0,0-.9-.3h-.4a9.8,9.8,0,0,0,3.3,1.9,3.6,3.6,0,0,0,1.7.3h.7l.3-.2.2-.3a.8.8,0,0,0,0-.7,2.4,2.4,0,0,0-.8-.6l-.6-.3h-.5v.2l.3.6.9.9a5.5,5.5,0,0,0,2.1,1.2h1l.4-.2c.1-.1.3-.3.3-.4s.1-.1.1-.2h0c.1,0,0-.1,0-.1s0-.1-.1-.2a1.9,1.9,0,0,0-.9-.5h0l.5.4,1.1.8,1.1.6.5.2h.4a.3.3,0,0,0,.1-.2.4.4,0,0,0,.1-.3,1,1,0,0,0-.5-.7l-1-.7-.6-.3h-.3l.8-.7h0a5.5,5.5,0,0,0,1.5,1.9l1,.6,1.1.3h0a2.7,2.7,0,0,0-.6-1,3.6,3.6,0,0,0-1.8-1.4h0l.3.4a5.5,5.5,0,0,0,1.7,1.4,3.8,3.8,0,0,0,1.9.6h.4a.1.1,0,0,0,.1-.1h.2a1.9,1.9,0,0,0,.2-.7,2.3,2.3,0,0,0-1-1.5h-.7v.2l.2.2.3.5.7.9a5.5,5.5,0,0,0,1.7,1.4c.3.1.5.2.7.1a.2.2,0,0,0,.2-.2c.1,0,.1,0,.1-.1h.1a2.5,2.5,0,0,0-.1-.8,4.1,4.1,0,0,0-.5-.9,5.2,5.2,0,0,0-1.4-1.6l-.3-.2h0l.8-.4h0v.6a.8.8,0,0,0,.2.4,4,4,0,0,0,1.4,1.5,6.1,6.1,0,0,0,1.8.9h.6V275a3.1,3.1,0,0,0-1-1.6l-.4-.3a.5.5,0,0,0-.4-.2l-.4-.2H365l.7-.7h.1v.2a4.5,4.5,0,0,0,1,1.4,7.9,7.9,0,0,0,1.5,1.2.5.5,0,0,0,.4.2h.3V275a2.9,2.9,0,0,0-.2-.9c-.2-.5-.5-1-.8-1.1h-.2l.6-.8h0l.2.4.5.7a8.1,8.1,0,0,0,1.4,1.2l.8.5.4.2h0a1.1,1.1,0,0,0-.3-.7,2.8,2.8,0,0,0-1.4-1.2l-.4-.2h0l.7-.7h.1v.2a3.6,3.6,0,0,0,.4.9,9.3,9.3,0,0,0,1.3,1.5l.8.7.4.3h.2l-.2-.5a4.8,4.8,0,0,0-.8-1.8l-.3-.4v-.2H372l1-.3h0a3.1,3.1,0,0,0,.2.8,5.3,5.3,0,0,0,1.2,1.5l.8.6.4.3h.2v-.5a4.2,4.2,0,0,0-.9-1.6l-.3-.3h-.1l.9-.7h.1v.2a2.5,2.5,0,0,0,.4.9l.6.9.7.8h0c0-.2-.1-.3-.1-.5a3.5,3.5,0,0,0-.5-.8l-.3-.3a.3.3,0,0,0-.1-.2h-.1l.9-.6h0a4.2,4.2,0,0,0,.4,1,4.1,4.1,0,0,0,.5.9h.1c0,.2-.1-.4-.2-.7l-.4-1h-.1l1.1-.5h0v.3l.3.5a4.7,4.7,0,0,1,.5,1l.3.6v.4h.1l-1.2.4h0l-.3-1-.3-1.2c0-.2-.1-.4-.1-.6v-.5l.9-.5h.1a2.1,2.1,0,0,1,1,1.1,5.6,5.6,0,0,1,.4,1.2h0v.9l-1.1.2h-.1v-.3c0-.2-.1-.5-.1-.7h0v-1.1h0l1.1-.3h.1a4.3,4.3,0,0,1,.1.5.9.9,0,0,1,.1.5,4.8,4.8,0,0,1-.5,2.3,2.9,2.9,0,0,1-.6,1c-.1.1-.2.2-.2.1s.1-.7.2-1.3.2-.9.1-1.7v-.6h0c-.1-.1-.1-.2-.2-.2h0c2.2-.5.6-.2,1.1-.3h0v.6h.1v.2c.1.2.1.4.2.6v.3h0c.3,0-2.2.3-1.1.2h-.1v-.7h0a2,2,0,0,0-.8-1.5h0c-.8.4,1-.6.8-.5h0v.2a.9.9,0,0,0,.1.5,3.6,3.6,0,0,0,.2,1l.4,1.1h0l-1.2.4h-.1v-.3l-.2-.5-.4-.9-.3-.5v-.2h-.1l1.1-.5h0v.2l.4,1c.1.4.2.6.4,1.5v2.1h-.1l-.4-.2-.7-.5H378l-.2-.2-.4-.4a2.3,2.3,0,0,1-.5-.7,2.7,2.7,0,0,1-.6-1,5.6,5.6,0,0,1-.4-1.2h-.1l1-.6h.1l.3.2.4.5.6,1.1c.1.2.1.4.2.6v.9a.7.7,0,0,1-.1.5c0,.1-.1.3-.1.4l-.2.4c-.1.1-.2.4-.3.2l-1.4-1.2-.7-.9-.7-.9-.5-1.1v-.3h-.1l.9-.7h.1a1.2,1.2,0,0,1,.5.5,4.3,4.3,0,0,1,1.1,2.1l.2.7v.4a.9.9,0,0,1-.1.5v.8h-.1l-1-.3-.5-.2c-.1-.1-.2-.1-.2-.2l-.5-.3-1-.7a7.2,7.2,0,0,1-1.4-2,2.1,2.1,0,0,1-.2-1.4h0l1-.3h.2l.2.3.3.5a6.8,6.8,0,0,1,1,2.1,1.3,1.3,0,0,1,.1.6v1.5c0,.1.1.4-.2.3l-.9-.2-.5-.2h-.4l-.5-.3-.9-.8a6.5,6.5,0,0,1-1.5-1.8,3.7,3.7,0,0,1-.5-1.1l-.2-.3h0l.7-.7h0l.7.2a4.6,4.6,0,0,1,1.8,1.6,2.1,2.1,0,0,1,.5,1.3v.5c0,.2-.1.3-.2.5l-.2.5h-.4l-.9-.2-.4-.3a3.1,3.1,0,0,1-1-.5,10,10,0,0,1-1.6-1.4l-.6-.9-.3-.5v-.2h0c.2-.4-.7.8.6-.8h.4a1.9,1.9,0,0,1,1.1.8,2.4,2.4,0,0,1,.5,1,2.6,2.6,0,0,1,.3,1.1v.7c0,.3-.1.6-.1.9v.5h-.5l-.9-.3-.3-.2h-.2l-.5-.3-1.6-1.3a7.5,7.5,0,0,1-1.3-1.8c0-.2-.1-.3-.1-.4v-.2h0l.8-.7h.1l.6.3.6.3.5.4a4.3,4.3,0,0,1,1.4,2.3c0,.1.1.2.1.4v1.1h-2.2l-2.2-1.1a6.6,6.6,0,0,1-1.8-1.9,1.4,1.4,0,0,1-.2-.6l-.2-.4v-.9h0c1.7-.9.5-.3.8-.5h0l.7.4a5.5,5.5,0,0,1,1.6,1.8,3.4,3.4,0,0,1,.6,1.2,1.9,1.9,0,0,1,.1,1.5,1.5,1.5,0,0,1-1.1,1.2,2.1,2.1,0,0,1-1.6-.1A9.2,9.2,0,0,1,361,275a3.9,3.9,0,0,1-.8-1l-.4-.5v-.3h-.1c0-.1-.1-.1-.1-.2a1.4,1.4,0,0,1-.2-.6v-.4h.1l.5-.3.5-.2h.9l.4.2h.4a3.2,3.2,0,0,1,1,1,2.7,2.7,0,0,1,.5,1.4,1.8,1.8,0,0,1-.4,1.6l-.3.3-.3.3h-.8a4.7,4.7,0,0,1-2.7-.7,10.6,10.6,0,0,1-2-1.7,1.6,1.6,0,0,1-.4-.7V273l-.2-.3v-.6c-.1-.2,0-.4-.1-.6s.2-.1.3-.2h1.5a5.7,5.7,0,0,1,2.4,1.9,3.7,3.7,0,0,1,.7,1.4c0,.1.1.2.1.3v1h-1.2a4.3,4.3,0,0,1-2.8-1.2,5.2,5.2,0,0,1-1.1-1,6.4,6.4,0,0,1-.8-1.4v-.2h0l.8-.7h.4l.6.3a6,6,0,0,1,1.3.9,2.3,2.3,0,0,1,.9,1.5v.5l-.2.5-.3.4a.7.7,0,0,1-.6.3,1.4,1.4,0,0,1-.9,0l-.8-.2-1.3-.7-1.1-.9-.6-.4-.9-.9-.6-.8c-.5-.4.3-.4.5-.5h2.2a3.1,3.1,0,0,1,1.4.9l.3.4a.9.9,0,0,1,.1.5v.6c-.1.2-.2.3-.2.4l-.6.7-.9.4a2.9,2.9,0,0,1-1.6,0,7.4,7.4,0,0,1-2.6-1.5l-1-1.1a2.5,2.5,0,0,1-.4-.7.5.5,0,0,1-.2-.4c-.1-.1-.1-.4-.2-.6v-.9h0a.1.1,0,0,1,.1-.1h2.1l.7.3a4.5,4.5,0,0,1,1.3,1.1l.2.4a.9.9,0,0,1,.1.5.7.7,0,0,1-.1.5c0,.2-.1.3-.1.5l-.4.5-.6.4a2.7,2.7,0,0,1-1.2.3,4,4,0,0,1-2.2-.4,9.1,9.1,0,0,1-3.7-2.1l-.6-.5-.6-.7c0-.1-.2-.2-.1-.2h.2l.4-.3c.3-.1.5-.3.8-.3h1.4l1.1.4a5.5,5.5,0,0,1,1.8,1.3,3.6,3.6,0,0,1,.7,1v.4a.9.9,0,0,0,.1.5v.5h-.5l-.4.2h-.9a2,2,0,0,1-1.1,0l-2.2-.5a10,10,0,0,1-1.9-1.2l-.7-.8-.3-.4-.2-.4h0v-.2c.1-.1.3-.2.4-.4s.2-.2.4-.2l.3-.2h.6a2,2,0,0,1,1.1,0,5.5,5.5,0,0,1,2.2.6l.9.7a1.8,1.8,0,0,1,.6,1.3,1.4,1.4,0,0,1-.5,1.3c-.2.2-.4.4-.6.4l-.6.2a4.4,4.4,0,0,1-2.3-.1,6.6,6.6,0,0,1-2-.6l-1.9-1-.9-.7-.2-.2h-.1a.3.3,0,0,1-.1-.2,1.8,1.8,0,0,1-.4-.9v-.8h1.8l.5.2a4.3,4.3,0,0,1,1.9,1.4,1.9,1.9,0,0,1,.3,1.3v.4l-.2.3a1,1,0,0,1-.5.6,3.1,3.1,0,0,1-1.2.5h-1.1a7.6,7.6,0,0,1-2.1-.3,8,8,0,0,1-2-.7h-.4l-.2-.2-.4-.3-.8-.9a1.6,1.6,0,0,1-.3-1.4,1.2,1.2,0,0,1,.4-.8l.6-.3a3.3,3.3,0,0,1,2.4,0,2.9,2.9,0,0,1,1.9,1.5.4.4,0,0,1,.1.3v1.6h-.1l-.4.2h-.7a8.1,8.1,0,0,1-2.2,0,16.6,16.6,0,0,1-2.1-.6,5.3,5.3,0,0,1-1-.6,3.8,3.8,0,0,1-.9-.9,2.6,2.6,0,0,1-.1-1.5,2.7,2.7,0,0,1,1-1.1,3.2,3.2,0,0,1,1.3-.2l1.1.2,2,.7a5.9,5.9,0,0,1,1.8,1.3,1.3,1.3,0,0,1,.4.6.5.5,0,0,1,.2.4v.4a2,2,0,0,1-.6,1.2,4.4,4.4,0,0,1-2.3.9,8.3,8.3,0,0,1-2.2-.3l-1.1-.4a2.1,2.1,0,0,1-1-2.4,1.5,1.5,0,0,1,.8-1.1,3.1,3.1,0,0,1,1.2-.5h1.2l2.1.5,1,.6a1.9,1.9,0,0,1,.9.9,1.4,1.4,0,0,1,.2.7v.4a.6.6,0,0,1-.1.4,1.2,1.2,0,0,1-.6.6c-.2.2-.4.2-.7.3a5.3,5.3,0,0,1-2.2-.2,4.1,4.1,0,0,1-2.1-1.2,1.9,1.9,0,0,1-.5-1.3,6.4,6.4,0,0,1,.2-.7c.2-.3.3-.5.5-.6a2.4,2.4,0,0,1,1.3-.4h1.2a7.2,7.2,0,0,1,2,.9l.9.8a3,3,0,0,1,.7,1.1,1.1,1.1,0,0,1-.1.8c0,.3-.3.5-.5.7a3.4,3.4,0,0,1-1.1.5,8.9,8.9,0,0,1-2.3,0,8.6,8.6,0,0,1-2.1-.7,4.6,4.6,0,0,1-1-.7,1.6,1.6,0,0,1-.5-1.4c0-.1.1-.2.1-.3a.5.5,0,0,1,.2-.4v-.2a.5.5,0,0,1,.4-.3,1.9,1.9,0,0,1,1.2-.4,7.8,7.8,0,0,1,2.2.2l2,.5,1,.4.5.2.3.2.4.2.2.2h.1l.3.4.3.6-.6.4-.9.2h-2.3l-2-.2h0a10.9,10.9,0,0,1-3-.7l-.7-.3-.7-.3-.7-.5-.3-.3H331l.3-1h.3a3.1,3.1,0,0,1,1.7.5,3.3,3.3,0,0,1,1.3,1.3,2,2,0,0,1,.1,1.1,1,1,0,0,1-.6.9l-.2.2h-1.7a1.9,1.9,0,0,1-.9-.5,3.5,3.5,0,0,1-.5-.8,4.7,4.7,0,0,1-.3-1.7v-.9l.3-.6c.1-.1.2-.2.2-.3h.2a2.3,2.3,0,0,1,1.2.6l.2.2.2.2c.1.1.1.3.2.4a3.1,3.1,0,0,1,.2,1.9.4.4,0,0,0-.1.3l-.2.3c-.1.1-.2.1-.2.2l-.3.2c-.3.2-.8.6-1,.1l-.2-.3a.3.3,0,0,1-.1-.2h-.1a.4.4,0,0,0-.1-.3v-.2h-.1c0-.2,0-.3-.1-.4A3.5,3.5,0,0,1,331,271.2Z" transform="translate(-323.2 -267.5)"/>
    <path class="f7188aee-e467-4428-a61f-becbca9996af" d="M379.1,276.9h.1l.5.2a.9.9,0,0,1,.1.8.1.1,0,0,0-.1.1l-1.8.7h-.3a12.7,12.7,0,0,1-2.8.2h-5.3c-3.6-.3-7.1-.9-10.6-1.1l-10.6-1.1-5.3-.7a30.8,30.8,0,0,0-5.3-.3h-4.6v-1.2h.8l5.3-.2c3.6-.1,7.1-.2,10.7-.1h0l6.5.4,3.2.4,1.6.3h1.5c2.1.2,4.2.1,6.4.2a20.9,20.9,0,0,1,6.5,1.3h.5c-.1.5.3-1.1-.2,1.1H370l-5.9-.6h-1.7l-2.5-.4c-2.1-.3-1.3-.6.1-.7h2.4a2.3,2.3,0,0,1,.9,0h1.8l6.2.6,3,.2h1.6c-.6,2.3-.2.7-.3,1.2h-.3l-.3-.2-.7-.2a23.5,23.5,0,0,0-6-.9c-2-.1-4.1,0-6.2-.2l-1.5-.2-1.6-.2-1.5-.2-1.5-.2-6.1-.4h0c-3.6-.1-7.1,0-10.6.1l-5.4.2h-.7v-1.2h4.5a32.6,32.6,0,0,1,5.4.3l5.3.7,10.6,1.1c3.6.2,7.1.9,10.6,1.1h8A3.4,3.4,0,0,0,379.1,276.9Z" transform="translate(-323.2 -267.5)"/>
    <path class="f7188aee-e467-4428-a61f-becbca9996af" d="M378.4,276.4c.1,0,.1,0,.1.1a.6.6,0,0,1,.1,1.1h-2.1l-3.8.2h-5.2a51.2,51.2,0,0,1-10.3-.9c-1.7-.3-3.4-.8-5-1l-2.5-.2h-1.8c0,.3-.3-2.2-.2-1.2h.6a87,87,0,0,0,10.2-.4h0l3.8-.3h0l-1.8-.5a22.1,22.1,0,0,0-3.7-.4,64.2,64.2,0,0,0-7.6,0H338.4a10.5,10.5,0,0,1-.1-1.1h.7l3.9-.4,7.7-.4,3.8-.4h.9v1.2h-6.6l-3.8.4h0l-3,.3H335c-.1-.5,0,1.2-.1-1.2h.5a7,7,0,0,1,1.4-.3,43.5,43.5,0,0,1,11.9-.6h0l7,.5h1.8c-.1.5.1-1.2-.2,1.2h-1.6l-1.7-.3h-1.8a53,53,0,0,0-6.9-.1l-3.5.3h-2.5c0,.2-.1-2.3,0-1.2h.9l6,.4,5.9.6,5.9.7,5.9.8h1.5l2.6.6c2.1.6,1.2.7-.1.7l-2.7-.2h-.6l-2.6-.4-5.4-.7-2.8-.3-2.7-.3-2.7-.3-2.8-.2-5.4-.4h-1v-1.2h2.5l3.5-.3a55.8,55.8,0,0,1,7.1.1l1.8.2,1.8.2.8.2h.9c-.4,2.4-.1.7-.2,1.2h-1.8l-7-.5h0a44,44,0,0,0-11.5.5l-1.4.4h-.5c-.1-2.4,0-.7-.1-1.2h6.7l2.9-.3,3.9-.4h6.8c0,.5.1-1.2,0,1.2h-.9l-3.9.4-7.6.4-3.8.4h-.7c0,1.1-.2-1.4-.1-1.2h10.7a67.7,67.7,0,0,1,7.8,0,17.4,17.4,0,0,1,3.9.5l1.9.4.5.2h.4l.4.2,1.5.7,1.6.8h-4.7l-3.8.3h0a88.7,88.7,0,0,1-10.3.4h-.6c.1,1.1-.2-1.4-.1-1.1h2.1l2.6.2c1.8.2,3.5.7,5.1,1a48.7,48.7,0,0,0,10.1.9h5.2l3.8-.2Z" transform="translate(-323.2 -267.5)"/>
    <path class="f7188aee-e467-4428-a61f-becbca9996af" d="M368.1,274.4h.1c.2.2.5.7-.2,1.1h-.1l-1.2-.2h-1.4c-1-.1-2-.3-3-.3-4.1-.3-8.1-.2-12.3-.3h-4.5c.2,1-.4-1.3-.3-1.1h0l.8-.4.7-.3a17.3,17.3,0,0,1,6.3-1,38.5,38.5,0,0,1,4.8.1l4.8.2,4.8.4,4.8.4h1c-.1.5.3-1.2-.2,1.1h-.2l-1.1-.4-1.1-.3-1.2-.2-4.7-.7-2.4-.3h-.2c-.1,1.1.2-1.4.2-1.2h1l1.2.2a40,40,0,0,1,4.8.8l3.7.9,3.8.8h.3c-.2.5.5-1.1-.4,1.1h-.1l-.4-.2-.8-.4a15.1,15.1,0,0,1-1.8-.9l-.2-.2h-.1c.5-2.2.1-.6.3-1.1h1.7l2,.4.4.2h.2c0-.1-.5,1.1-.3.6h-.4l-.2-.2a1.2,1.2,0,0,1-.1-.5l.4-.5H379l.6.3a2.5,2.5,0,0,1,.8,1l.2.3h0v.2c0,.3.1.6.1.9v.5a1.3,1.3,0,0,1-.1.6c0,.2-.1.4-.1.6h-.1c0,.2,0,.3-.1.4v.2h0l-.8-.3h.1a1.4,1.4,0,0,1,.2-.7c.6-2.2.7-1.2.6.1v.7h-.1l-.8-.3h0c0-.2.1-.3.1-.5h0a.6.6,0,0,0,.1-.4v-.5c0-.2,0-.3-.1-.4h0a1.3,1.3,0,0,0-.1-.6h-.1v-.2c-.1-.1-.2-.1-.2-.2a1.1,1.1,0,0,0-1-.5h-.6c.1.5,0-.7,0-.6h.7v.2h0c.2-.1-1.4,1-.7.6H377l-1.9-.4h-1.4c.1-.5-.3,1.1.3-1.1h.2l1.7.8.9.5.4.2h.1c-.9,2.2-.2.6-.4,1.1h-.4l-3.7-.8L369,273c-1.5-.3-3.1-.7-4.7-.9h-2.1c-.1.3.3-2.2.1-1.2h.2l2.3.3,4.8.7,1.2.3,1.2.3,1.2.4h.2c-.5,2.3-.1.7-.3,1.2h-1l-4.8-.4-4.7-.4-4.8-.2a38.5,38.5,0,0,0-4.8-.1,16,16,0,0,0-5.8.9l-.7.3-.6.3h-.1c.1.3-.5-2.1-.2-1.1h4.5c4,.1,8.1,0,12.3.3l3.1.3h1.4Z" transform="translate(-323.2 -267.5)"/>
    <path class="f7188aee-e467-4428-a61f-becbca9996af" d="M380.6,276.5h0c.1.3.2.9-.7.9h-.1l-1.4-1.5-.3-.3H378l.9-.8h.1l.3.3a2.6,2.6,0,0,1,.7,1,1,1,0,0,1,.1.4,1.4,1.4,0,0,1-.1,1.1h-.1c-.4-.1.9.4-.9-.3h0v-.2c0-.1.1-.3.1-.4a3.6,3.6,0,0,0,.2-1c.1-.5,0-.9.1-1.1s.1-.2.1-.2.4.6.5,1.3V277c0,.2-.1.4-.1.6v.2h0l-1-.4h.1c-.1-.2,0-.3-.1-.4s0-.2-.1-.2h0l-.5-.6c-.1-.1-.1-.2-.2-.2h0v-.2h0l.8-.8h.1l.3.3A8,8,0,0,0,380.6,276.5Z" transform="translate(-323.2 -267.5)"/>
  </g>
</svg>
