<svg id="e51fdb74-3f07-4938-96d3-0f2712120f89" data-name="Objects" xmlns="http://www.w3.org/2000/svg" viewBox="0 0 59.1 49.4">
  <defs>
    <style>
      .e5215299-7204-4c27-b6ef-192fe161394f {
        fill: #252525;
      }
    </style>
  </defs>
  <path class="e5215299-7204-4c27-b6ef-192fe161394f" d="M528.4,683.8c0,.1.1.1.1.3a2,2,0,0,1-.5,1.8,2.3,2.3,0,0,1-2.4.4h-.3a7.3,7.3,0,0,0-1.7-1.5,2.8,2.8,0,0,0-1.8.1,5.7,5.7,0,0,0-2.3,1.9,11.4,11.4,0,0,0-1.6,3.1,9.8,9.8,0,0,0-.7,3.4,8.6,8.6,0,0,0,0,1.6v.4a4.3,4.3,0,0,1,.1.5c.1.3.1.6.2.9l.6,1.7a6.3,6.3,0,0,0,.7,1.2l.2.2h0a1.3,1.3,0,0,0,.7-.3,10.1,10.1,0,0,0,2.1-2.7,21.1,21.1,0,0,0,1.8-3.3,50.5,50.5,0,0,0,2.7-7.4l.3-1.8a11.5,11.5,0,0,0,.2-1.6.4.4,0,0,0-.1-.3h.3l.3-.2c.1,0,.2,0,.2-.1h.3v-.2h0v.4c.1.2.1.4.2.6v.2h0c-.8,1.2,1.2-1.5,1-1.2h-.1v.9a15.5,15.5,0,0,0,.4,3.7,22.2,22.2,0,0,0,.9,3.7,19.2,19.2,0,0,0,1.4,3.6,12.6,12.6,0,0,0,1.8,3h0a1.9,1.9,0,0,0,1,.7h2.1a6.3,6.3,0,0,0,3.7-1.6,5.8,5.8,0,0,0,1.1-1.5,6.6,6.6,0,0,0,.6-2,14.2,14.2,0,0,0,0-4.6,26.8,26.8,0,0,0-3.4-9.2l-.6-.9-.3-.4-.4-.4-1.8-1.7a22.1,22.1,0,0,0-4-2.8,13.9,13.9,0,0,0-8.9-1.6,18.7,18.7,0,0,0-8.5,4.1,29,29,0,0,0-6.3,7.6,30.5,30.5,0,0,0-3.9,9.1,26.6,26.6,0,0,0-.6,9.7,11.4,11.4,0,0,0,4.6,7.5,13.8,13.8,0,0,0,4.2,2.1,24.6,24.6,0,0,0,4.7,1,56.8,56.8,0,0,0,10.1-.1,91.3,91.3,0,0,0,10.2-1.9l2.5-.7,1.4-.4.6-.2,2.6-.8,3.4-.9,6.3-1.9,3.5-1.1c.7-.1.9,0,.8.2s-1.5,1.8-3.5,3a50.5,50.5,0,0,1-4.6,2.4c-2.5,1.2-5.1,2.2-5.1,2.2l-2.7.9h-.3l-.8.3-1.2.3-5.2,1.3a71.7,71.7,0,0,1-10.5,1.4,38.7,38.7,0,0,1-10.7-.6,24.3,24.3,0,0,1-5.4-1.7,17.7,17.7,0,0,1-4.7-3.4,15.8,15.8,0,0,1-3.2-5,19.2,19.2,0,0,1-1.1-5.7,25.4,25.4,0,0,1,.3-5.5,5.9,5.9,0,0,1,.2-1.3l.2-1.4c.2-.9.5-1.8.7-2.6a35.7,35.7,0,0,1,4.8-9.8,33.7,33.7,0,0,1,3.4-4.3,29.2,29.2,0,0,1,4.1-3.7,28.7,28.7,0,0,1,4.8-2.8,21.9,21.9,0,0,1,5.6-1.4,17.5,17.5,0,0,1,11,2.8l1.2.7,1.2.8.5.5.5.4,1.1.9.9,1,.5.5c.2.1.3.3.5.5a13.8,13.8,0,0,1,1.7,2.5,24.5,24.5,0,0,1,2.2,5,23.7,23.7,0,0,1,1.3,5.4,16.2,16.2,0,0,1-.1,5.8,10,10,0,0,1-1,2.9l-.9,1.4a6.8,6.8,0,0,1-1.2,1.2,8.7,8.7,0,0,1-2.7,1.7,16.3,16.3,0,0,1-3,.7h-3.1a4,4,0,0,1-2-.8,5.1,5.1,0,0,1-1.3-1.2h0a14.2,14.2,0,0,1-2.5-3.9c-.6-1.4-1.1-2.7-1.6-4.1s-.7-2.7-1-4.2a20.4,20.4,0,0,1-.5-4.4,6.2,6.2,0,0,1,.1-1.3.4.4,0,0,1,.1-.3V681h0l1-1.3h0l.5-.2.6-.2h.8a1.7,1.7,0,0,1,1,.3,1.9,1.9,0,0,1,.8.7l.4.6a3.8,3.8,0,0,1,.3,1.7,6.2,6.2,0,0,1-.2,2.4,14.3,14.3,0,0,1-.4,2.2,44.9,44.9,0,0,1-2.9,8,27.5,27.5,0,0,1-2,3.8c-.4.7-.9,1.3-1.3,1.9a15.3,15.3,0,0,1-1.8,1.8l-1.2.7a3.7,3.7,0,0,1-1.8.5,4.6,4.6,0,0,1-2-.5,4.7,4.7,0,0,1-1.3-1.1,7.8,7.8,0,0,1-1.3-2.3,9.7,9.7,0,0,1-.8-2.2,3.6,3.6,0,0,1-.2-1.1c-.1-.1-.1-.3-.2-.5v-.6a19.3,19.3,0,0,1-.1-2.4,17.9,17.9,0,0,1,.9-4.6,16.6,16.6,0,0,1,2.3-4.1,11.4,11.4,0,0,1,3.9-3.2,5.9,5.9,0,0,1,2.3-.4,5.1,5.1,0,0,1,2.4.4A9.1,9.1,0,0,1,528.4,683.8Z" transform="translate(-499.4 -666.6)"/>
</svg>
