<svg id="b4c0ded9-0ac6-48dd-afce-ef7314d82a16" data-name="Objects" xmlns="http://www.w3.org/2000/svg" viewBox="0 0 31.1 47.3">
  <defs>
    <style>
      .a312672d-f40c-4db4-ab7f-39353d492f22 {
        fill: #252525;
      }
    </style>
  </defs>
  <g>
    <path class="a312672d-f40c-4db4-ab7f-39353d492f22" d="M432.9,722.3h-.1c-.1-.5-.1-1.6,1.3-1.5h.2l2.6,2.3,10.1,8.8c1.7,1.4,3.4,2.8,5,4.3l2.6,2.1.4.4.4.3.8.7s2.4,2.2,3.9,3.8,1.3,2.2-.7.9c.1.2-4.7-3.3-4.7-3.3l-.8-.6-1-.8-2.5-2.1-5-4.3-9.9-8.6Z" transform="translate(-431.9 -720.7)"/>
    <path class="a312672d-f40c-4db4-ab7f-39353d492f22" d="M437,758.7h-.1a2.2,2.2,0,0,1-1.3-1.5s-.1-.1,0-.1l.8-.9a7.6,7.6,0,0,0,.9-.9l.9-1.2c1.4-1.5,2.7-3.1,2.7-3.1a16.4,16.4,0,0,1,1.9-1.3c1.3-.9,1.3-.1.9.8l-1.3,2-2.6,3-.9,1.2c-.2.1-.3.3-.5.5l-.4.5A4.1,4.1,0,0,0,437,758.7Z" transform="translate(-431.9 -720.7)"/>
    <path class="a312672d-f40c-4db4-ab7f-39353d492f22" d="M461.1,744.3h0a1.5,1.5,0,0,1,.4.6,1.4,1.4,0,0,1,.1,1.3h-8.4a14.8,14.8,0,0,1-2.2-.7c-1.5-.5-.9-1,.1-1.2l2.3-.2H460c.5,0,.8.1.9,0Z" transform="translate(-431.9 -720.7)"/>
    <path class="a312672d-f40c-4db4-ab7f-39353d492f22" d="M442,751.5v-.2a1.1,1.1,0,0,1,.4-.9c.2-.3.7-.3,1.3-.1a.1.1,0,0,1,.1.1l.5.6.5.7.6.8.4.8,1.4,2.2,1.3,2.3,1,1.7.7,1.8a32.7,32.7,0,0,1,1.4,3.3c1.3,3.7.2,2.5-1.1.5,0,.1-.7-1.1-1.5-2.3l-1.5-2.5-.9-1.5-1.2-2.2-1.4-2.2-.4-.7-.5-.7-.5-.7Z" transform="translate(-431.9 -720.7)"/>
    <path class="a312672d-f40c-4db4-ab7f-39353d492f22" d="M451.3,767.9h-.1a1.1,1.1,0,0,1-.3-.7,3,3,0,0,1,.1-1.3h.8l.4-.3a5.6,5.6,0,0,0,1.3-.7l1.6-.9,4.1-2.4,2.5-.9c1.8-.5,1.4.2.6,1l-2.2,1.8-4.1,2.4-1.4.9-1.5.8A6,6,0,0,1,451.3,767.9Z" transform="translate(-431.9 -720.7)"/>
    <path class="a312672d-f40c-4db4-ab7f-39353d492f22" d="M460.9,760.5s.1,0,0,.1-.2,1.6-1.6,1.1h-.2l-1.8-3-3.1-4.9-1.1-1.7s-1.5-2.8-2.4-4.9-.5-2.5,1-.6l3.3,4.6.9,1.4,3.2,5Z" transform="translate(-431.9 -720.7)"/>
    <path class="a312672d-f40c-4db4-ab7f-39353d492f22" d="M431.9,721.9h.1l.3-.4a.5.5,0,0,1,.5-.3h.5l.3.2.4.3h.1c0,1.1.2,2.3.3,3.5l1.3,12.8,1,11.8s0,3.3-.1,5.5c-.1,3.9-.7,2.4-1.2.1,0,.2-.9-5.7-.9-5.7l-1-11.7-1.2-12.6C432.2,724.3,432,723.2,431.9,721.9Z" transform="translate(-431.9 -720.7)"/>
    <path class="a312672d-f40c-4db4-ab7f-39353d492f22" d="M437.2,753.7h0a.6.6,0,0,1,1,0h0v.8h-1v-.2l-.3-3.4-.2-1.9a11.1,11.1,0,0,0-.2-1.9l-.5-3.9-.6-3.9-.6-3.9-.7-3.9-.3-1.9v-.4h-.1l1-.2h0v.5l.2,1,1.2,7.8h0c.5,2.7,1,5.5,1.6,8.3a19.4,19.4,0,0,0,.5,2,11.7,11.7,0,0,0,.5,2l.6,2.1v.2h0c.9-.2-1.2.1-1,.1h0v-1.6c-.1-5.5-1.5-11-2.5-16.6h0c-.4-2.1-.7-4.1-.9-6.2v-4.7h0v.2l.4.6c.4.9.9,1.8,1.3,2.6l.5,1,.3.8c1.4,4,1.5,8.3,1.9,12.4l.3,3.1.3,1.5c.1.3.1.5.2.8v.5h0v-.2c0-.5.1-1,.1-1.5-.1-4.1-1.2-8.1-1.8-12.3-.1-1-.3-2.1-.3-3.1v-.8h0l1-.2v.5l.6,1.5c.4,1,.7,2,1,3a28.1,28.1,0,0,1,.8,3.1c.5,2,.9,4.1,1.3,6.1l.5,3.1.3,1.5.2.8v.6h0c.2,0-1.9.1-1,0h0c.4-4-.4-8.1-1.2-12.2l-.6-3.1a8.8,8.8,0,0,1-.2-1.6v-1h0l1-.2h.1v.4c.6,2,1.1,4,1.6,6h0c1,4.7,2,9.4,3.4,13.9l.6,1.7.3.8.2.4h-.9v-.2c0-.6.1-1.2.1-1.8v-1.7c-.1-2.4-.4-4.8-.7-7.1h0c-.3-2.1-.6-4.2-.7-6.3h0l1-.2h.1v.6c.1.3.1.5.2.8a7.7,7.7,0,0,1,.2,1.5c.2,1.1.3,2.1.5,3.2.5,4.1.7,8.3,1.8,12.3h0l.3,1,.3.9.2.6h0v-1.9a80.4,80.4,0,0,0-1.1-8.2,14.9,14.9,0,0,1-.2-2.1v-.7c-.9.2,1.2-.1,1-.1h0v1.3c.3,1.4.5,2.8.7,4.2s.9,5.5,1.3,8.2h0l.4,1.6h0v-.8a6.1,6.1,0,0,0,.1-1.4c0-1-.1-2-.1-3s-.1-2-.1-3h0c.4-.1-1,.1.9-.2h.1v.6a1.9,1.9,0,0,1,.2.7l.5,1.5c.2.9.5,1.9.8,2.8a5.8,5.8,0,0,0,.5,1.4v.4h0v-1.3a8.6,8.6,0,0,0,0-1.6v-.2h0l.9-.2h.1c0,.1.1.3.1.4s.1.6.2.9a5.5,5.5,0,0,1-.2,1.8,2.4,2.4,0,0,1-.2.8v.6h-.1l-1.2-1a11.3,11.3,0,0,1-2.2-2.7c-2.3-3.8-3.6-8.1-5.3-12.1-.8-2-1.7-4-2.4-6.2a16,16,0,0,1-.7-3.3,1.9,1.9,0,0,1-.1-.8,7.5,7.5,0,0,1,0-1.5,7.7,7.7,0,0,0,.2-1.5l.9,1.2.4.6a4.3,4.3,0,0,1,.4.7l.3.8a7.6,7.6,0,0,1,.6,1.6c.3,1.1.5,2.2.7,3.3a19.8,19.8,0,0,0,.6,3.2,1.9,1.9,0,0,0,.2.7h0c-2,.1-.5,0-1,0h0v-.6c0-.6.1-1.1.1-1.7h0a4.9,4.9,0,0,0,.1-1.2V740h.1v-.5l.2-1.1v-.8l.2.3.8.9.6.8a10.6,10.6,0,0,1,.9,2.5,5,5,0,0,1,.2,1.2l.2.6v.3h0c-.4,0,1-.1-.9,0h0c.1-1.6,0-3.2,0-4.9v-.2h0c1.9-.5.5-.2.9-.3h.1v.3a1.4,1.4,0,0,1,.2.6l.5,1.2.4,1.2a1.7,1.7,0,0,1,.2.5l.2.4h0v-.3a.4.4,0,0,1,.1-.3h0V742h0c0-.5-.1-1.1-.1-1.5V740h.1l.5.4.9.8.2.2h.2l.2.2.9.9c.1.2.3.3.4.4l.2.2h.1c.1-.1-1,1.7-.5.9h-.2l-1.1-.6a37,37,0,0,1-8.1-6h0l-2.6-2.6-1.3-1.3-1.1-1.1h0l-.2-.2-.4-.4-.3-.3c0-.1-.1-.2-.2-.3h0a7.6,7.6,0,0,1-1.1-1.4c-1.1-1.5-.5-1.1.4-.3s.6.5,1.2,1h.2l.2.2.4.4.4.3v.2l.5.6,2.2,2.3,2.3,2.2h0a37.4,37.4,0,0,0,7.9,5.8l1,.6h.2c.5-.8-.6,1.1-.5.9h-.1l-.2-.2c-.2-.2-.4-.3-.5-.5l-1.2-1.1h0v.5l-.2.9a7,7,0,0,0-.2,1.6,2.8,2.8,0,0,0-.1.8l-.3-.5-.5-1-.6-1.1v-.2c-.1-.1-.1-.1-.1-.2v-.3a1.4,1.4,0,0,1-.2-.6l-.5-1.2a7.6,7.6,0,0,0-.4-1.1c-.1-.2-.1-.4-.2-.6l-.2-.2h0l1-.2h0v.2a41.7,41.7,0,0,1,0,5v.2h-1.1v-.9l-.3-1.2a8.3,8.3,0,0,0-.8-2.2H450v.2h0v.8a4.9,4.9,0,0,1-.1,1.2h0c0,.6-.1,1.1-.1,1.7v.6h-1a2.4,2.4,0,0,1-.2-.8,19.1,19.1,0,0,1-.6-3.3c-.2-1.1-.4-2.1-.7-3.2a8.8,8.8,0,0,0-.5-1.5l-.3-.6h0v.8a15.5,15.5,0,0,0,.7,3.1,63.7,63.7,0,0,0,2.3,6.1c1.8,4.1,3,8.3,5.3,12a16.4,16.4,0,0,0,1.9,2.5h.1a7.6,7.6,0,0,0,.1-1.5c-.1-.2-.1-.5-.2-.7s-.1-.2-.1-.3h0l1-.2h0v.2a9.7,9.7,0,0,1-.1,1.7v1.6c0,.1-.1.2-.1.4l-.3,1.5v.6h-.1l-.4-.7h0l-.6-1.3-.3-.6-.2-.4c-.2-.5-.3-1-.5-1.4s-.6-2-.8-3-.3-.9-.4-1.4l-.3-.7v-.5h-.1c2-.3.5-.1,1-.1h0c0,.9,0,1.9.1,2.9s.1,2.1.1,3.1a7.6,7.6,0,0,1-.1,1.5v.8l-.3,1.3c-.1.4-.1.8-.2,1.3l-.4,1.3-.2.6h0v-.5l-.3-1.1c-.2-.8-.4-2-.6-2.8l-.2-1.5h0c-.5-2.8-1-5.5-1.4-8.3s-.4-2.7-.7-4.1v-1.3h0c-.2,0,1.9-.3,1-.1h0v.5c.1.7.1,1.4.2,2.1a75.3,75.3,0,0,1,1.1,8.3c.1.3,0,.7.1,1.1v.8c0,.1-.1.3-.1.4l-.2,2V762h0v-.2l-.2-.5-.9-1.7c-.1-.2-.2-.3-.2-.5l-.2-.4-.2-.5a4.2,4.2,0,0,1-.4-1l-.3-1.1h0a75.7,75.7,0,0,1-1.8-12.4c-.2-1.1-.3-2.1-.5-3.1a7.7,7.7,0,0,0-.2-1.5c-.1-.3-.1-.5-.2-.8v-.4h-.1l1-.2h0c.2,2.1.4,4.2.7,6.2h0c.3,2.4.6,4.8.8,7.2v1.8c0,.6-.1,1.3-.1,1.9v.2h-1l-.2-.4-.3-.9-.6-1.7c-1.5-4.6-2.4-9.3-3.5-13.9h0c-.5-2.1-1-4.1-1.6-6.1v-.3h0l.9-.2h0v1c.1.5.1,1,.2,1.5l.6,3.1c.8,4,1.6,8.2,1.2,12.5h-1v-.6l-.2-.8-.3-1.5-.5-3.1c-.4-2.1-.8-4.1-1.3-6.1s-.5-2-.8-3a24.7,24.7,0,0,0-1-2.9l-.5-1.5-.2-.3v-.2l.9-.2h0v.8c0,1,.2,2,.3,3.1.6,4.1,1.7,8.1,1.8,12.4a8.6,8.6,0,0,1-.1,1.6v1.2c-.1.4-.1.9-.2,1.3l-.3,1.4v.6h0l-.3-.6-.9-2.8-.2-1c-.1-.3-.1-.5-.2-.8l-.3-1.5-.3-3.2c-.4-4.1-.5-8.3-1.9-12.2-.1-.2-.1-.5-.2-.7l-.2-.3h0c.2,2,.5,4.1.9,6.1h0c1,5.5,2.4,11.1,2.5,16.8v1.7h0l-1,.2h0v-.2l-.6-2.1c-.2-.7-.3-1.4-.5-2.1a11.7,11.7,0,0,1-.5-2c-.6-2.8-1.1-5.6-1.6-8.4h0l-1.2-7.7-.2-1v-.5h0l1-.2h.1v.2l.3,2,.7,3.9.6,3.8.6,3.9c.3,2.6.8,5.2.9,7.9l.3,3.4h-1v-.8Z" transform="translate(-431.9 -720.7)"/>
  </g>
</svg>
