<svg id="a1eb5d1c-a45e-4825-b9cd-f62a86c6ab20" data-name="Objects" xmlns="http://www.w3.org/2000/svg" viewBox="0 0 88.7 77.7">
  <defs>
    <style>
      .a65139ef-b26e-4487-8ba0-841f8c62d307 {
        fill: #252525;
      }
    </style>
  </defs>
  <g>
    <path class="a65139ef-b26e-4487-8ba0-841f8c62d307" d="M865.8,484h.1c.2,0,.6.1.7.4s.2.6,0,1.1h-.1a9.3,9.3,0,0,0-2.2,1.4,6.1,6.1,0,0,0-1.9,2.9,8.5,8.5,0,0,0-.4,3.6,11.8,11.8,0,0,0,2.8,6.6,9.8,9.8,0,0,0,6.2,3.3,11.1,11.1,0,0,0,3.6-.4,17.3,17.3,0,0,0,3.3-1.7,11.1,11.1,0,0,0,4.3-5.7,8.8,8.8,0,0,0-1-6.9,8.4,8.4,0,0,0-5.6-4.1h-.2c0-.1-.2-.1-.2-.1h-2.9l-1.4.2-.7.2-.7.2H869l-.4.2-.6.2c-.3,0-.4,0-.4-.1s.2-.3.5-.6l.5-.4.6-.3.6-.4.7-.3h.5l.4-.2.9-.2.9-.2h2.7l1.1.2a10.6,10.6,0,0,1,6.6,13.7,12.8,12.8,0,0,1-5.2,6.3,14.6,14.6,0,0,1-3.8,1.7,9.4,9.4,0,0,1-4.1.3,11.7,11.7,0,0,1-7.2-4.1,13.6,13.6,0,0,1-3.1-7.5,9.9,9.9,0,0,1,.5-4.2,8.8,8.8,0,0,1,2.4-3.6A9.5,9.5,0,0,1,865.8,484Z" transform="translate(-804.4 -427.5)"/>
    <path class="a65139ef-b26e-4487-8ba0-841f8c62d307" d="M849.1,495.5h0c-.1.2-.2.5-.5.6s-.6.2-1.1-.2a.1.1,0,0,1-.1-.1,11.3,11.3,0,0,1-.2-3.2,14.5,14.5,0,0,1,1-4.1,25.3,25.3,0,0,1,1.8-3.7,35.3,35.3,0,0,1,4.9-6.6,25.7,25.7,0,0,1,2.9-2.8,20.4,20.4,0,0,1,3.3-2.5,25.8,25.8,0,0,1,3.7-1.9,26.2,26.2,0,0,1,4-1.1,22.6,22.6,0,0,1,8.2-.3l2.1.4,2,.6.9.3,1,.4.5.2.4.3h0v-.8l.5-1.9.9-3.9.4-2a1.8,1.8,0,0,1,.1-.5,6.2,6.2,0,0,0,.3-1c.2-.9.4-2,.7-2.9.5-3.1.9-1.9,1,.1,0-.1-.1,1.1-.1,2.4a11.1,11.1,0,0,0-.2,1.7,3.2,3.2,0,0,0-.1.7l-.2.9v.4l-.3,1.5-.9,3.8-.2.9-.2,1.1-.4,1.9c0,.3-.2.1-.3,0l-.5-.2-.8-.4-.7-.4-.4-.2-.9-.3-1.8-.7-1.8-.4-.9-.2h-1a21.1,21.1,0,0,0-7.5.4,24.7,24.7,0,0,0-6.9,2.9,26.9,26.9,0,0,0-5.7,5,39.8,39.8,0,0,0-4.6,6.2,20.3,20.3,0,0,0-2.5,7A11,11,0,0,0,849.1,495.5Z" transform="translate(-804.4 -427.5)"/>
    <path class="a65139ef-b26e-4487-8ba0-841f8c62d307" d="M848.2,495c0-.1,0-.1.1,0a1.1,1.1,0,0,1,.7.3.8.8,0,0,1,.1,1.1c-.1,0-.1.1-.2.2a8.5,8.5,0,0,1-3.1.6,34.4,34.4,0,0,1-5.8-.6l-1.6-.2-1.6-.4-2.8-.7-1-.2h-.6q-.4-.2-.3-.3c.1-.2,1-.3,2-.4h2.3l2.5.3,1.4.2a24.7,24.7,0,0,0,5.4.5A6.6,6.6,0,0,0,848.2,495Z" transform="translate(-804.4 -427.5)"/>
    <path class="a65139ef-b26e-4487-8ba0-841f8c62d307" d="M833.6,494.6h-.1c-.3.4-1,.8-1.6-.2h-.1c.2-1,.3-2,.5-3a58.3,58.3,0,0,1,6.3-17.8,41.9,41.9,0,0,1,5.7-7.6l1.6-1.8,1.8-1.6a33.7,33.7,0,0,1,3.8-2.8,37.2,37.2,0,0,1,17.9-6.1,33.5,33.5,0,0,1,9.5.5h1.3l.9.2,1.5.6,1.4.6,1.4.7c2.8,1.7,1.4,1.5-.5.9l-.6-.2-1.5-.4-1.6-.4h-.8l-.8-.2-2-.4a38.7,38.7,0,0,0-9-.2,35.6,35.6,0,0,0-16.6,6.1,38,38,0,0,0-12,13.2,52.9,52.9,0,0,0-5.9,17A27.4,27.4,0,0,0,833.6,494.6Z" transform="translate(-804.4 -427.5)"/>
    <path class="a65139ef-b26e-4487-8ba0-841f8c62d307" d="M822.1,493.8h.1c.4.2,1.2.7.4,1.6h-.1l-1.5.3-1.5.2-1.6.2h-6.3l-1.6-.2-1.5-.3-1.5-.4c-3.1-.9-1.8-1,.2-.9a14.5,14.5,0,0,1,2.3,0h9.8l1.4-.2Z" transform="translate(-804.4 -427.5)"/>
    <path class="a65139ef-b26e-4487-8ba0-841f8c62d307" d="M806.9,494.7h0a1.9,1.9,0,0,1-.2.7c-.2.2-.5.4-1.2.2h-.1a7.7,7.7,0,0,1-.9-3.2,30.5,30.5,0,0,1,.1-4.3l.6-4.1.3-2,.3-2.1.5-2a11.7,11.7,0,0,1,.6-2,65.8,65.8,0,0,1,2.9-7.8,73.9,73.9,0,0,1,3.8-7.4,62,62,0,0,1,9.9-13.4l1.4-1.5,1.6-1.4L828,443l1.7-1.3,1.6-1.2,1.8-1.2,1.7-1.1,1.8-1.1a76.5,76.5,0,0,1,15.3-6.5,64.2,64.2,0,0,1,16.3-3,58.2,58.2,0,0,1,16.6,1.2l1.6.4.8.2,1.5.6,1.4.6,1.4.8c2.8,1.5,1.5,1.4-.4.8,0,.1-.2,0-.7-.1a5.3,5.3,0,0,0-1.5-.5l-2.4-.5-.8-.3-3.2-.7a55.7,55.7,0,0,0-15.8-.6,63.6,63.6,0,0,0-15.6,3.2,70.7,70.7,0,0,0-14.6,6.5A60.2,60.2,0,0,0,814.8,462l-.9,1.7a15.1,15.1,0,0,0-.9,1.8c-.6,1.2-1.2,2.5-1.7,3.7a51,51,0,0,0-2.8,7.4c-.4,1.3-.7,2.6-1,3.9l-.5,3.9c-.2,1.4-.5,2.7-.6,4a17,17,0,0,0-.2,3.9A6.1,6.1,0,0,0,806.9,494.7Z" transform="translate(-804.4 -427.5)"/>
    <path class="a65139ef-b26e-4487-8ba0-841f8c62d307" d="M889.1,448.4H889c-.2,0-.6.1-.8-.1s-.4-.5-.4-1v-.2A4.3,4.3,0,0,0,889,445a6.5,6.5,0,0,0,.4-1.3c.1-.5.1-.9.2-1.4a26.4,26.4,0,0,0,.2-2.8v-1.7s.1-.6.3-1.5a10.1,10.1,0,0,1,.7-3l.3-1,.4-.6c.1-.2.2-.3.3-.1a6.9,6.9,0,0,1-.1,1.9c0-.1-.1,1.1-.1,2.2v3.9c-.1.9-.1,1.9-.3,2.9a7.7,7.7,0,0,1-.2,1.5,8.3,8.3,0,0,1-.4,1.5A6.9,6.9,0,0,1,889.1,448.4Z" transform="translate(-804.4 -427.5)"/>
    <path class="a65139ef-b26e-4487-8ba0-841f8c62d307" d="M822.6,494.5h0c-.2.4-.7,1.2-1.6.3h-.1v-3a32.8,32.8,0,0,1,.6-6.3q.6-3,1.5-6a57.1,57.1,0,0,1,2.1-5.8,41.1,41.1,0,0,1,2.7-5.6,48.8,48.8,0,0,1,7.8-9.7,23.9,23.9,0,0,1,2.3-2.2l2.3-2,2.5-1.9,2.6-1.7a42.6,42.6,0,0,1,11.3-5.1,50.3,50.3,0,0,1,12.2-2.1,43,43,0,0,1,12.4,1.5l2.2.5,4.3,1.7c2.9,1.3,1.6,1.3-.4,1l-2.2-.5-1.6-.4h-.8l-.8-.2h-.4l-.7-.2-1.4-.3a38.8,38.8,0,0,0-11.7-1.1l-2.9.3-3,.5-2.8.6-2.9.8a47,47,0,0,0-10.6,5.1,72.5,72.5,0,0,0-9.1,7.5,42.9,42.9,0,0,0-7.2,9.3l-.8,1.3-.6,1.3-1.2,2.7a52.7,52.7,0,0,0-1.9,5.6,42.3,42.3,0,0,0-2.1,11.6v2.7Z" transform="translate(-804.4 -427.5)"/>
    <path class="a65139ef-b26e-4487-8ba0-841f8c62d307" d="M805.3,492.7h-.1a.9.9,0,0,1-.2-1.6h5.7l2.5.2,1.6.2,1.6.3,2.9.7c3.1.6,1.8.9-.2,1h-2.3l-2.4-.2H813l-2.5-.3h-3.8Z" transform="translate(-804.4 -427.5)"/>
    <path class="a65139ef-b26e-4487-8ba0-841f8c62d307" d="M806.6,488.6h-.1c-.3-.3-.7-1,.4-1.6h.2l2.8.7,3.1.5a9,9,0,0,0,1.6.3l4.4,1.3c3.1.9,1.8,1-.2.9l-2.3-.2-2.4-.3-1.4-.2-3.2-.6Z" transform="translate(-804.4 -427.5)"/>
    <path class="a65139ef-b26e-4487-8ba0-841f8c62d307" d="M806.3,484.5c-.1,0-.1,0-.1-.1s-1-.9,0-1.6h1.7l1.5.3,1.8.3,1.7.5,1.6.4,1.5.6,2.8,1c3,1.1,1.7,1.2-.3,1l-2.3-.5-2.4-.5-1.3-.3-1.7-.4-1.8-.4-1.3-.2Z" transform="translate(-804.4 -427.5)"/>
    <path class="a65139ef-b26e-4487-8ba0-841f8c62d307" d="M806.8,480.3h0a.8.8,0,0,1-.2-.8q.1-.4.9-.6c0-.1.1-.1.2,0a10.6,10.6,0,0,0,2.5.9,23.3,23.3,0,0,0,3.8.8l1.6.3,1.5.4,3,.8,1.5.6c.3.2.3.3.2.3s-1,.1-2,0l-2.2-.2-2.5-.2-1.4-.2-4-.9A21.2,21.2,0,0,1,806.8,480.3Z" transform="translate(-804.4 -427.5)"/>
    <path class="a65139ef-b26e-4487-8ba0-841f8c62d307" d="M808.2,476.9h0a.8.8,0,0,1-.2-.8c.1-.3.3-.5.9-.7h.2l.6.3.6.3,1.3.4,1.9.6,1.5.3,1.5.5,2.9.9c3,1.1,1.7,1.2-.3.9l-2.2-.2-1.7-.3h-.8l-1.4-.3-1.9-.6-1.4-.5c-.3-.1-.5-.1-.7-.3Z" transform="translate(-804.4 -427.5)"/>
    <path class="a65139ef-b26e-4487-8ba0-841f8c62d307" d="M809.1,471.9H809c0-.2-.1-.6.1-.8s.5-.4,1-.5h.2a9.9,9.9,0,0,0,2.3,1.3,39.5,39.5,0,0,0,5.2,1.6l1.6.3,1.5.5,2.8,1a4.7,4.7,0,0,1,1.5.8c.3.2.3.3.2.3a7.6,7.6,0,0,1-2-.1l-2.2-.4-2.4-.4-1.4-.3a50.1,50.1,0,0,1-5.5-1.7A11.2,11.2,0,0,1,809.1,471.9Z" transform="translate(-804.4 -427.5)"/>
    <path class="a65139ef-b26e-4487-8ba0-841f8c62d307" d="M812.6,469c-.1,0-.1,0-.1-.1a1,1,0,0,1-.2-.9,2.3,2.3,0,0,1,.9-.6h.2a15.7,15.7,0,0,0,2.6,1l3,.9,1.6.4a37.8,37.8,0,0,1,4.3,1.8c1.5.6,1.8,1,1.6,1.1a5.6,5.6,0,0,1-2-.2l-2.2-.5-2.4-.5-1.3-.4-3.2-.9A20.2,20.2,0,0,1,812.6,469Z" transform="translate(-804.4 -427.5)"/>
    <path class="a65139ef-b26e-4487-8ba0-841f8c62d307" d="M813.5,465.4h-.1c-.3-.3-.6-1.1.5-1.6h.1l2.8.9,3.7,1.2,1.5.6,1.4.6a23.4,23.4,0,0,1,2.7,1.5c2.8,1.5,1.5,1.4-.4.8l-2.2-.7-2.3-.7-1.3-.4-3.6-1.2Z" transform="translate(-804.4 -427.5)"/>
    <path class="a65139ef-b26e-4487-8ba0-841f8c62d307" d="M814.3,462.2h-.1c-.3-.3-.8-1,.3-1.6h.1l1.5.3,1.4.4,2.3.7,2.2.7,1.6.6,1.4.7,2.6,1.5c2.9,1.5,1.5,1.4-.4.8l-2.2-.7-1.6-.5-.7-.2-1.3-.5-2.1-.8-2.2-.6-1.4-.3Z" transform="translate(-804.4 -427.5)"/>
    <path class="a65139ef-b26e-4487-8ba0-841f8c62d307" d="M816.4,458.1h-.1c-.3-.5-.5-1.2.7-1.5h.2l1.2.6,1.4.5,2.2.9,2.3.8,1.5.5,4.2,1.8c2.9,1.5,1.6,1.4-.3,1l-2.3-.6-2.3-.6-1.4-.5-2.3-.7-2.3-.9-1.4-.6Z" transform="translate(-804.4 -427.5)"/>
    <path class="a65139ef-b26e-4487-8ba0-841f8c62d307" d="M818.6,455.5c0-.1,0-.1-.1-.1a.9.9,0,0,1,.3-1.6.1.1,0,0,1,.1-.1l1.5.3,1.5.4.7.2.8.3,1.5.5,3,1.3,1.5.7,1.3.8a22,22,0,0,1,2.5,1.7c2.7,1.9,1.3,1.6-.5.8l-2.1-.9-2.2-1-1.3-.5c-.9-.5-1.9-.8-2.8-1.2l-1.5-.5-.7-.3-.7-.2-1.4-.4Z" transform="translate(-804.4 -427.5)"/>
    <path class="a65139ef-b26e-4487-8ba0-841f8c62d307" d="M821.7,452.9h-.1c-.3-.3-.7-1.1.4-1.6h.2l2.8,1,4.3,1.6,1.5.7s2.5,1.2,4.1,2.2,1.4,1.4-.5.9l-2.2-.8-2.3-.8-1.2-.5-4.3-1.7Z" transform="translate(-804.4 -427.5)"/>
    <path class="a65139ef-b26e-4487-8ba0-841f8c62d307" d="M824.4,449.4h-.1c-.2-.4-.6-1.2.6-1.6h.1l1.4.5,1.4.6,5.6,2.7,1.5.7,3.9,2.3c2.8,1.4,1.5,1.4-.4.8l-2.2-.7-2.3-.9-1.3-.6-5.5-2.7-1.3-.5Z" transform="translate(-804.4 -427.5)"/>
    <path class="a65139ef-b26e-4487-8ba0-841f8c62d307" d="M828.1,446.1c-.1,0-.1,0-.1-.1s-.7-1.1.4-1.5.1-.1.2-.1l1.4.5,1.4.5,3.2,1.3,3.2,1.4,1.4.8s2.4,1.3,3.9,2.3,1.5,1.5-.4.9l-2.2-.8-2.2-1-1.3-.6-3.1-1.4-3.1-1.3-1.3-.5Z" transform="translate(-804.4 -427.5)"/>
    <path class="a65139ef-b26e-4487-8ba0-841f8c62d307" d="M832.1,442.4c-.1-.1-.1-.1-.1-.2s-.2-1.2,1-1.2h.2l1.1.8,1.2.8c2.2,1.3,4.5,2.4,6.8,3.5l1.5.7,1.4.8a22,22,0,0,1,2.5,1.7c2.6,2,1.2,1.7-.5.8l-.6-.2-1.5-.7-1.5-.6-.8-.3-1.2-.6a66.1,66.1,0,0,1-7-3.6l-1.3-.8Z" transform="translate(-804.4 -427.5)"/>
    <path class="a65139ef-b26e-4487-8ba0-841f8c62d307" d="M836.3,440.2h-.1c-.2-.4-.3-1.2.9-1.4h.2l1.2.7,1.2.7c2.4,1.3,4.8,2.4,7.2,3.5l1.5.7,1.4.8a22,22,0,0,1,2.5,1.7c2.7,1.8,1.4,1.5-.5.8l-2.1-.9-1.5-.6-.7-.3-1.3-.6c-2.4-1.1-4.9-2.2-7.3-3.5l-1.3-.8Z" transform="translate(-804.4 -427.5)"/>
    <path class="a65139ef-b26e-4487-8ba0-841f8c62d307" d="M840.3,437.3h-.1c-.2-.5-.1-1.3,1-1.3h.2a18.8,18.8,0,0,0,2.3,1.6c2.3,1.4,4.9,2.6,7.4,3.8l1.5.6a39.4,39.4,0,0,1,4,2.5c1.3.9,1.6,1.3,1.3,1.4s-.9-.2-1.9-.6l-2.1-.9-2.2-.9-1.3-.5a68,68,0,0,1-7.6-3.9A22,22,0,0,1,840.3,437.3Z" transform="translate(-804.4 -427.5)"/>
    <path class="a65139ef-b26e-4487-8ba0-841f8c62d307" d="M844.8,434.6v-.2c-.1-.2-.2-.6,0-.8s.5-.4,1-.4h.1a13.6,13.6,0,0,0,2.4,1.3l2.7,1.1,1.4.7,1.3.8,1.3.7,1.3.8,2.5,1.5,1.4.9s2.2,1.6,3.6,2.8,1.2,1.7-.6.8l-2-1.1-2.2-1.2-1.1-.7-2.5-1.5-1.3-.8-1.3-.7-1.3-.7-1.2-.7-2.7-1.1A12.8,12.8,0,0,1,844.8,434.6Z" transform="translate(-804.4 -427.5)"/>
    <path class="a65139ef-b26e-4487-8ba0-841f8c62d307" d="M851.3,433.4h-.1c-.3-.4-.7-1.1.4-1.6h.2l2.9,1c4.4,1.8,8.3,4.6,12.2,7.2l1.3.8,3.7,2.8c1.3.9,1.6,1.3,1.4,1.3a4.4,4.4,0,0,1-2-.5l-2.1-1-2.1-1.2-1.2-.8c-3.9-2.6-7.7-5.3-11.9-7Z" transform="translate(-804.4 -427.5)"/>
    <path class="a65139ef-b26e-4487-8ba0-841f8c62d307" d="M856.7,431.1h0a.9.9,0,0,1,.5-1.6h.2l1.4.6,1.3.6c5.4,2.8,9.9,6.7,14.7,10l1.3.9.4.2a3.5,3.5,0,0,0,.9.7l1.2.9,1.2.8c2.7,1.6,1.5,1.5-.5.8a8.2,8.2,0,0,1-2.1-.9l-1.5-.8-.7-.4-.8-.4-.8-.6-2-1.4-3.9-3a59.5,59.5,0,0,0-8.2-5.2l-1.2-.6Z" transform="translate(-804.4 -427.5)"/>
    <path class="a65139ef-b26e-4487-8ba0-841f8c62d307" d="M862.8,429.4h0c-.2-.5-.1-1.3,1.1-1.2h.1l1.1.9,1.1.9c3.2,2.3,6.8,4.1,10.2,6.2l2.6,1.7,2.4,1.7,3.8,2.9,1.2,1.1,1.1.9,1.2,1c2.5,2,1.3,1.6-.6.8l-.6-.3-.6-.4-.8-.5-2.1-1.3-1.5-1.1a18.8,18.8,0,0,0-2.4-1.8l-2.3-1.7-1.2-.8-1.3-.8c-3.3-2-6.9-3.8-10.1-6.2l-1.2-.9Z" transform="translate(-804.4 -427.5)"/>
    <path class="a65139ef-b26e-4487-8ba0-841f8c62d307" d="M870.4,429.9h-.1c-.1-.4-.1-1.3,1.1-1.3h.1l2.3,1.8c3.4,2.5,6.9,4.7,10.5,7l1.4.8,1.3,1,2.3,2c2.4,2.1,1.1,1.7-.6.7l-2-1.1-1.5-.8-.6-.4-1.2-.8a121.2,121.2,0,0,1-10.6-7Z" transform="translate(-804.4 -427.5)"/>
    <path class="a65139ef-b26e-4487-8ba0-841f8c62d307" d="M879.3,430.1h-.1a1.1,1.1,0,0,1,.2-.8.9.9,0,0,1,1.1-.2h.1a18,18,0,0,0,2,1.9l2,1.4,1.3.8,1.3.9,2.5,1.7c1.3,1,1.6,1.4,1.3,1.5l-1.9-.7-2.1-.9-2.2-1.1-1.2-.8-2.1-1.4A15.2,15.2,0,0,1,879.3,430.1Z" transform="translate(-804.4 -427.5)"/>
    <path class="a65139ef-b26e-4487-8ba0-841f8c62d307" d="M834.2,491.2h-.1c-.3-.3-1-.9,0-1.7h1.7l1.5.2,2.1.4,2,.5,1.6.5,1.5.5,2.7,1.2c3,1.3,1.7,1.3-.3,1l-2.3-.6-1.6-.4h-.7l-1.4-.4a27.4,27.4,0,0,0-3.9-.9h-2.8Z" transform="translate(-804.4 -427.5)"/>
    <path class="a65139ef-b26e-4487-8ba0-841f8c62d307" d="M834.8,487.5h-.1c-.4-.3-1-.9,0-1.7h.1a10.6,10.6,0,0,1,3.1.4l2.9.8,1.5.5,1.5.6,2.7,1,1,.3h.6c.3.2.3.3.3.3a3.7,3.7,0,0,1-2.1.2l-2.3-.3-2.4-.6-1.4-.5-2.7-.7Z" transform="translate(-804.4 -427.5)"/>
    <path class="a65139ef-b26e-4487-8ba0-841f8c62d307" d="M836.2,483.7h-.1l-.5-.4c-.2-.1-.3-.2-.3-.4a.9.9,0,0,1,.4-.7c0-.1.1-.1.1-.2a5.1,5.1,0,0,1,1.8.1,8,8,0,0,1,1.5.3l3.3,1,1.5.6,1.4.7L848,486c1.4.7,1.8,1,1.6,1.1a5.6,5.6,0,0,1-2-.2l-2.2-.7-2.3-.7-1.3-.5-3.1-1-1.4-.3Z" transform="translate(-804.4 -427.5)"/>
    <path class="a65139ef-b26e-4487-8ba0-841f8c62d307" d="M836.7,479.5h-.1c-.3-.4-.7-1.1.4-1.7h.1l2.9.7,1.1.4,1.2.3,2.2.8,1.6.6,1.4.7,2.6,1.5c2.8,1.7,1.4,1.5-.4.9l-2.2-.8-2.3-.8-1.3-.5-2.2-.7-1.1-.3-1.1-.4Z" transform="translate(-804.4 -427.5)"/>
    <path class="a65139ef-b26e-4487-8ba0-841f8c62d307" d="M838.7,476.3a.1.1,0,0,0-.1-.1.9.9,0,0,1,.5-1.6h.1l2.8.9,4.8,1.8,1.5.7,1.4.7.6.4.7.4,1.3.9c2.7,1.7,1.3,1.5-.5.8a12.3,12.3,0,0,1-2.1-.9l-2.3-.8-1.3-.5-4.7-1.8Z" transform="translate(-804.4 -427.5)"/>
    <path class="a65139ef-b26e-4487-8ba0-841f8c62d307" d="M841.7,473.2h-.1c-.3-.3-.8-1,.3-1.6h.1l3,.8a38.2,38.2,0,0,1,4.6,2.1l1.4.8,1.3,1a19.2,19.2,0,0,1,2.3,1.9c2.5,2,1.3,1.7-.5.8l-2.1-1.1-2.1-1.2-1.2-.6a23.9,23.9,0,0,0-4.3-2A13.4,13.4,0,0,0,841.7,473.2Z" transform="translate(-804.4 -427.5)"/>
    <path class="a65139ef-b26e-4487-8ba0-841f8c62d307" d="M844.3,469.8a.1.1,0,0,0-.1-.1,1,1,0,0,1,.6-1.6h.2l2.7,1.2,1,.6,1.1.5,2,1.1,1.5.9s2.2,1.5,3.7,2.7,1.2,1.6-.6.8l-2.1-1-2.1-1.1-1.2-.7-2.1-1.1-1-.6-1-.5Z" transform="translate(-804.4 -427.5)"/>
    <path class="a65139ef-b26e-4487-8ba0-841f8c62d307" d="M845.7,465.8c-.1,0-.1,0-.1-.1s-.6-1.1.5-1.6h.1l1.5.5,1.3.6a53.3,53.3,0,0,1,7.1,3.8l1.4.9s2.2,1.5,3.6,2.7,1.3,1.7-.5.9l-4.2-2.3-1.2-.7a45.8,45.8,0,0,0-6.9-3.7l-1.3-.5Z" transform="translate(-804.4 -427.5)"/>
    <path class="a65139ef-b26e-4487-8ba0-841f8c62d307" d="M849.8,463.6h-.1a1,1,0,0,1,.8-1.5h.2l2.5,1.5,5.7,3.3,1.4.8a44.5,44.5,0,0,1,3.8,2.6c2.6,1.9,1.3,1.6-.6.8.2.2-4.2-2-4.2-2l-1.3-.7-5.7-3.3Z" transform="translate(-804.4 -427.5)"/>
    <path class="a65139ef-b26e-4487-8ba0-841f8c62d307" d="M853.3,461.9h-.1c-.2-.4-.3-1.3.9-1.4h.1l2.5,1.5,6.9,4.1,1.4.8s2.2,1.5,3.7,2.7,1.2,1.7-.6.8c.2.2-4.2-2.1-4.2-2.1l-1.2-.7-6.9-4.1Z" transform="translate(-804.4 -427.5)"/>
    <path class="a65139ef-b26e-4487-8ba0-841f8c62d307" d="M856,459.5h-.1a.9.9,0,0,1,.5-1.6h.1l1.5.5,1.3.6a61.2,61.2,0,0,1,9.6,5.8l1.4.9,3.6,2.9c1.2.9,1.6,1.3,1.3,1.4a7.1,7.1,0,0,1-1.9-.6l-2.1-1.1-2.1-1.3-1.2-.7a59.5,59.5,0,0,0-9.3-5.7l-1.3-.6Z" transform="translate(-804.4 -427.5)"/>
    <path class="a65139ef-b26e-4487-8ba0-841f8c62d307" d="M860.4,457.4h-.1a.9.9,0,0,1,.6-1.5h.1l2.8,1.1a79.9,79.9,0,0,1,14.5,9l1.3,1,1.2,1.1a20.8,20.8,0,0,1,2.1,2.1c2.3,2.4,1,1.8-.6.7l-1.9-1.2-2-1.4-1.1-.9a77.8,77.8,0,0,0-14.2-8.8Z" transform="translate(-804.4 -427.5)"/>
    <path class="a65139ef-b26e-4487-8ba0-841f8c62d307" d="M864.9,456.1h0c-.3-.4-.4-1.2.7-1.4h.2l2.5,1.5a61.6,61.6,0,0,1,5.5,3.3l5.4,3.3,1.4.8.4.3.9.6,2.5,1.8c2.6,1.8,1.3,1.6-.6.8l-2.1-1-1.5-.7-.7-.4-1.2-.7-5.4-3.3a61.6,61.6,0,0,0-5.5-3.3Z" transform="translate(-804.4 -427.5)"/>
    <path class="a65139ef-b26e-4487-8ba0-841f8c62d307" d="M871.1,455.4H871c-.2-.5-.1-1.3,1.1-1.3h.1l1.1.9,1.2.8a19.4,19.4,0,0,0,2.4,1.5l2.4,1.5,1.5.8a35,35,0,0,1,3.7,2.6c2.6,2.1,1.2,1.7-.5.8l-2.1-1-2.2-1-1.2-.7-2.5-1.4-2.5-1.6-1.3-.9Z" transform="translate(-804.4 -427.5)"/>
    <path class="a65139ef-b26e-4487-8ba0-841f8c62d307" d="M879.7,456.2s-.1,0,0-.1a1.9,1.9,0,0,1,.9-1.4h0l.8.5.8.5,1,.6,1.8,1,.8.5.4.5.7.9c.7.9.1,1-.6.7s-1.5-.7-1.6-.6l-.7-.5-1.7-1-1-.6-.8-.5Z" transform="translate(-804.4 -427.5)"/>
    <path class="a65139ef-b26e-4487-8ba0-841f8c62d307" d="M862.9,498.4h-.1c-.2-.4-.3-1.2.9-1.4h.2l2.4,1.5,1.5.8,1.5.7,1.4.8,2.5,1.6c2.6,2,1.3,1.6-.5.9l-2.1-.9-2.3-1-1.2-.6a8,8,0,0,1-1.6-.8Z" transform="translate(-804.4 -427.5)"/>
    <path class="a65139ef-b26e-4487-8ba0-841f8c62d307" d="M861.7,493.4h-.1a1,1,0,0,1,.8-1.5h.2l2.5,1.3c2.4,1.3,5,2.4,7.6,3.6l1.5.6,1.4.8,1.2.9,1.3.9c2.6,1.9,1.2,1.6-.6.8l-.6-.3-1.4-.6-1.6-.7-.7-.3-1.2-.5c-2.6-1.2-5.2-2.3-7.7-3.6Z" transform="translate(-804.4 -427.5)"/>
    <path class="a65139ef-b26e-4487-8ba0-841f8c62d307" d="M863.1,489.8H863a.9.9,0,0,1,.3-1.6h.1a13.8,13.8,0,0,1,2.9.8,45.3,45.3,0,0,1,8.2,3.3l1.4.7,1.4.9,2.5,1.7c2.6,1.8,1.3,1.6-.5.8l-2.1-.9-1.6-.7-.7-.3-1.2-.6a48.4,48.4,0,0,0-7.9-3.2A27.6,27.6,0,0,0,863.1,489.8Z" transform="translate(-804.4 -427.5)"/>
    <path class="a65139ef-b26e-4487-8ba0-841f8c62d307" d="M866.9,485.8h-.1a.9.9,0,0,1,.5-1.6h.1l2.8,1,5.3,2.2,1.5.7,1.3.9,1.3.9,1.2.9c2.4,2.1,1.1,1.7-.6.8l-2-1-1.5-.7-.7-.3-1.3-.6-5.1-2.2Z" transform="translate(-804.4 -427.5)"/>
    <path class="a65139ef-b26e-4487-8ba0-841f8c62d307" d="M872.4,484.4h0a1.7,1.7,0,0,1,.5-1.6h.1l1.3.4,1.2.5,1.3.6,1.4.7,1.1.6,1.1.6.2.2.4.3,1,1.1c1.1,1.2.3,1.1-.6.8l-2-.9-1.1-.6-1-.6-1.3-.6-1.3-.6-1.1-.4Z" transform="translate(-804.4 -427.5)"/>
  </g>
</svg>
