<svg id="a319f191-b3ee-41fa-8df9-c4c903e36c6d" data-name="Objects" xmlns="http://www.w3.org/2000/svg" viewBox="0 0 71.75 162.77"><defs><style>.b7957d11-a7d6-4a46-bdbb-937f79021389{fill:#252525;}</style></defs><path class="b7957d11-a7d6-4a46-bdbb-937f79021389" d="M953.72,274.94a.24.24,0,0,1-.19-.1c-.62-.52-1.53-1.78.27-2.92a.78.78,0,0,1,.26-.1c.88.11,1.76.2,2.64.33l2.62.44a68.65,68.65,0,0,1,23.79,9.22,75.7,75.7,0,0,1,18.94,17.05,95.61,95.61,0,0,1,13,21.87,116,116,0,0,1,7.35,24.28,123.07,123.07,0,0,1,2.12,25.27,108.06,108.06,0,0,1-3.43,25.15,78.57,78.57,0,0,1-10.17,23.35l-1.12,1.63c-.14.22-.3.43-.45.64l-.95,1.26-.54.61-1.43,1.49a37.35,37.35,0,0,1-4.12,3.56,13.69,13.69,0,0,1-1.48,1,9.78,9.78,0,0,1-1,.56c-.5.23-.71.2-.7,0a3.11,3.11,0,0,1,.62-1.11c.36-.51.89-1.1,1.43-1.79-.16.1,1.24-1.43,2.52-3.1.65-.83,1.25-1.71,1.72-2.35s.74-1.11.74-1.11l.88-1.17.42-.6.77-1.14c.58-.82,1.07-1.7,1.61-2.54a78.89,78.89,0,0,0,8.83-22.4,107.23,107.23,0,0,0,2.74-24.09A119.74,119.74,0,0,0,1019,344a112.81,112.81,0,0,0-7.35-23.13,91.41,91.41,0,0,0-12.55-20.65,71.62,71.62,0,0,0-18-15.92,65.17,65.17,0,0,0-22.35-8.58l-2.51-.43C955.4,275.13,954.56,275.05,953.72,274.94Z" transform="translate(-952.74 -271.82)"/><path class="b7957d11-a7d6-4a46-bdbb-937f79021389" d="M995.93,415.31c0-.06,0-.08,0-.18a2.68,2.68,0,0,1,.73-1.15c.4-.33,1-.56,2,.13a.86.86,0,0,1,.22.24,12.45,12.45,0,0,1,.13,5.93,31.61,31.61,0,0,1-3.44,8.71v0l.72-.19c.44-.11.89-.24,1.34-.34l1.35-.27c.9-.17,1.8-.37,2.72-.46l1.49-.2.74-.09.75,0h.83c.52,0,1.24,0,2.07.07s1.78.18,2.71.29,1.88.4,2.71.6a5,5,0,0,1,1,.28l.77.28a9.76,9.76,0,0,1,1,.46c.49.27.58.46.4.57a3,3,0,0,1-1.26.18l-1,0a12,12,0,0,0-1.22,0,7.85,7.85,0,0,1-1.13,0l-1.3,0-1.52.08-1.53.08-1.34.17-1.31.16c-.8.06-1.59.2-2.39.29s-1.7.28-2.55.44l-1.27.25-1.26.32-1.45.38c-.73.2-1.48.47-2.2.7l-4.33,1.41-.54.18a1.22,1.22,0,0,1-.25.07l.16-.24.64-1,1.31-2c.44-.67.89-1.34,1.27-2s.81-1.3,1.17-1.95a28.12,28.12,0,0,0,3.1-7.8A9.27,9.27,0,0,0,995.93,415.31Z" transform="translate(-952.74 -271.82)"/></svg>