<svg id="e145ea53-f081-41c2-9bd3-63e5bee55f4b" data-name="Objects" xmlns="http://www.w3.org/2000/svg" viewBox="0 0 107.3 68.8">
  <defs>
    <style>
      .bc505a26-bdd1-45a7-bd09-ae879e75ae2c {
        fill: #252525;
      }
    </style>
  </defs>
  <g>
    <path class="bc505a26-bdd1-45a7-bd09-ae879e75ae2c" d="M480.2,116.2h.1l.5.5a1.2,1.2,0,0,1-.4.9h-.7l-.6.2-.8.2h-.2l-.9.4a9.2,9.2,0,0,0-3,2.9,18.7,18.7,0,0,0-2,4,23.2,23.2,0,0,0-1.3,4.5c-.3,1.6-.5,3.2-.7,4.8a41.7,41.7,0,0,0,0,5,31.6,31.6,0,0,0,1.9,10,14.3,14.3,0,0,0,2.5,4.3l.2.2.3.2.4.4.5.3.6.3,1.1.5,1.3.3a23.3,23.3,0,0,0,5.3.6h5.5l11.1-.8a54.2,54.2,0,0,1,5.7-.1l5.6.2a19.4,19.4,0,0,0,5.4-.5,6.3,6.3,0,0,0,2.4-.9l.5-.3.5-.5a.8.8,0,0,0,.4-.4l.2-.2.2-.3a4.5,4.5,0,0,0,.8-2.3,22.3,22.3,0,0,0,.3-2.7,7.9,7.9,0,0,1,.5-3,3.8,3.8,0,0,1,.9-1.3l.6-.6.8-.4a6.6,6.6,0,0,1,3.1-.2l2.8.7,2.6.8h.5v.3c0,.1,0,.3.1.3h-.7v-.2H534l-.3-.6-.3-.5a17.6,17.6,0,0,0-3.9-3.2l-4.5-2.9a12.4,12.4,0,0,1-2.1-1.8l-.5-.6-.4-.6a6.9,6.9,0,0,1-.5-1.3,16.9,16.9,0,0,1-.6-5.4,14.5,14.5,0,0,0-.3-4.7,5.7,5.7,0,0,0-2.6-3.3,10.4,10.4,0,0,0-4.2-1.4,35.9,35.9,0,0,0-4.6-.5c-2.9-.2-5.9-.2-8.7-.3l-8-.4H481.8c-2.7.1-1.8-.4-.1-.8l.5-.2,1.4-.2,1.4-.2h3.3l7.2.2,3.9.2,4,.2c2.7.1,5.6.1,8.7.4a20,20,0,0,1,4.6,1,6.5,6.5,0,0,1,2.2,1.1,7.9,7.9,0,0,1,2,1.7,6.6,6.6,0,0,1,1.1,2.4,7.3,7.3,0,0,1,.4,2.5c.1,1.7-.1,3.4,0,4.9a15.7,15.7,0,0,0,.4,2.3,3.6,3.6,0,0,0,.4,1.1l.3.5.2.2v.2a16.8,16.8,0,0,0,3.9,3c1.4,1,3,1.8,4.4,2.9l1.1.9,1,1,.9,1.2.3.7h0v.2a.6.6,0,0,1,.1.4,1,1,0,0,1-.5.7h-.7l-1.4-.3-1.2-.4-2.6-.7a10.1,10.1,0,0,0-2.4-.2,2.3,2.3,0,0,0-1,.4c-.2.1-.3.1-.4.3l-.3.4a5.2,5.2,0,0,0-.7,2.3c-.1.8-.1,1.7-.2,2.7a7.7,7.7,0,0,1-.7,2.9,5.7,5.7,0,0,1-.8,1.3l-.5.6-.5.5a10.1,10.1,0,0,1-1.3.9l-1.4.6a14,14,0,0,1-2.8.6,54.3,54.3,0,0,1-5.7.2l-5.5-.3a50.7,50.7,0,0,0-5.5.3c-3.7.3-7.3.6-11,.7a34.9,34.9,0,0,1-5.6-.1,20.3,20.3,0,0,1-5.4-.9,10.7,10.7,0,0,1-2.7-1.2,1.2,1.2,0,0,1-.5-.5l-.6-.4-.5-.6-.2-.2-.2-.3a16.2,16.2,0,0,1-2.5-4.9,48.7,48.7,0,0,1-1.2-5.2,45.5,45.5,0,0,1-.4-5.2,20.9,20.9,0,0,1,0-2.5,19.5,19.5,0,0,1,.2-2.5,38.5,38.5,0,0,1,.7-4.9,25.4,25.4,0,0,1,1.4-4.7,17.6,17.6,0,0,1,2.4-4.2A13.4,13.4,0,0,1,477,117l.8-.3a3.8,3.8,0,0,1,1-.3h1.4Z" transform="translate(-428.4 -93.3)"/>
    <path class="bc505a26-bdd1-45a7-bd09-ae879e75ae2c" d="M429.7,132.8h0c-.2.1-.5.3-.7.2a1,1,0,0,1-.6-.8h0a11.6,11.6,0,0,0,.6-2.2,8.8,8.8,0,0,1,.5-1.5l.2-.7.4-.7a13.5,13.5,0,0,1,1.5-2.6,17.2,17.2,0,0,1,4.1-4.4l1.1-.9.5-.5.3-.3a4.5,4.5,0,0,0,.1-1.2v-1.5a20,20,0,0,1,1.2-5.9,23.9,23.9,0,0,1,6.7-9.9,33,33,0,0,1,4.9-3.4,22.8,22.8,0,0,1,5.6-2.3,24,24,0,0,1,11.9-.4,28.8,28.8,0,0,1,10.8,5,21.2,21.2,0,0,1,7,9.7c0,.1.1.3.1.4v.2h0v.6c0,.2.1.5.1.7v.8h0c.1,0,0-.1,0,0h.1v1.6a5.3,5.3,0,0,1-.1,1.3c-.3,2.7-.6,1.6-.8,0a2.8,2.8,0,0,0-.1-.6c0-.3-.1-.8-.1-1.2a2.5,2.5,0,0,1-.2-.7v-.2h-.1v-.3a2.1,2.1,0,0,1-.1-.6c-.1-.2-.1-.4-.2-.6v-.3h0v-.2a.8.8,0,0,0-.1-.4,6.1,6.1,0,0,0-.5-1.2,19.8,19.8,0,0,0-6.9-8.5,24.5,24.5,0,0,0-21.3-3.5l-1.3.5-1.2.5-1.3.6-1.2.7a30.7,30.7,0,0,0-4.5,3.3,21.7,21.7,0,0,0-6,9.2,25.5,25.5,0,0,0-1.1,5.5v1.4a2.2,2.2,0,0,0-.1.8l-.3.9a4.5,4.5,0,0,1-1.2,1.2l-1.1.9a21,21,0,0,0-3.8,4.1l-.7,1.2-.6,1.2-.6,1.2-.3,1.3A14.4,14.4,0,0,1,429.7,132.8Z" transform="translate(-428.4 -93.3)"/>
    <path class="bc505a26-bdd1-45a7-bd09-ae879e75ae2c" d="M430.2,132.5h-.1a.8.8,0,0,1-1.1-.9h.1l.8-1,1-.8.7-.6.8-.6,1.6-1,1.3-.6.3-.2.9-.3,2.5-.6c2.7-.4,1.7.2.2.8l-1.7.8-1.2.6-.6.3-1,.5-1.5.9-.7.6-.7.5-.8.8Z" transform="translate(-428.4 -93.3)"/>
    <path class="bc505a26-bdd1-45a7-bd09-ae879e75ae2c" d="M439.6,126.7h0c0-.4.2-1.1,1.1-.8h.2l.6,1,.7.9a24.9,24.9,0,0,0,4.4,4.2,25.8,25.8,0,0,0,5.3,3.2,28.1,28.1,0,0,0,5.8,1.9l1.5.3h3l1.3.2h2.4c2.7,0,1.7.5.1.9l-2,.2h-3.8l-1.6-.2-1.5-.3a30.4,30.4,0,0,1-6-2.1,33,33,0,0,1-5.5-3.2,24,24,0,0,1-4.5-4.5,3.9,3.9,0,0,1-.8-1Z" transform="translate(-428.4 -93.3)"/>
    <path class="bc505a26-bdd1-45a7-bd09-ae879e75ae2c" d="M485.4,134h.1a.9.9,0,0,1,.1.7c-.1.3-.4.4-.8.6h-.1a1.9,1.9,0,0,0-1.8.1,1.1,1.1,0,0,0-.4,1.7c0,.1.1.1.1.2h.1v.2h.4a1.5,1.5,0,0,0,1,.1,1.9,1.9,0,0,0,1-.3l.8-.7a2.5,2.5,0,0,0,.2-.7v-.5c-.1-.3,0-.4.1-.4s.3.2.5.5a3.1,3.1,0,0,1,.1,1.4v.2l-.2.5a4,4,0,0,1-1.4,1.1,3.5,3.5,0,0,1-1.7.4h-.9c-.3,0-.5-.2-.8-.4l-.3-.3V138a2.5,2.5,0,0,1-.4-2.1,2.6,2.6,0,0,1,1.4-1.8,2.9,2.9,0,0,1,1.6-.4A2.3,2.3,0,0,1,485.4,134Z" transform="translate(-428.4 -93.3)"/>
    <path class="bc505a26-bdd1-45a7-bd09-ae879e75ae2c" d="M495,134.1h.1c.1.1.3.4.2.6s-.3.5-.6.7h-.1a1.8,1.8,0,0,0-1.6.4,2,2,0,0,0-.6,1.4,1.5,1.5,0,0,0,.8,1.2h1.1l.7-.2a2.1,2.1,0,0,0,1.1-1.6,4.3,4.3,0,0,0-.4-1.1q-.1-.3,0-.3a.5.5,0,0,1,.5.3,1.8,1.8,0,0,1,.7,1.1c0-.1.1.2,0,.7a2.9,2.9,0,0,1-.7,1.5,4.1,4.1,0,0,1-1.4,1l-.8.2-1.5-.3a3.6,3.6,0,0,1-1.1-1,3.3,3.3,0,0,1-.4-1.4,3.1,3.1,0,0,1,1-2.6A3.2,3.2,0,0,1,495,134.1Z" transform="translate(-428.4 -93.3)"/>
    <path class="bc505a26-bdd1-45a7-bd09-ae879e75ae2c" d="M504.7,134h.2c.1.2.3.5.2.7s-.2.5-.6.7h-.1a1,1,0,0,0-1.2.6,1.1,1.1,0,0,0-.1,1,.9.9,0,0,0,.4.8.8.8,0,0,0,.7.2h.3l.6-.3a1.3,1.3,0,0,0,.7-.6,1.6,1.6,0,0,0,.1-1,1.9,1.9,0,0,0-.6-1q-.2-.3,0-.3c0-.1.3,0,.5.2a1.6,1.6,0,0,1,.9.9,3.1,3.1,0,0,1,.2.7,2.5,2.5,0,0,1-.1.8l-.4.8a2.9,2.9,0,0,1-1.4,1.1,2,2,0,0,1-.8.2,2.4,2.4,0,0,1-1.6-.4,3,3,0,0,1-1-1.8,2.6,2.6,0,0,1,.3-1.9,2.3,2.3,0,0,1,1.2-1.2A2.9,2.9,0,0,1,504.7,134Z" transform="translate(-428.4 -93.3)"/>
    <path class="bc505a26-bdd1-45a7-bd09-ae879e75ae2c" d="M457.6,110.6h0a.7.7,0,0,1,.1.5c0,.3-.1.6-.1.9h.2l.2-.2h.2c.1,0,.2-.1.1-.3s-.1-.3-.1-.4v-.2h.3c.1-.1.3,0,.5.1a1.1,1.1,0,0,1,.5.8v.5c0,.1-.1.2-.1.3l-.2.3v.2l-.6.4a1.8,1.8,0,0,1-1.1.3l-.6-.2-.6-.4a1.7,1.7,0,0,1-.5-1.3,1.8,1.8,0,0,1,.7-1.1l.9-.3Z" transform="translate(-428.4 -93.3)"/>
    <path class="bc505a26-bdd1-45a7-bd09-ae879e75ae2c" d="M466.2,110.7h0v.6l-.4.8h-.5a.1.1,0,0,0-.1.1h.6a.1.1,0,0,0,.1.1c.1,0,.2-.1.3-.4s.1-.6.3-.6.3.1.5.4a1,1,0,0,1,.2.9,1.4,1.4,0,0,1-.6,1l-.4.2h-.8l-.9-.4a1.5,1.5,0,0,1-.8-1.1,1.5,1.5,0,0,1,.4-1.4,1.4,1.4,0,0,1,1-.6A3.4,3.4,0,0,1,466.2,110.7Z" transform="translate(-428.4 -93.3)"/>
    <path class="bc505a26-bdd1-45a7-bd09-ae879e75ae2c" d="M451.1,114.3c-.1-.1-.1-.1,0-.1s.3-.5.5-.5a.9.9,0,0,1,.9.3h.1a7,7,0,0,0,5.7,6.3,11.4,11.4,0,0,0,6.6,0l1.2-.5,1.2-.6a9.5,9.5,0,0,0,1.9-1.6l.5-.7c.1-.2.3-.3.3-.4s.3-.3.4-.2a4.8,4.8,0,0,1-.5,1.8l-.3.5a6,6,0,0,1-1.1,1.2,6.8,6.8,0,0,1-1.8,1.4c-.2.2-.5.2-.7.3l-.6.2a12.3,12.3,0,0,1-7.6.1,12.9,12.9,0,0,1-3.5-1.8,8.6,8.6,0,0,1-2.5-3.1A6.4,6.4,0,0,1,451.1,114.3Z" transform="translate(-428.4 -93.3)"/>
    <path class="bc505a26-bdd1-45a7-bd09-ae879e75ae2c" d="M475,120.4h0a1.9,1.9,0,0,1,.2-1.4h3.5l1,.4c.7.4.4.7,0,.9l-1,.3H475Z" transform="translate(-428.4 -93.3)"/>
    <path class="bc505a26-bdd1-45a7-bd09-ae879e75ae2c" d="M473.2,123.3h-.1a3.8,3.8,0,0,1,.4-1.4h3.3l.5.2c.7.3.5.7.1.9l-.4.2h-3.8Z" transform="translate(-428.4 -93.3)"/>
    <path class="bc505a26-bdd1-45a7-bd09-ae879e75ae2c" d="M471.3,126.5h0a5.4,5.4,0,0,1,.2-1.5h2.4a1.8,1.8,0,0,1,.6.5c.5.3.2.7-.1.8s-.7.3-.7.3Z" transform="translate(-428.4 -93.3)"/>
    <path class="bc505a26-bdd1-45a7-bd09-ae879e75ae2c" d="M430.1,132.6H429v-.2a.7.7,0,0,1,.1-.5c0-.1,0-.2.1-.2a3.3,3.3,0,0,1,1.3-.7l1.2-.5a38.8,38.8,0,0,1,4.5-1.4,5.7,5.7,0,0,1,2.6-.1,5.4,5.4,0,0,1,2.4.9,14.5,14.5,0,0,1,1.8,1.6l1.7,1.6,1.8,1.3.9.7.9.5a30.4,30.4,0,0,0,8.2,3.7l2.1.6,2.3.4.8.2h.8l1.3.2,1.3.3,1.3.2c2.9.4,1.8.7,0,.8h-5.1l-1.2-.2-1.2-.2h-.5l-.6-.2-2.2-.6-2.2-.8-1.1-.4-1-.5-2.1-1-2-1.2-1.9-1.3-.9-.7-.9-.7c-1.2-1-2.2-2.2-3.3-3a4.9,4.9,0,0,0-1.7-.6,4.6,4.6,0,0,0-2,.2,34.5,34.5,0,0,0-4.3,1.2l-1.1.5Z" transform="translate(-428.4 -93.3)"/>
    <path class="bc505a26-bdd1-45a7-bd09-ae879e75ae2c" d="M434.5,130.1h-.1a.8.8,0,0,1-.5-1.4h.1l2.5-.8,1.7-.5h.8c.2.6-.6-1.5.5,1.4h-.1l-.8.3-3.3,1.1h-.5l-.5-1.4h.3l.8-.3,1.6-.6h0l.8-.3.7-.3h.3c-.1,2.8-.1.8-.1,1.4H438c-.1-.7.2,1.5-.3-1.5h.2l.9-.2h.9c.1.7-.2-1.5.3,1.5h-.1l-1.5.5h0l-.7.3h-.5c.4,1.3-.5-1.8-.4-1.5h.2l1.1-.2,1.1-.3h.4c-1,1.5-.3.4-.5.8h0c1.1-.1.3-.1.5-.1h.2c0-.4-.1.7-.1.6h0l.6-1.3h.1v.2l.7.7a4.6,4.6,0,0,0,.7.7l.4.3h.1c-.4.6,1-1.2-1,1.2h0l-.3-.2h0l-.8-.7-.7-.8-.4-.4H439c-.3.2,2.2-2,1.2-1h0l.2.2.6.8h0l.3.2a20.9,20.9,0,0,0,1.4,1.7l.3.4h.1l-1.1,1.1h-.1l-.2-.2-.7-.7h0a8.8,8.8,0,0,0-1.7-1.2,2.5,2.5,0,0,0-1.7-.4h0l-1.2.3h-.3l-1.2.4h0c-.1-.4-.1-.8-.2-1.3a4.3,4.3,0,0,0,2.1-.4l.5-.2.3.5c-1.6.5-1.3,0-.3-.7h0l.4.7c-.1.2-.3.3-.5.5a5.5,5.5,0,0,1-2.5,1l-.3-1.3a6.7,6.7,0,0,1,1.2-.6l.5-.2,1.4-.3a4.8,4.8,0,0,1,2.6.6,13.3,13.3,0,0,1,1.9,1.4h0l.8.8.2.2h.1l-1.1,1.1h-.2l-.3-.4-1.4-1.6-.3-.3h0l-.7-.9-.2-.2h0l1.2-1h.2l.3.4.8.7.7.7.2.2h.1c-1.9,2.5-.5.7-1,1.2h-.1l-.4-.3-.8-.8-.8-.8v-.2h-.1c1.2-2.5.3-.7.6-1.3h.4a.8.8,0,0,1,.5.5v.2h0l-.5.7h-.4l-1.3.3-1.2.3H437c.1.3-.9-2.8-.5-1.5h.6l.7-.4h0l1.6-.5h.1c.5,3,.1.8.2,1.5h-1.5c-.5-3.1-.1-.9-.2-1.6h.8l.5.2h.1c0,.7.1-1.4,0,1.5h-.3l-.8.3-.8.3-1.5.5-.7.3H435c.2.3-1-2.8-.5-1.5h.5a18.2,18.2,0,0,0,3-1.1h0l.9-.3h0c1.2,2.9.4.8.6,1.4h-.4l-.4.2-1.7.5Z" transform="translate(-428.4 -93.3)"/>
    <path class="bc505a26-bdd1-45a7-bd09-ae879e75ae2c" d="M441.9,130.5h0c-.1-.4-.1-1.2,1-1.1h.1l.9.9,1,.8,1.2.9,1.1.8.6.4.3.2h.2c-.3.7.8-1.3-.7,1.4h-.1l-1.4-.7h0a27.1,27.1,0,0,1-3.5-2.4h-.2c2.1-2.3.6-.7,1-1.2h0l.2.2.4.3a2.3,2.3,0,0,0,.7.7l.7.7.8.6h0l3,1.9,1.6.8.8.3h.4c.1-.3-1.1,2.7-.6,1.4h0l-.5-.2-3.3-1.7-1.6-1.1-.8-.5h-.3c-.8,1.1,1.2-1.5,1-1.2h.1l.3.3h0l1,.7,1,.6,2.2,1.1a36.6,36.6,0,0,0,4.6,1.8h0l2.5.9,1.3.4.6.3h.2l-.4,1.4h-.4l-2.7-.6-2.6-.8h-.1c.1-.7-.3,1.5.3-1.5h1.3l1.3.2,2.7.5,5.2,1.2h.3c.2-1.3-.2,1.9-.2,1.6h-1.6l-2-.3h-1.1l-1-.2h-.5c-.2,1.4.2-1.9.1-1.6h1.5l3.9.2,1.9.3h.5c0-.3-.6,2.9-.3,1.5h-.5l-1-.2-.9-.4h-.3l.4-1.5h.6l1.9.3.9.2h.1c0-.3-.2,3-.1,1.6h-1l-1-.2-.5-.2h-.2c.6-3,.2-.8.3-1.5h2.4c-.7,3-.2.9-.4,1.5h-.1c.3-3,.1-.8.2-1.5h.7l.8.2a3.8,3.8,0,0,1,1.1,1.1,6.5,6.5,0,0,1,.4,1.3v.6h0l-1.1.2h-.1l-.2.2-.2-.2-.2-.2h-.3l-.9-.5a1.7,1.7,0,0,1-.6-.6c0-.1-.2-.2.1-.3h.6c0,.1.1.1,0,.2v.2h0c-.1.2,0,.3.1.5s.1.2-.1.1h-.1c0-.1.1-.2.1-.3v-.6h0a.2.2,0,0,0,0-.3h0l1.6-.2h0v1.8h0l-1.4-.3h.1a.4.4,0,0,1,.1-.3c0-.2.1-.3.1-.5v-.2h0v-.4h1.6v1h0v.4h0v.3h0c1.2.2-1.7-.1-1.4-.1h0c0-.1.1-.2.1-.4s.1-.2.1-.4v-.4a.3.3,0,0,0,.1-.2h0v-.3h-1.6l.6-.5.5-.2,1-.4h.3c0,.1.1.2.1.3s.1.6.1.9.1.4.1.5v1.6h0l-1.4-.2h0v-.2c-.1,0-.1-.1-.1-.2h0v-1.5h1.5v.5h0v.2a2.4,2.4,0,0,1-.2.8.8.8,0,0,1-.1.4h-.1l-1.5-.4h0v-1.8h0c3.1-.3.9-.1,1.6-.1h0a2.7,2.7,0,0,1,0,.9v.2l.5.2.6.5h.1l-1.4.3h0v-.2a1.4,1.4,0,0,0-.2-.6c-.1-.2-.3-.4-.4-.4h-.5c.1-.6-.1,1.5.2-1.5h.1c-.2.7.3-1.5-.3,1.5h-2.4c.1-.7-.3,1.5.3-1.5h.1l.4.2.8.2h.8c.1-1.4-.2,1.9-.1,1.6h-.1l-1-.2-1.8-.4h-.6l.4-1.5h.3l.8.3.9.2h.3c.3-1.4-.3,1.9-.2,1.5h-.5l-1.8-.2c-1.2-.2-2.5-.2-3.7-.3h-1.5c0,.3.4-2.9.2-1.5H460l1,.2,1.9.2h1.7c0-.3-.4,3-.2,1.6H464c-1.8-.3-3.5-.8-5.2-1.2l-2.6-.5-1.3-.2h-1.2c.6-3,.2-.8.3-1.5h.1l2.5.8,2.5.5h.5c.3-1.3-.5,1.8-.4,1.5H459l-.7-.2-1.2-.4-2.5-.9h0l-4.8-1.9-2.3-1.1a4.1,4.1,0,0,0-1.1-.7l-1-.8h0l-.4-.3h-.1l1-1.3h.2l.8.6,1.5.9a18.7,18.7,0,0,0,3.1,1.7h.5c.5-1.3-.7,1.7-.6,1.4H451l-.8-.4-1.7-.8a22,22,0,0,1-3.2-2.1h0l-.9-.6-.8-.7-.7-.7-.4-.4-.2-.2h0c.5-.5-1.1,1.1,1.1-1.2h.2a27,27,0,0,0,3.3,2.2h0l1.2.6h.1l-.7,1.4h0l-.2-.2-.3-.2-.6-.4a5.7,5.7,0,0,1-1.3-.8l-1.2-1-1-.8Z" transform="translate(-428.4 -93.3)"/>
    <path class="bc505a26-bdd1-45a7-bd09-ae879e75ae2c" d="M467.1,139.3h.1c.1.1.4.3.5.5a1.2,1.2,0,0,1-.4,1h-.1a12.9,12.9,0,0,1-2.8-.1h-.3v-1.5h.1l3.1.3.7.2h.5c-.3,3-.1.9-.1,1.5h-4.3c0,.3.3-2.6.2-1.3h.4l2.6.3c2.8.4,1.7.7-.1.9h-2.9l.2-1.4h2.2l1.3-.2h.1c-.1.7.1-1.5-.2,1.5h-.5l-.6-.2a10.9,10.9,0,0,0-2.6-.3h-.1v-1.5h.3Z" transform="translate(-428.4 -93.3)"/>
    <path class="bc505a26-bdd1-45a7-bd09-ae879e75ae2c" d="M469.2,140.8h-.1l-1.3.5h-.1l.4-.2h.6a2.6,2.6,0,0,1-.9,0l-.3-.2h0v-.2h0v-.2h.1v-.2h1.1a.3.3,0,0,0,.1.2h.2Z" transform="translate(-428.4 -93.3)"/>
    <path class="bc505a26-bdd1-45a7-bd09-ae879e75ae2c" d="M434.1,129.6h0a2.4,2.4,0,0,1-1.5,0h0l.9.7h-.4l-.5-1.4h1.1l1.6.2-1.2.4c-.7.2-.8-.2-.6-.6l.5.8h0l-1,.7h0c.2.3-.9-2.8-.5-1.5h1.3c-.1-.1-.2,0-.2.1h-.3l-.4.3-.5.2h-.5l-.3.2h.2l.7-.4.3-.2h.4l.9-.3v1.1Z" transform="translate(-428.4 -93.3)"/>
    <path class="bc505a26-bdd1-45a7-bd09-ae879e75ae2c" d="M469.4,130.6h0l.3-.5.7-.6h-.1l-.2.3h0v-.2h.4a.6.6,0,0,1,.1.4,1,1,0,0,1,0,.9l-.2.2h-1.1Z" transform="translate(-428.4 -93.3)"/>
    <path class="bc505a26-bdd1-45a7-bd09-ae879e75ae2c" d="M470.6,130.1h0a13,13,0,0,1,.5-1.4h0l.8.3a.4.4,0,0,1,.2.4.7.7,0,0,1-.3.8l-.3.3Z" transform="translate(-428.4 -93.3)"/>
    <path class="bc505a26-bdd1-45a7-bd09-ae879e75ae2c" d="M468,140.8h0a.9.9,0,0,1,1.5,0,.1.1,0,0,0,.1.1v2.6a34.7,34.7,0,0,0,.8,5.5,17.7,17.7,0,0,0,2.1,5.1,10.5,10.5,0,0,0,.8,1.1l.4.6.4.5a8.7,8.7,0,0,0,2.1,1.7,13.1,13.1,0,0,0,5.1,1.9,41.7,41.7,0,0,0,11.2.6l5.7-.5,5.8-.5,5.8-.4h5.7a11.7,11.7,0,0,0,5.3-1,5.3,5.3,0,0,0,2-1.6,7,7,0,0,0,1-2.3,23.6,23.6,0,0,0,.4-2.8c.2-.9.3-1.9.6-2.9a4.4,4.4,0,0,1,.8-1.5,3.3,3.3,0,0,1,1.5-1.1l1.6-.3h3l.7.2,1.3.5h.7c.1.1.1,0,.2,0v-.4c0-.6-.1-1.1-.1-1.3s-.1-.4,0-.4l.5.5.3.5a6.4,6.4,0,0,1,.2.7,2.4,2.4,0,0,1,.1.9c0,.2.1.4.1.6H534l-1.5-.3h-.7l-.7-.2h-3.4l-.8.5a5.3,5.3,0,0,0-.9,2.3,33.4,33.4,0,0,1-1.1,5.7,5.6,5.6,0,0,1-1.8,2.6,7.2,7.2,0,0,1-2.7,1.5,16.6,16.6,0,0,1-5.8.8H509l-5.7.4-2.8.2-2.8.3-5.7.5a43.8,43.8,0,0,1-11.4-.7,16.3,16.3,0,0,1-5.5-2.2,11.4,11.4,0,0,1-2.3-2,17.7,17.7,0,0,1-1.7-2.4,23.4,23.4,0,0,1-2.2-5.5,28,28,0,0,1-.8-5.7A24.4,24.4,0,0,1,468,140.8Z" transform="translate(-428.4 -93.3)"/>
    <path class="bc505a26-bdd1-45a7-bd09-ae879e75ae2c" d="M472.8,152.3h.1c.1.3.2,1.1-.9,1.1h-.1l-.3-.2h-.2c-.3.3,2-2.1,1.1-1.1h.1l.5.5.5.6.2.3,1.1,1.1.5.6.6.5,1.2.9,1.3.9.3.3h.1c-1.5,2.8-.4.8-.8,1.4h-.2l-.8-.4-1.3-1h0a18.4,18.4,0,0,1-2.2-1.7l-1.1-.8-.5-.4h-.4c-.2.2,2-2.2,1-1.2h0v.2a18.5,18.5,0,0,0,3.7,3.7h0a7,7,0,0,0,2.4,1.3h0c-.4.4,1-.9-1,1h-.1c0-.1-.1-.2-.1-.3l-.4-.5-1-.9-2.3-1.8h-.3l1-1.2h.1l.3.3.5.4,1.2,1h0a10.8,10.8,0,0,0,3.4,2h.2c-1.5,2.6-.4.7-.7,1.3h-.2l-.4-.3-.7-.7-1.7-1.3h-.2l.8-1.3h.4l.6.3,1.1.5,1.1.5,1.1.5,2.3.9h.2c-.3.6.7-1.3-.7,1.4h-.1l-.2-.2-.5-.3-.5-.2-.5-.3-.7-.2h-.2c.2-.7-.5,1.5.5-1.5h.4l1.4.4,2.8.7h0l1.2.3H488c.1-.3-.9,2.9-.5,1.5h-.2l-1.1-.4-1.2-.2-2.6-.3h-.8c-.1,1.3.1-1.9.1-1.6h1.8l4.4.2H495c.1-1.4,0,1.9,0,1.5h-.2l-2.3-.3h0a18.6,18.6,0,0,0-4.1.1h-1.5l-.4.2H486c-.1.3.1-2.7,0-1.4h.4l.8.2a17.4,17.4,0,0,0,4.5-.2h4.7l2.3.2h2.2c.1-.3-.2,2.9-.1,1.5h-.1l-2.3-.2-2.2-.2h-4.5c0,1.4.1-1.9,0-1.6h12.4v1.6h-5.2c0-.7.2,1.6-.1-1.5h.1l1.4-.2a48.7,48.7,0,0,1,5.4-.1h3.9c.2,3.1,0,.9.1,1.6h-4.5l-1.7-.3h-.1c0-.7-.1,1.5.1-1.5H505c2.3-.1,4.4.2,6.5.2h2.8V159h-4.2c0-.6-.1,1.6,0-1.5h8c-.2.6.3-1.5-.4,1.5h-3.1c-.1,1.2.3-1.7.2-1.4h.8l1,.3,1.1.2c2.8.4,1.7.7-.1.8h-3.1c-.1.4.3-2.6.1-1.4h1.9l.7.2h.3l.6.2h.4c-.7,2.9-.2.8-.4,1.5h-7.9c.1-3.2,0-.9,0-1.6h4.3V159h-3.1c-2.1-.1-4.2-.3-6.3-.2h-1.4c.1-3,0-.8.1-1.5h0l1.5.2h4.4c0,.7-.1-1.6.1,1.6h-9.3l-1.3.2h-.1c-.3-3.1-.1-.8-.2-1.5h5.3v1.6H497l-3.3.2h-2.1c0,.3.1-3,0-1.6h4.7l2.3.2,2.3.3h.1c.1-1.4-.2,1.9-.2,1.6h-9a25,25,0,0,1-4.8.2h0l-1.1-.3h-.6c0,1.3.1-1.7.1-1.4h0l.6-.2.5-.2h.6l1.1-.2a16.2,16.2,0,0,1,4.4,0h0a10.1,10.1,0,0,1,2.5.3h.2c0-.3-.1,2.9-.1,1.6h-7.3l-4.5-.2h-1.7c0,.3.2-3,.1-1.6h.9l2.5.4,1.3.2,1.4.4h.2c.4-1.4-.6,1.8-.5,1.5h-.4l-.6-.2-1.3-.3h0l-2.8-.7-1.4-.4h-.5l.5-1.5h.3l.7.3h0l.6.3.6.3.6.3.2.2h.1l-.7,1.4h-.2l-2.4-.9-1.1-.4-1.2-.6-1.1-.5-.6-.3h-.4l.9-1.4h.2l1.7,1.3.8.7.4.4h.2c-.3.6.8-1.3-.7,1.3h-.4a12.6,12.6,0,0,1-3.9-2.3l-1.2-1-.5-.4-.3-.3h-.1c-.8,1.1,1.2-1.5,1-1.2h.3l2.3,1.8,1.2,1.1.5.7a.8.8,0,0,1,.2.4v.2h.1l-1,1h0a10.6,10.6,0,0,1-2.8-1.5h0a19.4,19.4,0,0,1-4-4.1h-.1c-1,1,1.2-1.4,1-1.2h.2l.3.2.5.4,1.2.9,2.1,1.7h0l1.2.8.7.4h.2c-.3.6.8-1.4-.8,1.3h-.1l-.3-.3-1.3-.9a6.9,6.9,0,0,1-1.3-1.1l-.7-.5-.5-.6a13.6,13.6,0,0,1-1.2-1.2l-.2-.2-.5-.6-.6-.7h-.1c-.9,1,1.3-1.4,1.1-1.1h.2Z" transform="translate(-428.4 -93.3)"/>
    <path class="bc505a26-bdd1-45a7-bd09-ae879e75ae2c" d="M504.2,157.3h.1c.4.3.9.9,0,1.5h-.1l-2.6-.2h-5.8c-.1-.7.1,1.5-.2-1.6h.2l2.1-.2h6.5c-.3,3.1-.1.8-.2,1.5h-6.8v-1.1l1.4.2c2.8.5,1.7.8-.1.9h-1.4v-1.2l1.8-.3h5.2c0,.7.2-1.6-.1,1.5h-3.4l-2.8.2h0l-2,.2h-.2c-.4-3.1-.1-.9-.2-1.6h6.1Z" transform="translate(-428.4 -93.3)"/>
    <path class="bc505a26-bdd1-45a7-bd09-ae879e75ae2c" d="M480.5,158.4h.1a1.1,1.1,0,0,1,.3.7c0,.3-.2.5-.6.8h-.6l.4-1.4h.5l.2.2h.3l.5.2a16.7,16.7,0,0,0,3.9.3h1.9c-.1-1.4,0,1.9,0,1.6h-7c0,.3.3-2.9.2-1.5h0l2.4.2,1.1.2h11.1c.1.7,0-1.6.1,1.5h-.2a40.9,40.9,0,0,0-5,.1l-.6.2h-.2c-.1,1.3,0-1.8,0-1.5h.3l.6.2h6.5c2.8.2,1.7.6,0,.9l-2.3.3h-4.6l-.7-.2h-.3c0,.3.1-2.8,0-1.5h1a31.7,31.7,0,0,1,5.3-.1h.2c.1,3.1,0,.8,0,1.5H482.8l-2.4-.3h-.1c-.1,1.4.2-1.9.2-1.5h1.1l1.2.2h4.6v1.6h-1.8a15.7,15.7,0,0,1-4.3-.4l-.7-.2h-.7l-.3-.2h-.3c-.1.3.7-2.7.4-1.4h.8Z" transform="translate(-428.4 -93.3)"/>
    <path class="bc505a26-bdd1-45a7-bd09-ae879e75ae2c" d="M495,157.3h.1a1.6,1.6,0,0,1,.1,1.4h0c-.1-.2,0-.2-.1-.3H495v-.9l2.9.3v1.6h-2.7v-1.5h1.5c1.1.4.5.7-.1.9H496l-.9.2v-1.4h2.7v1.6l-2.9-.3-1.7-.2,1.2-1.2.4-.2Z" transform="translate(-428.4 -93.3)"/>
    <path class="bc505a26-bdd1-45a7-bd09-ae879e75ae2c" d="M494.8,159.1h.1v.3a.4.4,0,0,1,.1.3.7.7,0,0,1-.2.9h0v-.3h.1a.3.3,0,0,1,.1-.2v-.4h2.6v1.6h-2.5v-1.6h1l1.1.2c1.2.1.8.5.1.8l-.8.3-1,.2h-.4v-1.6h2.7v1.6h-3.7v-.3a.8.8,0,0,1,.2-.5l.3-.3h.3Z" transform="translate(-428.4 -93.3)"/>
    <path class="bc505a26-bdd1-45a7-bd09-ae879e75ae2c" d="M518.1,158.4h-.2a.7.7,0,0,1-.6-.3,1.2,1.2,0,0,1,.1-1h.1a10.7,10.7,0,0,0,1.9-1.3,3.9,3.9,0,0,1,1-.8l.2-.2h.2l.8,1.4h-.1l-.5.3h0a13.8,13.8,0,0,0-2.5,1.7l-.6.5h-.1c.2.3-1.2-2.5-.6-1.3h.7a8.3,8.3,0,0,0,1.5-.4h0l1.6-.7.8-.4h.1c-.1-.4.7,2.8.4,1.4h-.7a6.9,6.9,0,0,0-2.7,1.6h0l-.3.3h0c-.2-.6.4,1.3-.5-1.3h.9l1.3-.7.6-.4.3-.2.2-.2h.1c-.1-1,.1,1.4.1,1.1h-.9l-1,.7-.3.4h0c.1.1-1.3-1.2-.7-.7h.2a3.4,3.4,0,0,0,1.2-.4l1.1-.8h0l.4-.3.2-.3h0l.4.8h-.1a.6.6,0,0,0-.5.2l-.4.2a2.3,2.3,0,0,0-.7.7h0l-.9-.9.9-.4.9-.6c2.3-1.7,1.8-.7.6.7l-.5.4c-.2.2-.3.4-.5.5l-.8.6h0l-.9-.9a5.7,5.7,0,0,1,1.1-1.4l.7-.4a2.1,2.1,0,0,1,1.2-.3h.6c.9,1.6.2.4.4.8h-.1v.2a2.4,2.4,0,0,1-1,1.2h0a7.1,7.1,0,0,1-1.4,1,7.6,7.6,0,0,1-1.8.6h-.4l-.7-.6h0a1.1,1.1,0,0,1,.1-.8c.1-.4.4-.6.6-.9a4.9,4.9,0,0,1,1.5-1,4.5,4.5,0,0,1,1.1-.3,2.2,2.2,0,0,1,1.3.3h0c0-.2.2,2.3.1,1.2h-.3l-.4.3-.7.5a4.4,4.4,0,0,1-1.7.8l-.5.2h-1.1c-.9-2.6-.2-.7-.4-1.3h0l.3-.3h0a8.5,8.5,0,0,1,3.4-2.1h1c-.4-1.4.4,1.8.3,1.5h0l-.9.4-1.6.7h0a11.5,11.5,0,0,1-1.7.6h-.9c.6,1.2-.8-1.7-.6-1.4h0l.7-.6a13.8,13.8,0,0,1,2.8-1.9h0l.6-.3h.1l.7,1.3h-.4l-.9.8A13,13,0,0,1,518.1,158.4Z" transform="translate(-428.4 -93.3)"/>
    <path class="bc505a26-bdd1-45a7-bd09-ae879e75ae2c" d="M522.6,156.2h-1l-.3-.3c0-.1-.1-.2-.1-.4s-.1-.1,0-.1a5,5,0,0,1,.5-1.3l.7-1.2.7-1.3.2-.4h.1l1.2.8h0v.2l-.2.2h0a6.3,6.3,0,0,0-.7,2.6v.3h0c.3,0-2.4-.8-1.2-.5h.1v-.2a.2.2,0,0,0,.2-.2,5.6,5.6,0,0,0,.4-1.2h0a16.4,16.4,0,0,0,.2-2.3v-1.8H525v.3a15.7,15.7,0,0,1-.3,2.4c0,.4-.1.8-.1,1.2v.7H523v-.2h0v-1.1a2.8,2.8,0,0,0,.1-.9s.1-.6.2-1.4a26.8,26.8,0,0,1,.7-2.7l.3-.8.3-.5h.3c-.1,0,0,.1,0,.1H525a.3.3,0,0,0,.1.2h0c0,.3-.1.8-.1,1.4v.5a7.1,7.1,0,0,0-.1,1.5v4.1h0v.2H523v-.4c-.1-.2,0-.4,0-.7a4.9,4.9,0,0,1,.1-1.2q.1-1.4.3-2.4v-.3H525v2c-.1.8-.1,1.6-.2,2.5h0a17.7,17.7,0,0,1-.6,1.7l-.3.4-.3.3-.2.2h-.1c1.2.3-1.5-.6-1.2-.5h0v-.2a1.1,1.1,0,0,1-.1-.5c0-.3.1-.6.1-.9a2.4,2.4,0,0,0,.2-.8l.6-1.6h0l.3-.4.3-.4h.1l1.2.8h0v.2l-.2.4a10,10,0,0,1-.8,1.4l-.6,1.1A5.4,5.4,0,0,0,522.6,156.2Z" transform="translate(-428.4 -93.3)"/>
    <path class="bc505a26-bdd1-45a7-bd09-ae879e75ae2c" d="M525.2,147.1h-.3l-.2.2H524l-.3-.5v-.2a2,2,0,0,1,.4-.8l.4-.6,1.1-1,1.1-.6h.7c.3.6-.5-1.4.6,1.4h-.1l-.3.3h0l-.9.9-.8.9-.2.2h-.2l-1.3-.9h.1l.4-.6a2.7,2.7,0,0,1,1.2-.9h0a4.9,4.9,0,0,1,1.7-.6l.8-.2h.3l.4,1.4h-.4a25.2,25.2,0,0,0-2.9,1.2h0l-.3.2h-.2c.9,1.1-1.3-1.4-1.1-1.2h0l.5-.5,1.1-1.2.8-.6a2.2,2.2,0,0,1,1.2-.2l.4.2h.3c0,.5.1-1.2-.1,1.2h0l-.4.2-.8.4-1.5.3h-1l-.5-1.4h.1l.4-.3a6,6,0,0,1,3.2-.7h0a5.1,5.1,0,0,1,2.6.9h.2c-1.7,2.6-.5.7-.9,1.3h-.4l-.5-.2H528c.7-3.1.2-.9.4-1.6h2l1.1.3h0l.4.2h0l-.4,1.2-.6-.3h0l-.3-.2h-.3c-.3.8.5-1.1.4-.9h.1l.7.4a4.8,4.8,0,0,1,1.2.8c.2.2.2.3.1.3s-.3,0-.6-.1l-1.1-.2h-.8c-.4.9.5-1.3.4-1.1h.1l.6.2h0l.5.2h0a6.1,6.1,0,0,1-.5,1.2h-.3l-1.1-.2h-.4l-1.4-.2h-.1c.1-.7-.4,1.5.3-1.6h1.1l.6.3h.4c-.3.6.9-1.3-.8,1.3h-.1a3,3,0,0,0-1.8-.6h0a3.7,3.7,0,0,0-2.3.5h-.4c.5,1.2-.6-1.7-.5-1.4h.8l1.3-.3h0l.6-.2.2-.2h0v1.2h-.1l-.4.3a5.2,5.2,0,0,0-1,1.1l-.5.6h0l-1-1.2h.3l.4-.2h0l3-1.2.4-.2h0c.9,3,.3.8.5,1.5h-1.1l-1.3.4h0l-.7.6-.3.4h0l-1.3-.9h.2l.2-.3.9-.9.9-.9.4-.4h0c1.1,2.7.3.8.5,1.4h-.2l-.7.4-.8.7Z" transform="translate(-428.4 -93.3)"/>
    <path class="bc505a26-bdd1-45a7-bd09-ae879e75ae2c" d="M526.2,146.4h0l-.2.5-.6.7h-.3l-.4-.3v-.6l1.2.5-.2.2h-.3l-.5.3a.4.4,0,0,1-.4-.2,1,1,0,0,1-.1-.4.5.5,0,0,1,0-.4,2.3,2.3,0,0,1,.7-.7l.7-.4.5,1h-.6c.1,0,.1,0,.1-.1h0v-.4h.5Z" transform="translate(-428.4 -93.3)"/>
    <path class="bc505a26-bdd1-45a7-bd09-ae879e75ae2c" d="M530.7,145.8h-.1l.2-1.4h.3l.2.2c.1.2,0,.3,0,.4a.8.8,0,0,1-.2.4h-.3c.1-.4.1-.8.2-1.2h.1a11.7,11.7,0,0,1,2.5,1.1h.3c.2-.3-1.4,2.6-.8,1.3h0l-1-.7-.3-.2h-.1l.8-1.3h.2l.5.2h0l.6.3,1.3.9h.2c-1.5,2.6-.4.7-.8,1.3h0l-.6-.3-1.5-1.2.7-.9.4.3h.7l-.3.3h-.1l.5.6a.6.6,0,0,1,.1.4c.1.2.1.2,0,.2s-.2,0-.3-.2h-.8l-.8-.3.7-1,1.4.8h.4l-.7,1.3H534l-.9-.6-.5-.3-.5-.2H532l.8-1.3h.1v.2l.9.6h.1c.7-1.2-.9,1.7-.7,1.4H533A14.6,14.6,0,0,0,530.7,145.8Z" transform="translate(-428.4 -93.3)"/>
  </g>
</svg>
