<svg id="b6276c3e-f5ba-4434-9378-b29a3c29b1d6" data-name="Objects" xmlns="http://www.w3.org/2000/svg" viewBox="0 0 54.73 50.16"><defs><style>.b9f39b48-f499-45d5-9ffd-af8f400f2545{fill:#252525;}</style></defs><path class="b9f39b48-f499-45d5-9ffd-af8f400f2545" d="M391.55,169.88a.32.32,0,0,1,.11.22,3.07,3.07,0,0,1-.08,1.76c-.26.61-.84,1.16-2.3,1.07a.89.89,0,0,1-.37-.11,19.86,19.86,0,0,1-4.34-5.8,20.91,20.91,0,0,1-2.31-10.77c0-.47.11-.95.16-1.43l.3-1.37c.2-.84.39-1.67.64-2.51.47-1.68,1-3.29,1.49-4.85.93-3.11,1.47-6.09.5-8.65a12,12,0,0,0-2.26-3.61c-.52-.55-1.09-1.1-1.66-1.63l-.87-.79c-.29-.25-.6-.47-.9-.71a20.08,20.08,0,0,0-8.35-3.6,21.47,21.47,0,0,0-4.6-.35c-.78,0-1.55.11-2.32.16l-1.14.2-.58.09-.56.14-1.14.27-1.11.36-.56.18-.54.21-1.09.44a25.91,25.91,0,0,0-4.07,2.28,29.81,29.81,0,0,0-3.7,3,34.4,34.4,0,0,0-3.24,3.48,28.19,28.19,0,0,0-4.64,8.13,18.37,18.37,0,0,0-1,4.44,13.18,13.18,0,0,0,.31,4.35,12.13,12.13,0,0,0,4.91,7,17,17,0,0,0,1.89,1.23l1,.48.5.24c.17.07.35.12.52.18l1,.36,1.08.25a7.81,7.81,0,0,0,1.08.16l.55.07c.18,0,.37,0,.55,0,3,.14,6-.81,9.34-1.66a32.85,32.85,0,0,1,5.24-1,21.6,21.6,0,0,1,2.8-.09c.48.05,1,.07,1.44.15s.94.15,1.39.26l1.18.3.25.08.49.16c.33.1.67.21,1,.33.64.24,1.28.49,1.89.76,0,0,1.42.72,3.19,1.84s3.86,2.63,5.53,4c2.86,2.16,3.61,3,3.1,3.18s-2.3-.44-4.32-1.37c.17.16-2.21-1-4.62-2.17-1.21-.55-2.43-1.1-3.35-1.45l-1.12-.42-.42-.15c-.55-.23-1.1-.43-1.66-.63l-.82-.27-.21-.06-.88-.23a13.15,13.15,0,0,0-2.11-.32,18.79,18.79,0,0,0-4.43.36c-1.52.3-3.07.74-4.69,1.16a38.59,38.59,0,0,1-5.1,1.07,19.51,19.51,0,0,1-5.5-.06c-.46-.07-.91-.19-1.37-.29-.22-.06-.45-.1-.68-.17l-.65-.22c-.44-.16-.88-.29-1.3-.47l-1.26-.59a19.77,19.77,0,0,1-4.51-3.1,16.39,16.39,0,0,1-3.47-4.39,15.79,15.79,0,0,1-1.68-5.4,20.91,20.91,0,0,1,1.74-10.67A33.76,33.76,0,0,1,344.5,134a36,36,0,0,1,7.94-6.82,26,26,0,0,1,4.74-2.38c.82-.36,1.67-.59,2.52-.87.42-.14.86-.22,1.29-.33s.86-.22,1.3-.28a26.19,26.19,0,0,1,2.64-.37,25.94,25.94,0,0,1,8,.5,23.92,23.92,0,0,1,9.68,4.59,12.29,12.29,0,0,1,1,.87c.32.29.66.58,1,.9a19.17,19.17,0,0,1,1.85,2,13.37,13.37,0,0,1,3.26,10.67,32.31,32.31,0,0,1-1.18,5.17c-.49,1.63-1,3.17-1.43,4.7-.23.74-.4,1.56-.58,2.32-.07.35-.18.71-.22,1.06s-.11.7-.11,1.06a17.18,17.18,0,0,0,1.91,8.56A16.1,16.1,0,0,0,391.55,169.88Z" transform="translate(-337.03 -122.79)"/><path class="b9f39b48-f499-45d5-9ffd-af8f400f2545" d="M353.35,152a.34.34,0,0,1,.09.2,1.27,1.27,0,0,1,.06.28,2.7,2.7,0,0,1,0,.28.74.74,0,0,1-.27.42.88.88,0,0,1-.51.15c-.22,0-.44,0-.69,0a.17.17,0,0,1-.1,0s-.06,0-.09-.08-.06,0-.1,0a.52.52,0,0,0-.3,0,.82.82,0,0,0-.53.46.75.75,0,0,0,.08.63,2.71,2.71,0,0,0,.23.43c.07.09.05,0,.05.06h0l.07-.05.15-.15a3.57,3.57,0,0,0,.53-.95,3.62,3.62,0,0,0,.24-1.1,1.87,1.87,0,0,0,0-.48,1,1,0,0,0-.05-.18v0h0l1.85-.11h0v0a.24.24,0,0,0,0,.09,3.39,3.39,0,0,0,.42,2.06h0a.72.72,0,0,0,.29.27s0,0,0,0h.11a.63.63,0,0,0,.25,0,.32.32,0,0,0,.23-.13,1.18,1.18,0,0,0,.14-.45,4.79,4.79,0,0,0-1-3,2,2,0,0,0-.48-.46,2.94,2.94,0,0,0-2.1-.19,4,4,0,0,0-1.44.71,4.69,4.69,0,0,0-.64.54,5.62,5.62,0,0,0-.55.64,6.07,6.07,0,0,0-.82,1.47,4.89,4.89,0,0,0-.26,1.58,4.23,4.23,0,0,0,.36,1.51,2.21,2.21,0,0,0,.93,1,3.39,3.39,0,0,0,1.47.33,3,3,0,0,0,.42,0c.13,0,.33,0,.34,0l.31,0a9.26,9.26,0,0,0,1.24-.29l.45-.11c.28-.08.67-.19,1.12-.35a15.74,15.74,0,0,0,2.86-1.4c.71-.48,1.13-.85,1.4-1.06s.4-.24.44-.11a1.55,1.55,0,0,1-.25.81,5.76,5.76,0,0,1-.93,1.23,10.11,10.11,0,0,1-2.14,1.69,15.41,15.41,0,0,1-1.77.93c-.51.22-.87.33-.87.33a10.79,10.79,0,0,1-1.5.31l-.19,0c-.14,0-.35,0-.53,0a6.27,6.27,0,0,1-1.14,0,4.53,4.53,0,0,1-2.25-.91,4.27,4.27,0,0,1-1.41-2,4.21,4.21,0,0,1-.16-.55,3.38,3.38,0,0,1-.11-.57c0-.19-.05-.39-.06-.58v-.59a6.47,6.47,0,0,1,.55-2.2,7.6,7.6,0,0,1,1.17-1.88,6.76,6.76,0,0,1,3.78-2.36,2.27,2.27,0,0,1,.59-.08c.2,0,.4,0,.6,0a4.64,4.64,0,0,1,1.18.21,5.88,5.88,0,0,1,.59.2,3,3,0,0,1,.61.37,4.82,4.82,0,0,1,.86.9,7.32,7.32,0,0,1,1,2,5.54,5.54,0,0,1,.25,2.34,2.81,2.81,0,0,1-.55,1.37,2.36,2.36,0,0,1-1.41.83,2.9,2.9,0,0,1-.71,0h-.17l-.22,0a1.21,1.21,0,0,1-.42-.13,2.64,2.64,0,0,1-1.15-1h0a4.9,4.9,0,0,1-.66-1.68,5,5,0,0,1-.07-1.78c0-.08,0-.17.06-.26v-.1h0l1.85-.11h0l.05.12a2.8,2.8,0,0,1,.14.51,3.92,3.92,0,0,1,.06.95,6.21,6.21,0,0,1-.37,1.69,5.13,5.13,0,0,1-.89,1.54,3.05,3.05,0,0,1-.36.36l-.22.17-.3.18a1.84,1.84,0,0,1-1.38.12,2.25,2.25,0,0,1-1.07-.78,4.06,4.06,0,0,1-.46-.82,2.93,2.93,0,0,1-.28-1A2.49,2.49,0,0,1,349,153a2.77,2.77,0,0,1,1.82-1.65,2.56,2.56,0,0,1,1.32,0,2.27,2.27,0,0,1,.65.26A2.88,2.88,0,0,1,353.35,152Z" transform="translate(-337.03 -122.79)"/><path class="b9f39b48-f499-45d5-9ffd-af8f400f2545" d="M359.17,145.65s0,0,0-.07a2,2,0,0,1,1.47-1.12.17.17,0,0,1,.1,0l.22.33a5.46,5.46,0,0,1,.5.82,17.55,17.55,0,0,1,1.06,2.51c.31.91.58,1.8.78,2.48l.32,1.1s.13,1.2.12,2.08c.06,1.47-.52,1.11-1.05.32a5.22,5.22,0,0,1-.51-.93c-.25-.5-.48-1-.48-1l-.32-1.09c-.19-.65-.45-1.52-.74-2.35-.14-.42-.31-.81-.46-1.2s-.33-.69-.47-1a3.18,3.18,0,0,0-.39-.64Z" transform="translate(-337.03 -122.79)"/><path class="b9f39b48-f499-45d5-9ffd-af8f400f2545" d="M362.55,141.89s0,0,0,.07a1.86,1.86,0,0,1-1.1,1.49l-.1,0,0,0,1.42-1.34a32.48,32.48,0,0,1,3.34,7.41,16.89,16.89,0,0,1,.21,2.22c.07,1.57-.53,1.14-1.05.32a6.88,6.88,0,0,1-.53-1l-.53-1a31.07,31.07,0,0,0-3.09-6.85l1.42-1.33Z" transform="translate(-337.03 -122.79)"/><path class="b9f39b48-f499-45d5-9ffd-af8f400f2545" d="M358.59,150.29s0,0-.07,0a1.92,1.92,0,0,1-.87-1.63.34.34,0,0,1,0-.1s.41-.22,1-.56l.94-.63,1.05-.79,2-1.55c.55-.43.93-.71.93-.71s.27-.14.66-.31a7.12,7.12,0,0,1,1.35-.44c1.45-.37,1.13.33.54.95.05,0-.34.32-.71.7l-.52.5-.23.24-.88.67-1.95,1.54-1.1.82-1,.68C359.06,150,358.61,150.28,358.59,150.29Z" transform="translate(-337.03 -122.79)"/><path class="b9f39b48-f499-45d5-9ffd-af8f400f2545" d="M360.41,152.54s0,0-.08,0a1.85,1.85,0,0,1-1.07-1.5.41.41,0,0,1,0-.11l1-.74,1-.73c.36-.28.73-.59,1.1-.89.75-.6,1.5-1.21,2.06-1.68l.93-.77a7.12,7.12,0,0,1,.67-.36,10.71,10.71,0,0,1,1.33-.59c1.44-.6,1.22.12.65.88a6.3,6.3,0,0,1-.71.82l-.78.84-.91.76c-.54.45-1.28,1.06-2,1.67l-1.1.9-1,.75Z" transform="translate(-337.03 -122.79)"/><path class="b9f39b48-f499-45d5-9ffd-af8f400f2545" d="M366.24,136s0,0,0,0,.18,0,.25-.14a3.2,3.2,0,0,1,.27-.25,3.72,3.72,0,0,1,.43-.35.6.6,0,0,1,.72,0l.12.07a4.32,4.32,0,0,1,.17.46l.11.34.21.51,1.13,2.74c.4,1,.82,2,1.09,2.73l.47,1.25a19.56,19.56,0,0,1,.36,2.41c.19,1.7-.45,1.23-1,.36,0,.11-1.2-2.14-1.2-2.14l-.45-1.22c-.26-.74-.68-1.71-1.08-2.69s-.81-1.95-1.12-2.69l-.22-.53c-.09-.24-.12-.35-.16-.47Z" transform="translate(-337.03 -122.79)"/><path class="b9f39b48-f499-45d5-9ffd-af8f400f2545" d="M372.76,147.48s0,0,0,.07a1.2,1.2,0,0,1-.32.66c-.2.24-.54.47-.82.8l-.05.06a.08.08,0,0,0-.06,0,.56.56,0,0,0,0-.08l0,0,0,0h-.05l0,.07v0h-.22a.34.34,0,0,0-.14,0h0l0,0a.3.3,0,0,0,0-.08.6.6,0,0,0,.08-.16c0-.07,0-.05,0-.06h.11a.73.73,0,0,0,.21-.06.84.84,0,0,1,.16.07s0,0,.1.07l.11.06s.06,0,0,0h0l.06,0,0,0c.09-.12.06-.28.1-.4a.38.38,0,0,1,.17-.27.4.4,0,0,1,.33,0,.74.74,0,0,1,.21.09,1.21,1.21,0,0,1,.22.23s.1.05.15.3a.86.86,0,0,1,0,.43,1.32,1.32,0,0,1-.14.49l-.12.21-.14.17a2.93,2.93,0,0,1-.25.25l-.27.19a2.38,2.38,0,0,1-1.81.06,1.68,1.68,0,0,1-.54-.34,2.11,2.11,0,0,1-.39-.58,2.31,2.31,0,0,1-.11-.61c0-.16,0-.33.05-.5v.07a4.58,4.58,0,0,1,.15-.49,1.78,1.78,0,0,1,.28-.45,1.93,1.93,0,0,1,.85-.59A2.07,2.07,0,0,1,372.76,147.48Z" transform="translate(-337.03 -122.79)"/><path class="b9f39b48-f499-45d5-9ffd-af8f400f2545" d="M372.65,138v0a.43.43,0,0,1,0-.05s0,0,0,.07,0,.1,0,.16.14.25.2.4a.72.72,0,0,1,.06.53.86.86,0,0,1-.8.56,1,1,0,0,1-.34-.06,2,2,0,0,1-1-1.21,3.32,3.32,0,0,1-.12-1.18,4.19,4.19,0,0,1,.71-2,3.5,3.5,0,0,1,2.21-1.49,4.38,4.38,0,0,1,2.46.31,5.56,5.56,0,0,1,1,.5,2.6,2.6,0,0,1,1,1,1.94,1.94,0,0,1,.09.23,2,2,0,0,1,.08.67,2.37,2.37,0,0,1-.19.85,4.18,4.18,0,0,1-.43.77c-.68.95-1.63,1.76-2.23,2.54a2.44,2.44,0,0,0-.6,1.45c0,.31,0,.45-.15.41a1,1,0,0,1-.47-.79,2.93,2.93,0,0,1,.3-1.67,3.13,3.13,0,0,1,.37-.71c.26-.44.66-1,1-1.55a2.63,2.63,0,0,0,.52-1.26c0-.07,0-.08-.05-.1a.14.14,0,0,0-.05,0,2,2,0,0,0-.86-.51c-1.08-.43-1.82-.29-2.34.45a2.33,2.33,0,0,0-.37,1.05,1.4,1.4,0,0,0,0,.44.24.24,0,0,0,0,.08s-.06.05-.09.09Z" transform="translate(-337.03 -122.79)"/><path class="b9f39b48-f499-45d5-9ffd-af8f400f2545" d="M376.85,143.68s0,0,0,0a1.72,1.72,0,0,1-.61.39c-.29.12-.68.21-1.09.34l-.07,0h0s0,0,.07,0,.16-.11.23-.14a1.12,1.12,0,0,0,.27-.23v0h0c0-.16,0,1.37,0,.72h.1a.28.28,0,0,0,.1.09s0,0,.06.05h0l.23.16h0l0,0-.07,0s-.06,0,0,0l0,0,.11-.06c.18-.22.35-.43.54-.44a.6.6,0,0,1,.55.42s0,.07.07.23a1.2,1.2,0,0,1-.15.71,1.11,1.11,0,0,1-.22.29l-.22.21-.28.14a.78.78,0,0,1-.29,0,2.28,2.28,0,0,1-.36,0l-.47-.1a5.28,5.28,0,0,1-.54-.26l-.24-.21a.88.88,0,0,1-.24-.23,1.77,1.77,0,0,1-.4-1.23,1.94,1.94,0,0,1,.19-.62c.06-.09.11-.19.17-.27l.23-.22a1.77,1.77,0,0,1,1-.56,1,1,0,0,1,.4,0,1.13,1.13,0,0,1,.46.17,1.35,1.35,0,0,1,.42.41A1.82,1.82,0,0,1,376.85,143.68Z" transform="translate(-337.03 -122.79)"/></svg>