<svg id="b4306e25-6d1b-4e2c-9787-6bd32fe9c919" data-name="Objects" xmlns="http://www.w3.org/2000/svg" viewBox="0 0 90 111.7">
  <defs>
    <style>
      .fa5775a9-1378-4e09-97bb-d99a8746c26a {
        fill: #252525;
      }
    </style>
  </defs>
  <g>
    <g>
      <path class="fa5775a9-1378-4e09-97bb-d99a8746c26a" d="M682.3,454.5h0c.2-.1.4-.2.6.1h0v.5h.1l.6.2,2.8.7h.1v1.5c0,.5.1,1,.1,1.5a26.4,26.4,0,0,1,.2,2.9c.3,3.9,0,8.1-.1,12.3a12.3,12.3,0,0,1-.3,3.3,1.4,1.4,0,0,1-.5.9l-.7.4-.9.3h-.8l-.6.3h0l.5.3h.8a9.6,9.6,0,0,1,1.7,0h1.7l3.3.2,3.4-.4h3.4c1.1-.1,2.3.1,3.4,0h1.5a1.2,1.2,0,0,0,.5-1.2c.1-.5,0-1.1.1-1.7a9.9,9.9,0,0,0,.2-1.7,4.3,4.3,0,0,0,0-1.6c-.1-.1-.1-.1-.1-.2H703c-.1,0-.1.1-.2.2a8.3,8.3,0,0,0-.4,1.5c-.1.3-.1.6-.2.9s-.1.3-.2.4l-.2.4a5.3,5.3,0,0,1-1.4,1.2l-1.7.4a19.3,19.3,0,0,1-3.4,0,5.1,5.1,0,0,1-1.7-.3,3.3,3.3,0,0,1-1.4-1,3.1,3.1,0,0,1-.8-1.5,10.1,10.1,0,0,1-.3-1.7c-.5-4.2-.1-8.4,0-12.2.1-1,0-1.9.1-2.9a7.7,7.7,0,0,1,.2-1.5,3.4,3.4,0,0,1,.9-1.3,2.7,2.7,0,0,1,1.5-.3h.6l.3-.2a4.3,4.3,0,0,1,.1-.5c0-.2,0-.3-.1-.4l-1.1-.2a19.2,19.2,0,0,0-2.4,0h-8c-.5.1-.7.1-.7,0l.6-.4.9-.2h2.3l2.1.2h5.8l.7.2a1.3,1.3,0,0,1,.5.7,2.2,2.2,0,0,1,0,.8l-.5.7-.8.2h-1.2l-.4.3a1.9,1.9,0,0,0-.5,1.1,11,11,0,0,0-.2,2.6c0,1-.1,1.9-.1,2.9a59.5,59.5,0,0,0,.2,11.9,3.2,3.2,0,0,0,1.7,2.2,7.5,7.5,0,0,0,3,.4h1.6a6.6,6.6,0,0,0,1.5-.3,3.3,3.3,0,0,0,1.3-.7l.4-.6V476a.1.1,0,0,1,.1-.1.6.6,0,0,1,.1-.4l.3-1.6a2,2,0,0,1,.5-.9.9.9,0,0,1,.5-.3l.6.2h.1l.2.2a.3.3,0,0,1,.1.2.9.9,0,0,1,.1.5,2.8,2.8,0,0,1,.1.9,9.9,9.9,0,0,1-.2,1.7V478a4,4,0,0,1-.3,1.8,1.6,1.6,0,0,1-.8.6l-.9.2h-8.4l-1.6.2h-1.7l-3.4-.2h-1.6a9.6,9.6,0,0,1-1.7,0,1.8,1.8,0,0,1-.9-.4c-.1,0-.2-.2-.2-.3a.4.4,0,0,1-.1-.3.8.8,0,0,1,.2-.5,1.6,1.6,0,0,1,.9-.6h1.5c.2-.1.5-.2.6-.4s.5-.7.6-1.2.1-2,.1-3.1a99.3,99.3,0,0,0,0-12.2,26.4,26.4,0,0,0-.2-2.8,6.1,6.1,0,0,0-.1-1.4v-.7h-.2l-2.6-.7h-.5c-.1-.1-.2-.2-.2-.3a.4.4,0,0,1-.1-.3v-.6Z" transform="translate(-681.5 -369.6)"/>
      <path class="fa5775a9-1378-4e09-97bb-d99a8746c26a" d="M705.4,454.2h.1c.1-.1.3-.3.5.1h.1a.4.4,0,0,0-.1.3,1.1,1.1,0,0,0,.1.5h0l.3.3.9.2,1.1.3a2,2,0,0,1,.9.9,3.6,3.6,0,0,1,.4,1.1,18.5,18.5,0,0,1,.1,2.3,16.9,16.9,0,0,1,.1,2.3,4.9,4.9,0,0,1,.1,1.2v1.2c-.1,1.6-.1,3.2-.2,4.8s-.1,3.3-.2,5a22.6,22.6,0,0,1,0,2.6,2.5,2.5,0,0,1-.6,1.4,2.7,2.7,0,0,1-1.5.3,2,2,0,0,0-1.1.2h-.1a.3.3,0,0,0-.1.2.8.8,0,0,0-.1.4c.1.2.6.3.9.4h1.3a46,46,0,0,1,5.3-.1l2.5.3c.8,0,1.7-.2,1.9-.9a.5.5,0,0,0-.3-.7c-.2-.2-.7-.2-1.1-.2l-1.4-.3a1.6,1.6,0,0,1-1.1-1,8,8,0,0,1-.3-2.6c-.1-.4-.1-.9-.2-1.3s-.1-.8-.1-1.3a41.7,41.7,0,0,1,.1-5c.1-1.6.2-3.2.4-4.8s.1-1.6.1-2.3,0-1.5.1-2.3a5.3,5.3,0,0,1,.3-1.2,1.4,1.4,0,0,1,1.1-.7h1.9a2.3,2.3,0,0,0,.1-.4.6.6,0,0,0-.1-.4.9.9,0,0,0-.6-.4h-1.8l-2,.2h-5l-1.7-.3c-1.1-.1-.7-.3.1-.3h6.2c1.1,0,2.3-.2,3.7-.1h1a1.3,1.3,0,0,1,.8,1v1l-.4.3h-1.1c-.7.1-1.4.1-1.6.6s-.1.6-.2,1v2.2c0,.3-.1.7-.1,1.1s-.1,1.5-.2,2.3-.3,3.1-.3,4.7a40,40,0,0,0,0,4.9c.1.4.1.8.2,1.2v1.3c.1.8.2,1.6.8,2a1.7,1.7,0,0,0,1,.3h1.4l.3.2.4.2a1.1,1.1,0,0,1,.3.8,1.3,1.3,0,0,1-.6,1.4,2.3,2.3,0,0,1-1.4.4h-1.3a11.3,11.3,0,0,0-2.5-.3c-1.7-.1-3.5.2-5.2.2a3.5,3.5,0,0,1-1.4-.3c-.2-.1-.5-.2-.6-.5a1,1,0,0,1,0-.9c0-.2.1-.2.2-.4l.3-.3.7-.2h1.3c.4-.1.6-.2.7-.6a3.6,3.6,0,0,0,.2-1.1v-2.5c.1-1.7.1-3.4.2-5s.1-3.2.2-4.8v-2.3c0-.7-.1-1.5-.1-2.2s-.1-1.5-.2-2.2a2,2,0,0,0-.4-.8,1.2,1.2,0,0,0-.7-.5l-1-.2a2.1,2.1,0,0,1-1.1-.5l-.2-.2h-.1a1.5,1.5,0,0,1-.1-.9Z" transform="translate(-681.5 -369.6)"/>
      <path class="fa5775a9-1378-4e09-97bb-d99a8746c26a" d="M719.6,454.2h.3c.1,0,.2.1.2.3h0c0,.1,0,.1-.1.2v.6h.1l.5.6h1l1.1.2.6.2.5.2.3.2h.2v.2a1.7,1.7,0,0,1,.1.7c.1,3,.4,6.1.5,9.3v4.9c-.1.8-.1,1.6-.2,2.4s-.1.9-.2,1.3v.6c-.1.2-.1.5-.2.7a2.9,2.9,0,0,1-.7,1.2l-1.2.7-1.1.5-.6.3-.3.3h6.9l2.6-.3h1.6a.7.7,0,0,0,.1-.5V479a.1.1,0,0,0-.1-.1h-1.1l-.7-.2-.7-.4a2.1,2.1,0,0,1-.4-.6,10.3,10.3,0,0,1-.4-1.4,26.1,26.1,0,0,1,0-2.8v-1.3c0-.4-.1-.9-.1-1.4a3.3,3.3,0,0,1,.4-1.4,1.7,1.7,0,0,1,.6-.6l.8-.3a2,2,0,0,1,1.5.4,5.2,5.2,0,0,1,1.1,1l1.4,2.4.6,1.3.6,1.2.3.6.4.5a7.5,7.5,0,0,1,.7,1.2,2.6,2.6,0,0,1,.3.8,1,1,0,0,1-.1.9l-.3.3-.5.2h-.6a1,1,0,0,0-.1.3v.8H743l1.4.3h1.3l.4-.2a.5.5,0,0,0,.3-.5.9.9,0,0,0-.1-.9h-2l-.6-.4a9.4,9.4,0,0,1-1.2-.9,15.9,15.9,0,0,1-3.3-4.4,28.8,28.8,0,0,0-3.1-4.4,4.3,4.3,0,0,0-1-.9l-1-.9a3.5,3.5,0,0,1-.8-1.3,2.8,2.8,0,0,1,.1-.9l.5-.6a26.1,26.1,0,0,1,2-1.7l1.8-2,1.6-2.1a5.6,5.6,0,0,1,1.7-2.1,3.5,3.5,0,0,1,1.3-.5,3.4,3.4,0,0,0,1.2-.4.5.5,0,0,0,.2-.4c.1-.1.1-.1,0-.2a.8.8,0,0,0-.9-.3l-2.6.4h-1.3l-1.3-.2-1.2-.2h-1.7l-.2.2c0,.1.1.1.1.2a.1.1,0,0,0,.1.1l.5.2,1.2.4.3.2.3.2a1.6,1.6,0,0,1,.4.7,2.2,2.2,0,0,1-.3,1.4l-.6,1.1-.8.9-.7,1-1.5,1.9-1.4,1.8-1.6,1.8-.9.8-.7.2a.7.7,0,0,1-.8-.3,1.4,1.4,0,0,1-.2-.6,2,2,0,0,1-.1-.7,4.1,4.1,0,0,1,.1-1.1v-1.1c0-.4.1-.7.1-1.1a17,17,0,0,1,.1-2.2v-1a4.1,4.1,0,0,1,.1-1.1,3.6,3.6,0,0,1,.4-2.2l.2-.2.2-.2.6-.3,1-.2.9-.2v-.2h.1a.1.1,0,0,1-.1-.1h-10l-1.1-.2c-1.1,0-.7-.2.1-.3s.4-.1.8-.1h2.8c1.1,0,2.3.1,3.4,0a21.9,21.9,0,0,1,3.7-.1,1.6,1.6,0,0,1,1,.5.6.6,0,0,1,.1.4c0,.2,0,.3-.1.4s-.3.3-.4.4a2.6,2.6,0,0,1-1,.4l-1,.2c-1.2.2-1.1,1.7-1.1,3s-.2,2.7-.2,4.2v1c0,.4-.1.8-.1,1.1a1.7,1.7,0,0,0,0,1,.7.7,0,0,0,.1.5.1.1,0,0,0,.1.1l.8-.4a2.7,2.7,0,0,0,.8-.7l1.5-1.7.7-.9.7-.9,1.3-1.8.8-.9.7-1,.6-.9a1.8,1.8,0,0,0,.1-1c0-.1-.1-.2-.2-.4l-.3-.2-1.2-.3-.6-.3-.3-.3c-.1-.2-.1-.3-.2-.4v-.5l.4-.4.7-.2h1.3l1.2.2a6.5,6.5,0,0,0,2.4.2l2.5-.3h.7c.2.1.5.1.7.3a1.2,1.2,0,0,1,.6.6,1.2,1.2,0,0,1-.2.9l-.7.5-.6.2-1.2.3a4.4,4.4,0,0,0-1.6,1.7,33.9,33.9,0,0,1-3.3,4.2l-.5.5-.5.4-1,.8a2.2,2.2,0,0,0-.8.9,1,1,0,0,0,.2.9,10.2,10.2,0,0,0,1.8,1.8l.9,1.1.9,1c1.1,1.5,1.9,3.1,2.9,4.5a11.2,11.2,0,0,0,3.7,3.8h1.1a1.6,1.6,0,0,1,.7,0h.5l.3.4a1.8,1.8,0,0,1-.2,1.6.9.9,0,0,1-.6.6H744l-.7-.2H740l-2.7.2h-1.4l-.8-.2c-.1-.1-.2-.1-.2-.2l-.2-.3V480c-.1-.2,0-.5,0-.7a.3.3,0,0,1,.1-.2.4.4,0,0,1,.1-.3.1.1,0,0,0,.1-.1h.4c.3,0,.5.1.6,0h.1a.1.1,0,0,0,.1-.1h.1a1.7,1.7,0,0,0-.3-1.1v-.3l-.2-.2-.4-.6c-.5-.8-.9-1.6-1.3-2.4s-.8-1.6-1.3-2.4a6.2,6.2,0,0,0-1.5-2,1.5,1.5,0,0,0-1.1-.2h-.5a.8.8,0,0,0-.4.4,3.7,3.7,0,0,0-.3,2.4,24.3,24.3,0,0,1,0,2.7,6.9,6.9,0,0,0,.3,2.5h.1l.2.3.4.3,1.2.2h.8l.3.3a.4.4,0,0,1,.1.3c0,.1,0,.1.1.2s-.1.5-.1.8l-.2.4h-.4a3.5,3.5,0,0,1-1.4.1l-1.3.2h-6.4l-1.4.2h-.9l-.2-.2H720a.4.4,0,0,1-.1-.3.5.5,0,0,1,0-.5q.1-.3.3-.3l.6-.4.6-.3.5-.2,1.1-.6a2.6,2.6,0,0,0,1-1.9,62.4,62.4,0,0,0,.3-9.6c-.2-3.1-.3-6.1-.5-9,0-.1-.2-.2-.3-.2l-.5-.2h-1l-1.1-.2a1.4,1.4,0,0,1-1.1-.6l-.3-.5h-.1a2.1,2.1,0,0,1,0-.8C719.5,454.4,719.6,454.3,719.6,454.2Z" transform="translate(-681.5 -369.6)"/>
      <path class="fa5775a9-1378-4e09-97bb-d99a8746c26a" d="M747.5,454.2h.4a.6.6,0,0,1,.1.4h-.1a1.7,1.7,0,0,0,.2.5h.1c0,.1.1.2.2.3h.4a8.9,8.9,0,0,1,2,.6h.2l.2.2.4.5a4.2,4.2,0,0,1,.4,1,14.8,14.8,0,0,1,.1,2.1v1a3.8,3.8,0,0,1,.1,1,14.8,14.8,0,0,1,.1,2.1,15.5,15.5,0,0,1,.1,2.2,52.2,52.2,0,0,1-.2,8.8l-.2,1.1c-.1.4-.1.7-.2,1.1a1.8,1.8,0,0,1-.8,1.1l-1.1.5-1,.4a.5.5,0,0,0-.4.2v.2l.3.2h.5a4,4,0,0,0,1.1,0l2.3-.2,1.2-.2h1.1l4.8-.3a38.5,38.5,0,0,1,4.8.1h3.6a.5.5,0,0,0,.6-.4,4.1,4.1,0,0,0,0-1.1c0-.4-.1-.8-.1-1.3a9.7,9.7,0,0,0,.1-2.4c0-.3-.2-.7-.3-.6s-.5.2-.5.5a23.4,23.4,0,0,1-.9,2.4,2.8,2.8,0,0,1-.8,1.1,3.9,3.9,0,0,1-1.1.6,10.3,10.3,0,0,1-2.5.7h-2.5a5.7,5.7,0,0,1-2.5-.6,2.7,2.7,0,0,1-1-.8,3.4,3.4,0,0,1-.6-1.2,2.8,2.8,0,0,1-.3-1.3l-.2-1.2c0-.4-.1-.8-.1-1.2v-2.5a6.2,6.2,0,0,1,.1-1.3,2,2,0,0,1,.1-.7,1.7,1.7,0,0,1,.6-.6,3.2,3.2,0,0,1,1.3-.2l2.5.4a1.6,1.6,0,0,1,1.2.6,2,2,0,0,1,.6,1.2c.3.7.3,1.8.5,2.2s.2.1.3,0a.2.2,0,0,0,.2-.2.9.9,0,0,0,.1-.5v-.5a5,5,0,0,1-.2-1.2l-.2-1.2c0-1.7.3-3.3.2-4.8a4.3,4.3,0,0,0-.1-.5.8.8,0,0,0-.2-.5.3.3,0,0,0-.1-.2h0c0-.1-.1,0-.2.2s-.1,1.3-.5,2.2a2.8,2.8,0,0,1-.9,1,1.7,1.7,0,0,1-1.2.4h-2.4a.8.8,0,0,1-.7-.3c-.2-.2-.2-.4-.3-.6a5.3,5.3,0,0,1-.1-1.2v-2.3a16.4,16.4,0,0,1-.2-2.3,6.3,6.3,0,0,1,.3-2.3,1.6,1.6,0,0,1,1-.8,2.5,2.5,0,0,1,1.2-.2h1.1l1.1.2,2.2.4,1,.2a2.3,2.3,0,0,1,1.1.3l.5.3.4.5.3,1.1c.1.4.1.7.2,1s.2.6.4.7a.3.3,0,0,0,.5-.1,1.2,1.2,0,0,0,.2-.7,12.5,12.5,0,0,0-.3-1.9,3.6,3.6,0,0,1-.2-1v-1c0-.7-.2-1.1-.7-1.3a4.7,4.7,0,0,0-1.7-.2h-1.9l-12.6-.2h-1.6c-.5.1-.6.3-.6.2a.5.5,0,0,1,.1-.3l.5-.2a1.5,1.5,0,0,1,.8-.2h15.9a2.9,2.9,0,0,1,1.9.6,1.2,1.2,0,0,1,.5,1,1.7,1.7,0,0,1,0,1c-.1,1.1.6,2.3.5,3.8a1.4,1.4,0,0,1-.2.6.7.7,0,0,1-.5.4h-.7l-.6-.4a10.4,10.4,0,0,1-.5-2.1,2,2,0,0,0-.4-.8l-.6-.5-.9-.2-1.1-.2a19.3,19.3,0,0,0-4.1-.6,1.8,1.8,0,0,0-1.6.7,2,2,0,0,0-.2.9,1.7,1.7,0,0,0,0,1c0,.7.1,1.5.1,2.2a16.1,16.1,0,0,1,0,2.2,3.7,3.7,0,0,0,.1,1.1.7.7,0,0,0,.1.5l.2.2h2.1a1.6,1.6,0,0,0,1-.2,1.6,1.6,0,0,0,.8-.6,3.2,3.2,0,0,0,.3-.9,2.5,2.5,0,0,1,.2-1.2.9.9,0,0,1,.3-.6l.3-.3a.6.6,0,0,1,.6,0,1.3,1.3,0,0,1,.5.6c0,.2.1.4.1.6a6.2,6.2,0,0,1,.1,1.3v5.2a1.3,1.3,0,0,0,.1.6c.1.3.1.7.2,1.2a1.9,1.9,0,0,1-.2.7,1.3,1.3,0,0,1-.5.6c-.3.2-.7,0-.9-.1l-.3-.4c0-.1-.1-.2-.1-.3s-.1-.8-.2-1.2-.3-1.5-.9-1.8a3.5,3.5,0,0,0-1.1-.3l-1.1-.2h-1.7c-.2,0-.2,0-.3.2a1.5,1.5,0,0,0-.2,1,4,4,0,0,0,0,1.1,18.5,18.5,0,0,0,.1,2.4c.1.8.1,1.6.2,2.4a5,5,0,0,0,.9,2.1,4.1,4.1,0,0,0,2,.9,8.9,8.9,0,0,0,2.3,0,9.9,9.9,0,0,0,2.4-.3,4.7,4.7,0,0,0,2-1,4.2,4.2,0,0,0,1-2,8.4,8.4,0,0,1,.4-1.2l.4-.6a1.1,1.1,0,0,1,.8-.3c.4.1.5.4.7.6a1.7,1.7,0,0,1,.1.7,5.3,5.3,0,0,1,.1,1.3,4.5,4.5,0,0,0-.1,1.1,4.9,4.9,0,0,0,.1,1.2,5.7,5.7,0,0,1-.1,1.3,2.5,2.5,0,0,1-.4.7c-.2.2-.5.2-.7.3a10.3,10.3,0,0,1-2.5-.1h-2.4a23.6,23.6,0,0,0-4.6,0l-4.7.4c-1.5,0-3,.4-4.6.4a2.2,2.2,0,0,1-1.3-.3l-.3-.3v-.4a1,1,0,0,1,.4-.8l1.2-.4,1-.4c.3-.2.5-.3.6-.6a3.6,3.6,0,0,0,.2-1,19.2,19.2,0,0,0,.3-2.2c.1-.7.1-1.5.2-2.2v-6.4l-.3-4.1v-2.1a5.2,5.2,0,0,0-.3-1.8,1.5,1.5,0,0,0-1.2-1.1l-1.9-.6a.8.8,0,0,1-.4-.4h-.1a1.6,1.6,0,0,1-.3-.9c0-.1.1-.2.1-.3A.1.1,0,0,0,747.5,454.2Z" transform="translate(-681.5 -369.6)"/>
      <path class="fa5775a9-1378-4e09-97bb-d99a8746c26a" d="M683.3,479.3h.1c.1-.1.3.1.5.2h0v.2l.3.4v.3c0,.3-.1.3-.3.2h-.2a1.4,1.4,0,0,1-.3-.5.5.5,0,0,1-.2-.4Z" transform="translate(-681.5 -369.6)"/>
      <path class="fa5775a9-1378-4e09-97bb-d99a8746c26a" d="M684.3,478.9h.6v.2c.1.1.1.3.2.4l.3.6a2,2,0,0,1,.1.5c0,.3-.2.3-.3.1l-.3-.2-.4-.7a1.7,1.7,0,0,1-.2-.5Z" transform="translate(-681.5 -369.6)"/>
      <path class="fa5775a9-1378-4e09-97bb-d99a8746c26a" d="M685.5,478.7h0a.6.6,0,0,1,.5-.3h0a11.9,11.9,0,0,1,.9,1.5l.2.5c0,.4-.2.4-.4.2l-.3-.4Z" transform="translate(-681.5 -369.6)"/>
      <path class="fa5775a9-1378-4e09-97bb-d99a8746c26a" d="M686.3,476.6h0c0-.2.2-.5.6-.2h0l.4.9.5,1,.3.5.3.5.2.5.3.4c.6,1,.2.7-.3.2l-.6-.6-.5-.8-.3-.4-.5-1Z" transform="translate(-681.5 -369.6)"/>
      <path class="fa5775a9-1378-4e09-97bb-d99a8746c26a" d="M686.5,474.3h0c0-.2.1-.5.5-.4s0,.1.1.1l.5.9,2,3.4.3.5h.1c.1.1.1.2.2.4l.6.9c.6.9.2.7-.3.2s-1.2-1.3-1.1-1.3l-.3-.5a38.7,38.7,0,0,1-2.1-3.4Z" transform="translate(-681.5 -369.6)"/>
      <path class="fa5775a9-1378-4e09-97bb-d99a8746c26a" d="M686.7,471.6h0c0-.2.1-.5.5-.3h.1l.5.9c.7,1.1,1.3,2.2,2.1,3.3l1,1.6a3.5,3.5,0,0,1,.5.8l.3.6a8,8,0,0,0,.8,1.4,1.1,1.1,0,0,0,.3.5c.1.1.1.1,0,.1l-.6-.4c0,.1-.3-.2-.6-.6l-.5-.8-.3-.6-.5-.7-1-1.6c-.7-1.1-1.4-2.2-2-3.3Z" transform="translate(-681.5 -369.6)"/>
      <path class="fa5775a9-1378-4e09-97bb-d99a8746c26a" d="M686.7,468.5h0c0-.2.2-.4.5-.1h.1v.5l.3.4c.4.8,1.1,1.5,1.6,2.4l1.5,2.5c.5.8,1.1,1.7,1.5,2.5l.7,1.3.2.3.2.3.2.5.3.4c.1.2.2.3.2.5s.3.7-.2.2l-.6-.7-.5-.7c-.1-.1-.1-.2-.2-.2l-.2-.4-.7-1.3-1.5-2.5-1.5-2.4c-.4-.8-1.1-1.5-1.6-2.4a.8.8,0,0,1-.2-.5l-.2-.3Z" transform="translate(-681.5 -369.6)"/>
      <path class="fa5775a9-1378-4e09-97bb-d99a8746c26a" d="M686.7,466.3h0c0-.2.1-.5.5-.3h.1a4.1,4.1,0,0,0,.5.9l.9,1.2a5.1,5.1,0,0,1,.9,1.3l.3.5.3.5c.2.3.3.7.5,1s.2.7-.3.2l-.2-.2-.3-.5a3.1,3.1,0,0,1-.5-.7l-.3-.4-.9-1.3-.9-1.3Z" transform="translate(-681.5 -369.6)"/>
      <path class="fa5775a9-1378-4e09-97bb-d99a8746c26a" d="M686.6,464h0c0-.2,0-.5.4-.5a.1.1,0,0,1,.1.1l.7.7.8,1,.8,1,.3.5.9,1.3c.6,1,.2.8-.3.3l-.6-.7-.5-.6-.3-.4-.8-1a3.4,3.4,0,0,0-.8-.9Z" transform="translate(-681.5 -369.6)"/>
      <path class="fa5775a9-1378-4e09-97bb-d99a8746c26a" d="M686.6,461.7h0c0-.1,0-.5.4-.4h0l.8.8,1.5,1.7.3.4a11.7,11.7,0,0,1,.9,1.4c.7,1,.3.7-.2.2a15.4,15.4,0,0,1-1.2-1.3l-.3-.3-1.5-1.7Z" transform="translate(-681.5 -369.6)"/>
      <path class="fa5775a9-1378-4e09-97bb-d99a8746c26a" d="M686.3,459.1h-.1c0-.1-.1-.5.4-.5h0l.9.7a16.4,16.4,0,0,1,2.1,2.5l.4.5.8,1.4c.6,1,.2.8-.3.2l-1.1-1.3-.3-.4a12.1,12.1,0,0,0-2.1-2.4C686.8,459.4,686.5,459.3,686.3,459.1Z" transform="translate(-681.5 -369.6)"/>
      <path class="fa5775a9-1378-4e09-97bb-d99a8746c26a" d="M683.9,454.3h-.1c0-.2,0-.5.4-.5h.1l.8.7,2.6,2.8,1.2,1.4.6.7.5.5.3.4.8.8c.7.9.3.7-.3.3l-.7-.6-.6-.5-.3-.3-.2-.2-.6-.7-1.3-1.4a21.6,21.6,0,0,0-2.5-2.7Z" transform="translate(-681.5 -369.6)"/>
      <path class="fa5775a9-1378-4e09-97bb-d99a8746c26a" d="M686.5,454.3h0c-.1-.2,0-.5.4-.4h0l.8.8,1.8,2,.4.5,1,1.3c.6.9.2.7-.3.2a13.6,13.6,0,0,1-1.2-1.2l-.4-.4-1.8-2Z" transform="translate(-681.5 -369.6)"/>
      <path class="fa5775a9-1378-4e09-97bb-d99a8746c26a" d="M688.8,454.3h0a.6.6,0,0,1,.4-.5h.1l.3.4.3.3.3.4.9,1.1a.3.3,0,0,0,.1.2.8.8,0,0,1,.2.4c.3.5,0,.5-.2.3l-.7-.6-.2-.3-.6-.7-.3-.4-.3-.3Z" transform="translate(-681.5 -369.6)"/>
      <path class="fa5775a9-1378-4e09-97bb-d99a8746c26a" d="M691,454.2h0a.6.6,0,0,1,.5-.3h0l.6.7.4.5.2.3a.8.8,0,0,1,.2.5c.2.3,0,.3-.2.2l-.5-.3-.2-.3-.4-.5Z" transform="translate(-681.5 -369.6)"/>
      <path class="fa5775a9-1378-4e09-97bb-d99a8746c26a" d="M692.8,454h0a.8.8,0,0,1,.5-.2h0a3.1,3.1,0,0,0,.5.7l.4.5.2.3.2.5c.1.4-.1.3-.3.2l-.4-.4-.2-.2-.4-.5-.4-.6A.3.3,0,0,1,692.8,454Z" transform="translate(-681.5 -369.6)"/>
      <path class="fa5775a9-1378-4e09-97bb-d99a8746c26a" d="M694.2,478.2h0l.6-.3h0a3.1,3.1,0,0,0,.5.7l.6.7.3.5c.1.4-.1.4-.3.2s-.5-.3-.5-.3l-.6-.7Z" transform="translate(-681.5 -369.6)"/>
      <path class="fa5775a9-1378-4e09-97bb-d99a8746c26a" d="M696.2,478.2h.7l.3.6a4,4,0,0,0,.7.7,1.3,1.3,0,0,1,.2.6c.2.4,0,.3-.2.2l-.5-.4-.7-.8-.4-.6c0-.1-.1-.2-.1-.3Z" transform="translate(-681.5 -369.6)"/>
      <path class="fa5775a9-1378-4e09-97bb-d99a8746c26a" d="M698.4,478.3h0c0-.1.2-.3.5-.3h.1a.5.5,0,0,0,.1.3,2.1,2.1,0,0,0,.4.6l.7.8.3.6c.2.4-.1.4-.3.2s-.5-.4-.5-.4l-.7-.8-.5-.7Z" transform="translate(-681.5 -369.6)"/>
      <path class="fa5775a9-1378-4e09-97bb-d99a8746c26a" d="M700.2,477.9h0c0-.1.1-.3.5-.3h0l.7.9.8,1,.3.6c.2.4-.1.4-.3.2l-.5-.5-.8-.9C700.6,478.4,700.2,478,700.2,477.9Z" transform="translate(-681.5 -369.6)"/>
      <path class="fa5775a9-1378-4e09-97bb-d99a8746c26a" d="M701.5,476.7h0c0-.1.1-.3.4-.4h0l.3.2.4.5.4.6.2.2a1.2,1.2,0,0,1,.2.5c.1.4-.1.4-.3.2s-.4-.3-.4-.3l-.2-.3-.4-.5C701.8,477.1,701.5,476.8,701.5,476.7Z" transform="translate(-681.5 -369.6)"/>
      <path class="fa5775a9-1378-4e09-97bb-d99a8746c26a" d="M702.2,474.6h0l.4-.4h0l.8.9a1,1,0,0,1,.1.4c.1.2-.1.3-.3.2l-.3-.2Z" transform="translate(-681.5 -369.6)"/>
      <path class="fa5775a9-1378-4e09-97bb-d99a8746c26a" d="M706.7,479.5h0v-.2a.4.4,0,0,1,.1-.3h0c.2.1.3.3.5.5l.4.5a.4.4,0,0,1,.1.3c0,.2-.2.3-.3.2l-.3-.2-.3-.4Z" transform="translate(-681.5 -369.6)"/>
      <path class="fa5775a9-1378-4e09-97bb-d99a8746c26a" d="M707.9,478.8h0l.4-.4h0s.1,0,.2.2a.8.8,0,0,1,.4.4c.2.1.3.3.4.4a.3.3,0,0,1,.1.2l.2.4c.1.4-.1.4-.3.3l-.2-.2h-.2a.3.3,0,0,0-.1-.2c-.1-.1-.2-.3-.4-.4Z" transform="translate(-681.5 -369.6)"/>
      <path class="fa5775a9-1378-4e09-97bb-d99a8746c26a" d="M709,477.4h0c0-.1.1-.3.5-.3h0l.8,1.1.3.5q.3.2.3.3l.3.3a3.2,3.2,0,0,1,.4.7c.3.5,0,.5-.2.3l-.7-.6-.3-.3-.3-.4-.3-.4Z" transform="translate(-681.5 -369.6)"/>
      <path class="fa5775a9-1378-4e09-97bb-d99a8746c26a" d="M709.2,475h0c0-.2.1-.5.5-.4h.1l.6.8,1,1.4.6.7.6.6.4.5.3.4.7.8c.8.9.4.7-.2.3l-.7-.6a.8.8,0,0,1-.4-.4c-.2-.1-.2-.2-.2-.2l-.4-.3-.6-.7-.6-.7-1.1-1.4Z" transform="translate(-681.5 -369.6)"/>
      <path class="fa5775a9-1378-4e09-97bb-d99a8746c26a" d="M709.4,472.4h0c-.1-.2-.1-.5.3-.5h.1l.8.7a41.5,41.5,0,0,1,2.7,3.2l1.2,1.7.7.8.4.4.4.4.7.8c.8.9.4.7-.2.3l-.7-.5-.7-.6-.2-.2-.2-.3-.7-.8-1.3-1.6a19.4,19.4,0,0,0-2.6-3.1Z" transform="translate(-681.5 -369.6)"/>
      <path class="fa5775a9-1378-4e09-97bb-d99a8746c26a" d="M709.7,470.1h-.1c0-.2,0-.5.5-.5h0l.7.8,1.5,1.5.4.4,1,1.3c.7.9.3.7-.3.2l-1.2-1.1-.4-.4-1.4-1.5Z" transform="translate(-681.5 -369.6)"/>
      <path class="fa5775a9-1378-4e09-97bb-d99a8746c26a" d="M709.7,467.4h0c0-.2.1-.4.5-.3h0l.6.8,1.2,1.4.5.4,1,1.3c.7,1,.2.7-.3.3l-.6-.6-.7-.6-.3-.4a8.1,8.1,0,0,1-1.2-1.4Z" transform="translate(-681.5 -369.6)"/>
      <path class="fa5775a9-1378-4e09-97bb-d99a8746c26a" d="M709.8,465.5h0a.4.4,0,0,1,.4-.4h.1l.7.8,1.2,1.1.4.4,1,1.4c.7.9.2.7-.3.2a13.6,13.6,0,0,1-1.2-1.2l-.4-.3-1.1-1.2Z" transform="translate(-681.5 -369.6)"/>
      <path class="fa5775a9-1378-4e09-97bb-d99a8746c26a" d="M709.8,463.2h0c-.1-.1-.2-.5.3-.5h0l.5.3.4.3,1.3,1.2.5.4,1,1.3c.8.8.4.6-.2.2s-.4-.2-.7-.5l-.7-.6-.3-.4a6.9,6.9,0,0,0-1.3-1.1l-.4-.3Z" transform="translate(-681.5 -369.6)"/>
      <path class="fa5775a9-1378-4e09-97bb-d99a8746c26a" d="M709.7,460.7h-.1c0-.2,0-.5.5-.4h0l.7.7,1.3,1.4.4.4,1.1,1.2c.7,1,.3.7-.3.3l-1.3-1.1-.3-.4-1.3-1.3Z" transform="translate(-681.5 -369.6)"/>
      <path class="fa5775a9-1378-4e09-97bb-d99a8746c26a" d="M709.3,457.9h0c-.1-.2-.2-.5.3-.5h0l.9.7a18,18,0,0,1,1.9,2l.4.5.4.4a2.4,2.4,0,0,0,.6.9c.7.9.3.7-.3.2l-.6-.5-.6-.7-.3-.3a12.9,12.9,0,0,0-1.9-2.1Z" transform="translate(-681.5 -369.6)"/>
      <path class="fa5775a9-1378-4e09-97bb-d99a8746c26a" d="M707.7,454.5h0a.3.3,0,0,1,.3-.5h.1l.8.7a14.5,14.5,0,0,1,1.8,1.7l1.8,1.7.4.4,1.1,1.2c.7.9.3.7-.3.3l-.6-.6-.7-.5-.4-.4-1.7-1.7c-.6-.5-1.1-1.1-1.8-1.6Z" transform="translate(-681.5 -369.6)"/>
      <path class="fa5775a9-1378-4e09-97bb-d99a8746c26a" d="M710.6,454.5h0c-.1-.2-.1-.5.4-.4h0l.8.7.8.7.4.5.3.4.7.8c.7.9.3.7-.3.3l-.6-.6-.7-.6-.3-.3-.7-.8Z" transform="translate(-681.5 -369.6)"/>
      <path class="fa5775a9-1378-4e09-97bb-d99a8746c26a" d="M712.9,454.3h0c0-.1.1-.3.4-.4h0l.9.8.6.6.2.2a1.9,1.9,0,0,1,.4.6c.3.4,0,.4-.2.2l-.6-.3-.3-.3-.6-.5Z" transform="translate(-681.5 -369.6)"/>
      <path class="fa5775a9-1378-4e09-97bb-d99a8746c26a" d="M715.6,454.4h0c0-.1.1-.3.4-.4h0a16.6,16.6,0,0,1,1.3,1.4,1.2,1.2,0,0,1,.2.5c.2.3,0,.3-.2.2l-.5-.3Z" transform="translate(-681.5 -369.6)"/>
      <path class="fa5775a9-1378-4e09-97bb-d99a8746c26a" d="M721.3,479.7h0c0-.1.1-.3.4-.4h0l.8.8a.4.4,0,0,1,.1.3c.1.2-.1.3-.2.2h-.3Z" transform="translate(-681.5 -369.6)"/>
      <path class="fa5775a9-1378-4e09-97bb-d99a8746c26a" d="M722.6,478.7h0a.8.8,0,0,1,.6-.2h0v.2l.3.4.6.6.3.4c.1.3-.1.3-.3.3l-.4-.3-.6-.6A2.6,2.6,0,0,1,722.6,478.7Z" transform="translate(-681.5 -369.6)"/>
      <path class="fa5775a9-1378-4e09-97bb-d99a8746c26a" d="M723.9,477.5h0c0-.2.2-.5.5-.3h.1a1.6,1.6,0,0,0,.6.8.3.3,0,0,0,.1.2l.4.5,1.1,1.2c.8.8.4.7-.3.3s-.3-.3-.6-.6a2.3,2.3,0,0,1-.7-.6l-.4-.3c0-.1-.1-.2-.1-.3A3.1,3.1,0,0,1,723.9,477.5Z" transform="translate(-681.5 -369.6)"/>
      <path class="fa5775a9-1378-4e09-97bb-d99a8746c26a" d="M724.5,474.9h0c0-.1,0-.2.1-.2a.3.3,0,0,1,.4,0h.1l.5.8c.8.9,1.7,1.6,2.6,2.5l.5.4,1,1.3c.7.9.3.7-.3.2l-1.3-1.1-.3-.4c-.8-.8-1.9-1.6-2.7-2.5A3.3,3.3,0,0,1,724.5,474.9Z" transform="translate(-681.5 -369.6)"/>
      <path class="fa5775a9-1378-4e09-97bb-d99a8746c26a" d="M724.6,472.7h-.1c0-.1.1-.2.1-.3h.5l.7.7,1,.9.4.4h.1l.3.4a3.3,3.3,0,0,0,.6.8c.7,1,.3.8-.3.3l-.6-.6c-.1-.2-.3-.3-.4-.4l-.2-.2-.4-.3-1-.9A7.1,7.1,0,0,1,724.6,472.7Z" transform="translate(-681.5 -369.6)"/>
      <path class="fa5775a9-1378-4e09-97bb-d99a8746c26a" d="M724.7,470.7h0a.3.3,0,0,1,.3-.5h.1l.8.6.4.4.4.4a1.2,1.2,0,0,0,.4.4,2.7,2.7,0,0,0,.7.8c.7.9.3.7-.3.3l-.6-.5-.7-.6-.4-.4-.3-.3Z" transform="translate(-681.5 -369.6)"/>
      <path class="fa5775a9-1378-4e09-97bb-d99a8746c26a" d="M724.6,467.9h0c0-.1-.1-.5.4-.5h0a6,6,0,0,1,.8.8l.8.8.4.5,1,1.2c.9.8.4.7-.2.3l-.7-.6-.6-.6-.4-.4-.7-.8Z" transform="translate(-681.5 -369.6)"/>
      <path class="fa5775a9-1378-4e09-97bb-d99a8746c26a" d="M724.6,465.1h0c-.1-.2-.1-.5.3-.5h.1l.4.3c.2.1.3.3.4.4l1.6,1.5.3.5,1.1,1.3c.7.8.3.6-.3.2l-.6-.5-.7-.7-.3-.3a10.6,10.6,0,0,0-1.5-1.5.8.8,0,0,0-.4-.4Z" transform="translate(-681.5 -369.6)"/>
      <path class="fa5775a9-1378-4e09-97bb-d99a8746c26a" d="M724.3,462.3h0c0-.2,0-.5.4-.5h.1l.7.7.7.7.4.4,1,1.4c.6,1,.2.7-.3.2l-1.2-1.2c-.1-.1-.3-.2-.4-.4l-.6-.6Z" transform="translate(-681.5 -369.6)"/>
      <path class="fa5775a9-1378-4e09-97bb-d99a8746c26a" d="M729.4,467.5h0l.6-.3h0l.2.2c0,.2.2.3.4.5l.4.5.2.2.3.5c.1.3-.1.3-.3.2l-.5-.3s0-.1-.2-.2l-.4-.5-.5-.5Z" transform="translate(-681.5 -369.6)"/>
      <path class="fa5775a9-1378-4e09-97bb-d99a8746c26a" d="M724.1,459.5H724a.8.8,0,0,1,.2-.4h.4l.6.7,1.1,1.1.5.4,1.1,1.2c.8.9.3.6-.3.2l-1.3-1-.4-.4-1.1-1.1A2.2,2.2,0,0,1,724.1,459.5Z" transform="translate(-681.5 -369.6)"/>
      <path class="fa5775a9-1378-4e09-97bb-d99a8746c26a" d="M720.5,454.7h0c-.1-.1-.2-.4.3-.5h0l.9.6c1.7,1.3,3.2,2.8,4.8,4.1l.4.4.4.4.8.8c.8.8.4.6-.2.2l-.7-.4-.8-.6-.2-.2-.3-.2-.6-.6-1.3-1.2a19.9,19.9,0,0,0-2.7-2.2Z" transform="translate(-681.5 -369.6)"/>
      <path class="fa5775a9-1378-4e09-97bb-d99a8746c26a" d="M723.7,454.5h0c0-.2,0-.5.4-.4h.1l.7.8,1.2,1.2.5.4,1.2,1.1c.8.8.4.7-.3.3l-.7-.4-.7-.6-.4-.3a15.9,15.9,0,0,1-1.3-1.3Z" transform="translate(-681.5 -369.6)"/>
      <path class="fa5775a9-1378-4e09-97bb-d99a8746c26a" d="M726.5,454.6h-.1a.7.7,0,0,1,.3-.6h0l.4.2.7.5.9.7.3.6c.3.3.1.4-.2.2s-.6-.3-.6-.3l-.8-.7-.6-.5Z" transform="translate(-681.5 -369.6)"/>
      <path class="fa5775a9-1378-4e09-97bb-d99a8746c26a" d="M729.1,454.2h.7l.3.2.4.4.2.3c.1.3-.1.3-.2.3h-.4l-.5-.4-.3-.3h-.1A.1.1,0,0,0,729.1,454.2Z" transform="translate(-681.5 -369.6)"/>
      <path class="fa5775a9-1378-4e09-97bb-d99a8746c26a" d="M730.4,466.4h0c0-.1,0-.3.1-.3s.3,0,.4,0h.1a2.2,2.2,0,0,0,.5.8l1.4,1.6,1.4,1.6,2.7,3.2,2.8,3.2a10.7,10.7,0,0,0,1.4,1.6l.4.5,1,1.3c.7,1,.3.7-.2.3l-1.3-1.2-.6-.7-1.3-1.5-2.8-3.2-2.6-3.1-1.4-1.6-1.4-1.6A3.5,3.5,0,0,1,730.4,466.4Z" transform="translate(-681.5 -369.6)"/>
      <path class="fa5775a9-1378-4e09-97bb-d99a8746c26a" d="M734.1,473.6h0c0-.1.1-.4.5-.3h.1l.6.9a42.5,42.5,0,0,0,3.5,3.9l.4.4.3.5a2.8,2.8,0,0,1,.6.9c.6,1,.2.7-.3.2l-.5-.6-.6-.6-.4-.4c-1.1-1.3-2.4-2.5-3.5-3.9Z" transform="translate(-681.5 -369.6)"/>
      <path class="fa5775a9-1378-4e09-97bb-d99a8746c26a" d="M736.1,478.6h0l.6-.3h0v.2l.2.2.2.2a1,1,0,0,0,.4.5v.2a.7.7,0,0,1,.2.4c.2.4,0,.4-.2.3l-.4-.3-.2-.2-.4-.5-.2-.2c-.1-.1-.1-.2-.2-.2Z" transform="translate(-681.5 -369.6)"/>
      <path class="fa5775a9-1378-4e09-97bb-d99a8746c26a" d="M735,479.3h0c0-.1.1-.3.4-.5h0l.2.2.4.5.4.5.2.2a1.2,1.2,0,0,1,.1.5c.1.3-.1.3-.3.2l-.4-.4a.3.3,0,0,0-.1-.2c-.1-.1-.2-.3-.4-.4Z" transform="translate(-681.5 -369.6)"/>
      <path class="fa5775a9-1378-4e09-97bb-d99a8746c26a" d="M731.8,465.3h0a.4.4,0,0,1,.4-.4h0l.8.8c1.1,1.2,1.9,2.5,2.9,3.8a33.8,33.8,0,0,0,3.1,3.5l1.5,1.9,1.5,1.8,1.6,1.8.5.5.3.4.7.9c.7.9.2.7-.3.2l-.6-.6-.6-.5-.7-.7-1.6-1.7a35.1,35.1,0,0,0-2.9-3.6l-1.6-1.8c-.5-.5-1-1.2-1.5-1.8s-1.8-2.5-2.8-3.7Z" transform="translate(-681.5 -369.6)"/>
      <path class="fa5775a9-1378-4e09-97bb-d99a8746c26a" d="M744.9,479.1h0a.8.8,0,0,1,.6-.2h.1c0,.1,0,.2.1.2s.1.1.1.2l.4.3v.2l.2.4c.1.3-.1.3-.3.2a.1.1,0,0,1-.1-.1h-.4l-.3-.4-.2-.2c-.1-.1-.1-.2-.2-.2A.4.4,0,0,0,744.9,479.1Z" transform="translate(-681.5 -369.6)"/>
      <path class="fa5775a9-1378-4e09-97bb-d99a8746c26a" d="M732.8,463.2h0l.6-.2h.2l.4.4a.8.8,0,0,0,.1.3c0,.2-.2.3-.3.2h-.3a1.2,1.2,0,0,1-.4-.4H733a.3.3,0,0,0-.1-.2Z" transform="translate(-681.5 -369.6)"/>
      <path class="fa5775a9-1378-4e09-97bb-d99a8746c26a" d="M734.1,462h0a1.1,1.1,0,0,1,.5-.4h0l.4.5.2.3h.1a1,1,0,0,1,.1.4c.1.2-.1.2-.2.2l-.4-.2h-.1c0-.1-.1-.2-.2-.3Z" transform="translate(-681.5 -369.6)"/>
      <path class="fa5775a9-1378-4e09-97bb-d99a8746c26a" d="M735.1,460.3h0c0-.1.2-.3.5-.4h0l.6.7.4.4.2.2.3.5c.2.3,0,.3-.2.2s-.5-.3-.5-.3l-.2-.2-.5-.4Z" transform="translate(-681.5 -369.6)"/>
      <path class="fa5775a9-1378-4e09-97bb-d99a8746c26a" d="M736.2,458.7h0a1.1,1.1,0,0,1,.5-.4h0l1.1,1.2a.7.7,0,0,1,.2.4c.2.3,0,.3-.2.2l-.4-.2Z" transform="translate(-681.5 -369.6)"/>
      <path class="fa5775a9-1378-4e09-97bb-d99a8746c26a" d="M735.1,454.5H735v-.2h.6a2.2,2.2,0,0,0,.7.6l1.6,1.9.4.5.4.4.6.9c.7.9.3.7-.2.2a2.2,2.2,0,0,1-.7-.6l-.6-.6-.3-.4-1.6-1.8A2,2,0,0,1,735.1,454.5Z" transform="translate(-681.5 -369.6)"/>
      <path class="fa5775a9-1378-4e09-97bb-d99a8746c26a" d="M737.4,454.4h0c0-.1.2-.3.5-.3h0l.3.3c0,.1.1.2.2.3l.3.4.7.6.2.3.5.6c.2.4,0,.4-.3.2l-.3-.2-.3-.2-.3-.3-.6-.6-.4-.4-.2-.3Z" transform="translate(-681.5 -369.6)"/>
      <path class="fa5775a9-1378-4e09-97bb-d99a8746c26a" d="M739.9,454.8h0l.4-.5h.1l.5.6.3.4v.2a1,1,0,0,1,.1.4c.1.3-.1.3-.3.2l-.3-.3v-.2l-.3-.3Z" transform="translate(-681.5 -369.6)"/>
      <path class="fa5775a9-1378-4e09-97bb-d99a8746c26a" d="M741.8,454.8h0c0-.1.1-.3.4-.5h0l.4.5q.3.1.3.3h.2a1,1,0,0,0,.1.4c0,.3-.2.3-.3.2l-.3-.2h-.1l-.3-.3Z" transform="translate(-681.5 -369.6)"/>
      <path class="fa5775a9-1378-4e09-97bb-d99a8746c26a" d="M749.6,478.8h0a.8.8,0,0,1,.6-.2h.1v.2l.4.4a.4.4,0,0,1,.1.3c.1.2-.1.3-.2.2s-.4-.1-.4-.1h-.1l-.3-.3v-.2c0-.1-.1-.1-.1-.2Z" transform="translate(-681.5 -369.6)"/>
      <path class="fa5775a9-1378-4e09-97bb-d99a8746c26a" d="M750.9,477.9h0c0-.1.2-.3.5-.3h0l1.2,1.5.2.5c.1.3-.1.3-.3.2l-.4-.4Z" transform="translate(-681.5 -369.6)"/>
      <path class="fa5775a9-1378-4e09-97bb-d99a8746c26a" d="M751.7,475.9h0c0-.2,0-.5.5-.4h0l.6.9.5.7.3.5.9,1.4c.7.8.3.6-.3.2l-.6-.6-.4-.5-.2-.2-.3-.4-.4-.7Z" transform="translate(-681.5 -369.6)"/>
      <path class="fa5775a9-1378-4e09-97bb-d99a8746c26a" d="M752.3,473.8h0c-.1-.2,0-.5.4-.4h.1l.6.9,2.1,2.8.4.5.8,1.4c.6,1,.2.8-.3.2a15,15,0,0,1-1.1-1.3l-.3-.4-2.1-2.8Z" transform="translate(-681.5 -369.6)"/>
      <path class="fa5775a9-1378-4e09-97bb-d99a8746c26a" d="M752.1,470.8c-.1,0-.1,0-.1-.1s.1-.4.5-.3h.1l.6.9a17.1,17.1,0,0,1,1.1,1.4l.4.4.9,1.4c.7.9.3.7-.3.2a13.6,13.6,0,0,0-1.2-1.2l-.3-.4-1.1-1.5Z" transform="translate(-681.5 -369.6)"/>
      <path class="fa5775a9-1378-4e09-97bb-d99a8746c26a" d="M752.3,468.3h-.1c0-.2-.1-.5.3-.6h.1l.5.4.4.3.5.6.3.4.4.5a4.7,4.7,0,0,0,.5,1c.6.9.2.7-.3.2a3,3,0,0,1-.5-.7l-.6-.6-.3-.4-.5-.5Z" transform="translate(-681.5 -369.6)"/>
      <path class="fa5775a9-1378-4e09-97bb-d99a8746c26a" d="M752.2,465.5h-.1c0-.2,0-.5.5-.5h0l.8.8.8,1.1.4.5.9,1.4c.6.9.2.7-.3.2l-.6-.6-.6-.7-.3-.4a7.6,7.6,0,0,0-.8-1.1Z" transform="translate(-681.5 -369.6)"/>
      <path class="fa5775a9-1378-4e09-97bb-d99a8746c26a" d="M751.9,463h-.1c0-.2,0-.5.4-.5h0l.9.7c.7.7,1.3,1.5,1.9,2.2l.4.5.9,1.3c.7.9.3.7-.3.2l-.6-.5-.6-.7-.3-.4a19,19,0,0,0-1.9-2.1Z" transform="translate(-681.5 -369.6)"/>
      <path class="fa5775a9-1378-4e09-97bb-d99a8746c26a" d="M751.8,460.1h0c0-.2,0-.5.4-.5h0l.8.7,1.3,1.5,1.2,1.6,1.2,1.5,1,1.3a8.8,8.8,0,0,0,1,1.3c.4.4.5.5.4.5l-.7-.3-.6-.5-.7-.7-1-1.3-1.2-1.5-1.1-1.5a8.6,8.6,0,0,0-1.3-1.4Z" transform="translate(-681.5 -369.6)"/>
      <path class="fa5775a9-1378-4e09-97bb-d99a8746c26a" d="M758.6,466.2h.1c-.1-.1-.1-.1-.1-.2h.4a6,6,0,0,1,.8.8l2,2.2.4.5a7.9,7.9,0,0,1,.9,1.3c.7,1,.3.7-.2.2l-1.2-1.2-.4-.4-1.9-2.2C759.1,466.6,758.9,466.3,758.6,466.2Z" transform="translate(-681.5 -369.6)"/>
      <path class="fa5775a9-1378-4e09-97bb-d99a8746c26a" d="M760.5,465.6h0a.6.6,0,0,1,.5-.3h0l1.3,1.7a1.2,1.2,0,0,1,.2.5c.2.4,0,.4-.3.2l-.4-.4Z" transform="translate(-681.5 -369.6)"/>
      <path class="fa5775a9-1378-4e09-97bb-d99a8746c26a" d="M761.4,464.2h0l.4-.5h0l.5.4.4.4h.1a1,1,0,0,1,.1.4c.1.3-.1.3-.2.2l-.4-.2-.4-.4Z" transform="translate(-681.5 -369.6)"/>
      <path class="fa5775a9-1378-4e09-97bb-d99a8746c26a" d="M748.4,454.5h0a.1.1,0,0,0,.1-.1h.1a.1.1,0,0,1-.1.1h-.2a.1.1,0,0,1,.1-.1c.1-.1.1-.1.1,0h.4v.2h0l.2-.2.6.5,1.4,1.4,1.4,1.4a8.6,8.6,0,0,1,1.3,1.4l.7.7.4.5,1.1,1.2c.8.8.4.6-.2.3l-.7-.5-.7-.6-.2-.2-.3-.3-.6-.7a8.6,8.6,0,0,0-1.3-1.4l-1.3-1.4-1.4-1.3-.6-.5h-.2Z" transform="translate(-681.5 -369.6)"/>
      <path class="fa5775a9-1378-4e09-97bb-d99a8746c26a" d="M751.6,454.3h0l.2-.2c.1-.1.2,0,.4,0h0l.6.7,1.7,1.9.3.4,1,1.3c.7,1,.3.8-.3.3a13.6,13.6,0,0,0-1.2-1.2l-.3-.4-1.7-1.9A3.5,3.5,0,0,1,751.6,454.3Z" transform="translate(-681.5 -369.6)"/>
      <path class="fa5775a9-1378-4e09-97bb-d99a8746c26a" d="M754.1,454h0c0-.1.1-.3.5-.4h0l.2.4.3.3.3.4.6.6.3.3.2.2c0,.2.1.3.2.5s0,.4-.3.2l-.3-.2-.3-.3-.2-.3-.7-.6-.3-.4-.3-.3Z" transform="translate(-681.5 -369.6)"/>
      <path class="fa5775a9-1378-4e09-97bb-d99a8746c26a" d="M756.7,454.3h0l.5-.3h0c.1,0,.2.3.5.7l.4.4.2.2.2.4c.1.4-.1.4-.3.3l-.4-.3-.2-.2-.4-.4-.3-.5Z" transform="translate(-681.5 -369.6)"/>
      <path class="fa5775a9-1378-4e09-97bb-d99a8746c26a" d="M758.7,454.7h0c0-.1.2-.3.4-.4h.1c0,.1,1.4,1.5,1.4,1.5l.3.5c.1.4-.1.4-.3.3l-.5-.4Z" transform="translate(-681.5 -369.6)"/>
      <path class="fa5775a9-1378-4e09-97bb-d99a8746c26a" d="M760.8,454.4h0c0-.2.1-.4.5-.3h.1l.5.9h.1l.3.4v.2l.3.3.7.8c.7.9.3.7-.3.3l-1.3-1.2-.3-.4h-.1Z" transform="translate(-681.5 -369.6)"/>
      <path class="fa5775a9-1378-4e09-97bb-d99a8746c26a" d="M762.6,454.3h0c0-.2.1-.4.5-.3h.1l.5.9a13.4,13.4,0,0,1,1.1,1.4l1.2,1.4.4.5.9,1.4c.6.9.2.7-.3.2a14.2,14.2,0,0,0-1.2-1.3l-.3-.4-1.2-1.4-1.1-1.5Z" transform="translate(-681.5 -369.6)"/>
      <path class="fa5775a9-1378-4e09-97bb-d99a8746c26a" d="M765,454.4h0a.4.4,0,0,1,.5-.2h0c.1,0,.1.1.2.3l.5.7.8,1.1a3,3,0,0,1,.3.6c.2.5,0,.4-.3.2l-.5-.5-.8-1a3.5,3.5,0,0,1-.5-.8A.6.6,0,0,1,765,454.4Z" transform="translate(-681.5 -369.6)"/>
      <path class="fa5775a9-1378-4e09-97bb-d99a8746c26a" d="M759.1,478.4h.2l.3.2h0a.1.1,0,0,0,0-.2h-.2c0-.1,0-.1.1-.1h.1l.2.2.2.2a.3.3,0,0,1,.1.2c.1.2-.1.3-.2.3h-.2l-.3-.2-.3-.3H759v-.2Z" transform="translate(-681.5 -369.6)"/>
      <path class="fa5775a9-1378-4e09-97bb-d99a8746c26a" d="M761.7,478.7h0l.4-.4h.1l.2.4c.2.1.4.2.3.3v.2c.1.2-.1.3-.2.3h-.3l-.3-.3Z" transform="translate(-681.5 -369.6)"/>
      <path class="fa5775a9-1378-4e09-97bb-d99a8746c26a" d="M763.7,478.5h0a1.1,1.1,0,0,1,.5-.4h0l.5.4q.1.3.3.3l.2.2.2.4c.1.2-.1.3-.2.2h-.4l-.2-.2-.3-.3Z" transform="translate(-681.5 -369.6)"/>
      <path class="fa5775a9-1378-4e09-97bb-d99a8746c26a" d="M765.6,477.6h0c0-.1.2-.3.4-.4h.1l.2.3.4.5.5.5.2.2h.1l.2.4c.1.3,0,.3-.3.2l-.5-.3-.2-.2-.5-.5-.4-.5Z" transform="translate(-681.5 -369.6)"/>
      <path class="fa5775a9-1378-4e09-97bb-d99a8746c26a" d="M766.8,476.6h0a.6.6,0,0,1,.4-.5h0l.9.9c.2.2.5.4.6.6l.3.2a1.9,1.9,0,0,1,.4.6c.3.4,0,.3-.2.2l-.6-.3-.3-.3a1.7,1.7,0,0,1-.6-.6Z" transform="translate(-681.5 -369.6)"/>
      <path class="fa5775a9-1378-4e09-97bb-d99a8746c26a" d="M767.7,474.7h0l.4-.5h0l.5.4.3.3.2.2a.5.5,0,0,0,.1.3c0,.3-.1.3-.3.3l-.3-.2h-.1l-.3-.3Z" transform="translate(-681.5 -369.6)"/>
    </g>
    <g>
      <g>
        <path class="fa5775a9-1378-4e09-97bb-d99a8746c26a" d="M685.4,446.5h-.2a1.5,1.5,0,0,1-.3-2.6h.2l2.4-.2h8.3l5.8.3h2.6l2.5.3,4.7.6c5,.7,3,1.3-.2,1.6l-3.6.2h-6.1l-5.8-.2h-8Z" transform="translate(-681.5 -369.6)"/>
        <path class="fa5775a9-1378-4e09-97bb-d99a8746c26a" d="M717.6,409.7s0,.1-.2.1-2,.1-1.9-1.8c0,0,0-.2.1-.2l1.5-1.7.7-.8.6-.9a22,22,0,0,0,3-6.6c.1-.6.3-1.2.4-1.8l.2-.9c.1-.3.1-.6.2-.9s.5-2.5.6-3.7a62.7,62.7,0,0,0,.3-7.5v-3.8a27.4,27.4,0,0,1-.1-4.1c.1-.3.1-.7.2-1.1l.2-.6c.1-.2.1-.5.3-.6a5.8,5.8,0,0,1,1.5-1.9,5.4,5.4,0,0,1,2.3-1.1,9.7,9.7,0,0,1,2.4-.2,11.1,11.1,0,0,1,4.1,1.4,12.7,12.7,0,0,1,3.4,2.7l.7.9.6.9.9,1.9a18.2,18.2,0,0,1,1.1,4v1.7c.1.4.1.9.2,1.4v.7a14.2,14.2,0,0,1-.1,1.9,27,27,0,0,1-.5,4.8c-.4,2.5-.8,3.2-1.1,3a10.7,10.7,0,0,1-.5-3.2c0,.2,0-1.7-.2-3.6s-.2-1.8-.3-2.5l-.2-1.2a5.7,5.7,0,0,0-.1-1.3V382c-.1-.3-.1-.6-.2-.9a16,16,0,0,0-1.1-3.3l-.4-.8-.5-.7a3.8,3.8,0,0,0-1-1.2,8.8,8.8,0,0,0-2.7-1.9,6.7,6.7,0,0,0-3-.8,3.1,3.1,0,0,0-3.3,3.5,22.2,22.2,0,0,0,.1,3.6,3.1,3.1,0,0,1,.1,1v2.8c0,1.3,0,2.6-.1,3.9v1.9a13.6,13.6,0,0,1-.2,2c-.1,1.3-.4,2.5-.6,3.8s-.3,1.3-.4,1.9-.3,1.3-.5,1.9a20.9,20.9,0,0,1-3.3,7.3l-.7,1-.8.9Z" transform="translate(-681.5 -369.6)"/>
        <path class="fa5775a9-1378-4e09-97bb-d99a8746c26a" d="M740.6,396.3h-.2c-.6-.4-1.5-1.4,0-2.6h10.5s4.2.3,7.2.7c5.1.6,3.1,1.2-.1,1.5.4.1-7.5.6-7.5.6h-9.9Z" transform="translate(-681.5 -369.6)"/>
        <path class="fa5775a9-1378-4e09-97bb-d99a8746c26a" d="M757.7,395.9h-.2c-.6-.3-1.7-1.2-.3-2.6h.2a26.6,26.6,0,0,1,4.9-.1,10.7,10.7,0,0,1,5,1.5,6.9,6.9,0,0,1,2.2,2l.2.3c0,.1.1.2.1.3l.3.7a6926399513188.7,6926399513188.7,0,0,0,.4,1.4,12.1,12.1,0,0,1-.4,5.3,7.8,7.8,0,0,1-1.6,2.4,4.7,4.7,0,0,1-1,1l-.3.2h0l.6.3.7.4.6.4a7.5,7.5,0,0,1,2.3,5.1,8.2,8.2,0,0,1-.2,2.7,7.4,7.4,0,0,1-.4,1.4,8.3,8.3,0,0,1-.7,1.3,5.6,5.6,0,0,1-2.4,1.8l-.5.2h.3l.3.2c.2.2.4.3.5.5s.4.3.5.5l.5.6a8.4,8.4,0,0,1,1.3,5.3,8.1,8.1,0,0,1-.5,2.7l-.3.6-.3.6a3.6,3.6,0,0,1-.8,1.2,9.3,9.3,0,0,1-2.1,1.9l-.6.3h-.1l.2.3.3.4a2.2,2.2,0,0,1,.5.8,4.6,4.6,0,0,1,.4,2.1h0a.3.3,0,0,0-.1.2,1.6,1.6,0,0,1-.3.8.5.5,0,0,1-.2.4l-.3.5-.7.9a12.5,12.5,0,0,1-2.2,1.6,10.9,10.9,0,0,1-2.3.9,8.5,8.5,0,0,1-2.7.4c-.5-.1-.6-.2-.5-.3s1.4-.8,2.7-1.6a12.5,12.5,0,0,0,2.6-1.9,14,14,0,0,0,1.2-1.8v-.6a1.4,1.4,0,0,0-.2-.6l-.3-.3h-.1a.1.1,0,0,1-.1-.1l-.5-.3a5.5,5.5,0,0,1-1.7-.5l-.6-.3-.3-.3c-.3-.4-.2-.5-.2-.6h0c0-.2,0-.2.1-.2h0a1,1,0,0,1,.5-.8,2.3,2.3,0,0,1,1-.4l1.3-.3,1.1-.4h.5l.8-.5a4.9,4.9,0,0,0,1.2-1.3,3.6,3.6,0,0,1,.4-.9l.3-.9a5.9,5.9,0,0,0,.1-1.9,5,5,0,0,0-1.2-3.3l-.6-.6-.3-.2-.3-.2-.9-.7a2.4,2.4,0,0,1-.9-1.6,2.2,2.2,0,0,1,.1-.8,1.2,1.2,0,0,1,.5-.7,4.7,4.7,0,0,1,1.9-.8h.5l.4-.2a2.7,2.7,0,0,0,1.1-1c0-.1.1-.2.1-.4l.2-.4a3,3,0,0,0,.2-1,5.4,5.4,0,0,0,0-1.8,4.4,4.4,0,0,0-1.6-3l-.4-.2h-1.4l-1.2-.3a5.4,5.4,0,0,1-2.1-.5h-.3l-.2-.2c-.1-.1-.1-.1-.1-.2h-.1a1.3,1.3,0,0,1-.1-.6v-.4a.4.4,0,0,1,.1-.3h.1l.2-.2.3-.2.3-.2h.4l.8-.2,1.3-.5.5-.2.3-.2h.6l.6-.6a6,6,0,0,0,.9-1.5,8.5,8.5,0,0,0,.2-3.9,7.6,7.6,0,0,0-.6-1.6,4.7,4.7,0,0,0-1.3-1.1,8.9,8.9,0,0,0-3.8-1A20.6,20.6,0,0,0,757.7,395.9Z" transform="translate(-681.5 -369.6)"/>
        <path class="fa5775a9-1378-4e09-97bb-d99a8746c26a" d="M717.1,440.3h-.2a2.3,2.3,0,0,1-.6-1.1,1.5,1.5,0,0,1,1-1.5h.3a16.7,16.7,0,0,1,4.7,2l3,1.7a12.8,12.8,0,0,0,2.9,1.4h1.5l1.7.3,3.4.5,1.6.2h19.3l2.4-.2c1.2,0,2-.2,2.5-.1s.7.1.6.2a2.5,2.5,0,0,1-.9.7l-.9.4-1.1.4a22.8,22.8,0,0,1-3.6.8l-2.7.4H740c-1.4-.1-2.7-.1-4-.3l-3.9-.4-3.9-.7-1.1-.3-1-.4-1.8-.9-3.4-2A13.5,13.5,0,0,0,717.1,440.3Z" transform="translate(-681.5 -369.6)"/>
        <path class="fa5775a9-1378-4e09-97bb-d99a8746c26a" d="M716.3,439.4v-.2a1.4,1.4,0,0,1,1.1-.7c.5,0,.9.3,1.4,1.1s.1.1.1.2-.1,1.5-.2,2.3a7,7,0,0,1-1.1,2.7,2.4,2.4,0,0,1-.8.9l-.4.4-.5.3-1.7.9a17.6,17.6,0,0,1-3.7.8,34.6,34.6,0,0,1-7.2,0l-6.8-.5-3.5-.2-1.7-.2h-1.7a13,13,0,0,1-3.7-.5,5.3,5.3,0,0,1-2.1-1.1,7.6,7.6,0,0,1-1.2-1.9,10.5,10.5,0,0,1-.9-3.8,20.4,20.4,0,0,1,0-3.5v-1.7a9.7,9.7,0,0,0-.1-1.7V422.5a93.1,93.1,0,0,1,.7-13.9v-1.8a8,8,0,0,1,.7-2,5.9,5.9,0,0,1,3.1-2.9l1-.4,1-.2h1.8l3.5-.3h17.9a6.8,6.8,0,0,1,2,.4l.6.2.7.3.6.5.6.7c.1.1.1.3.2.4s.1.3.1.4a2.5,2.5,0,0,1,.1.8,4.1,4.1,0,0,1-.1,1.2,5.7,5.7,0,0,0,.2,2.3l.4.3v.2h-.2c-.1.1-.2.1-.4,0l-.4-.2-.4-.4a5.2,5.2,0,0,1-.7-2.2l-.2-1a.4.4,0,0,0-.1-.3c0-.1,0-.1-.1-.2a.1.1,0,0,0-.1-.1.9.9,0,0,0-.6-.4,5.5,5.5,0,0,0-2.2-.2h-5.8l-6.7-.2h-6.7l-3.3.2a4.6,4.6,0,0,0-2.4.9,4.4,4.4,0,0,0-1.3,2.1l-.2.7c0,.2-.1.5-.1.8l-.2,1.6c-.2,2.2-.4,4.4-.5,6.6v6.7c-.1,2.3.1,4.5.1,6.8l.2,3.3c0,1.3-.1,2.4-.1,3.5s.1,2.2.2,3.2a7.1,7.1,0,0,0,.7,2.7l.2.2.2.2v.2h.2l1.1.5a27.2,27.2,0,0,0,3.1.3l6.8.5,6.8.4a28.3,28.3,0,0,0,6.5,0,9.5,9.5,0,0,0,2.9-.7l1.3-.6.3-.2.2-.2.3-.4a3.4,3.4,0,0,0,.6-1.6C716.1,441,716.2,440.2,716.3,439.4Z" transform="translate(-681.5 -369.6)"/>
        <path class="fa5775a9-1378-4e09-97bb-d99a8746c26a" d="M704.2,408.7c.1,0,.1,0,.1.2a1.4,1.4,0,0,1,0,1.4,2.7,2.7,0,0,1-1.6.6h-.2a2.8,2.8,0,0,0-1.5-.6.8.8,0,0,0-.7,0h-.5l-.3.4h-.1v.3c0,.2-.1.3-.1.4a1.2,1.2,0,0,0,.2,1,2.8,2.8,0,0,0,1.2.8,2.6,2.6,0,0,0,1.5.1c.5-.1.9-.2,1-.5a1.1,1.1,0,0,0,.2-.6v-.7a1.9,1.9,0,0,0-.7-1.1,1.8,1.8,0,0,0-1.1-.5H701a.1.1,0,0,0-.1.1h-.2c0-.1-.4.7-.3.7h.1c0,.1.1.1.2.1h.4l.5-.2a.4.4,0,0,0,0-.5l-.3-.3c0-.1-.3-.3-.4-.4h.5c-.8.6-.9,1.1-1.1,1.1s-.1-.1-.1-.2-.1-.3,0-.5a1.1,1.1,0,0,1,.1-.5c0-.2.2-.4.3-.7h.8a3.7,3.7,0,0,1,1.9,1.2s.1,0,.2.3a1.2,1.2,0,0,1,.3,1.1,2.4,2.4,0,0,1-1.1,1.4l-1,.4H700l-.7-.2a2.5,2.5,0,0,1-1-.8,3.7,3.7,0,0,1-.5-1.1V411a.8.8,0,0,1,.1-.4,3.2,3.2,0,0,1,.5-1.7l.3-.3.3-.4.4-.3.4-.2a3.3,3.3,0,0,1,1.7-.4,4.7,4.7,0,0,1,3,1.2,5,5,0,0,1,1.6,2.8v1.6a5.2,5.2,0,0,1-.6,1.6,4.9,4.9,0,0,1-1.3,1.2,4.4,4.4,0,0,1-1.6.6,5.7,5.7,0,0,1-2.9-.2,5.3,5.3,0,0,1-2.6-1.9,3.9,3.9,0,0,1-.7-1.6,4.7,4.7,0,0,1,.1-1.7c.1-.3.1-.5.2-.8h.1c0-.1.1-.1,0-.1h.1v-.4a3.7,3.7,0,0,1,1.2-1.3,3.6,3.6,0,0,1,1.7-.7,4.3,4.3,0,0,1,1.6,0A6.6,6.6,0,0,1,704.2,408.7Z" transform="translate(-681.5 -369.6)"/>
        <path class="fa5775a9-1378-4e09-97bb-d99a8746c26a" d="M715.9,408v-.2a1.5,1.5,0,0,1,2.6-.1c.1.1.2.2.2.3s0,3,.1,4.5l.2,2.2v2.1c.1,1.5.1,2.9.2,4.4v4.3c-.1,1.5-.1,2.9-.2,4.4l-.2,2.6s-.1,1-.4,2.5a44,44,0,0,1-1,4.7c-1.3,4.9-1.6,2.8-1.5-.3a26.2,26.2,0,0,1,.1-3.7c0-1.9.1-3.8.1-3.8v-2.2c.1-1.4.1-2.8.2-4.2v-4.3c0-1.4-.1-2.8-.2-4.2v-2.1l-.2-2.2C715.9,411.1,715.9,409.6,715.9,408Z" transform="translate(-681.5 -369.6)"/>
        <path class="fa5775a9-1378-4e09-97bb-d99a8746c26a" d="M712.4,405.1v-.2a1.5,1.5,0,0,1,2.6-.5v.2c.2,1.6.5,3.1.6,4.7.9,8.3.7,16.6.6,24.9v2.6s-.1,1-.2,2.5l-.3,2.3a19.4,19.4,0,0,1-.2,2.4c-.6,5-1.2,3.1-1.6-.1,0,.2-.2-1.7-.3-3.6l-.2-3.9v-2.3c.1-8.2.3-16.4-.5-24.5Z" transform="translate(-681.5 -369.6)"/>
      </g>
      <path class="fa5775a9-1378-4e09-97bb-d99a8746c26a" d="M684.7,436.3h0a2.1,2.1,0,0,1-.4.6h-.5a.9.9,0,0,1-.6-.3h-.1c-.1-.3-.2-.4-.2-.5l1.2-1.1a9.1,9.1,0,0,1,1.1,1.6l1.1,1.6.7,1.4.7,1.4c.3.8.8,1.7,1.2,2.5l.5.8a.9.9,0,0,1,.3.5c.1.3.1.4,0,.4l-.6-.3a3.8,3.8,0,0,1-.9-.9,7.2,7.2,0,0,1-1.4-1.8l-.9-1.3a2.8,2.8,0,0,1-.4-.7l-.7-1.1a8.6,8.6,0,0,0-1-1.6l-1-1.4,1.3-1.2A2.5,2.5,0,0,1,684.7,436.3Z" transform="translate(-681.5 -369.6)"/>
      <path class="fa5775a9-1378-4e09-97bb-d99a8746c26a" d="M683.1,429.5h0c.1-.4.4-1.1,1.5-.6h.1l1.1,2.5c.6,1.5,1.4,2.9,2.1,4.3a21.2,21.2,0,0,0,1.1,2.1l1.1,2.1.8,1.4a11.9,11.9,0,0,0,.6,1.4,20.6,20.6,0,0,1,1.2,2.6c1.3,2.8.3,2-.8.4a17.3,17.3,0,0,1-1.3-1.8l-.9-1.3-.4-.7-.7-1.2-1.1-2.1a21.2,21.2,0,0,1-1.1-2.1,35.5,35.5,0,0,1-2.1-4.4Z" transform="translate(-681.5 -369.6)"/>
      <path class="fa5775a9-1378-4e09-97bb-d99a8746c26a" d="M682.6,419.9h.1a.9.9,0,0,1,.6-.6,1.2,1.2,0,0,1,.9.5.1.1,0,0,1,.1.1,10.5,10.5,0,0,0,.6,2.4,50.5,50.5,0,0,0,2.8,5.1c.6.9,1,1.7,1.5,2.6l1.3,2.6,2.7,5.3,2.2,4.1.2.4a6.9,6.9,0,0,0,.4,1c.4.8.9,1.8,1.2,2.6,1.3,2.8.3,2-.8.4l-1.3-1.8-1.3-2-2.2-4.2c-.9-1.7-1.8-3.5-2.6-5.2l-1.4-2.5a20.1,20.1,0,0,0-1.4-2.5c-.9-1.7-2-3.3-2.8-5.2A9.5,9.5,0,0,1,682.6,419.9Z" transform="translate(-681.5 -369.6)"/>
      <path class="fa5775a9-1378-4e09-97bb-d99a8746c26a" d="M683,415.9h0c0-.5.3-1.2,1.4-.8a.1.1,0,0,1,.1.1l1.4,2.4,3.4,6,3.4,6.1c.6,1,1.1,2.1,1.6,3.1l1.4,3.2c.5,1,.9,2,1.5,3l.4.9a2.5,2.5,0,0,0,.4.7,8.1,8.1,0,0,0,.6,1.3,7.5,7.5,0,0,0,.6,1.3,8.3,8.3,0,0,0,.7,1.3c1.5,2.6.5,1.9-.8.5a11.6,11.6,0,0,1-1.4-1.8,8,8,0,0,1-.9-1.4l-.4-.6-.9-1.8-1.5-3.1-1.4-3-.7-1.6a10,10,0,0,1-.8-1.4l-3.3-5.9-3.4-6Z" transform="translate(-681.5 -369.6)"/>
      <path class="fa5775a9-1378-4e09-97bb-d99a8746c26a" d="M684.1,409.6c-.1-.1-.1-.1-.1-.2s.3-1.2,1.4-.8h.1l1.5,2.4,4.4,7.6,2.1,3.8,1.1,1.9.9,2,1,2a12.4,12.4,0,0,1,1,2c.6,1.3,1.1,2.7,1.7,4l.9,2a17.6,17.6,0,0,0,.9,2l.4.8a1.6,1.6,0,0,0,.4.7,11.9,11.9,0,0,0,.6,1.4,6.7,6.7,0,0,0,.6,1.2c.3.4.4.9.7,1.3,1.6,2.5.6,1.9-.8.5l-1.4-1.7a8,8,0,0,1-.9-1.4l-.4-.7a2.5,2.5,0,0,1-.4-.7l-.6-1.2c-.6-1.3-1.2-2.6-1.7-3.9s-1.1-2.7-1.7-4-1.3-2.5-1.9-3.8l-1-1.9-1-1.9-2.1-3.7-4.3-7.4Z" transform="translate(-681.5 -369.6)"/>
      <path class="fa5775a9-1378-4e09-97bb-d99a8746c26a" d="M685.1,404.7h0c.1-.4.5-1.1,1.5-.5h.1l1,2.5c1.5,3.1,3.2,6.1,5,9.1s3.8,5.8,5.6,8.8,3.4,6.2,5,9.2,1.6,3.1,2.5,4.6l.9,1.6s1.1,2.3,1.8,4,.3,2-.8.5c0,.2-2.6-3.8-2.6-3.8l-1.1-2-.6-1.1-.6-1.1-1.2-2.3-2.4-4.6-1.2-2.2a25.3,25.3,0,0,1-1.3-2.2l-5.5-8.7a88.3,88.3,0,0,1-5-9.1Z" transform="translate(-681.5 -369.6)"/>
      <path class="fa5775a9-1378-4e09-97bb-d99a8746c26a" d="M689.3,404.2h0c.1-.5.4-1.2,1.4-.7h.1l1.4,2.5c1.6,3.2,3.4,6.3,5.2,9.5l2.6,4.7c.9,1.6,1.7,3.2,2.5,4.8l5,9.6,2.5,4.8.9,1.6a11.9,11.9,0,0,0,.6,1.4,20.6,20.6,0,0,1,1.2,2.6c1.3,2.8.4,2-.8.4l-1.3-1.8a7.3,7.3,0,0,0-.9-1.3l-.4-.7-1.1-2-1.2-2.3-1.2-2.4-4.9-9.4c-3.2-6.4-7-12.4-10.2-18.7Z" transform="translate(-681.5 -369.6)"/>
      <path class="fa5775a9-1378-4e09-97bb-d99a8746c26a" d="M693.1,403.5h0c.1-.5.5-1.1,1.5-.5h.1l.4,1.3c.2.4.3.8.5,1.3l1,2.1,1.2,2.1a22.5,22.5,0,0,0,1.2,2.1l1.2,2c1.7,2.7,3.5,5.4,5.1,8.3s2.9,5.8,4.3,8.7a43.9,43.9,0,0,0,2.1,4.4l.8,1.5.2.4a6.9,6.9,0,0,0,.4,1l1.2,2.6c1.4,2.8.4,2-.8.5l-.4-.5-.9-1.3-1.3-2-.4-.8-.2-.3V436l-.3-.5-2.1-4.3c-1.4-2.8-2.7-5.7-4.2-8.5-3-5.4-7-10.5-9.5-16.5a6.9,6.9,0,0,1-.5-1.3Z" transform="translate(-681.5 -369.6)"/>
      <path class="fa5775a9-1378-4e09-97bb-d99a8746c26a" d="M696.9,403.6c0-.1-.1-.1,0-.1s.3-1.2,1.4-.7h.1l1.2,2.5a119.9,119.9,0,0,0,6.6,10.8l3.5,5.4,1.7,2.6.9,1.5.7,1.4c.4.8.9,1.8,1.2,2.6,1.2,2.9.3,2-.8.4l-1.3-1.8-1.3-1.9-1-1.6-1.7-2.6-3.5-5.2c-2.3-3.5-4.5-7.1-6.5-10.9Z" transform="translate(-681.5 -369.6)"/>
      <path class="fa5775a9-1378-4e09-97bb-d99a8746c26a" d="M699.8,403.5h-.1c0-.5.1-1.3,1.2-1.1h.2l1.8,2.2c3.2,4.2,6,8.8,8.8,13.3l.9,1.3.7,1.3,1.4,2.5c1.4,2.7.4,2-.8.5a8.2,8.2,0,0,1-1.4-1.7,24,24,0,0,1-1.5-1.9l-.7-1.1c-2.9-4.5-5.6-9-8.8-13.2Z" transform="translate(-681.5 -369.6)"/>
      <path class="fa5775a9-1378-4e09-97bb-d99a8746c26a" d="M704.8,403.9h0c0-.5.1-1.3,1.2-1h.2l1.7,2.3c.9,1.1,1.7,2.3,2.5,3.5l1.2,1.7,1.1,1.8.8,1.4.7,1.3a22.1,22.1,0,0,1,1.2,2.7c1.3,2.8.3,1.9-.8.4,0,.1-.6-.9-1.3-1.8a7.3,7.3,0,0,0-.9-1.3l-.4-.6-.7-1.2-1.2-1.7-1.1-1.8c-.8-1.1-1.6-2.3-2.5-3.4Z" transform="translate(-681.5 -369.6)"/>
      <path class="fa5775a9-1378-4e09-97bb-d99a8746c26a" d="M708.5,403.1h0a1.6,1.6,0,0,1,1.6-.5h0v.2c.1.1.1.3.3.6l.4.8.6.9a15.6,15.6,0,0,0,1.2,1.7l.6.8a7.2,7.2,0,0,1,.6,1.7c.4,1.3-.2,1-.8.5l-.6-.6-.6-.6-.6-.8c-.3-.5-.8-1.1-1.2-1.8a3.6,3.6,0,0,1-.7-1l-.5-.9a2.4,2.4,0,0,0-.3-.7A1,1,0,0,0,708.5,403.1Z" transform="translate(-681.5 -369.6)"/>
      <path class="fa5775a9-1378-4e09-97bb-d99a8746c26a" d="M715.1,409.3h0c.3-.4,1-.8,1.6.2h.1l-.2,1.4v1.3c-.1,4.2.7,8.4.9,12.7.1,2.1.1,4.2.1,6.4v4.1a2.5,2.5,0,0,0-.1.8s-.1.7-.2,1.6-.4,1.9-.6,2.8c-.8,3-1,1.7-.9-.2a12,12,0,0,1,0-2.1v-2.4a1.9,1.9,0,0,0,.1-.8V431c0-2.1,0-4.2-.1-6.3-.2-4.1-1-8.2-.9-12.5v-1.4C715,410.3,715,409.8,715.1,409.3Z" transform="translate(-681.5 -369.6)"/>
      <path class="fa5775a9-1378-4e09-97bb-d99a8746c26a" d="M718.5,412.1v.2a.9.9,0,0,1-1.6-.1h-.1a12.2,12.2,0,0,0,0-2.7,7,7,0,0,0-.9-3.3,6.3,6.3,0,0,0-2.1-2.5h-.1l.5-1.6.6.2.5.2.8.7.2.5a7.3,7.3,0,0,1,.5,1.2,9.9,9.9,0,0,1,.2,3c0,3.1-.5,1.9-.9,0,0,.1-.2-1-.5-2a5.3,5.3,0,0,0-.6-1.3c-.2-.3-.4-.4-.4-.5l-.5-.3.5-1.5h.1a8.4,8.4,0,0,1,2.8,3.1,11.2,11.2,0,0,1,1,3.9A14,14,0,0,1,718.5,412.1Z" transform="translate(-681.5 -369.6)"/>
    </g>
  </g>
</svg>
