<svg id="b9ad20d1-a5b8-425a-8402-6adb55ec6d0f" data-name="Objects" xmlns="http://www.w3.org/2000/svg" viewBox="0 0 80.32 118.81"><defs><style>.f2deff89-fa05-4ddc-9773-c374ff436cc1{fill:#252525;}</style></defs><path class="f2deff89-fa05-4ddc-9773-c374ff436cc1" d="M928.4,724.81s0,0,0-.1a9.25,9.25,0,0,1-.17-1.43,6.55,6.55,0,0,1,.26-2.27.77.77,0,0,1,.07-.16l.41,0a8.29,8.29,0,0,1,1,.09,24.8,24.8,0,0,1,2.71.56c.94.25,1.86.56,2.54.79l1.12.42a6.17,6.17,0,0,1,.57.54,6,6,0,0,1,.95,1.22c.94,1.38,0,1.89-.95,2a3.83,3.83,0,0,1-1,0l-.73-.05-.34,0-1-.37-1-.33c-.37-.12-.77-.22-1.17-.34a17.61,17.61,0,0,0-2.19-.44,5.89,5.89,0,0,0-.69-.07Z" transform="translate(-928.18 -609.76)"/><path class="f2deff89-fa05-4ddc-9773-c374ff436cc1" d="M949.82,728.58s0,0-.07-.09a6.5,6.5,0,0,1-.49-3.68.75.75,0,0,1,0-.16l1.48-.15c.43,0,.94-.1,1.47-.14l1.65-.08c.56,0,1.12-.06,1.65-.07H957l1.39,0s.35.1.83.28a10.14,10.14,0,0,1,1.59.73c1.68.85,1,1.73,0,2.19a4.64,4.64,0,0,1-1.21.41l-1.28.34-1.32,0h-1.35l-1.54.07-1.54.08-1.33.13Z" transform="translate(-928.18 -609.76)"/><path class="f2deff89-fa05-4ddc-9773-c374ff436cc1" d="M975.23,723.08s0,0-.11,0a5.54,5.54,0,0,1-2.15-3,.55.55,0,0,1,0-.18l1.48-1c.44-.26.94-.62,1.48-.9l1.68-.94c1.14-.65,2.29-1.23,3.15-1.67l1.43-.73s.42-.1,1-.19a12.37,12.37,0,0,1,2-.17c2.14-.12,1.82,1,.94,2a7,7,0,0,1-1.08,1l-1.19,1-1.38.71-1.41.72c-.52.27-1,.58-1.59.88l-1.58.88c-.52.27-.93.58-1.32.82Z" transform="translate(-928.18 -609.76)"/><path class="f2deff89-fa05-4ddc-9773-c374ff436cc1" d="M998.1,706.55s0,0-.11,0a8.07,8.07,0,0,1-3-2.21s-.1-.11-.1-.14l.56-.82c.16-.24.37-.5.55-.82l.56-1a20.07,20.07,0,0,0,1-1.91c.24-.54.41-.89.41-.89a7.94,7.94,0,0,1,1.56-1.29c1.24-.9,1.9-.17,2.05.77a3,3,0,0,1,0,1c0,.27,0,.54,0,.74a2.73,2.73,0,0,1,0,.35l-.45,1a22.78,22.78,0,0,1-1.08,2.16l-.63,1.13c-.21.36-.45.68-.64,1Z" transform="translate(-928.18 -609.76)"/><path class="f2deff89-fa05-4ddc-9773-c374ff436cc1" d="M1007.32,683.5s0,0-.1,0a6.28,6.28,0,0,1-3.63-.76.5.5,0,0,1-.14-.1s.09-.55.23-1.31c.06-.38.14-.83.22-1.3s.13-1,.19-1.55l.52-4.29a6,6,0,0,1,.4-.8,8.82,8.82,0,0,1,1-1.46c1.11-1.5,1.85-.61,2.14.45a4.81,4.81,0,0,1,.21,1.2c0,.3.06.62.09.85l0,.4s-.24,2.09-.49,4.19c-.07.54-.13,1.07-.19,1.58s-.17,1-.24,1.42C1007.43,682.9,1007.33,683.47,1007.32,683.5Z" transform="translate(-928.18 -609.76)"/><path class="f2deff89-fa05-4ddc-9773-c374ff436cc1" d="M1008,655.49s0,0-.09.07a6.73,6.73,0,0,1-3.67.54l-.17,0s-.09-.52-.21-1.24c-.07-.37-.14-.79-.21-1.23s-.23-.91-.35-1.38l-.35-1.36c-.15-.43-.29-.82-.4-1.16l-.39-1.13s0-.33,0-.78a8,8,0,0,1,.1-1.58c.14-1.76,1.16-1.62,2-.89a13.3,13.3,0,0,1,1.64,2l.43,1.25c.12.37.27.81.43,1.27s.26,1,.39,1.51.27,1,.38,1.5.17,1,.24,1.34C1007.88,654.92,1008,655.46,1008,655.49Z" transform="translate(-928.18 -609.76)"/><path class="f2deff89-fa05-4ddc-9773-c374ff436cc1" d="M999.86,633.24s0,0-.06.09a7.15,7.15,0,0,1-3.31,1.67.52.52,0,0,1-.17,0s-.24-.43-.56-1l-.55-1-.72-1.14c-.24-.38-.48-.77-.71-1.12l-.68-1-.66-1s-.1-.3-.2-.75a8,8,0,0,1-.21-1.53c-.17-1.68.89-1.72,1.8-1.26a3.78,3.78,0,0,1,.94.62c.47.34.94.71.94.71l.68,1,.7,1,.77,1.21.77,1.22.61,1.12C999.6,632.76,999.85,633.21,999.86,633.24Z" transform="translate(-928.18 -609.76)"/><path class="f2deff89-fa05-4ddc-9773-c374ff436cc1" d="M1004,616.88a.36.36,0,0,1,.21.21,2.32,2.32,0,0,1,.37,1.84c-.19.63-.83,1.17-2,1.47a1.05,1.05,0,0,1-.32,0,31.27,31.27,0,0,0-5.81-2c-2.85-.76-5.83-1.37-8.84-2.22l-.76-.23h0l.22,1.5c.11.75.24,1.49.32,2.25l.19,2.28.08.94,0,.94.06,1.88V626c0,.18,0,.44,0,.76-.06.64-.14,1.55-.24,2.59a57.25,57.25,0,0,1-1.16,6.74c-.79,3.55-1.38,4.55-1.71,4.13s-.42-2.27-.46-4.48c-.07.23,0-2.41,0-5.08,0-1.33-.12-2.67-.15-3.68,0-.51-.07-.93-.1-1.22l0-.46c-.05-1,0-2-.15-3.05l-.19-2.13c-.07-.72-.2-1.43-.3-2.14l-.16-1.1,0-.27a2,2,0,0,0,0-.23l-.06-.28-.24-1.11-.95-4.44-.12-.55c0-.09-.06-.21,0-.26l.27.11,1.1.42,2.21.85c.74.29,1.49.58,2.21.81.88.26,1,.32,1.42.42,2.81.8,5.76,1.41,8.76,2.2A34.59,34.59,0,0,1,1004,616.88Z" transform="translate(-928.18 -609.76)"/></svg>