<svg id="e666edb9-9833-4587-b51c-111015f7ce38" data-name="Objects" xmlns="http://www.w3.org/2000/svg" viewBox="0 0 134.1 114.2">
  <defs>
    <style>
      .e838e353-2a18-4d5f-8264-835f050cca50 {
        fill: #252525;
      }
    </style>
  </defs>
  <g>
    <path class="e838e353-2a18-4d5f-8264-835f050cca50" d="M878.6,642.6h.3a3.4,3.4,0,0,1,1.5,1.8c.3.8,0,1.7-1.2,2.8l-.4.2a29.5,29.5,0,0,0-7.3,1.4,20.2,20.2,0,0,0-6.5,3.8,25.3,25.3,0,0,0-4.8,6,36.7,36.7,0,0,0-2.9,7.4,22.5,22.5,0,0,0-1.1,7.7,18.8,18.8,0,0,0,1.3,7.5,15.9,15.9,0,0,0,4.2,6.1,23.7,23.7,0,0,0,3,2.3,35.9,35.9,0,0,0,3.4,1.7l3.7,1.3,3.9.7a23.4,23.4,0,0,0,14.9-3.2,21,21,0,0,0,3-2.2,23.7,23.7,0,0,0,2.7-2.8,24.4,24.4,0,0,0,3.7-6.7c1.7-5,2-10.3,0-15l-.7-1.4a3.1,3.1,0,0,0-.5-1l-.5-.9-.7-.9v-.2l-.5-.7-.8-1a4.3,4.3,0,0,1-.4-.7l-.6-.6a33.7,33.7,0,0,0-5.9-5.3c-.9-.6-1.7-1-2.3-1.5l-1.4-1c-.7-.5-.8-.8-.5-1a4.7,4.7,0,0,1,2,.1l1.7.4,1.9.7,1.8.8,1.9,1.1a4.1,4.1,0,0,1,1.1.7l1.1.7,1.1.9,1,.8,1.7,1.7a4.6,4.6,0,0,1,.7.7l.5.6.4.5.4.5.3.6.7,1.1.6,1.2.5,1.2a3.6,3.6,0,0,1,.4,1.1l.4,1.1a23.9,23.9,0,0,1,.9,9.2l-.3,2.3-.5,2.2a32.6,32.6,0,0,1-1.5,4.4,30.5,30.5,0,0,1-2.1,4,32.7,32.7,0,0,1-2.8,3.7,25,25,0,0,1-3.4,3.1,19.9,19.9,0,0,1-3.9,2.5,28.9,28.9,0,0,1-17.8,2.9,33.5,33.5,0,0,1-8.7-2.6,25.7,25.7,0,0,1-7.6-5.2,22.1,22.1,0,0,1-5-8,27.9,27.9,0,0,1-1.4-9.1,38.4,38.4,0,0,1,1.4-8.9,35.2,35.2,0,0,1,1.5-4.2l.9-2,1.1-2.1a27.8,27.8,0,0,1,5.8-7.1,24.6,24.6,0,0,1,8-4.6A29.2,29.2,0,0,1,878.6,642.6Z" transform="translate(-787.5 -642.6)"/>
    <path class="e838e353-2a18-4d5f-8264-835f050cca50" d="M815.8,675.1h.4a3.1,3.1,0,0,1,1.6,1.8c.2.8-.2,1.8-1.3,2.8l-.3.3a10.2,10.2,0,0,0-6.1,2.3,15.9,15.9,0,0,0-5.1,8.3,18.5,18.5,0,0,0,0,9.9,10.8,10.8,0,0,0,2.1,4.3,7.1,7.1,0,0,0,.7.9l.8.9.9.7,1,.7a17.1,17.1,0,0,0,9.5,2.1c6.8-.4,13.7-4.1,15.4-10.4a13.2,13.2,0,0,0-.4-9.4.4.4,0,0,0-.1-.3v-.4l-.3-.5-.5-.8a10.1,10.1,0,0,0-1.3-1.6v-.3c-.2-.1-.3-.3-.6-.6a18.5,18.5,0,0,0-2-2,20.8,20.8,0,0,0-3.1-2.2,18.7,18.7,0,0,0-3.5-1.7c-2-.8-3.4-1.1-4.2-1.5s-1.1-.5-.8-.7,2.9-.9,5.8-.4c-.3-.2,3.3.4,6.6,2.1a24.6,24.6,0,0,1,4.3,2.8l.8.7.5.5.5.5c.5.7,1.1,1.4,1.6,2.2l.6,1.2.2.3v.3l.2.3.6,1.6a17.7,17.7,0,0,1,.8,3.1,18.2,18.2,0,0,1,.1,3.3,22.1,22.1,0,0,1-1.3,6.2l-.6,1.4c-.3.5-.5,1.1-.8,1.5a17.9,17.9,0,0,1-2,2.6,20.5,20.5,0,0,1-5,3.9,24.6,24.6,0,0,1-11.8,3.2,21.4,21.4,0,0,1-6.2-.6,18.3,18.3,0,0,1-5.9-2.6l-1.3-.9a13.1,13.1,0,0,1-1.2-1.1l-.6-.6-.6-.6-.5-.7-.4-.6a18.6,18.6,0,0,1-2.7-5.9,24.4,24.4,0,0,1,.2-12.3,21.2,21.2,0,0,1,2.5-5.8,19.1,19.1,0,0,1,4.2-4.8,13,13,0,0,1,4.1-2.4A15.3,15.3,0,0,1,815.8,675.1Z" transform="translate(-787.5 -642.6)"/>
    <path class="e838e353-2a18-4d5f-8264-835f050cca50" d="M841.4,752.4c.1.1.1.1,0,.3a4.2,4.2,0,0,1-1.4,1.7c-.7.4-1.7.6-3.1-.7a.4.4,0,0,1-.3-.4,26.6,26.6,0,0,1-.1-8.9,46.4,46.4,0,0,1,1.6-8.1,79.2,79.2,0,0,1,2.6-7.8,47.8,47.8,0,0,1,3.9-7.4,36.7,36.7,0,0,1,5.3-6.5,40.8,40.8,0,0,1,6.3-5.4,37.1,37.1,0,0,1,7.2-4.3,41.3,41.3,0,0,1,7.9-2.9,30.7,30.7,0,0,1,4.2-.7l2.1-.2h2.1a39.3,39.3,0,0,1,8.4.9,36.6,36.6,0,0,1,8,3,38.3,38.3,0,0,1,12.8,10.8,52.7,52.7,0,0,1,8.2,14.4l.6,1.7a5.6,5.6,0,0,1,.4,1.2,21.7,21.7,0,0,1,.7,2.4l.3,1.2a23.2,23.2,0,0,1,.5,3.3,41,41,0,0,1,.4,8.6,25.8,25.8,0,0,1-.5,4.6c-.3.8-.5,1.1-.8.8a4.6,4.6,0,0,1-.7-1.8l-.3-1.6a12.9,12.9,0,0,1-.4-1.9c-.1.2-.5-3-1.4-6.1l-.6-2.4c-.3-.7-.5-1.4-.7-2s-.6-2-.6-2a17.2,17.2,0,0,1-.7-2.1,4.9,4.9,0,0,1-.4-1.1l-.4-1c-.2-.6-.5-1.1-.7-1.7a60.2,60.2,0,0,0-3.4-6.7,35.6,35.6,0,0,0-4.3-5.9,33,33,0,0,0-11.4-8.9,30.1,30.1,0,0,0-6.8-2.2l-.9-.2h-.9l-1.7-.2h-5.5l-1.8.2-3.5.7a35.2,35.2,0,0,0-6.8,2.6,49.7,49.7,0,0,0-6.2,3.9,42.8,42.8,0,0,0-5.5,4.9,41,41,0,0,0-4.6,5.7,39.7,39.7,0,0,0-3.3,6.5,45.6,45.6,0,0,0-2.4,7.1,37.6,37.6,0,0,0-1.4,7.3A26.2,26.2,0,0,0,841.4,752.4Z" transform="translate(-787.5 -642.6)"/>
    <path class="e838e353-2a18-4d5f-8264-835f050cca50" d="M840.9,755.7h-.3c-1.1-.7-2.7-2.5-.1-4.6l.4-.2h62.4s7.5.5,12.8,1.2c8.9,1.1,5.4,2.2-.2,2.8.6.1-13.2.9-13.2.9H840.9Z" transform="translate(-787.5 -642.6)"/>
    <path class="e838e353-2a18-4d5f-8264-835f050cca50" d="M792.5,753.1a.4.4,0,0,1-.1.3,3.1,3.1,0,0,1-1.9,1.4c-.8.2-1.8-.1-2.9-1.5a2.3,2.3,0,0,1-.1-.4,51.6,51.6,0,0,1,1-8.7,39.6,39.6,0,0,1,3-9.4,29.4,29.4,0,0,1,5.6-8.4,29,29,0,0,1,8-6,33.3,33.3,0,0,1,9.5-3.2,29.2,29.2,0,0,1,5-.5H821a32.4,32.4,0,0,1,3.5.5,19.3,19.3,0,0,1,4.4,1.2,23.7,23.7,0,0,1,4.2,2.2,10.4,10.4,0,0,1,3.4,3.6c.4.8.4,1.2,0,1.1a5.6,5.6,0,0,1-1.8-.8,22.6,22.6,0,0,0-3.1-1.5l-1.6-.5a21.3,21.3,0,0,0-8.7-.9h-2.1a24.6,24.6,0,0,0-3.7.4,28,28,0,0,0-8,2.7,24,24,0,0,0-6.7,5,30.1,30.1,0,0,0-7.3,15.2A72.8,72.8,0,0,0,792.5,753.1Z" transform="translate(-787.5 -642.6)"/>
    <path class="e838e353-2a18-4d5f-8264-835f050cca50" d="M834.8,723.3h.2a2.1,2.1,0,0,1,1.4,1.5,5.1,5.1,0,0,1,.2,1.3,8.6,8.6,0,0,0,.1,1.6v.2c0,.1-.1.1-.2.2a5,5,0,0,0-.9,1.2,21.5,21.5,0,0,0-1.5,6.4c-.2,2.6-.2,5.2-.2,7.2s.1,3.3.1,3.3-.1.9-.2,2-.3,2.7-.5,4-.7,2.8-1.2,2.7-1.2-1.2-1.6-2.4a15.8,15.8,0,0,1-.9-3.1c-.4-1.6-.7-3.2-.7-3.2s0-1.4-.1-3.5a74.2,74.2,0,0,1,.3-7.7,23,23,0,0,1,2-8,8.1,8.1,0,0,1,2.2-2.8A3.6,3.6,0,0,1,834.8,723.3Z" transform="translate(-787.5 -642.6)"/>
    <path class="e838e353-2a18-4d5f-8264-835f050cca50" d="M789.9,755.9l-.4-.2a3,3,0,0,1-.9-2.3c.1-.8.9-1.6,2.2-2.3h.4a20.4,20.4,0,0,0,3.7.6h4l9.7-.3h4.7l4.5.3a66.3,66.3,0,0,1,8.7,1l2.9.7a8.4,8.4,0,0,1,1.8.7c.8.5.9.8.6.9a4.3,4.3,0,0,1-2,.3h-5.5l-4.6.3-4.8.4h-6.3c-3.1,0-6.3.3-9.7.3h-4.4A24.6,24.6,0,0,1,789.9,755.9Z" transform="translate(-787.5 -642.6)"/>
    <path class="e838e353-2a18-4d5f-8264-835f050cca50" d="M804.9,687.5l.5-.2a3.4,3.4,0,0,1,1.4.1,1.8,1.8,0,0,1,1,.7,2.8,2.8,0,0,1,.3,1.3,9.7,9.7,0,0,0-.1,1.8v.2c-.3.2-.3.3-.4.6a2.3,2.3,0,0,0,.1,1.4,7,7,0,0,0,.6,1.9c.1.1.1.3.2.5h.1a2.1,2.1,0,0,0,.4.6l.3.7,1.8,2.4a11,11,0,0,0,2.1,2.2l.3.3h0v-.2a21.1,21.1,0,0,0-1.8-5.9,27.5,27.5,0,0,0-1.5-2.5v-.2h-.1v.2a7.1,7.1,0,0,0,.1,1.4,18,18,0,0,0,1.6,5.6l.8,1.3a1,1,0,0,0,.4.5h0l-.3-1.5a28.6,28.6,0,0,0-2.4-6.1,26.9,26.9,0,0,0-1.6-2.9l-.9-1.4v-.2h0c8,.3,2.2.1,4,.2h0a.4.4,0,0,0-.1.3,5.1,5.1,0,0,0,.2,2c.3.9.7,1.7,1.1,2.6a21.8,21.8,0,0,0,3.3,4.5l1,.9,1,.6a4.9,4.9,0,0,0,1.9.5,3.5,3.5,0,0,0,3.1-1.9,5.6,5.6,0,0,0,.5-3.4,4.7,4.7,0,0,0-.4-1.7c-.1-.2-.1-.3-.2-.4s-.1-.2-.2-.4l-.5-.7a9.2,9.2,0,0,0-3.1-2.4,6.3,6.3,0,0,0-3.4-.7,3,3,0,0,0-2.4,1.4,6.7,6.7,0,0,0-.6,1.5,3.8,3.8,0,0,0-.1,1.5,5.6,5.6,0,0,0,1.5,3.2,11.3,11.3,0,0,0,3.1,2.6,13.7,13.7,0,0,0,3.8,1.5l1.9.2a4.1,4.1,0,0,0,1.6-.3h.5l.5-.2.9-.5,1.6-1.2a4.1,4.1,0,0,0,1.5-2.7,6.5,6.5,0,0,0-.8-3.4,12.5,12.5,0,0,0-2.4-3.4,18.2,18.2,0,0,0-7.2-4.5,5.8,5.8,0,0,0-3.4-.2,1.6,1.6,0,0,0-.8.6,5.3,5.3,0,0,0-.6,1.3,10.9,10.9,0,0,0,.1,4,9.4,9.4,0,0,0,1.4,3.7,13.5,13.5,0,0,0,6,5.6,4.7,4.7,0,0,0,1.7.4,3.8,3.8,0,0,0,1.5-.1l1.4-.7,1.3-1.3a10.9,10.9,0,0,0,.8-1.5,4.5,4.5,0,0,0,.3-1.6,8.5,8.5,0,0,0-1-3.6,16.2,16.2,0,0,0-5.9-6l-1.9-1a7.6,7.6,0,0,0-1.8-.6h-1.7l-1.6.5a6.2,6.2,0,0,0-2.3,2.5,7.8,7.8,0,0,0-.9,3.7,7.7,7.7,0,0,0,.9,3.6,4.1,4.1,0,0,0,.5.9l.5.7a9.3,9.3,0,0,0,1.4,1.4,10.1,10.1,0,0,0,7.4,2.1,5.4,5.4,0,0,0,3-1.5,7.1,7.1,0,0,0,1-1.4c.1-.1.1-.3.2-.4l.2-.4a2.9,2.9,0,0,0,.2-.9,10.8,10.8,0,0,0-1.5-7.6,4.5,4.5,0,0,0-2.5-1.9h-1.4l-.8.2h-.4l-.3.2a4.5,4.5,0,0,0-1.8,2.5,10,10,0,0,0-.5,3.9,8.4,8.4,0,0,0,1.1,3.6,3.7,3.7,0,0,0,2.3,2,3.8,3.8,0,0,0,1.5.1,2.1,2.1,0,0,0,1-.4,4.3,4.3,0,0,0,1.3-2.7,4.9,4.9,0,0,0-.6-3.2,2.4,2.4,0,0,0-.9-.8l-.3-.2h-1.1a4.3,4.3,0,0,0-.4,1.1,4.1,4.1,0,0,0,.5,2.8l.4.3h.8v-.4c-.1-.2-.1-.5-.2-.7a.1.1,0,0,0-.1-.1h0c0-.1,0-.1-.1-.1a.4.4,0,0,0-.1-.3,2.2,2.2,0,0,0-.6-.7h-.4a.8.8,0,0,0-.1-.4h.4c-.1.1-.1.1-.1.2v.5a10.3,10.3,0,0,0,.9,3.3l.9,1.7.3.4a.3.3,0,0,0,.1.2c0,.1.1.1.1.2h.2a11.3,11.3,0,0,0,0-3,.1.1,0,0,0-.1-.1h0c-.2-.5,0-.2-.1-.3h0a.1.1,0,0,0,.1.1h-.1l-.3.2c-.1.1-.3.1-.3-.1a.4.4,0,0,1-.1-.3v-.3a.3.3,0,0,1,.1-.2h.1l.2-.2h.2c.1,0,.1,0,.1.1v.2a1.1,1.1,0,0,1-.1.5,2.8,2.8,0,0,1-.6,1l-.3.6a2.5,2.5,0,0,0-.1.8c0,.1.1.1,0,.1v.2l-.2.3a1.4,1.4,0,0,1-.2.6.4.4,0,0,0-.1.3h0l.2.3.6,1.2q.1.5,0,.6h-.5l-.8-.6-.4-.5-.4-.3a22.8,22.8,0,0,1-2.9-4.3,7.8,7.8,0,0,1-.5-1.4,10.5,10.5,0,0,1-.4-1.7,5.6,5.6,0,0,1,.3-2.1,4.1,4.1,0,0,1,1.5-1.9l.9-.4.8-.2h1.3a2.1,2.1,0,0,1,1.1.2,5.7,5.7,0,0,1,2.5,1.6,7.4,7.4,0,0,1,1.4,2.2l.2.2v.2a7.5,7.5,0,0,1,.5,1.6,4.7,4.7,0,0,1,.1,1.7v.6c0,.2-.1.4-.1.6a4.9,4.9,0,0,1-.4,1.1,4.2,4.2,0,0,1-1.4,1.8,4.5,4.5,0,0,1-2.2.8h-2.3l-.7-.3-.9-.4a9.5,9.5,0,0,1-1.6-1.2,9.1,9.1,0,0,1-1.1-1.6,7.2,7.2,0,0,1-.8-3.2,9.3,9.3,0,0,1,.3-3.3,12.2,12.2,0,0,1,.7-1.7,7,7,0,0,1,1.4-1.6,5.6,5.6,0,0,1,2.1-.9h3.1l.8.3a8.5,8.5,0,0,1,1.5.9,7.4,7.4,0,0,1,2.3,2.7,8.5,8.5,0,0,1,.9,3.1,10.8,10.8,0,0,1-.1,3.1,8.9,8.9,0,0,1-1.1,3.1,7.1,7.1,0,0,1-2.3,2.6,12.9,12.9,0,0,1-1.6.9l-.9.2H823a4.8,4.8,0,0,1-1.7,0l-1.7-.3a9.2,9.2,0,0,1-3-1.8,11.1,11.1,0,0,1-2-2.4,14.5,14.5,0,0,1-1.7-5.7,14,14,0,0,1,.7-5.7,10.2,10.2,0,0,1,1.3-2.8,10.9,10.9,0,0,1,2.4-2.4,5.6,5.6,0,0,1,1.6-.7c.2-.2.5-.2.7-.3l.8-.2a9.6,9.6,0,0,1,3.4-.1,7.3,7.3,0,0,1,3.1,1.4,9.7,9.7,0,0,1,2.3,2.2,15.6,15.6,0,0,1,2.5,5.2,16.1,16.1,0,0,1,.3,5.8,9.6,9.6,0,0,1-.8,2.9,10.7,10.7,0,0,1-1.6,2.7,10.2,10.2,0,0,1-5.3,3.4,13.1,13.1,0,0,1-5.9.1,14.6,14.6,0,0,1-5.3-2.2,13.2,13.2,0,0,1-5.5-6.7,10.2,10.2,0,0,1-.7-2.9,14.7,14.7,0,0,1,.6-5.9,11.5,11.5,0,0,1,3.4-5.1,10.4,10.4,0,0,1,5.9-2.2h1.6l1.5.3a10.8,10.8,0,0,1,2.7,1,23.9,23.9,0,0,1,4.6,2.9,23.4,23.4,0,0,1,3.7,4,12.8,12.8,0,0,1,1.5,2.5,16.9,16.9,0,0,1,1,2.7,16.3,16.3,0,0,1,.3,3.1,8.8,8.8,0,0,1-.7,3.2,9.1,9.1,0,0,1-.7,1.4l-.9,1.3-.5.6-.5.5-.6.5-.6.5a10.3,10.3,0,0,1-3,1.4,9.1,9.1,0,0,1-3.3.3,13.1,13.1,0,0,1-5.6-2.1,20.7,20.7,0,0,1-4-3.8,17.5,17.5,0,0,1-2.9-4.7,9,9,0,0,1-.8-2.8V691a6.6,6.6,0,0,1-.1-1.4,14.3,14.3,0,0,1,.1-2.9,11.1,11.1,0,0,1,1.1-3.2,7.5,7.5,0,0,1,2.8-2.5,7.1,7.1,0,0,1,3.4-.8,14.9,14.9,0,0,1,5.7,1.2,27.8,27.8,0,0,1,4.7,2.8,27.2,27.2,0,0,1,3.9,3.7,15.7,15.7,0,0,1,2.8,4.9,8.1,8.1,0,0,1,.6,3.1,9.3,9.3,0,0,1-.4,3.3,12.8,12.8,0,0,1-1.6,2.8,11.2,11.2,0,0,1-2.3,2.1c-.8.6-1.6,1-2.4,1.5l-.6.2-.7.3-1.6.5a12.9,12.9,0,0,1-5.9-.3l-2.6-1a20.1,20.1,0,0,1-2.5-1.4,16.7,16.7,0,0,1-4.1-3.9,11.6,11.6,0,0,1-2.1-5.9,11.3,11.3,0,0,1,.5-3.2,10.1,10.1,0,0,1,.7-1.5l.4-.7.5-.7a9.7,9.7,0,0,1,2.7-2.2,10,10,0,0,1,3.3-.8,11.5,11.5,0,0,1,5.9,1.5,12.4,12.4,0,0,1,4.5,3.7l.9,1.2c.1.3.3.5.4.8l.3.7a9.5,9.5,0,0,1,.7,2.9,9.6,9.6,0,0,1-1.1,6.2h0a8.4,8.4,0,0,1-3,3.2,7.3,7.3,0,0,1-4.3,1.3,8.2,8.2,0,0,1-4.2-1,10.8,10.8,0,0,1-1.8-1.1l-1.4-1.2a19.9,19.9,0,0,1-2.4-2.8,32.1,32.1,0,0,1-1.9-3.1,21.8,21.8,0,0,1-1.4-3.4,11.5,11.5,0,0,1-.4-4.3,7.8,7.8,0,0,1,.5-1.4,1.6,1.6,0,0,1,.4-.7v-.2h4.1l.2.2.9,1.5a26.8,26.8,0,0,1,1.8,3.3,37.5,37.5,0,0,1,2.8,7.1c.1.6.3,1.3.4,1.9h0v2.1c0,.3-.1.6-.1.8v.8a2.5,2.5,0,0,0-.1.8l-.4,1.5V709h-.1l-1.4-.2h-1.3l-.7-.2h-.7l-1.4-.7-.6-.5-.4-.2-.3-.3-.6-.6-.3-.4-.2-.2-.7-.9a16.2,16.2,0,0,1-1-1.8,18.4,18.4,0,0,1-1.5-3.6,24.4,24.4,0,0,1-.7-3.9,12.7,12.7,0,0,1-.1-2,19.2,19.2,0,0,1,.5-3.2v-.3l.2-.4.3-.7.7-1.2.4-.7h.6l1.4.3.6.2.7.2.7.4.6.4.3.2.3.3.7.6.9,1.1a20.1,20.1,0,0,1,2,3.4,26.3,26.3,0,0,1,2.3,7.2c0,.2.2.9.2,1.4v1.7c0,.5-.1,1-.1,1.5a6.5,6.5,0,0,1-.4,1.3c-.2.8-.6,1.5-.9,2.4l-2.5-.8-.7-.2-.6-.3-1.3-.8-.3-.3-.4-.2-.6-.5-.6-.6-.3-.3a20.4,20.4,0,0,1-2.5-2.6l-2.2-3c-.1-.3-.3-.5-.4-.8a5.6,5.6,0,0,0-.5-.8V698l-.3-.7a15.1,15.1,0,0,1-1-2.8,10,10,0,0,1-.1-3.5l.2-.5c0-.1.1-.3.1-.4a1.7,1.7,0,0,0,.2-.5l.3-.5.3-.4.3-.5Z" transform="translate(-787.5 -642.6)"/>
    <path class="e838e353-2a18-4d5f-8264-835f050cca50" d="M823.5,677.1c.1.1.2.1.3.3a2.7,2.7,0,0,1,.6,2.3c-.2.8-1.1,1.4-2.4,2h-.4a6,6,0,0,0-3-.5,8.2,8.2,0,0,0-3,.7,13,13,0,0,0-6.7,8.3,7.7,7.7,0,0,0-.4,2.7v1.3a1.7,1.7,0,0,0,.1.7v.6a8.8,8.8,0,0,0,2.5,4.5,15,15,0,0,0,10.4,3.6,14.5,14.5,0,0,0,5.5-1,8.8,8.8,0,0,0,4.1-3.1c3.8-5.4-2.9-14.7-9.4-16.8a6.5,6.5,0,0,0-4.6.4l-1,.7a7.6,7.6,0,0,0-.9.9,8.6,8.6,0,0,0-1.5,2.2,12.9,12.9,0,0,0-1.3,5.3,17.6,17.6,0,0,0,.9,5.5,11.5,11.5,0,0,0,1.2,2.5l.8,1.1.9,1,1,.9,1.1.6,1.2.5,1.2.2a9.3,9.3,0,0,0,5.1-.8,6.5,6.5,0,0,0,2.3-1.3,8,8,0,0,0,1.5-1.7,7.1,7.1,0,0,0,.5-4.8A12.2,12.2,0,0,0,828,691a7.8,7.8,0,0,0-4-2.9,3.2,3.2,0,0,0-1.7.1,4,4,0,0,0-1.5,1.2,4.1,4.1,0,0,0-.7,1.1l-.3.6a1.4,1.4,0,0,0-.2.6,9.9,9.9,0,0,0-.6,2.6,27.1,27.1,0,0,0-.1,2.9,9.2,9.2,0,0,0,.5,2.5,3.9,3.9,0,0,0,.4.9l.3.3h.4l.8-.2h.3a.1.1,0,0,1,.1-.1h.1l.2-.2.7-.8a9,9,0,0,0,1.2-2.4,1.4,1.4,0,0,1,.2-.6,2,2,0,0,1,.1-.5v-.2a.9.9,0,0,0,.1-.5,2.8,2.8,0,0,0,.1-.9,4.6,4.6,0,0,0-.2-1.4.5.5,0,0,0-.1-.3c0-.1,0-.1-.2-.2h0c-.6.3,4.7-2.2,2.5-1.1h-.1l-.2.3-.4.7-.3.7-.3.8c-.1.3-.1.5-.2.8v.2h0l-3.2-1h0l.2-.3a5.4,5.4,0,0,0,.8-1.7v-.2h0l1.7,1.7h-.2l-.4.2a3.6,3.6,0,0,0-.4,1.1l-.3,1.1a17.2,17.2,0,0,1-.4,1.8c-.3.8-.6,1-.8.7a4.4,4.4,0,0,1-.6-1.8,9,9,0,0,1-.2-1.8,4.8,4.8,0,0,1,.4-2.5c-.1.1,0-.2.4-.7a2.9,2.9,0,0,1,.8-.7l.7-.3h.3c4.1,4.1,1.1,1.1,2.1,2h0a.4.4,0,0,0-.1.3,8.7,8.7,0,0,1-.6,2.3l-.3.8v.2h-.1c.8.2-6.7-2-3.5-1.1h0v-1.2c0-.3.1-.5.1-.8l.2-.7a2.4,2.4,0,0,1,.2-.8,2.5,2.5,0,0,1,.2-.7,1.4,1.4,0,0,1,.2-.6l.3-.6v-.2h0l2.6-1.2h.6a5.1,5.1,0,0,1,1.6.9,5.7,5.7,0,0,1,1.7,2.1,2.5,2.5,0,0,1,.2.7.3.3,0,0,0,.1.2,8.8,8.8,0,0,1,.2,3.2c-.1.5-.1.9-.2,1.4s-.1.2-.1.4h0a.6.6,0,0,0-.1.4l-.3,1a14.1,14.1,0,0,1-1.7,3.5,10,10,0,0,1-1.4,1.6,3.9,3.9,0,0,1-1,.8,1,1,0,0,1-.5.4l-.5.2-.5.2-.5.2-1.2.3a5.6,5.6,0,0,1-2.8-.3,5.1,5.1,0,0,1-2.4-1.6,11.3,11.3,0,0,1-1.2-2.1,13.6,13.6,0,0,1-.8-3.8,15.3,15.3,0,0,1,0-3.7,16.8,16.8,0,0,1,.6-3.7,10.8,10.8,0,0,1,.8-1.9c.2-.5.6-1.1.9-1.7a10.3,10.3,0,0,1,3.2-3,7.1,7.1,0,0,1,4.7-.8,10.7,10.7,0,0,1,4,1.5,15.1,15.1,0,0,1,5.1,5.6,15.4,15.4,0,0,1,2,7.4,11.4,11.4,0,0,1-.7,4.1,11.8,11.8,0,0,1-2.3,3.5,14.1,14.1,0,0,1-3.2,2.4,22.4,22.4,0,0,1-3.6,1.4l-.9.2-1,.2h-2a9,9,0,0,1-3.9-.7,14,14,0,0,1-6.3-4.6,15,15,0,0,1-1.9-3.2,14.8,14.8,0,0,1-1.3-3.5,20.4,20.4,0,0,1-.5-7.4,17,17,0,0,1,2.6-7.1,23.5,23.5,0,0,1,2.6-2.9,10.2,10.2,0,0,1,3.7-2,9.7,9.7,0,0,1,4.1-.5,12.4,12.4,0,0,1,3.9.9,18.7,18.7,0,0,1,6.1,4.1,22.7,22.7,0,0,1,4.5,5.7,14.2,14.2,0,0,1,1.5,3.5c.1.6.3,1.2.4,1.8s.1,1.4.2,2v1a3.1,3.1,0,0,1-.1,1,6.5,6.5,0,0,1-.5,2l-.3,1-.5.9-.3.5-.3.4-.6.8a15.8,15.8,0,0,1-6.4,4.3,21.6,21.6,0,0,1-14.5-.3,15,15,0,0,1-6.3-4.1,13.6,13.6,0,0,1-3.6-6.8,6.5,6.5,0,0,1-.2-1.9,12.8,12.8,0,0,1-.1-1.9,12.1,12.1,0,0,1,.6-3.8,16,16,0,0,1,3.4-6.6,17.4,17.4,0,0,1,6-4.7,11.4,11.4,0,0,1,4.9-1.1A12.2,12.2,0,0,1,823.5,677.1Z" transform="translate(-787.5 -642.6)"/>
    <path class="e838e353-2a18-4d5f-8264-835f050cca50" d="M808.1,686.7a.6.6,0,0,1,.6,0l.8.2.6.4a1.7,1.7,0,0,1,.6,1.1,3.5,3.5,0,0,1-.3,1.3,4.3,4.3,0,0,0-.4.7,1.9,1.9,0,0,0-.3.8v.2l-.5.3a3.3,3.3,0,0,0-.5,1.2,15,15,0,0,0-.6,3.3,28.3,28.3,0,0,0,.3,4.1l.3.8c0,.2,0,.3.1.4h0v.2a11.3,11.3,0,0,0,1,1.3,11.6,11.6,0,0,0,3.1,2.2l1,.6,2.5,1.2a17.3,17.3,0,0,0,7.4,1.3,10.7,10.7,0,0,0,3.9-1.3c.7-.5,1-.6,1.1-.2a1.7,1.7,0,0,1-.2.8,3.3,3.3,0,0,1-.8,1.1,4.4,4.4,0,0,1-1.4,1.3,10.2,10.2,0,0,1-2.1,1,13.5,13.5,0,0,1-2,.5,21.6,21.6,0,0,1-5.1,0,27.8,27.8,0,0,1-5-1.3,12.4,12.4,0,0,1-2.2-1,15.9,15.9,0,0,1-3.7-2.7,15,15,0,0,1-1.8-2.4l-.2-.4-.2-.4a2.4,2.4,0,0,1-.2-.8,6.5,6.5,0,0,1-.4-1.3,20.7,20.7,0,0,1,.4-10,8.5,8.5,0,0,1,1.3-2.5A5.5,5.5,0,0,1,808.1,686.7Z" transform="translate(-787.5 -642.6)"/>
    <path class="e838e353-2a18-4d5f-8264-835f050cca50" d="M791,751.4c0-.3-.1-.3-.1-.7s.1-.5.2-.7a1.6,1.6,0,0,1,.4-.7,1,1,0,0,1,.5-.4l.6-.2h.6a1,1,0,0,1,.7.2,3.4,3.4,0,0,0,1.5.6c0,.1.2,0,.2,0h.1l-4.2,2.2h0v-1l-.9-4.2,1.4-.2.6-.2h.4c0-.1.1,0,.1,0h0v.2l.2,1.1v.3l.2,1.6.2.7v.5h-2.4c-.1,0-.1,0-.1-.1h0v-1.2l-.2-5.6v-1.3h0l4.7-1.2h0c.2.5.5.9.7,1.4l1.1,2.7h0l1.2,3.1.7,1.3.2.3h0l-4.6,1.5h0v-.9a54.4,54.4,0,0,0-1.3-6.3h0l-.6-2.4-.2-1.3a5,5,0,0,1-.2-1.2l-.2-1.3h0c2-.6-4.6,1.5,4.6-1.4h.1v.2l.2.2.2.6a24,24,0,0,1,1.1,2.3l2,4.4,1,2.1,1,2.1h0v.3h.1l-4.6,1.3h0v-1.5a15.5,15.5,0,0,0-.4-2.1,18,18,0,0,0-.6-2.2l-.6-2.3-.6-2.3-.3-1.2-.2-.7v-.6l-.2-1.3h0l4.7-1.4h0v.4l.3.6,1,2.3h0l.5,1.2.4,1.3.9,2.5,1.5,4.9.4,1.2.2.6h0c1.1-.2-9.1,1.6-4.8.9h0v-.3a19.7,19.7,0,0,0-.3-2.4c-.1-.8-.3-1.5-.4-2.3l-.3-1.2-.3-1.2h0c-.4-1.8-.9-3.5-1.4-5.3s-.5-1.8-.7-2.7l-.3-1.4V732h0l4.6-1.6h0c1.9,3.7,2.6,7.4,3.6,10.7h0a26.2,26.2,0,0,0,2.1,5.6,3.5,3.5,0,0,0,.7,1.2h0c4-.7-5.3,1-4.4.9h0v-.9a8.2,8.2,0,0,0-.2-2.7,51.3,51.3,0,0,0-1.4-6,59.8,59.8,0,0,1-1.9-6.4h0l-.2-.9c-.1-.3-.1-.6-.2-.9v-.3h0c1.9-.9-4.4,1.8,4.3-1.9h.1l.2.4.6.8a17.3,17.3,0,0,1,1.7,3.3,57.5,57.5,0,0,1,2.3,6.6c.6,2.1,1.1,4.2,1.8,6.1l.6,1.5.3.7v.3h0l-4.5,1.7h-.1v-.2l-1-3.1h0l-2.1-6.5c-.4-1-.7-2.2-1.1-3.3l-.5-1.6c-.1-.6-.3-1.1-.4-1.7l-.9-3.4-.2-.9V729h0l4.4-2h0v.2l1,1.6.5.8a5.6,5.6,0,0,1,.5.8l.8,1.6c.5,1.1.9,2.2,1.4,3.2h0c1.8,4.6,3.2,9.2,5,13.4v.4h.1c1-.3-8.9,2-4.7,1h0v-.9c-.1-.6-.1-1.1-.2-1.6s-.5-2.2-.8-3.3-1.3-4.4-2.1-6.6h0c-.9-2.4-1.8-4.8-2.6-7.3l-.3-1v-.7h0l4.5-2h0l1,1.8a24.8,24.8,0,0,1,1.7,3.7c2,4.9,3.2,9.8,5.3,14.1h0a11.9,11.9,0,0,0,.8,1.6l.3.4v.2h0c-9.1,2.7-2.5.8-4.5,1.4h0v-.9a22.9,22.9,0,0,0-.7-3.6,60.4,60.4,0,0,0-2.8-7.3,59.1,59.1,0,0,1-2.8-8.1c-.1-.7-.3-1.4-.4-2.2v-.9h0l4.3-1.8h.1l.7,1a15.4,15.4,0,0,1,2.3,3.9h0a43.2,43.2,0,0,1,2.8,7.8c.8,2.6,1.5,5.2,2.3,7.6a34.5,34.5,0,0,0,1.4,3.4h0l-4.6,1.5h0v-.6a2.9,2.9,0,0,0-.2-.9,8.4,8.4,0,0,0-.5-1.7,71.7,71.7,0,0,0-3-7.1h0a81.3,81.3,0,0,1-3.2-7.9,14.1,14.1,0,0,1-.6-2.2,15.7,15.7,0,0,1-.4-2.3,4.5,4.5,0,0,1-.1-1.1v-.9h0l3.9-2h.2a14.5,14.5,0,0,1,1.8,1.7,22,22,0,0,1,2.6,3.9l.9,2.1a11.9,11.9,0,0,1,.8,2c1,2.7,1.7,5.4,2.5,8h0a67.7,67.7,0,0,0,2.5,7.6l.2.4h.1l-4.7,1.2h0v-1.2a13.7,13.7,0,0,0-.2-1.9c-.3-1.2-.6-2.5-1-3.8-1.5-5-4-10-5.9-15.6h0a17.2,17.2,0,0,1-.7-2.1l-.3-1.1-.2-.6h0c-.9.5,8.2-3.9,4.3-2.1h.2v.3l.7,1a6.1,6.1,0,0,1,.7,1l1.1,2.1a61.4,61.4,0,0,1,2.8,8.6,56.3,56.3,0,0,0,2.7,7.9,17.4,17.4,0,0,0,1.8,3.3l.6.7.3.4h0l-4.2,1.8H820v-1.2l-.2-1h0a42.3,42.3,0,0,0-2.6-8.1c-1.1-2.7-2.3-5.4-3.4-8.3-.6-1.4-1.1-2.9-1.6-4.4l-.3-1.2v-.3h0l4.6-1.6h0l.3.5.9,2.2c1.1,2.9,2,5.7,3,8.5h0c.2.8.5,1.5.7,2.3l.8,2.1.9,2.2,1,2a7.5,7.5,0,0,0,1,2l1.2,2.1a13,13,0,0,0,1,1.8c.1,0,.1.1.2.2l.2.2.3.2h0c-1.7.9,3.8-2-3.8,2.1h0V751c0-.2-.1-.5-.1-.7l-.3-.9c-.2-.6-.6-1.3-.9-2s-1.3-2.9-1.9-4.4-2.6-5.9-3.8-8.9h0a54.9,54.9,0,0,1-2.8-9.8l-.2-.6v-.2h0l4.4-1.9h0l.2.3.8,1c.5.8,1,1.5,1.4,2.3s1.6,3,2.3,4.6c2.7,6.2,4.4,12.5,6.7,18.4h0l.9,2.2.5,1,.5,1,.2.6h0c-2,.8,4.6-1.6-4.5,1.7h-.1v-.3l-.3-1.1-.3-1.1-.3-1.1c-.5-1.5-.9-3-1.5-4.5l-.8-2.2-.8-2.3-1.7-4.5c-.6-1.6-1.2-3.1-1.7-4.6l-.8-2.4-.4-1.2-.3-1.2-.4-1.2v-1.1h-.1l4.7-1.6h0a23.4,23.4,0,0,1,.9,2.4h0c1.1,3.1,1.8,6,2.8,8.8.2.7.5,1.3.7,2a16.7,16.7,0,0,1,.8,2l-4.6.9h0v-.7a3.4,3.4,0,0,1-.1-1l-.3-2c-.6-2.7-1.6-5.5-2.6-8.5a14.2,14.2,0,0,1-.7-2.2,5.6,5.6,0,0,1-.4-1.2v-.3h0l4.6-1.6h0v.2l.2.5c.7,1.6,1.2,3,1.7,4.5h0c1.1,3.4,2.1,6.7,3.1,10,.5,1.7,1.1,3.3,1.7,4.8l.4,1.2v.4h0l-4.7,1.2h0v-.6a3.6,3.6,0,0,1-.2-1.1l-.3-1.2c-.8-3.2-2-6.4-3-9.8-.6-1.7-1.1-3.4-1.6-5.1a7.4,7.4,0,0,0-.4-1.4,5.9,5.9,0,0,1-.2-1.3l-.3-1.5v-.4h0c-1,.4,8.5-3,4.5-1.5h0v.2l.4.6h0c1,1.6,1.7,3.2,2.5,4.8s1.6,3.1,2.3,4.7l1.1,2.4.5,1.1.2.3v.2h-2.5c.1.1.1,0,.1.1a.1.1,0,0,0-.1-.1c-.1,0-.1,0-.1-.1h-1.4v-.2c-.1-.3-.1-.6-.2-.9a19.5,19.5,0,0,0-.8-2.2l-2.1-4.7c-.4-.8-.7-1.6-1.1-2.6v-.6h-.1l4.6-1.7h0l.3.7.5,1.2,2.1,4.7h0l-4.7,1.1h0v-1h0a13.8,13.8,0,0,0-.3-2l-.5-2.1h0a4.8,4.8,0,0,0-.2-1.2v-.2h0l4.2-1.8h0v.2l.4.7h0l.7,1.5.6,1.4.7,1.5h0l-3.4,1h.1v-1.4a1.9,1.9,0,0,0-.1-.8v-1.2h-.1l2.5-1.1h0v.2a.1.1,0,0,0,.1.1.8.8,0,0,0,.2.4,4.3,4.3,0,0,1,.4.7,4.3,4.3,0,0,1,.4.7h0l-1.8.5h0V725l.2-.5a2.2,2.2,0,0,1,.1-.6l.9-.9h0l.4.5.2.3.3.5c.1.3.2.5.1.6s-.4.1-.8,0-.8-.5-1-.4h0l1.3-1.3h0a.5.5,0,0,1,.2.4c.1.1.1.2.1.4a1.3,1.3,0,0,1,.1.6,2,2,0,0,1,.1.7v.3h-.9l-1.5.8-1.2-1.2c.1.1-.1,0-.3-.3l-.3-.4-.2-.2h0l3-1.3h.1a10.4,10.4,0,0,1,.4,1,8.4,8.4,0,0,0,.4,1.2,5.9,5.9,0,0,1,.2,1.4,1.7,1.7,0,0,1,.1.7v.2h.1l-3.7,1.1h0l-.2-.3-.8-1.3-.9-1.3-.8-1.3-.4-.4h-.1l4.3-1.8h0v.3a7.6,7.6,0,0,1,.4,1.1,3.2,3.2,0,0,0,.2.6c.1.7.3,1.3.4,1.9l.3,2.1h0v1.7h0l-4.7,1.1h0l-2.2-4.9-.5-1.1-.2-.6h0l4.6-1.7h0v.2c.2.7.6,1.4.9,2.2l2.1,4.8a16.9,16.9,0,0,1,1,2.7c.1.5.3,1,.4,1.6v1.7c0,.1-.1.2-.1.4a.8.8,0,0,1-.2.4v.3a.3.3,0,0,1-.1.2,1,1,0,0,1-.4.5,3.9,3.9,0,0,1-1,.8h-.4l-3-1.3h-.1v-.3l-.6-1.2-1.1-2.3c-.7-1.6-1.4-3.1-2.2-4.7a43.4,43.4,0,0,0-2.3-4.3l-.3-.5v-.2h0l4.5-1.6h0v.3c.1.4.1.8.2,1.1s.1.8.2,1.2l.3,1.2,1.5,4.9c1.1,3.3,2.3,6.6,3.2,10.2l.3,1.3a7.7,7.7,0,0,1,.2,1.5v.7h.1l-4.8,1.2h0v-.5l-.5-1.3c-.7-1.7-1.2-3.4-1.8-5.1-1.1-3.3-2-6.7-3.1-9.9h0c-.5-1.4-1-2.9-1.5-4.1l-.2-.5v-.2h0c-4.1,1.5,5.7-2,4.7-1.6h0v.2l.3,1.1a17.2,17.2,0,0,0,.7,2.1c.9,2.8,2,5.8,2.7,9a18.7,18.7,0,0,1,.4,2.5c0,.4.1.9.1,1.3v1.2h0l-4.7.9c-.3-.8-.7-1.5-1-2.3a19.5,19.5,0,0,1-.8-2.2c-1-3.1-1.8-6-2.7-8.7h0c-.3-.8-.6-1.5-.8-2.2h0c9.3-3.1,2.5-.9,4.6-1.6h.1v.9l.3,1.1.3,1.1.4,1.1.7,2.2,1.7,4.5,1.7,4.6.8,2.2.9,2.4,1.5,4.7a5.6,5.6,0,0,1,.4,1.2l.3,1.2.3,1.3v.3h0c-9.2,3.3-2.6.9-4.6,1.6h0l-.3-.5-.6-1.2-.5-1.1a24.4,24.4,0,0,1-1-2.4h0c-1.2-3.1-2.2-6.2-3.3-9.3s-2.1-6.1-3.3-8.9a32.9,32.9,0,0,0-2.1-4.2,19.9,19.9,0,0,0-1.2-1.9l-.6-.9-.2-.2h0c8.7-3.9,2.4-1.1,4.4-1.9h0v.6a56.5,56.5,0,0,0,2.6,8.9h0c1.1,2.9,2.4,5.8,3.7,8.7l1.9,4.3c.3.7.7,1.5,1,2.4a5.7,5.7,0,0,1,.4,1.4,8,8,0,0,1,.3,1.5v.7h0l-3.8,2H825l-.6-.5-.7-.6a1.8,1.8,0,0,1-.5-.7,10.5,10.5,0,0,1-1.4-2.4l-1.2-2-1.2-2.2-1-2.3-.9-2.3a15.7,15.7,0,0,1-.9-2.3,15.5,15.5,0,0,1-.8-2.3h0c-1-2.8-1.9-5.6-2.9-8.3l-.9-2-.2-.5h0l4.6-1.6h.1v.2l.3,1c.5,1.4.9,2.7,1.5,4.1s2.2,5.4,3.4,8.3,1.1,2.8,1.6,4.3a34.5,34.5,0,0,1,1.2,4.6h0l.2,1.2.2,1.2v.3h.1l-4.3,1.8h-.1l-.4-.4-.8-1a29.1,29.1,0,0,1-2.3-4.2,62.2,62.2,0,0,1-2.9-8.6,59.4,59.4,0,0,0-2.6-7.8l-.9-1.7-.5-.9-.5-.7-.2-.2h-.1l4.4-2.1h0v.5l.3,1,.6,2h0c1.8,5,4.3,10.1,6,15.7a31.5,31.5,0,0,1,1.1,4.4l.3,2.2v1.5h0l-4.6,1.2h-.1l-.2-.5a63.5,63.5,0,0,1-2.9-8.3h0a77.6,77.6,0,0,0-2.3-7.7l-.7-1.8-.8-1.7a16.2,16.2,0,0,0-1.9-2.9,6,6,0,0,0-1.2-1.1h-.1l4-2h0v.7a2.8,2.8,0,0,0,.1.9,12.2,12.2,0,0,0,.3,1.7,12.1,12.1,0,0,0,.5,1.8,62.6,62.6,0,0,0,3,7.3h0a75.4,75.4,0,0,1,3.2,7.6l.6,2.1a3.6,3.6,0,0,1,.2,1.1l.2.5v.3h.1l-4.7,1.5h0a32,32,0,0,1-1.6-3.9c-1-2.7-1.6-5.3-2.4-7.8a49.4,49.4,0,0,0-2.5-7.1h0a13.3,13.3,0,0,0-1.8-3.1l-.5-.7h-.1l4.3-1.8h0v.7a8.6,8.6,0,0,0,.3,1.7,45.8,45.8,0,0,0,2.6,7.3,81.1,81.1,0,0,1,2.9,7.9,31.2,31.2,0,0,1,.9,4.4v1.2h0l-4.6,1.4h0l-.2-.3-.2-.4-1.1-2h0c-2.3-4.9-3.5-9.9-5.3-14.4a31.3,31.3,0,0,0-1.5-3.2l-.9-1.5h0l4.5-2h0v.6c.1.3.1.6.2.9.7,2.3,1.6,4.6,2.5,7h0c.8,2.3,1.6,4.6,2.3,7s.6,2.5.8,3.7l.3,2v1.2h0l-4.7,1.1h-.1v-.5c-2-4.5-3.3-9.1-5-13.4h0l-1.4-3-.7-1.4a2.5,2.5,0,0,0-.4-.7l-.4-.7-.8-1.3h-.1c-4,1.7,5.3-2.4,4.4-1.9h0v.4l.2.8.8,3.2a9.8,9.8,0,0,0,.5,1.6l.5,1.6c.3,1.1.6,2.1,1,3.2l2.1,6.5h0l1,3.2v.2h.1l-4.6,1.8h-.1v-.4l-.4-.8a11.5,11.5,0,0,1-.6-1.7c-.8-2.2-1.4-4.4-2-6.5a45.3,45.3,0,0,0-2-5.9,15.8,15.8,0,0,0-1.3-2.6l-.4-.6-.2-.2h0c8.7-3.7,2.4-1,4.4-1.8h0v.9l.2.8h0a58.3,58.3,0,0,0,1.8,6.1,59.9,59.9,0,0,1,1.6,6.7,15.6,15.6,0,0,1,.2,3.8V750h0l-4.4.8h-.1l-1-1.6a37.8,37.8,0,0,1-2.4-6.6h0c-1-3.6-1.8-7-3.2-9.8h-.1l4.6-1.6h.1v.3l.2.7c.1.4.1.8.2,1.2a25,25,0,0,0,.7,2.6c.4,1.7.9,3.4,1.4,5.2h0l.3,1.3.3,1.3c.2.9.3,1.8.5,2.7l.3,2.8v.5h0c4.3-.7-5.8,1.1-4.8.9h0l-.2-.6-.4-1.2-1.5-4.9c-.3-.8-.6-1.6-.8-2.3l-.5-1.2a3.6,3.6,0,0,0-.4-1.1h0l-.9-2.1-.2-.5v-.3h-.1c2-.7-4.7,1.3,4.6-1.4h0l.2,1.1v1l.2,1.1.6,2.2.7,2.3.6,2.4c.2.8.3,1.6.5,2.5v2h0c-9.3,2.5-2.6.7-4.6,1.3h-.1l-.2-.3h0l-1.1-2.3a21.4,21.4,0,0,0-1-2.2l-1.9-4.4-1.1-2.1-.2-.5v-.4h-.1l4.7-1.4h0v1.1a4.3,4.3,0,0,1,.2,1.1l.3,1.1a18.9,18.9,0,0,0,.5,2.3h0a70.1,70.1,0,0,1,1.4,6.9v1.2h0l-4.5,1.4h-.1l-.2-.4c-.4-.6-.6-1.2-.9-1.7s-.9-2.3-1.3-3.3h0l3.3,2.8h0l.2.6v.3h.1l-4.2,2.1h0a2.7,2.7,0,0,1-.7-.8A4.1,4.1,0,0,1,791,751.4Z" transform="translate(-787.5 -642.6)"/>
    <path class="e838e353-2a18-4d5f-8264-835f050cca50" d="M805.8,728.5h-.1l-.7.2-1,.4a2.8,2.8,0,0,1-1.3.4,2.3,2.3,0,0,1-1.6-.6c-.1,0-.2-.2-.3-.3a14.4,14.4,0,0,1,.4-2.1,7.6,7.6,0,0,1,1.1-1.6,6.5,6.5,0,0,1,1.6-1.3,21.7,21.7,0,0,1,8.1-2.8,51.6,51.6,0,0,1,7.9-.9h3.6l2.2.4a15.3,15.3,0,0,1,4.1,1.4,3.3,3.3,0,0,1,2,1.4c.3.4.3.7.1.8a2.9,2.9,0,0,1-1,.3h-1.7a17.9,17.9,0,0,1-2.9.2l-3.1.3h-3.3a51.3,51.3,0,0,0-7.1.8l-3.6.9a12.9,12.9,0,0,0-2.6,1.2l-.7.5a.3.3,0,0,0-.1.2Z" transform="translate(-787.5 -642.6)"/>
    <path class="e838e353-2a18-4d5f-8264-835f050cca50" d="M821.2,729.2h-.1l-1.5-.8a4.4,4.4,0,0,1-2.2-1.9.4.4,0,0,1-.1-.3s0-.1.2-.2l.3-.3.3-.3a5.6,5.6,0,0,1,1.7-.9,24.5,24.5,0,0,1,4.1-1.1l3.7-.7,1.7-.4,1,.2,2.1.4,1.1.4c.3.2.5.4.5.6s-.3,1.2-.9,1.6-.7.5-1.4.9l-1.6.8-1.7.3-3.6.7a26.9,26.9,0,0,0-3.2.9l-.5.2h-.2c-.1,0,.4.6.2.3h.1Z" transform="translate(-787.5 -642.6)"/>
    <path class="e838e353-2a18-4d5f-8264-835f050cca50" d="M794.4,746h1.4a1.4,1.4,0,0,1,1.1.7,1.7,1.7,0,0,1,.4,1.3v.8c0,.1-.1.3-.1.4a.7.7,0,0,1-.2.6l-.3.4-.7.3h-.2c-.4-9.5-.1-2.6-.2-4.7h.3l.9.2,1.8.3h3.8a40.9,40.9,0,0,0,6-.7l1.5-.2.8-.2h.5c-.7-4.3.9,5.9.7,4.9h-.3l-1.6.2h-1.7l-4.7.2c-1.5.2-3,.3-4.4.6h-.7c.2,4.3-.2-5.9-.2-4.9h1.4l2.3.2,4.6.2h5.7c-.2,9.8-.1,2.7-.1,4.9h-10l-1.1.2-1,.3-1.1.3h0l-1.1.4h-.2c.2,4.2-.2-5.7-.2-4.7h.4l.6.2,2.3.2a27.5,27.5,0,0,0,4.9-.2l4.9-1,2.5-.7,1.2-.4.6-.2h.2c-.2-1.1,1.5,9,.8,4.7h-.5l-13.3.2h-2.9c.2-9.8.1-2.7.1-4.9h.5l3.4.2,6.7.4,12.1.7h1.4c-.2,1.3-.4,2.8-.7,4.6l-.8-.2-1-.3-1.3-.2-1.4-.2-3.1-.3h-1.3c0,.6-.3-5.4-.2-2.9h1.9l1.6.2,1.3.2a4.9,4.9,0,0,1,1.7.5c.9.3,1,.6.8.8a5,5,0,0,1-1.9.5l-1.6.3-1.9.3-1,.2H814c-.1-1.6.2,3.4-.2-3.5h.7l1.6-.2,3.9-.2a22.3,22.3,0,0,1,3.9.4c-.2,1.6-.4,3.1-.7,4.6h-2l-11.6-.6h0l-6.7-.4h-3.8c.1-2.2,0,5,.1-4.9h2.9l13.3-.2h.5c-.7-4.3,1,5.9.8,4.8h-.2l-.7.2-1.3.4-2.7.8-5.5,1.1a37.1,37.1,0,0,1-5.8.2,15.3,15.3,0,0,1-3-.3l-.7-.2h-.6c0,1-.4-8.9-.2-4.7h.1l1.4-.5h0l1.3-.4,1.4-.3,1.3-.2h1.3l1.3-.2h1.3l2.5-.2h4.3c-.1,2.2.1-4.9-.1,4.9h-5.6l-4.9-.2-2.5-.3-1.2-.2h-.4c0,1.1-.4-9.1-.2-4.8h.9a31.2,31.2,0,0,1,5.1-.7l4.8-.2h1.5l1.5-.2h.3c-.2-1.1,1.4,9.2.7,4.9h-1.3l-1.6.3a47.6,47.6,0,0,1-6.6.7h-4.4l-2.3-.3-1.1-.2h-.4c-.1-2.1.2,4.7-.2-4.8h.2Z" transform="translate(-787.5 -642.6)"/>
    <path class="e838e353-2a18-4d5f-8264-835f050cca50" d="M837.6,737.8h.1a3.8,3.8,0,0,1,1.7-.9,21.6,21.6,0,0,1,2.9-.3h.2a.4.4,0,0,1,.1.3l.5,1,1,1.7,1.2,2.1,3,5.5a16.5,16.5,0,0,1,.6,3.7c.3,2.7-1.2,2.4-2.4,1.4s-2.6-2.7-2.6-2.7l-3.1-5.5-.5-1a7,7,0,0,0-.6-.9l-1.1-1.9A11.9,11.9,0,0,1,837.6,737.8Z" transform="translate(-787.5 -642.6)"/>
    <path class="e838e353-2a18-4d5f-8264-835f050cca50" d="M841.5,729.3a.8.8,0,0,1,.1-.4,1.8,1.8,0,0,1,1.7-1.1,3.4,3.4,0,0,1,1.4.2,3.8,3.8,0,0,0,1.5.1h.2l-.6.2h.7l.4.7h.1a21.2,21.2,0,0,0,2.2,4.2l3,4.2,1.5,2.3.8,1.2.6,1.2,1.3,2.4,1.3,2.3a1.5,1.5,0,0,0,.2.6,10.3,10.3,0,0,0,.4,1.4c.4,1.2.8,2.7,1.1,4,1.3,4.2-.5,3.4-2.4,1.3,0,.1-.3-.2-.7-.7l-1.3-1.8-2-2.7-1.2-2.3-1.2-2.2c-.4-.8-.8-1.4-1.2-2.1s-.9-1.4-1.5-2.1a51,51,0,0,1-5.7-9.3v.2l-.3-.6Z" transform="translate(-787.5 -642.6)"/>
    <path class="e838e353-2a18-4d5f-8264-835f050cca50" d="M847.1,724.3a.5.5,0,0,1-.2-.4,3.8,3.8,0,0,1,.1-1.5,2.4,2.4,0,0,1,.8-1.1,2.2,2.2,0,0,1,1.4-.1h1.7c.1,0,.3,0,.3.1l.4.5a.3.3,0,0,0,.1.2v.4l.6.9,1,1.8,2.1,3.6,2.3,3.9,2.3,4s.9,1.7,2,4.1,1.2,2.5,1.8,3.9l.9,2,.9,1.9a9.1,9.1,0,0,1,.7,1.4,6.7,6.7,0,0,1,.6,1.2,9.4,9.4,0,0,1,.6,1.8c.2.9,0,1.2-.3,1a3.8,3.8,0,0,1-1.5-1.3l-1.1-1.2c-.5-.4-.9-1-1.4-1.5a6.8,6.8,0,0,1-1.2-1.5c-.8-1.1-1.8-2.5-2.7-4l-4-5.8-2.1-3.5-2.2-3.8-2.1-3.7-1.1-1.8-.5-.9v-.3h-.1Z" transform="translate(-787.5 -642.6)"/>
    <path class="e838e353-2a18-4d5f-8264-835f050cca50" d="M851.9,718.5c-.1-.1-.1-.2-.1-.4a2.9,2.9,0,0,1,.9-2.2c.6-.5,1.6-.7,3.2-.2l.4.2,1,1.8,1.1,1.7,2.4,3.5.8,1.2.8,1.3,1.6,2.5,3,4.9,2.6,4s.9,1.7,2.2,3.9,1.3,2.4,2,4,1.1,2.8,1.6,4.1l.6,1.4c.1.5.3.8.4,1.2a15.8,15.8,0,0,1,.7,1.6c.4.8.4,1.1.1,1.2l-.8-.3-.5-.4-.6-.5a17.6,17.6,0,0,1-2.5-3.1,8.7,8.7,0,0,1-1-1.5,17.4,17.4,0,0,0-1.1-1.8l-.7-.9a7.6,7.6,0,0,0-.8-1.1L865,739c-.8-1.1-1.5-2.3-2.2-3.4l-3.2-5.1-1.5-2.4-.8-1.2-.8-1.2c-.8-1.1-1.5-2.3-2.3-3.5l-1.2-1.8Z" transform="translate(-787.5 -642.6)"/>
    <path class="e838e353-2a18-4d5f-8264-835f050cca50" d="M859.3,712.9c0-.1-.1-.2,0-.4a5,5,0,0,1,.2-1.2,2.7,2.7,0,0,1,.8-1c.7-.5,1.8-.4,3.2.1s.3.1.3.2l1,1.7,1.1,1.8,2.2,3.6,4.2,7.4,4,7.4,2.2,4.2s.8,1.7,1.8,4.1,1.1,2.6,1.7,4.1,1,2.8,1.4,4.1l.6,1.4.5,1.2c.3.6.5,1.2.7,1.5s.4,1.2,0,1.2l-.7-.3-.6-.3-.5-.5-.7-.6-.6-.8c-.5-.5-.8-1.1-1.3-1.7a8.2,8.2,0,0,1-1-1.6l-1.1-1.9a23.9,23.9,0,0,0-1.3-2.1l-3.7-6-1.9-3.5-4-7.5-4.1-7.2-2.2-3.6-1.1-1.8A19.8,19.8,0,0,0,859.3,712.9Z" transform="translate(-787.5 -642.6)"/>
    <path class="e838e353-2a18-4d5f-8264-835f050cca50" d="M866.9,709.2c-.1-.1-.1-.2,0-.4a2.8,2.8,0,0,1,.8-2.1c.7-.6,1.7-.8,3.3-.2l.4.3,1,1.7.5.9.5.9,2.2,3.5,2.9,4.6,1.4,2.3,1.3,2.4,2.4,4.8,1.2,2.5,1.2,2.3,2.1,4.1.5,1.2c.3.8.8,1.8,1.3,3s2.3,5.4,3.3,8c3.4,8.6.7,5.9-2.6,1.2.1.3-1.7-2.6-3.6-5.6l-2.6-4.1c-.7-1.1-1.1-1.9-1.1-1.9l-1.9-3.6-1.2-2.4-1.2-2.4-2.3-4.7-1.3-2.3-1.3-2.2-2.8-4.4-2.2-3.7-.6-.9-.5-.9Z" transform="translate(-787.5 -642.6)"/>
    <path class="e838e353-2a18-4d5f-8264-835f050cca50" d="M877.6,707.5c0-.1-.1-.1-.1-.3a4.2,4.2,0,0,1,.8-2.2c.5-.6,1.4-1.1,3.2-.5l.4.3a71.9,71.9,0,0,1,4.1,7.7l2.3,4.6,2.5,4.7,2.4,4.7,2.4,4.8,2.1,4.2.2.3a4.6,4.6,0,0,1,.3.9l1.2,3.2c.8,2.5,1.7,5.6,2.5,8.2s1.2,3.6,1.4,4.5.1,1.2-.3,1.1a5.4,5.4,0,0,1-1.6-1.4,25.4,25.4,0,0,1-2.1-3.2,48.3,48.3,0,0,1-3.1-5.9L894,739l-.8-1.4-.3-.5-1.8-3.6-2.4-4.7-2.4-4.6-2.5-4.7-2.4-4.8A69.8,69.8,0,0,0,877.6,707.5Z" transform="translate(-787.5 -642.6)"/>
    <path class="e838e353-2a18-4d5f-8264-835f050cca50" d="M889.1,707.7c-.1-.1-.1-.1-.1-.3s1-3.7,4.2-2.3l.4.3,3.8,7.5c3.1,5.9,6.1,11.9,8.8,18.1l1.8,4.4.3,1.3c.3.8.6,1.9,1,3.1s.7,2.7,1.1,4.1l.6,2.2a14.6,14.6,0,0,1,.5,2c2.7,8.8.2,6-2.6.9,0,.2-.4-.5-1-1.6s-1.2-2.8-2-4.4l-2.9-6.4-1.5-3.6c-2.6-6-5.5-11.9-8.6-17.8Z" transform="translate(-787.5 -642.6)"/>
    <path class="e838e353-2a18-4d5f-8264-835f050cca50" d="M853.3,666.7v-.2a3.5,3.5,0,0,1,1.6-1.2,5.7,5.7,0,0,1,3-.2s.2,0,.2.1.1,0,.1.2.1.3.2.6a16.4,16.4,0,0,1,1,2.2c.3.5.5,1.1.8,1.7l.8,1.7c.5,1.2,1.1,2.5,1.6,3.8s1.2,2.5,1.7,3.7,1.1,2.3,1.6,3.2l.6,1.4a10.4,10.4,0,0,0,.4,1,4.1,4.1,0,0,0,.4.9l1.4,5.9a9.3,9.3,0,0,1,.4,1.3,2.9,2.9,0,0,1,.2.9c0,.4-.1.7-.4.8s-1.6-.5-2.6-1.6h-.2l-.5-.6a4.7,4.7,0,0,0-.6-.9l-.7-1.1a29.9,29.9,0,0,1-1.8-2.9l-.4-.9a6.3,6.3,0,0,0-.4-.9c-.2-.4-.3-.8-.5-1.3l-1.6-3.2c-.5-1.2-1.1-2.4-1.7-3.7s-1.1-2.6-1.6-3.8a13,13,0,0,1-.8-1.7,6.1,6.1,0,0,0-.7-1.4l-1.1-2.5A6.7,6.7,0,0,1,853.3,666.7Z" transform="translate(-787.5 -642.6)"/>
    <path class="e838e353-2a18-4d5f-8264-835f050cca50" d="M857.6,659.5c-.1-.1-.1-.1-.1-.3a4,4,0,0,1,.5-2.3c.5-.7,1.4-1.2,3.2-.7l.4.2.7.9.6.9,1.3,1.9,1.1,1.9.5.9.5,1c1.8,3.3,3.3,6.7,4.9,9.9l2.2,4.2a6.7,6.7,0,0,0,.5,1.2l1.2,3,1.6,3.9c.6,1.4,1.2,2.8,1.6,4,1.9,4.2,2.3,5.7,1.6,5.5s-.9-.5-1.6-1.3a7.7,7.7,0,0,1-1.2-1.3c-.4-.5-.9-1-1.3-1.6l-1.1-1.6-1.2-1.8-1.3-2.2-3.6-6.1-1.9-3.6c-1.7-3.4-3.2-6.7-4.9-9.8l-.4-1-.5-.8-1.1-1.8-1.1-1.6a2.2,2.2,0,0,0-.5-.8Z" transform="translate(-787.5 -642.6)"/>
    <path class="e838e353-2a18-4d5f-8264-835f050cca50" d="M864.7,652a.6.6,0,0,1-.1-.4,4.8,4.8,0,0,1,.4-1.5,1.4,1.4,0,0,1,1.1-.9h1.3l.7.2a1.4,1.4,0,0,1,.9.1c.1,0,.3.1.3.2a29,29,0,0,0,1.9,3.4l.5.9a10.9,10.9,0,0,1,.6,1.1l1,1.9,1.8,3.8,1.6,3.7,1.6,3.7.8,1.9.9,1.8,2,4.3.4,1.2,1.1,3.1c.9,2.5,1.9,5.6,2.8,8.1s.8,1.9,1,2.7a8.8,8.8,0,0,1,.6,1.7c.2.8.1,1.2-.2,1.1a4.6,4.6,0,0,1-1.6-1.3l-1.2-1.4-1.2-1.7a8.2,8.2,0,0,1-1-1.6l-1.1-1.9-1.2-2.3-2.3-4.3-1-1.9-1.7-3.7-.9-1.8-.8-1.9-1.6-3.7-1.7-3.7c-.5-1.2-1.1-2.4-1.7-3.6l-.9-1.8-.4-.8-.6-.9C866.1,654.7,865.4,653.5,864.7,652Z" transform="translate(-787.5 -642.6)"/>
    <path class="e838e353-2a18-4d5f-8264-835f050cca50" d="M873.6,648.7c-.1-.1-.1-.1,0-.4a2.7,2.7,0,0,1,1.1-2c.7-.5,1.8-.5,3.3.2l.3.3c.5,1.2,1.1,2.4,1.7,3.7l1.7,3.9,5.6,13,1.9,4.3,1.4,4.4c.4,1.2.9,2.6,1.3,4s1,2.7,1.4,4l.3.8.3.7.5,1.2.5,1.7c.2.9.1,1.2-.2,1.2a5.4,5.4,0,0,1-1.6-1.4L892,687l-.6-.8-.6-.9a8.7,8.7,0,0,1-1.1-1.6l-1.1-2-1.2-2.3-2.2-4.3-.9-2-1.6-3.7-5.6-13c-.6-1.3-1.1-2.5-1.7-3.7Z" transform="translate(-787.5 -642.6)"/>
    <path class="e838e353-2a18-4d5f-8264-835f050cca50" d="M882.8,650.1v-.4a3.1,3.1,0,0,1,.5-1.2,2,2,0,0,1,.9-.9c.8-.3,1.8,0,3.1.6l.3.2a21.5,21.5,0,0,0,1.7,3.4l.5,1a9.3,9.3,0,0,1,.5,1l.9,2,1.2,2.6.9,2.2,1,2.2,1.4,4.3,1.4,4c.4,1.4.9,2.8,1.3,4.2a19.2,19.2,0,0,1,1.1,4.7c0,.9-.2,1.1-.5,1a4.7,4.7,0,0,1-1.3-1.6c-.3-.4-.5-.9-.9-1.4l-1-1.7c0,.1-.3-.5-1-1.6l-2.3-4.2-.6-1.2-.6-1.1a20.9,20.9,0,0,0-1-2.1l-1-1.9c-.5-1.3-1-2.5-1.6-3.7l-1.1-2.6-.9-1.9-.4-.8a4.1,4.1,0,0,0-.5-.9A41.8,41.8,0,0,1,882.8,650.1Z" transform="translate(-787.5 -642.6)"/>
  </g>
</svg>
