<svg id="a7ef188c-4240-42b8-be99-3a199076830c" data-name="Objects" xmlns="http://www.w3.org/2000/svg" viewBox="0 0 175.71 134.16"><defs><style>.eba472b2-ec2a-4cd5-acf1-405e8514d2be{fill:#252525;}</style></defs><path class="eba472b2-ec2a-4cd5-acf1-405e8514d2be" d="M666.19,830.94s0,0,0,.12a2,2,0,0,1-.55.77c-.29.22-.71.38-1.42-.17a.7.7,0,0,1-.13-.18,8.81,8.81,0,0,1,.15-4.14,20.06,20.06,0,0,1,2.41-5.6,17.94,17.94,0,0,1,4.31-4.38,16.46,16.46,0,0,1,5.56-2.56,15.87,15.87,0,0,1,3.07-.49,14.48,14.48,0,0,1,3.1.24,20.18,20.18,0,0,1,5.72,2,15.27,15.27,0,0,1,4.82,3.82A15.78,15.78,0,0,1,696.51,832a16.47,16.47,0,0,1-1.69,5.89,15.39,15.39,0,0,1-3.8,4.83,17.46,17.46,0,0,1-11.34,4,13.82,13.82,0,0,1-1.56-.08c-.52-.06-1-.17-1.54-.27a16.93,16.93,0,0,1-2.91-1A18.42,18.42,0,0,1,668.6,842a1.73,1.73,0,0,1-.28-.26l-.2-.21-.1-.1-.2-.21c-.13-.14-.27-.27-.39-.42l-.73-.89-.09-.13-.22-.39a10.16,10.16,0,0,1-.7-1.35,12.51,12.51,0,0,1-.66-1.88,9.42,9.42,0,0,1-.24-2,5.63,5.63,0,0,1,0-.7c0-.2,0-.38,0-.55a3.38,3.38,0,0,1,.1-.82c.14-.4.28-.44.36-.32a3.47,3.47,0,0,1,.3.75c.15.37.28,1,.44,1.56a11.63,11.63,0,0,0,1,2.44,12.66,12.66,0,0,0,1.07,1.6,5.44,5.44,0,0,0,.57.68c.21.25.4.52.63.75l.34.36.09.09.14.14a1.67,1.67,0,0,0,.23.23c.34.29.65.61,1,.87a16.32,16.32,0,0,0,4.6,2.58,13.18,13.18,0,0,0,2.51.63c.43,0,.84.09,1.28.09s.89,0,1.33,0a14.91,14.91,0,0,0,9.49-4.05,13.16,13.16,0,0,0,3-4.27,14.62,14.62,0,0,0,1.15-5.1,15.12,15.12,0,0,0-.66-5.19c-.16-.41-.27-.83-.46-1.23l-.57-1.16-.7-1.09c-.24-.36-.55-.66-.82-1A13.72,13.72,0,0,0,687,818.3a17.51,17.51,0,0,0-5-1.64,12.39,12.39,0,0,0-2.57-.14l-.62.07-.65.12a9,9,0,0,0-1.29.3,14.13,14.13,0,0,0-4.73,2.25,15.65,15.65,0,0,0-3.62,3.74,17.83,17.83,0,0,0-2.08,4.86,10.18,10.18,0,0,0-.26,1.61A5,5,0,0,0,666.19,830.94Z" transform="translate(-602.81 -754.74)"/><path class="eba472b2-ec2a-4cd5-acf1-405e8514d2be" d="M646.5,840.22a.21.21,0,0,1,.17,0,1.24,1.24,0,0,1,1,.42,1.48,1.48,0,0,1,0,1.4.7.7,0,0,1-.08.14,20.78,20.78,0,0,0-2.75,2.1c-.28.21-.52.44-.84.64l-.45.31-.11.07h0a4.68,4.68,0,0,0,.18.54,16.33,16.33,0,0,0,1.64,3.33c.32.54.69,1.06,1,1.59l.57.79.22.31h0l.88-.32c.62-.22,1.21-.45,1.87-.65l2-.65.9-.29s.08,0,.12,0l.1.07.19.15.39.31.54.43c.14.11.26.24.4.36a9,9,0,0,1,.75.76,8.6,8.6,0,0,1,.7.79l.33.41.33.45a3,3,0,0,1,.32.51,4.17,4.17,0,0,1,.28.6,3.61,3.61,0,0,1,.18.72,3.75,3.75,0,0,1,0,.75,5.15,5.15,0,0,1-.13.64l-.16.54-.31.94-.15.47c-.08.22-.14.37-.21.53-.26.62-.5,1.2-.69,1.77a3.17,3.17,0,0,0-.12.41c0,.1-.07.3-.06.24h0a10.69,10.69,0,0,0,1.45,1l.4.26.4.22.4.22.43.22c.28.14.62.33.94.51s.65.45,1,.67a2.5,2.5,0,0,0,.56.39c.16.07.16.06.22.05a1.64,1.64,0,0,0,.46-.29c.22-.16.45-.37.7-.59l.38-.33L663,864l0,0s0,0,0,0l.05,0,.65-.71a11,11,0,0,1,1.62-1.53l.14-.09a.7.7,0,0,1,.18-.11,3.66,3.66,0,0,1,.46-.18h0c.09,0-.1,0-.07,0h.06l.12,0,.24-.05a2.18,2.18,0,0,1,.57,0,2.35,2.35,0,0,1,.86.36,3,3,0,0,0,.32.2,2.13,2.13,0,0,0,.36.15l.46.19.91.36.89.32,1.31.46.46.18.09.48.09.48a1.72,1.72,0,0,1,0,.24l0,.21c0,.36.07.7.09,1,0,.67.08,1.31.14,1.92a7.26,7.26,0,0,0,.35,1.64l.07.16.08.13a.94.94,0,0,0,.15.22c0,.07.11.07.15.13s.07.05.17.07a5.73,5.73,0,0,0,1.63.11c.62,0,1.28-.08,2-.08a7.68,7.68,0,0,1,1.16.07l1,.15a5.13,5.13,0,0,0,.82.07,1.7,1.7,0,0,0,.27,0,.33.33,0,0,0,.14-.06c.06,0,.08-.08.13-.1l.13-.2a3.47,3.47,0,0,0,.23-.69,2.59,2.59,0,0,0,.09-.42l0-.15,0-.19c.09-.54.15-1.12.26-1.73a5.8,5.8,0,0,1,.16-.59,5.09,5.09,0,0,1,.73-1.59,3,3,0,0,1,1-.84,3.35,3.35,0,0,1,1.15-.37,9.16,9.16,0,0,1,2,0l2,.12c.37,0,.51.06.46.2a1.47,1.47,0,0,1-.81.51,8.88,8.88,0,0,1-1.63.39,4.73,4.73,0,0,1-.78.15,3.59,3.59,0,0,0-1.49.56,1.47,1.47,0,0,0-.34.54c0,.12-.08.24-.11.36s0,.26-.08.38-.07.46-.08.62l0,.24-.23,1.58-.07.34a7.9,7.9,0,0,1-.26,1,4,4,0,0,1-.6,1.13,3.09,3.09,0,0,1-.56.52,3,3,0,0,1-.67.33l-.37.12-.33,0a4.28,4.28,0,0,1-.61,0c-.37,0-.7-.06-1-.11l-.87-.13a4.78,4.78,0,0,0-.77,0h0c-.59,0-1.25.06-1.94.07a7.65,7.65,0,0,1-2.31-.19,3.53,3.53,0,0,1-.73-.32,3,3,0,0,1-.6-.51,3.22,3.22,0,0,1-.43-.58l-.16-.3-.12-.29A8.46,8.46,0,0,1,671,868c-.08-.7-.11-1.38-.15-2,0-.32,0-.64-.08-.93v0h0s0,0-.07,0l-.49-.17c-.32-.12-.67-.23-1-.35l-.93-.36-.46-.19a4.18,4.18,0,0,1-.55-.23c-.24-.13-.39-.25-.51-.32l-.09-.05v0a.91.91,0,0,1,.06-.16l0-.1c0-.07,0,0,0,0a.54.54,0,0,0,0,.11c0,.09,0,.2,0,.17h0c0,.08-.38-.76-.2-.37V863l.06.24,0,.11h0l0,0-.06,0a9.5,9.5,0,0,0-1.24,1.19l-.68.75-.12.13-.14.11-.17.16-.37.32c-.25.22-.51.45-.81.69a3.54,3.54,0,0,1-1.25.67,2.33,2.33,0,0,1-.91.06,3.12,3.12,0,0,1-.8-.23,5.38,5.38,0,0,1-1.07-.72c-.23-.16-.4-.31-.65-.46s-.5-.28-.81-.43l-.45-.23-.46-.26-.47-.26-.43-.27a13.71,13.71,0,0,1-1.76-1.27,2.4,2.4,0,0,1-.59-.76,2,2,0,0,1-.13-1,4.34,4.34,0,0,1,.13-.72c.05-.19.1-.37.16-.54.23-.69.5-1.32.75-1.92l.15-.38.15-.47.31-.94.12-.41a2.83,2.83,0,0,0,.07-.33c0-.11,0-.16,0-.24a2,2,0,0,0-.06-.23,2,2,0,0,0-.15-.29,1.24,1.24,0,0,0-.21-.32l-.25-.35-.29-.36c-.19-.25-.4-.47-.6-.7a6.45,6.45,0,0,0-.65-.63,3.19,3.19,0,0,0-.33-.31l-.24-.19s0,0,0,0l-1.79.58c-.6.19-1.24.44-1.86.66l-1,.35-.91.33-.47.17-.06,0,0,0-.07-.1-.15-.2-1-1.29-.59-.82c-.38-.56-.77-1.11-1.12-1.71a18.18,18.18,0,0,1-1.85-3.75,12.93,12.93,0,0,1-.4-1.35l-.25-1,0-.06s0,0,0,0l.11-.06.21-.11.43-.23.42-.23.22-.12.1-.06.36-.25c.24-.16.48-.38.73-.56A21.43,21.43,0,0,1,646.5,840.22Z" transform="translate(-602.81 -754.74)"/><path class="eba472b2-ec2a-4cd5-acf1-405e8514d2be" d="M688.75,864.9a.22.22,0,0,1,0-.15,1.51,1.51,0,0,1,.32-1,1.16,1.16,0,0,1,.55-.19,1.44,1.44,0,0,1,.83.05.4.4,0,0,1,.17.09l2.06,3c.35.51.69,1,1,1.55,0,0,0,0,0,0a22.29,22.29,0,0,0,2.39-1.14c.81-.44,1.63-.91,2.51-1.36.45-.23.93-.43,1.31-.6l.46-.24h0a2,2,0,0,0,0-.22c0-.17-.05-.4-.09-.62a10.33,10.33,0,0,0-.29-1.26,17.61,17.61,0,0,1-.66-2.93,3.79,3.79,0,0,1,.23-1.93l.23-.45c.09-.15.18-.25.27-.38a5.15,5.15,0,0,1,.58-.64,14,14,0,0,1,1.16-1l.56-.44c.08-.06.2-.15.33-.23l.36-.25.48-.23a3.09,3.09,0,0,1,.6-.15,2.36,2.36,0,0,1,.65,0,3.15,3.15,0,0,1,.51.13c.56.19,1,.38,1.35.52l.3.11.36.12.68.24c.43.16.86.31,1.27.44a5.91,5.91,0,0,0,1.13.24h.12a.23.23,0,0,1,.1-.07s.1-.11.16-.16a10.91,10.91,0,0,0,1.4-2.1l.37-.64.41-.64.75-1.14c.25-.38.46-.78.69-1.16l.1-.17v0l-.7-1c-.26-.37-.53-.74-.83-1.1l-.87-1.09c-.3-.37-.58-.72-.89-1.13l-.12-.16-.13-.19-.13-.2-.12-.25a2.39,2.39,0,0,1-.19-.57,2.36,2.36,0,0,1-.05-.58,2.31,2.31,0,0,1,.05-.49,2.36,2.36,0,0,1,.08-.43l.09-.39.09-.33h0a12.37,12.37,0,0,1,.48-1.58,4.17,4.17,0,0,1,.5-.88c.12-.15.24-.29.37-.43l.45-.34a2.21,2.21,0,0,1,.48-.25,3.41,3.41,0,0,1,.5-.19,5.73,5.73,0,0,1,.89-.17l1.53-.15c.49,0,1-.09,1.41-.16a4.7,4.7,0,0,0,1.13-.29c.12-.08.07,0,.08,0h0a.34.34,0,0,0,0-.1c0-.07,0-.17.06-.27a13.08,13.08,0,0,0,.17-1.35c0-.48.07-1,.09-1.46l0-.76c0-.12,0-.3,0-.43l0-.4.08-.6c0-.11,0-.22,0-.33a6.78,6.78,0,0,0,0-1.18v-.09a1.15,1.15,0,0,0,0-.2.37.37,0,0,0-.09-.22,1.41,1.41,0,0,0-.37-.37,13.82,13.82,0,0,0-3.13-1.52c-1.88-.65-2.43-1-2.17-1.19a6.59,6.59,0,0,1,2.53,0,12.12,12.12,0,0,1,2.93.68,5.73,5.73,0,0,1,1.19.59,2.92,2.92,0,0,1,.55.46,2.5,2.5,0,0,1,.44.6,3.43,3.43,0,0,1,.34,1.33,9.29,9.29,0,0,1-.06,1.52l0,.35-.07.5-.05.32,0,.3c0,.91-.08,1.89-.19,2.88a8.12,8.12,0,0,1-.32,1.64c0,.08-.08.21-.14.31l-.18.31a4.51,4.51,0,0,1-.51.47,3.12,3.12,0,0,1-.49.27,3.52,3.52,0,0,1-.45.16,14.89,14.89,0,0,1-3,.48c-.47,0-.93.08-1.34.14l-.28,0-.2.06a1.14,1.14,0,0,0-.33.18c-.35.19-.58,1-.82,1.9h0l-.09.35-.07.29a1.66,1.66,0,0,0-.05.26c0,.07,0,.18,0,.21s0,.1,0,.12a.13.13,0,0,0,0,.09.14.14,0,0,1,0,.06l.07.1.07.1.09.13.86,1.08.89,1.11c.3.36.58.75.86,1.15l1,1.32.4.56a2.4,2.4,0,0,1,.19.29l-.18.3-.6,1.06c-.25.42-.48.85-.74,1.26l-.81,1.22-.2.3-.1.15,0,.08,0-.06h0v0l0,0-.33.58a12.09,12.09,0,0,1-1.75,2.57c-.11.11-.21.21-.34.32s-.3.21-.49.32a1,1,0,0,1-.32.14,1.87,1.87,0,0,1-.34.08,4.18,4.18,0,0,1-.59,0,7.92,7.92,0,0,1-1.63-.34c-.48-.15-.94-.31-1.39-.47l-1.32-.47c-.49-.18-1-.39-1.28-.5-.05,0-.14,0-.16,0s0,0-.06,0,0,0-.07,0l-.16.08-.22.15-.24.17-.56.43c-.36.29-.69.56-1,.83a2.8,2.8,0,0,0-.59.78,1.67,1.67,0,0,0-.06.84,15.63,15.63,0,0,0,.59,2.55,13,13,0,0,1,.34,1.49c0,.24.08.48.11.77a3.62,3.62,0,0,1,0,.49,2.25,2.25,0,0,1-.11.68,2.1,2.1,0,0,1-.84,1.08,5.88,5.88,0,0,1-.79.43c-.48.21-.86.37-1.25.57-.79.4-1.6.86-2.44,1.32a23.36,23.36,0,0,1-2.7,1.29c-.54.19-1.14.37-1.71.55l-.1,0h0l0,0-.1-.23-.2-.44a5.42,5.42,0,0,0-.44-.8c-.31-.49-.64-1-1-1.48Z" transform="translate(-602.81 -754.74)"/><path class="eba472b2-ec2a-4cd5-acf1-405e8514d2be" d="M714.1,827.27a.32.32,0,0,1-.07.18l-.07.11h0l-1.81-.63a1.37,1.37,0,0,1,.32-.16l.15,0s.06,0,.1,0,.28.11.44.17a.71.71,0,0,1,.42.35.75.75,0,0,1,.06.39c0,.1,0,.12.06.17a.4.4,0,0,0,.1.12h0l-1.76-.62-.06-.05a.43.43,0,0,1-.09-.13,14.22,14.22,0,0,0-.7-3.29,4.23,4.23,0,0,1-.06-1.61,3.31,3.31,0,0,1,.77-1.62A11.21,11.21,0,0,1,714,819c.28-.22.7-.51,1-.73a8.08,8.08,0,0,0,.88-.61c.19-.18.2-.21.22-.35a1.12,1.12,0,0,0,0-.32,1.54,1.54,0,0,0-.12-.44,20.87,20.87,0,0,0-1.94-4.19c-.2-.37-.38-.68-.58-1a3.61,3.61,0,0,0-.27-.37l0-.05h-.09a4.16,4.16,0,0,0-.47.09l-1.17.29c-.68.17-1.47.48-2.31.71a9.72,9.72,0,0,1-1.37.28A3.07,3.07,0,0,1,706,812a1.06,1.06,0,0,1-.22-.13l-.18-.14-.18-.15-.13-.13-.27-.26-.22-.26c-.3-.34-.56-.68-.81-1l-.73-1-.17-.24h0c-.06-.08.07.08.06.06l0,0,0,0-.06-.07-.12-.16-.24-.32c-.07-.13-.14-.28-.21-.42a2.88,2.88,0,0,1-.25-1,3.41,3.41,0,0,1,.13-1,8.82,8.82,0,0,1,.54-1.29l.22-.49.23-.58.46-1.15.46-1.15.1-.25v0h0l-.07-.08a4.91,4.91,0,0,0-.4-.38l-.88-.7c-.93-.66-1.94-1.25-3-2l-.68-.4a2.43,2.43,0,0,0-.35-.2l-.19-.09-.17-.07-.14,0h0l0,0-.31.25-.34.28-.3.26-.2.19-.42.4-.87.81-.47.36a10.52,10.52,0,0,1-1.31.84,4.43,4.43,0,0,1-1.06.41,2.21,2.21,0,0,1-.68.06,5.63,5.63,0,0,1-.61-.08,9.2,9.2,0,0,1-1.88-.75c-.91-.45-1.46-.75-1.79-.94s-.42-.31-.29-.4a1.6,1.6,0,0,1,.92-.08,10.65,10.65,0,0,1,1.63.29,6.22,6.22,0,0,1,.77.16,2.5,2.5,0,0,0,1.48,0,6.1,6.1,0,0,0,1.38-1.07c.39-.37.64-.65.64-.65l.79-.73.4-.39.15-.13c.1-.1.24-.22.36-.32s.44-.36.71-.56a2.72,2.72,0,0,1,.3-.19,1.92,1.92,0,0,1,.35-.18,1.77,1.77,0,0,1,.82-.13l.42.07c.14,0,.2.07.31.1l.27.11.21.09a8.45,8.45,0,0,1,.83.45c.28.16.58.33.79.48.9.61,1.92,1.2,2.89,1.9.35.26.69.54,1,.82.17.13.32.31.48.46l.79.8.22.22.1.11-.05.14-.23.57-.36.91-.44,1.12-.45,1.13-.22.56-.28.62a6.47,6.47,0,0,0-.41,1c-.06.13,0,.18-.06.25s0,.09.07.19a.52.52,0,0,1,.06.13l.13.17.19.25.19.25.71,1c.23.31.47.62.71.89s.52.5.57.6.06,0,.17,0a1.76,1.76,0,0,0,.39,0,7.66,7.66,0,0,0,1-.22c.73-.2,1.46-.49,2.36-.73l1.21-.29c.22,0,.44-.1.73-.14a2.22,2.22,0,0,1,2,.79,6.5,6.5,0,0,1,.46.61c.24.38.47.77.66,1.12a22.58,22.58,0,0,1,2.14,4.68,3.21,3.21,0,0,1,.18.74,3.38,3.38,0,0,1,0,.9,2.44,2.44,0,0,1-.34,1,3,3,0,0,1-.61.73,11.75,11.75,0,0,1-1.13.8c-.34.22-.59.4-1,.67a12.13,12.13,0,0,0-1.74,1.31,1,1,0,0,0-.26.55,2.19,2.19,0,0,0,.05.82c.09.49.28,1,.46,1.67A6.65,6.65,0,0,1,714.1,827.27Z" transform="translate(-602.81 -754.74)"/><path class="eba472b2-ec2a-4cd5-acf1-405e8514d2be" d="M688.45,798.05s0,0,0,.1l-.1.16a1.63,1.63,0,0,1-.11.17,4.43,4.43,0,0,1-.31.41.85.85,0,0,1-.51.3.92.92,0,0,1-.41-.06,1.4,1.4,0,0,1-.51-.31.93.93,0,0,1-.15-.2,9,9,0,0,1-.21-2.07c0-.3,0-.57,0-.83a7.84,7.84,0,0,0-.14-.82c-.11-.62-.22-1.22-.37-1.9l0-.24h0c-1.29,0-2.54-.14-3.87-.14l-2,0h-.49l-.51,0a1.55,1.55,0,0,0-.53,0,.7.7,0,0,0-.26.26s-.07.06-.09.11l-.09.16a3.58,3.58,0,0,0-.17.34,14.1,14.1,0,0,0-.56,1.73,13.07,13.07,0,0,1-.68,2,3.78,3.78,0,0,1-.75,1.12,3,3,0,0,1-1.3.78,14.37,14.37,0,0,1-2.12.3c-.31,0-.49.1-1,.15a3.86,3.86,0,0,1-1.38-.08,3.81,3.81,0,0,1-.69-.27,5.13,5.13,0,0,1-.57-.38l-.46-.41-.37-.4c-.47-.53-.79-.87-1.34-1.43a13,13,0,0,0-1.13-1.24c-.08-.05-.08-.05-.26,0a2.69,2.69,0,0,0-.66.16l-.18.07-.24.1-.49.19-.93.34c-.6.22-1.19.45-1.75.7a7.09,7.09,0,0,0-1.45.84,1.9,1.9,0,0,0-.4.43.82.82,0,0,0-.08.41,4.11,4.11,0,0,0,.36,1.47c.22.56.5,1.15.77,1.79a6,6,0,0,1,.55,2.34c0,.12,0,.23,0,.36s-.05.25-.08.42-.1.31-.21.44l-.12.21-.1.13c-.26.32-.5.57-.74.82-.49.5-1,1-1.51,1.41-.27.22-.53.44-.83.66s-.31.22-.51.34a1.87,1.87,0,0,1-.4.19,1.53,1.53,0,0,1-.47.11,2,2,0,0,1-.42,0,3.07,3.07,0,0,1-.34,0,5.33,5.33,0,0,1-.6-.11c-.36-.09-.71-.19-1-.3-.66-.22-1.29-.47-1.9-.72l-.9-.36-.4-.15-.45-.14-.19-.06-.12,0h0a1.12,1.12,0,0,0-.17.1,2.7,2.7,0,0,0-.25.18,9.34,9.34,0,0,0-1.1,1.32l-1.12,1.59a11.93,11.93,0,0,0-.88,1.34c-.08.17-.08.23-.07.26a.87.87,0,0,0,.16.33c.24.31.72.8,1.11,1.22s.84.87,1.25,1.34a11.79,11.79,0,0,1,1.42,1.86,3.73,3.73,0,0,1,.3.6,4.64,4.64,0,0,1,.22.69,3.76,3.76,0,0,1,0,1.5c-.17.81-.37,1.36-.46,2l-.17,1a9,9,0,0,1-.24,1.17,2,2,0,0,1-.18.45,3.29,3.29,0,0,1-.28.44,4.39,4.39,0,0,1-.4.33l-.25.14-.18.09a5.45,5.45,0,0,1-1.29.33,17.9,17.9,0,0,1-2.25.16h-1.57l-.54,0-.58,0H641c0,.06,0,.26,0,.39,0,.31,0,.65,0,1l0,1.05a6,6,0,0,1,0,.6l0,.51-.08,2.12v1.14s0,0,0,0c.36,0,.73.06,1.09.11l.54.07.34.05.17,0,.67.12h0c.41.07.83.19,1.25.29l.61.24a7.53,7.53,0,0,1,.69.35,3.7,3.7,0,0,1,.85.64h0a5.09,5.09,0,0,1,.39.5,3.19,3.19,0,0,1,.26.61,2.39,2.39,0,0,1,.11.6l0,.28v.25c0,.34,0,.63,0,.92V838s0,.21,0,.27,0,.32,0,.47c-.06,1-.18,1.63-.18,2s-.11.52-.25.44a1.87,1.87,0,0,1-.46-.81c-.14-.46-.22-1.06-.33-1.62,0,0,0-.05-.06-.23l0-.15a0,0,0,0,1,0,0s0,0,0,0v0s0-.07,0-.11-.08-.32-.12-.5c-.07-.36-.12-.81-.21-1.11a.89.89,0,0,0-.38-.59h0a2,2,0,0,0-.55-.27l-.28-.1-.3-.08a4.23,4.23,0,0,0-.61-.13,6.66,6.66,0,0,0-.8-.18l-.61-.11-.15,0-.31-.05c-.16,0-.33,0-.5-.06l-1-.11-1-.08-.53,0c-.15,0-.42,0-.36-.19l-.12-2c0-.44,0-.76,0-1.14l.08-2.11,0-.55v-.45l0-1.06c0-.37,0-.74,0-1.14a6.42,6.42,0,0,1,.06-.66,3.28,3.28,0,0,1,.3-1,1.62,1.62,0,0,1,.72-.65,3,3,0,0,1,1-.2h1.63l.56,0h1.05a15.11,15.11,0,0,0,2-.13,4.27,4.27,0,0,0,.76-.18l0,0h0v0a9,9,0,0,0,.19-.89l.16-1c.1-.74.36-1.53.48-2.1a1.55,1.55,0,0,0,0-.6,2.85,2.85,0,0,0-.1-.32,2.26,2.26,0,0,0-.18-.34,9.65,9.65,0,0,0-1.15-1.49c-.38-.43-.79-.85-1.2-1.29l-.63-.66a8.75,8.75,0,0,1-.67-.79,3,3,0,0,1-.56-1.31,2.68,2.68,0,0,1,.25-1.49,13.55,13.55,0,0,1,1.08-1.67l1.14-1.62a10.08,10.08,0,0,1,1.43-1.68,4.77,4.77,0,0,1,.55-.4,1.85,1.85,0,0,1,.29-.17,2.52,2.52,0,0,1,.41-.17,2.07,2.07,0,0,1,1-.06c.17,0,.25.05.36.07l.29.08.48.16.52.19.93.37c.6.25,1.19.48,1.77.67a7.36,7.36,0,0,0,.85.25,2.66,2.66,0,0,0,.37.07l.15,0h.06l0,0,.31-.21c.23-.17.47-.37.7-.56.47-.41.94-.84,1.37-1.28a8,8,0,0,0,.58-.64l0-.06s0,0,0-.06a.56.56,0,0,0,0-.13,4.15,4.15,0,0,0-.38-1.45c-.23-.56-.52-1.16-.79-1.82a6.3,6.3,0,0,1-.51-2.32,3,3,0,0,1,.38-1.48,3.82,3.82,0,0,1,.91-1,8.7,8.7,0,0,1,1.93-1.14c.64-.29,1.28-.53,1.9-.76l.92-.34.43-.17.21-.09.28-.1a4.78,4.78,0,0,1,1.25-.3,2.87,2.87,0,0,1,.81,0,2.3,2.3,0,0,1,.8.34,4.73,4.73,0,0,1,1,.89c.22.27.41.49.61.71s.4.4.66.69.47.51.69.75l.3.32c.09.1.18.16.27.25a2.5,2.5,0,0,0,.24.16c.08.05.15,0,.22.09a4.69,4.69,0,0,0,1.52-.13,14,14,0,0,0,1.76-.23.86.86,0,0,0,.38-.21,1.88,1.88,0,0,0,.32-.52,11.59,11.59,0,0,0,.55-1.69,16.06,16.06,0,0,1,.66-2,3.88,3.88,0,0,1,.27-.54l.15-.28a2.47,2.47,0,0,1,.21-.27,2.71,2.71,0,0,1,.49-.53l.15-.13.19-.12a1.84,1.84,0,0,1,.4-.19,3.45,3.45,0,0,1,1.41-.15l.48,0h.49l1.95,0c1.28,0,2.65.09,4,.14l.93,0,.49,0h.25c.05,0,0,.15.07.22l.36,1.69c.13.61.26,1.29.38,2,.06.31.12.61.16,1a8.74,8.74,0,0,1,0,1A7.36,7.36,0,0,0,688.45,798.05Z" transform="translate(-602.81 -754.74)"/><path class="eba472b2-ec2a-4cd5-acf1-405e8514d2be" d="M723.39,784.35s0,0-.06.08a3.3,3.3,0,0,1-.71.49.87.87,0,0,1-.56.06,1.19,1.19,0,0,1-.67-.62.9.9,0,0,1-.07-.23,6,6,0,0,1,.64-2,11,11,0,0,1,1-1.61,13.26,13.26,0,0,1,1-1.2l.31-.29a2.61,2.61,0,0,1,.33-.27l.66-.48a10.78,10.78,0,0,1,2.94-1.36,10.06,10.06,0,0,1,3.22-.36,8,8,0,0,1,.82.07l.84.16.79.26a4.54,4.54,0,0,1,.75.31,11.47,11.47,0,0,1,4.82,4.19,8.85,8.85,0,0,1,1.09,3.13,10.14,10.14,0,0,1-3.23,8.85,9.71,9.71,0,0,1-6,2.35,10.34,10.34,0,0,1-3.19-.32,8.65,8.65,0,0,1-3-1.4l-.16-.12-.13-.1-.11-.09-.21-.18c-.15-.11-.28-.25-.42-.37s-.53-.53-.78-.8a9.42,9.42,0,0,1-1.07-1.74,7.44,7.44,0,0,1-.81-3.73,5.43,5.43,0,0,1,.22-1.26c.1-.27.17-.51.26-.69.19-.37.35-.36.39-.24a2.77,2.77,0,0,1,.14.76c0,.11,0,.26,0,.36l0,.34c0,.22.07.47.1.73a5.77,5.77,0,0,1,.17.67,7.21,7.21,0,0,0,.68,1.58,8.49,8.49,0,0,0,1,1.45,7.28,7.28,0,0,0,.57.58,7.6,7.6,0,0,0,.64.63c.1.11.23.19.34.29l.09.07.08.07.13.09.53.35a6.31,6.31,0,0,0,1.11.54,9.36,9.36,0,0,0,1.22.33,9.16,9.16,0,0,0,2.56.09,8,8,0,0,0,2.44-.66,7.37,7.37,0,0,0,2.05-1.44,7.48,7.48,0,0,0,1.47-2,8.57,8.57,0,0,0,.75-2.43,6.8,6.8,0,0,0-.95-4.79,9.36,9.36,0,0,0-3.92-3.24,3.44,3.44,0,0,0-.58-.22,3.59,3.59,0,0,0-.59-.18l-.58-.11-.64,0a8.18,8.18,0,0,0-2.52.31,8.66,8.66,0,0,0-2.3,1.09l-.52.37-.22.19-.22.21a11.74,11.74,0,0,0-.86,1A5.81,5.81,0,0,0,723.39,784.35Z" transform="translate(-602.81 -754.74)"/><path class="eba472b2-ec2a-4cd5-acf1-405e8514d2be" d="M710.26,786.67a.24.24,0,0,1,.17,0,1.11,1.11,0,0,1,.84.58,1.6,1.6,0,0,1-.25,1.28.35.35,0,0,1-.1.12,13,13,0,0,0-1.45.65l-.43.2-.23.09-.12,0h0l0,.38a8.32,8.32,0,0,0,.2.94,14.57,14.57,0,0,0,.63,1.9l.09.24.31,0c.36,0,.69-.08,1.07-.1l1.27-.09.52,0a2.44,2.44,0,0,1,.27,0l.15.21.58.81c.11.17.24.33.34.51l.27.52.26.54.12.3a2.58,2.58,0,0,1,.12.34,4,4,0,0,1,.08.4,3.93,3.93,0,0,1,0,.49,4.31,4.31,0,0,1-.11.49c0,.14-.11.26-.17.39-.23.43-.42.68-.6,1s-.46.64-.65.91-.18.27-.26.39l0,.07h0l.08.1a8.94,8.94,0,0,0,.67.71c.21.22.45.41.76.69a4.29,4.29,0,0,1,.46.48l.22.27.09.12,0,0h0l.15-.07.45-.23.25-.13,0,0h0l.08-.05.44-.3c.15-.1.31-.21.49-.31l.3-.16a1.84,1.84,0,0,1,.49-.19,2.11,2.11,0,0,1,.5-.1,2.07,2.07,0,0,1,.5,0,1.76,1.76,0,0,1,.83.56l.06.07,0,0,.22.16.44.31.43.3.64.42.42.3.11.08s.08,0,.06.1v.26c0,.34,0,.68-.1,1l-.19,1.05a5.26,5.26,0,0,0-.1.9,1.28,1.28,0,0,0,.06.48h0l.11,0,.17.06c.26.08.58.15.93.22s.45.08.7.15.22.06.34.09l.33.12.28.11a4.58,4.58,0,0,0,.44.18l.17.06h.06a0,0,0,0,0,0,0s0,0,.11-.05a3.15,3.15,0,0,0,.31-.47,14.89,14.89,0,0,1,.91-1.6,2.54,2.54,0,0,1,.42-.46,1.26,1.26,0,0,1,.28-.2l.17-.1.11,0a2.05,2.05,0,0,1,1.16-.06,7,7,0,0,1,1.18.34l.68.25c.32.12.44.18.35.3a1.34,1.34,0,0,1-.87.25c-.44,0-1,0-1.47,0,0,0,0,0-.14,0a.88.88,0,0,0-.27.08l-.08,0,0,0h0l0,0h0a.16.16,0,0,0,0,.06,2.33,2.33,0,0,0-.15.23,6.26,6.26,0,0,0-.32.84c-.11.32-.22.68-.38,1.05a3.2,3.2,0,0,1-.31.57,2.4,2.4,0,0,1-.54.57l-.33.19-.32.1a1.65,1.65,0,0,1-.56.06,2.37,2.37,0,0,1-.44-.05,9.18,9.18,0,0,1-1.06-.39,2.54,2.54,0,0,0-.34-.13l-.09,0-.15,0-.53-.11a11,11,0,0,1-1.15-.27l-.33-.12a3.09,3.09,0,0,1-.37-.18,2.39,2.39,0,0,1-.42-.31,3.29,3.29,0,0,1-.33-.41,3,3,0,0,1-.35-1.59,7.29,7.29,0,0,1,.12-1.21l.19-1h0l-.24-.16c-.17-.11-.32-.21-.45-.31l-.43-.31-.21-.15a1.29,1.29,0,0,1-.18-.14l-.13-.11h0l-.17.1c-.13.07-.26.16-.4.25l-.45.3-.14.09-.12.07-.07,0-.22.12-.5.26-.33.14a2.34,2.34,0,0,1-.49.14,1.81,1.81,0,0,1-1-.11,2.28,2.28,0,0,1-.81-.61c-.11-.12-.15-.2-.23-.3l-.12-.14a2.45,2.45,0,0,0-.28-.28c-.22-.2-.52-.46-.81-.74s-.52-.54-.79-.85l-.26-.31a2.13,2.13,0,0,1-.23-.45,1.23,1.23,0,0,1-.14-1,2.26,2.26,0,0,1,.19-.49c.08-.15.18-.33.22-.39s.22-.34.33-.49c.22-.31.46-.61.59-.82s.4-.63.51-.83l0-.1v0a0,0,0,0,1,0,0l0-.12a3.61,3.61,0,0,0-.14-.35l-.21-.42-.21-.43c-.08-.13-.18-.24-.26-.37l0-.06h0l-.85.07c-.32,0-.7.06-1.05.09l-1.81.18a8.25,8.25,0,0,1-.42-.95l-.3-.75a17.33,17.33,0,0,1-.72-2.14,10.63,10.63,0,0,1-.23-1.15l-.08-.68,0-1v-.43s0,0,.07,0l.1,0,.2-.07c.27-.08.53-.17.83-.24l.28-.1.17-.07.36-.16A12.86,12.86,0,0,1,710.26,786.67Z" transform="translate(-602.81 -754.74)"/><path class="eba472b2-ec2a-4cd5-acf1-405e8514d2be" d="M730.54,807a.16.16,0,0,1,0-.15,1.69,1.69,0,0,1,.5-.89.75.75,0,0,1,.26,0c.1,0,.19,0,.29,0a1.57,1.57,0,0,1,.76.24,1.3,1.3,0,0,1,.14.12l.58,1.57.29.81c0,.06,0,0,0,0h.06l.64-.14.76-.19.79-.2.84-.19.47-.08h0v-.1l0-.35,0-.75c0-.27,0-.57,0-.87a5.16,5.16,0,0,1,.14-1c0-.1.06-.2.1-.31a3.91,3.91,0,0,1,.18-.35,1.6,1.6,0,0,1,.22-.28,1.77,1.77,0,0,1,.23-.24,6.51,6.51,0,0,1,1.68-.94l.18-.08.29-.11a2.7,2.7,0,0,1,.72-.14,1.84,1.84,0,0,1,.77.17,2.45,2.45,0,0,1,.33.18l.22.16.31.22.29.2.69.46a7.11,7.11,0,0,0,.61.37,1.08,1.08,0,0,0,.23.11h0a1.54,1.54,0,0,0,.13-.09,5.57,5.57,0,0,0,.49-.43l.54-.57.16-.16.2-.18.28-.26c.18-.17.38-.34.55-.52l.28-.28h0l-.23-.59c-.19-.47-.43-1-.64-1.43l-.17-.38-.09-.2,0-.11-.05-.16a2,2,0,0,1-.13-.75,2.24,2.24,0,0,1,.17-.73h0a6.66,6.66,0,0,1,.34-.67c.1-.18.2-.37.34-.59a3.18,3.18,0,0,1,.58-.71,2.94,2.94,0,0,1,.47-.31,1.88,1.88,0,0,1,.53-.19,3,3,0,0,1,.52-.06l.42,0c.25,0,.46.06.67.09.42.07.81.13,1.15.16h.4s0,0,0-.1l.09-.21c.06-.16.12-.32.17-.49l.19-.47.22-.55a5.51,5.51,0,0,1,.34-.73c.11-.23.22-.45.3-.67s.07-.22.09-.26a.32.32,0,0,0,0-.14,1.26,1.26,0,0,0-.33-.49,6,6,0,0,0-.59-.53c-.72-.55-1.24-.9-1.51-1.16s-.29-.4-.16-.44a5.38,5.38,0,0,1,2.33.65,3.51,3.51,0,0,1,.74.42,2.75,2.75,0,0,1,.86.86c.06.13.12.27.17.41a3.47,3.47,0,0,1,.06.45,3.63,3.63,0,0,1-.09.73,10.27,10.27,0,0,1-.32,1.12,3.31,3.31,0,0,0-.11.39c0,.15-.07.29-.1.42-.12.54-.24.92-.24.92-.06.18-.13.37-.21.56a3.49,3.49,0,0,1-.17.34,1.16,1.16,0,0,1-.14.24l-.17.19a1.44,1.44,0,0,1-.86.53l-.14,0a1.35,1.35,0,0,1-.29,0,3,3,0,0,1-.41,0,6.77,6.77,0,0,1-.68,0c-.42,0-.82-.12-1.18-.17a3.35,3.35,0,0,0-.47-.06c-.07,0-.07,0-.11,0h-.08s0,0-.08.06l0,0,0,.07a1.42,1.42,0,0,0-.11.16c-.14.24-.41.74-.47.87s0,0,0,0v.06l0,.08.07.16.16.36c.22.5.46,1,.67,1.5l.36.91.3.75.07.18s0,.06,0,.08l-.07.07-.28.29-.84.88c-.2.2-.42.38-.62.58l-.32.29-.08.07,0,0,0,0h0s.11-.09.06,0h0l-.12.12-.57.6a7.86,7.86,0,0,1-.71.63,4.7,4.7,0,0,1-.55.34,2.63,2.63,0,0,1-.77.19,2.08,2.08,0,0,1-.77-.16,4,4,0,0,1-.5-.24,7.65,7.65,0,0,1-.76-.47l-.65-.43-.38-.25-.34-.25-.13-.09,0,0-.09,0-.19.08a5.11,5.11,0,0,0-1.13.59s0,0-.05.05l0,0-.06,0h0l.06,0h0v0l0,0a3.42,3.42,0,0,0-.06.57c0,.23,0,.47,0,.73s0,.52,0,.87l0,.45a2.86,2.86,0,0,1,0,.32,2.25,2.25,0,0,1-.06.36l-.14.36a2.23,2.23,0,0,1-.2.33,3.47,3.47,0,0,1-.29.25l-.35.18a2.15,2.15,0,0,1-.36.11l-.19,0-.09,0h0l-.4.07-.72.17c-.24.05-.51.13-.77.2l-.81.19-.42.1-.21,0-.1,0-.19,0-1.56.16-.19,0c-.14-.51-.29-1.14-.46-1.59l-.28-.77Z" transform="translate(-602.81 -754.74)"/><path class="eba472b2-ec2a-4cd5-acf1-405e8514d2be" d="M750.67,788.87a.24.24,0,0,1-.08.17,2.05,2.05,0,0,1-.34.32l-1.24-.81a.76.76,0,0,1,.72.25.81.81,0,0,1,.2.35.79.79,0,0,1,0,.23.45.45,0,0,0,0,.11l0,.06v0h0c-.08-.08.18.18-.18-.19l-1-.57-.19-.22a1.27,1.27,0,0,1-.07-.12,12.57,12.57,0,0,0,0-1.56,3.47,3.47,0,0,1,.06-.6l.08-.33a2.63,2.63,0,0,1,.15-.35,2,2,0,0,1,.47-.63,2.78,2.78,0,0,1,.56-.4,8.94,8.94,0,0,1,1.12-.46c.26-.11.73-.29,1-.39l.27-.1h0v-.1s0-.11,0-.18l0-.22a11.81,11.81,0,0,0-.38-1.92c-.09-.34-.18-.69-.27-.94,0,0,0,0,0,0h-.78c-.28,0-.65,0-1,.06a6.52,6.52,0,0,1-1.3,0,2.26,2.26,0,0,1-.47-.13,1.63,1.63,0,0,1-.47-.25l-.2-.17-.17-.2a2,2,0,0,1-.24-.36,11.76,11.76,0,0,1-.52-1.1l-.2-.5,0-.12,0-.06h0c0-.08,0,.1,0,.08v0l0-.05-.16-.37a3.54,3.54,0,0,1-.1-.51,2.36,2.36,0,0,1,0-.53,2.67,2.67,0,0,1,.17-.5,3.52,3.52,0,0,1,.24-.4l.2-.26.17-.21c.09-.12.18-.22.29-.38l.86-1.2s0,0,0,0h0l-.09-.12-.3-.39-.34-.39L747,772l-.16-.17-.25-.26-.51-.55-.4-.39,0,0s0,0,0-.05a0,0,0,0,0,0,0s-.12,0-.22.06l-.3.12a17.85,17.85,0,0,1-1.67.71,4.81,4.81,0,0,1-1.07.23,1.81,1.81,0,0,1-.67-.1l-.21-.09-.25-.14a6.79,6.79,0,0,1-1-.79c-.23-.21-.4-.38-.52-.51s-.31-.39-.17-.44a1.54,1.54,0,0,1,.86.16l.66.28.34.16a3.1,3.1,0,0,0,.32.11s0,0,.09,0l.25,0h.07a5.75,5.75,0,0,0,1.44-.77c.29-.18.58-.38.94-.59a2.53,2.53,0,0,1,1.4-.42,1.63,1.63,0,0,1,.65.24,3.71,3.71,0,0,1,.39.26c.18.13.24.2.25.2.18.18.42.4.54.54l.44.48.25.26.37.4a10.68,10.68,0,0,1,.71.87h0l.14.19.19.33.39.65.1.17s.09.11,0,.16l-.22.31-.46.64-.92,1.28-.36.48-.17.2-.12.16-.05.06v0a.61.61,0,0,1,.05.12h0l0,.1,0,.07.06.13.19.49c.13.31.27.62.39.84l.06.09h0a3.6,3.6,0,0,0,.83,0c.34,0,.68-.06,1.12-.07h.9a3.2,3.2,0,0,1,.45,0,1.69,1.69,0,0,1,.91.46,4.13,4.13,0,0,1,.31.42,4,4,0,0,1,.21.47c.14.42.23.76.32,1.12a13.56,13.56,0,0,1,.44,2.28l0,.32a1.35,1.35,0,0,1,0,.35,3.12,3.12,0,0,1-.05.44,2.78,2.78,0,0,1-.17.51,4.27,4.27,0,0,1-.3.44,3.12,3.12,0,0,1-.41.33,3.19,3.19,0,0,1-.41.21l-.31.12c-.38.13-.58.2-1,.37s-.7.25-.87.34-.05,0-.08.06-.05,0-.05,0,0,0,0,.06,0,0,0,0,0,.06,0,.09a1.2,1.2,0,0,0,0,.25A11.09,11.09,0,0,1,750.67,788.87Z" transform="translate(-602.81 -754.74)"/><path class="eba472b2-ec2a-4cd5-acf1-405e8514d2be" d="M740.37,769.13s0,0-.06.08-.16.1-.29.19a3.47,3.47,0,0,0-.4.25.78.78,0,0,1-.53.15.82.82,0,0,1-.37-.19,1.7,1.7,0,0,1-.35-.48.83.83,0,0,1-.06-.23,7.37,7.37,0,0,1,.18-.95,2.57,2.57,0,0,0,.06-.35l0-.16v-.2l0-.78v-.19c0-.06,0,0,0,0l-.88-.27c-.59-.17-1.24-.33-1.85-.5l-.47-.12-.39-.12s0,0,0,0l-.07.07a.94.94,0,0,1-.1.1c-.07.11-.14.19-.21.31s-.3.5-.46.78a6.74,6.74,0,0,1-.52.81,5.62,5.62,0,0,1-.41.44,2.37,2.37,0,0,1-.65.4,2.3,2.3,0,0,1-.75.16,2.72,2.72,0,0,1-.3,0,2,2,0,0,1-.27,0l-.77-.1h-.17l-.27,0-.31,0a2.71,2.71,0,0,1-1-.48,2.51,2.51,0,0,1-.44-.5,6,6,0,0,1-.48-.82l-.17-.31-.23-.4-.34-.66s0,0,0,0h-.4c-.3.05-.59.08-.85.1a11.26,11.26,0,0,0-1.48.23,2,2,0,0,0-.53.19l-.1.05a1.26,1.26,0,0,0-.05.38,6.66,6.66,0,0,0,.08.67,8.34,8.34,0,0,1,.19,1.87,2.26,2.26,0,0,1,0,.33l-.12.39a2,2,0,0,1-.18.36,1.53,1.53,0,0,0-.27.3c-.07.11-.22.18-.28.24l-.21.14-.39.24c-.25.15-.51.29-.77.42l-.41.2c-.14.07-.28.12-.49.2a1.59,1.59,0,0,1-.39.09,1,1,0,0,1-.39,0l-.4-.08a1.54,1.54,0,0,1-.33-.12,4.07,4.07,0,0,1-.47-.24l-.4-.24c-.49-.33-1-.68-1.36-1l-.3-.19-.1-.06h0l0,0a3.17,3.17,0,0,0-.49.34c-.19.15-.39.32-.59.5l-.78.68-.18.15-.1.1h0l0,.09.08.14.5.91c.21.35.41.76.6,1.16a4,4,0,0,1,.39,1.63,2.74,2.74,0,0,1-.25,1c-.13.28-.21.41-.3.59l-.13.24-.11.24-.23.56-.14.31-.13.25a1,1,0,0,1-.16.24,2.35,2.35,0,0,1-.4.43,2.55,2.55,0,0,1-.54.22,3.81,3.81,0,0,1-.59.07h-.43l-.7-.11c-.44-.08-.84-.18-1.23-.27l-.27-.06-.32-.07-.2,0h0l-.09.36-.13.59c0,.11-.05.22-.09.36l-.08.27-.13.44-.09.33-.1.33-.06.29,0,.08h0s0,0,0,0v0s0,0,0,0l.19.09a9.84,9.84,0,0,1,1.78,1h0a2.69,2.69,0,0,1,.95,1.12,1.62,1.62,0,0,1,.1.83,4.32,4.32,0,0,1-.14.57c0,.1-.06.21-.08.3l0,.15V786a.24.24,0,0,0,0,.08c-.07.2-.12.39-.18.53l-.28.67c-.13.32-.23.43-.33.33a1.43,1.43,0,0,1-.2-.88l0-.68a7.58,7.58,0,0,1,0-.83s0,0,0-.12a1.06,1.06,0,0,0,0-.31c0-.09,0-.12-.13-.2l-.07-.07-.12-.08-.12-.08-.17-.09h0a9.29,9.29,0,0,0-1.4-.56l-2.11-.63c.11-.55.17-.88.17-.88l.25-1.15c.06-.25.12-.45.18-.66l.1-.35.17-.6c0-.12.08-.3.12-.49l.14-.61,0-.17.08-.26a3.29,3.29,0,0,1,.21-.55,1.77,1.77,0,0,1,.3-.45,2.17,2.17,0,0,1,.42-.31,1.84,1.84,0,0,1,1.07,0l.29.07.25.07.21,0,.62.14c.38.1.75.18,1.09.24l.48.06H713l.16-.35.24-.55a2,2,0,0,1,.16-.34l.14-.26a2,2,0,0,0,.28-.63,3.09,3.09,0,0,0-.22-.71c-.16-.32-.31-.63-.51-1l-.51-.92a3.15,3.15,0,0,1-.16-.32l-.08-.17a1.44,1.44,0,0,1-.07-.22,2.75,2.75,0,0,1-.09-.5c0-.17,0-.35,0-.51a2.43,2.43,0,0,1,.19-.47,2.72,2.72,0,0,1,.3-.41l.26-.27a1.86,1.86,0,0,1,.22-.19l.79-.69c.2-.18.42-.37.66-.56a6.1,6.1,0,0,1,.86-.57,2,2,0,0,1,1.53-.18,1.73,1.73,0,0,1,.37.16l.26.16a4.05,4.05,0,0,1,.38.25c.49.35.89.65,1.31.92l.3.19.26.14,0,0h0c.63-.22,2.15-1.13,1.74-1a7.43,7.43,0,0,0-.18-1.37,6.91,6.91,0,0,1-.1-1,3,3,0,0,1,.21-1.23,2.2,2.2,0,0,1,1-1.09,4.41,4.41,0,0,1,1-.36,12.06,12.06,0,0,1,1.76-.28c.27,0,.53-.05.77-.09l.24,0,.28,0a2.77,2.77,0,0,1,.71.06,1,1,0,0,1,.37.13,1.58,1.58,0,0,1,.36.2,2.54,2.54,0,0,1,.29.28l.21.31a1.07,1.07,0,0,1,.15.25l.11.21.16.33.18.3.23.42a6,6,0,0,0,.34.59c0,.08.07.07.09.11s0,0,.06,0l.05,0h.23l.24,0c.33,0,.62.09.85.11l.14,0h.15s0,0,0,0,0,0,.05,0A1.77,1.77,0,0,1,732,766a4.6,4.6,0,0,0,.36-.56c.15-.27.31-.56.51-.87a4,4,0,0,1,.83-1,2.22,2.22,0,0,1,.82-.43,2,2,0,0,1,.94,0l.31.09.21.06.46.13c.61.16,1.2.31,1.83.49l1,.29.88.26.45.13a1.13,1.13,0,0,1,.22.08v.21l0,1.53-.05.94,0,.23,0,.27a4.84,4.84,0,0,1-.09.49C740.45,768.7,740.4,768.94,740.37,769.13Z" transform="translate(-602.81 -754.74)"/><path class="eba472b2-ec2a-4cd5-acf1-405e8514d2be" d="M757.27,757.15a.24.24,0,0,1-.09-.18,2.22,2.22,0,0,1,.07-1.43c.23-.47.74-.85,1.82-.79a.77.77,0,0,1,.27.07c.69.58,1.31,1.23,2,1.86l.91,1c.31.33.61.67.89,1a39.79,39.79,0,0,1,5.93,9.65,48.23,48.23,0,0,1,3.24,10.79c.35,1.84.56,3.7.73,5.56s.2,3.74.18,5.61-.13,3.73-.31,5.58l-.2,1.68c0,.52-.14,1-.22,1.54,0,0-.06.3-.17.8s-.3,1.19-.53,2a40.27,40.27,0,0,1-1.82,5.09,13.8,13.8,0,0,1-1.34,2.59c-.32.45-.51.53-.61.34a10.49,10.49,0,0,1,.33-3.51c-.08.16.35-1.86.65-3.93s.48-4.2.48-4.2c.08-.48.14-1,.19-1.45l.09-.72,0-.48.06-.65c.17-1.74.23-3.48.25-5.23a56.47,56.47,0,0,0-.93-10.39,40.49,40.49,0,0,0-8.44-18.64q-.39-.48-.81-.93l-.84-.91C758.47,758.28,757.9,757.68,757.27,757.15Z" transform="translate(-602.81 -754.74)"/><path class="eba472b2-ec2a-4cd5-acf1-405e8514d2be" d="M762.53,802.46s0,0,0-.11a6.13,6.13,0,0,0-.11-1.19,1.09,1.09,0,0,1,.12-.83,1.56,1.56,0,0,1,1.4-.53,1.5,1.5,0,0,1,.39.09,6.1,6.1,0,0,1,1.24,1.17,9.58,9.58,0,0,1,.88,1.22,18.52,18.52,0,0,1,1.3,2.49,28.89,28.89,0,0,1,1.73,5.36l.15.75h0a.21.21,0,0,0,0,.08s0,0,0,0h.08l.06,0,.13-.06.27-.11c.73-.32,1.56-.66,2.4-1s1.73-.69,2.52-1c5.31-2.08,3.58-.38.71,1.58.16-.05-1.56,1-3.42,2.18l-1.36.84-2.28,1.31-1.73,1s-.07.05-.06,0v-.23l0-.23,0-.2-.09-1.34,0-.66-.07-.64a6.17,6.17,0,0,0-.08-.62l-.08-.51-.12-.57a25.34,25.34,0,0,0-1.54-4.75,14.71,14.71,0,0,0-1.09-2.09A5.39,5.39,0,0,0,762.53,802.46Z" transform="translate(-602.81 -754.74)"/><path class="eba472b2-ec2a-4cd5-acf1-405e8514d2be" d="M704.66,878.18s0,0,.09,0a2,2,0,0,1,1,1.76s0,.1,0,.12l-1.33.75-1.32.75-1.55.78-1.54.77-1.38.6-1.35.58a5.59,5.59,0,0,1-.9.19,16,16,0,0,1-1.74.18c-1.84.15-1.28-.56-.35-1.17-.11,0,2.3-1.22,2.28-1.28l1.27-.55,1.31-.58,1.47-.74,1.47-.74,1.26-.72Z" transform="translate(-602.81 -754.74)"/><path class="eba472b2-ec2a-4cd5-acf1-405e8514d2be" d="M683.62,886.07s.07,0,.15,0a1.15,1.15,0,0,1,.3,2,.62.62,0,0,1-.16.1c-1.23.14-2.45.31-3.68.41l-1.46.1-2.06.14s-.85,0-2-.11l-1.87-.14c-.65-.06-1.3-.18-1.89-.28-4-.6-2.33-1,.11-1.21-.13,0,1.34,0,2.83-.2l2.06-.17c.57,0,.94-.1.94-.1l1.72-.12,1.43-.1C681.23,886.37,682.43,886.2,683.62,886.07Z" transform="translate(-602.81 -754.74)"/><path class="eba472b2-ec2a-4cd5-acf1-405e8514d2be" d="M657.59,883.39s.06,0,.11.1c.36.45.77,1.43-.63,2a.5.5,0,0,1-.19,0l-3.46-1.17-1.69-.58-1.93-.65s-3.1-1.29-5.22-2.36c-3.62-1.72-2-1.67.47-1.13-.23-.13,5.73,1.5,5.73,1.5l1.65.56,1.7.57Z" transform="translate(-602.81 -754.74)"/><path class="eba472b2-ec2a-4cd5-acf1-405e8514d2be" d="M636.17,871.53s0,0,0,.09a1.87,1.87,0,0,1-1.38,1.52.25.25,0,0,1-.12,0s-.5-.45-1.18-1.09l-1.17-1.1-1.3-1.3-1.26-1.35-1.06-1.22-1-1.26-.14-.24c-.08-.16-.17-.39-.29-.65a9.14,9.14,0,0,1-.61-1.76c-.52-1.92.31-1.42,1.07-.57,0-.09,1.77,2.07,1.82,2l.24.31c.16.2.36.5.65.83l1,1.13,1.19,1.26,1.24,1.23,1.13,1.06Z" transform="translate(-602.81 -754.74)"/><path class="eba472b2-ec2a-4cd5-acf1-405e8514d2be" d="M622.61,849.58a.2.2,0,0,1,0,.15c-.14.56-.67,1.49-1.94.7a.92.92,0,0,1-.14-.14c-.39-1.16-.8-2.31-1.17-3.48l-.31-1-.6-2,0-.15a3,3,0,0,1-.09-.41c-.05-.35-.14-.84-.23-1.42s-.19-1.19-.29-1.86-.1-1.32-.13-1.91c-.24-4,.53-2.49,1.21-.15,0-.13.31,1.3.81,2.71.23.71.45,1.42.63,2,.08.27.16.49.22.65l.09.25.51,1.65.31,1C621.81,847.28,622.22,848.43,622.61,849.58Z" transform="translate(-602.81 -754.74)"/><path class="eba472b2-ec2a-4cd5-acf1-405e8514d2be" d="M617.73,827.15s0,0-.07,0a2.24,2.24,0,0,1-2-.61s-.07-.06-.07-.08.15-.45.28-1.14c.05-.35.13-.74.19-1.18s.09-.92.13-1.4c.07-1,.12-1.93.15-2.67s.07-1.24.07-1.24.07-.32.21-.76a8.54,8.54,0,0,1,.55-1.41c.69-1.47,1.07-.72,1.2.19a8.33,8.33,0,0,1,.12,1.08c0,.56.1,1.14.1,1.14s0,.48-.06,1.2-.08,1.7-.15,2.69c0,.5-.1,1-.14,1.48s-.15.93-.21,1.32a8.92,8.92,0,0,1-.23,1C617.77,827,617.73,827.13,617.73,827.15Z" transform="translate(-602.81 -754.74)"/><path class="eba472b2-ec2a-4cd5-acf1-405e8514d2be" d="M626.05,823.15a.16.16,0,0,1,0,.15,1.15,1.15,0,0,1-1.89.82A.42.42,0,0,1,624,824c-.44-1.16-.89-2.32-1.31-3.49-.69-2.17-1.38-4.34-2-6.49l-.49-1.61-.53-1.58-.35-1h0l-1.6,1.54c-.81.79-1.63,1.58-2.48,2.35s-1.72,1.53-2.63,2.25l-.49.38-.44.34-.9.65-.51.28c-.32.18-.76.43-1.3.68a17.25,17.25,0,0,1-3.63,1.31,8,8,0,0,1-2.06.32c-.39,0-.51-.08-.44-.21A8.33,8.33,0,0,1,605,818.4c-.13,0,1.17-.58,2.4-1.36.61-.41,1.22-.81,1.66-1.16s.73-.56.73-.56c.27-.2.55-.39.82-.6l1-.76c.83-.68,1.65-1.39,2.46-2.14s1.59-1.5,2.39-2.27l3.4-3.27.3-.29.15-.14,0,0,0,0,0,.1.27.79.54,1.56.67,2c.17.53.37,1.06.53,1.59l.49,1.6c.64,2.14,1.3,4.23,2,6.33C625.2,820.93,625.63,822,626.05,823.15Z" transform="translate(-602.81 -754.74)"/><path class="eba472b2-ec2a-4cd5-acf1-405e8514d2be" d="M695.49,797.92a.12.12,0,0,1,0-.07c-.05-.27,0-.7.71-.59l.08,0,.51.59.57.56c1.44,1.38,3,2.66,4.6,3.92l.71.57s1.12,1,1.86,1.77c1.28,1.27.58,1-.37.41.08.09-2.2-1.49-2.2-1.49l-.62-.48c-1.59-1.28-3.17-2.56-4.66-4l-.6-.59Z" transform="translate(-602.81 -754.74)"/><path class="eba472b2-ec2a-4cd5-acf1-405e8514d2be" d="M697.6,796.17s0,0,0,0a.94.94,0,0,0-.23-.3.36.36,0,0,1-.11-.23.46.46,0,0,1,.28-.39.25.25,0,0,1,.12,0,2.27,2.27,0,0,1,1,.34,6.58,6.58,0,0,1,.72.51,20.87,20.87,0,0,1,2.25,2.15l.62.68s.93,1.19,1.51,2.08c.52.73.64,1,.5,1a2.49,2.49,0,0,1-.93-.65c0,.05-.44-.42-.92-.9l-1-1-.53-.57a20.6,20.6,0,0,0-2.14-2.05,5.68,5.68,0,0,0-.61-.43A1.54,1.54,0,0,0,697.6,796.17Z" transform="translate(-602.81 -754.74)"/><path class="eba472b2-ec2a-4cd5-acf1-405e8514d2be" d="M694.5,799.78s0,0,0-.06c-.07-.25,0-.72.64-.67l.08,0,1.19,1.1c.55.54,1.17,1,1.76,1.51s1.19,1,1.81,1.47l.72.56.65.59c.37.35.85.78,1.22,1.16,1.29,1.25.59,1-.36.41,0,0-.52-.32-1.08-.69l-1.14-.77-.62-.49c-.62-.47-1.23-1-1.83-1.48s-1.22-1-1.79-1.54Z" transform="translate(-602.81 -754.74)"/><path class="eba472b2-ec2a-4cd5-acf1-405e8514d2be" d="M692.07,801.24s0,0,0-.06c-.09-.24-.13-.73.53-.75a.15.15,0,0,1,.09,0l1.29,1c3.65,2.79,6.9,6,10.39,8.88.88.72,1.74,1.47,2.63,2.16s1.8,1.36,2.72,2,1.84,1.34,2.75,2l.86.7.19.18a5,5,0,0,1,.45.46,11.68,11.68,0,0,1,1.11,1.3c1.08,1.46.41,1.06-.42.35,0,0-.1-.07-.27-.23l-.71-.57c-.51-.42-1.07-.81-1.07-.81l-.36-.3-.19-.15,0,0-.14-.11-.33-.25c-.87-.68-1.78-1.32-2.69-2s-1.82-1.32-2.7-2-1.73-1.43-2.6-2.15c-3.46-2.87-6.66-6-10.18-8.71Z" transform="translate(-602.81 -754.74)"/><path class="eba472b2-ec2a-4cd5-acf1-405e8514d2be" d="M709,812.13s0,0-.05,0a.52.52,0,0,1,.29-.88h.09a9,9,0,0,1,1.56.75,24.41,24.41,0,0,1,3.73,2.92l.67.62s1,1.11,1.71,1.91c1.22,1.31.55,1-.38.39a11.49,11.49,0,0,1-1-.79l-1.06-.87-.57-.53a23.71,23.71,0,0,0-3.58-2.8A8,8,0,0,0,709,812.13Z" transform="translate(-602.81 -754.74)"/><path class="eba472b2-ec2a-4cd5-acf1-405e8514d2be" d="M710.66,810.66a.07.07,0,0,1,0,0c-.11-.24-.21-.72.45-.81h.09c.47.3,1,.58,1.41.9l.35.25.76.54.19.16.47.44a16.86,16.86,0,0,1,1.19,1.2c1.24,1.32.54,1-.37.4,0,0-.5-.35-1-.73l-.77-.53-.36-.23-.62-.45-.34-.24C711.58,811.21,711.11,811,710.66,810.66Z" transform="translate(-602.81 -754.74)"/><path class="eba472b2-ec2a-4cd5-acf1-405e8514d2be" d="M676.38,792.83s0,0,0-.06c-.1-.24-.16-.72.5-.77h.09l1.34,1c6.21,4.32,11.87,9.32,17.59,14.2,2.85,2.45,5.73,4.86,8.68,7.16l2.25,1.69c.75.56,1.48,1.15,2.27,1.65l1,.67s1.18.92,2,1.63c1.37,1.18.67,1-.32.44.08.09-2.32-1.32-2.32-1.32l-1.45-1c-1.5-1.1-3-2.23-4.45-3.35s-2.88-2.33-4.32-3.5-2.83-2.39-4.24-3.59c-5.62-4.8-11.18-9.69-17.22-13.89Z" transform="translate(-602.81 -754.74)"/><path class="eba472b2-ec2a-4cd5-acf1-405e8514d2be" d="M681,792.12s0,0,0-.06c0-.26,0-.72.68-.63a.16.16,0,0,1,.08,0l.55.58.58.54c.66.61,1.36,1.17,2.07,1.73l.72.55s1.14,1,1.88,1.76c1.27,1.3.56,1-.36.41,0,0-.51-.32-1.07-.7l-1.15-.76-.62-.48c-.73-.57-1.45-1.15-2.14-1.78l-.61-.57Z" transform="translate(-602.81 -754.74)"/><path class="eba472b2-ec2a-4cd5-acf1-405e8514d2be" d="M676.11,796.16s0,0-.05-.06c-.11-.22-.23-.7.43-.82h.09c.48.27,1,.53,1.44.82a52.77,52.77,0,0,1,4.63,3.19c1.48,1.15,2.91,2.35,4.31,3.59,2.79,2.46,5.47,5,8.23,7.51,1.37,1.24,2.76,2.45,4.21,3.61.72.58,1.45,1.13,2.18,1.7s1.5,1.07,2.27,1.58c1.53,1,3.1,2.05,4.6,3.18l1,.73.65.63.59.61a8.33,8.33,0,0,1,.54.67c1.14,1.41.45,1-.4.36,0,.06-.44-.4-1-.78l-.75-.54c-.2-.16-.34-.25-.34-.25l-1.37-1c-1.47-1-3-2-4.51-3.08a79.31,79.31,0,0,1-8.58-6.91c-2.72-2.45-5.35-5-8.08-7.38q-2.05-1.8-4.19-3.47a52.15,52.15,0,0,0-4.47-3.08C677.05,796.68,676.58,796.42,676.11,796.16Z" transform="translate(-602.81 -754.74)"/><path class="eba472b2-ec2a-4cd5-acf1-405e8514d2be" d="M675.31,798.17s0,0,0-.06c-.07-.25-.07-.72.61-.7l.08,0,1.24,1.06c7.19,6.26,14.85,12,22.43,17.78,1.89,1.46,3.8,2.89,5.66,4.39s3.76,3,5.58,4.52,3.69,3,5.43,4.69l1,.87s1,1.09,1.72,1.91c1.18,1.36.5,1-.4.37.07.09-2.08-1.64-2.08-1.64L715,830c-.86-.8-1.76-1.54-2.66-2.3l-2.68-2.26c-3.62-3-7.32-5.86-11-8.72-7.45-5.71-15-11.33-22.1-17.51Z" transform="translate(-602.81 -754.74)"/><path class="eba472b2-ec2a-4cd5-acf1-405e8514d2be" d="M672.2,798.87s0,0,0-.06c-.07-.25-.06-.72.61-.69l.09,0,1.22,1.09,5.78,5.12c1.94,1.69,3.94,3.32,5.9,5l3,2.48,3,2.41c2,1.6,4,3.23,6,4.8l6.14,4.71c1,.78,2,1.58,3.07,2.31s2.12,1.44,3.19,2.16a51.81,51.81,0,0,1,6.24,4.68l.45.41.18.17.34.36.17.2a4.08,4.08,0,0,1,.39.52,8.49,8.49,0,0,1,.48.7l.42.77c.72,1.7.15,1.11-.48.27,0,.06-.37-.46-.82-.94-.24-.23-.46-.48-.65-.65l-.31-.28-.32-.33a1.29,1.29,0,0,0-.17-.16l-.31-.29c-.23-.21-.46-.42-.7-.62a66,66,0,0,0-6.1-4.43c-1-.7-2.11-1.4-3.15-2.16s-2-1.54-3-2.31l-6-4.63-6-4.74-3-2.37-2.92-2.45c-1.94-1.64-3.91-3.24-5.82-4.91l-5.69-5Z" transform="translate(-602.81 -754.74)"/><path class="eba472b2-ec2a-4cd5-acf1-405e8514d2be" d="M662.84,795.8l-.05,0a.52.52,0,0,1,.4-.84h.09l1.46.81c5.21,3.15,9.36,7.54,14,11.21,2.3,1.85,4.8,3.54,7.13,5.4s4.68,3.71,7,5.63c4.52,3.94,9,7.81,13.64,11.54,2.34,1.84,4.68,3.69,7,5.52l1.1.85s1.12,1,1.86,1.76c1.29,1.26.59,1-.36.41.08.09-2.21-1.48-2.21-1.48l-1.82-1.41c-2.31-1.81-4.63-3.61-6.91-5.45s-4.57-3.69-6.78-5.63l-6.64-5.75-3.4-2.78c-1.13-.92-2.3-1.8-3.45-2.7-2.3-1.83-4.71-3.45-7-5.32-4.59-3.69-8.69-8-13.64-10.95Z" transform="translate(-602.81 -754.74)"/><path class="eba472b2-ec2a-4cd5-acf1-405e8514d2be" d="M660.4,796.63s0,0,0-.06c0-.26,0-.72.67-.64l.08,0,1.13,1.17a106.81,106.81,0,0,0,11.55,10.1l3.09,2.29,3.14,2.22c1.06.73,2.13,1.43,3.19,2.15l.53.35.4.26s1.21.9,2,1.6c1.39,1.14.68.94-.32.44.08.08-2.34-1.28-2.34-1.28l-.4-.26-.8-.54c-1-.71-2.11-1.4-3.15-2.13l-3.1-2.2-3-2.28a104.92,104.92,0,0,1-11.46-10Z" transform="translate(-602.81 -754.74)"/><path class="eba472b2-ec2a-4cd5-acf1-405e8514d2be" d="M657.81,799.14s0,0,0,0c-.1-.24-.18-.72.48-.79h.09c.46.31.93.61,1.38.93,3.14,2.27,5.84,5,8.82,7.3,1.49,1.18,3,2.3,4.57,3.4.77.55,1.55,1.11,2.32,1.68l.85.66.19.17c.12.11.28.26.46.45a13.94,13.94,0,0,1,1.16,1.25c1.16,1.39.47,1-.4.37,0,.05-.47-.37-1-.76s-1.1-.78-1.1-.78l-.37-.29-.19-.14-.16-.13-.28-.21c-.75-.55-1.51-1.09-2.27-1.63L670,808.92c-.75-.56-1.49-1.15-2.23-1.73-3-2.33-5.64-5-8.64-7.14C658.71,799.73,658.25,799.45,657.81,799.14Z" transform="translate(-602.81 -754.74)"/><path class="eba472b2-ec2a-4cd5-acf1-405e8514d2be" d="M658.3,803.29s0,0,0,0c-.12-.23-.21-.71.45-.81h.08l1.42.86a77.78,77.78,0,0,1,7,5.07c1.11.92,2.23,1.82,3.31,2.77.54.48,1.09.94,1.62,1.42l.76.69s1.06,1.08,1.72,1.91c1.18,1.37.5,1-.39.38,0,.05-.49-.37-1-.79l-1.07-.86-.86-.76-1.58-1.38c-1.06-.93-2.14-1.81-3.23-2.7a73.56,73.56,0,0,0-6.79-4.91Z" transform="translate(-602.81 -754.74)"/><path class="eba472b2-ec2a-4cd5-acf1-405e8514d2be" d="M658.21,806.51a.07.07,0,0,1,0,0c-.1-.24-.16-.71.51-.77h.09l1.35.92c1.81,1.22,3.63,2.42,5.42,3.69.89.63,1.78,1.28,2.65,1.94l1.3,1,.12.1.1.07.18.16.37.32.63.63a13.86,13.86,0,0,1,1.12,1.28c1.15,1.4.46,1-.41.37,0,0-.46-.38-1-.79l-1.08-.82-.36-.31a5.68,5.68,0,0,0-.45-.36l-1.26-1c-.85-.63-1.7-1.27-2.58-1.88-1.74-1.23-3.53-2.41-5.31-3.61Z" transform="translate(-602.81 -754.74)"/><path class="eba472b2-ec2a-4cd5-acf1-405e8514d2be" d="M655.76,808.22s0,0,0-.06c-.08-.24-.08-.71.6-.7a.13.13,0,0,1,.08,0l1.25,1c1.86,1.49,3.81,2.87,5.77,4.26,1,.71,2,1.4,2.92,2.13.48.37,1,.73,1.44,1.11l.78.65.64.63a15.54,15.54,0,0,1,1.12,1.28c1.16,1.38.47,1-.4.37,0,0-.48-.37-1-.8l-1.1-.8-.83-.69-1.39-1.07c-.94-.71-1.9-1.39-2.86-2.07-1.92-1.36-3.86-2.74-5.72-4.23Z" transform="translate(-602.81 -754.74)"/><path class="eba472b2-ec2a-4cd5-acf1-405e8514d2be" d="M648.88,807s0,0,0-.06c-.08-.25-.08-.72.59-.71l.08,0c.42.34.83.69,1.26,1,2.72,2.12,5.63,4,8.49,6,1.44,1,2.87,2,4.26,3.05.7.54,1.4,1.07,2.06,1.65l.44.37c.13.1.25.21.37.32l.61.66a13.91,13.91,0,0,1,1,1.35c1,1.54.34,1.09-.43.34l-.94-.85-1-.85c-.11-.11-.24-.2-.35-.31l-.57-.48c-.65-.53-1.32-1.06-2-1.57-1.35-1-2.75-2-4.16-3-2.81-2-5.68-3.82-8.4-5.94C649.73,807.73,649.31,807.36,648.88,807Z" transform="translate(-602.81 -754.74)"/><path class="eba472b2-ec2a-4cd5-acf1-405e8514d2be" d="M647,809.54s0,0,0,0a.9.9,0,0,1-.14-.42c0-.16.07-.35.43-.46h.1a8.58,8.58,0,0,1,1.53.83c2.9,2,5.38,4.34,8.05,6.42,1.36,1,2.68,2.1,4.09,3.07.69.49,1.38,1,2.08,1.51l.84.62.2.17a5.15,5.15,0,0,1,.47.43c.37.36.82.82,1.18,1.22,1.24,1.31.53,1-.38.39,0,.05-.5-.34-1-.73-.27-.2-.54-.4-.76-.54l-.36-.23-1-.72-2-1.47c-1.38-1-2.7-2-4-3-2.66-2.1-5.12-4.42-7.85-6.27A8.38,8.38,0,0,0,647,809.54Z" transform="translate(-602.81 -754.74)"/><path class="eba472b2-ec2a-4cd5-acf1-405e8514d2be" d="M644.06,811.58s0,0,0-.06c-.08-.25-.08-.71.6-.71l.08,0,1.26,1c2.85,2.3,5.93,4.34,9,6.39,1.53,1,3.07,2.07,4.57,3.17.76.53,1.49,1.12,2.22,1.7l.84.66a6.08,6.08,0,0,1,.63.63c.36.37.79.85,1.14,1.26,1.19,1.36.49,1-.4.38.06.09-2.06-1.64-2.1-1.59l-1-.77-1.06-.84-1.1-.79c-1.45-1.07-3-2.08-4.46-3.09-3-2-6.07-4-8.92-6.34Z" transform="translate(-602.81 -754.74)"/><path class="eba472b2-ec2a-4cd5-acf1-405e8514d2be" d="M694.51,825.28a.1.1,0,0,1,0-.06c-.08-.24-.08-.71.6-.7l.09,0,1.24,1.05,1.88,1.59c.62.53,1.25,1.05,1.91,1.55l3.88,3,4,2.87c.66.48,1.33.95,2,1.4l.86.58s1.18.92,2,1.64c1.37,1.17.66,1-.33.43.09.09-2.3-1.33-2.3-1.33l-1-.67c-.68-.45-1.34-.92-2-1.39l-3.95-2.84-3.84-3c-.65-.49-1.27-1-1.89-1.54l-1.86-1.57Z" transform="translate(-602.81 -754.74)"/><path class="eba472b2-ec2a-4cd5-acf1-405e8514d2be" d="M694.31,829.37s0,0,0-.06c-.08-.25-.07-.72.61-.7l.08,0,1.23,1a75.07,75.07,0,0,0,6.95,4.94c1.19.78,2.41,1.54,3.59,2.36.6.4,1.2.79,1.78,1.22l.84.61.67.58c.38.36.83.82,1.2,1.21,1.25,1.3.54,1-.38.4,0,0-.5-.34-1.05-.73-.26-.2-.56-.37-.77-.51l-.36-.23-.92-.67c-.56-.42-1.16-.79-1.74-1.19-1.15-.79-2.35-1.53-3.52-2.31a73.62,73.62,0,0,1-6.92-4.92Z" transform="translate(-602.81 -754.74)"/><path class="eba472b2-ec2a-4cd5-acf1-405e8514d2be" d="M695.66,835s0,0,0,0c-.13-.22-.26-.69.39-.84h.09l1.47.76a85.49,85.49,0,0,1,8.22,5.06c1.29,1,2.61,1.89,3.85,2.92l.94.75c.31.26.61.53.91.8l.79.69.62.64c.33.4.75.89,1.07,1.32,1.12,1.41.45,1.05-.41.36,0,.05-.47-.38-1-.82-.24-.23-.52-.43-.72-.59l-.34-.27-.88-.78c-.57-.53-1.2-1-1.81-1.49-1.2-1-2.48-1.89-3.74-2.81a79.83,79.83,0,0,0-8-4.91Z" transform="translate(-602.81 -754.74)"/><path class="eba472b2-ec2a-4cd5-acf1-405e8514d2be" d="M693.92,837.07a.13.13,0,0,1,0-.06c-.09-.25-.1-.71.58-.72h.08l1.29,1c2.9,2.22,6,4.14,9.15,6.11l2.32,1.51c.78.49,1.53,1.05,2.29,1.57s1.49,1.11,2.22,1.68l.84.67.19.17a4.28,4.28,0,0,1,.44.47c.35.38.78.87,1.11,1.29,1.16,1.38.47,1-.41.36.07.1-2-1.67-2.06-1.62l-1-.77-1.06-.83-1.1-.77c-1.45-1.06-3-2-4.5-3-3-1.93-6.16-3.83-9.07-6Z" transform="translate(-602.81 -754.74)"/><path class="eba472b2-ec2a-4cd5-acf1-405e8514d2be" d="M693,840.34s0,0,0-.05c-.1-.24-.17-.71.5-.79h.08l1.38.89c3,1.92,5.91,3.85,8.81,5.88,1.43,1,2.87,2.06,4.26,3.16.71.53,1.4,1.1,2.08,1.67l.81.67.18.18a5,5,0,0,1,.45.46c.35.37.78.85,1.12,1.27,1.18,1.36.49,1-.4.37,0,.05-.48-.36-1-.78s-1.08-.83-1.08-.83l-.94-.78-1-.83-1-.78C705.81,849,704.4,848,703,847c-2.83-2-5.73-3.87-8.63-5.76Z" transform="translate(-602.81 -754.74)"/><path class="eba472b2-ec2a-4cd5-acf1-405e8514d2be" d="M691,841.76l0-.06c-.11-.23-.2-.7.46-.8h.09l1.41.84c3,1.83,6,3.73,8.93,5.76,1.43,1,2.88,2.07,4.26,3.2l1,.82,1,.88.8.7.18.18c.11.12.27.27.43.47.34.39.75.89,1.07,1.32,1.13,1.41.45,1-.41.36,0,0-.47-.39-1-.83-.25-.22-.51-.44-.72-.59l-.34-.26-.92-.81c-.64-.57-1.32-1.11-2-1.64-1.33-1.09-2.75-2.08-4.15-3.09-2.83-2-5.76-3.83-8.72-5.62Z" transform="translate(-602.81 -754.74)"/><path class="eba472b2-ec2a-4cd5-acf1-405e8514d2be" d="M689.13,844.2s0,0,0-.06c-.1-.24-.13-.71.54-.74h.09l1.32,1,6,4.38c1,.72,2,1.4,3.06,2.11l2.37,1.61s1.18.93,2,1.65c1.36,1.19.65,1-.33.44.09.08-2.29-1.34-2.29-1.34l-2.43-1.66c-1-.69-2-1.36-3-2.08l-5.92-4.32Z" transform="translate(-602.81 -754.74)"/><path class="eba472b2-ec2a-4cd5-acf1-405e8514d2be" d="M649,819.13s0,0,0-.06c-.08-.24-.08-.71.6-.7h.08l1.27,1,1.43,1.16.72.57c.24.19.5.36.75.54l3,2.1c1,.69,2.08,1.32,3.12,2,.52.32,1,.66,1.57,1l.87.5s1.24.85,2.07,1.51c1.44,1.08.72.91-.3.45.09.08-2.39-1.17-2.39-1.17l-.95-.56-1.55-1c-1-.66-2.08-1.27-3.09-2l-3-2.09c-.51-.34-1-.72-1.46-1.11l-1.43-1.15Z" transform="translate(-602.81 -754.74)"/><path class="eba472b2-ec2a-4cd5-acf1-405e8514d2be" d="M685.46,845.67l-.06,0a.52.52,0,0,1,.2-.9l.09,0,.82.22.8.3a28.8,28.8,0,0,1,6.88,4.34c1,.84,2.07,1.7,3.08,2.58l2.29,2s1.07,1,1.79,1.82c1.28,1.25.6,1-.36.41,0,0-.51-.34-1.07-.74l-1.1-.82-2.35-2q-1.49-1.29-3-2.52a27.46,27.46,0,0,0-6.52-4.1l-.74-.28Z" transform="translate(-602.81 -754.74)"/><path class="eba472b2-ec2a-4cd5-acf1-405e8514d2be" d="M648.22,822.88s0,0,0,0c-.14-.22-.28-.69.37-.84h.08l1.49.75a58.08,58.08,0,0,1,6.93,4.2c.57.38,1.1.8,1.64,1.19l.82.6.41.3.2.15.06.05.1,0,1.75,1,.46.28.42.26s.31.23.71.57a7.5,7.5,0,0,1,1.21,1.24,2.45,2.45,0,0,1,.46.83c0,.18,0,.24,0,.22a10.42,10.42,0,0,1-.82-.69s-.44-.37-1-.72-1.15-.69-1.15-.69l-.4-.24-.55-.34-.85-.49-.43-.25-.22-.12c-.06,0-.14-.07-.26-.17-1.06-.77-2.1-1.57-3.18-2.31l-1.63-1.1-.82-.55-.84-.5c-1.13-.66-2.24-1.37-3.42-1.91Z" transform="translate(-602.81 -754.74)"/><path class="eba472b2-ec2a-4cd5-acf1-405e8514d2be" d="M682.72,846.2a.07.07,0,0,1,0-.05c-.11-.24-.17-.72.49-.79h.08l1.36.92,7.2,4.86,6.07,4.48s1.15,1,1.91,1.72c1.31,1.23.6,1-.36.41.08.09-2.24-1.42-2.24-1.42l-2.64-2c-1.14-.84-2.27-1.7-3.43-2.52l-7-4.75Z" transform="translate(-602.81 -754.74)"/><path class="eba472b2-ec2a-4cd5-acf1-405e8514d2be" d="M648.06,825.64a.07.07,0,0,1,0,0c-.1-.25-.16-.73.5-.78h.09l1.33.95,9.22,6.54,7.63,5.71s1.14,1,1.89,1.73c1.31,1.24.61,1-.35.42.08.09-2.23-1.44-2.23-1.44L658.42,833l-9-6.4Z" transform="translate(-602.81 -754.74)"/><path class="eba472b2-ec2a-4cd5-acf1-405e8514d2be" d="M675.7,846l-.05,0a.52.52,0,0,1,.35-.86h.09l1.5.71a73.13,73.13,0,0,1,11.6,7.44l2.72,2.09,2.69,2.13,3.54,2.81s1.13,1,1.87,1.75c1.29,1.26.59,1-.36.42.08.08-2.22-1.48-2.22-1.48l-3.71-2.94c-1.76-1.4-3.53-2.77-5.31-4.14a71.24,71.24,0,0,0-11.25-7.19Z" transform="translate(-602.81 -754.74)"/><path class="eba472b2-ec2a-4cd5-acf1-405e8514d2be" d="M642.34,825.41s0,0,0-.06c-.09-.24-.13-.71.54-.75h.09l1.32,1,14.62,10.59,7.32,5.3c2.44,1.77,4.86,3.55,7.33,5.27l23.3,16.38s1.17,1,1.95,1.68c1.34,1.2.63,1-.35.43.09.08-2.27-1.37-2.27-1.37l-23.69-16.67c-2.44-1.68-4.81-3.45-7.22-5.18l-7.19-5.21-14.39-10.43Z" transform="translate(-602.81 -754.74)"/><path class="eba472b2-ec2a-4cd5-acf1-405e8514d2be" d="M640.22,827.69s0,0,0-.05a.52.52,0,0,1,.45-.81h.09l1.4.86,1.94,1.18,1,.6.94.63,3.75,2.55,3.66,2.67c1.22.89,2.4,1.83,3.61,2.74,4.78,3.67,9.48,7.45,14.29,11.06l3.64,2.65.91.66.94.62,1.88,1.24,7.61,4.89c2.52,1.66,5,3.34,7.44,5.18l1.12.84s.29.25.65.61.83.81,1.19,1.21c1.25,1.29.55,1-.38.39,0,.05-.5-.33-1-.73l-.76-.54-.36-.24-1.84-1.39c-2.38-1.74-4.83-3.39-7.32-5l-7.47-4.81-1.86-1.23c-.63-.41-1.21-.86-1.82-1.29-1.2-.88-2.42-1.73-3.6-2.64-4.75-3.56-9.35-7.29-14.05-10.88-2.34-1.82-4.73-3.55-7.12-5.29l-3.67-2.49c-.3-.2-.61-.42-.92-.61l-.94-.58-1.89-1.16Z" transform="translate(-602.81 -754.74)"/><path class="eba472b2-ec2a-4cd5-acf1-405e8514d2be" d="M639.75,830.74s0,0,0-.06c-.1-.24-.16-.71.51-.77l.09,0,1.35.92c7.86,5.39,15.71,10.81,23.46,16.38l5.77,4.25c1.91,1.42,3.87,2.79,5.72,4.3l6.62,5.25s1.12,1,1.85,1.78c1.27,1.27.57,1-.37.4.07.09-2.2-1.5-2.2-1.5l-7.07-5.6c-.91-.74-1.85-1.43-2.8-2.12l-2.82-2.08-5.66-4.16-1.42-1-1.44-1-2.87-2-5.76-4c-3.84-2.69-7.71-5.32-11.57-8Z" transform="translate(-602.81 -754.74)"/><path class="eba472b2-ec2a-4cd5-acf1-405e8514d2be" d="M647.54,839.66s0,0,0,0a.51.51,0,0,1,.23-.89l.08,0a6.72,6.72,0,0,1,.83.27c.26.11.53.21.78.34a25.49,25.49,0,0,1,4.64,3.09c1.44,1.14,2.81,2.35,4.2,3.51s2.87,2.18,4.35,3.25l4.45,3.17,4.51,3.1,2.26,1.54c.19.13.38.26.56.4l.55.43c.37.29.72.58,1.07.88,1.4,1.17,2.75,2.39,4.18,3.5l.23.18.05,0,.09.07.19.14.38.28.19.17c.12.1.28.24.48.39l.65.51.33.27c.11.08.23.15.33.23,1.47,1,.78.88-.29.46a1.78,1.78,0,0,1-.35-.14l-.82-.44c-.31-.17-.61-.34-.83-.49l-.37-.24-.39-.28-.19-.14-.05,0-.08-.06-.14-.11-.53-.42c-1.41-1.13-2.75-2.33-4.11-3.47l-1-.83c-.34-.27-.73-.51-1.09-.76L670.61,856c-1.47-1-3-2-4.42-3l-4.39-3.13-2.19-1.57c-.73-.53-1.44-1.1-2.13-1.68-1.39-1.15-2.73-2.33-4.12-3.44a23.68,23.68,0,0,0-4.37-2.9,5,5,0,0,0-.72-.31A4.84,4.84,0,0,0,647.54,839.66Z" transform="translate(-602.81 -754.74)"/><path class="eba472b2-ec2a-4cd5-acf1-405e8514d2be" d="M647.67,842.81s0,0,0,0a.51.51,0,0,1,.37-.84h.09l1.49.76a66.57,66.57,0,0,1,8.41,6.2l2,1.6c.69.5,1.35,1,2.08,1.51l4.29,2.9c1.44,1,2.84,2,4.26,3l2.12,1.5c.7.53,1.37,1.07,2.06,1.6l5,3.91s1.12,1,1.86,1.76c1.28,1.27.59,1-.35.42.08.09-2.22-1.48-2.22-1.48l-5.34-4.15c-1.32-1.07-2.72-2-4.1-3s-2.75-2-4.17-2.92l-4.24-2.85c-.7-.48-1.38-1-2.07-1.53l-2-1.59a65.55,65.55,0,0,0-8.14-6Z" transform="translate(-602.81 -754.74)"/><path class="eba472b2-ec2a-4cd5-acf1-405e8514d2be" d="M644.92,843.87s0,0,0,0c-.14-.2-.32-.66.32-.86a.13.13,0,0,1,.09,0l.78.33.76.37a27.92,27.92,0,0,1,4.66,3.21c1.45,1.19,2.82,2.46,4.2,3.69A44.16,44.16,0,0,0,660,854l2.28,1.58c.75.53,1.55,1,2.32,1.52,1.55,1,3.14,2,4.71,3l2.35,1.52.29.19.18.12.13.11.54.45,1.08.88c1.45,1.17,2.86,2.38,4.31,3.52l.94.75s.27.26.65.59.85.77,1.23,1.15c1.3,1.23.61,1-.35.42,0,0-.52-.32-1.1-.69s-1.14-.77-1.14-.77L677,867.23c-1.43-1.14-2.82-2.33-4.23-3.47l-1.06-.87-.26-.21-.26-.17-.57-.37-2.29-1.48c-1.55-1-3.1-1.93-4.64-2.93s-3-2-4.55-3.08a46.81,46.81,0,0,1-4.28-3.49c-1.37-1.22-2.71-2.45-4.11-3.59a26.12,26.12,0,0,0-4.42-3l-.71-.36C645.41,844.06,645.16,844,644.92,843.87Z" transform="translate(-602.81 -754.74)"/><path class="eba472b2-ec2a-4cd5-acf1-405e8514d2be" d="M643.19,846s0,0,0-.05c-.1-.24-.19-.72.47-.8h.09l1.38.92c.53.33,1,.72,1.5,1.08s1,.74,1.46,1.11l.72.56.66.59c.38.34.85.76,1.23,1.14,1.32,1.22.62,1-.35.42.05,0-.52-.31-1.1-.68l-1.14-.77-.62-.48c-.48-.38-1-.73-1.45-1.1s-1-.74-1.47-1Z" transform="translate(-602.81 -754.74)"/><path class="eba472b2-ec2a-4cd5-acf1-405e8514d2be" d="M656.46,856.45s0,0-.05-.05a.51.51,0,0,1,.33-.86h.09a16.19,16.19,0,0,1,1.52.71,34.36,34.36,0,0,1,4.92,3.21l.72.56s.28.25.65.61.83.81,1.18,1.21c1.23,1.32.54,1-.38.4,0,0-.5-.35-1.05-.74s-1.11-.78-1.11-.78l-.61-.48a33.33,33.33,0,0,0-4.77-3.11A15.65,15.65,0,0,0,656.46,856.45Z" transform="translate(-602.81 -754.74)"/><path class="eba472b2-ec2a-4cd5-acf1-405e8514d2be" d="M672.92,867.49s0,0,0,0a.87.87,0,0,1,.27-.88s0,0,.05,0,.31.09.69.29a9.55,9.55,0,0,1,1.31.78c.45.31.86.67,1.17.93l.49.48a2.84,2.84,0,0,1,.23.36,3.29,3.29,0,0,1,.35.73c.29.81-.1.61-.46.3a11.18,11.18,0,0,0-.87-.74l-.44-.43a12.29,12.29,0,0,0-1.06-.84,7.83,7.83,0,0,0-1.16-.68C673.16,867.56,672.93,867.51,672.92,867.49Z" transform="translate(-602.81 -754.74)"/><path class="eba472b2-ec2a-4cd5-acf1-405e8514d2be" d="M656,859l-.05,0c-.12-.23-.27-.7.38-.85h.08l1.49.76a21.73,21.73,0,0,1,2.14,1.25l1,.67,1,.73.74.54s.3.24.68.59.82.81,1.19,1.2c1.25,1.3.55,1-.38.4,0,.05-.5-.33-1-.72-.27-.21-.55-.39-.77-.53l-.36-.23-.63-.46-1-.71-1-.64a18.85,18.85,0,0,0-2.08-1.22Z" transform="translate(-602.81 -754.74)"/><path class="eba472b2-ec2a-4cd5-acf1-405e8514d2be" d="M655,861.17a.07.07,0,0,1,0,0,.52.52,0,0,1,.44-.81h.09l1.42.9,1.06.78c.24.19.5.37.73.56,0,0,1.12,1,1.84,1.81,1.26,1.28.57,1-.37.4.07.09-2.18-1.51-2.18-1.51-.2-.17-.41-.31-.62-.47l-1-.76Z" transform="translate(-602.81 -754.74)"/><path class="eba472b2-ec2a-4cd5-acf1-405e8514d2be" d="M644.58,850.16s0,0,0,0a.93.93,0,0,1,.09-.92l0,0,.24.05a2.24,2.24,0,0,1,.51.16l.31.12.32.16c.23.11.46.24.68.37.89.51,1.73,1.07,1.73,1.07a9.64,9.64,0,0,1,.79.8c.54.59.17.62-.3.46,0,0-1.07-.47-1.07-.47s-.83-.54-1.66-1l-.62-.33a3,3,0,0,0-.54-.24A2.12,2.12,0,0,0,644.58,850.16Z" transform="translate(-602.81 -754.74)"/></svg>