<svg id="b96b2afe-bd96-42f2-bc44-047e87f80b46" data-name="Objects" xmlns="http://www.w3.org/2000/svg" viewBox="0 0 81.5 63.4">
  <defs>
    <style>
      .ebe0d9d7-fcf4-42ef-9bc7-2cc27173c044 {
        fill: #252525;
      }
    </style>
  </defs>
  <g>
    <path class="ebe0d9d7-fcf4-42ef-9bc7-2cc27173c044" d="M416.8,198h.1c.2.1.4.3.1.7h-.1l-1.1.2h-.6l-.8.2-.8.3a10.7,10.7,0,0,0-6.5,8.7,11.9,11.9,0,0,0,1.3,8,10,10,0,0,0,2.8,3,11.3,11.3,0,0,0,3.9,1.7,12.5,12.5,0,0,0,8.3-1,11.1,11.1,0,0,0,5.2-6.1,17.8,17.8,0,0,0,.7-3.9,15,15,0,0,0-.5-3.7,11.7,11.7,0,0,0-1.5-3.2l-.5-.6a3.4,3.4,0,0,0-.6-.6l-.6-.6-.6-.5a11.6,11.6,0,0,0-2.7-1.4l-1.4-.3h-3.3c-1.4-.1-.9-.3,0-.5h3.3l1.3.3,1.5.5,1.3.8.7.5.6.5a11.3,11.3,0,0,1,3.5,6.2,13.6,13.6,0,0,1-.8,7.9,12.1,12.1,0,0,1-2.4,3.5,10.1,10.1,0,0,1-3.6,2.5,12.3,12.3,0,0,1-4.2,1,17.1,17.1,0,0,1-4.5-.4,12.5,12.5,0,0,1-4-2,10.2,10.2,0,0,1-2.8-3.4,12.6,12.6,0,0,1-1.1-8.5,12,12,0,0,1,3.9-6.9,11.2,11.2,0,0,1,3.3-2l1.7-.5h1.5Z" transform="translate(-377.4 -177.3)"/>
    <path class="ebe0d9d7-fcf4-42ef-9bc7-2cc27173c044" d="M390.1,189.6h.1c.2.1.5.3.1.7h0l-1.2.2-1.7.3a30.3,30.3,0,0,0-5.9,1.6,7.2,7.2,0,0,0-2.4,1.8,4.7,4.7,0,0,0-.9,2.8,17.5,17.5,0,0,0,.4,3.2l.3,1.7.3,1.6c.3,1.1.5,2.2.7,3.3a10.5,10.5,0,0,0,.4,1.7,9.4,9.4,0,0,0,.4,1.6c.5,2.3,1.1,4.5,1.6,6.8s1.2,4.6,1.7,7,.5,2.3.8,3.5l.3,1.8.3,1.8a22.5,22.5,0,0,0,.6,3.6,12,12,0,0,0,1.3,3.3,3.9,3.9,0,0,0,2.8,1.8,14.6,14.6,0,0,0,3.6-.1l14.9-2.9,15.2-2.9,7.6-1.4L439,231l3.8-.8c1.3-.2,2.5-.6,3.8-.9l7.5-1.8a5.9,5.9,0,0,0,3.1-1.7,5.2,5.2,0,0,0,1-3.4,13.7,13.7,0,0,0-.2-1.9l-.4-1.8c-.2-1.3-.4-2.5-.7-3.8s-.5-2.5-.7-3.7-.6-2.5-.8-3.7-1.1-4.9-1.7-7.4-1-4.9-1.5-7.3-1.3-4.7-1.6-7.1a8.5,8.5,0,0,0-.4-1.7,4.9,4.9,0,0,0-.6-1.7,3.8,3.8,0,0,0-1-1.2l-1.4-.8h-3.3c-.1,0,0-.1-.1-.2v-.5a4,4,0,0,0-.7-1.3,1.7,1.7,0,0,0-1.4-.2l-1.7.3-1.7.3-3.4.5-1.6.5-.8.2q-.3.2-.3.3c-.1.2,0,.4,0,.7l.3.8c0,.1.1.5-.1.7l-.3.2h-.2a3.2,3.2,0,0,1-.9.3,11.6,11.6,0,0,1-3.2.8l-1.6.3h-1.4l-.5-.3-.6-.6-.5-.6-1.1-1.2a14.9,14.9,0,0,0-2.1-2.2,1.6,1.6,0,0,0-1.2-.2h-1.6l-3,.5-5.8.9-1.4.2a2.4,2.4,0,0,0-1.1.6,2.6,2.6,0,0,0-.7,1l-.6,1.2a5,5,0,0,1-.5,1.3,6.9,6.9,0,0,1-.5,1.3,6.1,6.1,0,0,0-.5,1.2v.4l-.3.3h-.2l-.7.2-5.1.9-2.6.5h-.7l-2,.2c-1.4.1-.9-.2,0-.5l2-.5h.3l2.2-.5,2.4-.4,2.4-.4,1.2-.2h.5v-.3l.3-.7a1.4,1.4,0,0,1,.2-.6c.2-.3.3-.8.5-1.2a24.4,24.4,0,0,1,1-2.4,5.7,5.7,0,0,1,.8-1.3,3.3,3.3,0,0,1,1.3-.7l.8-.2h.6l1.4-.2,2.8-.5,2.9-.4,2.9-.4a4.2,4.2,0,0,1,1.6-.1,1.1,1.1,0,0,1,.8.3l.4.2.3.3.5.6.5.6,1,1.1,1.1,1.2c.3.3.7.8,1,.9l1.4-.2,1.5-.3,1.6-.3,1.5-.5.6-.2h0v-.2a9.4,9.4,0,0,1-.3-.9,1.9,1.9,0,0,1,.1-1,1.6,1.6,0,0,1,.9-.6l.8-.3,1.6-.4,1.7-.3,1.7-.2,1.6-.3,1.7-.4h.9a1.7,1.7,0,0,1,1,.3,3.3,3.3,0,0,1,1.1,1.6v.3h2.6a4.8,4.8,0,0,1,3,2.2,9.3,9.3,0,0,1,1.2,3.4l.3,1.8a10.5,10.5,0,0,0,.4,1.7c.1.6.3,1.2.4,1.8a8.5,8.5,0,0,1,.4,1.7c.3,1.2.5,2.4.7,3.6l.3,1.8c.1.6.3,1.2.4,1.8l.9,3.5c.5,2.4,1.1,4.8,1.6,7.3s1,4.9,1.5,7.3l.3,1.9a10.6,10.6,0,0,1,.4,1.9,8.7,8.7,0,0,1-.4,3.9,6.6,6.6,0,0,1-1.2,1.7,5.9,5.9,0,0,1-1.7,1,7,7,0,0,1-1.9.6l-1.8.5-7.5,1.7a24.5,24.5,0,0,1-3.7.8l-3.8.8-15,2.8-15,2.9-7.4,1.4-3.6.8-3.8.5h-1.9a5,5,0,0,1-4.3-3.6,38.5,38.5,0,0,1-1.5-7.2c-1.7-9.4-4.6-18.3-6.1-27.1-.3-1.1-.5-2.1-.7-3.2a12.9,12.9,0,0,1-.1-3.4,5.4,5.4,0,0,1,1.7-3,9.7,9.7,0,0,1,2.8-1.6,45.2,45.2,0,0,1,6.1-1.5l.9-.2Z" transform="translate(-377.4 -177.3)"/>
    <path class="ebe0d9d7-fcf4-42ef-9bc7-2cc27173c044" d="M402,200.4h.4c.1.1.1.2.1.5h0l-.2.2a1.5,1.5,0,0,0-.4.6h-.1l-.3.6a19.7,19.7,0,0,0-.7,2.6l-.2.7v2.1a13.8,13.8,0,0,0,.1,2.9c.1,1,.3,2,.5,3l.3,1.5a8.3,8.3,0,0,0,.4,1.5,13.7,13.7,0,0,0,3,5.4A15.6,15.6,0,0,0,410,226a20.1,20.1,0,0,0,6.4,1.6h3.4l3.3-.7,3.1-1.3,2.9-1.8a19.9,19.9,0,0,0,2.7-2.2,12.8,12.8,0,0,0,2-2.6,18.4,18.4,0,0,0,2-6.4,20.8,20.8,0,0,0-.5-6.6,16.5,16.5,0,0,0-2.5-5.9,14.2,14.2,0,0,0-4.4-4.4,19.9,19.9,0,0,0-5.4-2.4,18.5,18.5,0,0,0-5.7-.6h-2.6l-2.5.7a25.6,25.6,0,0,0-4.4,2.1,14.1,14.1,0,0,0-1.8,1.4,2.7,2.7,0,0,0-.8.7h-.1l-.3.2-.2.2-.5.5-.9.9c-.9,1.1-.7.6-.3-.2s.2-.5.5-.9a5.4,5.4,0,0,0,.7-.9l.2-.2h.3l.2-.3.4-.3a19.7,19.7,0,0,1,8.4-4.3,20.3,20.3,0,0,1,11.1.7,17.7,17.7,0,0,1,5.4,2.9,15.1,15.1,0,0,1,4.1,4.9,20.7,20.7,0,0,1,2.2,13,16.2,16.2,0,0,1-2.5,6.4l-.6.7-.5.7-1.3,1.2a23.1,23.1,0,0,1-9.1,4.9,17.9,17.9,0,0,1-6.9.5,20.4,20.4,0,0,1-6.5-1.9,15.4,15.4,0,0,1-5.3-4.1,15.1,15.1,0,0,1-2.9-5.8c-.3-1-.5-2-.7-3s-.3-2-.4-3a7.6,7.6,0,0,1-.1-1.5v-1.5a7.7,7.7,0,0,0,.2-1.5l.3-1.4a14.3,14.3,0,0,1,.9-2.7v-.3h.1a1.8,1.8,0,0,1,.5-.7Z" transform="translate(-377.4 -177.3)"/>
    <path class="ebe0d9d7-fcf4-42ef-9bc7-2cc27173c044" d="M407.4,213.8h-.1c0-.2,0-.6.6-.5h0l.9,1c1.1,1.3,2,2.7,3.1,4l.4.6.4.5.9,1c.9,1,.4.8-.3.3a10.7,10.7,0,0,1-1.6-1.4l-.4-.5c-1.1-1.3-2.1-2.7-3.1-4A3.9,3.9,0,0,1,407.4,213.8Z" transform="translate(-377.4 -177.3)"/>
    <path class="ebe0d9d7-fcf4-42ef-9bc7-2cc27173c044" d="M406.3,209.4h0c0-.2.1-.5.6-.4h.1l.6,1.1.7,1.1.4.5.3.5,1.5,2.1,1.7,2.1.8,1,.5.5,1.2,1.6c.9,1.1.4.9-.3.3l-1.5-1.4-.3-.3-.3-.4-.8-.9-1.6-2.1-1.5-2.1-.4-.5-.3-.5-.7-1.1Z" transform="translate(-377.4 -177.3)"/>
    <path class="ebe0d9d7-fcf4-42ef-9bc7-2cc27173c044" d="M406.9,207.6h0c0-.2,0-.6.5-.5h.1l.8,1c.7,1,1.2,2.1,1.9,3a28.3,28.3,0,0,0,2,2.8c.7.9,1.4,1.9,2.2,2.8l1,1.4.5.7,1,1.6.5.6v.2a1.9,1.9,0,0,1-.8-.5c0,.1-.4-.3-.7-.7a5.4,5.4,0,0,1-.7-.9l-.5-.7-1.1-1.4c-.6-.9-1.4-1.8-2.1-2.7a28.3,28.3,0,0,1-2-2.8c-.7-1-1.2-2-1.9-2.9Z" transform="translate(-377.4 -177.3)"/>
    <path class="ebe0d9d7-fcf4-42ef-9bc7-2cc27173c044" d="M407.3,206h-.1c0-.2.1-.5.6-.4h.1l.8,1a77.7,77.7,0,0,1,5.1,6.6c.9,1.1,1.7,2.3,2.5,3.5s.7,1.2,1.1,1.7l.3.4.2.3.3.6a4.1,4.1,0,0,1,.7,1.1c.9,1.1.4.8-.3.2l-.7-.7-.5-.6-.2-.2-.2-.4-.4-.5-1.1-1.7a34.3,34.3,0,0,0-2.4-3.3,80,80,0,0,0-5-6.5Z" transform="translate(-377.4 -177.3)"/>
    <path class="ebe0d9d7-fcf4-42ef-9bc7-2cc27173c044" d="M408,204.4h0c0-.1.1-.3.2-.3h.5l.8.8a75.1,75.1,0,0,1,5.4,7.2l2.4,3.7,1.3,1.8.4.7.9,1.8c.8,1.2.3.9-.3.2l-.7-.8-.6-.9-.2-.3c0-.1,0-.1-.3-.5l-1.2-1.8-2.5-3.6a70.5,70.5,0,0,0-5.2-7A4.7,4.7,0,0,1,408,204.4Z" transform="translate(-377.4 -177.3)"/>
    <path class="ebe0d9d7-fcf4-42ef-9bc7-2cc27173c044" d="M408.8,203.2h-.1l.3-.4.4.2h.1a2.5,2.5,0,0,0,.7.8l.4.4.4.5.7,1,1.5,1.9,2.8,3.9,2.7,3.9,1.4,2,.4.7.4.5.7,1.1c.7,1.2.2.9-.4.3s-.3-.4-.6-.8a3.2,3.2,0,0,1-.7-.8l-.6-.8-1.4-2c-.8-1.3-1.7-2.5-2.6-3.8l-1.4-1.9a13.3,13.3,0,0,0-1.4-1.9l-1.4-1.9-.7-.9-.4-.4-.4-.4A2.8,2.8,0,0,1,408.8,203.2Z" transform="translate(-377.4 -177.3)"/>
    <path class="ebe0d9d7-fcf4-42ef-9bc7-2cc27173c044" d="M410,202.5h-.1v-.3c0-.1.1-.3.4-.3h.1a4.7,4.7,0,0,1,1,1l1.4,2.1,1.4,2.1,2.8,4.1c.5.7.9,1.4,1.4,2s1,1.4,1.6,2l2.1,2.6,1.2,1.6c.7,1.2.2.9-.4.3a19.2,19.2,0,0,0-1.4-1.5l-2.3-2.7c-1-1.3-2-2.6-2.9-4s-1.9-2.7-2.8-4.1l-1.4-2a23.9,23.9,0,0,0-1.3-2.1C410.5,202.9,410.3,202.6,410,202.5Z" transform="translate(-377.4 -177.3)"/>
    <path class="ebe0d9d7-fcf4-42ef-9bc7-2cc27173c044" d="M410.9,201.1h0c-.1-.2,0-.6.5-.5h.1l.4.4.5.5a45.7,45.7,0,0,1,2.9,4.2l3,4.2,2.9,4.2,1.6,2,.5.6,1.2,1.6c.8,1.2.3.9-.3.3l-1.5-1.5-.7-.8-1.5-2-2.9-4.1c-1-1.4-2-2.7-2.9-4.1a31.7,31.7,0,0,0-2.9-4l-.4-.5Z" transform="translate(-377.4 -177.3)"/>
    <path class="ebe0d9d7-fcf4-42ef-9bc7-2cc27173c044" d="M412.3,200.2h0a.4.4,0,0,1,.4-.6h.1l.9.9c1.1,1.3,2,2.8,3,4.1l2.9,4.1,3,4c.5.7,1,1.4,1.4,2.1l.5.7a13.6,13.6,0,0,1,.9,1.8c.7,1.2.2.9-.3.2l-1.3-1.7-.6-.8a14.3,14.3,0,0,0-1.4-2l-2.9-4-2.9-4a41,41,0,0,0-2.9-4Z" transform="translate(-377.4 -177.3)"/>
    <path class="ebe0d9d7-fcf4-42ef-9bc7-2cc27173c044" d="M413.6,199.2h0a.4.4,0,0,1,.1-.3.4.4,0,0,1,.5,0h0l.8,1,1.5,1.9.8,1,.7.9,2.9,4,2.9,3.9,1.4,2,.5.7,1,1.8c.6,1.2.2.9-.4.2s-1.3-1.6-1.3-1.6l-.6-.9-1.4-1.9-2.8-3.9-2.9-3.9-1.4-1.9-1.5-1.9A3.9,3.9,0,0,1,413.6,199.2Z" transform="translate(-377.4 -177.3)"/>
    <path class="ebe0d9d7-fcf4-42ef-9bc7-2cc27173c044" d="M415.5,199h-.1l.2-.3h.5l.8,1,.6.9.8.8,1.3,1.8,2.7,3.7,2.6,3.6,1.3,1.9.5.7a15.3,15.3,0,0,0,1,1.7c.7,1.2.2.9-.4.3l-.7-.8-.6-.8-.6-.9-1.2-1.8-2.6-3.6-2.6-3.6c-.9-1.2-1.8-2.2-2.8-3.4Z" transform="translate(-377.4 -177.3)"/>
    <path class="ebe0d9d7-fcf4-42ef-9bc7-2cc27173c044" d="M417.1,198.6h0c-.1-.2,0-.5.6-.4h0l.8,1,1.3,1.5,1.2,1.7,2.4,3.3,2.3,3.3,1.2,1.7.2.2h.1l.2.3.3.7.6,1.2c.5,1.3.1.8-.4.1s-.3-.3-.6-.8l-.6-.8-.2-.3-.4-.5-1.1-1.6-2.4-3.3-2.3-3.2-1.1-1.6-1.3-1.5Z" transform="translate(-377.4 -177.3)"/>
    <path class="ebe0d9d7-fcf4-42ef-9bc7-2cc27173c044" d="M419.5,198.8c-.1,0-.1,0,0-.1a.4.4,0,0,1,.1-.3h.6a4.7,4.7,0,0,0,.6.9l1.1,1.2,1,1.3,1.9,2.7,3.1,4.6,1,1.8c.6,1.2.2.9-.4.2l-1.3-1.6-3.1-4.7-1.8-2.6-1-1.2-1-1.2A3.1,3.1,0,0,1,419.5,198.8Z" transform="translate(-377.4 -177.3)"/>
    <path class="ebe0d9d7-fcf4-42ef-9bc7-2cc27173c044" d="M422.1,199.6H422c0-.2.1-.6.6-.4h.1l.7,1.1,4.2,5.8.5.5,1,1.8c.7,1.2.3.8-.3.2l-1.4-1.6-.4-.5-4.2-5.8Z" transform="translate(-377.4 -177.3)"/>
    <path class="ebe0d9d7-fcf4-42ef-9bc7-2cc27173c044" d="M424.4,200.6h0c0-.2.1-.5.6-.4h0l.8,1.1.6.8.4.5,1,1.8c.7,1.2.2.8-.3.2l-1.4-1.6-.4-.5-.5-.8Z" transform="translate(-377.4 -177.3)"/>
    <path class="ebe0d9d7-fcf4-42ef-9bc7-2cc27173c044" d="M385.6,233.9h0c0-.2,0-.3.2-.3h.5a4.7,4.7,0,0,0,.6.9,28.3,28.3,0,0,0,2.4,2.5l.5.5a11.3,11.3,0,0,1,1.4,1.5c.9,1.1.3.8-.3.3l-1.7-1.3-.4-.4a30.7,30.7,0,0,1-2.5-2.6A3.5,3.5,0,0,1,385.6,233.9Z" transform="translate(-377.4 -177.3)"/>
    <path class="ebe0d9d7-fcf4-42ef-9bc7-2cc27173c044" d="M384.9,231.2h0c0-.2,0-.6.5-.5h.1l.9.9,3.4,3.5,1.8,1.7.9.8.5.5a11.3,11.3,0,0,1,1.4,1.5c1,1,.5.8-.3.3l-1.6-1.3-.3-.2-.4-.3-.8-.9-1.8-1.6-3.4-3.5Z" transform="translate(-377.4 -177.3)"/>
    <path class="ebe0d9d7-fcf4-42ef-9bc7-2cc27173c044" d="M384.4,228.5h0c0-.2,0-.6.5-.6h.1l.9.9,4.7,4.7,2.4,2.3,1.2,1.1.6.5.5.5,1,.9c1,1,.4.8-.3.3l-.9-.5-.6-.4-.2-.2-.7-.6-1.3-1.1A25,25,0,0,1,390,234c-1.6-1.5-3.1-3.1-4.6-4.6Z" transform="translate(-377.4 -177.3)"/>
    <path class="ebe0d9d7-fcf4-42ef-9bc7-2cc27173c044" d="M383.6,224.9h0c-.1-.2-.1-.6.5-.6h0l1,.9c2.3,2.2,4.4,4.6,6.6,6.8l1.6,1.7,1.7,1.6,1.8,1.6.6.5h.2l.3.3,1,.9c1,1,.5.8-.3.4l-.8-.6-.7-.4-.2-.2-.8-.6-1.8-1.6q-1.7-1.5-3.3-3.3c-2.2-2.2-4.2-4.5-6.5-6.6Z" transform="translate(-377.4 -177.3)"/>
    <path class="ebe0d9d7-fcf4-42ef-9bc7-2cc27173c044" d="M383,221.4h0c0-.2,0-.5.5-.5h.1l.9,1,7.7,8.1,2,1.9,2.1,1.9,2.2,1.8.3.3.3.2,1.5,1.3c1.1.9.5.8-.2.3l-1.8-1-.9-.7-2.1-1.8-2.1-1.9-1.9-1.9c-2.6-2.6-5.1-5.4-7.7-8Z" transform="translate(-377.4 -177.3)"/>
    <path class="ebe0d9d7-fcf4-42ef-9bc7-2cc27173c044" d="M382.2,217.5h0a.4.4,0,0,1,.4-.6h.1l1,.9c3.6,3.2,6.8,6.7,10.2,10.1l2.5,2.6,2.5,2.5,2.6,2.4.7.6,1.4,1.4c1,1,.5.8-.2.3a17.7,17.7,0,0,1-1.7-1.2l-.3-.3h-.3l-.4-.3-2.6-2.4-2.5-2.5-2.5-2.5a133.5,133.5,0,0,0-10-9.9Z" transform="translate(-377.4 -177.3)"/>
    <path class="ebe0d9d7-fcf4-42ef-9bc7-2cc27173c044" d="M380.9,213.5h0c-.1-.1-.1-.5.4-.5h.1l.9.8,3.4,2.8,1.6,1.5,1.6,1.4c2.1,2,4.2,4,6.2,6.1l6.2,6.1c1,1,1.9,2.1,2.9,3.2l.4.4.3.2.4.5,1,.9c1,.8.5.7-.3.3l-.9-.5-.6-.5-.2-.2-.3-.3-.7-.7-2.9-3.1-6-6-3.1-3-3.1-2.9-1.5-1.4-1.6-1.5-3.2-2.7Z" transform="translate(-377.4 -177.3)"/>
    <path class="ebe0d9d7-fcf4-42ef-9bc7-2cc27173c044" d="M380.1,209.6h0a.4.4,0,0,1,.4-.6h.1l1,.9,3.7,3.4c1.3,1.1,2.6,2.2,3.8,3.4l7.2,7,7.3,7.1,4.3,4.2,1.3,1.5c.9,1.1.4.8-.3.3l-1.6-1.3-4.6-4.5-7.1-7-7.2-6.9-3.7-3.3-3.6-3.3Z" transform="translate(-377.4 -177.3)"/>
    <path class="ebe0d9d7-fcf4-42ef-9bc7-2cc27173c044" d="M379,205.6h0c0-.2,0-.6.5-.5h.1l.9.9,4,4.1,4.2,3.9,8.5,7.7c2.8,2.7,5.7,5.2,8.4,7.9l2,2.1,2.1,1.9.8.7,1.3,1.4c1,1.1.4.9-.3.4l-1.6-1.3-1.2-1.1-4.1-3.9-2-2-2.1-1.9-4.1-3.8-8.4-7.7-2-1.9-2.1-1.9-4-4.1Z" transform="translate(-377.4 -177.3)"/>
    <path class="ebe0d9d7-fcf4-42ef-9bc7-2cc27173c044" d="M378.6,203h-.1c0-.2.2-.5.7-.3h0l.4.5.4.4c.7.6,1.7,1.1,2.5,1.8l2.5,2,4.7,4.4c3,2.9,6.3,5.6,9.4,8.4l4.7,4.4,4.7,4.2,4.8,4.2.8.7,1.4,1.5c.9,1,.4.8-.4.3l-1.6-1.3-1.3-1.1-4.7-4.2-4.6-4.1-4.6-4.3c-3.1-2.8-6.3-5.4-9.3-8.3-1.5-1.4-3-2.9-4.6-4.2l-2.4-2a29.3,29.3,0,0,0-2.6-1.8l-.4-.5Z" transform="translate(-377.4 -177.3)"/>
    <path class="ebe0d9d7-fcf4-42ef-9bc7-2cc27173c044" d="M378.2,198.7h0c0-.2,0-.5.5-.5h.1l.9.9,5.1,4.9,5.2,4.7,5.3,4.7,2.6,2.4,2.6,2.4,5.1,4.9,2.6,2.4,2.6,2.4,1.3,1.1,1.4,1.2,1.3,1.1,1.4,1,.9.7.5.5a3.8,3.8,0,0,1,.9.9c1,1.1.4.8-.3.3l-.8-.6-.6-.4-.2-.2-1.5-1-2.7-2.2-2.6-2.4c-1.8-1.5-3.4-3.1-5.1-4.7l-5.1-4.8a27.3,27.3,0,0,0-2.5-2.3l-2.6-2.4-5.2-4.6-5.1-4.6-5-4.8Z" transform="translate(-377.4 -177.3)"/>
    <path class="ebe0d9d7-fcf4-42ef-9bc7-2cc27173c044" d="M377.7,195.4h0c0-.2,0-.6.5-.6h.1l.9.9,10.7,9.4,2.7,2.3,1.3,1.2,1.3,1.2,1.3,1.2,1.3,1.2.7.6,1.4,1.4c1,1,.5.8-.2.3l-1.7-1.2-1-.8c-.9-.7-1.7-1.6-2.6-2.4l-2.6-2.3-2.6-2.3-10.5-9.2Z" transform="translate(-377.4 -177.3)"/>
    <path class="ebe0d9d7-fcf4-42ef-9bc7-2cc27173c044" d="M379.1,193.9h0a.5.5,0,0,1,.6-.5h0l.4.5.5.4c1.5,1.5,3.4,2.6,5,4.1s3.2,2.8,4.7,4.3l4.7,4.4,2.3,2.2.7.6.5.4,1,.9c1,1,.5.8-.3.4l-.9-.6-.9-.6-.9-.8-2.3-2.1-4.5-4.4-4.7-4.2c-1.6-1.4-3.4-2.5-5-4l-.4-.5Z" transform="translate(-377.4 -177.3)"/>
    <path class="ebe0d9d7-fcf4-42ef-9bc7-2cc27173c044" d="M380.7,192.8h0c-.1-.2,0-.6.5-.5h.1l.8.9c2.8,2.6,6.1,4.7,9,7.2l4.3,3.9,2.1,2,.6.5.5.5,1,.9c1,1,.4.8-.3.3l-.8-.5-.7-.4-.2-.2-.9-.8-1-.9-1.1-1-2-1.9-2.1-1.9c-2.9-2.4-6.1-4.5-8.9-7.2Z" transform="translate(-377.4 -177.3)"/>
    <path class="ebe0d9d7-fcf4-42ef-9bc7-2cc27173c044" d="M383.2,192h0c0-.2.2-.5.7-.3h0a3.4,3.4,0,0,0,.8.9,21.2,21.2,0,0,0,3.6,3l1.9,1.5,1.8,1.6,6,5.3,1.3,1.5c1,1.1.5.8-.2.3a17.7,17.7,0,0,1-1.7-1.2l-6-5.4-1.8-1.6-1.8-1.4a26.9,26.9,0,0,1-3.7-3Z" transform="translate(-377.4 -177.3)"/>
    <path class="ebe0d9d7-fcf4-42ef-9bc7-2cc27173c044" d="M385.5,191h0c0-.2.1-.6.6-.4h.1l.3.5.4.4c1.8,1.9,4.1,3.1,6.2,4.9l2.8,2.7,1.4,1.3.6.6h.2l.3.4,1,.9c1,.9.4.7-.3.3l-1.7-1.2-.7-.6-1.5-1.4-2.8-2.6c-1.9-1.6-4.2-2.9-6-4.8l-.5-.5Z" transform="translate(-377.4 -177.3)"/>
    <path class="ebe0d9d7-fcf4-42ef-9bc7-2cc27173c044" d="M388.4,190.7h-.1c0-.2,0-.5.5-.5h.1l.9.8c1.6,1.3,3.5,2.4,5.2,3.8s1.5,1.5,2.3,2.3l1.1,1,.6.5h.2l.3.4,1,.8c1.1.8.6.7-.2.3H400l-.6-.3-.7-.4-.2-.2-.3-.3-.4-.3-1.2-1.1-2.2-2.2c-1.6-1.3-3.4-2.3-5.1-3.7Z" transform="translate(-377.4 -177.3)"/>
    <path class="ebe0d9d7-fcf4-42ef-9bc7-2cc27173c044" d="M391.3,190.2h0c-.1-.2,0-.3.1-.4s.2-.1.4-.1h.1l.8.9,4.2,3.5,2,1.8,1,.9.6.5,1.5,1.3c1,1,.5.8-.3.3l-1.7-1.1-1.7-1.4-2-1.8-4.1-3.4Z" transform="translate(-377.4 -177.3)"/>
    <path class="ebe0d9d7-fcf4-42ef-9bc7-2cc27173c044" d="M393.7,189.6h0a.4.4,0,0,1,.4-.6h.1l1,.8,6.3,4.8.6.4,1.5,1.3c1,1,.4.8-.3.3l-1.8-1.1-1.5-1.1-1.8-1.3-3.5-2.7Z" transform="translate(-377.4 -177.3)"/>
    <path class="ebe0d9d7-fcf4-42ef-9bc7-2cc27173c044" d="M396.7,189.1h0c-.1-.2-.1-.5.4-.6h.1l.9.8,5.4,4.4.5.4,1.5,1.4c.9,1,.4.8-.3.3l-1.7-1.2-.5-.4-5.3-4.3Z" transform="translate(-377.4 -177.3)"/>
    <path class="ebe0d9d7-fcf4-42ef-9bc7-2cc27173c044" d="M400.5,188.6h0c-.1-.2,0-.5.5-.5h.1l.9.9a8.6,8.6,0,0,0,1.4,1.3l.8.7.7.6.6.4.5.4,1,.9c1,1,.5.8-.3.4l-.9-.6a3.7,3.7,0,0,1-.8-.6l-.5-.3-.8-.6-.8-.7-1.5-1.3Z" transform="translate(-377.4 -177.3)"/>
    <path class="ebe0d9d7-fcf4-42ef-9bc7-2cc27173c044" d="M413.8,228.3h-.1v-.3h.7l.8.9,3.8,2.9.6.4,1.5,1.3c1,1,.5.8-.3.3l-1.7-1-.5-.4c-1.3-1-2.6-1.9-3.9-3Z" transform="translate(-377.4 -177.3)"/>
    <path class="ebe0d9d7-fcf4-42ef-9bc7-2cc27173c044" d="M417.6,228.6h0c-.1-.3,0-.6.5-.5h.1l.8.9,3.1,2.5.6.4,1.5,1.2c1.1.9.6.8-.2.4l-.9-.5-.9-.6-.5-.3a39.2,39.2,0,0,1-3.2-2.5Z" transform="translate(-377.4 -177.3)"/>
    <path class="ebe0d9d7-fcf4-42ef-9bc7-2cc27173c044" d="M420.7,228.1h0c-.1-.2,0-.6.6-.5h0l.8.9a29.7,29.7,0,0,0,3.3,2.7l.6.4,1.5,1.3c1,1,.4.8-.3.3l-1.7-1.1-.5-.3a23,23,0,0,1-3.4-2.8A4.3,4.3,0,0,1,420.7,228.1Z" transform="translate(-377.4 -177.3)"/>
    <path class="ebe0d9d7-fcf4-42ef-9bc7-2cc27173c044" d="M423.5,227.6h0c-.1-.2-.1-.6.5-.6h0l.9.8,1.3,1.1,1.3,1.1.5.4.6.5a7.6,7.6,0,0,0,.9.9c.9,1.1.4.8-.3.3s-.4-.2-.8-.5l-.9-.7-.5-.3-1.3-1.1-1.3-1.1Z" transform="translate(-377.4 -177.3)"/>
    <path class="ebe0d9d7-fcf4-42ef-9bc7-2cc27173c044" d="M426,227.3h0c-.1-.2-.1-.5.4-.5h.1l1,.8,2,1.6.6.4.5.5.9,1c.9,1.1.3.8-.3.3l-.8-.6-.9-.6-.5-.4-2-1.6Z" transform="translate(-377.4 -177.3)"/>
    <path class="ebe0d9d7-fcf4-42ef-9bc7-2cc27173c044" d="M427.8,225.7h0c-.1-.2-.1-.6.5-.6h0l1,.9,3.3,2.9.6.5,1.4,1.4c1,1,.5.8-.3.3l-1.7-1.2-.4-.4c-1.2-.9-2.3-2-3.4-2.9Z" transform="translate(-377.4 -177.3)"/>
    <path class="ebe0d9d7-fcf4-42ef-9bc7-2cc27173c044" d="M430,224.2h0a.4.4,0,0,1,.4-.6h0l1.1.7,1.2.9,1.2.9,2.2,1.9.5.5L438,230c.9,1.1.4.8-.3.3L436,229l-.4-.4-2.2-1.9-1.2-.9-1.1-.9Z" transform="translate(-377.4 -177.3)"/>
    <path class="ebe0d9d7-fcf4-42ef-9bc7-2cc27173c044" d="M432.2,222.1h0c-.1-.2,0-.6.5-.5h.1l.8.9a15.9,15.9,0,0,0,1.3,1.3l1.3,1.2,2.6,2.3.6.4,1.4,1.5c.9,1,.4.8-.3.3l-1.7-1.2-.5-.4-2.6-2.4-1.4-1.2-1.2-1.2Z" transform="translate(-377.4 -177.3)"/>
    <path class="ebe0d9d7-fcf4-42ef-9bc7-2cc27173c044" d="M433.7,220.7h-.1c0-.2,0-.6.6-.5h0l.9.9,1,1a4.7,4.7,0,0,0,1,1l2.1,1.9,2.1,1.8,1.6,1.4,1.4,1.5c1,1,.4.8-.3.3l-1.6-1.2-1.7-1.5-2.1-1.8-2.1-1.9-1.9-1.9Z" transform="translate(-377.4 -177.3)"/>
    <path class="ebe0d9d7-fcf4-42ef-9bc7-2cc27173c044" d="M434.6,218.7h0c-.1-.2,0-.6.5-.5h.1l.8,1a54.5,54.5,0,0,0,5,4.6l2.6,2.3,1.3,1.1.6.5.5.5.8,1c.9,1.1.4.8-.3.3l-.7-.6-.9-.7-.7-.6-1.2-1.1-2.6-2.2a42.4,42.4,0,0,1-4.9-4.6Z" transform="translate(-377.4 -177.3)"/>
    <path class="ebe0d9d7-fcf4-42ef-9bc7-2cc27173c044" d="M435.5,216.5h0a.6.6,0,0,1,.1-.4h.5a7.6,7.6,0,0,0,.9.9l6,5.1,1.4,1.3,1.5,1.3,1.4,1.3.6.6,1.3,1.6c.9,1.1.3.8-.3.2l-1.6-1.3-.6-.7-1.5-1.3-1.4-1.3-1.5-1.2c-1.9-1.7-3.8-3.4-5.8-5Z" transform="translate(-377.4 -177.3)"/>
    <path class="ebe0d9d7-fcf4-42ef-9bc7-2cc27173c044" d="M436.3,214.3h0c-.1-.1-.2-.5.3-.6h.1l1.1.7,3.5,3.2,1.8,1.5,1.7,1.5,3.6,3,1.8,1.5.7.6,1.3,1.5c.9,1.1.4.8-.3.3l-1.6-1.3-.3-.2-.5-.5-1.7-1.5-3.6-2.9-1.7-1.5-1.8-1.5-1.6-1.6-.9-.7-.9-.7Z" transform="translate(-377.4 -177.3)"/>
    <path class="ebe0d9d7-fcf4-42ef-9bc7-2cc27173c044" d="M436,211.3h0c0-.2,0-.6.5-.5h.1l.9.8,2.2,1.9,2.2,1.9,4.5,3.7,4.6,3.7,2.9,2.4,1.4,1.4c1,1.1.4.8-.3.4l-1.7-1.3-3-2.5-4.5-3.6-4.5-3.6c-1.4-1.3-2.8-2.6-4.3-3.8Z" transform="translate(-377.4 -177.3)"/>
    <path class="ebe0d9d7-fcf4-42ef-9bc7-2cc27173c044" d="M436,208.7h0c-.1-.1-.2-.5.3-.6h.1l1.1.6a58.1,58.1,0,0,1,10.4,7.9l4.8,4.3,2.5,2.2.7.5,1.4,1.4c1,1,.4.8-.3.3s-.4-.2-.8-.5l-.9-.6-.3-.3h-.1l-.5-.4-2.4-2.1-4.7-4.3a60.7,60.7,0,0,0-10.1-7.6Z" transform="translate(-377.4 -177.3)"/>
    <path class="ebe0d9d7-fcf4-42ef-9bc7-2cc27173c044" d="M434.8,204h0c-.1-.2-.2-.5.3-.6h.1l1.1.7a40.5,40.5,0,0,1,5.7,4.3c1.8,1.6,3.6,3.2,5.5,4.7l8.9,7.4,1.4,1.5c1,1,.4.8-.3.3l-1.7-1.2-9-7.6c-3.7-2.9-7-6.3-10.9-8.8Z" transform="translate(-377.4 -177.3)"/>
    <path class="ebe0d9d7-fcf4-42ef-9bc7-2cc27173c044" d="M431.4,198.3h0V198c0-.1,0-.2.1-.2h.3a.1.1,0,0,1,.1.1h.1a2.4,2.4,0,0,0,.9.8l6,4.8,3,2.3,1.5,1.2,1.5,1.2,6.2,4.6,3.8,2.8,1.5,1.3c1,.9.5.7-.3.3l-1.7-1.1-4.1-3-6-4.5-3-2.3-3-2.3-5.9-4.7Z" transform="translate(-377.4 -177.3)"/>
    <path class="ebe0d9d7-fcf4-42ef-9bc7-2cc27173c044" d="M402.6,187.9h-.1a.8.8,0,0,1,.1-.4h-.1v-.2h.5l1,.8,3.9,3.2.6.5,1.4,1.4c.5.5.6.6.5.7l-.8-.4-1.7-1.2-.4-.4-3.9-3.2Z" transform="translate(-377.4 -177.3)"/>
    <path class="ebe0d9d7-fcf4-42ef-9bc7-2cc27173c044" d="M403.4,185.4h0c0-.2,0-.6.5-.5h.1l.9,1a22.2,22.2,0,0,0,3.3,2.8l1.8,1.4,1.6,1,1.5,1.3c1.1,1,.5.8-.2.4l-1.8-1.1-1.6-1.1-1.8-1.3c-1.2-.9-2.3-1.9-3.4-2.9Z" transform="translate(-377.4 -177.3)"/>
    <path class="ebe0d9d7-fcf4-42ef-9bc7-2cc27173c044" d="M404.1,184.3h0c-.1-.2-.1-.5.4-.6h0l1.1.7,5.5,3.6,2.7,1.8,1.4.9.6.4,1.6,1.2c1.2.8.6.7-.2.3l-1.8-.9-.8-.5-1.4-.8-2.7-1.8-5.3-3.5Z" transform="translate(-377.4 -177.3)"/>
    <path class="ebe0d9d7-fcf4-42ef-9bc7-2cc27173c044" d="M405.1,181.4h0c-.1-.2-.3-.6.2-.7h.1l1.2.6a8,8,0,0,1,2.1,1.5l1,.7,1.1.8,4.1,2.9,2.1,1.4,2.1,1.3a16.4,16.4,0,0,0,2.2,1.4l.7.4a10,10,0,0,1,1.6,1.2c1.1.8.6.7-.2.3l-1.9-.9-.9-.5-2.1-1.3-2.1-1.4-2.1-1.4-4.1-2.9-1-.7-1-.8-2-1.4Z" transform="translate(-377.4 -177.3)"/>
    <path class="ebe0d9d7-fcf4-42ef-9bc7-2cc27173c044" d="M408.6,180.8h0c0-.1-.1-.1-.1-.2h0v-.2a.1.1,0,0,1,.1-.1l.2-.2h.1l1.2.6c2.2,1.4,4.1,3,6.1,4.5l1.5,1.2a1.8,1.8,0,0,0,.7.5l.8.6,3,2.1,6.1,4.3,6.3,4.2,6.2,4.1,6.2,4.1,1.6,1,1.6,1.1,1.5,1.1,1.5,1.2.8.7h.2l.3.3,1,.9c1.1.9.6.7-.2.3l-1.8-1.1-1.5-1.2-1.4-1.1-1.5-1-3.1-2.1-6.2-4-6.1-4.1-6.1-4.1-6-4.2-3.1-2.1-.7-.5-.7-.6-1.5-1.2a63.6,63.6,0,0,0-5.9-4.3Z" transform="translate(-377.4 -177.3)"/>
    <path class="ebe0d9d7-fcf4-42ef-9bc7-2cc27173c044" d="M411.2,180.1h0c-.1-.2-.1-.5.4-.6h0l1.1.7,5.9,3.7,2.9,2,2.8,2c3.9,2.6,7.6,5.4,11.4,8l5.7,3.9a29,29,0,0,0,2.9,1.9l3,1.8,6,3.5.9.6,1.6,1.2c1,.9.5.8-.3.4l-1.8-1-.3-.2h-.2l-.3-.2-.7-.5-5.9-3.4c-4-2.3-7.7-5-11.5-7.5s-7.4-5.4-11.1-7.9l-2.8-2-2.8-1.9-5.8-3.6Z" transform="translate(-377.4 -177.3)"/>
    <path class="ebe0d9d7-fcf4-42ef-9bc7-2cc27173c044" d="M414.4,179.5h-.1c-.1-.2-.1-.5.4-.6h0l1.1.6c7,4,13.7,8.5,20.3,12.9l5,3.4,5,3.2,5.2,3.1.8.5,1.7,1.1c1.1.9.5.8-.3.4l-1.8-.9-1.4-.8-1.3-.7-1.3-.8-2.5-1.6-9.9-6.4c-6.5-4.4-13-8.8-19.8-12.7Z" transform="translate(-377.4 -177.3)"/>
    <path class="ebe0d9d7-fcf4-42ef-9bc7-2cc27173c044" d="M418.1,179.1h0a.4.4,0,0,1,.4-.6h.1l1,.7.6.4.6.4,1.6,1.3c1,.9.4.7-.3.3l-1.8-1-.5-.4-.6-.4Z" transform="translate(-377.4 -177.3)"/>
    <path class="ebe0d9d7-fcf4-42ef-9bc7-2cc27173c044" d="M425.9,184.2h-.1c0-.2-.1-.6.4-.7h.1l1.1.6c2.3,1.5,4.6,3,7,4.4l7,4.4,7.1,4.4,4.3,2.7,1.5,1.3c1.1.9.5.7-.2.3a17.4,17.4,0,0,1-1.9-1l-4.5-2.9-6.9-4.3-6.9-4.3-7-4.3Z" transform="translate(-377.4 -177.3)"/>
    <path class="ebe0d9d7-fcf4-42ef-9bc7-2cc27173c044" d="M428.9,183.4h0c0-.3.1-.6.6-.5h0l.8.9a31,31,0,0,0,5.7,3.7l3,1.7,3,1.9,9.4,6.1,1.6,1.2c1,.9.5.8-.3.4l-1.8-1-9.6-6.2a26.8,26.8,0,0,0-2.8-1.8l-3-1.6a27.4,27.4,0,0,1-5.7-3.9Z" transform="translate(-377.4 -177.3)"/>
    <path class="ebe0d9d7-fcf4-42ef-9bc7-2cc27173c044" d="M431.7,182.8h0c-.1,0,0-.2-.1-.2v-.2c-.1-.1.1-.2.2-.3h.1l1.3.4c1.8.9,3.5,1.9,5.1,2.9l4.9,3.2,4.9,3.2,3.1,2.1,1.5,1.3c1.1,1,.5.8-.3.4l-1.7-1.1-3.3-2.2-4.8-3.2-4.8-3.1c-1.6-.9-3.2-2-4.9-2.8Z" transform="translate(-377.4 -177.3)"/>
    <path class="ebe0d9d7-fcf4-42ef-9bc7-2cc27173c044" d="M431.7,180.5h0a.4.4,0,0,1,.4-.6h.1l1,.7,4.7,2.6,4.7,2.8,7.7,4.7,1.6,1.2c1.1.9.6.7-.2.4l-1.9-1-7.8-4.7-4.5-2.8-4.7-2.6Z" transform="translate(-377.4 -177.3)"/>
    <path class="ebe0d9d7-fcf4-42ef-9bc7-2cc27173c044" d="M434.3,179.6h-.1a.5.5,0,0,1,.4-.7h0l1.2.7,7.3,4,6,3.7,1.6,1.2c1.1.9.6.7-.2.4l-1.9-1-6-3.7-7.2-4Z" transform="translate(-377.4 -177.3)"/>
    <path class="ebe0d9d7-fcf4-42ef-9bc7-2cc27173c044" d="M437.3,178.7h-.1c0-.2,0-.3.1-.4h.6a2.2,2.2,0,0,0,.9.7,16.9,16.9,0,0,0,2.7,1.3l2.7,1.4,2.7,1.6,2,1.2h.1l.4.3,1,.9c1,1,.4.8-.3.4l-.9-.6-.6-.4h-.3l-1.9-1.3-2.6-1.4-2.7-1.4-2.7-1.3A3.1,3.1,0,0,1,437.3,178.7Z" transform="translate(-377.4 -177.3)"/>
    <path class="ebe0d9d7-fcf4-42ef-9bc7-2cc27173c044" d="M440,178.5h0c-.1-.2-.1-.5.4-.5h.1l1,.7a43.6,43.6,0,0,0,6,3.3l.6.3.6.4,1.1.7c1.2.9.6.7-.2.4l-.9-.4-1-.4-.6-.3a50.3,50.3,0,0,1-6-3.3Z" transform="translate(-377.4 -177.3)"/>
    <path class="ebe0d9d7-fcf4-42ef-9bc7-2cc27173c044" d="M406.7,211.2h0c0-.2.2-.5.7-.3h0l.3.7.2.3.6,1.3a47.4,47.4,0,0,0,3.7,5.1l1.1,1.3.5.6h.1l-.7.5v-.2l-.2-.3a26.8,26.8,0,0,1-1.8-2.8h0l-2.1-3.2-1.2-1.5-.5-.8-.3-.3h-.1l.7-.4h0v.2a18.7,18.7,0,0,0,2,3.2l1.1,1.5a4.6,4.6,0,0,0,.7.7l.6.7h0l.4.3v.2h.1l-.3-.5a4.1,4.1,0,0,0-.5-.9c-.4-.6-.7-1.2-1.1-1.7l-2.3-3.5-1.2-1.8-.5-.9-.3-.4h0l.7-.5h.1l.2.2a22.4,22.4,0,0,1,2.7,3.4l2.2,3.5,1.2,1.6a2.7,2.7,0,0,0,.7.8l.3.4.2.2h0v-.5a4.3,4.3,0,0,1-.1-.5,3.6,3.6,0,0,0-.4-.9h0c-1.2-3-3.3-5.6-5.2-8.3l-.7-1.1-.2-.2v-.2H408l.7-.5h0l.4.5.8,1,.7,1c1,1.4,1.9,2.8,2.8,4.2s1.7,2.8,2.7,4.1l.8,1,.2.2h0c0-.2-.1-.4-.1-.6a14.4,14.4,0,0,0-2.3-4.2c-.9-1.4-1.9-2.7-2.9-4h0l-1.6-2.3-.3-.6-.2-.3h-.1l.6-.5h.1v.2l.5.4.5.5a29.7,29.7,0,0,1,3.3,4.6,51.1,51.1,0,0,0,2.8,4.6l.5.5c0,.1.1.2.2.3h.1v-.3l-.3-.6c-1.4-3.3-3.9-6-6.1-9l-1.5-2.3h0c-.2.1,1.1-1,.6-.6h.1v.2l.3.2.5.5.9,1.1a45.7,45.7,0,0,1,2.9,4.7h0a35.8,35.8,0,0,0,2.9,4.6l.4.5.3.3h0c0-.2-.1-.5-.1-.7l-.5-1.2a21.6,21.6,0,0,0-2.9-4.5c-1.1-1.4-2.3-2.8-3.4-4.3l-.9-1.1-.2-.3h-.1l.6-.6h.1l.5.5a9.4,9.4,0,0,1,1,1l.9,1,.4.6.4.5.8,1.2a18.2,18.2,0,0,1,1.5,2.3c1,1.5,2,3.1,3.1,4.5v.3h.1v-.3l-.2-.6h0c-1.5-3.3-3.8-6.2-5.9-9.2l-1.6-2.3-.2-.3h0l.6-.5h.1v.2l.5.5a4.4,4.4,0,0,1,.8,1.1,45.7,45.7,0,0,1,2.9,4.7,28,28,0,0,0,3,4.6,10.7,10.7,0,0,0,1.9,1.8h.1l-.2-.6c-1.2-3.3-3.5-6.3-5.9-9.1h0l-1.9-2.2-.2-.2h-.1l.5-.7h.2l.6.4,1.1,1.1a13.7,13.7,0,0,1,1.8,2.4l1.5,2.6a19.5,19.5,0,0,0,3.2,4.7l.3.3h0a15.1,15.1,0,0,0-1.2-2.6c-1.9-3.3-4.8-6-7-9.4h-.1l.6-.6h.1l.4.2.3.2.3.2,1.1,1.1a21.1,21.1,0,0,1,1.9,2.3c1.1,1.7,2,3.4,3.1,5h0l.9,1.1.4.5.2.2h0v-.3a.4.4,0,0,0-.1-.3c0-.2-.1-.4-.1-.7A10,10,0,0,0,423,208l-1.7-2.2-1.9-2.2-.9-1.1-.4-.6-.2-.3h0c1.1-1.1.3-.3.6-.5h.3a20,20,0,0,1,3.9,4.3c.6.8,1,1.7,1.5,2.5l.7,1.2.4.5h0a6.7,6.7,0,0,0-.6-1.2l-.7-1.2c-1.1-1.6-2.3-3.1-3.4-4.6l-.9-1.2h0l.5-.6h.2l.4.2.6.5a7.9,7.9,0,0,1,1.9,2.2h0c.6.8,1,1.6,1.6,2.3l.8,1,.5.3.3.2h0l-.6.5h-.1v-.2a21.6,21.6,0,0,0-2.9-4.5,18.4,18.4,0,0,1-1.7-2.2l-.2-.2h-.1c-.5.6.7-.6.6-.5h.1l.6.4,1,1a35.1,35.1,0,0,1,3.7,4.1l.9,1.1.4.5.3.2v.2h0l-.6.5h-.1a17.6,17.6,0,0,0-1.4-2.3l-1.6-2.3a10.5,10.5,0,0,1-.8-1.1l-.4-.6-.2-.3h0l.5-.6h.3a4.8,4.8,0,0,1,2.1,1.9l1.8,2.1.2.2h0l-.6.3h-.1v-.2c0-.2-.1-.3-.2-.5a4.1,4.1,0,0,0-.7-1.1l-.9-1.1v-.2h-.1l.6-.5h.1l.3.3a.6.6,0,0,0,.2.4h.1v.2a6.9,6.9,0,0,1,.5,1.3c.5,1.4.1,1-.4.2l-.2-.4-.2-.3-.3-.4h-.1v-.2l-.4-.3v-.3h-.1l.6-.5h.1v.2a17.7,17.7,0,0,1,1.6,2.2l.3.7v.4h.1l-.7.4h-.2l-.9-1a17.3,17.3,0,0,0-1.7-2.1,3.1,3.1,0,0,0-.9-.7l-.5-.3c1-1.3.2-.4.5-.6h.1l.2.3,3.1,4.4.7,1.1.4.6-.7.5h-.2l-.2-.3-1.7-2.1a43.8,43.8,0,0,0-3.6-3.9l-1-.8-.2-.2H421l.6-.5h.1l.4.6,1.6,2.1a15.6,15.6,0,0,1,2.9,4.6h.1l-.6.5h-.2l-.3-.2-.5-.4a8.7,8.7,0,0,1-.9-1.1c-.6-.7-1-1.5-1.5-2.2h0a12.4,12.4,0,0,0-1.8-2.1l-.6-.4-.2-.2h-.3l.5-.6h.1l.8,1.1c1.1,1.5,2.4,3,3.5,4.6l.7,1.2.7,1.4h.1v.2h.1v.5l.3,1.1v.4h0l-.5-.2-.4-.2-.4-.3-.5-.5c-.1,0-.1-.1-.2-.2v-.2l-.5-.6-.7-1.2A19.4,19.4,0,0,0,422,206a16.7,16.7,0,0,0-3.7-4.2h-.2c.2-.3-.6.5.5-.6h0l.2.3.4.6.9,1.1,1.8,2.2,1.8,2.3a8.2,8.2,0,0,1,1.4,2.6,1.9,1.9,0,0,1,.2.7.6.6,0,0,1,.1.4v.4c0,.4-.1.9-.1,1.4v.3h-.2l-.5-.5-.6-.4a.3.3,0,0,1-.1-.2h-.2l-.5-.6a7.6,7.6,0,0,1-.8-1.1h0c-1.2-1.7-2.1-3.4-3.2-5a13,13,0,0,0-1.8-2.3l-1-.9-.3-.2-.3-.2-.3-.2h-.1c1.1-1.1.3-.3.5-.6h.1c2.1,3.2,5,6,7,9.4a14.3,14.3,0,0,1,1.3,2.8,6.5,6.5,0,0,0,.4,1.3v1l-.3-.2-1.1-.8-.3-.2-.3-.2-.2-.3a18,18,0,0,1-3.4-4.9l-1.5-2.6a12.4,12.4,0,0,0-1.7-2.3l-1-.9-.6-.4h-.1l.5-.6h.1l.2.3,2,2.2h0c1.2,1.4,2.3,2.9,3.4,4.4a26.2,26.2,0,0,1,2.6,5v.3a.8.8,0,0,0,.1.4l.4,1.4v.3h-.1l-.6-.4-.6-.3-.5-.3a12.6,12.6,0,0,1-2-2,34.6,34.6,0,0,1-3.1-4.7,51.1,51.1,0,0,0-2.8-4.6l-.9-1.1-.4-.5h-.2c-.5.4.8-.7.7-.5h0l.2.3,1.6,2.3c2.1,3,4.4,5.9,5.9,9.3h0l.3.7v.2c.1,0,.1,0,.1.2l.2.5.3,1.2.4,1.2v.5h0l-.4-.5-.9-.9-.8-.9-.4-.5-.2-.3c-1.1-1.5-2.1-3-3.1-4.6s-.9-1.5-1.4-2.3l-.8-1.1-.4-.5-.4-.5-.9-1.1-1-.9-.4-.5h-.1l.6-.5h0v.2l.2.3.8,1c1.1,1.5,2.3,2.8,3.5,4.3a22.2,22.2,0,0,1,3,4.7c.2.4.3.9.5,1.3s.1.5.1.7v2.2h-.2l-1-.9-.2-.2-.2-.2-.3-.3-.4-.5a26.6,26.6,0,0,1-3-4.7h0a35.8,35.8,0,0,0-2.9-4.6l-.8-1-.5-.5-.2-.2-.2-.2h0c-.6.4.7-.7.6-.6h0c.4.7,1,1.5,1.5,2.2,2.1,3,4.6,5.7,6.2,9.2l.3.6a.6.6,0,0,0,.1.4l.2.6.3,1.2v1h-.1l-.9-.9a3.8,3.8,0,0,1-.9-.9l-.4-.4-.2-.2-.4-.6a45.7,45.7,0,0,1-2.9-4.7,23.6,23.6,0,0,0-3.2-4.4l-.4-.5-.5-.4h-.2l.7-.5h0l.2.3.3.6,1.5,2.2h0l3,4a17.6,17.6,0,0,1,2.4,4.5c0,.2.1.4.1.7v2.4h-.1l-.4-.4-.2-.2-.2-.2-.4-.5-.5-.6a6.1,6.1,0,0,1-.7-1c-1.1-1.4-1.9-2.8-2.8-4.2l-2.7-4.1-.8-1-.7-1-.4-.4H408l.7-.5h.1l.2.3.7,1c1.8,2.7,4,5.3,5.3,8.5h0a10.4,10.4,0,0,1,.4,1c0,.2.1.3.1.5l.2.6.3,2h-.3l-.4-.3-.7-.7-.6-.5-.3-.3-.7-.9a10.9,10.9,0,0,1-1.3-1.7c-1.5-2.3-2.8-4.8-4.8-6.7v-.2h-.2l.6-.5h0l.3.4.5.9,1.2,1.7c.7,1.2,1.5,2.3,2.3,3.5l1.1,1.8a4.1,4.1,0,0,1,.5.9l.3.5a.5.5,0,0,1,.2.4l.2.4.8,1.7.2.4h-.1l-.8-.6-.7-.5-.4-.2-.4-.4-.5-.5-.4-.3h0l-.7-.8-.6-.7-1.2-1.5a16.8,16.8,0,0,1-2-3.4v-.3h-.1l.7-.4h.1l.3.4.6.8a9.1,9.1,0,0,1,1.1,1.6,22,22,0,0,1,2.1,3.2l1.8,2.7.3.3v.2l-.7.5h-.1l-.5-.6-1-1.2a50.8,50.8,0,0,1-3.8-5.3l-.7-1.3c0-.1-.1-.2-.1-.4Z" transform="translate(-377.4 -177.3)"/>
    <path class="ebe0d9d7-fcf4-42ef-9bc7-2cc27173c044" d="M408.4,209.1h.1c.2-.1.6,0,.5.5h0a1,1,0,0,0-.4.5l-.2.3h-.1c0,.2-.1.4-.1.7a3.1,3.1,0,0,0,.3,1.3,11.9,11.9,0,0,0,1.3,2.5,20,20,0,0,0,1.9,2.2l1.1,1,.2.3h.1l-.4.6h-.2l-.7-.4a9.2,9.2,0,0,1-1.9-2.5h0a15.3,15.3,0,0,1-.9-5.6c0-1.8.1-3.7.1-5.5v-1h0l.7.2h0v.2a3.6,3.6,0,0,0-.2,1.1,8.2,8.2,0,0,0,.6,2.6,25.9,25.9,0,0,0,2.6,4.6h0a17.3,17.3,0,0,0,1.7,2.1l.9.9.5.4h.1a5.6,5.6,0,0,0-.4-1.2,17.5,17.5,0,0,0-1.1-2.4l-1.2-2.4-1-2.5a12.6,12.6,0,0,0-1.3-2.3l-.8-.9h-.3c0,.1,0,0-.1.2a3.6,3.6,0,0,0,0,2.3,24.4,24.4,0,0,0,1,2.4,26.1,26.1,0,0,0,3.1,4.3l.9,1,.9.9a9.8,9.8,0,0,0,2.2,1.3,5.1,5.1,0,0,0,2.4.4,3.7,3.7,0,0,0,2.2-1,3.9,3.9,0,0,0,1.1-2.1,7.6,7.6,0,0,0,.1-2.6,7.3,7.3,0,0,0-.7-2.4,8,8,0,0,0-1.3-2.2,11.1,11.1,0,0,0-3.9-3.3,5.5,5.5,0,0,0-2.5-.4,4,4,0,0,0-2.3.8,4.6,4.6,0,0,0-1.6,1.8,4,4,0,0,0-.2,2.4,9,9,0,0,0,2.2,4.6,16.1,16.1,0,0,0,3.9,3.5,10.1,10.1,0,0,0,2.3,1.2l1.2.3H422a4,4,0,0,0,2.3-.8,3.8,3.8,0,0,0,1.5-1.8,8.1,8.1,0,0,0,.4-5.1,9.9,9.9,0,0,0-2.2-4.6,5.8,5.8,0,0,0-1.9-1.6l-2.4-1a15.4,15.4,0,0,0-5.1-1,6.1,6.1,0,0,0-2.4.7,2.8,2.8,0,0,0-1.2,1.9,7.6,7.6,0,0,0,0,2.6,22.1,22.1,0,0,0,.5,2.5,16.1,16.1,0,0,0,2.4,4.7,8.1,8.1,0,0,0,4,3.1,5.8,5.8,0,0,0,4.8-.7,7.1,7.1,0,0,0,3.2-3.8,9.8,9.8,0,0,0,.3-5.1,10.2,10.2,0,0,0-2.4-4.6,7.8,7.8,0,0,0-4.3-2.5l-1.3-.2h-2.5l-.6.2-.6.3a5.5,5.5,0,0,0-1.8,1.6,5,5,0,0,0-.9,2.4,11.1,11.1,0,0,0,.2,5.1,11.8,11.8,0,0,0,2.5,4.5,7.2,7.2,0,0,0,4.5,2.2,6.7,6.7,0,0,0,4.8-1.2,7.4,7.4,0,0,0,2.8-4.1,11.4,11.4,0,0,0,.2-5.2,9.7,9.7,0,0,0-2.3-4.5,9.9,9.9,0,0,0-4.6-2.2,7,7,0,0,0-4.9.9,6,6,0,0,0-2.7,4,5.7,5.7,0,0,0-.1,1.3v1.3a13.6,13.6,0,0,0,.7,2.5,15.3,15.3,0,0,0,2.7,4.4,12.6,12.6,0,0,0,3.9,3.4,5.3,5.3,0,0,0,2.4.6,4.8,4.8,0,0,0,2.4-.6,6.3,6.3,0,0,0,2.8-4,8.9,8.9,0,0,0-.4-5.1,12.2,12.2,0,0,0-2.6-4.4,8,8,0,0,0-4.4-2.6,5.6,5.6,0,0,0-4.6,1.4,3.4,3.4,0,0,0-1.3,2,5.3,5.3,0,0,0,0,2.5,7.9,7.9,0,0,0,2.9,4l1.1.6,1.2.2,1.1-.4a2.4,2.4,0,0,0,1.3-3,6.5,6.5,0,0,0-.9-2.3l-.8-.9a3.1,3.1,0,0,0-1-.5h-.6c-.1.1-.1.2-.2.2v.2l-.2.4a6.5,6.5,0,0,0-.4,1.3c-.2,1.4-.4.9-.4-.1a8.7,8.7,0,0,1,.1-1.1.6.6,0,0,1,.1-.4c0-.2.1-.3.1-.4v-.3h.1l.3-.3.2-.2H419a3.1,3.1,0,0,1,1.4.7l.9,1.1a8.2,8.2,0,0,1,1,2.6,7.6,7.6,0,0,1-.1,1.5,2.6,2.6,0,0,1-.6,1.3,4,4,0,0,1-1.2,1l-1.4.4a5.1,5.1,0,0,1-2.7-.9,7.5,7.5,0,0,1-3.2-4.4,4.5,4.5,0,0,1-.1-2.8,2.7,2.7,0,0,1,.5-1.4,3.1,3.1,0,0,1,.9-1.1l.5-.4.6-.4.6-.3.7-.3a6.5,6.5,0,0,1,2.8-.3,8.3,8.3,0,0,1,4.8,2.5,12.4,12.4,0,0,1,2.9,4.6,9.9,9.9,0,0,1,.7,5.4,6.9,6.9,0,0,1-2.7,4.7,4.7,4.7,0,0,1-2.6,1.1,5.5,5.5,0,0,1-2.8-.4,10.4,10.4,0,0,1-4.3-3.2,16.7,16.7,0,0,1-3.1-4.4,11.4,11.4,0,0,1-.9-2.6,8.3,8.3,0,0,1-.3-2.7,7.5,7.5,0,0,1,2.3-5,7.4,7.4,0,0,1,5.1-1.8,8.7,8.7,0,0,1,5.2,1.7,11.2,11.2,0,0,1,2,1.8,11.9,11.9,0,0,1,1.3,2.5,11,11,0,0,1,.5,5.4,9.3,9.3,0,0,1-2.1,5,6.2,6.2,0,0,1-2.2,1.7,6.1,6.1,0,0,1-2.6.8h-1.4l-1.4-.2a8,8,0,0,1-2.5-1.1,9.5,9.5,0,0,1-2.1-1.9,12.8,12.8,0,0,1-1.4-2.3,11.8,11.8,0,0,1-1.3-5.2,8.6,8.6,0,0,1,.4-2.8,6,6,0,0,1,1.2-2.4,4.8,4.8,0,0,1,2.3-1.7l.7-.3h3.4l1.3.3a8.5,8.5,0,0,1,2.6,1.1,10.7,10.7,0,0,1,3.5,4.1,11,11,0,0,1,1.1,5.3,8.7,8.7,0,0,1-1.9,5.1,7.7,7.7,0,0,1-4.7,2.8,6.5,6.5,0,0,1-2.8-.2,7.5,7.5,0,0,1-2.5-1.3,11.5,11.5,0,0,1-3.4-4.2,18,18,0,0,1-1.7-5.1,12.9,12.9,0,0,1-.1-2.8,4.5,4.5,0,0,1,1.2-2.6,5.2,5.2,0,0,1,2.7-1,8.2,8.2,0,0,1,2.7.1,15.2,15.2,0,0,1,5.1,1.6,5.7,5.7,0,0,1,2.3,1.5,9.2,9.2,0,0,1,1.7,2.2,10.7,10.7,0,0,1,1.4,5.2,6.7,6.7,0,0,1-.3,2.8,6.3,6.3,0,0,1-1.3,2.4,4.8,4.8,0,0,1-2.5,1.4,5.3,5.3,0,0,1-2.8.2,10.9,10.9,0,0,1-2.5-1,11.4,11.4,0,0,1-2.3-1.5,19.6,19.6,0,0,1-3.7-3.9,11.5,11.5,0,0,1-1.2-2.5,6.1,6.1,0,0,1-.4-2.7,5.4,5.4,0,0,1,1.1-2.7l.5-.5.6-.4a3.5,3.5,0,0,1,1.2-.7,6.7,6.7,0,0,1,2.8-.3,6.4,6.4,0,0,1,2.6,1,12.1,12.1,0,0,1,5,6.3,5,5,0,0,1,.4,1.3,6.6,6.6,0,0,1,.1,1.4,6.5,6.5,0,0,1-.5,2.7,4,4,0,0,1-4.5,2.9,6.4,6.4,0,0,1-2.7-.7,8.9,8.9,0,0,1-2.2-1.6c-.4-.3-.6-.7-1-1l-.8-1a22.1,22.1,0,0,1-3-4.5,10.9,10.9,0,0,1-1-2.5,7.6,7.6,0,0,1-.1-1.5,1.9,1.9,0,0,1,.2-.7.8.8,0,0,1,.1-.4v-.2l.2-.2.2-.3h.3l.5.3.6.4.9,1.1A13.4,13.4,0,0,1,413,208a5,5,0,0,1,.5,1.3l.2.6.3.5,1.2,2.4.6,1.2a6.1,6.1,0,0,1,.5,1.2l.3.7c0,.2.1.4.1.7v1.6h-.2l-.5-.3a2.4,2.4,0,0,1-.9-.5l-.6-.4-.9-1a17.3,17.3,0,0,1-1.7-2.1h0a23.1,23.1,0,0,1-2.8-4.8,8.8,8.8,0,0,1-.6-2.8,4.4,4.4,0,0,1,.2-1.6h.2l.8.2h0v1c0,1.9-.1,3.7-.1,5.5a13,13,0,0,0,.9,5.2h0a6,6,0,0,0,1.6,2.2l.6.4h.2l-.5.7h-.1l-.3-.3-1.1-1a21.1,21.1,0,0,1-1.9-2.3,14.3,14.3,0,0,1-1.5-2.7,4.5,4.5,0,0,1-.3-1.6,2.8,2.8,0,0,1,.1-.9v-.2h.1l.2-.4Z" transform="translate(-377.4 -177.3)"/>
    <path class="ebe0d9d7-fcf4-42ef-9bc7-2cc27173c044" d="M414.6,201h.1c0,.2-.1.5-.6.5H414l-.2-.2a.9.9,0,0,0-.6-.3h-.7a5.4,5.4,0,0,0-2.4,1.6,6.8,6.8,0,0,0-1.9,5.7,14.5,14.5,0,0,0,2.4,6.1l1,1.4.6.7.6.7a7.7,7.7,0,0,0,2.8,1.9,8.1,8.1,0,0,0,6.8-.2,10.6,10.6,0,0,0,2.9-2.2l1-1.5a13,13,0,0,0,.8-1.7,12.1,12.1,0,0,0,.2-7.3,8.8,8.8,0,0,0-4.6-5.5,9.2,9.2,0,0,0-3.6-.7,11.6,11.6,0,0,0-3.7.7,10.4,10.4,0,0,0-3.3,1.7,8.8,8.8,0,0,0-2.4,2.7,8.7,8.7,0,0,0-.7,1.7,11,11,0,0,0-.2,1.8,10.2,10.2,0,0,0,.5,3.5,12.6,12.6,0,0,0,1.6,3.3,13.4,13.4,0,0,0,1.1,1.4l1.2,1.2,1.4,1a7.1,7.1,0,0,0,1.6.7l1.6.4h1.7a7.9,7.9,0,0,0,3-1.2,12.1,12.1,0,0,0,2.4-2.1,12.7,12.7,0,0,0,1.8-2.7,15.7,15.7,0,0,0,1-2.8,10.1,10.1,0,0,0,.1-3l-.3-1.4a6.4,6.4,0,0,1-.2-.7c-.1-.2-.1-.4-.2-.6l-.3-.6-.4-.6a2.1,2.1,0,0,0-.4-.6l-.4-.5a10,10,0,0,0-2-1.6l-2.3-.8-1.2-.2h-2.9c-1.5-.1-.9-.3,0-.5h4a9.5,9.5,0,0,1,4.5,2.2,7.6,7.6,0,0,1,1.7,2.3,7.9,7.9,0,0,1,1,2.7c0,.2.1.5.1.7a2.2,2.2,0,0,1,.1.8,7.6,7.6,0,0,1,.1,1.5,17.3,17.3,0,0,1-.7,3.1,14.6,14.6,0,0,1-3.7,5.3,8.9,8.9,0,0,1-6.5,2.4,8.5,8.5,0,0,1-3.4-1.1,12.8,12.8,0,0,1-2.9-2.3,16.1,16.1,0,0,1-2.1-3l-.2-.4-.2-.5-.3-.8a10.5,10.5,0,0,1-.5-1.9,5.8,5.8,0,0,1-.2-1.9v-1a2.9,2.9,0,0,1,.2-.9v-1l.3-.9.5-.9.6-.8a11.6,11.6,0,0,1,2.9-2.5,13.1,13.1,0,0,1,3.7-1.5,12.6,12.6,0,0,1,3.9-.3,9.1,9.1,0,0,1,3.8,1.3,9.6,9.6,0,0,1,4.2,6.5,12.7,12.7,0,0,1-.8,7.7,14,14,0,0,1-2.2,3.2,11.5,11.5,0,0,1-3.3,2.1,9.1,9.1,0,0,1-7.4-.5,9.2,9.2,0,0,1-2.9-2.3,19.4,19.4,0,0,1-2.1-2.9,14.1,14.1,0,0,1-2.3-6.5,8.1,8.1,0,0,1,2.5-6.1l1.3-1a4.4,4.4,0,0,1,1.6-.6h.7l.9.4Z" transform="translate(-377.4 -177.3)"/>
    <path class="ebe0d9d7-fcf4-42ef-9bc7-2cc27173c044" d="M412,202h-.3c-.2,0-.3,0-.4-.3h0a2.6,2.6,0,0,1,.8-1.3,7.8,7.8,0,0,1,2.4-1.6l1.4-.5h1.4a13.5,13.5,0,0,1,5.6,1,15,15,0,0,1,4.8,3,10.8,10.8,0,0,1,2.6,5.1,10.1,10.1,0,0,1-.4,5.7,6.6,6.6,0,0,1-1.7,2.3,17,17,0,0,1-2.3,1.7,19.9,19.9,0,0,1-5,2.6l-.3.2h-1.5a2.5,2.5,0,0,1-1.5-.3c-.3-.3-.5-.5-.5-.7s0-.2.1-.2a1.6,1.6,0,0,0,.6.5h1l1-.3h.8l.6-.3a21.6,21.6,0,0,0,4.7-2.6,16.6,16.6,0,0,0,2.1-1.6,8,8,0,0,0,1.3-2.2,8.1,8.1,0,0,0,.1-5.1,9.6,9.6,0,0,0-2.5-4.5,14.3,14.3,0,0,0-9.6-3.6H416l-1.2.5a5.2,5.2,0,0,0-2.1,1.4A2.8,2.8,0,0,0,412,202Z" transform="translate(-377.4 -177.3)"/>
    <path class="ebe0d9d7-fcf4-42ef-9bc7-2cc27173c044" d="M419.5,206.3h0c.1-.2.3-.5.7-.3h.1l.5,1.2a16.8,16.8,0,0,1,1.7,5.9c0,.6-.1,1.1-.1,1.6h0v1.3h-.3l-.3-.2-.3-.2-.3-.3a10.1,10.1,0,0,1-1.6-2.6,21.2,21.2,0,0,1-1.1-2.9l-.2-.8-.2-.5-.2-.8-.3-1.4v-.3h.2l.5.5,1,1,.3.2.2.3.2.3,1,1.2,1.6,2.6.8,1.2.2.4h0l-.6.4h-.2l-.4-.6-1.7-2.5-.8-1.2c-.2-.5-.5-.9-.7-1.4l-.5-1.1-.3-.6-.3-.6-.2-.6h.2l.3.2,1.1.7h0l.9.6.4.4.8.8.7.9.2.3.4.6.3.7c.1.1.1.4.2.6a2.5,2.5,0,0,1,.2.7c.3,1.5-.1.9-.4.1l-.5-.9-.6-.9-.3-.5-.3-.4-.7-.8-.6-.7h-.2l-.2-.2h0v.2l.7,1.2.8,1.3,1.7,2.4.4.6v.2h0l-.6.4h-.1l-.2-.3-.8-1.3c-.5-.8-1-1.7-1.6-2.5l-.9-1.2-.3-.3.3.8a23.1,23.1,0,0,0,1,2.8,8.2,8.2,0,0,0,1.5,2.4h.1c0-.5.1-1,.1-1.4a16.8,16.8,0,0,0-1.6-5.7Z" transform="translate(-377.4 -177.3)"/>
    <path class="ebe0d9d7-fcf4-42ef-9bc7-2cc27173c044" d="M408.8,210.9h0c.3,0,.6.1.5.6h0a1.8,1.8,0,0,0-.6.9,3.6,3.6,0,0,0,.6,2.6,8.3,8.3,0,0,0,1.9,2.3l1.1.9.7.3.3.2h.1c.3-.7-.5.9-.4.7h-.2l-1.2-1-1.2-1.1-1-1.2-1-1.2-.3-.4H408c.3-.2-.6.5.7-.4h0l.2.2.2.3.3.4a4.4,4.4,0,0,0,.6,1l.4.9c.7,1.3.3.9-.4.2l-.6-.7h0a6.2,6.2,0,0,0-.8-1l-.3-.4-.2-.4H408l.7-.5h.1v.2l.2.3,1.9,2.3h0l1.1,1,1.2,1h.2c.1-.1-.7,1.4-.4.8h-.5l-.7-.4-1.3-1a9.1,9.1,0,0,1-2-2.4,7.7,7.7,0,0,1-.7-1.6,4.8,4.8,0,0,1,0-1.7A3,3,0,0,1,408.8,210.9Z" transform="translate(-377.4 -177.3)"/>
  </g>
</svg>
