<svg id="b880553f-a0a0-4f8b-9e6d-8ece2a145fc9" data-name="Objects" xmlns="http://www.w3.org/2000/svg" viewBox="0 0 40.8 101.9">
  <defs>
    <style>
      .ae1757ed-e53d-42b1-929f-ccdf80102707 {
        fill: #252525;
      }
    </style>
  </defs>
  <g>
    <path class="ae1757ed-e53d-42b1-929f-ccdf80102707" d="M1009.3,470.2h.2a.7.7,0,0,1,.7.2c.2.2.2.5.1,1h0a4,4,0,0,0-1.3,1.8,9.6,9.6,0,0,0-.7,2.8v1.5a2.2,2.2,0,0,0,.1.8,2,2,0,0,0,.1.7,13.6,13.6,0,0,0,1.1,2.8,4.4,4.4,0,0,0,.8,1.1,4.1,4.1,0,0,0,1.1.7,10,10,0,0,0,2.9,1,9.5,9.5,0,0,0,2.9.2h.7l.7-.2.6-.2.7-.4a8,8,0,0,0,2.1-2,9.1,9.1,0,0,0,1.3-2.6,10.4,10.4,0,0,0,.5-2.9,9.2,9.2,0,0,0-.4-2.9,5.8,5.8,0,0,0-1.5-2.5,6.5,6.5,0,0,0-5.1-2.3h-2l-.9.2a11.5,11.5,0,0,0-2.3,1l-1.2.8c-.3.1-.4.1-.4,0a3.3,3.3,0,0,1,1.1-1.5c-.1,0,.1-.2.4-.4l.6-.5.7-.4,1.6-.7.7-.2h2.6a8.1,8.1,0,0,1,3.3,1.1,7.1,7.1,0,0,1,2.6,2.3l.5.7.4.7a11.5,11.5,0,0,1,.6,1.7,8.6,8.6,0,0,1,.3,1.7,9.6,9.6,0,0,1,0,1.7,13,13,0,0,1-.7,3.3,12.2,12.2,0,0,1-1.7,2.9,9.6,9.6,0,0,1-2.6,2.3l-.8.3-.8.4-.9.2h-.9a13.2,13.2,0,0,1-6.5-1.4l-.8-.5-.7-.6-.5-.7a3.5,3.5,0,0,1-.5-.8,13.2,13.2,0,0,1-1.2-3.1,11.9,11.9,0,0,1,.6-6.8A6.9,6.9,0,0,1,1009.3,470.2Z" transform="translate(-995.2 -467.2)"/>
    <path class="ae1757ed-e53d-42b1-929f-ccdf80102707" d="M1000.4,492.2h.1a1,1,0,0,1,.7.2,1,1,0,0,1,.2,1,.1.1,0,0,0-.1.1,4.4,4.4,0,0,0-1.6,1.7h-.1c.1,0,0,0,0,.1h-.1l-.2.3-.3.5-.9,2.4a30.8,30.8,0,0,0-.8,5.3c-.2,1.8-.2,3.6-.3,5.4s-.2,3.7-.2,5.5a30.9,30.9,0,0,0,.2,5.3,20,20,0,0,0,.5,2.6,7.6,7.6,0,0,0,1.1,2.2,4.6,4.6,0,0,0,.7.7,1.9,1.9,0,0,0,1,.3,1.7,1.7,0,0,0,1.6-.8,6.9,6.9,0,0,0,.8-2.3,21.1,21.1,0,0,0,.2-2.6V509.3a52.8,52.8,0,0,1,.1-5.6V503a2.4,2.4,0,0,1,.2-.8,1.9,1.9,0,0,1,.2-.7c0-.1,0-.1.1-.2s.1-.2.2-.3l.4-.5a1.6,1.6,0,0,1,1.2-.1l.6.3h.2c.1,0,.1.1.2.2a2.9,2.9,0,0,1,.6,1.7,8.9,8.9,0,0,1,.1,2.8c0,1-.1,1.9-.1,2.8l-.2,1.4v4a26.2,26.2,0,0,0-.1,2.8v8.2h0l-.2,5.2c-.1,1.8-.2,3.5-.2,5.2,0,3.4.1,6.9,0,10.4,0,1.8-.1,3.5-.1,5.2V556c0,1.8-.1,3.5,0,5.2a8.5,8.5,0,0,0,1,4.6,3.1,3.1,0,0,0,1.6,1.4,3.5,3.5,0,0,0,2,.2,2.3,2.3,0,0,0,1.6-1.1,8.1,8.1,0,0,0,.7-2.2,19.5,19.5,0,0,0,.2-2.5c0-.4-.1-.8-.1-1.2v-1.3l-.3-5.2V533.8c0-.1.1-.3.1-.4l.4-.8a3.2,3.2,0,0,1,1.2-1.1,1.9,1.9,0,0,1,.9-.4,2,2,0,0,1,1.1.3h.3a.3.3,0,0,0,.1.2c.2.2.3.3.3.4a5.9,5.9,0,0,1,.4.8c.1.5.1,1,.2,1.5v5.2c0,3.5-.1,7-.1,10.4v5.2c.1,1.8,0,3.5.1,5.2v1.3l.2,1.2.2,1.3.3,1.1a4,4,0,0,0,1.1,1.8,1.6,1.6,0,0,0,.9.3h1.1l.9-.2.7-.6a5.4,5.4,0,0,0,.8-2.1,20.8,20.8,0,0,0,.1-5c0-.9-.1-1.8-.1-2.7V549c-.1-3.5-.1-6.9-.1-10.4s-.1-7-.1-10.4V517.7l.3-10.4a21.7,21.7,0,0,0,.1-2.6,5.7,5.7,0,0,1,.1-1.3v-1.1h0v-.5a3.5,3.5,0,0,1,.3-1.1l.6-.7a1.1,1.1,0,0,1,.8-.1l.4.2h.1l.2.2c.1.1.1.3.2.5s.1.1.1.2v.3a1.4,1.4,0,0,1,.2.6v.4c.1.5.1.9.2,1.4.3,3.5.3,7,.3,10.5,0,1.7-.1,3.5,0,5.1a19.5,19.5,0,0,0,.2,2.5l.3,1.3.3,1.1a2.3,2.3,0,0,0,1.3,1.4,1.9,1.9,0,0,0,1.8-.1,3.6,3.6,0,0,0,1.5-1.5,7.1,7.1,0,0,0,.6-2.2,27.5,27.5,0,0,0,.2-5l-.2-5.3c0-1.7-.1-3.4-.2-5.1s-.1-3.6-.3-5.2a16.1,16.1,0,0,0-1.2-4.8,9.7,9.7,0,0,0-3-3.7,17.6,17.6,0,0,0-9.1-3.8,34.2,34.2,0,0,0-10.1.1l-1.2.3h-1.3l-1.1.4-1.3.5-1.3.4-1.2.5-.8.4-.5.3c-.3.1-.4.1-.4-.1s.5-.8,1.3-1.4l.5-.3a7.4,7.4,0,0,1,1.3-.8,6.1,6.1,0,0,1,1.4-.7l.6-.3,1.2-.5h.1l.7-.2,2.6-.5a30.3,30.3,0,0,1,5.2-.3l2.6.2,2.6.2a24.6,24.6,0,0,1,5.1,1.5,17.8,17.8,0,0,1,4.5,2.8,11.6,11.6,0,0,1,1.8,2,4.4,4.4,0,0,1,.8,1.1,6.7,6.7,0,0,1,.6,1.2,24.7,24.7,0,0,1,1.3,5.2,23.5,23.5,0,0,1,.1,2.6v2.6c.1,1.6.2,3.3.2,5.1v5.1a22.8,22.8,0,0,1-.1,5.2,9,9,0,0,1-.7,2.7,7.5,7.5,0,0,1-.7,1.2l-.6.6-.6.4a3.5,3.5,0,0,1-1.4.6,4.3,4.3,0,0,1-1.6,0,3.7,3.7,0,0,1-2.4-2,3.4,3.4,0,0,1-.5-1.4,2.8,2.8,0,0,1-.3-1.3l-.2-.6v-.7c-.1-.4-.1-.8-.2-1.3-.2-3.5,0-6.8,0-10.2,0-1.7-.1-3.4-.2-5.1s-.1-.8-.2-1.2v-1.1h0c-.1.4-.1.8-.2,1.2v2.5c0,1.7-.1,3.4-.2,5.1v5.1c-.1,1.7-.1,3.4-.1,5.1v10.2c.1,6.8.1,13.6.3,20.4,0,1.6,0,3.4.1,5s.2,3.4.2,5.2a12.4,12.4,0,0,1-.3,2.7,5.4,5.4,0,0,1-1.1,2.6,4.3,4.3,0,0,1-1.2,1.1l-.8.2h-.7a4,4,0,0,1-3-.6,6,6,0,0,1-1.1-1.2l-.6-1.3c-.1-.5-.3-.9-.4-1.3l-.2-1.3a32,32,0,0,1-.3-5.3c.1-1.7,0-3.3,0-5v-5.2c0-3.4.1-6.8.1-10.1v-2.6a4.9,4.9,0,0,0-.1-1.2,2.4,2.4,0,0,0-.2-.9c-.1-.1-.1-.1-.1-.2h-.4c-.1.1-.3.1-.4.3l-.5.7a.8.8,0,0,0-.1.3v.7c-.1,6.8-.2,13.6,0,20.3l.2,5.1a13.8,13.8,0,0,1-.4,5.3,6.3,6.3,0,0,1-1.5,2.6l-.6.5-.8.3-.8.2h-.7a5.6,5.6,0,0,1-2.8-1,4.4,4.4,0,0,1-1.8-2.3,16.9,16.9,0,0,1-.9-5.3,21.7,21.7,0,0,1,.1-2.6V545.2c.1-3.4,0-6.8,0-10.2,0-1.7.1-3.5.2-5.2l.2-5h0v-8.3a24.4,24.4,0,0,1,.1-2.7v-4.2l.2-1.3c0-.9.1-1.8.1-2.7a11.1,11.1,0,0,0-.1-2.6,1.6,1.6,0,0,0-.3-.9h.1c-.1,0,.1-.1-.1,0h-.1a1.4,1.4,0,0,0-.2.6c-.1.2-.1.4-.2.6v.6c-.1,1.7,0,3.5,0,5.4v11a14.1,14.1,0,0,1-.3,2.8,5.9,5.9,0,0,1-1,2.9l-.5.7-.8.5a3.2,3.2,0,0,1-1.7.3,4.8,4.8,0,0,1-1.7-.5,4.3,4.3,0,0,1-1.2-1.1,8.4,8.4,0,0,1-1.3-2.7c-.3-1-.4-1.9-.6-2.9a33.7,33.7,0,0,1-.2-5.5c0-1.9.1-3.7.2-5.5s.1-3.7.3-5.5a26.2,26.2,0,0,1,.9-5.6,14.8,14.8,0,0,1,1-2.7l.4-.6.2-.4h.1A10,10,0,0,1,1000.4,492.2Z" transform="translate(-995.2 -467.2)"/>
  </g>
</svg>
