<svg id="ec81de22-54ac-4309-b2cf-b0b9bc53ff1e" data-name="Objects" xmlns="http://www.w3.org/2000/svg" viewBox="0 0 102.7 120.8">
  <defs>
    <style>
      .a51d914d-9037-4f96-b13b-b58539f2084a {
        fill: #252525;
      }
    </style>
  </defs>
  <g>
    <path class="a51d914d-9037-4f96-b13b-b58539f2084a" d="M896.6,605.7v.2a1.9,1.9,0,0,1-1.1.8,1.6,1.6,0,0,1-1.7-.8,1,1,0,0,1-.1-.3,11.6,11.6,0,0,1,.1-1.3,16.1,16.1,0,0,1,.4-3.4v-.2h0v-.2a10.5,10.5,0,0,0,.4-1.7c.5-2.4,1.1-4.6,1.4-7,.8-4.8,1.7-9.8,2.6-14.9s1.9-10.3,2.9-15.7,2.2-10.7,3.3-16.2c.5-2.8,1.1-5.5,1.6-8.3s.5-2.8.7-4.3.3-1.4.4-2.1l.3-2.2a9.7,9.7,0,0,1,1-2.6,6.3,6.3,0,0,1,1.2-1.1l.7-.4.7-.2,1.3-.3h3.5a65.5,65.5,0,0,1,8.9,1l4.4.9,4.4.9,8.7,1.9c2.9.7,5.8,1.2,8.7,1.8s5.8,1,8.8,1.4c1.4.2,2.9.5,4.4.6a37.9,37.9,0,0,1,4.5.7,5.3,5.3,0,0,1,1.2.3l1.3.4.6.3.6.4.5.4.6.5.8,1.2.6,1.3a6.9,6.9,0,0,1,.2,1.3,6.2,6.2,0,0,1,.1,1.3,22.9,22.9,0,0,1-.4,4.7c-.3,1.4-.5,2.9-.7,4.4l-1.5,8.7c-.4,2.9-.9,5.8-1.4,8.7l-1.5,8.5c-1,5.7-2,11.3-2.9,16.8s-1.8,10.9-2.6,16.2l-.6,3.9c-.3,1.4-.4,2.6-.6,4a11.1,11.1,0,0,1-.7,2.2,4.3,4.3,0,0,1-1.7,2.1l-.5.4-.6.2-1.2.4h-2.2a49.1,49.1,0,0,1-7.8-.8l-7.2-1.4-6.9-1.2c-2.3-.3-4.6-.8-6.8-1.2-4.4-.7-8.5-1.6-12.5-2.3l-9.1-1.5-1.4-.3-1.1-.2-2.7-.7a28.1,28.1,0,0,1-4.8-2.1,3.3,3.3,0,0,1-1.4-1.2.5.5,0,0,1-.2-.4h-.1v-.6c0-.1,0-.2.1-.2l.2-.3h.4a.8.8,0,0,0,.1.4c0,.1.1.2.1.3a6.2,6.2,0,0,0,1.6.7l1,.3,2.6.5c1.9.4,4,.6,4,.6l1.1.2,3.4.5,5.5,1,2.8.5,3,.5,6,1.2,6.3,1.1,1.7.3,1.6.3,3.4.5c2.2.3,4.6.8,6.9,1.3a53.8,53.8,0,0,0,7,1.2h5a2.3,2.3,0,0,0,1.1-.5,2.2,2.2,0,0,0,.7-.9,6.6,6.6,0,0,0,.4-1.5c.2-1.2.3-2.6.5-3.8s.9-5.2,1.3-7.8l1.2-7.9c.5-2.7.9-5.4,1.4-8.1.9-5.4,1.9-10.9,2.9-16.5.2-1.4.5-2.8.7-4.2s.5-2.8.7-4.3,1-5.6,1.4-8.5,1-5.7,1.4-8.5.5-3,.6-4.3a8.4,8.4,0,0,0-.3-3.6c-.1-.3-.3-.4-.4-.6s-.2-.2-.3-.3l-.2-.3-.7-.4a.5.5,0,0,0-.4-.2l-.4-.2a23.6,23.6,0,0,0-4-.8l-4.4-.5-4.4-.7-2.2-.3-2.2-.3-4.3-.9-4.4-.9-4.3-.9-8.6-1.8-4.3-1-4.2-.7a47.1,47.1,0,0,0-8.3-.6h-1.9a1.4,1.4,0,0,0-1,.6,2.7,2.7,0,0,0-.5,1.3c-.2.6-.2,1.3-.4,2-.4,2.9-.9,5.7-1.4,8.4s-1.1,5.6-1.7,8.3-1.1,5.4-1.7,8.1-.5,2.6-.7,3.9-.5,2.7-.8,4c-1,5.2-1.9,10.4-2.8,15.4-.5,2.5-.9,5-1.3,7.4l-.6,3.6-.6,3.7c-.4,2.4-1,4.7-1.5,7v.8H897v.3c-.2,1.2-.3,2.2-.4,3Z" transform="translate(-882.8 -514.2)"/>
    <path class="a51d914d-9037-4f96-b13b-b58539f2084a" d="M886.3,615.3a.1.1,0,0,1-.1.1c-.1.1-.2.3-.4.4l-.5.4a1.1,1.1,0,0,1-.8.1l-.5-.2-.3-.3c-.1,0-.2-.2-.2-.3s-.2-.2-.2-.3a18.6,18.6,0,0,1,.5-2.7l.2-1.2v-1.1l1-6.3,1.2-6.4.6-3.1.6-3.2,1.3-6.2,2.6-12.6c.5-2,.9-4.1,1.3-6.2l1.2-6.3c1.6-8.3,2.9-16.7,4.3-25.2l1.3-6.3,1.3-6.2.3-2a8.3,8.3,0,0,1,.4-1.5.3.3,0,0,1,.1-.2,1.4,1.4,0,0,1,.2-.6l.3-.5v-.2l.2-.3a7.6,7.6,0,0,1,.9-.9,6,6,0,0,1,2.6-1.5,5.7,5.7,0,0,1,2.9,0,10.1,10.1,0,0,1,2.6.9c.5.3.6.5.4.6h-3.3a5.3,5.3,0,0,0-2.8,1l-.8.9c-.1.2-.2.3-.2.4l-.2.4a3.1,3.1,0,0,0-.2.8v.3a5,5,0,0,0-.2,1.2l-.2.7v.5a.6.6,0,0,0-.1.4l-.3,1.5c-.5,2.1-.9,4.1-1.3,6.2l-1.2,6.1-2,12.4-.6,3.1-.5,3.1-1.2,6.2-1.1,6.2c-.4,2.1-.9,4.1-1.3,6.2L891.7,586l-1.2,6.2-.7,3-.3,1.6-.3,1.5-1.1,6.1-.9,6.3A36.7,36.7,0,0,0,886.3,615.3Z" transform="translate(-882.8 -514.2)"/>
    <path class="a51d914d-9037-4f96-b13b-b58539f2084a" d="M910.4,517.1l-.2-.2c-.5-.5-1.2-1.8.6-2.7h.2l4.8,1,5.8.9,6,.8,6,1,5.9,1,6,1.1,5.9,1,11.8,2.3,2.9.5,1.5.3,1.5.2,5.9.9a23.7,23.7,0,0,1,6.2,1.3,5.1,5.1,0,0,1,1.6.9.5.5,0,0,1,.4.2l.4.3.3.4.4.4a6.1,6.1,0,0,1,.9,1.8,6.3,6.3,0,0,1,.3,1.9,18.6,18.6,0,0,1-.4,3.3c-.2,1-.5,2-.8,3l-.9,2.9a7.4,7.4,0,0,0-.4,1.4,1.4,1.4,0,0,0-.2.6v.7l-2.1,11.8L978.5,568c-.7,3.9-1.6,7.9-2.3,11.8-1.5,7.9-3.1,15.8-4.6,23.6s-2.4,15.8-3.9,23.8v.8c-.1.1-.1.2-.1.4h-.1v.6l-.3.8-.3.7-.3.8v.2l-.4.5a8.1,8.1,0,0,1-1.6,1.7,6.7,6.7,0,0,1-2.8,1,8.8,8.8,0,0,1-2.8,0,9.9,9.9,0,0,1-2.7-.5c-.5-.2-.6-.4-.5-.5s1.7-.4,3.3-.6l1-.2a5.7,5.7,0,0,0,2.2-.7,5.5,5.5,0,0,0,1.5-1.6,3.5,3.5,0,0,0,.4-1,3.6,3.6,0,0,0,.4-1.1l.2-.7h.1a.4.4,0,0,1,.1-.3v-.7a25,25,0,0,0,.5-2.9l1-5.7.9-5.9,1-5.8c.3-2,.6-3.9,1-5.9l1.1-5.8,1.1-5.8,2.3-11.6,1.1-5.8.6-2.9.5-2.9,2-11.7,1.1-5.8.5-2.9.2-1.4.2-.8a1.9,1.9,0,0,1,.2-.8c.5-2,1.2-3.8,1.7-5.7a13.1,13.1,0,0,0,.6-2.7,4.9,4.9,0,0,0,0-2.4l-.3-.8-.3-.4c-.1-.1-.3-.2-.4-.4a11.2,11.2,0,0,0-2.2-1l-1.3-.3-1.4-.2-2.9-.4-5.9-.9-5.8-1-11.6-2.3-5.8-1-5.9-1-5.8-1-5.8-1-5.8-.7-6-1Z" transform="translate(-882.8 -514.2)"/>
    <path class="a51d914d-9037-4f96-b13b-b58539f2084a" d="M882.9,615.6c0-.1.1-.1.2-.2a1,1,0,0,1,.6-.5h.7l.7.4.6.9c.1,0,.1.1.1.2a1.2,1.2,0,0,0,.3,1.1,3.8,3.8,0,0,0,1.3,1.2l1.8.7,2,.7,2.1.6,1,.2,1.1.2c2.8.6,5.7,1.1,8.6,1.5l4.4.7,2.2.4,2.2.4,8.6,1.7,4.3.8,4.3.7,8.7,1.5,11.9,2s4.4,1,7.4,2c5.2,1.5,3,1.8-.3,1.6l-8-.8-12.3-2-8.6-1.5-4.3-.7-2.1-.4-2.1-.4-8.6-1.7-4.2-.7-4.2-.7c-2.9-.5-5.8-.9-8.7-1.5l-2.1-.5a18,18,0,0,1-2.2-.6l-2.1-.7a7.2,7.2,0,0,1-2.2-1,6.3,6.3,0,0,1-2.4-2,3.9,3.9,0,0,1-.7-1.6,3.4,3.4,0,0,1-.1-1A2.8,2.8,0,0,1,882.9,615.6Z" transform="translate(-882.8 -514.2)"/>
    <path class="a51d914d-9037-4f96-b13b-b58539f2084a" d="M923.6,622.7h.2a3.5,3.5,0,0,1,.7,1.2,2.4,2.4,0,0,1-.2.8,2.4,2.4,0,0,1-.9.8h-.2l-1.3-.2-.7-.2h-.5l-.5-.3-.6-.3-.3-.5c-.1-.2-.1-.4-.2-.6s-.1-.2-.1-.3v-.2a5.8,5.8,0,0,1-.3-1.4,4.1,4.1,0,0,1,0-1.1v-.9c0-.2.1-.3.1-.5s.1-.3.2-.4l.2-.4a3.5,3.5,0,0,1,.5-.8h.8l.9-.2h2.3l1.9.4,1.4.3.8.2.8.3.5.3.7.6a3.5,3.5,0,0,1,.7.9,2.7,2.7,0,0,1,.4,1.4,3.7,3.7,0,0,1-.2,1.2,1.3,1.3,0,0,1-.1.6h-.1v.4a10.5,10.5,0,0,1-.4,1.7l-1.6-.3h-1.1a19.9,19.9,0,0,0-2.6-.6c-.5-.1-.7-.2-.6-.4a2.8,2.8,0,0,1,1.2-.5,8.3,8.3,0,0,1,2.3-.1c0-.1,0-.1.1-.1h.1c.1,0,.2.1.2,0h.3v-.3h0a.6.6,0,0,1,.1-.4,1.9,1.9,0,0,0-.1-.8c0-.2-.1-.3-.1-.4l-.7-.4h-1.4l-1.1-.2-1.8-.4h-1.5c0-.1,0,.1-.1.2v.3a2.2,2.2,0,0,0,.1.8,3.4,3.4,0,0,0,.1,1h.1s-.1,0,.1.1h.5Z" transform="translate(-882.8 -514.2)"/>
  </g>
</svg>
