<svg id="f95a09cd-274c-48bf-aa1b-68f0363e8b51" data-name="Objects" xmlns="http://www.w3.org/2000/svg" viewBox="0 0 86.8 90.8">
  <defs>
    <style>
      .a92beb75-9785-4127-8855-3de29e9942b0 {
        fill: #252525;
      }
    </style>
  </defs>
  <g>
    <path class="a92beb75-9785-4127-8855-3de29e9942b0" d="M551.7,778.1a.1.1,0,0,1,.1.1c.2.5.4,1.5-1,1.7s-.2,0-.2-.1l-2.9-1.8c-4.3-2.5-9-4.7-13.8-5.1a22.4,22.4,0,0,0-7.3.7,20.5,20.5,0,0,0-6.5,3.1,22,22,0,0,0-8.2,11.8,21.3,21.3,0,0,0,.5,14.3,29,29,0,0,0,8.9,11.6,19.7,19.7,0,0,0,6.4,3.4l.8.2.9.2,1.8.2h3.7a46.5,46.5,0,0,0,7.5-.7,12.2,12.2,0,0,0,3.4-1,4.1,4.1,0,0,0,1.3-.8l.4-.4v-.4a.4.4,0,0,0-.1-.3h-.1c-.1-.1-.1-.1-.1-.2l-.3-.4a3.5,3.5,0,0,0-.5-.8l-.9-1.6a24,24,0,0,1-1.7-3.2,4.9,4.9,0,0,1-.6-1.9c-.1-.3,0-.4.1-.4a1.7,1.7,0,0,1,.6.6,7.4,7.4,0,0,0,.9,1.2,19.4,19.4,0,0,0,1.7,2.1,8.3,8.3,0,0,1,1.2,1.6l.6.7.6.9.2.5h.1c.1,0,.1.1.1.2v.6a2.6,2.6,0,0,1-.1,1.5,2.4,2.4,0,0,1-.7,1.2,5.5,5.5,0,0,1-1.9,1.2,7.3,7.3,0,0,1-1.9.7,28.7,28.7,0,0,1-3.8.8,49.8,49.8,0,0,1-7.7.5c-1.3-.1-2.6-.1-3.9-.3h-1l-1-.2-1.9-.6a23.6,23.6,0,0,1-6.6-4.1,36.5,36.5,0,0,1-5.3-5.8,27.6,27.6,0,0,1-3.6-6.8,24.8,24.8,0,0,1,9.2-27.9l1.7-1.1,1.8-.9a22.9,22.9,0,0,1,3.7-1.2,20.5,20.5,0,0,1,7.8-.6,25,25,0,0,1,7.6,1.9,43.2,43.2,0,0,1,6.8,3.4Z" transform="translate(-489.9 -751.5)"/>
    <path class="a92beb75-9785-4127-8855-3de29e9942b0" d="M544,807.9h-.1c-.5-.3-1.1-1.1.1-1.9h.1l3.5.3,9.5.7,9.5.7,1.9.2,5.4,1c3.7.8,2.1,1.1-.2,1.2h-5.6l-1.7-.2-9.5-.8-9.4-.7Z" transform="translate(-489.9 -751.5)"/>
    <path class="a92beb75-9785-4127-8855-3de29e9942b0" d="M574.8,810h.1c.5-.3,1.4-.5,1.8.9v.2a20.2,20.2,0,0,0-1.4,3c-.7,1.6-1.3,3.3-1.9,4.9l-1.8,4.9-1.9,4.9c-.7,1.6-1.4,3.2-2,4.9l-.7,1.8s-.3.7-.8,1.6-.5,1.1-.8,1.6-.7,1.1-1,1.6c-1.9,3.2-1.7,1.6-1-.6-.1.1.5-1.2.9-2.5s.9-2.8.9-2.8l.8-2,1-2.7c.8-1.8,1.5-3.6,2.2-5.4s1.4-3.6,2-5.5,1.4-3.5,2.1-5.4A33.1,33.1,0,0,1,574.8,810Z" transform="translate(-489.9 -751.5)"/>
    <path class="a92beb75-9785-4127-8855-3de29e9942b0" d="M563.8,841.2h0a2.3,2.3,0,0,1-1.7,1H562l-.7-1-1.4-2.3a15.8,15.8,0,0,1-1.4-2.3l-.7-1.1a12.6,12.6,0,0,1-.5-2.1c-.4-1.6.3-1.2,1-.6l.7.9.7.9.6,1c.4.6.8,1.4,1.4,2.2l1.4,2.3Z" transform="translate(-489.9 -751.5)"/>
    <path class="a92beb75-9785-4127-8855-3de29e9942b0" d="M556.3,832.3h.1a1.2,1.2,0,0,1,1,.2,1.2,1.2,0,0,1,.2,1.3s0,.2-.1.2l-.8.6-1,.5-1.2.5a5.2,5.2,0,0,1-1.5.7,24.9,24.9,0,0,1-5.4,2l-2.8.6a23,23,0,0,1-2.8.6l-1.5.2-1.5.2h-3.1a58,58,0,0,1-12.3-1.4l-3.1-.8-3.1-1.1-3-1.4-2.9-1.5a47.2,47.2,0,0,1-10.4-8.6,43.5,43.5,0,0,1-7.4-11.5,42.7,42.7,0,0,1-3.5-13.5,46.9,46.9,0,0,1,.6-14,53.1,53.1,0,0,1,2-6.8,46.5,46.5,0,0,1,3.2-6.3,48.2,48.2,0,0,1,9-10.6,45.2,45.2,0,0,1,11.7-7.1,44.5,44.5,0,0,1,12.8-3.6,42.8,42.8,0,0,1,12.9.5,44.9,44.9,0,0,1,11.7,4l1.3.7,1.3.7,2.5,1.5a27.8,27.8,0,0,1,4.5,3.7,19.3,19.3,0,0,1,3.5,4.6,14.2,14.2,0,0,1,1.9,5.2,12.6,12.6,0,0,1-.4,5.5,6.1,6.1,0,0,0-.5,1.2,13.5,13.5,0,0,1-2.3,3.2,5.4,5.4,0,0,1-2.2,1.5,5.7,5.7,0,0,1-2.5.6,9.2,9.2,0,0,1-2.4-.1h-.4l-1-.2-.6-.2h-.2a12.3,12.3,0,0,1-1.8-.9,14.8,14.8,0,0,1-3-2.1c-1.5-1.2-1.8-1.7-1.5-1.8a8.9,8.9,0,0,1,2.2.9l2.4,1.1,1.8.7.8.2.7.2h2.3a5.8,5.8,0,0,0,4.7-2.4,7.8,7.8,0,0,0,1.1-1.8,9.5,9.5,0,0,0,.9-4.1,11.3,11.3,0,0,0-1-4.4,21,21,0,0,0-6.3-7.7l-2.2-1.6-2.3-1.4-2.5-1.3-1.2-.6-1.3-.5a38.6,38.6,0,0,0-11.2-3,37.8,37.8,0,0,0-12.1.4,46.6,46.6,0,0,0-11.9,4.1,40.9,40.9,0,0,0-10.6,7.3,47.6,47.6,0,0,0-7.9,10.4,38.7,38.7,0,0,0-4.2,12.4,49.4,49.4,0,0,0-.1,13.3l.2.8c0,.3.1.5.1.8l.3,1.6c.1.6.3,1.1.4,1.6l.4,1.6c.4,1,.7,2.1,1.1,3.1l.7,1.5.3.7.4.8a42,42,0,0,0,17.3,18.3l2.8,1.4,1.4.6,1.4.5,1.5.5,1.4.4,1.5.4,1.5.3a47.5,47.5,0,0,0,11.7,1.2l2.9-.2,1.4-.2h.6l.7-.2,5.4-1.3,1.3-.3,1.3-.5.6-.2.6-.3.5-.2.7-.3.9-.5,1.1-.5.8-.4Z" transform="translate(-489.9 -751.5)"/>
    <path class="a92beb75-9785-4127-8855-3de29e9942b0" d="M559.9,783h-.2c-.5.3-1.4.4-1.6-1v-.2L560,779l.2-.3,1-1.6,1.2-1.5a30.8,30.8,0,0,1,2.4-2.7c1.4-1.3,1.9-1.6,1.9-1.3s-.1.4-.3.8-.5.8-.7,1.3a21.4,21.4,0,0,0-1.5,2.3c-.3.6-.7,1.2-.9,1.7l-.5.7-.9,1.4-.2.3Z" transform="translate(-489.9 -751.5)"/>
    <path class="a92beb75-9785-4127-8855-3de29e9942b0" d="M555.8,781.5c0,.1,0,.1-.1.1s-1.5,0-1.4-1.4h0l.6-.6.6-.7,1-1.2c.5-.7,1-1.4,1.4-2.1l1-1.7,1.1-1.5,2-2.9c2.3-3,2-1.5,1,.7.1-.1-.5,1.1-1.1,2.4s-.7,1.3-.9,1.8l-.4.8-.9,1.5-1.5,2.2-1.2,1.4a1.9,1.9,0,0,1-.6.7Z" transform="translate(-489.9 -751.5)"/>
    <path class="a92beb75-9785-4127-8855-3de29e9942b0" d="M551.6,779h-.1c-.5.2-1.6.4-1.7-1v-.2l2-2.9,3.7-5.5,1.1-1.6s2-2.5,3.6-4.1,2-1.4.9.7l-2.9,4.8-.9,1.4-3.8,5.5Z" transform="translate(-489.9 -751.5)"/>
    <path class="a92beb75-9785-4127-8855-3de29e9942b0" d="M547,775.2h-.1c-.5.2-1.5.2-1.5-1.2s0-.2.1-.2l2.2-2.6,1.7-2.2,1.7-2.1,1.1-1.6,1.2-1.4,2.3-2.7c2.5-2.9,2-1.4.9.7l-1.3,2.4-1.6,2.4-.9,1.4-1.7,2.2-1.8,2.2Z" transform="translate(-489.9 -751.5)"/>
    <path class="a92beb75-9785-4127-8855-3de29e9942b0" d="M543,773h-.1c-.5.2-1.5.3-1.7-1.1a.3.3,0,0,1,.1-.2l1.9-2.9,3.4-4.6,1.1-1.5s2.2-2.4,3.8-3.9,2.1-1.2.9.7a21.3,21.3,0,0,1-1.5,2.3l-1.7,2.4-1,1.3-3.3,4.5Z" transform="translate(-489.9 -751.5)"/>
    <path class="a92beb75-9785-4127-8855-3de29e9942b0" d="M536.7,771.5c0,.1,0,.1-.1.1s-1.5.3-1.6-1.1v-.2l2.1-2.8,2.8-3.6a15.8,15.8,0,0,1,1.2-1.5l1.2-1.4,2.6-2.4c2.8-2.6,2.2-1.2.8.8l-1.5,2.2-1.7,2.3-1,1.3-2.7,3.6Z" transform="translate(-489.9 -751.5)"/>
    <path class="a92beb75-9785-4127-8855-3de29e9942b0" d="M528.4,772.7h-.1c-.5.2-1.5.4-1.6-1v-.2l1.9-2.9c2-2.9,3.9-5.9,6-8.8l1.1-1.6,1.2-1.4,2.5-2.6c2.8-2.6,2.1-1.1.9.8,0-.1-.7,1.1-1.5,2.3l-1.5,2.4-1,1.3-6,8.8Z" transform="translate(-489.9 -751.5)"/>
    <path class="a92beb75-9785-4127-8855-3de29e9942b0" d="M521.1,773.7H521c-.5.2-1.5.4-1.6-1v-.2l1.9-2.9,3.4-5.1,1.8-2.5,1.8-2.5,1.1-1.5.4-.4.9-1a30.1,30.1,0,0,1,2.5-2.6c2.6-2.7,2.1-1.2.8.8l-1.5,2.2-1.6,2.4-.9,1.4-1.8,2.4-1.7,2.5-3.5,5.1Z" transform="translate(-489.9 -751.5)"/>
    <path class="a92beb75-9785-4127-8855-3de29e9942b0" d="M493.8,809h-.1c-.5.3-1.5.6-1.8-.8s-.1-.1,0-.1l1.5-3.2,1.8-3.1,1.9-3c1.2-2,2.5-3.9,3.7-6,2.4-4,4.8-8,7.3-11.9l3.8-6,3.9-5.8c1.3-2,2.5-4,3.9-5.9l1.3-1.9s1.9-2.5,3.5-4.2,2-1.3.9.8l-2.9,4.8-1.6,2.3-3.8,5.8-3.8,5.8-3.7,5.8-1.8,2.9-1.8,2.9-3.6,5.9c-2.4,4-5,7.8-7.1,11.8C494.7,807,494.3,808,493.8,809Z" transform="translate(-489.9 -751.5)"/>
    <path class="a92beb75-9785-4127-8855-3de29e9942b0" d="M493,797.8h-.2c-.4.2-1.4.5-1.7-.9v-.2l1.7-3.1c3.5-6.3,7.4-12.4,11.5-18.4,2-3,4.1-6,6.2-8.9l3.2-4.4,1.3-1.8s2-2.4,3.6-4,2.1-1.3.9.7c.2-.2-3,4.8-3,4.8l-1.5,2.1-3.1,4.3c-2.1,2.8-4.1,5.7-6.1,8.7-4,5.8-7.8,11.8-11.2,17.9Z" transform="translate(-489.9 -751.5)"/>
    <path class="a92beb75-9785-4127-8855-3de29e9942b0" d="M493.3,787.6h-.1c-.5.3-1.6.4-1.7-1v-.2l1.9-2.8c2.4-3.4,4.6-6.9,7.1-10.1l3.7-5,1.9-2.4,1.3-1.6s2.2-2.4,3.9-3.9,2.1-1.2.8.8l-3.2,4.6-1.4,1.7-1.8,2.4-3.6,4.8c-2.5,3.1-4.6,6.5-6.9,9.8Z" transform="translate(-489.9 -751.5)"/>
    <path class="a92beb75-9785-4127-8855-3de29e9942b0" d="M497,814.6c-.1,0-.1,0-.1.1s-1.5.5-1.8-.9h0a30.1,30.1,0,0,1,1.6-3.1,125,125,0,0,1,7.8-12.1l1.1-1.6,1.3-1.4,2.4-2.6c2.6-2.8,2.1-1.3.9.7l-1.5,2.3-1.1,1.7a2.5,2.5,0,0,0-.4.8l-1,1.3a99.7,99.7,0,0,0-7.6,11.9A28.5,28.5,0,0,0,497,814.6Z" transform="translate(-489.9 -751.5)"/>
    <path class="a92beb75-9785-4127-8855-3de29e9942b0" d="M499.8,820.6h-.1c-.5.2-1.5.4-1.7-1.1h0l1.8-3,4.5-7.2,1.1-1.7s1.8-2.6,3.3-4.3,1.9-1.4.9.7c.2-.2-2.6,5-2.6,5l-.9,1.4-4.5,7.2Z" transform="translate(-489.9 -751.5)"/>
    <path class="a92beb75-9785-4127-8855-3de29e9942b0" d="M503.8,824h-.2c-.4.2-1.4.4-1.6-1v-.2l1.7-3,3.1-5.2,1-1.6s1.8-2.7,3.2-4.4,1.9-1.5.9.6c.2-.2-2.5,5-2.5,5l-.8,1.5-3.1,5.2Z" transform="translate(-489.9 -751.5)"/>
    <path class="a92beb75-9785-4127-8855-3de29e9942b0" d="M508.3,828.8a.1.1,0,0,1-.1.1c-.5.3-1.4.7-1.9-.7V828l.7-1.6.8-1.6,1.5-2.8,1.6-2.8.9-1.7,3.1-4.4c2-3.2,1.8-1.7,1,.5a22.2,22.2,0,0,1-1.1,2.6c-.6,1.3-1.3,2.6-1.3,2.6l-.8,1.4-1.6,2.8c-.5.9-1,1.8-1.4,2.7l-.8,1.6Z" transform="translate(-489.9 -751.5)"/>
    <path class="a92beb75-9785-4127-8855-3de29e9942b0" d="M512,832h-.1a1.1,1.1,0,0,1-1.9-.5v-.2c.2-.6.3-1.2.5-1.7l.7-1.7.9-2,1.1-2,.9-1.7,1-1.6,2-2.9c2.1-3.1,1.9-1.6,1,.6a26.4,26.4,0,0,1-1.1,2.5l-1.2,2.6a10.9,10.9,0,0,0-.8,1.5l-1,1.9-.9,1.9-.6,1.6C512.3,830.9,512.2,831.4,512,832Z" transform="translate(-489.9 -751.5)"/>
    <path class="a92beb75-9785-4127-8855-3de29e9942b0" d="M517.7,834.1h-.1a1.2,1.2,0,0,1-.8.5,1.3,1.3,0,0,1-1.1-.7.3.3,0,0,0-.1-.2,18.9,18.9,0,0,1,1-3.6c.5-1.3,1.1-2.6,1.7-3.8l.9-1.8,1-1.6c.6-.9,1.3-2,2-2.9s1.4-2,1.6-1.7a6.7,6.7,0,0,1-.6,2.3,26.4,26.4,0,0,1-1.1,2.5l-1.2,2.6-.7,1.5c-.6,1.2-1.2,2.4-1.7,3.6A18.7,18.7,0,0,0,517.7,834.1Z" transform="translate(-489.9 -751.5)"/>
    <path class="a92beb75-9785-4127-8855-3de29e9942b0" d="M521.6,836.6a.1.1,0,0,1-.1.1,1.1,1.1,0,0,1-1.8-.6c0-.1-.1-.2,0-.2l1.3-3.3.3-.8.3-.7.8-1.6c.4-1,.9-2,1.4-3l.9-1.8s1.5-2.7,2.8-4.6,1.8-1.7,1,.6c.1-.1-.5,1.2-1,2.5l-1.1,2.7-.7,1.5-1.5,3-.7,1.5-.3.8-.3.7Z" transform="translate(-489.9 -751.5)"/>
    <path class="a92beb75-9785-4127-8855-3de29e9942b0" d="M527.9,836.4h-.1a1.1,1.1,0,0,1-1.8-.7.3.3,0,0,1-.1-.2l1.4-3.2,2-4.8.8-1.8s1.5-2.8,2.7-4.7,1.8-1.6,1,.6c.2-.2-1.9,5.2-1.9,5.2l-.7,1.5-2,4.8Z" transform="translate(-489.9 -751.5)"/>
    <path class="a92beb75-9785-4127-8855-3de29e9942b0" d="M533.4,837.6h-.1c-.5.3-1.4.5-1.7-.9v-.2a10.9,10.9,0,0,0,.8-1.5l.8-1.5,1.1-2.7,1-2.8.6-1.8s1.2-3,2.3-5,1.6-1.7,1,.5c.1-.1-.3,1.2-.6,2.6l-.8,2.8-.5,1.6c-.4.9-.7,1.9-1.1,2.8l-1.1,2.9-.8,1.6Z" transform="translate(-489.9 -751.5)"/>
    <path class="a92beb75-9785-4127-8855-3de29e9942b0" d="M540.5,837c-.1.1-.1.1-.1.2s-1.4.7-1.9-.6v-.2l1.1-3.3c.6-1.7,1.3-3.4,2-5l1-2.5,1.1-2.5.9-1.7.2-.5.7-1.2,2-2.9c2.2-3.2,1.9-1.6,1,.6a26.4,26.4,0,0,1-1.1,2.5l-.4.9-.4.9-.3.8-.7,1.5-1.1,2.4-1,2.5a41.4,41.4,0,0,0-1.9,4.9Z" transform="translate(-489.9 -751.5)"/>
    <path class="a92beb75-9785-4127-8855-3de29e9942b0" d="M546.5,835.9h-.1a1.1,1.1,0,0,1-1.8-.7c0-.1-.1-.2,0-.2l1.2-3.2,1.5-3.9,1.4-4c1-2.6,1.8-5.2,2.8-7.9l.6-1.8s1.2-2.9,2.2-4.9,1.6-1.9,1.1.4c.1-.2-1.4,5.4-1.4,5.4l-.6,1.6-2.7,7.9-1.4,4-1.5,3.9Z" transform="translate(-489.9 -751.5)"/>
    <path class="a92beb75-9785-4127-8855-3de29e9942b0" d="M552,835.7h-.1c-.4.4-1.3.9-1.9-.4v-.2l.4-1.7.2-.9.3-.8a131.8,131.8,0,0,1,5-13.7l.8-1.7.9-1.7,1.7-3.1c1.9-3.3,1.8-1.7,1.1.5,0-.1-.4,1.3-.9,2.6l-1,2.7-.6,1.5a115.8,115.8,0,0,0-5,13.5,1.9,1.9,0,0,0-.2.8l-.2.8Z" transform="translate(-489.9 -751.5)"/>
    <path class="a92beb75-9785-4127-8855-3de29e9942b0" d="M558.8,834.3c-.1.1-.1.1-.1.2a1.2,1.2,0,0,1-2-.3V834l.3-1.7c.1-.3.1-.6.2-.9l.2-.9a90.1,90.1,0,0,1,4.4-12.3l.8-1.8s.3-.7.8-1.6l1.7-3.1c1.8-3.4,1.7-1.8,1,.5a18.7,18.7,0,0,1-.8,2.6c-.5,1.3-.9,2.7-.9,2.7l-.7,1.5a91.3,91.3,0,0,0-4.2,12.1l-.3.8c0,.2-.1.5-.1.8Z" transform="translate(-489.9 -751.5)"/>
    <path class="a92beb75-9785-4127-8855-3de29e9942b0" d="M562.3,838.1c0,.1,0,.1-.1.2s-1.3.9-1.9-.4h-.1c.3-1.2.5-2.3.8-3.5a145.4,145.4,0,0,1,5.6-16.9l.6-1.8.8-1.7c.2-.5.5-1,.7-1.6l.8-1.6c1.6-3.4,1.6-1.9,1.1.5,0-.2-.3,1.2-.7,2.6l-.8,2.8-.6,1.6a169.7,169.7,0,0,0-5.5,16.6C562.7,835.9,562.5,837,562.3,838.1Z" transform="translate(-489.9 -751.5)"/>
    <path class="a92beb75-9785-4127-8855-3de29e9942b0" d="M549.1,815.5H549a2.9,2.9,0,0,1-1.8-.7h-.1l.3-.8.3-.8a4.4,4.4,0,0,1,.2-1c.4-1.3.7-2.6.7-2.6v-.2l.2-.3.7-.8c.8-.9,1.1-.3,1.1.4a8.1,8.1,0,0,1-.1,1.5l-.7,2.6a4.4,4.4,0,0,0-.2,1l-.3.9A4.2,4.2,0,0,0,549.1,815.5Z" transform="translate(-489.9 -751.5)"/>
  </g>
</svg>
