<svg id="b28fcd47-2935-43f7-8dba-380e4129d170" data-name="Objects" xmlns="http://www.w3.org/2000/svg" viewBox="0 0 38.2 52.2">
  <defs>
    <style>
      .a9ee1dac-8c8f-4aff-9c4a-a63e2030c564 {
        fill: #252525;
      }
    </style>
  </defs>
  <g>
    <path class="a9ee1dac-8c8f-4aff-9c4a-a63e2030c564" d="M781.3,847.8h0a1.5,1.5,0,0,1,.6-1.2h0l.7.3,1.3.9L785,849l.3.4v.2h0a.8.8,0,0,0,.1.4,3.1,3.1,0,0,1-.1.9c-.1.5-.2.6-.4.5s-.2-.2-.3-.4a1.4,1.4,0,0,1-.3-.5l-.3-.4-.3-.5-.8-.9-1.2-.7Z" transform="translate(-760.7 -835.1)"/>
    <path class="a9ee1dac-8c8f-4aff-9c4a-a63e2030c564" d="M785.3,852h-.1c-.3-.1-.9-.5-.3-1.3a.1.1,0,0,0,.1-.1l2.3-.5,2-.6,1.3-.3,3.6-.5c2.6-.3,1.7.3.2.8l-3.6,1.1-1.1.3-2.1.5Z" transform="translate(-760.7 -835.1)"/>
    <path class="a9ee1dac-8c8f-4aff-9c4a-a63e2030c564" d="M781.7,840.2h-.1l-.5-.5c-.1-.2-.1-.4.2-.8h.2a10.3,10.3,0,0,1,2.5.1,26.4,26.4,0,0,1,4.6,1.3,13.1,13.1,0,0,1,4,2.6l1,1,.2.3a5.6,5.6,0,0,1,.5.8l.4.5.3.5a3.7,3.7,0,0,0,.5,1.1c.9,2.5.1,1.7-.7.4s-.5-.7-1.1-1.4l-.8-1-.4-.3h-.1l-.7-.8a15.4,15.4,0,0,0-3.7-2.3,29,29,0,0,0-4.2-1.2A7.7,7.7,0,0,0,781.7,840.2Z" transform="translate(-760.7 -835.1)"/>
    <path class="a9ee1dac-8c8f-4aff-9c4a-a63e2030c564" d="M775.5,839.7h0c-.2.3-.7.9-1.3.2a.1.1,0,0,1-.1-.1c-.1-.8-.1-1.6-.2-2.4v-1.8H776l2.8-.2h2.9v.3a9.9,9.9,0,0,1,.1,1.5,5.3,5.3,0,0,1-.1,1.3c-.2,2.5-.5,1.5-.8-.1a9.6,9.6,0,0,0-.2-1.7h-.1a.1.1,0,0,1-.1.1h-1.7l-2.7.2h-.8v.7C775.4,838.2,775.4,839,775.5,839.7Z" transform="translate(-760.7 -835.1)"/>
    <path class="a9ee1dac-8c8f-4aff-9c4a-a63e2030c564" d="M774.3,838.9h.2a.9.9,0,0,1,.3.6c0,.2-.1.4-.4.7h-.1a5.1,5.1,0,0,0-2.1.3,25.3,25.3,0,0,0-4.2,1.8,11.8,11.8,0,0,0-1.8,1.3l-.5.3-.4.4-.8.8a12.3,12.3,0,0,0-2.1,3.9l-.2,1.1a3.7,3.7,0,0,0-.1,1.1,4,4,0,0,0,0,1.1,4.1,4.1,0,0,0,.1,1.1,11.3,11.3,0,0,0,4.6,7.4,15.3,15.3,0,0,0,4,2.1h.8l.6.2h.3l.9.2,2.3.6c2.5.3,1.5.6-.1.7a9.8,9.8,0,0,1-1.9,0l-1.4-.2h-.6l-.7-.2-1.2-.4a13.5,13.5,0,0,1-4.2-2.4,12.3,12.3,0,0,1-4.8-8.3,4.9,4.9,0,0,1-.1-1.2v-1.3a2.5,2.5,0,0,1,.2-1.2c.1-.4.1-.8.2-1.2a11.6,11.6,0,0,1,2.5-4.3,13.6,13.6,0,0,1,3.8-3,21.9,21.9,0,0,1,4.4-2A6.9,6.9,0,0,1,774.3,838.9Z" transform="translate(-760.7 -835.1)"/>
    <path class="a9ee1dac-8c8f-4aff-9c4a-a63e2030c564" d="M776.2,865.3h0c.2-.4.6-.9,1.3-.2a.1.1,0,0,1,.1.1c.1.8.1,1.5.2,2.3v2.1s0,2.1.1,3.6.1,1.6-.1,1.5a8.3,8.3,0,0,1-.7-1.4l-.4-1.9c-.1-.9-.3-1.9-.3-1.9v-1.9C776.3,866.9,776.3,866.1,776.2,865.3Z" transform="translate(-760.7 -835.1)"/>
    <path class="a9ee1dac-8c8f-4aff-9c4a-a63e2030c564" d="M772.7,869.1c0-.1,0-.1.1-.1a1.2,1.2,0,0,1,1.3-.2h0a7.3,7.3,0,0,1,.2.8,9.8,9.8,0,0,0,.7,1.6l1.1,1.3.6.5.4.3.7.6c.5.3.6.5.5.6s-.4.2-.7.2l-.9-.2-.6-.3h-.2l-.2-.2-.6-.4a11.2,11.2,0,0,1-1.3-1.6,6.4,6.4,0,0,1-.8-2C772.8,869.5,772.8,869.1,772.7,869.1Z" transform="translate(-760.7 -835.1)"/>
    <path class="a9ee1dac-8c8f-4aff-9c4a-a63e2030c564" d="M762.6,871.7h-.1c-.2-.1-.4-.2-.4-.4s-.1-.1-.1-.2h.1a.4.4,0,0,1,.1-.3c0-.1.1-.2.1-.3a.1.1,0,0,0,.1-.1l.9-.2h0l1.4-.2,2-.4,1.3-.3h.3l.9-.2,2.4-.3c2.5-.3,1.6.3.1.8l-1.7.6a4,4,0,0,0-1.3.4h-.6l-1.1.2-2.1.4-1.3.3h.1Z" transform="translate(-760.7 -835.1)"/>
    <path class="a9ee1dac-8c8f-4aff-9c4a-a63e2030c564" d="M761.1,871.2c0-.1,0-.1.1-.1s.4-.4.6-.3.4.3.7.6h0a3.1,3.1,0,0,0,.4,1.8,14.5,14.5,0,0,0,1.7,2.6,13.4,13.4,0,0,0,2,2.1,14.5,14.5,0,0,0,2.6,1.7,13.3,13.3,0,0,0,2.8,1,5.3,5.3,0,0,0,1.2.3h.3l.9.3,2.3.5c2.5.4,1.5.7-.1.7a5.1,5.1,0,0,1-1.9,0l-2-.2-1.1-.3a16.5,16.5,0,0,1-5.9-3,17.5,17.5,0,0,1-2.3-2.4,18.9,18.9,0,0,1-1.7-2.8,3.3,3.3,0,0,1-.5-1.2A3.2,3.2,0,0,1,761.1,871.2Z" transform="translate(-760.7 -835.1)"/>
    <path class="a9ee1dac-8c8f-4aff-9c4a-a63e2030c564" d="M777.1,882.6h.1a.7.7,0,0,1,1.2-.3h.1v.6a1.3,1.3,0,0,1,.1.6c.1.4.1.8.2,1.2v1.1H784c0,.1.1-.1.2-.4a14.1,14.1,0,0,0,.1-2.2c-.3-2.5.2-1.6.7-.1a9.9,9.9,0,0,1,.4,1.9,2.5,2.5,0,0,1-.5,1.8h-.4l-.3.2h-6.6v-.2a20.7,20.7,0,0,1-.1-2.1c-.1-.3-.1-.7-.2-1.1v-.5Z" transform="translate(-760.7 -835.1)"/>
    <path class="a9ee1dac-8c8f-4aff-9c4a-a63e2030c564" d="M782.8,855.2h-.1c-.1.2-.6.4-1.3.1h0L781,849s.1-1,.2-1.8.6-.7.8,0,.4,1.8.4,1.8S782.8,855.1,782.8,855.2Z" transform="translate(-760.7 -835.1)"/>
    <path class="a9ee1dac-8c8f-4aff-9c4a-a63e2030c564" d="M783.9,873.7h0a.7.7,0,0,1-1.3.1.1.1,0,0,1-.1-.1v-2.3c-.1-.9-.1-1.8-.2-2.7v-2.2a5.3,5.3,0,0,1-.1-1.3V865h.3l.6.2,1.2.4.7.3.6.4.6.4.5.6.8,1.3a3.7,3.7,0,0,1,.4,1.5v.4a7.6,7.6,0,0,1-.4,1.1,2.9,2.9,0,0,1-.9,1l-1.2.7c-1.2.5-1.6.4-1.5.2a5.6,5.6,0,0,1,1.2-.9,7.2,7.2,0,0,0,1.1-1.2,1.1,1.1,0,0,0,.3-.9v-.4c0-.2-.1-.3-.1-.5s-.1-.3-.2-.4a3.7,3.7,0,0,0-1.4-1.8l-.5-.3-.5-.2h-.1v1.8c.1.9.1,1.8.2,2.7Z" transform="translate(-760.7 -835.1)"/>
    <path class="a9ee1dac-8c8f-4aff-9c4a-a63e2030c564" d="M784.8,882.2h-.1c-.4-.1-.9-.5-.3-1.3a.1.1,0,0,0,.1-.1l1.1-.2,1.1-.3a21.7,21.7,0,0,0,4.4-1.9,15.2,15.2,0,0,0,3.7-3,9.8,9.8,0,0,0,2.2-4,12,12,0,0,0,.4-4.6,9.5,9.5,0,0,0-1.4-4.4,14.1,14.1,0,0,0-7.5-5.5h-.8l-.7-.2h-.3l-.8-.3-2.3-.6c-1.2-.2-1.6-.4-1.5-.5a4.7,4.7,0,0,1,1.6-.2h1.9l1.4.2h.6l.6.2h.7l.6.2a19.5,19.5,0,0,1,4.5,2.4,13.8,13.8,0,0,1,3.4,3.8,14.5,14.5,0,0,1,1.5,5,14,14,0,0,1-.6,5c-.2.5-.3.9-.5,1.3a5.4,5.4,0,0,1-.5,1.1l-.2.3-.2.3-.4.5a3.9,3.9,0,0,1-.8,1,18.5,18.5,0,0,1-8.6,5.1l-1.1.4Z" transform="translate(-760.7 -835.1)"/>
    <path class="a9ee1dac-8c8f-4aff-9c4a-a63e2030c564" d="M777,853.7h0a.8.8,0,0,1-1.3.4.1.1,0,0,0-.1-.1,20,20,0,0,1-.4-2.4c-.1-1.1-.2-2.1-.2-3.1v-.2h-.1l-.3.3a3.7,3.7,0,0,0-1.2,1.3,1.7,1.7,0,0,0-.3,1,2.3,2.3,0,0,0,0,.9,1.9,1.9,0,0,0,.6.7l.9.6,1.1.5c.2.1.3.2.2.3a3,3,0,0,1-1.6-.1h-.6a4.4,4.4,0,0,1-1.3-.9,3.4,3.4,0,0,1-.7-1.5v-1.1a.4.4,0,0,1,.1-.3,1.1,1.1,0,0,1,.2-.6,4.7,4.7,0,0,1,1.6-1.8l.4-.3.2-.2.3-.2,1.3-.9h.2v2.5c0,1,.1,2,.2,3A14.3,14.3,0,0,0,777,853.7Z" transform="translate(-760.7 -835.1)"/>
    <path class="a9ee1dac-8c8f-4aff-9c4a-a63e2030c564" d="M762.5,871h0l.2-.3.4.2h.1c0,.1.1.2.2.4l.3.5,1.3,2.4.6,1.2.7,1.2.3.5s.5.9.8,1.6.1.8-.3.1l-1.1-1.4-.3-.5a7.5,7.5,0,0,0-.7-1.2l-.6-1.2-1.3-2.4-.3-.4Z" transform="translate(-760.7 -835.1)"/>
    <path class="a9ee1dac-8c8f-4aff-9c4a-a63e2030c564" d="M764,870.1h0l.3-.2.4.2h0c0,.3.2.5.4.9l2.1,3.8,1.9,3.4.7,1.6c.4,1.1.1.8-.4.2a11.9,11.9,0,0,0-.9-1.5l-1.9-3.5-2.1-3.7A2.2,2.2,0,0,1,764,870.1Z" transform="translate(-760.7 -835.1)"/>
    <path class="a9ee1dac-8c8f-4aff-9c4a-a63e2030c564" d="M766.1,870.3h0c0-.2.2-.5.6-.3h0l.5,1a33.7,33.7,0,0,0,1.9,3.8l1,1.8.5,1,.3.6a15,15,0,0,1,.6,1.6c.5,1.2.1.8-.3.1s-.9-1.5-.9-1.5l-.2-.3c0-.1-.1-.2-.2-.3l-.5-.9-1-1.9c-.6-1.2-1.3-2.5-1.8-3.8Z" transform="translate(-760.7 -835.1)"/>
    <path class="a9ee1dac-8c8f-4aff-9c4a-a63e2030c564" d="M768.1,869.8h0c.1-.2.2-.4.6-.2h.1v.5l.3.5c.9,1.5,1.7,3.2,2.6,4.8l1.2,2.4.9,1.9.6,1.6c.4,1.2,0,.8-.4.2l-.9-1.6-.9-1.9c-.3-.8-.8-1.6-1.2-2.4l-1.2-2.4-1.3-2.3-.3-.5Z" transform="translate(-760.7 -835.1)"/>
    <path class="a9ee1dac-8c8f-4aff-9c4a-a63e2030c564" d="M770.3,869.8h0c0-.1,0-.2.1-.2s.3,0,.5.1h0l.4.9.2.2v.2h0l2.4,4.9c.4.8.7,1.7,1.1,2.5l.8,1.9.5,1.6c.3,1.2,0,.8-.4.2l-.8-1.7-.8-1.8a18.6,18.6,0,0,0-1-2.5l-2.4-4.8h-.1v-.2A5.4,5.4,0,0,1,770.3,869.8Z" transform="translate(-760.7 -835.1)"/>
    <path class="a9ee1dac-8c8f-4aff-9c4a-a63e2030c564" d="M771.8,869.2c0-.1-.1-.1,0-.1s.1-.4.5-.2h.1a4.2,4.2,0,0,0,.4,1,39,39,0,0,1,1.9,3.5l1.8,3.5,1.6,3.6.9,1.8.3.7a15,15,0,0,1,.6,1.6c.4,1.2,0,.8-.4.2l-.9-1.6-.3-.8-.8-1.8-1.7-3.5c-.5-1.2-1.1-2.3-1.7-3.5s-1.3-2.2-1.9-3.4A4.2,4.2,0,0,1,771.8,869.2Z" transform="translate(-760.7 -835.1)"/>
    <path class="a9ee1dac-8c8f-4aff-9c4a-a63e2030c564" d="M776.1,873.9h0c0-.2.2-.5.6-.3h0l.5,1,1.2,2.7,1.4,2.6,1.4,2.7.6,1.3.4.6s.4,1,.6,1.7,0,.7-.4.1l-.9-1.6-.3-.7c-.2-.4-.5-.8-.7-1.3l-1.3-2.6-1.4-2.6-1.2-2.6Z" transform="translate(-760.7 -835.1)"/>
    <path class="a9ee1dac-8c8f-4aff-9c4a-a63e2030c564" d="M777.1,871.7h0c.1-.2.2-.5.6-.3h.1l.4,1,2.9,5.5c.5.9,1,1.9,1.4,2.8l1,2,.7,1.6c.4,1.2,0,.8-.4.2l-.9-1.6-1-2.1-1.4-2.7-2.9-5.4Z" transform="translate(-760.7 -835.1)"/>
    <path class="a9ee1dac-8c8f-4aff-9c4a-a63e2030c564" d="M777.1,868.4h0c0-.2.2-.4.6-.2h0a3.1,3.1,0,0,0,.5,1c.5.9,1.1,1.7,1.7,2.7l1.5,2.8,2.7,4.8.7,1.6c.4,1.2.1.8-.4.2l-.9-1.5-2.7-4.9-1.5-2.7c-.5-.9-1.2-1.7-1.7-2.7A4.7,4.7,0,0,1,777.1,868.4Z" transform="translate(-760.7 -835.1)"/>
    <path class="a9ee1dac-8c8f-4aff-9c4a-a63e2030c564" d="M777.1,864.9h0c0-.2.2-.4.6-.2h0l.4.9,1.3,1.7a4.1,4.1,0,0,1,.5.9l.6.8,2.2,3.6,3.8,5.9.8,1.5c.5,1.1.1.8-.4.2l-1-1.5-3.8-5.9-2.2-3.5c-.4-.5-.7-1.1-1.1-1.7l-1.2-1.6A5.4,5.4,0,0,1,777.1,864.9Z" transform="translate(-760.7 -835.1)"/>
    <path class="a9ee1dac-8c8f-4aff-9c4a-a63e2030c564" d="M764.3,844.7h0a.2.2,0,0,1,.2-.2c.1-.1.2,0,.4.1h0a4.1,4.1,0,0,0,.5.9l.8,1.1.8,1.2,1.4,2.3,2.9,4.7,4.8,7.7s.5.9.8,1.6.1.8-.4.2a13,13,0,0,0-1-1.5l-4.8-7.8-2.9-4.6-1.4-2.3-.8-1.1-.7-1.1A6,6,0,0,1,764.3,844.7Z" transform="translate(-760.7 -835.1)"/>
    <path class="a9ee1dac-8c8f-4aff-9c4a-a63e2030c564" d="M763.2,846.9h0c0-.1-.1-.2,0-.3s.1-.2.3-.2h.1a3,3,0,0,1,.8.8c1.1,1.4,1.9,2.9,2.8,4.3l2.6,4.3,2.7,4.2.7,1.1.7,1,.4.6.9,1.5c.6,1.1.2.8-.3.2a17.4,17.4,0,0,1-1.2-1.4l-.5-.8a14.3,14.3,0,0,1-1.4-2c-.9-1.4-1.8-2.8-2.6-4.2l-2.6-4.2a41.5,41.5,0,0,0-2.7-4.1Z" transform="translate(-760.7 -835.1)"/>
    <path class="a9ee1dac-8c8f-4aff-9c4a-a63e2030c564" d="M761.9,847.8h0c0-.2.1-.5.5-.4a.1.1,0,0,1,.1.1l.6.9,2.2,3.4,2.2,3.5,2,3.6a16.2,16.2,0,0,1,1,1.8l.3.6a16.5,16.5,0,0,1,.7,1.6c.5,1.2.1.8-.3.2s-1-1.5-1-1.5l-.4-.8a16.2,16.2,0,0,0-1-1.8l-2-3.4-2.1-3.5-2.2-3.3Z" transform="translate(-760.7 -835.1)"/>
    <path class="a9ee1dac-8c8f-4aff-9c4a-a63e2030c564" d="M761.7,850.2h0c0-.1.2-.4.6-.2h0l.5,1a32,32,0,0,0,2.6,4.8l2.5,4,.8,1.6c.5,1.1.1.8-.3.2l-.5-.7-.6-.8-2.5-4.1a26.8,26.8,0,0,1-2.6-4.7Z" transform="translate(-760.7 -835.1)"/>
    <path class="a9ee1dac-8c8f-4aff-9c4a-a63e2030c564" d="M761,853.6h0c0-.2.1-.5.5-.4h.1l.6.9,2.2,3.6.3.5a9.5,9.5,0,0,1,.7,1.6c.6,1.1.2.8-.3.2s-1-1.5-1-1.5l-.3-.4-2.2-3.6Z" transform="translate(-760.7 -835.1)"/>
    <path class="a9ee1dac-8c8f-4aff-9c4a-a63e2030c564" d="M765.6,843h0c.1-.1.2-.4.6-.2h.1l.4,1a44.4,44.4,0,0,0,3.9,6.3c.8,1,1.5,2.1,2.2,3.1l1.9,3.2c1.3,2.1,2.6,4.3,4,6.4l2,3.1.5.6.9,1.6c.5,1,.1.7-.4.2a13.4,13.4,0,0,0-1.1-1.4l-.7-1-2-3.1c-.7-1-1.3-2.1-1.9-3.1l-2-3.2c-.6-1-1.2-2.1-1.9-3.1l-2.1-3a44.4,44.4,0,0,1-3.9-6.3Z" transform="translate(-760.7 -835.1)"/>
    <path class="a9ee1dac-8c8f-4aff-9c4a-a63e2030c564" d="M784.7,873.7h0c0-.1.1-.2.2-.3h.4a4.1,4.1,0,0,0,.5.9l1.9,3,.4.5s.5.9.8,1.6.2.7-.3.2a14.3,14.3,0,0,0-1.1-1.5l-.3-.4a32.8,32.8,0,0,1-2-3.1A3.1,3.1,0,0,1,784.7,873.7Z" transform="translate(-760.7 -835.1)"/>
    <path class="a9ee1dac-8c8f-4aff-9c4a-a63e2030c564" d="M775.2,854.5h0c0-.2.1-.5.6-.3h0l.5.9.7,1.3.4.6.3.6,1.6,2.4,1.5,2.3.7,1.2.4.7a11.6,11.6,0,0,1,.7,1.5c.5,1.2.1.8-.3.2s-1-1.5-1-1.5l-.4-.6a5,5,0,0,0-.8-1.2l-1.5-2.4-1.5-2.3a7.5,7.5,0,0,0-.7-1.2l-.6-1.3Z" transform="translate(-760.7 -835.1)"/>
    <path class="a9ee1dac-8c8f-4aff-9c4a-a63e2030c564" d="M786.6,872.9h0c0-.2,0-.5.5-.4h0l.7.9a16.7,16.7,0,0,1,1.2,1.6c.4.6.7,1.2,1.1,1.7l.3.6.3.5c.1.3.3.7.4,1.1s.1.7-.3.1-.3-.3-.5-.7l-.5-.8-.3-.4-1-1.7-1.2-1.6Z" transform="translate(-760.7 -835.1)"/>
    <path class="a9ee1dac-8c8f-4aff-9c4a-a63e2030c564" d="M776,852.4h0c0-.2.2-.5.6-.3h0l.3.5.2.4a30.6,30.6,0,0,0,2.1,2.9l1.1,1.5a13,13,0,0,1,1,1.5l4.1,6.1,3.9,6.1c.6,1.1,1.3,2.1,1.9,3.1h.2v.2l.2.2.9,1.5c.6,1.1.2.8-.3.2a17.4,17.4,0,0,1-1.2-1.4l-.2-.2h-.2l-.3-.4-1.9-3-1.9-3c-.6-1.1-1.3-2.1-1.9-3l-4-6-1-1.5-1-1.4a31.5,31.5,0,0,1-2.2-2.9l-.2-.5Z" transform="translate(-760.7 -835.1)"/>
    <path class="a9ee1dac-8c8f-4aff-9c4a-a63e2030c564" d="M775.9,849.4h0c0-.1.2-.4.6-.1h0a10.4,10.4,0,0,1,.4,1c.7,1,1.6,2,2.4,3l2.4,3.2c1.6,2.1,3.1,4.2,4.6,6.4s2.9,4.4,4.3,6.6l1,1.7,1.1,1.6.5.6.4.5.6.9c.7,1,.3.8-.3.3s-.3-.3-.6-.7l-.6-.7-.2-.2h-.1l-.2-.2-.3-.4-2.1-3.3c-1.4-2.2-2.7-4.4-4.2-6.5l-4.5-6.2-2.4-3.1c-.7-1-1.6-2-2.3-3.1A5.4,5.4,0,0,1,775.9,849.4Z" transform="translate(-760.7 -835.1)"/>
    <path class="a9ee1dac-8c8f-4aff-9c4a-a63e2030c564" d="M775.2,846.5h0c.1-.2.3-.3.6-.1h.1a3.2,3.2,0,0,0,.3.9,20.5,20.5,0,0,0,2.6,3.4l1.4,1.6,1.3,1.7,5.4,6.7,1.3,1.7,1.2,1.8,2.5,3.5c.8,1.2,1.6,2.4,2.5,3.5l.5.6,1,1.5c.6,1,.2.8-.3.2a15.9,15.9,0,0,1-1.3-1.3l-.8-1-2.4-3.4c-1.6-2.4-3.2-4.7-4.9-6.9l-5.3-6.6-1.3-1.6-1.4-1.6a22.7,22.7,0,0,1-2.6-3.5A3.6,3.6,0,0,1,775.2,846.5Z" transform="translate(-760.7 -835.1)"/>
    <path class="a9ee1dac-8c8f-4aff-9c4a-a63e2030c564" d="M784.6,855.6h0c0-.2.1-.5.5-.3h.1l.6.9,2.9,3.6a32.8,32.8,0,0,1,2.7,3.8c.9,1.3,1.7,2.7,2.5,4s.9,1.2,1.3,1.9l.5.6.3.5.6.9c.7,1,.3.8-.3.2s-.3-.3-.6-.6l-.6-.7-.6-.8c-.4-.6-.9-1.2-1.3-1.9l-2.4-3.8a34.7,34.7,0,0,0-2.6-3.7l-2.9-3.6Z" transform="translate(-760.7 -835.1)"/>
    <path class="a9ee1dac-8c8f-4aff-9c4a-a63e2030c564" d="M788.3,856.8h0c0-.1.2-.4.6-.2h0l.3.5.3.4a54.4,54.4,0,0,1,3.9,5.5l1.8,2.9.9,1.5.2.3.2.2s.5.9.8,1.6.2.8-.3.2l-1.1-1.5-.2-.2-.2-.5-.9-1.4-1.8-2.8-1.9-2.7a26.9,26.9,0,0,0-2-2.7l-.3-.5Z" transform="translate(-760.7 -835.1)"/>
    <path class="a9ee1dac-8c8f-4aff-9c4a-a63e2030c564" d="M791.7,858h0c0-.2.1-.5.5-.4h.1l.6,1,2.7,4,2.3,3.7.7,1.6c.6,1.1.2.8-.3.2l-1-1.5-1.1-1.6-1.2-2.1-2.7-4Z" transform="translate(-760.7 -835.1)"/>
    <path class="a9ee1dac-8c8f-4aff-9c4a-a63e2030c564" d="M767.4,842.6h-.1c-.1,0-.1-.2-.1-.3a.1.1,0,0,1,.1-.1h.2a.1.1,0,0,1,.1.1.1.1,0,0,1,.1.1v.2h-.1v-.2h.2l.5.3c.1.1.1.1.1.2h.2v.2l1.5,2.3.7,1.2.6,1.1.3.6a9.5,9.5,0,0,1,.7,1.6c.5,1.1.1.8-.3.1s-1-1.5-1-1.5l-.2-.4-.7-1.2-.7-1.1-1.4-2.3-.2-.2h0c-.1,0-.1,0-.1-.1Z" transform="translate(-760.7 -835.1)"/>
    <path class="a9ee1dac-8c8f-4aff-9c4a-a63e2030c564" d="M769.1,841.2h0c0-.2.1-.5.6-.3h0l.6,1a18.8,18.8,0,0,0,1.2,1.8l1.3,1.8.4.5.3.5a4.7,4.7,0,0,0,.5,1c.5,1.1.1.8-.3.2l-.6-.7-.3-.5-.2-.2-.3-.4L771,844a12.7,12.7,0,0,1-1.3-1.9Z" transform="translate(-760.7 -835.1)"/>
    <path class="a9ee1dac-8c8f-4aff-9c4a-a63e2030c564" d="M770.8,840.8h0c0-.2.1-.5.6-.3h0c.2.3.3.7.5,1s1.9,2.8,2.9,4.2l.4.5.8,1.5c.6,1.1.2.8-.3.2l-1.1-1.4-.3-.4a41.5,41.5,0,0,1-3-4.3Z" transform="translate(-760.7 -835.1)"/>
    <path class="a9ee1dac-8c8f-4aff-9c4a-a63e2030c564" d="M772.3,840h0c0-.1.1-.4.5-.3h.1l.7.8,2.2,2.7,2.1,2.8,2,2.8.9,1.4.5.6a13.2,13.2,0,0,1,.8,1.5c.6,1,.2.7-.3.2l-1.1-1.4-.5-.7-1-1.4-1.9-2.7-1-1.4a6.9,6.9,0,0,0-1.1-1.3l-2.1-2.7Z" transform="translate(-760.7 -835.1)"/>
    <path class="a9ee1dac-8c8f-4aff-9c4a-a63e2030c564" d="M773.9,838.7h0c.1-.2.3-.3.6-.1h.1c0,.3.2.5.4.8s1.2,1.2,1.7,1.9l1.6,2.1,1.5,2.1,1.1,1.7a11.6,11.6,0,0,1,.7,1.5c.6,1.1.2.8-.3.2s-1-1.5-1-1.5l-1.1-1.6c-.5-.8-1-1.4-1.5-2.1l-1.5-2c-.5-.6-1.2-1.2-1.7-1.9A2.4,2.4,0,0,1,773.9,838.7Z" transform="translate(-760.7 -835.1)"/>
    <path class="a9ee1dac-8c8f-4aff-9c4a-a63e2030c564" d="M774.6,836.5h0c0-.2.1-.5.6-.3h0l.6,1,3.2,4.5,1.8,2.2,1.4,1.6a11.7,11.7,0,0,1,.9,1.4c.7,1.1.3.8-.3.2l-1.2-1.3-1.4-1.6a18.4,18.4,0,0,1-1.7-2.2,37.2,37.2,0,0,1-3.3-4.5Z" transform="translate(-760.7 -835.1)"/>
    <path class="a9ee1dac-8c8f-4aff-9c4a-a63e2030c564" d="M776.8,836h0c0-.2.2-.4.6-.2h0v.5l.3.4,1.2,1.6.7.8.6.9a27.5,27.5,0,0,1,2.3,3.3l2.4,3.3a16.7,16.7,0,0,0,1.2,1.6l.4.5,1,1.5c.7,1,.2.7-.3.2a15.4,15.4,0,0,1-1.2-1.3l-.6-.7-1.2-1.6-2.3-3.3c-.7-1.1-1.5-2.1-2.3-3.2l-.6-.8-.6-.8a9.5,9.5,0,0,1-1.2-1.6.5.5,0,0,1-.3-.5l-.2-.3Z" transform="translate(-760.7 -835.1)"/>
    <path class="a9ee1dac-8c8f-4aff-9c4a-a63e2030c564" d="M779.3,836.7h0c0-.1.1-.4.5-.3h.1l.6.9c.7.9,1.6,1.7,2.3,2.7l2.1,2.9,2,2.8,1,1.5h.1v.2l.2.2,1,1.5c.6,1,.2.8-.3.2a15.4,15.4,0,0,1-1.2-1.3l-.2-.3-.3-.4-1.1-1.4c-.6-1-1.3-1.9-2-2.9l-2-2.8-2.2-2.6Z" transform="translate(-760.7 -835.1)"/>
    <path class="a9ee1dac-8c8f-4aff-9c4a-a63e2030c564" d="M784.9,840.3h0c0-.2.2-.4.6-.2h0l.5.9a27.1,27.1,0,0,0,2.4,3.5l2.3,3.1.9,1.5c.6,1.1.1.8-.4.2l-.5-.6-.6-.7-2.3-3.1c-.8-1.1-1.6-2.3-2.3-3.5Z" transform="translate(-760.7 -835.1)"/>
    <path class="a9ee1dac-8c8f-4aff-9c4a-a63e2030c564" d="M788.8,841h0c.1-.2.2-.4.6-.2h.1l.3,1a25.7,25.7,0,0,0,2.6,4.1l.4.5.4.5a4.7,4.7,0,0,0,.6.9c.7,1,.3.8-.3.3l-.6-.7-.7-.6-.3-.5a20.9,20.9,0,0,1-2.7-4.3A3.6,3.6,0,0,1,788.8,841Z" transform="translate(-760.7 -835.1)"/>
  </g>
</svg>
