<svg id="accda3ab-4bba-4c58-80da-f03490d56ed7" data-name="Objects" xmlns="http://www.w3.org/2000/svg" viewBox="0 0 217.7 172.3">
  <defs>
    <style>
      .b3543485-d0cb-4d99-9b66-5603a7cf9991 {
        fill: #252525;
      }
    </style>
  </defs>
  <g>
    <g>
      <path class="b3543485-d0cb-4d99-9b66-5603a7cf9991" d="M737.8,233.2a.2.2,0,0,1,0-.3c.1-1.2,1.1-3,3.7-1.7,0,.1.2.2.3.3l2.8,6.6,6.7,15.7,1.6,3.7s2.2,6.3,3.4,10.9c2.2,7.6.1,5.1-2.3.8.1.5-5.4-10.5-5.4-10.5l-1.3-3.2-6.7-15.7Z" transform="translate(-607.9 -178.7)"/>
      <path class="b3543485-d0cb-4d99-9b66-5603a7cf9991" d="M741.7,232.2h-.4c-1.1-.2-3-1.2-1.6-3.8l.3-.3,6.6-2.8,45.5-19.2s6.3-2.1,10.9-3.3c7.6-2.3,5.1-.1.8,2.2.5-.1-10.5,5.4-10.5,5.4l-45,18.9Z" transform="translate(-607.9 -178.7)"/>
      <path class="b3543485-d0cb-4d99-9b66-5603a7cf9991" d="M805.6,204.8c-.1-.1-.1-.1,0-.3s1.1-3,3.7-1.6l.3.2,2.8,6.7,6,14,1.5,3.7s2.2,6.3,3.4,10.8c2.3,7.6.2,5.1-2.2.8.1.5-5.4-10.5-5.4-10.5l-1.4-3.1-5.9-14Z" transform="translate(-607.9 -178.7)"/>
      <path class="b3543485-d0cb-4d99-9b66-5603a7cf9991" d="M758.8,275h-.3c-1.1-.2-3-1.1-1.6-3.8,0,0,.2-.2.2-.3l6.7-2.8,45.9-19.3s6.3-2.2,10.9-3.4c7.6-2.2,5.1-.1.8,2.3.5-.1-10.5,5.3-10.5,5.3l-45.4,19.1Z" transform="translate(-607.9 -178.7)"/>
      <path class="b3543485-d0cb-4d99-9b66-5603a7cf9991" d="M740.1,234.2l-.2-.2c-.9-.8-2-2.6.5-4l.4-.2,3.6.7,3.6.7c5.5,1,11,2.3,16.4,3.5l4,.9,3.7,1.1,3.5,1.1,3.6,1.2c7.6,2.2,4.4,2.6-.6,2.3l-5.7-.6-4.1-.7-1.9-.2-3.4-.8-16.3-3.6-3.6-.6Z" transform="translate(-607.9 -178.7)"/>
      <path class="b3543485-d0cb-4d99-9b66-5603a7cf9991" d="M786,241.2h-.2a3.8,3.8,0,0,1-1.9.3c-.7-.1-1.5-.6-1.7-2.2V239c1.4-2.3,3-4.2,4.3-6.1l1.2-1.7,1.2-1.8,2.4-3.6,4.7-7.3,2.2-3.3s1-1.4,2.4-3.1,1.4-1.9,2.2-2.9l2.3-3c4.9-6.3,4.1-3.1,2,1.4a7.9,7.9,0,0,1-.7,1.5l-1.9,3.6c-1.5,2.6-2.9,5.3-2.9,5.3l-1.9,2.9-4.8,7.3-2.4,3.5-1.2,1.8-1.2,1.9C788.6,237.5,787.1,239.3,786,241.2Z" transform="translate(-607.9 -178.7)"/>
      <path class="b3543485-d0cb-4d99-9b66-5603a7cf9991" d="M759,273.3l-.3.2a2.3,2.3,0,0,1-2,.2,2.9,2.9,0,0,1-1.4-2.4V271a44.6,44.6,0,0,0,2.9-6.2l3.5-8.4,1.5-3.7,1.8-3.5c1-2,2.3-4.5,3.5-6.5,3.8-7,3.5-3.7,2.1,1a42.9,42.9,0,0,1-1.6,5.4l-1.4,4a15.1,15.1,0,0,1-.6,1.8l-1.3,3.2c-1.1,2.8-2.3,5.6-3.4,8.3A61.4,61.4,0,0,1,759,273.3Z" transform="translate(-607.9 -178.7)"/>
      <path class="b3543485-d0cb-4d99-9b66-5603a7cf9991" d="M790.7,233.3c-.1,0-.1,0-.2-.2s-1.6-2.8,1.2-3.9h.4l3.5,1.2,3.4,1.3,8.6,3.2,3.7,1.4s6.1,2.8,10.2,5c7.1,3.7,3.8,3.5-1,2.2.5.3-11.2-3.3-11.2-3.3l-3.3-1.2-8.5-3.2-3.4-1.3Z" transform="translate(-607.9 -178.7)"/>
    </g>
    <g>
      <path class="b3543485-d0cb-4d99-9b66-5603a7cf9991" d="M607.9,294.1v-.2c0-.5.3-1.4,1.6-.9h.2l1.7,2.8,13.9,23.6s1.4,2.7,2.2,4.7.4,2.3-1,.5l-3.1-4.5-13.8-23.3Z" transform="translate(-607.9 -178.7)"/>
      <path class="b3543485-d0cb-4d99-9b66-5603a7cf9991" d="M609.7,293.4h-.1c-.5,0-1.5-.3-1-1.6v-.2l2.9-1.6,44.1-26s2.8-1.4,4.8-2.2,2.3-.3.5,1l-4.5,3-43.9,25.9Z" transform="translate(-607.9 -178.7)"/>
      <path class="b3543485-d0cb-4d99-9b66-5603a7cf9991" d="M661.5,262.8h0c0-.5.3-1.5,1.6-1h.1l1.7,2.9,13.2,22.1,2.2,4.8c1.4,3.3.3,2.3-1,.5l-3.1-4.5-13-21.9Z" transform="translate(-607.9 -178.7)"/>
      <path class="b3543485-d0cb-4d99-9b66-5603a7cf9991" d="M628.9,327.2h-.2c-.5,0-1.4-.3-.9-1.6a.1.1,0,0,1,.1-.1l2.8-1.7,44.5-26.2,4.7-2.2c3.4-1.4,2.4-.3.5,1,.3-.1-4.4,3.1-4.4,3.1l-44.3,26Z" transform="translate(-607.9 -178.7)"/>
      <path class="b3543485-d0cb-4d99-9b66-5603a7cf9991" d="M609,294.7h-.1a1.1,1.1,0,0,1,0-1.9h.2l3.3.2,3.6.2h1.8l1.8.2,7.1.6,7.2.6,3.5.3h2.1l5.1.8c3.6.6,2.1.9-.1,1.1h-7.6l-3.5-.3-7.1-.6-7-.6-3.5-.3h-3.5Z" transform="translate(-607.9 -178.7)"/>
      <path class="b3543485-d0cb-4d99-9b66-5603a7cf9991" d="M647.8,296.5a.1.1,0,0,1-.1.1,1.9,1.9,0,0,1-.9.3c-.3,0-.7-.2-.9-.9v-.2a17.7,17.7,0,0,1,1.5-3.1c.6-1.1,1.2-2.1,1.7-3.2a31.8,31.8,0,0,0,1.6-3.2l3.2-6.6c1.1-2.2,2.1-4.4,3.1-6.6l2.4-5.1s1.4-2.7,2.6-4.6,1.6-1.6.9.5a12.9,12.9,0,0,1-.8,2.5,17.1,17.1,0,0,1-.7,1.8,2.4,2.4,0,0,1-.3.8l-2.4,5.3c-1,2.2-2.1,4.3-3.1,6.5l-3.1,6.4-.8,1.6c-.3.6-.5,1.2-.8,1.7l-1.8,3.1A23.8,23.8,0,0,0,647.8,296.5Z" transform="translate(-607.9 -178.7)"/>
      <path class="b3543485-d0cb-4d99-9b66-5603a7cf9991" d="M628.7,326.4c0,.1,0,.1-.1.1a1,1,0,0,1-.9.2,1.4,1.4,0,0,1-.8-1v-.2c.3-.4.4-.9.7-1.4a8.8,8.8,0,0,1,.5-1.5l1.2-4.5,1.2-4.5,2.3-9.1.5-1.8s1-2.9,1.8-4.8,1.4-1.9,1,.3c.1-.2-.9,5.3-.9,5.3l-.4,1.5-2.4,9.1c-.4,1.5-.7,3.1-1.2,4.5s-.7,3.1-1.2,4.6l-.6,1.6A7.7,7.7,0,0,1,628.7,326.4Z" transform="translate(-607.9 -178.7)"/>
      <path class="b3543485-d0cb-4d99-9b66-5603a7cf9991" d="M651.4,288.3h-.1c-.4-.3-.9-1.2.3-1.8h.2l3.3.6,18.3,4.3,1.8.4,5,1.6c3.4,1.3,1.9,1.4-.4,1.1l-5.3-.8-1.5-.4-18.3-4.2Z" transform="translate(-607.9 -178.7)"/>
    </g>
    <path class="b3543485-d0cb-4d99-9b66-5603a7cf9991" d="M635.1,265.6H635a9.1,9.1,0,0,1-4.1.6h-.1s-.1-.6-.2-1.5-.1-.9-.1-1.4v-1.7c.1-.6.1-1.1.2-1.6s.1-1,.1-1.5l.3-1.3V257l.3-.6a7.1,7.1,0,0,1,1.2-1.3c1.3-1.4,2-.4,2.3.6s.1.6.2,1.2a1.9,1.9,0,0,0,.1.8v.4l-.2,1.2c0,.3-.1.7-.1,1.2a5.7,5.7,0,0,0-.1,1.3v2.6C635,265.1,635.1,265.6,635.1,265.6Z" transform="translate(-607.9 -178.7)"/>
    <path class="b3543485-d0cb-4d99-9b66-5603a7cf9991" d="M638,244.5h-.2a6.8,6.8,0,0,1-4-.7c0-.1-.1-.1-.1-.2a16.4,16.4,0,0,1,.4-1.8,15.4,15.4,0,0,1,.5-1.7l.6-1.9c.2-.7.5-1.3.7-1.9l.7-1.6.7-1.5.7-.8a7.3,7.3,0,0,1,1.6-1.4c1.7-1.4,2.2-.2,2.1,1.1a6.9,6.9,0,0,1-.2,1.5c-.2.8-.3,1.5-.3,1.5l-.7,1.4-.6,1.5-.6,1.7-.6,1.7a15.5,15.5,0,0,1-.4,1.5A15.4,15.4,0,0,0,638,244.5Z" transform="translate(-607.9 -178.7)"/>
    <path class="b3543485-d0cb-4d99-9b66-5603a7cf9991" d="M649.5,222.1h-.2a8.6,8.6,0,0,1-3.2-2.4v-.2l2.4-2.9,1.6-1.8.7-.9a10.9,10.9,0,0,1,2.2-.7c1.6-.4,1.9.6,1.8,1.6a18,18,0,0,1-.8,2.1l-.7.8c-.4.5-1,1.1-1.5,1.8Z" transform="translate(-607.9 -178.7)"/>
    <path class="b3543485-d0cb-4d99-9b66-5603a7cf9991" d="M667.7,204.4h-.1l-1.4-.8a7.4,7.4,0,0,1-1.7-1.8.3.3,0,0,0-.1-.2l.4-.4.9-.9a18.2,18.2,0,0,1,2.9-2.1l3.1-1.4,1.3-.6h2.7c2,.1,1.8,1.3,1,2.2l-1,1-1.1.8-1.3.6-2.6,1.3a12.7,12.7,0,0,0-2.1,1.5,1.7,1.7,0,0,0-.6.6Z" transform="translate(-607.9 -178.7)"/>
    <path class="b3543485-d0cb-4d99-9b66-5603a7cf9991" d="M688.7,194h-.1a7.9,7.9,0,0,1-1.7-3.7V190a5.2,5.2,0,0,1,1.3-.5l1.4-.5,1.5-.4,1.6-.3,1.3-.2h1.3a6.7,6.7,0,0,1,2.3,1c1.6.8,1.1,1.8.2,2.4l-1.1.5-1.1.4-1.1.2h-1.2l-1.3.3-1.2.3-1.1.4Z" transform="translate(-607.9 -178.7)"/>
    <path class="b3543485-d0cb-4d99-9b66-5603a7cf9991" d="M713.5,190.1h0a9.3,9.3,0,0,1,.4-4.1v-.2l7.3.6a12.4,12.4,0,0,1,1.9,1.3c1.3,1,.6,1.9-.3,2.4a12.9,12.9,0,0,1-2.1.7Z" transform="translate(-607.9 -178.7)"/>
    <path class="b3543485-d0cb-4d99-9b66-5603a7cf9991" d="M732.8,195.7h0a9.6,9.6,0,0,1,1.3-3.9v-.2l1.3.5,1.3.6,1.4.5,3.6,1.6.6.5,1,1.2c1.2,1.4.3,2.2-.8,2.3s-.6.1-1.2,0h-1.3l-3.7-1.6-1.3-.5-1.2-.5Z" transform="translate(-607.9 -178.7)"/>
    <path class="b3543485-d0cb-4d99-9b66-5603a7cf9991" d="M745.2,209.4H745a11.6,11.6,0,0,0-1.4-.9l-.5-.3a.7.7,0,0,1-.4-.5,2.1,2.1,0,0,1,.5-2l.4-.4a18.1,18.1,0,0,1,4.2-.8h10.3l-3.8-6.7-1.9-3.5-1.6-3.7c-.4-1.1-.9-2.3-1.3-3.5s-.7-2.5-1.1-3.7a2.5,2.5,0,0,0-.2-.7,1.3,1.3,0,0,0-.1-.6c-.1-.4-.1-.8-.2-1.1a13.7,13.7,0,0,1-.2-1.6c0-.8.1-1,.4-.9s.7.7,1.1,1.4.5.8.7,1.3l.4.7.4.8c0-.1.3.4.8,1.4s.5,1,.9,1.6l1,1.9c.7,1.3,1.5,2.5,2.1,3.5a9,9,0,0,0,1,1.6l1.6,3,4,7.2,3.5,6.2.2.4c0,.1.1.1.1.2h-1.2l-1.8-.2-3.6-.4-1.7-.2h-9.5A10.8,10.8,0,0,0,745.2,209.4Z" transform="translate(-607.9 -178.7)"/>
    <path class="b3543485-d0cb-4d99-9b66-5603a7cf9991" d="M792.6,275.9h.1l1.5.5a17.2,17.2,0,0,1,2.1,1.5h.1a.4.4,0,0,0-.1.3,2.4,2.4,0,0,0-.3.7,23.1,23.1,0,0,0-.6,2.7,27.9,27.9,0,0,1-.6,3.3l-.4,1.2-.2.4a2.7,2.7,0,0,1-.7.8l-.8.7-.9.5c-1,.4-1.5.2-1.7-.1a1.9,1.9,0,0,1-.2-1.5c0,.1,0-.1.1-.3a.4.4,0,0,1,.1-.3v-.5a1.7,1.7,0,0,0,.1-.7,1,1,0,0,1,.1-.4.3.3,0,0,1,.1-.2,3.1,3.1,0,0,1,.2-.8,15.9,15.9,0,0,0,.5-2.8,34,34,0,0,1,.7-3.4l.5-1.2C792.5,276.1,792.5,275.9,792.6,275.9Z" transform="translate(-607.9 -178.7)"/>
    <path class="b3543485-d0cb-4d99-9b66-5603a7cf9991" d="M787.3,297.2h.1a7.4,7.4,0,0,1,3.4,2.2h.2c0,.1-.3.4-.6,1l-.6,1.1-.6,1.3-1.3,2.6-.7,1.2H787l-.5.4-.7.5-.9.3c-.9.3-1.4.2-1.6-.2a1.4,1.4,0,0,1-.2-1.3c-.1,0,.1-.5.2-1.1s.1-.5.2-.8a1,1,0,0,1,.1-.3l.5-1c.3-.6.8-1.4,1.2-2.3l.6-1.3a13.9,13.9,0,0,0,.6-1.3l.6-.8Z" transform="translate(-607.9 -178.7)"/>
    <path class="b3543485-d0cb-4d99-9b66-5603a7cf9991" d="M775.7,316h.1a6.3,6.3,0,0,1,3.2,2.4c.1,0,.1.1.1.2l-.9,1.2-2,2.7L775,324l-1,1.2-1.1,1.1h-.3l-.6.4a6.7,6.7,0,0,1-1.9.5c-2.1.5-2-.8-1.5-1.8s.3-.6.6-1.2l.5-.8.2-.4.9-.9,1-1.1,1-1.3,1.9-2.5Z" transform="translate(-607.9 -178.7)"/>
    <path class="b3543485-d0cb-4d99-9b66-5603a7cf9991" d="M758.5,334h.1a10.5,10.5,0,0,1,1.8,3.6.3.3,0,0,0,.1.2l-.9.5-.8.5-.9.6-1,.6c-.3.2-.5.5-.8.6l-.8.6-.7.2a6.5,6.5,0,0,1-1.4,0c-1.6,0-1.7-1.1-1.4-2s.2-.4.5-.8a4.4,4.4,0,0,1,.5-.9l.8-.6.8-.6,1.1-.7,1-.7,1-.6Z" transform="translate(-607.9 -178.7)"/>
    <path class="b3543485-d0cb-4d99-9b66-5603a7cf9991" d="M738.3,343.1h.1a8.9,8.9,0,0,1,1.4,3.9v.2l-1.2.4-1.2.4-1.5.5-1.4.4-1.3.3-1.4.3-.8-.2a3.7,3.7,0,0,1-1.6-.7c-.8-.4-1-.9-1-1.3a2.3,2.3,0,0,1,.9-1.1l.9-.5.7-.3.3-.2a27.8,27.8,0,0,0,3.5-.9l1.3-.4,1.2-.4Z" transform="translate(-607.9 -178.7)"/>
    <path class="b3543485-d0cb-4d99-9b66-5603a7cf9991" d="M716.5,346.7h.1a2,2,0,0,0,.1.7c.1.3-.1.6-.2.9s-.3,1.5-.5,2.5h-.1l-8.1-.9a14.8,14.8,0,0,1-2.1-1.3c-.7-.6-.9-1.1-.7-1.5s.6-.7,1.1-.9.5-.2,1.1-.3l1.2-.3,4,.5Z" transform="translate(-607.9 -178.7)"/>
    <path class="b3543485-d0cb-4d99-9b66-5603a7cf9991" d="M694.4,343.7v.2a9.6,9.6,0,0,1,.3,1.5,7.2,7.2,0,0,1-.1,2.5.3.3,0,0,1-.1.2h-1.8l-1.6-.2-1.9-.5-1.7-.6-1.5-.6-1.4-.7-.6-.7a8.3,8.3,0,0,1-1.1-1.5c-1-1.8.1-2.2,1.3-2.1l1.2.2.9.2h.4l.4.2.8.4,1.2.5,1.4.4,1.4.4h1.2A3.9,3.9,0,0,0,694.4,343.7Z" transform="translate(-607.9 -178.7)"/>
    <path class="b3543485-d0cb-4d99-9b66-5603a7cf9991" d="M676.9,337.1h0a4.5,4.5,0,0,1-.4,1.6,8.1,8.1,0,0,1-1.2,2.2h-.2l-.4-.2-1.1-.6-2.8-1.8-1.4-1.1-1.2-1-.8-.7-.3-.3-.2-.2-.3-.7a5.9,5.9,0,0,1-.4-.8,3.6,3.6,0,0,1-.2-1c-.3-1.1,0-1.5.4-1.7a1.8,1.8,0,0,1,1.4.2c.1-.1.2,0,.4.1l.8.4,1.1.6.3.2.7.7,1,.8,1.3,1,2.4,1.5.8.4Z" transform="translate(-607.9 -178.7)"/>
    <path class="b3543485-d0cb-4d99-9b66-5603a7cf9991" d="M665.3,341.4c.1.1.1.1,0,.3a3.4,3.4,0,0,1-1.6,1.3c-.7.2-1.6-.2-2.5-1.2s-.2-.2-.2-.3-.2-2.2-.4-3.3a19.8,19.8,0,0,0-.8-3.3c-.5-1.9-1.2-3.9-1.9-5.8l-.5-1.5-.5-1.4-.5-1.5-.9-2.9-.5-1.5-.2-.7a.1.1,0,0,0-.1-.1h.7l3.7,1.1,1.9.6,1.8.5h.3l.7.2,2.6.8a51.1,51.1,0,0,0,7,1.7l2.4.4,1.5.3c.8.2,1,.4.8.6s-2.4.9-5,1.1h-1.6l-4.2-.3-2.3-.3-2-.3-1.4-.3h-.2l.6,1.6c.7,2,1.4,4,2,6.1a30,30,0,0,1,1.3,7.7Z" transform="translate(-607.9 -178.7)"/>
  </g>
</svg>
