<svg id="b0521a32-a6bf-4e9d-86f0-e05cbef1b52b" data-name="Objects" xmlns="http://www.w3.org/2000/svg" viewBox="0 0 65.39 81.34"><defs><style>.ba671c16-9645-46c2-b94a-9792919f9dd4{fill:#252525;}</style></defs><path class="ba671c16-9645-46c2-b94a-9792919f9dd4" d="M818.32,388.74a.21.21,0,0,1-.06.17c-.38.57-1.34,1.38-2.43,0a.62.62,0,0,1-.1-.2c0-.08,0-1.66.08-4q.08-4.23.17-8.76c.09-4.55.15-9.22.21-14,.12-9.63.25-19.76.39-30.22.07-5.23.13-10.55.2-15.93l0-2v-1.54l0-1v-.51h.51l5.09.09,8.2.14,8.26.15,8.3.25,16.61.5,4.17,0c.69,0,1.41.05,2.12.07l2.08.1c1.31.06,2.64,0,4.13,0a7,7,0,0,1,2.51.43,6.13,6.13,0,0,1,.7.39,4.89,4.89,0,0,1,.62.58,5.3,5.3,0,0,1,.44.69,5.47,5.47,0,0,1,.26.7l.15.67,0,.63c0,.22,0,.39,0,.56v2.61c0,1.39,0,2.77,0,4.16.07,2.78-.08,5.51-.17,8.24,0,1.36-.1,2.73-.14,4.08s0,2.72,0,4.07q0,4,0,8.05,0,8-.07,15.81c-.07,5.19-.15,10.34-.26,15.32q-.09,3.73-.16,7.4c0,1.41-.06,2.8-.09,4.19l0,.9V392c0,.1-.07.08-.14.08h-4c-4.77,0-9.41,0-13.89,0l-13-.28-11.89-.3-5.52-.14-3,0-1.19,0h-1s-3.93-.32-6.69-.74c-4.68-.61-2.81-1.16.1-1.43-.31-.07,7-.41,7-.41h1l3.19,0,22.3.54,6.25.13c2.13.05,4.29.1,6.49.09h11.46q.15-6.87.3-14.09c.07-4.92.2-9.91.2-15.05s0-10.35.07-15.63q0-4,0-8c.06-2.67.18-5.35.27-8l.07-2c0-.67,0-1.34,0-2,0-1.34,0-2.68,0-4s0-2.69,0-4a3.29,3.29,0,0,0-.25-1.38c-.05-.05-.07-.12-.12-.16s-.06-.1-.14-.12a1.5,1.5,0,0,0-.22-.11,1.16,1.16,0,0,0-.31-.08,8.27,8.27,0,0,0-1.75-.13l-2,0c-.7,0-1.43,0-2.15-.06l-2-.09-1,0h-3.06c-1.38,0-2.75,0-4.14-.05-2.78-.13-5.49-.19-8.23-.28l-8.19-.24c-5.45-.19-10.88-.27-16.28-.37l-8.05-.14-1.15,0v.29c0,1.33,0,2.66,0,4q-.09,8-.19,15.69c-.13,10.32-.26,20.31-.38,29.8-.06,4.75-.13,9.38-.22,13.85q-.07,4.08-.15,7.87C818.35,387.11,818.32,388.66,818.32,388.74Z" transform="translate(-815.73 -310.72)"/><path class="ba671c16-9645-46c2-b94a-9792919f9dd4" d="M818.28,332.26s-.07,0-.13-.07-.25-.21-.22-.37-.11-.14-.12-.19l0-.19a.74.74,0,0,1-.12-.27.76.76,0,0,1,0-.21c0-.07-.07-.14-.11-.22a.84.84,0,0,1-.12-.23.47.47,0,0,1,.12-.27,5,5,0,0,1,.61-.47.91.91,0,0,1,.24-.1c.41,0,.78.05,1.12.07h1l2.15,0,3.14,0c1,0,2.09,0,3.15,0l6.33.18q6.28.24,12.55.56l6.26.27c2.09.08,4.16.08,6.24.13s4.18,0,6.27,0h2.73s3.94.26,6.7.66c4.69.55,2.82,1.12-.09,1.43.31.06-6.95.49-6.95.49h-3.12c-2.06,0-4.11,0-6.19,0-4.15,0-8.27-.22-12.39-.41s-8.22-.39-12.33-.54l-6.11-.18c-1,0-2,0-3.08,0l-3.09,0-2.14,0h-1.18C818.94,332.3,818.59,332.27,818.28,332.26Z" transform="translate(-815.73 -310.72)"/><path class="ba671c16-9645-46c2-b94a-9792919f9dd4" d="M817.19,328.62a.21.21,0,0,1-.06-.15,1.41,1.41,0,0,0,0-.18h0l.73-2h0l.29.19.15.11a1.14,1.14,0,0,1,.15.16.45.45,0,0,1,.12.31.75.75,0,0,1,0,.3,1.31,1.31,0,0,1-.34.5.55.55,0,0,0-.18.29.8.8,0,0,1-.16.34c.23-.62.47-1.26.7-1.9h.18a1,1,0,0,1,.23.09l.52.5.44.5.82,1c.27.32.52.57.77.86l0,0h0c-1,.45,2.21-1-2.2,1h0v-.08l0-.13,0-.13,0-.32a15.33,15.33,0,0,0-.82-2.62c-.17-.46-.36-.94-.53-1.44l-.12-.38,0-.1v-.05c4.29-2.61,1.21-.7,2.17-1.27l.14.16.55.63a12.2,12.2,0,0,1,1,1.28c.32.43.58.85.85,1.27s.54.81.81,1.2l.21.29.1.14,0,.08,0,0c2-1.15-2.68,1.62-2.21,1.31l-.31-.66c-.4-.87-.84-1.76-1.29-2.65-.22-.44-.44-.92-.65-1.37s-.45-.91-.64-1.4l-.59-1.44c1-.54-2.28,1.15,2.26-1.23l0,0,.05.07.11.15.22.3.44.59,1.75,2.37,1.86,2.26h0l.48.58.23.28.12.15,0,0h0c-4.12,3.1-1.15.86-2.07,1.55h0v0l0-.07-.82-1.25c-.57-.83-1.13-1.68-1.69-2.54a29.92,29.92,0,0,1-3-5.58h0a9.63,9.63,0,0,1-.4-1.18l-.3-1.22,0-.16,0-.07v0l2.25-1.07h0v0l.19.23.38.47c.25.32.52.62.74.95a45.92,45.92,0,0,1,2.52,3.95c.78,1.3,1.53,2.61,2.35,3.81.4.62.84,1.18,1.28,1.74l.17.22h0c-1,.51,2.25-1.13-2.24,1.14h0v-.05l0-.06,0-.12-.14-.48c-.12-.32-.22-.65-.36-1h0c-1.13-2.66-3.19-5.09-4.71-8.07a16.43,16.43,0,0,1-1-2.35l-.19-.62,0-.16h0l2.21-1.19h0v0l0,0,0,.06.2.24.79.95c.5.65,1,1.32,1.44,2s.89,1.35,1.31,2h0c.89,1.43,1.74,2.84,2.63,4.22.47.66.9,1.35,1.39,2l.73.94,0,.06,0,0h0L827,329.34h0l0,0-.08-.14-.16-.26-.32-.53c-1.68-2.83-3.54-5.61-5.2-8.58h0c-.42-.78-.87-1.55-1.25-2.36l-.59-1.21c-.19-.41-.36-.83-.53-1.24l-.27-.63-.13-.31v0h0c1-.59-2.18,1.3,2.18-1.32h0l0,0,.05.07.11.14c.3.36.6.72.86,1.1a27.3,27.3,0,0,1,1.48,2.31c1.8,3.1,3.13,6.31,5.13,8.89h0a14,14,0,0,0,1.86,2l0,0h0l-2,1.45h0l0-.08-.07-.16-.14-.33-.28-.65c-.17-.44-.4-.87-.61-1.3-.85-1.73-1.86-3.4-2.88-5.12s-2-3.48-2.92-5.36l-.08-.17,0-.05h0c.95-.63-2.14,1.39,2.14-1.41v0l.06.08.25.3.5.61a14,14,0,0,1,1,1.23l.89,1.26.82,1.28h0c1.12,1.74,2.13,3.5,3.23,5.14.27.41.55.82.84,1.21s.58.78.88,1.16l.95,1.08.23.27.06.07-2.16,1.31h0v0l0,0-.06-.16-.27-.65a20.17,20.17,0,0,0-1.27-2.55c-.53-.83-1-1.66-1.62-2.49l-1.72-2.53c-.56-.88-1.15-1.73-1.65-2.68h0c-.21-.41-.46-.79-.65-1.21l-.55-1.28-.14-.32-.07-.16h0l2-1.46h0l0,0,.07.06.55.46c.37.3.68.66,1,1a25.65,25.65,0,0,1,3.23,4.41c1.83,3,3.33,6.12,5.54,8.41h0l.47.45.24.23-2.08,1.39h0v0l0,0,0-.08-.06-.15-.5-1.28c-.17-.43-.4-.84-.59-1.26s-.4-.83-.64-1.24c-.88-1.66-1.9-3.3-2.87-5-.48-.87-1-1.69-1.43-2.6-.22-.45-.45-.89-.66-1.35l-.59-1.4-.15-.35-.07-.18c-.42.33,3.64-2.89,1.92-1.53h0l0,0,0,0,.08.06.66.48a15.32,15.32,0,0,1,1.19,1.07,18.62,18.62,0,0,1,2,2.41h0c2.26,3.24,3.69,6.75,5.71,9.68a11.91,11.91,0,0,0,.78,1.05l.2.25.1.13,0,0h0l-2.21,1.2h0v0l0-.08-.19-.61a20.45,20.45,0,0,0-1-2.44c-.79-1.61-1.74-3.18-2.7-4.82h0a32.41,32.41,0,0,1-2.93-6,15.59,15.59,0,0,1-.47-1.69v-.08c-.46.27,3.94-2.39,2.09-1.26h0l.08.08.17.15.34.3q.33.3.63.63a17.58,17.58,0,0,1,2.08,2.79c1.19,1.94,2.06,3.95,3,5.83a18.2,18.2,0,0,0,3.32,5h0l.12.12h0c-1,.56,2.13-1.24-2.13,1.26h0v0l0-.08-.1-.33-.19-.66-.19-.66-.24-.66c-.16-.43-.31-.87-.49-1.31l-.54-1.31-1.13-2.67-.57-1.36-.52-1.41a13.43,13.43,0,0,1-.46-1.44,12.06,12.06,0,0,1-.39-1.49l-.3-1.52v0l2.22-1.06h0l0,0,.07.07.13.15.25.3a7,7,0,0,1,.5.61,37.92,37.92,0,0,1,3.14,5.1h0l.77,1.39c.26.43.54,1,.76,1.48.45,1,.88,1.91,1.36,2.79a9.91,9.91,0,0,0,1.57,2.28,1.2,1.2,0,0,0,.21.19l.11.08,0,0h0l-2,1.39h0l0-.09-.22-.73c-.15-.48-.27-1-.46-1.45-.66-1.94-1.52-3.86-2.34-5.82a48.6,48.6,0,0,1-2.24-6.11h0l-.22-.76-.05-.18,2.24-1.14h0l0,0,0,0,.06.08.25.31c.33.41.65.83.94,1.26s.6.86.87,1.3.54.88.79,1.32c1,1.77,1.94,3.54,2.9,5.26.53,1,.92,1.85,1.36,2.71a15,15,0,0,0,1.43,2.34,3.52,3.52,0,0,0,.75.75l.08,0,0,0h0c-3.65,2.57-1,.71-1.83,1.28v0l0-.33c0-.22-.05-.44-.1-.66a16.62,16.62,0,0,0-.74-2.67h0a53.78,53.78,0,0,0-2.49-5.46c-.46-.92-.92-1.85-1.35-2.81q-.33-.72-.63-1.47l-.15-.38-.07-.19,0-.09h0l2-1.45,0,0,0,0,.64.59a21.3,21.3,0,0,1,3.77,5.32c.5.92,1,1.84,1.44,2.74l.7,1.33c.27.49.51,1,.72,1.45h0c.39.82.76,1.6,1.17,2.32a5,5,0,0,0,1.29,1.61l.12.06h0l-1.7,1.56h0v0l0-.08-.05-.15-.2-.62c-.14-.41-.26-.83-.42-1.24-.32-.82-.62-1.64-1-2.46a93.12,93.12,0,0,1-4.09-10.18h0l-.11-.38-.06-.18,0-.1v0c-2,1.05,2.69-1.45,2.21-1.19h0l0,0,.49.62,1,1.22c.59.84,1.19,1.69,1.74,2.55,1.09,1.72,2.09,3.48,3.11,5.16.5.86,1,1.67,1.57,2.49a12.46,12.46,0,0,0,.83,1.18l.85,1.16.94,1,.47.53.12.13,0,0h0l-2.11,1.38h0v0l0-.08-.14-.33L856.7,330c-.2-.44-.42-.89-.63-1.33h0c-1.57-3.28-3.43-6.59-4.54-10.34l-.21-.7-.15-.72-.3-1.45v-.07c4.07-2.45,1.13-.68,2-1.22h0l.08.06.15.12.31.25a4.69,4.69,0,0,1,.57.52l.55.54.5.57a28.61,28.61,0,0,1,3.17,4.85h0c1.06,1.94,2,3.88,3,5.68.27.44.54.88.82,1.3l.22.31.11.15,0,0,0,0h0l-2.2,1.33h0l0-.09-.35-.73-1.44-2.89L857,323.32l-1.41-3c-.45-1-.86-2-1.3-3l-.16-.38-.08-.18,0-.1,2.06-1.43h0l0,0,0,0,.64.64a13.35,13.35,0,0,1,1.13,1.38h0a30.42,30.42,0,0,1,2.72,4.88,45.71,45.71,0,0,0,2.37,4.64,12.43,12.43,0,0,0,1.46,1.92l.41.41.06.05v0c.45-.3-3.94,2.61-2.08,1.37h0l0,0-.06-.16-.12-.31-.47-1.24-1.91-5h0l-2.41-6.08-.6-1.52-.08-.19v0c1-.52-2.27,1.18,2.27-1.18h0l0,0,.06.09.22.35.45.7c.59.93,1.22,1.85,1.77,2.79l3.31,5.62c.54.94,1.14,1.81,1.71,2.72l.86,1.34,0,.05v0h0c2-1.12-2.72,1.54-2.24,1.27v0l0-.09-.09-.18-.17-.36-.34-.72h0A83.33,83.33,0,0,1,860.29,318a14,14,0,0,1-.42-1.44l-.19-.72,0-.18v-.05c4.48-2.21,1.25-.61,2.25-1.1h0v0l.06.08.23.3.9,1.21c.31.4.54.84.81,1.26a51.89,51.89,0,0,1,2.68,5.17h0a49.84,49.84,0,0,0,3.08,5.86l.46.67.22.33.11.17.06.08h0c-1,.56,2.23-1.23-2.23,1.25v-.07l-.63-1.59-1.24-3.17c-.4-1.06-.83-2.11-1.22-3.19L864,319.71l-1.07-3.28-.13-.41-.07-.21v-.07c.95-.58-2.13,1.28,2.13-1.3h0l.08.09.65.66c.4.46.8.93,1.15,1.42h0c2.53,3.42,3.95,7.23,6.2,10.25.28.38.57.74.87,1.09l.11.13h0l-2.13,1.37v0l0,0,0-.08-.16-.33-.32-.66c-.44-.87-.82-1.75-1.31-2.63l-1.41-2.62-1.42-2.69h0c-.24-.43-.45-.88-.65-1.34l-.62-1.38-.31-.69-.16-.35-.08-.17,0-.09,2.28-1.16h0v0l0,.05.78,1.31c1,1.76,1.84,3.57,2.68,5.31.41.89.85,1.73,1.28,2.59l.69,1.24.34.62.38.58c.26.39.5.79.77,1.16l.85,1.07.22.26,0,0h0l-2.22,1.09h0v0l0-.08,0-.17-.17-.66a9,9,0,0,0-.37-1.32h0c-1-3-2.66-5.88-4.09-9l-.52-1.18-.48-1.22-.12-.31,0-.15,0-.08,0,0h0l2.23-1.21h0l.38.54.77,1.08c.47.73.91,1.48,1.35,2.23s.82,1.5,1.2,2.25h0c.88,1.73,1.73,3.41,2.64,5l.73,1.17.37.58.4.54.41.54.2.27.1.13v0h0l-2.28.89h0v-.12a7.69,7.69,0,0,0-.18-1.25,18.18,18.18,0,0,0-2-5c-.89-1.64-1.9-3.27-2.84-5h0c-.43-.82-.86-1.65-1.22-2.54-.1-.22-.18-.45-.26-.67l-.13-.35-.06-.17,0-.08,0,0v0h0c-.48.26,4.19-2.32,2.21-1.23h0l.87,1.15a47.6,47.6,0,0,1,2.83,4.76,33.25,33.25,0,0,0,2.72,4.39l.8.91.1.12.06.06,0,0h0l-2.18,1.09h0l-.06-.3-.13-.6a10.59,10.59,0,0,0-.31-1.2l-.18-.6-.23-.6h0c-.62-1.65-1.41-3.28-2.22-4.95-.41-.84-.81-1.69-1.2-2.57l-.14-.33,0,0c1-.6-2.15,1.35,2.14-1.36h0v0l.06.07.12.14.47.59c.33.39.58.79.87,1.19,1.09,1.61,2,3.24,3,4.7.25.35.49.73.76,1.05l.4.49.1.13,0,.06h0l-2.24.8v-.32a5.41,5.41,0,0,0-.16-1.1c-.06-.19-.1-.37-.17-.57l0,0a15,15,0,0,0-.88-2l-.2-.45-.24-.55-.23-.53c-.06-.17-.14-.35-.23-.58s-.24-.65-.36-1c0-.19-.11-.38-.17-.58l-.07-.31,0-.15V315h0l1.39-1h0l.07.06a7,7,0,0,1,1.55,2,11.68,11.68,0,0,1,1,2.22c.13.44.09.61-.09.58a2.36,2.36,0,0,1-.84-.64c-.37-.38-.8-.88-1.27-1.39,0,.09-.31-.35-.87-.82a3,3,0,0,0-.46-.34l-.13-.09,0,0h0l1.53-1.11h0l0,.08c0,.1.09.2.13.31.2.42.42.86.67,1.29l.3.5.29.48.31.52.27.46.17.28a18.77,18.77,0,0,1,.87,2l0,.06c.09.25.15.51.22.77a7.91,7.91,0,0,1,.24,1.64v.51c2-.71-2.76,1-2.27.81h0l-.06-.07-.12-.15-.47-.58c-.33-.39-.58-.8-.87-1.19-1.09-1.61-2-3.24-3-4.7-.25-.35-.49-.73-.76-1.05l-.4-.5-.1-.12-.05-.06,0,0h0c4.32-2.73,1.2-.75,2.17-1.36v0l.14.3c.36.82.75,1.64,1.15,2.47.8,1.66,1.64,3.36,2.32,5.18h0l.25.66.21.69A12.91,12.91,0,0,1,879,325l.14.73.07.36h0l-2.2,1.11,0,0,0,0-.06-.06-.12-.14-1-1.1a35.71,35.71,0,0,1-3-4.75,42.18,42.18,0,0,0-2.66-4.49l-.75-1h0l2.22-1.23h0v.06l0,.07,0,.15.11.29c.06.19.14.38.22.58.32.77.71,1.54,1.12,2.3h0c.88,1.64,1.89,3.27,2.83,5a20.93,20.93,0,0,1,2.25,5.68,11.71,11.71,0,0,1,.22,1.59v.15h0c-4.57,1.79-1.27.49-2.29.89h0v0l-.12-.15-.22-.3-.46-.61-.46-.62-.4-.63-.79-1.27c-1-1.72-1.85-3.46-2.71-5.14h0c-.37-.75-.77-1.45-1.15-2.18s-.82-1.39-1.26-2.06l-.68-1-.35-.49h0l2.25-1.22h0l0,0,0,.07.05.14.11.28.43,1.11.49,1.11a91.39,91.39,0,0,1,4.2,9.28h0a11.81,11.81,0,0,1,.42,1.5l.19.76,0,.19,0,.09v0h0c.49-.23-4.23,2.1-2.23,1.11h0l0,0-.25-.3-1-1.23c-.3-.42-.57-.86-.85-1.28l-.42-.65-.37-.66c-.25-.44-.5-.88-.74-1.33-.44-.89-.91-1.78-1.32-2.66-.85-1.78-1.67-3.52-2.6-5.16l-.71-1.21,0,0v0h0c4.59-2.35,1.27-.65,2.3-1.17l0,.08.07.16.14.32.3.65.58,1.3c.19.43.39.86.62,1.29h0l1.38,2.62,1.44,2.65c.48.87.9,1.83,1.36,2.74l.33.69.17.35,0,.08,0,.05v0L872,329.83h0l-.13-.16c-.36-.41-.7-.82-1-1.25-2.51-3.43-3.94-7.24-6.19-10.25-.31-.43-.66-.83-1-1.22l-.54-.56-.06-.07h0c4.28-2.61,1.19-.72,2.15-1.3v0l0,.05.07.2.12.4,1,3.19,1.16,3.17c.38,1.06.81,2.11,1.21,3.17l1.24,3.16.62,1.59,0,.05v0c-4.47,2.51-1.24.7-2.24,1.25h0l-.07-.1-.12-.18-.26-.37-.5-.75a50.79,50.79,0,0,1-3.25-6.17h0a49.5,49.5,0,0,0-2.56-4.92c-.24-.38-.45-.79-.72-1.14l-.8-1.06-.2-.27-.05-.07h0l2.25-1.12v0l.05.17.17.65c.12.43.21.87.37,1.29a83.5,83.5,0,0,0,4.62,10.2h0l.35.75.18.37.09.19,0,.09v0l-2.25,1.27h0v0l0,0-.89-1.4c-.59-.93-1.23-1.85-1.76-2.8l-3.31-5.61c-.55-.94-1.15-1.81-1.72-2.71l-.43-.68-.22-.33,0-.09,0,0h0l2.29-1.19v0l.07.19.6,1.5,2.39,6h0l1.94,5.05.48,1.27.12.31.06.16,0,0h0l-2.09,1.39h0l-.07-.07-.54-.53a14.92,14.92,0,0,1-1.78-2.34,48.54,48.54,0,0,1-2.52-4.9,28.19,28.19,0,0,0-2.48-4.48h0a12.83,12.83,0,0,0-.91-1.13l-.51-.5,0,0h0l2.07-1.44,0,.09.08.19.16.36c.42,1,.82,2,1.25,2.93l1.38,2.89,1.44,2.89,1.45,2.92.36.73,0,.09h0c-4.42,2.66-1.23.73-2.22,1.33h0v0l0-.05-.12-.17-.25-.36c-.32-.47-.62-1-.9-1.44-1.14-1.93-2.07-3.89-3.09-5.75h0a26.45,26.45,0,0,0-2.87-4.42l-.42-.47-.44-.44a3.39,3.39,0,0,0-.45-.4l-.24-.2-.11-.09-.06-.05h0l2-1.23v.06l.26,1.26.13.64.19.63c1,3.36,2.77,6.56,4.39,9.95h0c.22.46.44.91.65,1.38l.61,1.42.15.35,0,.09v0h0l-2.12,1.39h0l0,0-.13-.15-.53-.59c-.35-.39-.71-.78-1-1.18l-.93-1.26a15.15,15.15,0,0,1-.89-1.26c-.56-.86-1.13-1.72-1.63-2.59-1.06-1.73-2-3.45-3.08-5.11-.53-.82-1.09-1.61-1.64-2.4l-.89-1.11-.45-.56,0,0h0l2.23-1.19v0l0,.09,0,.17.1.34h0a89.88,89.88,0,0,0,4,9.9c.37.84.68,1.71,1,2.58.17.43.3.88.45,1.33l.22.67.05.16,0,.09v0h0c-3.42,3.14-1,.87-1.72,1.57h0l-.06,0c-.16-.08-.33-.16-.48-.25a5.64,5.64,0,0,1-1.32-1.23,11.92,11.92,0,0,1-.85-1.29c-.48-.85-.88-1.7-1.26-2.51h0c-.22-.46-.43-.89-.65-1.29l-.74-1.4c-.47-.91-.94-1.82-1.41-2.7a18.91,18.91,0,0,0-3.29-4.68l-.48-.45,0,0,0,0,2-1.45h0l0,.09.06.17.13.34c.18.45.37.9.58,1.35.41.91.86,1.81,1.32,2.73a57.83,57.83,0,0,1,2.6,5.73h0a19.27,19.27,0,0,1,.86,3.09c.06.26.08.54.12.81l.05.41v0l-1.83,1.29h0l-.06,0-.13-.07-.25-.15a6.19,6.19,0,0,1-1.37-1.32,17.44,17.44,0,0,1-1.7-2.76c-.47-.91-.88-1.85-1.32-2.63-1-1.76-1.89-3.54-2.87-5.22-.24-.42-.49-.84-.75-1.24s-.51-.81-.79-1.19a13.89,13.89,0,0,0-.85-1.13l-.22-.27,0-.07,0,0v0h0c-2,1,2.73-1.4,2.24-1.14l.05.17.2.68h0a44.76,44.76,0,0,0,2.14,5.8c.81,2,1.69,3.9,2.39,6,.2.51.34,1.05.5,1.57l.24.79,0,.1h0c.43-.3-3.77,2.64-2,1.4h0l0,0-.06,0-.21-.16a4.17,4.17,0,0,1-.38-.34,12.2,12.2,0,0,1-2-2.91c-.53-1-1-2-1.42-2.92-.24-.5-.41-.86-.69-1.34l-.77-1.39h0a35.72,35.72,0,0,0-2.92-4.76,5.3,5.3,0,0,0-.42-.52l-.21-.25-.11-.12-.05-.06,0,0h0c-.49.23,4.22-2,2.23-1.05v0l.26,1.31a8.87,8.87,0,0,0,.35,1.32,12.46,12.46,0,0,0,.42,1.31l.48,1.31.55,1.32,1.13,2.66.57,1.37c.18.46.35.93.52,1.4l.26.71.21.73.21.73.11.37,0,.09,0,.05h0c-4.28,2.51-1.19.7-2.15,1.25h0l-.15-.15a20.75,20.75,0,0,1-3.83-5.68c-1-2-1.84-3.9-2.9-5.64a15.23,15.23,0,0,0-1.77-2.37,4.91,4.91,0,0,0-.51-.51L830,315l-.14-.12-.06-.06h0l2.08-1.26v.06c.12.48.23.95.39,1.42A30.84,30.84,0,0,0,835,320.6h0c.93,1.6,1.92,3.23,2.79,5a24.08,24.08,0,0,1,1.15,2.75l.23.72,0,.09v0h0l-2.23,1.2h0l0,0-.12-.15-.24-.29c-.33-.39-.61-.8-.9-1.21-2.22-3.26-3.65-6.76-5.7-9.66h0a16.53,16.53,0,0,0-1.69-2.07c-.32-.31-.63-.6-1-.87l-.51-.37-.06,0,0,0,0,0h0c-1.72,1.36,2.35-1.87,1.93-1.54l.06.16.14.32.53,1.27c.19.42.41.83.62,1.25.4.84.9,1.66,1.35,2.48,1,1.66,2,3.31,2.92,5.06.25.43.46.89.68,1.34s.46.89.64,1.37l.56,1.42.07.18,0,.09,0,0v0h0c1.86-1.24-2.53,1.7-2.08,1.4l-.29-.28-.57-.55h0a24.66,24.66,0,0,1-3.27-4.39c-.92-1.51-1.75-3-2.63-4.48a22.6,22.6,0,0,0-2.89-4,9.26,9.26,0,0,0-.85-.81l-.44-.38-.06-.05,0,0h0l2-1.47h0l.06.13.12.28.47,1.1c.16.37.39.72.58,1.08h0c.44.85,1,1.67,1.54,2.5l1.72,2.52c.58.83,1.13,1.73,1.69,2.62a21.67,21.67,0,0,1,1.45,2.89l.31.77.07.19,0,.05v0h0l-2.16,1.31-.07-.08-.26-.3L829.67,328c-.33-.42-.63-.85-.95-1.27s-.62-.86-.9-1.29c-1.17-1.74-2.18-3.5-3.26-5.19h0l-.79-1.23-.83-1.17a14.08,14.08,0,0,0-.87-1.13l-.45-.55-.23-.27,0-.07,0,0c4.28-2.8,1.19-.77,2.15-1.4h0l0,0,.08.16c.8,1.74,1.8,3.42,2.8,5.13s2,3.44,3,5.29c.22.46.47.91.66,1.4l.3.72.16.36.07.18,0,.09h0l-2,1.45h0l0,0,0,0a17.09,17.09,0,0,1-2.22-2.37h0c-2.28-3-3.62-6.27-5.32-9.17a23.29,23.29,0,0,0-1.34-2.09c-.23-.34-.49-.65-.74-1l-.09-.11,0-.06,0,0h0c4.37-2.63,1.21-.73,2.19-1.31h0v0l.12.29.24.58c.17.39.32.78.5,1.16l.56,1.14c.35.76.79,1.5,1.18,2.25h0c1.6,2.85,3.44,5.62,5.17,8.51l.33.54.16.27.08.14,0,0h0c-4.23,2.95-1.17.81-2.12,1.47h0l-.05-.07-.79-1c-.54-.69-1-1.41-1.48-2.12-.92-1.42-1.79-2.86-2.67-4.25h0c-.4-.67-.84-1.3-1.25-1.94s-.88-1.25-1.34-1.84l-.71-.87-.18-.21,0-.06,0,0v0h0l2.22-1.19h0l0,.12.16.51a12.18,12.18,0,0,0,.85,2c1.32,2.64,3.42,5.08,4.78,8.24h0c.17.37.3.77.44,1.17l.18.61,0,.15,0,.08v.06h0L825,329.94h0l-.18-.24a21.73,21.73,0,0,1-1.42-1.93c-.9-1.31-1.66-2.65-2.43-3.95s-1.54-2.56-2.39-3.73c-.2-.31-.44-.57-.66-.85l-.34-.42-.17-.21h0l2.25-1.07v0l0,.06,0,.13.23,1c.08.33.23.65.34,1h0a28.14,28.14,0,0,0,2.71,5.09c.55.83,1.1,1.66,1.67,2.5l.84,1.29.06.08v0h0c-.93.7,2.06-1.54-2.07,1.56h0l0,0-.12-.15-.25-.29-.48-.6h0l-1.93-2.34-1.8-2.43-.45-.61-.23-.31-.11-.15,0-.07,0,0c4.53-2.4,1.26-.64,2.28-1.17l.55,1.32c.16.44.38.88.59,1.32s.41.87.64,1.32c.44.89.88,1.78,1.31,2.72l.33.69c.49-.26-4.21,2.47-2.23,1.29l0,0-.06-.08-.11-.16-.22-.32c-.3-.43-.6-.86-.86-1.27s-.54-.84-.81-1.21a9.58,9.58,0,0,0-.83-1.1l-.43-.5-.1-.13c1-.58-2.18,1.26,2.13-1.31l0,0,0,.08.11.33c.15.44.33.89.5,1.36a17.14,17.14,0,0,1,.95,3.08l.06.45,0,.18,0,.19v.11h0l-2.21,1h0l0,0c-.3-.33-.64-.68-.91-1l-.8-.94-.39-.44Z" transform="translate(-815.73 -310.72)"/><path class="ba671c16-9645-46c2-b94a-9792919f9dd4" d="M851.3,338.72a.62.62,0,0,1,.39.3,3.27,3.27,0,0,1,.7,1.2,2.2,2.2,0,0,1,0,1.32,2.39,2.39,0,0,1-.92,1c-.45.3-1,.55-1.64.89a.83.83,0,0,1-.29.1,4,4,0,0,0-2.57,0,7.26,7.26,0,0,0-2.69,1.59,7.71,7.71,0,0,0-1.86,2.54,5.5,5.5,0,0,0-.42,1.39l0,.37v.37l0,.37a1.66,1.66,0,0,0,0,.33,3.17,3.17,0,0,0,1,2.09,6,6,0,0,0,2.63,1.28,10.47,10.47,0,0,0,3.79.14h.28l.75-.09.44-.08c.16-.06.34-.09.52-.16a4.89,4.89,0,0,0,1.16-.59,6.61,6.61,0,0,0,2.2-2.45,5.74,5.74,0,0,0,.7-3.37,4.88,4.88,0,0,0-.9-2.19,9.46,9.46,0,0,0-1.13-1.26c-.63-.59-.8-.91-.47-1.06a3.21,3.21,0,0,1,2.26.41,5.93,5.93,0,0,1,1.69,1.26,6.5,6.5,0,0,1,1.36,2.24,5.57,5.57,0,0,1,.45,2.39,10,10,0,0,1-1.74,5.66,10.3,10.3,0,0,1-2.28,2.42,9.51,9.51,0,0,1-2.67,1.45,13.88,13.88,0,0,1-1.94.51l-.74.13a15.22,15.22,0,0,1-4.93-.33,11,11,0,0,1-4.9-2.48,7.25,7.25,0,0,1-1-1.11l-.46-.63c-.13-.22-.24-.45-.37-.68s-.24-.46-.33-.7l-.23-.74a7,7,0,0,1-.29-1.47,6.64,6.64,0,0,1-.07-.73l0-.7,0-.69.08-.68a10.46,10.46,0,0,1,.79-2.69,12.83,12.83,0,0,1,3.11-4.28,12.38,12.38,0,0,1,4.67-2.72A9.16,9.16,0,0,1,851.3,338.72Z" transform="translate(-815.73 -310.72)"/><path class="ba671c16-9645-46c2-b94a-9792919f9dd4" d="M849.33,354.73a.88.88,0,0,1,.51.22,3.8,3.8,0,0,1,.62.52,3.2,3.2,0,0,1,.46.67,1.72,1.72,0,0,1,.07,1.38,2.58,2.58,0,0,1-1,1c-.22.16-.44.3-.66.48a4,4,0,0,0-.58.65l-.07.09a.39.39,0,0,1-.11.09,9,9,0,0,0-3,.48,8.2,8.2,0,0,0-2.83,1.6,9.3,9.3,0,0,0-3.11,5.49A6.67,6.67,0,0,0,841,373a8.59,8.59,0,0,0,5.55,2.72,11.18,11.18,0,0,0,6.49-1.16,9,9,0,0,0,2.86-2.26l.17-.19c.12-.11.24-.3.43-.52a5.74,5.74,0,0,0,.93-2.1,6.56,6.56,0,0,0-.18-3.28,10.11,10.11,0,0,0-1.76-3.34,13.54,13.54,0,0,0-1.9-1.9c-.56-.49-1-.83-1.36-1.12-.69-.55-.84-.87-.53-1a3.78,3.78,0,0,1,2.18.17,10.45,10.45,0,0,1,3.69,2,6.3,6.3,0,0,1,1.59,1.5,11.32,11.32,0,0,1,2.5,5.11,9.69,9.69,0,0,1,.09,3.31,9.39,9.39,0,0,1-.85,2.84,10,10,0,0,1-.56,1c-.18.3-.36.54-.5.75-.3.4-.49.62-.49.62a14.25,14.25,0,0,1-3.94,3,16.32,16.32,0,0,1-9.47,1.71,15,15,0,0,1-4.75-1.36,12.3,12.3,0,0,1-4.09-3.12,11,11,0,0,1-2.38-4.72,12.91,12.91,0,0,1-.1-5.1,14.4,14.4,0,0,1,4.84-8.54,13.29,13.29,0,0,1,4.53-2.56c.41-.12.84-.27,1.25-.35s.84-.18,1.2-.24A9.54,9.54,0,0,1,849.33,354.73Z" transform="translate(-815.73 -310.72)"/></svg>