<svg id="e211abf1-e4eb-4eba-bacd-9b2fda18c229" data-name="Objects" xmlns="http://www.w3.org/2000/svg" viewBox="0 0 59.1 49.4">
  <defs>
    <style>
      .bd14c7b1-6533-444c-bbaa-89a0a77c8787 {
        fill: #252525;
      }
    </style>
  </defs>
  <path class="bd14c7b1-6533-444c-bbaa-89a0a77c8787" d="M801,153.9a.4.4,0,0,1,.1.3,2.6,2.6,0,0,1-.4,1.9,2.7,2.7,0,0,1-2.5.4h-.3a4.4,4.4,0,0,0-1.7-1.4,2,2,0,0,0-1.7.1,5.7,5.7,0,0,0-2.3,1.9,11.1,11.1,0,0,0-1.7,3,13.7,13.7,0,0,0-.7,3.4,9.7,9.7,0,0,0,.1,1.7v.4a.6.6,0,0,0,.1.4,2.4,2.4,0,0,0,.2.9,4.9,4.9,0,0,0,.6,1.7,4,4,0,0,0,.7,1.3l.2.2h0a1.7,1.7,0,0,0,.6-.4,11.6,11.6,0,0,0,2.2-2.6,18.3,18.3,0,0,0,1.8-3.4,37.3,37.3,0,0,0,2.6-7.3,11.6,11.6,0,0,0,.4-1.8,5,5,0,0,0,.1-1.7v-.2h.2l.4-.2h.4l.2-.2h0v.2a1.4,1.4,0,0,0,.2.7v.2h0l.9-1.3h0a2.2,2.2,0,0,0-.1.8,26,26,0,0,0,.4,3.7c.3,1.2.6,2.5,1,3.7a19.1,19.1,0,0,0,1.3,3.6,13.1,13.1,0,0,0,1.8,2.9h0l1,.8h2.2a7,7,0,0,0,3.6-1.6,4.4,4.4,0,0,0,1.2-1.5,11.7,11.7,0,0,0,.6-2,18.6,18.6,0,0,0-.1-4.7,26.9,26.9,0,0,0-3.3-9.1l-.6-.9-.4-.4-.4-.4a14.5,14.5,0,0,0-1.8-1.7,14.8,14.8,0,0,0-3.9-2.8,14,14,0,0,0-8.9-1.6A17.8,17.8,0,0,0,787,145a30.7,30.7,0,0,0-6.4,7.5,32,32,0,0,0-3.8,9.2,24.6,24.6,0,0,0-.6,9.7,11.1,11.1,0,0,0,4.5,7.5,16.2,16.2,0,0,0,4.2,2,25.6,25.6,0,0,0,4.8,1,42.7,42.7,0,0,0,10.1-.1,85.4,85.4,0,0,0,10.1-1.8l2.5-.7,1.4-.4.7-.2,2.6-.8,3.3-.9,6.4-1.9,3.4-1.1c.7-.1,1-.1.9.2s-1.6,1.8-3.5,2.9a32,32,0,0,1-4.6,2.5c-2.5,1.2-5.2,2.2-5.2,2.2l-2.6.8h-.4l-.7.2-1.3.4a47,47,0,0,1-5.1,1.2,60.4,60.4,0,0,1-10.5,1.5,43.8,43.8,0,0,1-10.8-.6,20.7,20.7,0,0,1-5.3-1.8,14.5,14.5,0,0,1-4.8-3.4,13.6,13.6,0,0,1-3.1-5,18,18,0,0,1-1.1-5.6,33.3,33.3,0,0,1,.2-5.5,6.8,6.8,0,0,0,.2-1.4l.3-1.3a26.8,26.8,0,0,1,.7-2.7,37.9,37.9,0,0,1,4.7-9.7,32.9,32.9,0,0,1,7.5-8,23.9,23.9,0,0,1,4.9-2.8,20.9,20.9,0,0,1,5.6-1.4,16.3,16.3,0,0,1,5.8.5,19.8,19.8,0,0,1,5.2,2.2l1.2.8,1.1.8.6.4.5.5,1,.9,1,1,.5.4.5.6a17.7,17.7,0,0,1,1.7,2.4,32.7,32.7,0,0,1,2.2,5.1,30.4,30.4,0,0,1,1.3,5.4,18.9,18.9,0,0,1-.1,5.8,7.9,7.9,0,0,1-1.1,2.9,10,10,0,0,1-.8,1.4,13.6,13.6,0,0,1-1.2,1.2,13.1,13.1,0,0,1-2.8,1.7,17.4,17.4,0,0,1-2.9.7h-3.2a9.3,9.3,0,0,1-2-.8l-1.3-1.2h0a21.3,21.3,0,0,1-2.5-3.9,33.9,33.9,0,0,1-1.5-4.1,32,32,0,0,1-1-4.2,20.4,20.4,0,0,1-.5-4.4,6.2,6.2,0,0,1,.1-1.3v-.5h.1c-.2.2,1.8-2.5,1-1.3h0l.4-.3H801l1,.4.7.6a1.6,1.6,0,0,1,.4.7,6.8,6.8,0,0,1,.4,1.7,17.9,17.9,0,0,1-.2,2.4c-.1.7-.3,1.5-.4,2.2a54.4,54.4,0,0,1-2.9,8,28.2,28.2,0,0,1-2.1,3.8,21.4,21.4,0,0,1-1.3,1.9,9.1,9.1,0,0,1-1.7,1.7,5.7,5.7,0,0,1-1.3.8,4.8,4.8,0,0,1-1.8.4,2.6,2.6,0,0,1-1.9-.5,3.6,3.6,0,0,1-1.3-1.1,6.8,6.8,0,0,1-1.4-2.2c-.3-.8-.5-1.5-.7-2.2l-.3-1.1c0-.2-.1-.3-.1-.5v-.6a9.9,9.9,0,0,1-.1-2.4,13.9,13.9,0,0,1,.9-4.6,12.7,12.7,0,0,1,2.3-4.1,8.9,8.9,0,0,1,3.9-3.2,8.6,8.6,0,0,1,2.3-.5,10,10,0,0,1,2.4.4A8.7,8.7,0,0,1,801,153.9Z" transform="translate(-772 -136.7)"/>
</svg>
