<svg id="fc154a92-af91-4a93-a162-c70065570f17" data-name="Objects" xmlns="http://www.w3.org/2000/svg" viewBox="0 0 37.73 48.15"><defs><style>.bb9d40d0-8fb5-49ba-a8ae-c6fb0a81a6f4{fill:#252525;}</style></defs><path class="bb9d40d0-8fb5-49ba-a8ae-c6fb0a81a6f4" d="M715.72,495.7a.3.3,0,0,1-.21-.16,2.69,2.69,0,0,1-.73-1.64c0-.66.32-1.39,1.59-1.95a1.21,1.21,0,0,1,.36-.07,31.32,31.32,0,0,1,6.5,2.54,38.5,38.5,0,0,1,10.65,8.42,52.74,52.74,0,0,1,7.58,11.07c.58,1.11,1.11,2.25,1.63,3.4,0,0,.54,1.46,1.11,3.48a42.74,42.74,0,0,1,1.3,6.76,15.41,15.41,0,0,1,.12,3.71c-.08.7-.26.9-.48.75-.44-.31-1-2-1.8-4.08,0,.23-.76-2.25-1.79-4.68-.52-1.22-1.07-2.43-1.52-3.32s-.75-1.49-.75-1.49c-.41-.92-.86-1.83-1.32-2.72a48.87,48.87,0,0,0-7-10.24,34.42,34.42,0,0,0-9.55-7.56A27.33,27.33,0,0,0,715.72,495.7Z" transform="translate(-714.78 -491.88)"/><path class="bb9d40d0-8fb5-49ba-a8ae-c6fb0a81a6f4" d="M733.56,525c-.08,0-.1-.05-.17-.17a2.94,2.94,0,0,1-.6-1.64c0-.66.31-1.4,1.7-1.88a1,1,0,0,1,.39,0,14.74,14.74,0,0,1,3.36,1.7,18.56,18.56,0,0,1,2.81,2.39,25.58,25.58,0,0,1,2.44,3c.18.26.37.52.53.79l.09.13h0l.15-.57,0-.12,0-.07.07-.23.28-.89.57-1.79.41-.94c.26-.58.6-1.42,1.05-2.34.88-1.87,2-4.16,3.08-6,1.67-3.17,2.42-4,2.66-3.56s-.08,2.33-.67,4.48c.12-.2-.67,2.35-1.46,4.92-.4,1.29-.78,2.59-1,3.56-.13.49-.25.9-.33,1.19l-.11.45-.46,1.45-.23.73,0,.09,0,.16-.08.34-.16.68-.73,3.12c-.07.28-.13.5-.19.81l-.19.89-.37,1.79-.37,1.79-.1.44,0,.23,0,.11s0,0,0-.08l-.46-.8-1.83-3.21c-.62-1.08-1.24-2.14-1.86-3.19l-.47-.78-.41-.62c-.15-.25-.31-.47-.47-.71a21.75,21.75,0,0,0-2.06-2.56,14.4,14.4,0,0,0-2.16-1.85A11.25,11.25,0,0,0,733.56,525Z" transform="translate(-714.78 -491.88)"/></svg>