<svg id="a631e261-7a5c-4022-acba-9be7f9a4ac22" data-name="Objects" xmlns="http://www.w3.org/2000/svg" viewBox="0 0 60.7 33.8">
  <defs>
    <style>
      .a96ff1da-5d52-4d1e-97de-0c79a817b277 {
        fill: #252525;
      }
    </style>
  </defs>
  <g>
    <path class="a96ff1da-5d52-4d1e-97de-0c79a817b277" d="M667.7,363.8h.1c0,.2,0,.5-.2.6s-.5.2-.9.1h-.1l-.3-.4-1-.8h-.2l-1.3-.6a15.2,15.2,0,0,0-2.8-.9l-1.5-.4-1.6-.2a25.8,25.8,0,0,0-6.2.1,34.2,34.2,0,0,0-6.3,1.6,37,37,0,0,0-11.7,6.7,38.6,38.6,0,0,0-4.9,5,16.6,16.6,0,0,0-3.5,6,7.9,7.9,0,0,0-.3,3.4,5.7,5.7,0,0,0,1.6,2.8,11,11,0,0,0,2.8,2,23.7,23.7,0,0,0,3.4,1.3,60.2,60.2,0,0,0,7.4,1.3h7.5a54.6,54.6,0,0,0,14.9-2.9c2.5-.8,5-1.6,7.3-2.6a21.6,21.6,0,0,0,3.4-1.7,13,13,0,0,0,2.9-2.2l.6-.7.5-.8a7.5,7.5,0,0,0,.5-1.6c.1-.3,0-.6.1-.8s0-.6-.1-.9a4.8,4.8,0,0,0-.5-1.7,13.2,13.2,0,0,0-4.4-5.8,13.9,13.9,0,0,0-6.7-2.9,31.6,31.6,0,0,0-7.5-.5,70.2,70.2,0,0,0-28.5,7.2,26,26,0,0,0-5.8,4,13.7,13.7,0,0,0-2.3,2.5l-.5.7-.4.7-.8,1.5a6.7,6.7,0,0,0-.5,3.1,5.2,5.2,0,0,0,1.4,2.5,10.4,10.4,0,0,0,2.7,1.7,15.8,15.8,0,0,0,3.1.9,34,34,0,0,0,6.3.8q3.3.2,6.3,0l3.1-.4,2.9-.5,5.8-1.3,2.7-.8,1.3-.4,1.3-.5,2.5-1,1.2-.6,1.2-.6,1.1-.7,1-.7,2-1.4.9-.8.9-.8.2-.2h0l.4-.5a1.2,1.2,0,0,1,.4-.4l.2-.2.3-.3.3-.3c.4-.6,1.1-1.2,1.5-1.8s1.3-1,.6.5a18,18,0,0,1-2,3.1l-.4.5-.2.2h-.2l-.2.2-.4.4-.9.8a31.8,31.8,0,0,1-8.6,5.2,65.6,65.6,0,0,1-10.6,3.1l-5.8,1.1a41.7,41.7,0,0,1-6.1.4,45.8,45.8,0,0,1-6.4-.4,21.7,21.7,0,0,1-6.4-1.7,8,8,0,0,1-3-1.9,5.1,5.1,0,0,1-1.7-3.3,7.2,7.2,0,0,1,.5-3.6,17,17,0,0,1,4.2-5.9,15.1,15.1,0,0,1,2.8-2.2,19.8,19.8,0,0,1,3.1-1.9,31.8,31.8,0,0,1,3.2-1.6c2.2-1,4.5-1.8,6.8-2.6l3.6-1,1.8-.5,1.8-.4,3.7-.7,1.8-.3,1.9-.2,1.9-.2h5.7a28.7,28.7,0,0,1,7.6,1.2,14.9,14.9,0,0,1,6.7,4.3,12.4,12.4,0,0,1,2.3,3.2,10.4,10.4,0,0,1,1.2,3.9,7.4,7.4,0,0,1-.1,2.1c-.2.3-.2.7-.4,1l-.2.5-.3.5a11.1,11.1,0,0,1-2.8,2.9,32.7,32.7,0,0,1-7,3.5l-7.3,2.4a61.1,61.1,0,0,1-15.2,2.5,47.7,47.7,0,0,1-7.6-.5,40.2,40.2,0,0,1-7.5-1.6,15.4,15.4,0,0,1-3.4-1.7,8.3,8.3,0,0,1-2.8-2.8,5.8,5.8,0,0,1-1-3.8,10.1,10.1,0,0,1,.9-3.8,23.3,23.3,0,0,1,4.1-6.1,40.2,40.2,0,0,1,5.2-4.9,37.4,37.4,0,0,1,12.1-6.5,20.2,20.2,0,0,1,3.3-.9,18.8,18.8,0,0,1,3.3-.5,18.3,18.3,0,0,1,3.3-.2l3.2.3a18.7,18.7,0,0,1,6.1,1.8l.7.4h.3l1.2,1.1Z" transform="translate(-618.5 -359.6)"/>
    <path class="a96ff1da-5d52-4d1e-97de-0c79a817b277" d="M637.8,376.8h0l-.3-.2h-.2s0,.1-.2-.1-.1-.2-.1-.3a.3.3,0,0,1,.1-.2h.2a.1.1,0,0,1,.1.1c0,.1.1.2,0,.4h-.1v-.2h0l.2-.3h.1l2.2-.4,1.6-.3h1.5l17-3.6,3.5-.4c2.5-.2,1.6.3.1.8l-3.5,1-16.8,3.5-.8.2h-.2v-.5h0v.6h0v-.4h-.4l-1.6.3Z" transform="translate(-618.5 -359.6)"/>
    <path class="a96ff1da-5d52-4d1e-97de-0c79a817b277" d="M639.2,380.1h-.1l-.3-.2h-.1v-.2h0v.4h-.2c0-.1-.1-.1-.1-.3h.3c0-.1.1-.2.2-.3H641v.3h-.1v.2a.1.1,0,0,0,.1-.1h0v-.7h.2l4.8-.6,2.3-.4,2.4-.3,4.7-.9,3.7-.6a31.6,31.6,0,0,1,3.6-.3c2.5-.1,1.6.3.1.8l-3.6.8-3.8.7-4.6.8-2.4.4-2.3.4-4.7.5h-.3v-1.4h.4s.1,0,.2.2.2.1.2.3-.1.3-.1.4l-.3.3h-2.2Z" transform="translate(-618.5 -359.6)"/>
    <path class="a96ff1da-5d52-4d1e-97de-0c79a817b277" d="M640,383h-.1c-.3-.2-.8-.6-.1-1.3h.1l2.2-.3,2.2-.5,1.2-.3,1.2-.2,2.3-.4c2.5-.3,1.6.2.2.8l-1.7.6-1.8.6-1.1.2-2.3.5A9.1,9.1,0,0,1,640,383Z" transform="translate(-618.5 -359.6)"/>
  </g>
</svg>
